<?xml version="1.0" standalone="no"?>
<!DOCTYPE svg PUBLIC "-//W3C//DTD SVG 1.1//EN" "http://www.w3.org/Graphics/SVG/1.1/DTD/svg11.dtd" >
<svg xmlns="http://www.w3.org/2000/svg" xmlns:xlink="http://www.w3.org/1999/xlink" version="1.1">
<metadata></metadata>
<defs>
<font id="hackregularoblique" horiz-adv-x="1233" >
<font-face units-per-em="2048" ascent="1638" descent="-410" />
<missing-glyph horiz-adv-x="500" />
<glyph unicode="&#xd;" />
<glyph horiz-adv-x="0" />
<glyph horiz-adv-x="0" />
<glyph unicode=" " />
<glyph unicode="!" d="M647 1053l70 445h265l-70 -445l-157 -567h-121zM606 -60q-33 0 -58 9.5t-43 31.5q-21 25 -28 55t-7 53q0 41 16 76t45 64q29 28 63 41.5t70 13.5q31 0 58 -10t46 -30q22 -24 28 -52.5t6 -43.5q0 -43 -18 -85.5t-53 -74.5q-24 -23 -54.5 -35.5t-70.5 -12.5z" />
<glyph unicode="&#x22;" d="M338 1493h174v-555h-174v555zM721 1493h174v-555h-174v555z" />
<glyph unicode="#" d="M250 414h-256l39 153h256l84 334h-258l39 154h258l104 415h160l-105 -415h246l105 415h159l-104 -415h256l-39 -154h-256l-84 -334h258l-39 -153h-258l-104 -414h-160l104 414h-245l-105 -414h-160zM694 567l84 334h-246l-83 -334h245z" />
<glyph unicode="$" d="M413 0q-93 3 -191 26q-51 12 -98 28.5t-93 37.5l35 180q81 -60 176 -93q96 -34 198 -38l90 465q-85 17 -148.5 43t-106.5 65q-38 35 -59 82.5t-21 115.5q0 83 33 156.5t100 131.5t154.5 88t186.5 33l48 235h100l-47 -235q45 -3 89 -9t74 -12q15 -3 34 -7.5t39.5 -10 t40 -11t36.5 -11.5l-32 -173q-32 20 -71 37t-71 27t-76 18.5t-90 12.5l-81 -426q175 -35 263 -117q45 -42 67 -94.5t22 -123.5q0 -88 -34 -163.5t-103 -135.5q-137 -120 -353 -120h-10l-59 -303h-101zM643 1184q-118 -7 -194 -76t-76 -167q0 -70 42 -107q20 -18 55.5 -33 t92.5 -27zM543 145q130 0 209 73q38 35 58.5 81t20.5 103q0 44 -12 74.5t-35 50.5q-46 41 -155 61z" />
<glyph unicode="%" d="M351 793q-68 0 -126 24.5t-100 66.5q-45 45 -68.5 103.5t-23.5 124.5q0 71 25 129t67 100t100 66.5t127 24.5q64 0 123 -24q58 -24 103 -69q23 -23 41 -49.5t29 -53.5q24 -59 24 -123q0 -66 -24 -125t-68 -103q-42 -42 -101 -67t-128 -25zM351 928q37 0 71 13.5t61 39.5 q23 23 38.5 56.5t15.5 75.5q0 76 -54 130q-55 53 -130 53q-77 0 -131 -52q-25 -24 -39.5 -58t-14.5 -74q0 -79 53 -132q22 -22 55 -37t75 -15zM42 560l1150 436v-113l-1150 -430v107zM879 0q-136 0 -228 92q-45 46 -67.5 103.5t-22.5 122.5q0 71 25 129.5t67 100.5 t99.5 66.5t126.5 24.5q33 0 63 -6t59 -18q57 -24 103 -70q25 -25 42.5 -52t28.5 -53q25 -57 25 -121q0 -63 -22.5 -121t-70.5 -106q-47 -46 -104.5 -69t-123.5 -23zM879 135q77 0 131 54q53 53 53 130t-54 131t-130 54q-77 0 -130 -53t-53 -132q0 -78 53 -131t130 -53z" />
<glyph unicode="&#x26;" d="M408 -29q-94 0 -174 27t-138 80q-57 51 -86.5 122.5t-29.5 161.5q0 81 25 160.5t74 150.5t121.5 133t166.5 114q-17 32 -26 55t-17 51q-7 26 -11 51.5t-4 57.5q0 84 30.5 156t92.5 125q60 51 144 77.5t185 26.5q66 0 128 -12q60 -12 119 -35l-35 -183q-42 38 -103 57 q-31 10 -65 14.5t-67 4.5q-120 0 -187 -57q-34 -29 -51 -68t-17 -84q0 -23 5 -50t17 -62q11 -32 25 -64.5t37 -73.5l307 -557q62 66 99 169q19 52 31 111t18 130h168q-8 -85 -27 -159t-51 -143q-62 -135 -168 -237l123 -221h-199l-59 113q-49 -36 -95 -61.5t-100 -44.5 q-101 -36 -206 -36zM456 129q36 0 70 7.5t71 21.5q35 14 70.5 33.5t73.5 48.5l-309 555q-135 -74 -204 -171q-35 -50 -52.5 -104.5t-17.5 -108.5q0 -65 23 -115.5t62 -86.5q41 -38 95.5 -59t117.5 -21z" />
<glyph unicode="'" d="M528 1493h174v-555h-174v555z" />
<glyph unicode="(" d="M426 -270q-40 95 -68.5 181t-47.5 165t-28 153t-9 152q0 146 32 296t97 301q63 147 158 291t223 285h159q-118 -152 -206 -301t-149 -305q-120 -306 -120 -608q0 -79 8 -151t22 -146q16 -81 37.5 -156.5t51.5 -156.5h-160v0z" />
<glyph unicode=")" d="M320 -270q237 302 356 606q60 153 89.5 304.5t29.5 299.5q0 74 -7.5 150.5t-21.5 150.5q-14 73 -37 152.5t-53 160.5h160q79 -190 116 -345q19 -79 28 -153t9 -152q0 -146 -32 -296.5t-97 -300.5q-66 -152 -160.5 -295t-220.5 -282h-159v0z" />
<glyph unicode="*" d="M250 566l242 371l-364 158l36 103l376 -123l20 425h108l20 -425l376 123l36 -103l-364 -158l242 -371l-94 -67l-270 357l-270 -357z" />
<glyph unicode="+" d="M532 557h-444v170h444v444h168v-444h445v-170h-445v-444h-168v444z" />
<glyph unicode="," d="M400 -283q244 109 252 334q-12 -2 -21.5 -3t-18.5 -1q-32 0 -60 9.5t-50 29.5q-44 39 -44 111q0 71 46 111q20 18 48.5 29.5t66.5 11.5q86 0 133 -68q46 -67 46 -188q0 -171 -92 -295q-92 -123 -260 -185z" />
<glyph unicode="-" d="M226 673h822l-33 -164h-822z" />
<glyph unicode="." d="M613 -27q-68 0 -115 47t-47 122t47 122t115 47t115 -47t47 -122t-47 -122t-115 -47z" />
<glyph unicode="/" d="M868 1493h191l-854 -1683h-189z" />
<glyph unicode="0" d="M480 -29q-194 0 -288 124t-94 369q0 99 14.5 207t41.5 214t64 198t79 161q42 71 90 122.5t106 86.5q52 32 115 49.5t141 17.5q101 0 172 -30.5t119 -93.5q45 -60 70 -150t25 -218q0 -101 -15 -211t-41 -209q-26 -103 -63 -194.5t-80 -164.5q-42 -72 -90 -124t-105 -86 q-54 -32 -118.5 -50t-142.5 -18zM502 135q85 0 153 51q39 29 67 69.5t48 78.5q33 66 63 156.5t53 190.5q23 103 34.5 199t11.5 177q0 84 -12 139.5t-37 90.5t-64 52t-87 17q-42 0 -81 -12.5t-73 -37.5q-36 -26 -65 -64.5t-52 -83.5q-34 -66 -63.5 -153t-52.5 -193 q-24 -110 -35 -208t-11 -175q0 -87 13 -140t39 -86q24 -31 62 -49.5t89 -18.5zM550 401q-8 0 -12 2q-23 8 -32 41t-9 82q0 14 0.5 25.5t1.5 26.5q2 38 5 69t6.5 57t8 48.5t9.5 45.5q3 11 7.5 30.5t12 44t17.5 52t22 54.5q26 57 51.5 83.5t47.5 26.5h4t7 -2q19 -5 31.5 -31 t12.5 -87q-1 -6 -1 -13v-15q-2 -38 -4 -67t-5 -51.5t-6 -40t-7 -32.5q-5 -21 -12 -46.5t-15.5 -53t-18.5 -56t-20 -53.5q-26 -67 -51 -103.5t-51 -36.5z" />
<glyph unicode="1" d="M156 170h313l221 1141l-352 -76l35 184l352 74h203l-258 -1323h309l-33 -170h-823z" />
<glyph unicode="2" d="M32 136q4 20 12 33t21 24l285 251l39 35q131 117 231 216t168 182.5t103 153t35 129.5q0 42 -16.5 77.5t-47.5 61.5t-75.5 39.5t-102.5 13.5q-48 0 -99 -9t-99 -24q-50 -16 -109.5 -42t-122.5 -60l41 204q60 26 115 44.5t102 29.5q57 14 105.5 19.5t91.5 5.5 q97 0 173.5 -25t130.5 -71t83.5 -111.5t29.5 -149.5q0 -42 -8 -84t-28 -90q-40 -97 -117 -190q-9 -11 -19.5 -22.5t-24.5 -26t-32 -32t-43 -40.5q-99 -92 -169.5 -152.5t-96.5 -81.5l-330 -274h694l-32 -170h-914z" />
<glyph unicode="3" d="M383 -29q-57 0 -105 5t-99 14q-54 10 -99.5 22.5t-97.5 32.5l38 201q49 -28 93 -46t93 -32t95.5 -20.5t96.5 -6.5q96 0 168 24t127 70t83.5 105.5t28.5 134.5q0 62 -18.5 106.5t-52.5 73.5q-71 60 -210 60h-153l32 166h154q76 0 140 18.5t111 55.5q45 35 69 86t24 116 q0 53 -16.5 88.5t-45.5 57.5q-62 47 -189 47q-43 0 -87 -5t-93 -15q-56 -11 -104 -25.5t-106 -34.5l37 186l58 14.5t59 14t55.5 12t47.5 8.5q42 7 90 11t90 4q93 0 168 -21.5t129 -65.5q52 -42 80 -103.5t28 -142.5q0 -72 -22 -135.5t-67 -115.5q-42 -49 -104 -84.5 t-147 -52.5q113 -19 178 -102q32 -42 48 -93t16 -120q0 -112 -41.5 -205.5t-125.5 -165.5q-82 -70 -193 -106t-261 -36z" />
<glyph unicode="4" d="M659 356h-634l36 191l785 946h233l-190 -973h198l-30 -164h-199l-70 -356h-198zM690 520l152 762l-625 -762h473z" />
<glyph unicode="5" d="M366 -29q-48 0 -98.5 4t-97.5 12q-94 16 -166 48l41 205q46 -28 89 -46.5t83 -29.5q45 -13 90.5 -19t87.5 -6q93 0 173 29t140 87q55 53 88 128t33 162q0 130 -80 203t-224 73q-39 0 -78.5 -5t-81.5 -15t-81 -24.5t-77 -33.5l145 750h756l-33 -170h-571l-72 -367 q46 16 92 24q22 4 44.5 5.5t43.5 1.5q96 0 172 -29t131 -83q57 -55 86 -131.5t29 -169.5q0 -124 -52 -240q-53 -117 -149 -203q-43 -38 -92.5 -68.5t-108.5 -51.5q-57 -20 -120.5 -30t-141.5 -10z" />
<glyph unicode="6" d="M515 -29q-93 0 -174 28t-139 88q-54 56 -82 141.5t-28 204.5q0 69 9.5 155.5t29.5 176.5q19 87 47 172t60 154q51 111 114.5 191t136.5 131q152 107 357 107q38 0 76 -3.5t72 -11.5q31 -7 66.5 -19t67.5 -26l-36 -186q-59 37 -126 57q-34 10 -70 14.5t-71 4.5 q-100 0 -178.5 -35.5t-141.5 -107.5q-125 -143 -181 -427q36 54 75.5 91.5t86.5 63.5t98 39t112 13q88 0 156.5 -25.5t114.5 -73.5q50 -51 73 -123t23 -162q0 -54 -9 -113t-31 -124q-21 -63 -48 -111.5t-60 -90.5q-77 -97 -177 -145q-47 -23 -102 -35.5t-121 -12.5zM521 129 q67 0 130 32.5t113 101.5q47 66 71.5 149t24.5 171q0 62 -13.5 108t-44.5 78q-29 30 -71.5 45t-91.5 15q-75 0 -138 -33t-110 -93q-49 -63 -73.5 -143.5t-24.5 -165.5q0 -66 15 -114t45 -82q32 -35 76 -52t92 -17z" />
<glyph unicode="7" d="M952 1323h-708l32 170h936l-16 -94l-805 -1399h-217z" />
<glyph unicode="8" d="M483 -29q-100 0 -182 25.5t-142 76.5q-54 47 -86 117t-32 164q0 87 28 158.5t77 126.5t120 95t164 59q-57 20 -96 48t-65 63q-29 38 -41.5 82.5t-12.5 94.5q0 90 38 170.5t109 141.5q75 64 169 95.5t195 31.5q87 0 160.5 -22.5t128.5 -67.5q52 -42 81.5 -102t29.5 -137 q0 -70 -25 -135.5t-72 -119.5t-113 -94.5t-144 -59.5q125 -30 190 -113q32 -42 48 -95.5t16 -118.5q0 -103 -38.5 -192.5t-112.5 -155.5q-72 -65 -171.5 -100.5t-220.5 -35.5zM634 866q124 0 208 87q42 44 63 97t21 112q0 50 -15 85.5t-45 62.5q-60 54 -160 54 q-66 0 -118 -21t-90 -59q-82 -81 -82 -203q0 -101 59 -158q58 -57 159 -57zM494 127q72 0 132 23.5t105 68.5q45 46 67.5 106.5t22.5 132.5q0 62 -16.5 107t-49.5 78q-66 66 -183 66q-144 0 -234 -98q-46 -50 -69 -113t-23 -134q0 -60 16.5 -101t50.5 -73t78 -47.5 t103 -15.5z" />
<glyph unicode="9" d="M343 -29q-76 0 -146 15q-32 7 -65.5 17.5t-68.5 27.5l35 186q29 -19 60.5 -32.5t65.5 -23.5q69 -20 142 -20q194 0 320 144q124 142 180 426q-67 -101 -161 -154q-51 -29 -103.5 -41t-109.5 -12q-87 0 -153.5 25.5t-114.5 74.5q-97 100 -97 285q0 63 10.5 122.5 t29.5 115.5q20 58 47.5 109t59.5 91q37 46 82.5 83.5t95.5 61.5q99 48 224 48q101 0 180.5 -30t133.5 -87q110 -116 110 -344q0 -69 -9.5 -156t-29.5 -177q-20 -91 -47 -172t-60 -153q-52 -112 -114 -190.5t-137 -131.5q-81 -57 -170.5 -82.5t-189.5 -25.5zM551 662 q75 0 138 33t110 93t72.5 140t25.5 169q0 69 -15.5 117.5t-44.5 80.5t-72 49.5t-94 17.5q-72 0 -134.5 -34.5t-109.5 -99.5q-45 -63 -71 -147t-26 -174q0 -57 13 -104.5t45 -80.5q29 -30 71.5 -45t91.5 -15z" />
<glyph unicode=":" d="M728 716q-28 0 -52.5 9.5t-44.5 31.5q-21 23 -28.5 50t-7.5 56q0 39 15.5 74t46.5 63q27 25 61 39.5t72 14.5q35 0 59 -11.5t41 -29.5q16 -17 25.5 -42.5t9.5 -57.5q0 -38 -14.5 -76t-46.5 -67q-30 -28 -66.5 -41t-69.5 -13zM617 0q-32 0 -58 11t-43 31q-18 20 -26 46.5 t-8 54.5q0 39 15 76t47 66q26 24 60.5 38.5t72.5 14.5q28 0 54 -9t46 -32q16 -17 25.5 -42.5t9.5 -60.5q0 -83 -62 -140q-28 -26 -62 -40t-71 -14z" />
<glyph unicode=";" d="M723 713q-71 0 -112 50q-32 38 -32 93q0 9 1 18t3 18q7 42 25 73.5t44 53.5q26 23 59 36t68 13t64.5 -12.5t49.5 -35.5q33 -38 33 -94q0 -16 -3 -34q-15 -80 -71 -129q-26 -23 -58.5 -36.5t-70.5 -13.5zM339 -351q275 114 320 351q-14 -3 -23 -4t-19 -1q-33 0 -61 10.5 t-48 30.5q-30 31 -30 84v9q0 5 0.5 11t1.5 13q6 35 22 64t45 52t61 33t64 10q91 0 130 -71q13 -23 19 -52t6 -57q0 -17 -2 -42t-5 -46q-14 -92 -51.5 -170.5t-94.5 -140.5q-56 -61 -134 -111.5t-169 -81.5z" />
<glyph unicode="&#x3c;" d="M88 559v166l1057 418v-182l-850 -320l850 -317v-183z" />
<glyph unicode="=" d="M88 930h1057v-170h-1057v170zM88 524h1057v-172h-1057v172z" />
<glyph unicode="&#x3e;" d="M88 324l850 317l-850 320v182l1057 -418v-166l-1057 -418v183z" />
<glyph unicode="?" d="M546 583q12 78 53 146q21 35 53 70t86 81l104 89q42 35 65 59t37 44q32 45 39 93q3 18 3 34q0 32 -11.5 60t-34.5 50q-27 26 -68.5 40.5t-96.5 14.5q-80 0 -173 -34q-48 -17 -98.5 -43t-105.5 -60l30 188q49 27 100.5 49t102.5 36t101.5 21t100.5 7q91 0 162 -23t121 -73 q36 -36 56 -83.5t20 -98.5q0 -17 -2 -38t-4 -37q-5 -37 -18.5 -71.5t-37.5 -69.5q-26 -38 -64.5 -77t-87.5 -81l-102 -86q-43 -36 -67.5 -62t-37.5 -46q-11 -17 -20 -40t-12 -43l-8 -47l-12 -80h-190zM542 -40q-26 0 -48 8.5t-40 28.5q-19 22 -26 46t-7 50q0 40 15.5 70.5 t39.5 52.5t55.5 35t64.5 13q23 0 48 -8.5t43 -28.5q15 -17 23 -41t8 -52q0 -34 -13 -66.5t-41 -58.5q-23 -21 -54.5 -35t-67.5 -14z" />
<glyph unicode="@" d="M607 -317q-151 0 -267 50t-196 138q-87 95 -130 225t-43 283q0 97 17.5 198t54.5 204q34 94 83 182.5t112 161.5q52 61 117 113t140 88q72 35 149 53t156 18q95 0 171 -26t131 -77q57 -53 84.5 -124t27.5 -155q0 -14 -1 -33t-3 -38t-5.5 -41t-8.5 -45l-137 -723h-144 l21 111q-26 -32 -57.5 -56.5t-64.5 -40.5q-35 -17 -73.5 -25.5t-78.5 -8.5q-71 0 -123 24.5t-91 67.5q-42 46 -62.5 104.5t-20.5 139.5q0 103 33 197t99 173q63 75 141 115.5t172 40.5q85 0 150 -36t93 -97l8 43q2 12 4.5 30t4.5 31t2.5 23t0.5 22q0 59 -18 108t-55 84 q-73 70 -204 70q-72 0 -139.5 -20t-132.5 -58q-63 -38 -120 -92t-107 -128q-40 -60 -72.5 -129.5t-55.5 -145.5q-21 -72 -32.5 -149.5t-11.5 -155.5q0 -128 32 -230.5t96 -175.5q63 -72 152.5 -109.5t197.5 -37.5q30 0 62 3t60 9q21 5 53 14t74 25l45 -131 q-38 -18 -72 -28.5t-65 -17.5q-71 -15 -153 -15zM710 260q63 0 117 28t95 78q40 49 63 114t23 138q0 49 -12 88t-38 68q-50 55 -138 55q-60 0 -114 -26t-96 -77t-64 -116.5t-22 -135.5q0 -48 12 -89t38 -70q50 -55 136 -55z" />
<glyph unicode="A" d="M639 1493h246l166 -1493h-201l-35 389h-520l-184 -389h-217zM801 551l-66 774l-364 -774h430z" />
<glyph unicode="B" d="M313 1493h443q204 0 307 -79q52 -40 78 -98t26 -138q0 -151 -92 -255q-92 -105 -248 -124q124 -23 192 -102q34 -40 50 -91t16 -120q0 -109 -39.5 -199.5t-119.5 -156.5q-159 -130 -451 -130h-452zM639 877q152 0 238 73q86 72 86 198q0 95 -55 137q-56 42 -181 42h-244 l-88 -450h244zM506 166q184 0 282 87q49 44 73 107t24 136q0 63 -17 101.5t-51 64.5q-68 51 -211 51h-241l-107 -547h248z" />
<glyph unicode="C" d="M597 -29q-118 0 -207 35t-149 97q-62 64 -94 159.5t-32 229.5q0 99 17.5 206t52.5 215q35 110 80.5 195.5t103.5 157.5q56 69 114 115t123 77q130 62 287 62q46 0 85.5 -5t79.5 -16q80 -21 154 -61l-41 -207q-64 62 -135 94q-69 31 -152 31q-95 0 -175 -40t-152 -124 q-51 -60 -93.5 -140t-73.5 -174q-33 -100 -48.5 -196t-15.5 -179q0 -187 78 -277q34 -39 89 -65t135 -26q86 0 177 32q89 31 178 93l-39 -207q-42 -20 -84 -35.5t-85 -26.5q-38 -9 -84 -14.5t-94 -5.5z" />
<glyph unicode="D" d="M283 1493h303q273 0 409 -124q69 -63 102 -157.5t33 -225.5q0 -74 -10.5 -157t-31.5 -170q-22 -90 -51.5 -167.5t-61.5 -137.5q-53 -98 -118.5 -165t-140.5 -107q-155 -82 -421 -82h-303zM324 166q184 0 297 63q113 62 180 203q25 52 48 122t41 153q17 80 25.5 153 t8.5 133q0 95 -20 157.5t-62 100.5q-82 76 -275 76h-114l-226 -1161h97z" />
<glyph unicode="E" d="M344 1493h885l-33 -170h-684l-86 -442h653l-32 -170h-654l-104 -541h702l-33 -170h-905z" />
<glyph unicode="F" d="M383 1493h879l-33 -170h-676l-86 -450h612l-32 -170h-613l-139 -703h-203z" />
<glyph unicode="G" d="M564 -29q-122 0 -211.5 34.5t-150.5 100.5q-63 69 -93.5 165t-30.5 217q0 47 4.5 94.5t12.5 98.5q8 46 20.5 103.5t27.5 108.5q17 57 38 110.5t44 101.5q25 50 51 89.5t52 72.5q50 62 110 110.5t128 80.5q130 62 288 62q46 0 86 -5t80 -16q81 -21 156 -61l-41 -207 q-35 34 -70 57t-66 37q-71 31 -153 31q-50 0 -96.5 -10.5t-87.5 -30.5q-42 -20 -82 -52t-72 -71q-45 -54 -83 -130q-21 -42 -38 -85.5t-31 -89.5q-17 -56 -30 -110.5t-21 -103.5q-9 -52 -13.5 -94.5t-4.5 -84.5q0 -174 79 -266q40 -47 95.5 -70t130.5 -23q36 0 65 5t55 14 q29 10 50.5 23t40.5 30l76 393h-217l30 166h410l-133 -670q-86 -61 -190 -93q-51 -16 -103.5 -24t-111.5 -8z" />
<glyph unicode="H" d="M283 1493h202l-118 -612h553l118 612h203l-291 -1493h-202l139 711h-555l-137 -711h-203z" />
<glyph unicode="I" d="M90 170h313l224 1153h-314l33 170h830l-33 -170h-314l-223 -1153h314l-33 -170h-830z" />
<glyph unicode="J" d="M375 -29q-54 0 -102 6t-99 17q-53 12 -101 28.5t-98 38.5l45 236q38 -42 78.5 -71t85.5 -49q44 -20 91 -31t105 -11q142 0 212 73q32 33 60 99.5t50 179.5l164 836h-381l33 170h584l-197 -1006q-29 -150 -72 -247t-104 -154q-63 -59 -149.5 -87t-204.5 -28z" />
<glyph unicode="K" d="M283 1493h202l-127 -647l742 647h254l-703 -619l428 -874h-219l-360 741l-193 -168l-112 -573h-203z" />
<glyph unicode="L" d="M369 1493h202l-258 -1323h721l-33 -170h-923z" />
<glyph unicode="M" d="M229 1493h269l110 -756l414 756h270l-291 -1493h-186l258 1327l-434 -795h-141l-115 795l-256 -1327h-186z" />
<glyph unicode="N" d="M285 1493h256l264 -1229l239 1229h195l-291 -1493h-256l-264 1229l-240 -1229h-194z" />
<glyph unicode="O" d="M478 -29q-202 0 -299 123q-97 122 -97 379q0 64 5.5 120t16.5 119q12 70 26.5 131t37.5 132q16 50 31 89t32 77q20 43 37.5 73.5t34.5 56.5q86 128 198 189q51 28 112 44t140 16q100 0 175 -29t126 -94q97 -122 97 -373q0 -60 -5.5 -119t-16.5 -124q-22 -128 -66 -265 q-16 -50 -30.5 -88.5t-31.5 -76.5q-14 -29 -33 -64.5t-40 -67.5q-39 -59 -89.5 -107t-107.5 -80q-109 -61 -253 -61zM498 135q43 0 84 12.5t78 38.5q40 29 68.5 67t49.5 78q19 36 36.5 79t32.5 89t28 93t23 92q23 103 34.5 202.5t11.5 180.5q0 86 -13 137.5t-39 84.5 q-26 32 -65.5 49.5t-92.5 17.5q-44 0 -85 -12.5t-77 -38.5q-35 -26 -64.5 -63t-52.5 -82q-35 -66 -67 -157.5t-55 -194.5q-23 -100 -34.5 -197.5t-11.5 -181.5q0 -44 3.5 -78.5t10 -61.5t16.5 -48t23 -38q29 -36 69.5 -52t88.5 -16z" />
<glyph unicode="P" d="M321 1493h440q103 0 182 -23.5t133 -68.5t80.5 -112.5t26.5 -162.5q0 -120 -41 -217t-119 -166t-186.5 -106t-253.5 -37h-233l-117 -600h-203zM616 766q165 0 264 96q49 48 73.5 111.5t24.5 137.5q0 53 -14 95t-48 70q-62 51 -192 51h-233l-109 -561h234z" />
<glyph unicode="Q" d="M504 -27h-10q-111 0 -187 30t-126 90t-74.5 152.5t-24.5 226.5q0 66 5.5 121.5t16.5 118.5q5 31 11 60.5t13.5 61t17 66t22.5 75.5q16 50 31 89t32 77q7 15 15.5 32t18 35t19.5 34.5t19 29.5q38 57 88.5 106.5t109.5 81.5q56 31 118 45.5t134 14.5q102 0 176.5 -30 t124.5 -93q48 -60 72.5 -151.5t24.5 -216.5q0 -48 -3.5 -95.5t-10.5 -94.5t-18 -100.5t-25 -109.5q-14 -53 -30.5 -107t-31.5 -95q-16 -43 -34 -82.5t-35 -70.5q-22 -39 -52.5 -81.5t-71.5 -81.5q-31 -30 -68.5 -57t-80.5 -44l236 -280h-236zM498 135q43 0 84 12.5t78 38.5 q40 29 68.5 67t49.5 78q19 36 36.5 79t32.5 89t28 93t23 92q23 103 34.5 202.5t11.5 180.5q0 86 -13 137.5t-39 84.5q-26 32 -65.5 49.5t-92.5 17.5q-44 0 -85 -12.5t-77 -38.5q-35 -26 -64.5 -63t-52.5 -82q-35 -66 -67 -157.5t-55 -194.5q-23 -100 -34.5 -197.5 t-11.5 -181.5q0 -44 3.5 -78.5t10 -61.5t16.5 -48t23 -38q29 -36 69.5 -52t88.5 -16z" />
<glyph unicode="R" d="M281 1493h416q206 0 321 -89q59 -46 86 -110.5t27 -149.5q0 -84 -25.5 -160t-77.5 -136q-51 -59 -121 -95.5t-161 -47.5q34 -6 64.5 -23.5t51.5 -43.5q20 -25 44.5 -80.5t52.5 -149.5l121 -408h-201l-106 377q-44 155 -98 205q-28 26 -70.5 37.5t-94.5 11.5h-192 l-123 -631h-203zM570 797q163 0 261 86q97 85 97 226q0 113 -63 166q-62 52 -199 52h-213l-102 -530h219z" />
<glyph unicode="S" d="M435 -29q-58 0 -108 6t-101 17q-103 23 -201 67l41 209q97 -68 199 -102q51 -17 103.5 -25t106.5 -8q86 0 152 21.5t118 66.5q103 88 103 221q0 44 -11 75t-33 54q-26 26 -68.5 45.5t-108.5 40.5l-101 33q-81 26 -147 57t-110 75q-37 37 -55.5 84.5t-18.5 116.5 q0 101 40.5 192.5t124.5 162.5q83 70 191 105t232 35q48 0 91 -5t88 -15q46 -10 90.5 -24t94.5 -34l-39 -205q-82 59 -168 89q-87 30 -181 30q-85 0 -153 -22t-116 -60t-75.5 -91t-27.5 -115q0 -39 12 -67.5t37 -50.5t68.5 -42.5t109.5 -41.5l121 -39q85 -27 142 -58t97 -75 q38 -42 56.5 -94.5t18.5 -126.5q0 -110 -41 -202.5t-125 -161.5t-197 -103.5t-251 -34.5z" />
<glyph unicode="T" d="M629 1323h-469l33 170h1140l-33 -170h-469l-256 -1323h-204z" />
<glyph unicode="U" d="M477 -29q-190 0 -293 90q-104 90 -104 254q0 24 2 46t7 56q3 23 5.5 40.5t5.5 35t6.5 36.5t8.5 44l178 920h203l-179 -920q-1 -7 -3 -17t-5 -24q-15 -74 -22.5 -131.5t-7.5 -87.5q0 -43 14.5 -76.5t40.5 -55.5q53 -46 167 -46q45 0 80 7t68 23t60 38t47 51 q11 16 21.5 39.5t23.5 67.5q11 36 23 89.5t26 122.5l178 920h203l-178 -920q-12 -64 -23.5 -113.5t-22.5 -88t-22 -67t-21 -51.5q-25 -54 -56 -94.5t-70 -72.5q-35 -29 -77 -50t-85 -35q-92 -30 -199 -30z" />
<glyph unicode="V" d="M199 1493h198l113 -1303l598 1303h215l-719 -1493h-258z" />
<glyph unicode="W" d="M145 1493h191l-90 -1210l329 800h211l15 -802l377 1212h198l-510 -1493h-194l-31 870l-371 -870h-188z" />
<glyph unicode="X" d="M546 797l-288 696h200l224 -532l440 532h231l-596 -719l324 -774h-201l-254 612l-506 -612h-231z" />
<glyph unicode="Y" d="M508 670l-313 823h202l236 -651l497 651h218l-635 -823l-129 -670h-207z" />
<glyph unicode="Z" d="M32 154l976 1169h-727l33 170h969l-29 -154l-979 -1169h774l-34 -170h-1012z" />
<glyph unicode="[" d="M682 1636h424l-23 -143h-240l-256 -1620h240l-23 -143h-424z" />
<glyph unicode="\" d="M356 1493h170l199 -1683h-170z" />
<glyph unicode="]" d="M366 -127h240l256 1619h-240l23 143h424l-302 -1905h-424z" />
<glyph unicode="^" d="M528 1493h177l456 -557h-178l-367 395l-366 -395h-178z" />
<glyph unicode="_" d="M0 -403h1024v-80h-1024v80z" />
<glyph unicode="`" d="M453 1638h198l197 -376h-143z" />
<glyph unicode="a" d="M407 -29q-74 0 -135.5 20.5t-107.5 62.5q-48 43 -70 100t-22 126q0 92 39 172t115 138t182 87.5t237 29.5h246l12 61l3 19q1 5 1 10v7q0 57 -18 89.5t-45 52.5q-29 21 -73 33t-106 12q-43 0 -89.5 -6t-96.5 -19q-51 -13 -103 -32t-108 -45l35 180q54 20 105 34.5 t100 24.5t95.5 14.5t89.5 4.5q92 0 166 -20t126 -62q49 -39 75.5 -96.5t26.5 -129.5q0 -33 -6 -85q-4 -32 -8.5 -59.5t-9.5 -55.5l-125 -639h-164l12 166q-72 -94 -170 -144q-50 -26 -101 -38.5t-108 -12.5zM461 125q72 0 134.5 27t115.5 80q56 56 92 130t53 160l8 41h-172 q-60 0 -104 -1.5t-73 -5.5t-55 -11t-46 -15q-26 -11 -55 -30.5t-54 -57.5q-41 -62 -41 -135q0 -48 15.5 -80.5t36.5 -52.5q24 -23 59.5 -36t85.5 -13z" />
<glyph unicode="b" d="M535 -29q-97 0 -164 43q-66 43 -101 127l-46 -141h-165l303 1556h185l-113 -579q61 83 144 127q82 43 185 43q79 0 144 -25.5t111 -77.5q90 -102 90 -296q0 -66 -10.5 -138.5t-30.5 -144.5q-19 -67 -46.5 -130t-66.5 -122q-78 -116 -184 -178q-56 -32 -115 -48t-120 -16z M540 127q83 0 151 45q35 23 62.5 55t51.5 77q25 46 45 100.5t33 108.5q14 58 21 114t7 106q0 62 -11.5 111.5t-38.5 84.5q-51 64 -151 64q-44 0 -82.5 -12t-70.5 -34t-62.5 -56t-56.5 -79q-26 -46 -44.5 -96t-32.5 -105q-14 -59 -21.5 -116t-7.5 -106q0 -63 12.5 -111.5 t40.5 -83.5q30 -38 70.5 -52.5t84.5 -14.5z" />
<glyph unicode="c" d="M597 -29q-115 0 -198 29.5t-138 83.5q-58 57 -86.5 139.5t-28.5 188.5q0 75 13.5 151.5t39.5 145.5t63 130t82 111q48 53 102.5 90t102.5 58q110 49 245 49q88 0 171 -21q38 -10 80 -26.5t82 -38.5l-37 -182q-65 58 -136 85t-154 27q-111 0 -196 -44q-42 -22 -78.5 -55.5 t-66.5 -78.5q-26 -38 -48.5 -85.5t-38.5 -101.5q-32 -108 -32 -208q0 -69 16.5 -124.5t51.5 -93.5q32 -35 82.5 -54t124.5 -19q45 0 91.5 7.5t91.5 23.5q47 17 90 41t81 53l-39 -201q-43 -23 -80.5 -36.5t-75.5 -22.5q-44 -11 -86.5 -16t-90.5 -5z" />
<glyph unicode="d" d="M462 -29q-85 0 -146.5 27t-105.5 78q-46 53 -68.5 125.5t-22.5 172.5q0 66 10 138t30 145q21 76 49 138.5t60 113.5q39 62 83 105.5t94 72.5t105 44.5t118 15.5q51 0 93 -10.5t79 -32.5q73 -44 114 -127l115 579h184l-303 -1556h-164l7 141q-64 -83 -147 -127 q-82 -43 -184 -43zM518 127q85 0 154 45q35 23 63 55.5t53 77.5q49 87 77 203q14 56 21 112.5t7 106.5q0 132 -53 197q-25 31 -64.5 49t-93.5 18q-42 0 -81 -11.5t-70 -31.5q-32 -21 -61.5 -55t-52.5 -76q-22 -40 -41.5 -93.5t-33.5 -110.5t-20.5 -115.5t-6.5 -109.5 q0 -69 12.5 -117t38.5 -80q51 -64 152 -64z" />
<glyph unicode="e" d="M558 -29q-120 0 -204.5 29t-140.5 83q-115 112 -115 327q0 154 60 304t166 259q45 47 90 78t94 53q51 23 102.5 34t108.5 11q95 0 169 -30t127 -84q55 -57 83 -135.5t28 -170.5q0 -21 -1.5 -40t-3.5 -44q-2 -16 -5.5 -48.5t-11.5 -80.5h-807q-6 -30 -9 -58q-3 -26 -3 -49 q0 -135 77 -209q38 -37 94 -55t128 -18q47 0 94.5 7.5t100.5 21.5q105 29 218 84l-36 -183q-57 -23 -105 -38t-100 -26q-50 -11 -97 -16.5t-101 -5.5zM938 659q3 14 5 25t3 20q1 8 1.5 16.5t0.5 20.5q0 115 -65 183q-32 34 -77.5 50.5t-99.5 16.5q-60 0 -118 -21t-111 -69 q-46 -42 -84.5 -103t-60.5 -139h606z" />
<glyph unicode="f" d="M523 977h-299l29 143h297l16 78q21 103 53.5 168.5t81.5 107.5q50 42 119.5 62t163.5 20h221l-31 -153h-208q-94 0 -143 -41q-26 -23 -41.5 -58.5t-26.5 -84.5l-21 -99h385l-26 -143h-385l-191 -977h-184z" />
<glyph unicode="g" d="M376 -440q-43 0 -82.5 3.5t-79.5 10.5q-78 13 -155 41l37 182q40 -23 76 -39.5t76 -27.5q80 -23 158 -23q148 0 231 80q42 40 70.5 105t48.5 161l24 117q-59 -87 -145 -132q-45 -23 -93 -34.5t-99 -11.5q-79 0 -142.5 27t-108.5 80q-46 54 -68 129.5t-22 169.5 q0 63 10 132t30 138q39 135 112 243q40 60 83 101.5t95 72.5q104 62 216 62q99 0 176 -48q35 -23 63.5 -56t46.5 -78l47 151h164l-203 -1044q-53 -272 -186 -392q-134 -120 -380 -120zM513 145q38 0 74 11t71 34q65 44 112 129q26 46 46 100.5t31 101.5q14 55 20.5 111 t6.5 101q0 126 -56 192q-28 33 -67 49.5t-87 16.5q-84 0 -149.5 -46t-112.5 -122q-50 -81 -77.5 -187.5t-27.5 -214.5q0 -83 15.5 -131.5t40.5 -77.5q29 -32 70 -49.5t90 -17.5z" />
<glyph unicode="h" d="M387 1556h184l-116 -604q74 96 163 146q43 24 88 36.5t101 12.5q66 0 120 -18t92 -54q38 -35 57.5 -86.5t19.5 -111.5q0 -17 -1.5 -40.5t-3.5 -43.5t-5.5 -42t-10.5 -57l-135 -694h-184l135 695q3 9 2 8.5t1 5.5q4 21 6.5 35.5t4.5 26.5t3 22.5t1 23.5q0 44 -11.5 74.5 t-34.5 52.5q-46 43 -133 43q-129 0 -217 -93q-89 -94 -122 -261l-123 -633h-184z" />
<glyph unicode="i" d="M627 1323q-15 0 -22.5 9t-4.5 24l34 173q4 27 32 27h124q15 0 22.5 -9t4.5 -24l-34 -173q-5 -27 -32 -27h-124zM749 -4q-174 0 -257 64q-85 64 -85 192q0 17 1.5 33.5t3.5 36.5t5.5 42t8.5 44l133 568h-246l29 144h430l-162 -716q-4 -16 -6.5 -35t-3.5 -27 q-2 -16 -3 -25.5t-1 -19.5q0 -74 44 -109q45 -36 136 -36h211l-31 -156h-207z" />
<glyph unicode="j" d="M811 1323q-15 0 -22.5 9t-4.5 24l34 173q4 27 32 27h124q15 0 22.5 -9t4.5 -24l-34 -173q-5 -27 -32 -27h-124zM55 -270h233q45 0 83.5 14.5t66.5 44.5q54 58 80 191l192 997h-317l28 143h502l-221 -1140q-19 -97 -53 -177t-89 -133q-101 -96 -282 -96h-254z" />
<glyph unicode="k" d="M393 1556h191l-170 -874l549 438h241l-520 -422l373 -698h-213l-307 582l-168 -133l-88 -449h-191z" />
<glyph unicode="l" d="M739 -8q-174 0 -257 64q-41 31 -63 78.5t-22 113.5q0 17 1.5 34t3.5 36t5.5 39.5t8.5 46.5l211 1008h-316l29 144h500l-240 -1156q-4 -18 -5.5 -29t-2 -17.5t-0.5 -9v-4.5q0 -5 -3 -12.5t-3 -32.5q0 -76 44 -111q45 -36 136 -36h211l-31 -156h-207v0z" />
<glyph unicode="m" d="M203 1120h148l1 -96q43 60 100 92q55 31 120 31q74 0 120 -37q45 -37 56 -104q20 35 46.5 61.5t55.5 43.5q31 18 66.5 27t70.5 9q42 0 78 -13t62 -40q30 -32 40.5 -72.5t10.5 -78.5q0 -20 -2 -52.5t-7 -66.5q-2 -18 -5 -36t-6.5 -38.5t-8 -45t-10.5 -55.5l-127 -649h-168 l125 641q3 15 7.5 38t8.5 45.5t7.5 41.5t4.5 26q5 26 7 50t2 39q0 24 -6 47t-17 37q-22 28 -74 28q-41 0 -68.5 -16t-47.5 -48q-24 -38 -43.5 -105.5t-42.5 -182.5l-125 -641h-168l125 641q3 13 6.5 33t7.5 41.5t8 42.5t6 37q3 20 5.5 44t2.5 42q0 23 -5 44t-18 38 q-23 30 -74 30q-35 0 -63 -13.5t-49 -45.5q-11 -17 -21.5 -42t-21 -60t-21.5 -82.5t-23 -108.5l-125 -641h-168z" />
<glyph unicode="n" d="M303 1120h164l-12 -168q74 96 163 146q43 24 88 36.5t101 12.5q66 0 120 -18t92 -54q38 -35 57.5 -86.5t19.5 -111.5q0 -17 -1.5 -40.5t-3.5 -43.5t-5.5 -42t-10.5 -57l-135 -694h-184l135 695q3 9 2 8.5t1 5.5q4 21 6.5 35.5t4.5 26.5t3 22.5t1 23.5q0 44 -11.5 74.5 t-34.5 52.5q-46 43 -133 43q-129 0 -217 -93q-89 -94 -122 -261l-123 -633h-184z" />
<glyph unicode="o" d="M510 -29q-92 0 -166 26t-126 83q-47 51 -74 129t-27 187q0 130 41 267q19 63 47.5 126t68.5 121q81 118 190 177q112 60 253 60q91 0 166.5 -26t128.5 -81q102 -107 102 -314q0 -135 -41 -273q-23 -75 -53 -137t-62 -109q-42 -61 -88.5 -104.5t-103.5 -72.5t-121.5 -44 t-134.5 -15zM533 127q87 0 157.5 45t121.5 126q27 42 47 91.5t33.5 103.5t20.5 111t7 114q0 72 -12.5 123t-43.5 86q-30 34 -71.5 49t-90.5 15q-90 0 -159.5 -45t-120.5 -126q-50 -79 -79.5 -188t-29.5 -230q0 -72 12.5 -124t43.5 -87q29 -32 71.5 -48t92.5 -16z" />
<glyph unicode="p" d="M299 1120h164l-8 -143q61 82 147 126t186 44q76 0 141 -25t111 -79q45 -52 66.5 -127t21.5 -172q0 -64 -9.5 -135.5t-29.5 -143.5q-21 -77 -50 -141.5t-60 -112.5q-38 -60 -82 -104t-95 -75q-101 -61 -224 -61q-100 0 -170 42q-72 43 -115 128l-111 -567h-184zM567 127 q43 0 81 12t70 33q34 23 61 54.5t50 74.5q24 45 44 99.5t33 108.5q14 58 21 115t7 107q0 73 -13.5 120.5t-37.5 76.5q-27 33 -66.5 48t-88.5 15q-83 0 -152 -45q-37 -24 -64.5 -56t-52.5 -77q-26 -46 -45 -97.5t-32 -104.5q-14 -57 -21 -114.5t-7 -104.5q0 -69 14 -117.5 t41 -80.5q28 -33 68 -50t90 -17z" />
<glyph unicode="q" d="M774 141q-62 -84 -143 -127q-82 -43 -185 -43q-81 0 -145.5 25.5t-110.5 76.5q-44 49 -68 123t-24 176q0 65 10.5 136t30.5 144q20 70 48 135t65 122q39 61 83 104.5t97 73.5q105 60 231 60q57 0 98.5 -11t72.5 -31q68 -43 102 -128l47 143h164l-299 -1546h-184zM496 127 q85 0 154 46q36 24 66 59t52 73q48 84 77 203q14 59 21.5 116t7.5 107q0 63 -12.5 112t-40.5 83q-53 65 -154 65q-84 0 -152 -44q-35 -23 -63 -55t-51 -76q-25 -46 -44 -99.5t-33 -109.5q-29 -118 -29 -221q0 -131 51 -195t150 -64z" />
<glyph unicode="r" d="M404 1120h164l-20 -219q67 120 174 183q106 63 239 63q35 0 69 -4.5t62 -13.5q25 -8 50.5 -22t46.5 -32l-35 -186q-23 22 -49.5 38.5t-54.5 27.5q-30 11 -64 16.5t-69 5.5q-82 0 -154 -28t-130 -85t-97 -137t-58 -178l-107 -549h-184z" />
<glyph unicode="s" d="M477 -29q-48 0 -92.5 4.5t-82.5 12.5q-45 9 -92 22.5t-95 30.5l37 190q48 -26 93 -46t90 -33q45 -14 86.5 -20.5t85.5 -6.5q132 0 216 60q42 30 63 67.5t21 76.5q0 26 -10 48.5t-33 42t-60.5 36t-92.5 31.5l-28 7l-67 18q-65 17 -111.5 40.5t-77.5 55.5q-61 64 -61 172 q0 79 32.5 147.5t98.5 119.5q62 48 151.5 74t206.5 26q43 0 85 -4t83 -12t79 -20.5t75 -29.5l-35 -180q-35 23 -74.5 40.5t-74.5 28.5q-77 23 -162 23q-62 0 -115 -12.5t-91 -38.5q-40 -27 -58 -63t-18 -71q0 -36 17.5 -61t47.5 -43t70 -32t86 -27q15 -5 16 -4.5t6 -1.5 l72 -18q51 -13 97 -36t78 -56q29 -31 43.5 -69t14.5 -91q0 -85 -37 -159t-107 -128q-72 -56 -169 -83.5t-207 -27.5z" />
<glyph unicode="t" d="M682 -4q-89 0 -148 15t-97 41q-40 28 -59.5 69t-19.5 101q0 12 1 28.5t3 33.5q2 13 5 34t8 47l119 612h-299l28 143h299l62 318h184l-61 -318h417l-28 -143h-418l-119 -612q-3 -17 -4.5 -26t-2.5 -14t-1 -7.5t-1 -7.5q-3 -26 -3 -47q0 -67 39 -93q39 -27 141 -27h207 l-29 -147h-223v0z" />
<glyph unicode="u" d="M409 -27q-65 0 -117.5 18t-90.5 55q-39 38 -57.5 89.5t-18.5 112.5q0 18 1.5 39.5t3.5 44.5q3 30 5.5 49.5t7.5 44.5l133 694h185l-135 -694q-1 -6 -2.5 -16t-3 -20.5t-3 -19.5l-2.5 -15q-2 -17 -3 -32t-1 -25q0 -37 11 -68.5t36 -54.5q23 -21 56.5 -31.5t74.5 -10.5 q60 0 115 22.5t100 69.5q45 48 75 114.5t46 147.5l123 633h185l-218 -1120h-164l13 168q-74 -98 -162 -146q-47 -26 -94.5 -37.5t-98.5 -11.5z" />
<glyph unicode="v" d="M182 1120h178l154 -956l502 956h198l-614 -1120h-238z" />
<glyph unicode="w" d="M92 1120h176l15 -905l268 578h162l49 -578l362 905h191l-486 -1120h-165l-60 623l-297 -623h-166z" />
<glyph unicode="x" d="M524 596l-293 524h196l217 -395l369 395h225l-512 -547l318 -573h-197l-244 444l-417 -444h-226z" />
<glyph unicode="y" d="M20 -272h108q83 0 140 47q62 50 118 159l43 84l-217 1102h183l172 -862l483 862h205l-439 -760q-33 -58 -52 -90t-29.5 -50.5t-16 -28.5t-12.5 -22.5t-19.5 -34t-35.5 -62.5q-51 -90 -84.5 -148t-56 -95.5t-38 -60.5t-30.5 -43q-27 -35 -58.5 -64.5t-73.5 -49.5 q-74 -37 -171 -37h-148z" />
<glyph unicode="z" d="M111 168l784 805h-604l28 147h814l-33 -168l-785 -805h629l-29 -147h-837z" />
<glyph unicode="{" d="M685 -334q-187 0 -268 54q-82 55 -82 178v13q-1 14 0 24.5t3 27.5q4 29 6.5 44.5t4.5 26.5l45 236q2 5 2 7.5t1 4.5q5 25 7.5 45t2.5 45q0 49 -12 79t-37 49q-49 37 -162 37h-92l29 147h91q146 0 208 55q62 54 93 205l50 244q25 124 61 194q36 71 90 111q22 16 49.5 28.5 t67.5 20.5q34 7 83 10.5t118 3.5h82l-29 -143h-85q-69 0 -111 -9.5t-65 -29.5q-25 -22 -44 -70t-33 -120l-51 -252q-15 -75 -37.5 -133.5t-55.5 -98.5q-59 -71 -171 -94q72 -18 113 -69q40 -52 40 -127q1 -13 0.5 -22.5t-3.5 -34.5q-2 -16 -3 -24.5t-2 -14.5t-2.5 -12.5 t-3.5 -18.5l-47 -244q-4 -20 -5.5 -33t-2.5 -26l-1.5 -25.5t-0.5 -13t-0.5 -6.5t-0.5 -5q0 -64 43 -92t140 -28h78l-29 -144h-72v0z" />
<glyph unicode="|" d="M530 1565h172v-2048h-172v2048z" />
<glyph unicode="}" d="M64 -190h78q137 0 183 40q22 19 41 63t36 126l51 252q15 75 37 133.5t56 99.5q61 73 172 92q-74 20 -114 70q-20 26 -30 55.5t-10 71.5q0 12 1 25.5t3 31.5q2 21 3.5 34t6.5 36l47 243q0 2 1.5 11t3 19.5t3 19t1.5 10.5q1 12 1.5 25t0.5 22q0 66 -42 95q-43 28 -141 28 h-77l26 143h74q100 0 165 -14t104 -40t60 -67.5t21 -114.5q0 -14 -1 -26.5t-3 -34.5q-2 -19 -3.5 -32t-6.5 -39l-45 -236l-2 -12q-5 -25 -7.5 -48t-2.5 -43q0 -89 49 -126t161 -37h92l-29 -147h-91q-143 0 -207 -55q-32 -27 -56.5 -77t-39.5 -128l-47 -244 q-12 -63 -28 -111.5t-34 -83.5q-36 -71 -90 -110q-25 -18 -53 -29.5t-63 -19.5q-69 -15 -201 -15h-82z" />
<glyph unicode="~" d="M88 666q78 60 151 87t156 27q28 0 53 -3t49 -8q20 -5 53 -15t73 -27q8 -3 12 -5l7 -3.5t5.5 -3t7.5 -3.5q114 -55 210 -55q69 0 138 31q68 30 142 92v-174q-75 -58 -146 -86q-33 -13 -69.5 -20.5t-79.5 -7.5q-30 0 -56 4t-50.5 10.5t-48.5 16t-50 20.5q-11 4 -17.5 7 t-9.5 4.5l-4 2t-2 0.5q-76 33 -128 45q-53 12 -102 12q-41 0 -79.5 -7.5t-70.5 -21.5q-31 -13 -68.5 -36.5t-75.5 -56.5v174z" />
<glyph unicode="&#xa0;" />
<glyph unicode="&#xa1;" d="M713 1170q-33 0 -58 9.5t-43 31.5q-21 25 -28 55t-7 53q0 41 16 76t45 64q29 28 63 41.5t70 13.5q31 0 58 -10t46 -30q22 -24 28 -52.5t6 -43.5q0 -43 -18 -85.5t-53 -74.5q-24 -23 -54.5 -35.5t-70.5 -12.5zM498 655l108 357h162l-39 -357l-127 -655h-233z" />
<glyph unicode="&#xa2;" d="M510 -27q-88 9 -161 44.5t-124 95.5t-76.5 140.5t-25.5 180.5q0 88 20 175.5t61 168.5q44 88 101 151.5t120 106.5q38 26 75.5 44.5t73.5 31.5q76 27 163 33l56 287h102l-55 -287q58 -3 123 -20q64 -17 124 -48l-32 -172q-50 38 -110 60t-134 28l-170 -870q32 2 66 9.5 t69 18.5t70.5 26.5t73.5 35.5l-33 -172q-20 -9 -41 -16.5t-40.5 -13.5t-35.5 -10.5t-26 -7.5q-30 -8 -65 -13t-67 -7l-55 -286h-102zM709 991q-165 -15 -279 -179q-58 -84 -86.5 -180.5t-28.5 -200.5q0 -75 15 -126t44 -89q28 -36 67.5 -59t99.5 -30z" />
<glyph unicode="&#xa3;" d="M25 170h237l90 465h-198l26 143h199l47 238q27 137 72 229t110 152q63 59 150 91t199 32q73 0 135 -14q20 -5 58.5 -16.5t78.5 -27.5l-37 -184q-54 43 -114 66q-60 22 -126 22q-71 0 -123.5 -21.5t-90.5 -63.5t-66 -110.5t-49 -175.5l-43 -217h370l-28 -143h-371 l-90 -465h536l-32 -170h-973z" />
<glyph unicode="&#xa4;" d="M205 285l166 166q-19 31 -28 52.5t-17 45.5t-11.5 45.5t-3.5 47.5q0 28 4 50.5t12 45.5q16 48 46 91l-168 166l94 95l166 -168q46 31 92 46q45 15 94 15q23 0 48 -3.5t47 -10.5t48 -19t50 -26l166 166l90 -93l-166 -166q15 -25 27.5 -51t17.5 -44q7 -22 10.5 -47.5 t3.5 -48.5q0 -49 -15 -94q-15 -47 -46 -91l168 -166l-94 -94l-166 167q-46 -31 -91 -46q-47 -15 -97 -15q-26 0 -47.5 3.5t-47.5 11.5t-46.5 16.5t-49.5 25.5l-164 -163zM653 426q44 0 83 15.5t70 46.5q30 31 46 70.5t16 84.5t-16 84t-45 68q-30 30 -69.5 45.5t-84.5 15.5 q-43 0 -82 -15t-70 -45q-29 -28 -46 -67t-17 -87q0 -89 62 -153q30 -30 68.5 -46.5t84.5 -16.5z" />
<glyph unicode="&#xa5;" d="M444 524h-397l23 111h397l6 35l-55 151h-309l22 111h246l-205 561h207l223 -664l459 664h211l-404 -561h252l-22 -111h-312l-110 -151l-10 -35h393l-23 -111h-393l-98 -524h-199z" />
<glyph unicode="&#xa6;" d="M530 1432h172v-758h-172v758zM530 408h172v-758h-172v758z" />
<glyph unicode="&#xa7;" d="M411 -201q-40 0 -79.5 4t-71.5 10q-36 7 -78.5 18.5t-81.5 25.5l33 161q37 -18 73.5 -31.5t72.5 -23.5t68.5 -15t67.5 -5q52 0 97.5 12t78.5 35t49.5 54.5t16.5 65.5q0 54 -43.5 107.5t-139.5 119.5l-87 60q-125 86 -165 141q-21 29 -30.5 61t-9.5 68q0 45 15 90.5 t49 90.5q32 42 77 79.5t105 69.5q-42 39 -59 77q-10 21 -14.5 43t-4.5 50q0 74 30.5 137t89.5 111q60 48 139 72t170 24q35 0 70 -3.5t72 -10.5q39 -8 74.5 -18.5t73.5 -24.5l-33 -164q-34 18 -68.5 32.5t-70.5 25.5t-68.5 15.5t-61.5 4.5q-48 0 -90.5 -12t-75.5 -37 t-49.5 -55t-16.5 -61q0 -43 32.5 -86t101.5 -88l48 -32l86 -59q63 -43 104 -79t63 -65t32 -62.5t10 -68.5q0 -47 -16.5 -95t-49.5 -93q-35 -48 -80.5 -83t-99.5 -60q41 -35 62 -80q9 -20 14.5 -46t5.5 -58q0 -73 -30 -137.5t-90 -113.5q-61 -49 -142.5 -73.5t-174.5 -24.5z M678 401q84 51 128 107t44 108q0 30 -14.5 58t-38.5 53q-27 28 -79.5 67t-121.5 83l-80 51q-81 -52 -125 -108q-43 -55 -43 -109t43 -101q20 -22 59.5 -54t108.5 -77z" />
<glyph unicode="&#xa8;" d="M469 1350q-15 0 -22.5 9t-4.5 24l28 142q4 27 32 27h143q15 0 22.5 -9t4.5 -24l-28 -142q-5 -27 -32 -27h-143zM860 1350q-15 0 -22.5 9t-4.5 24l28 142q4 27 32 27h143q15 0 22.5 -9t4.5 -24l-28 -142q-5 -27 -32 -27h-143z" />
<glyph unicode="&#xa9;" d="M616 125q-66 0 -123 11.5t-111 34.5q-55 23 -106 57.5t-95 78.5q-42 42 -77.5 93.5t-58.5 107.5q-45 106 -45 233q0 63 11.5 122t34.5 114q23 54 56.5 104t79.5 97q47 48 97 81t102 54q109 45 235 45t236 -45q57 -23 107 -57.5t92 -77.5q49 -50 82.5 -101.5t53.5 -99.5 q46 -108 46 -235q0 -128 -45 -234q-22 -52 -56.5 -104t-79.5 -97q-42 -42 -93 -77t-108 -59q-108 -46 -235 -46zM617 227q104 0 195 38q47 20 89.5 49t77.5 64q34 34 64.5 78t49.5 90q37 89 37 195q0 54 -9.5 103t-28.5 95q-38 92 -113 167q-74 74 -165 112q-90 37 -198 37 q-107 0 -196 -37q-92 -38 -166 -112q-76 -76 -113 -167q-39 -93 -39 -197q0 -54 9.5 -101.5t29.5 -94.5q24 -57 54 -97.5t59 -69.5q38 -38 78.5 -66t88.5 -48q45 -19 93.5 -28.5t102.5 -9.5zM638 369q-92 0 -163.5 26t-121.5 74t-76.5 117t-26.5 155q0 85 26.5 155t77.5 120 q50 48 122 74t162 26q30 0 59 -3t58 -8q28 -5 53.5 -13t55.5 -21v-108q-59 29 -113 42q-28 7 -56.5 10t-53.5 3q-57 0 -105 -17.5t-83 -55.5q-32 -35 -50 -87.5t-18 -118.5q0 -63 17.5 -114.5t52.5 -86.5t84.5 -53t117.5 -18q31 0 56 3.5t50 9.5t51 15.5t50 22.5v-104 q-26 -11 -53 -20t-56 -14t-57.5 -8t-59.5 -3z" />
<glyph unicode="&#xaa;" d="M534 698q-61 0 -104.5 17t-71.5 43q-63 60 -63 163q0 71 29 126t82 93q112 79 311 79h174q0 4 1 9q2 11 2.5 24t0.5 21q0 28 -9.5 53.5t-35.5 45.5q-22 17 -55 25t-84 8q-35 0 -69 -4t-68 -12t-69 -21.5t-71 -30.5l23 127q75 29 148 42q37 7 71 10.5t69 3.5 q145 0 218 -62t73 -186q0 -13 -0.5 -27.5t-1.5 -24.5q-1 -7 -3.5 -26t-4.5 -29l-86 -448h-143l22 112q-26 -32 -59 -56.5t-68 -40.5q-39 -18 -79 -26t-79 -8zM581 817q49 0 96 16.5t85 50.5q41 36 66 86.5t36 104.5l6 29h-141q-149 0 -217 -40q-35 -20 -52.5 -52t-17.5 -71 q0 -59 37 -92q18 -16 42.5 -24t59.5 -8zM246 592h676l-23 -123h-676z" />
<glyph unicode="&#xab;" d="M74 559l16 82l549 418l-43 -211l-350 -264l250 -267l-35 -176zM541 559l16 82l549 418l-43 -211l-350 -264l250 -267l-35 -176z" />
<glyph unicode="&#xac;" d="M977 690h-889v172h1057v-491h-168v319z" />
<glyph unicode="&#xad;" d="M336 643h522l-33 -164h-522z" />
<glyph unicode="&#xae;" d="M616 125q-66 0 -123 11.5t-111 34.5t-105 57t-96 79q-44 44 -78 94.5t-57 105.5q-23 54 -34.5 111t-11.5 123q0 128 46 236q23 54 57 104.5t79 96.5q43 44 92.5 78t106.5 57q109 45 235 45t236 -45q57 -23 107 -57.5t92 -77.5q49 -50 82.5 -101.5t53.5 -99.5 q46 -108 46 -235q0 -128 -45 -234q-22 -52 -56.5 -104t-79.5 -97q-42 -42 -93 -77t-108 -59q-108 -46 -235 -46zM617 227q104 0 195 38q47 20 89.5 49t77.5 64q34 34 64.5 78t49.5 90q37 89 37 195q0 54 -9.5 103t-28.5 95q-38 92 -113 167q-74 74 -165 112q-90 37 -198 37 q-107 0 -196 -37q-92 -38 -166 -112q-76 -76 -113 -167q-39 -93 -39 -197q0 -54 9.5 -101.5t29.5 -94.5q24 -57 54 -97.5t59 -69.5q38 -38 78.5 -66t88.5 -48q45 -19 93.5 -28.5t102.5 -9.5zM362 1100h238q148 0 219 -49q72 -50 72 -148q0 -38 -11 -67t-33 -52 q-44 -47 -124 -61q10 -2 22 -12t26 -26q6 -8 15 -19t18 -24l18 -26t16 -24l114 -186h-143l-107 174q-24 39 -44.5 65t-34.5 36q-29 21 -76 21h-55v-296h-130v694zM594 784q89 0 127 27q37 27 37 89q0 29 -8.5 52.5t-28.5 37.5q-38 26 -127 26h-102v-232h102z" />
<glyph unicode="&#xaf;" d="M469 1526h598l-29 -148h-598z" />
<glyph unicode="&#xb0;" d="M612 885q-63 0 -121 22.5t-103 67.5q-40 40 -64.5 97t-24.5 127q0 67 23.5 125t67.5 103q43 44 100.5 68.5t124.5 24.5q30 0 62.5 -5.5t62.5 -18.5q29 -12 56 -31.5t47 -39.5q24 -25 41.5 -53t26.5 -50q23 -55 23 -120q0 -66 -24 -124.5t-68 -101.5q-43 -42 -102.5 -66.5 t-127.5 -24.5zM614 1012q41 0 77 15t61 40q29 29 42 64t13 70q0 38 -14.5 73t-41.5 62q-23 23 -58 39t-77 16q-40 0 -74.5 -14.5t-59.5 -39.5q-27 -27 -41.5 -63t-14.5 -75q0 -41 14.5 -74.5t40.5 -59.5q27 -26 61 -39.5t72 -13.5z" />
<glyph unicode="&#xb1;" d="M532 672h-444v170h444v329h168v-329h445v-170h-445v-332h-168v332zM88 170h1057v-170h-1057v170z" />
<glyph unicode="&#xb2;" d="M328 1230l203 167q157 128 235 215t78 148q0 18 -7.5 37t-24.5 34.5t-43.5 25.5t-64.5 10q-48 0 -109 -18.5t-144 -59.5l24 127q85 29 146.5 42.5t115.5 13.5q63 0 110.5 -16.5t79.5 -43.5t48 -61t16 -70q0 -80 -78.5 -181t-230.5 -215l-20 -15l-170 -136h395l-23 -114 h-557z" />
<glyph unicode="&#xb3;" d="M536 1103q-63 0 -126 10.5t-123 30.5l24 121q67 -29 119 -42t106 -13t98 12t75 34.5t48 54.5t17 73q0 127 -174 127h-72l21 106h72q49 0 88.5 10.5t67.5 29.5t43.5 45.5t15.5 57.5q0 52 -42.5 77.5t-122.5 25.5q-50 0 -98.5 -10t-111.5 -33l22 115q145 35 245 35 q125 0 190 -49.5t65 -137.5q0 -83 -56 -140.5t-155 -76.5q74 -13 112 -58t38 -120q0 -64 -27 -116.5t-77.5 -90t-122 -58t-159.5 -20.5z" />
<glyph unicode="&#xb4;" d="M907 1638h219l-395 -376h-156z" />
<glyph unicode="&#xb5;" d="M252 1120h187l-136 -696q-2 -11 -4.5 -27.5t-4.5 -30.5q-3 -27 -3 -47q0 -40 12.5 -76.5t41.5 -62.5q30 -27 71.5 -38t86.5 -11q135 0 218 83q39 39 68.5 101t46.5 152l127 653h186l-168 -862q-1 -4 -2.5 -16.5t-1.5 -14.5q-1 -7 -1.5 -12.5t-0.5 -12.5q0 -29 13 -45 q5 -7 13.5 -11.5t20.5 -4.5q10 0 27 5q5 2 18.5 6.5t28.5 11.5l-29 -148q-19 -11 -41 -20.5t-36 -13.5q-36 -11 -73 -11q-31 0 -56.5 10t-46.5 33q-19 20 -29.5 47t-10.5 68q-52 -82 -122 -120q-71 -38 -166 -38t-156 42q-63 42 -94 124l-109 -563h-176z" />
<glyph unicode="&#xb6;" d="M506 649q-177 4 -279 99q-102 94 -102 256q0 209 173 349t437 140h406l-328 -1690h-139l303 1567h-191l-303 -1567h-141z" />
<glyph unicode="&#xb8;" d="M366 -395q-20 0 -43.5 1.5t-46.5 5.5q-45 7 -94 23l25 129q20 -10 39 -17t38 -12q36 -9 68 -9q67 0 105 30q19 15 28 36t9 45q0 17 -4 35.5t-10 34.5q-5 12 -17 38.5t-27 54.5h119q19 -32 32.5 -60t22.5 -51q17 -45 17 -87t-17.5 -78.5t-52.5 -64.5q-69 -54 -191 -54z " />
<glyph unicode="&#xb9;" d="M369 1230h206l117 611l-231 -41l22 116l238 39h137l-141 -725h205l-21 -110h-553z" />
<glyph unicode="&#xba;" d="M630 698q-78 0 -136 24t-100 67q-44 45 -65.5 107t-21.5 134q0 46 8.5 93t23.5 89q18 50 43.5 91t45.5 65q29 36 65.5 64.5t76.5 48.5q41 20 83.5 29.5t90.5 9.5q148 0 235 -91q41 -43 63.5 -105t22.5 -140q0 -42 -7.5 -87.5t-24.5 -93.5q-16 -44 -38 -82.5t-49 -70.5 q-30 -36 -65.5 -64.5t-75.5 -48.5q-80 -39 -175 -39zM645 813q53 0 102 26.5t87 80.5q38 53 57.5 121t19.5 138q0 107 -49 166q-26 32 -61 46t-73 14q-57 0 -104.5 -28t-83.5 -79q-38 -54 -57.5 -120.5t-19.5 -136.5q0 -57 12.5 -97.5t37.5 -70.5t59 -45t73 -15zM246 592 h676l-23 -123h-676z" />
<glyph unicode="&#xbb;" d="M145 352l350 262l-250 269l35 176l387 -418l-14 -82l-551 -418zM612 352l350 262l-250 269l35 176l387 -418l-14 -82l-551 -418z" />
<glyph unicode="&#xbc;" d="M111 934h206l117 611l-231 -41l22 116l238 39h137l-141 -725h205l-21 -110h-553zM47 612l1059 258l27 -108l-1063 -258zM799 -86h-386l23 121l465 530h162l-105 -540h117l-20 -111h-119l-33 -184h-139zM821 25l76 391l-342 -391h266z" />
<glyph unicode="&#xbd;" d="M111 934h206l117 611l-231 -41l22 116l238 39h137l-141 -725h205l-21 -110h-553zM47 612l1059 258l27 -108l-1063 -258zM482 -160l203 167q153 125 233 213t80 150q0 20 -9 40.5t-28 36.5q-36 30 -100 30q-23 0 -53 -4.5t-59 -13.5q-27 -8 -64.5 -24t-79.5 -36l24 127 q42 14 78.5 25t68.5 18q31 7 60 10t56 3q62 0 107.5 -14.5t77.5 -40.5q34 -28 51 -66.5t17 -73.5q0 -39 -21.5 -85t-61 -96.5t-97 -103.5t-129.5 -107l-20 -15l-170 -136h395l-23 -114h-557z" />
<glyph unicode="&#xbe;" d="M313 809q-34 0 -66 3t-64 8t-61.5 12t-61.5 18l24 121q69 -29 119 -42q51 -13 105 -13t98 11.5t76 34.5q34 24 49.5 55.5t15.5 69.5q0 66 -42 98q-44 32 -132 32h-72l21 106h72q98 0 156 40q59 41 59 103q0 53 -43 78q-22 13 -54 19t-72 6q-48 0 -95 -10 q-51 -11 -111 -33l22 115q35 8 68 14.5t64 11.5q61 9 115 9q58 0 105.5 -12t82.5 -38q65 -50 65 -140q0 -80 -57 -138q-27 -28 -65 -47.5t-89 -28.5q72 -12 111 -57q19 -22 29 -51.5t10 -68.5q0 -127 -104 -207q-103 -79 -278 -79zM47 612l1059 258l27 -108l-1063 -258z M799 -86h-386l23 121l465 530h162l-105 -540h117l-20 -111h-119l-33 -184h-139zM821 25l76 391l-342 -391h266z" />
<glyph unicode="&#xbf;" d="M752 1252q-26 0 -48 8.5t-40 28.5q-19 22 -26 46t-7 50q0 40 15.5 70.5t39.5 52.5t55.5 35t64.5 13q23 0 48 -8.5t43 -28.5q15 -17 23 -41t8 -52q0 -34 -13 -66.5t-41 -58.5q-23 -21 -54.5 -35t-67.5 -14zM495 -27q-72 0 -138.5 19t-117.5 62q-48 41 -72 95t-24 118 q0 89 49 169q26 43 69.5 89t109.5 100l104 86q39 32 69 63.5t46 57.5q15 25 27 62.5t18 74.5l20 123h191l-29 -154q-9 -48 -24.5 -88.5t-33.5 -69.5q-21 -34 -58 -73t-93 -86l-106 -89q-85 -71 -120 -127q-36 -56 -36 -113q0 -73 56 -114t153 -41q42 0 84.5 8.5t94.5 27.5 q50 18 98.5 42t105.5 59l-37 -188q-59 -31 -112.5 -52t-96.5 -33q-51 -14 -102 -21t-95 -7z" />
<glyph unicode="&#xc0;" d="M551 1853h182l147 -264h-139zM639 1493h246l166 -1493h-201l-35 389h-520l-184 -389h-217zM801 551l-66 774l-364 -774h430z" />
<glyph unicode="&#xc1;" d="M885 1852h208l-307 -264h-160zM639 1493h246l166 -1493h-201l-35 389h-520l-184 -389h-217zM801 551l-66 774l-364 -774h430z" />
<glyph unicode="&#xc2;" d="M704 1854h213l158 -266h-133l-139 178l-209 -178h-152zM639 1493h246l166 -1493h-201l-35 389h-520l-184 -389h-217zM801 551l-66 774l-364 -774h430z" />
<glyph unicode="&#xc3;" d="M442 1627q34 107 97 164q31 28 67.5 41.5t77.5 13.5q20 0 35.5 -3t31.5 -8q33 -11 66 -36l35 -26q19 -14 36 -20q8 -3 16 -5t20 -2q23 0 39 7t30 20q29 27 39 73h125q-31 -108 -95 -164q-29 -26 -67 -40.5t-84 -14.5q-20 0 -34 3t-28 8q-16 6 -29.5 13.5t-29.5 18.5 l-34 25l-2 1q-43 32 -81 32q-34 0 -60 -25q-26 -24 -46 -76h-125zM639 1493h246l166 -1493h-201l-35 389h-520l-184 -389h-217zM801 551l-66 774l-364 -774h430z" />
<glyph unicode="&#xc4;" d="M500 1620q-15 0 -22.5 9t-4.5 24l28 143q4 27 32 27h144q27 0 27 -24q0 -6 -1 -9l-29 -143q-6 -27 -32 -27h-142zM891 1620q-15 0 -22.5 9t-4.5 24l28 143q4 27 32 27h143q15 0 22.5 -9t4.5 -24l-28 -143q-5 -27 -32 -27h-143zM639 1493h246l166 -1493h-201l-35 389h-520 l-184 -389h-217zM801 551l-66 774l-364 -774h430z" />
<glyph unicode="&#xc5;" d="M600 1415q-50 34 -76 89t-26 120q0 59 20.5 109t58.5 88q37 38 87 59t109 21q58 0 107 -21t87 -59q37 -37 58.5 -85.5t21.5 -111.5q0 -43 -10.5 -77.5t-29.5 -64.5q-41 -65 -110 -96l154 -1386h-201l-35 389h-520l-184 -389h-217zM772 1475q33 0 60.5 12t47.5 32 q44 44 44 107q0 34 -12 61t-32 47q-23 23 -51.5 33.5t-57.5 10.5q-63 0 -106 -43q-44 -44 -44 -108q0 -65 44 -109q19 -19 46.5 -31t60.5 -12zM801 551l-66 774l-364 -774h430z" />
<glyph unicode="&#xc6;" d="M555 1493h752l-33 -170h-338l-86 -442h307l-33 -170h-307l-106 -541h356l-33 -170h-542l75 383h-352l-176 -383h-184zM600 551l150 772h-103l-356 -772h309z" />
<glyph unicode="&#xc7;" d="M1058 1499q80 -21 154 -61l-41 -207q-64 62 -135 94q-69 31 -152 31q-95 0 -175 -40t-152 -124q-51 -60 -93.5 -140t-73.5 -174q-33 -100 -48.5 -196t-15.5 -179q0 -187 78 -277q34 -39 89 -65t135 -26q86 0 177 32q89 31 178 93l-39 -207q-42 -20 -84 -35.5t-85 -26.5 q-23 -5 -48.5 -9.5t-53.5 -6.5q14 -25 23.5 -46t17.5 -40q17 -45 17 -87t-17.5 -78.5t-52.5 -64.5q-69 -54 -191 -54q-20 0 -43.5 1.5t-46.5 5.5q-45 7 -94 23l25 129q20 -10 41.5 -17.5t35.5 -11.5q34 -9 69 -9q31 0 58 7.5t46 22.5t28 36t9 45q0 17 -4 35.5t-10 34.5 q-4 9 -11.5 27t-18.5 38q-103 7 -181 41t-132 90q-62 64 -94 159.5t-32 229.5q0 99 17.5 206t52.5 215q35 110 80.5 195.5t103.5 157.5q56 69 114 115t123 77q130 62 287 62q46 0 85.5 -5t79.5 -16z" />
<glyph unicode="&#xc8;" d="M596 1849h182l147 -264h-139zM344 1493h885l-33 -170h-684l-86 -442h653l-32 -170h-654l-104 -541h702l-33 -170h-905z" />
<glyph unicode="&#xc9;" d="M930 1859h208l-307 -264h-160zM344 1493h885l-33 -170h-684l-86 -442h653l-32 -170h-654l-104 -541h702l-33 -170h-905z" />
<glyph unicode="&#xca;" d="M749 1861h213l158 -266h-133l-139 178l-209 -178h-152zM344 1493h885l-33 -170h-684l-86 -442h653l-32 -170h-654l-104 -541h702l-33 -170h-905z" />
<glyph unicode="&#xcb;" d="M545 1627q-15 0 -22.5 9t-4.5 24l28 143q4 27 32 27h144q27 0 27 -24q0 -6 -1 -9l-29 -143q-6 -27 -32 -27h-142zM936 1627q-15 0 -22.5 9t-4.5 24l28 143q4 27 32 27h143q15 0 22.5 -9t4.5 -24l-28 -143q-5 -27 -32 -27h-143zM344 1493h885l-33 -170h-684l-86 -442h653 l-32 -170h-654l-104 -541h702l-33 -170h-905z" />
<glyph unicode="&#xcc;" d="M557 1859h182l147 -264h-139zM90 170h313l224 1153h-314l33 170h830l-33 -170h-314l-223 -1153h314l-33 -170h-830z" />
<glyph unicode="&#xcd;" d="M891 1859h208l-307 -264h-160zM90 170h313l224 1153h-314l33 170h830l-33 -170h-314l-223 -1153h314l-33 -170h-830z" />
<glyph unicode="&#xce;" d="M710 1861h213l158 -266h-133l-139 178l-209 -178h-152zM90 170h313l224 1153h-314l33 170h830l-33 -170h-314l-223 -1153h314l-33 -170h-830z" />
<glyph unicode="&#xcf;" d="M506 1627q-15 0 -22.5 9t-4.5 24l28 143q4 27 32 27h144q27 0 27 -24q0 -6 -1 -9l-29 -143q-6 -27 -32 -27h-142zM897 1627q-15 0 -22.5 9t-4.5 24l28 143q4 27 32 27h143q15 0 22.5 -9t4.5 -24l-28 -143q-5 -27 -32 -27h-143zM90 170h313l224 1153h-314l33 170h830 l-33 -170h-314l-223 -1153h314l-33 -170h-830z" />
<glyph unicode="&#xd0;" d="M129 709h-127l29 149h129l123 635h303q273 0 409 -124q69 -63 102 -157.5t33 -225.5q0 -74 -10.5 -157t-31.5 -170q-22 -90 -51.5 -167.5t-61.5 -137.5q-53 -98 -118.5 -165t-140.5 -107q-155 -82 -421 -82h-303zM324 166q99 0 170.5 16.5t126.5 46.5q63 35 104.5 84.5 t74.5 118.5q26 53 49 121t41 154q17 80 25.5 153t8.5 133q0 95 -20 157.5t-62 100.5q-82 76 -275 76h-114l-91 -469h267l-29 -149h-266l-107 -543h97z" />
<glyph unicode="&#xd1;" d="M438 1627q34 107 97 164q31 28 67.5 41.5t77.5 13.5q20 0 35.5 -3t31.5 -8q33 -11 66 -36l35 -26q19 -14 36 -20q8 -3 16 -5t20 -2q23 0 39 7t30 20q29 27 39 73h125q-31 -108 -95 -164q-29 -26 -67 -40.5t-84 -14.5q-20 0 -34 3t-28 8q-16 6 -29.5 13.5t-29.5 18.5 l-34 25l-2 1q-43 32 -81 32q-34 0 -60 -25q-26 -24 -46 -76h-125zM285 1493h256l264 -1229l239 1229h195l-291 -1493h-256l-264 1229l-240 -1229h-194z" />
<glyph unicode="&#xd2;" d="M543 1859h182l147 -264h-139zM478 -29q-202 0 -299 123q-97 122 -97 379q0 64 5.5 120t16.5 119q12 70 26.5 131t37.5 132q16 50 31 89t32 77q20 43 37.5 73.5t34.5 56.5q86 128 198 189q51 28 112 44t140 16q100 0 175 -29t126 -94q97 -122 97 -373q0 -60 -5.5 -119 t-16.5 -124q-22 -128 -66 -265q-16 -50 -30.5 -88.5t-31.5 -76.5q-14 -29 -33 -64.5t-40 -67.5q-39 -59 -89.5 -107t-107.5 -80q-109 -61 -253 -61zM498 135q43 0 84 12.5t78 38.5q40 29 68.5 67t49.5 78q19 36 36.5 79t32.5 89t28 93t23 92q23 103 34.5 202.5t11.5 180.5 q0 86 -13 137.5t-39 84.5q-26 32 -65.5 49.5t-92.5 17.5q-44 0 -85 -12.5t-77 -38.5q-35 -26 -64.5 -63t-52.5 -82q-35 -66 -67 -157.5t-55 -194.5q-23 -100 -34.5 -197.5t-11.5 -181.5q0 -44 3.5 -78.5t10 -61.5t16.5 -48t23 -38q29 -36 69.5 -52t88.5 -16z" />
<glyph unicode="&#xd3;" d="M897 1859h208l-307 -264h-160zM478 -29q-202 0 -299 123q-97 122 -97 379q0 64 5.5 120t16.5 119q12 70 26.5 131t37.5 132q16 50 31 89t32 77q20 43 37.5 73.5t34.5 56.5q86 128 198 189q51 28 112 44t140 16q100 0 175 -29t126 -94q97 -122 97 -373q0 -60 -5.5 -119 t-16.5 -124q-22 -128 -66 -265q-16 -50 -30.5 -88.5t-31.5 -76.5q-14 -29 -33 -64.5t-40 -67.5q-39 -59 -89.5 -107t-107.5 -80q-109 -61 -253 -61zM498 135q43 0 84 12.5t78 38.5q40 29 68.5 67t49.5 78q19 36 36.5 79t32.5 89t28 93t23 92q23 103 34.5 202.5t11.5 180.5 q0 86 -13 137.5t-39 84.5q-26 32 -65.5 49.5t-92.5 17.5q-44 0 -85 -12.5t-77 -38.5q-35 -26 -64.5 -63t-52.5 -82q-35 -66 -67 -157.5t-55 -194.5q-23 -100 -34.5 -197.5t-11.5 -181.5q0 -44 3.5 -78.5t10 -61.5t16.5 -48t23 -38q29 -36 69.5 -52t88.5 -16z" />
<glyph unicode="&#xd4;" d="M696 1861h213l158 -266h-133l-139 178l-209 -178h-152zM478 -29q-202 0 -299 123q-97 122 -97 379q0 64 5.5 120t16.5 119q12 70 26.5 131t37.5 132q16 50 31 89t32 77q20 43 37.5 73.5t34.5 56.5q86 128 198 189q51 28 112 44t140 16q100 0 175 -29t126 -94 q97 -122 97 -373q0 -60 -5.5 -119t-16.5 -124q-22 -128 -66 -265q-16 -50 -30.5 -88.5t-31.5 -76.5q-14 -29 -33 -64.5t-40 -67.5q-39 -59 -89.5 -107t-107.5 -80q-109 -61 -253 -61zM498 135q43 0 84 12.5t78 38.5q40 29 68.5 67t49.5 78q19 36 36.5 79t32.5 89t28 93 t23 92q23 103 34.5 202.5t11.5 180.5q0 86 -13 137.5t-39 84.5q-26 32 -65.5 49.5t-92.5 17.5q-44 0 -85 -12.5t-77 -38.5q-35 -26 -64.5 -63t-52.5 -82q-35 -66 -67 -157.5t-55 -194.5q-23 -100 -34.5 -197.5t-11.5 -181.5q0 -44 3.5 -78.5t10 -61.5t16.5 -48t23 -38 q29 -36 69.5 -52t88.5 -16z" />
<glyph unicode="&#xd5;" d="M434 1627q34 107 97 164q31 28 67.5 41.5t77.5 13.5q20 0 35.5 -3t31.5 -8q33 -11 66 -36l35 -26q19 -14 36 -20q8 -3 16 -5t20 -2q23 0 39 7t30 20q29 27 39 73h125q-31 -108 -95 -164q-29 -26 -67 -40.5t-84 -14.5q-20 0 -34 3t-28 8q-16 6 -29.5 13.5t-29.5 18.5 l-34 25l-2 1q-43 32 -81 32q-34 0 -60 -25q-26 -24 -46 -76h-125zM478 -29q-202 0 -299 123q-97 122 -97 379q0 64 5.5 120t16.5 119q12 70 26.5 131t37.5 132q16 50 31 89t32 77q20 43 37.5 73.5t34.5 56.5q86 128 198 189q51 28 112 44t140 16q100 0 175 -29t126 -94 q97 -122 97 -373q0 -60 -5.5 -119t-16.5 -124q-22 -128 -66 -265q-16 -50 -30.5 -88.5t-31.5 -76.5q-14 -29 -33 -64.5t-40 -67.5q-39 -59 -89.5 -107t-107.5 -80q-109 -61 -253 -61zM498 135q43 0 84 12.5t78 38.5q40 29 68.5 67t49.5 78q19 36 36.5 79t32.5 89t28 93 t23 92q23 103 34.5 202.5t11.5 180.5q0 86 -13 137.5t-39 84.5q-26 32 -65.5 49.5t-92.5 17.5q-44 0 -85 -12.5t-77 -38.5q-35 -26 -64.5 -63t-52.5 -82q-35 -66 -67 -157.5t-55 -194.5q-23 -100 -34.5 -197.5t-11.5 -181.5q0 -44 3.5 -78.5t10 -61.5t16.5 -48t23 -38 q29 -36 69.5 -52t88.5 -16z" />
<glyph unicode="&#xd6;" d="M492 1627q-15 0 -22.5 9t-4.5 24l28 143q4 27 32 27h144q27 0 27 -24q0 -6 -1 -9l-29 -143q-6 -27 -32 -27h-142zM883 1627q-15 0 -22.5 9t-4.5 24l28 143q4 27 32 27h143q15 0 22.5 -9t4.5 -24l-28 -143q-5 -27 -32 -27h-143zM478 -29q-202 0 -299 123q-97 122 -97 379 q0 64 5.5 120t16.5 119q12 70 26.5 131t37.5 132q16 50 31 89t32 77q20 43 37.5 73.5t34.5 56.5q86 128 198 189q51 28 112 44t140 16q100 0 175 -29t126 -94q97 -122 97 -373q0 -60 -5.5 -119t-16.5 -124q-22 -128 -66 -265q-16 -50 -30.5 -88.5t-31.5 -76.5 q-14 -29 -33 -64.5t-40 -67.5q-39 -59 -89.5 -107t-107.5 -80q-109 -61 -253 -61zM498 135q43 0 84 12.5t78 38.5q40 29 68.5 67t49.5 78q19 36 36.5 79t32.5 89t28 93t23 92q23 103 34.5 202.5t11.5 180.5q0 86 -13 137.5t-39 84.5q-26 32 -65.5 49.5t-92.5 17.5 q-44 0 -85 -12.5t-77 -38.5q-35 -26 -64.5 -63t-52.5 -82q-35 -66 -67 -157.5t-55 -194.5q-23 -100 -34.5 -197.5t-11.5 -181.5q0 -44 3.5 -78.5t10 -61.5t16.5 -48t23 -38q29 -36 69.5 -52t88.5 -16z" />
<glyph unicode="&#xd7;" d="M150 293l350 348l-350 350l116 117l350 -350l351 350l116 -117l-350 -350l348 -348l-116 -119l-349 350l-348 -350z" />
<glyph unicode="&#xd8;" d="M14 -6l119 170q-14 31 -24 64t-16 65q-13 68 -13 159q0 95 13 197.5t39 209.5q24 98 57.5 187.5t79.5 170.5q40 70 90 128t117 100q62 38 130.5 56.5t143.5 18.5q41 0 78 -5t69 -16q29 -10 60.5 -26.5t58.5 -38.5l84 125l100 -64l-106 -158q16 -34 26 -65.5t17 -66.5 q7 -36 10.5 -75.5t3.5 -90.5q0 -94 -13 -196t-39 -209q-29 -116 -64.5 -204.5t-72.5 -153.5q-45 -80 -96 -136t-110 -93t-129 -56.5t-148 -19.5q-43 0 -79.5 6t-70.5 17q-29 10 -61 26.5t-61 42.5l-94 -133zM905 1274q-13 18 -32.5 34t-41.5 27q-20 10 -47 15.5t-57 5.5 q-54 0 -101.5 -19.5t-89.5 -62.5q-81 -83 -141 -256q-11 -32 -22 -69t-21.5 -76.5t-19.5 -79t-16 -75.5q-14 -71 -21.5 -139t-7.5 -122l2 -38q1 -10 1 -15v-7t0.5 -3.5t0.5 -4.5zM501 135q113 0 194 82q34 35 70 96t71 160q12 33 23 70t21 75t18.5 75.5t14.5 72.5 q27 147 27 270v46q0 3 -0.5 14.5t-1.5 19.5l-616 -887q19 -43 67 -69q23 -13 51.5 -19t60.5 -6z" />
<glyph unicode="&#xd9;" d="M555 1859h182l147 -264h-139zM477 -29q-190 0 -293 90q-104 90 -104 254q0 24 2 46t7 56q3 23 5.5 40.5t5.5 35t6.5 36.5t8.5 44l178 920h203l-179 -920q-1 -7 -3 -17t-5 -24q-15 -74 -22.5 -131.5t-7.5 -87.5q0 -43 14.5 -76.5t40.5 -55.5q53 -46 167 -46q45 0 80 7 t68 23t60 38t47 51q11 16 21.5 39.5t23.5 67.5q11 36 23 89.5t26 122.5l178 920h203l-178 -920q-12 -64 -23.5 -113.5t-22.5 -88t-22 -67t-21 -51.5q-25 -54 -56 -94.5t-70 -72.5q-35 -29 -77 -50t-85 -35q-92 -30 -199 -30z" />
<glyph unicode="&#xda;" d="M889 1859h208l-307 -264h-160zM477 -29q-190 0 -293 90q-104 90 -104 254q0 24 2 46t7 56q3 23 5.5 40.5t5.5 35t6.5 36.5t8.5 44l178 920h203l-179 -920q-1 -7 -3 -17t-5 -24q-15 -74 -22.5 -131.5t-7.5 -87.5q0 -43 14.5 -76.5t40.5 -55.5q53 -46 167 -46q45 0 80 7 t68 23t60 38t47 51q11 16 21.5 39.5t23.5 67.5q11 36 23 89.5t26 122.5l178 920h203l-178 -920q-12 -64 -23.5 -113.5t-22.5 -88t-22 -67t-21 -51.5q-25 -54 -56 -94.5t-70 -72.5q-35 -29 -77 -50t-85 -35q-92 -30 -199 -30z" />
<glyph unicode="&#xdb;" d="M708 1861h213l158 -266h-133l-139 178l-209 -178h-152zM477 -29q-190 0 -293 90q-104 90 -104 254q0 24 2 46t7 56q3 23 5.5 40.5t5.5 35t6.5 36.5t8.5 44l178 920h203l-179 -920q-1 -7 -3 -17t-5 -24q-15 -74 -22.5 -131.5t-7.5 -87.5q0 -43 14.5 -76.5t40.5 -55.5 q53 -46 167 -46q45 0 80 7t68 23t60 38t47 51q11 16 21.5 39.5t23.5 67.5q11 36 23 89.5t26 122.5l178 920h203l-178 -920q-12 -64 -23.5 -113.5t-22.5 -88t-22 -67t-21 -51.5q-25 -54 -56 -94.5t-70 -72.5q-35 -29 -77 -50t-85 -35q-92 -30 -199 -30z" />
<glyph unicode="&#xdc;" d="M504 1627q-15 0 -22.5 9t-4.5 24l28 143q4 27 32 27h144q27 0 27 -24q0 -6 -1 -9l-29 -143q-6 -27 -32 -27h-142zM895 1627q-15 0 -22.5 9t-4.5 24l28 143q4 27 32 27h143q15 0 22.5 -9t4.5 -24l-28 -143q-5 -27 -32 -27h-143zM477 -29q-190 0 -293 90q-104 90 -104 254 q0 24 2 46t7 56q3 23 5.5 40.5t5.5 35t6.5 36.5t8.5 44l178 920h203l-179 -920q-1 -7 -3 -17t-5 -24q-15 -74 -22.5 -131.5t-7.5 -87.5q0 -43 14.5 -76.5t40.5 -55.5q53 -46 167 -46q45 0 80 7t68 23t60 38t47 51q11 16 21.5 39.5t23.5 67.5q11 36 23 89.5t26 122.5l178 920 h203l-178 -920q-12 -64 -23.5 -113.5t-22.5 -88t-22 -67t-21 -51.5q-25 -54 -56 -94.5t-70 -72.5q-35 -29 -77 -50t-85 -35q-92 -30 -199 -30z" />
<glyph unicode="&#xdd;" d="M921 1859h208l-307 -264h-160zM508 670l-313 823h202l236 -651l497 651h218l-635 -823l-129 -670h-207z" />
<glyph unicode="&#xde;" d="M342 1493l203 -2l-51 -274h241q207 0 316 -88q54 -44 81 -107.5t27 -154.5q0 -111 -40 -203.5t-121 -161.5q-161 -137 -441 -137h-231l-72 -365h-203zM590 522q163 0 263 92q50 46 74.5 107t24.5 132q0 60 -16.5 97t-45.5 60q-61 49 -192 49h-237l-105 -537h234z" />
<glyph unicode="&#xdf;" d="M599 -29q-38 0 -69.5 3t-67.5 10q-41 7 -70 15.5t-62 20.5l30 164q58 -32 126 -48q68 -17 137 -17q130 0 207 63q36 30 55.5 71.5t19.5 94.5q0 31 -6.5 54t-20.5 43q-17 25 -43.5 48.5t-68.5 55.5l-61 47q-43 33 -71.5 59t-46.5 55q-28 46 -28 110q0 130 102 226 q47 45 115 79t164 53q2 8 3 15t2 15q1 7 1 12v7q0 40 -11 74.5t-40 59.5q-24 20 -61 32t-87 12q-57 0 -105.5 -16.5t-83.5 -50.5q-32 -31 -57.5 -81t-39.5 -124l-219 -1133h-187l221 1137q20 105 61 184.5t101 131.5q63 54 144 78.5t176 24.5q91 0 160 -21t114 -59 q94 -80 94 -232q0 -14 -1 -31t-3 -34t-5.5 -35t-8.5 -36q-174 -21 -274 -88q-101 -68 -101 -163q0 -21 5 -37t16 -32q14 -20 32 -36t48 -39l51 -39q54 -42 93.5 -77.5t62.5 -73.5q40 -65 40 -159q0 -84 -31 -156.5t-98 -128.5q-63 -53 -150.5 -80.5t-202.5 -27.5z" />
<glyph unicode="&#xe0;" d="M457 1673h198l197 -376h-143zM407 -29q-74 0 -135.5 20.5t-107.5 62.5q-48 43 -70 100t-22 126q0 92 39 172t115 138t182 87.5t237 29.5h246l12 61l3 19q1 5 1 10v7q0 57 -18 89.5t-45 52.5q-29 21 -73 33t-106 12q-43 0 -89.5 -6t-96.5 -19q-51 -13 -103 -32t-108 -45 l35 180q54 20 105 34.5t100 24.5t95.5 14.5t89.5 4.5q92 0 166 -20t126 -62q49 -39 75.5 -96.5t26.5 -129.5q0 -33 -6 -85q-4 -32 -8.5 -59.5t-9.5 -55.5l-125 -639h-164l12 166q-72 -94 -170 -144q-50 -26 -101 -38.5t-108 -12.5zM461 125q72 0 134.5 27t115.5 80 q56 56 92 130t53 160l8 41h-172q-60 0 -104 -1.5t-73 -5.5t-55 -11t-46 -15q-26 -11 -55 -30.5t-54 -57.5q-41 -62 -41 -135q0 -48 15.5 -80.5t36.5 -52.5q24 -23 59.5 -36t85.5 -13z" />
<glyph unicode="&#xe1;" d="M911 1673h219l-395 -376h-156zM407 -29q-74 0 -135.5 20.5t-107.5 62.5q-48 43 -70 100t-22 126q0 92 39 172t115 138t182 87.5t237 29.5h246l12 61l3 19q1 5 1 10v7q0 57 -18 89.5t-45 52.5q-29 21 -73 33t-106 12q-43 0 -89.5 -6t-96.5 -19q-51 -13 -103 -32t-108 -45 l35 180q54 20 105 34.5t100 24.5t95.5 14.5t89.5 4.5q92 0 166 -20t126 -62q49 -39 75.5 -96.5t26.5 -129.5q0 -33 -6 -85q-4 -32 -8.5 -59.5t-9.5 -55.5l-125 -639h-164l12 166q-72 -94 -170 -144q-50 -26 -101 -38.5t-108 -12.5zM461 125q72 0 134.5 27t115.5 80 q56 56 92 130t53 160l8 41h-172q-60 0 -104 -1.5t-73 -5.5t-55 -11t-46 -15q-26 -11 -55 -30.5t-54 -57.5q-41 -62 -41 -135q0 -48 15.5 -80.5t36.5 -52.5q24 -23 59.5 -36t85.5 -13z" />
<glyph unicode="&#xe2;" d="M721 1673h147l164 -376h-133l-117 241l-225 -241h-156zM407 -29q-74 0 -135.5 20.5t-107.5 62.5q-48 43 -70 100t-22 126q0 92 39 172t115 138t182 87.5t237 29.5h246l12 61l3 19q1 5 1 10v7q0 57 -18 89.5t-45 52.5q-29 21 -73 33t-106 12q-43 0 -89.5 -6t-96.5 -19 q-51 -13 -103 -32t-108 -45l35 180q54 20 105 34.5t100 24.5t95.5 14.5t89.5 4.5q92 0 166 -20t126 -62q49 -39 75.5 -96.5t26.5 -129.5q0 -33 -6 -85q-4 -32 -8.5 -59.5t-9.5 -55.5l-125 -639h-164l12 166q-72 -94 -170 -144q-50 -26 -101 -38.5t-108 -12.5zM461 125 q72 0 134.5 27t115.5 80q56 56 92 130t53 160l8 41h-172q-60 0 -104 -1.5t-73 -5.5t-55 -11t-46 -15q-26 -11 -55 -30.5t-54 -57.5q-41 -62 -41 -135q0 -48 15.5 -80.5t36.5 -52.5q24 -23 59.5 -36t85.5 -13z" />
<glyph unicode="&#xe3;" d="M894 1297q-43 0 -76 15q-15 7 -33.5 19.5t-39.5 34.5l-47 49q-5 5 -15.5 14t-20.5 14q-17 9 -37 9q-15 0 -32 -7t-31 -30q-25 -38 -32 -116h-125q16 135 74 209q57 73 147 73q43 0 76 -15q17 -8 35.5 -22t36.5 -32l47 -47q14 -14 20 -19t17 -11q16 -9 34 -9q20 0 37 10.5 t28 28.5t19.5 47.5t12.5 68.5h125q-8 -63 -26 -117.5t-47 -92.5t-66 -56t-81 -18zM407 -29q-74 0 -135.5 20.5t-107.5 62.5q-48 43 -70 100t-22 126q0 92 39 172t115 138t182 87.5t237 29.5h246l12 61l3 19q1 5 1 10v7q0 57 -18 89.5t-45 52.5q-29 21 -73 33t-106 12 q-43 0 -89.5 -6t-96.5 -19q-51 -13 -103 -32t-108 -45l35 180q54 20 105 34.5t100 24.5t95.5 14.5t89.5 4.5q92 0 166 -20t126 -62q49 -39 75.5 -96.5t26.5 -129.5q0 -33 -6 -85q-4 -32 -8.5 -59.5t-9.5 -55.5l-125 -639h-164l12 166q-72 -94 -170 -144q-50 -26 -101 -38.5 t-108 -12.5zM461 125q72 0 134.5 27t115.5 80q56 56 92 130t53 160l8 41h-172q-60 0 -104 -1.5t-73 -5.5t-55 -11t-46 -15q-26 -11 -55 -30.5t-54 -57.5q-41 -62 -41 -135q0 -48 15.5 -80.5t36.5 -52.5q24 -23 59.5 -36t85.5 -13z" />
<glyph unicode="&#xe4;" d="M473 1350q-15 0 -22.5 9t-4.5 24l28 142q4 27 32 27h143q15 0 22.5 -9t4.5 -24l-28 -142q-5 -27 -32 -27h-143zM864 1350q-15 0 -22.5 9t-4.5 24l28 142q4 27 32 27h143q15 0 22.5 -9t4.5 -24l-28 -142q-5 -27 -32 -27h-143zM407 -29q-74 0 -135.5 20.5t-107.5 62.5 q-48 43 -70 100t-22 126q0 92 39 172t115 138t182 87.5t237 29.5h246l12 61l3 19q1 5 1 11v8q0 96 -62 140q-29 21 -75 33t-107 12q-42 0 -88 -6t-96 -19q-51 -13 -103 -32t-108 -45l35 180q54 20 105 34.5t100 24.5t95.5 14.5t89.5 4.5q92 0 166 -20t126 -62 q49 -39 75.5 -96.5t26.5 -129.5q0 -33 -6 -85q-4 -32 -8.5 -59.5t-9.5 -55.5l-125 -639h-164l12 166q-72 -94 -170 -144q-50 -26 -101 -38.5t-108 -12.5zM461 125q72 0 134.5 27t115.5 80q56 56 92 130t53 160l8 41h-172q-60 0 -104 -1.5t-73 -5.5t-55 -11t-46 -15 q-26 -11 -55 -30.5t-54 -57.5q-41 -62 -41 -135q0 -48 15.5 -80.5t36.5 -52.5q24 -23 59.5 -36t85.5 -13z" />
<glyph unicode="&#xe5;" d="M782 1321q-114 0 -194 80t-80 194q0 116 80 196q79 79 194 79q116 0 195 -79q80 -80 80 -196q0 -114 -80 -194t-195 -80zM782 1444q64 0 108 44t44 107q0 64 -44 108t-108 44t-107 -43q-44 -44 -44 -109q0 -63 44 -107t107 -44zM407 -29q-74 0 -135.5 20.5t-107.5 62.5 q-48 43 -70 100t-22 126q0 92 39 172t115 138t182 87.5t237 29.5h246l12 61l3 19q1 5 1 10v7q0 57 -18 89.5t-45 52.5q-29 21 -73 33t-106 12q-43 0 -89.5 -6t-96.5 -19q-51 -13 -103 -32t-108 -45l35 180q54 20 105 34.5t100 24.5t95.5 14.5t89.5 4.5q92 0 166 -20t126 -62 q49 -39 75.5 -96.5t26.5 -129.5q0 -33 -6 -85q-4 -32 -8.5 -59.5t-9.5 -55.5l-125 -639h-164l12 166q-72 -94 -170 -144q-50 -26 -101 -38.5t-108 -12.5zM461 125q72 0 134.5 27t115.5 80q56 56 92 130t53 160l8 41h-172q-60 0 -104 -1.5t-73 -5.5t-55 -11t-46 -15 q-26 -11 -55 -30.5t-54 -57.5q-41 -62 -41 -135q0 -48 15.5 -80.5t36.5 -52.5q24 -23 59.5 -36t85.5 -13z" />
<glyph unicode="&#xe6;" d="M234 -29q-68 0 -120.5 20t-85.5 52q-41 38 -58 92t-17 117q0 87 30 164.5t91 132.5q120 108 344 108h117l18 88q3 14 4 21.5t2 20.5q1 11 1.5 22.5t0.5 22.5q0 42 -11 71.5t-31 49.5q-19 19 -49 30.5t-70 11.5q-27 0 -56.5 -5.5t-59.5 -15.5q-32 -11 -69 -27t-74 -36 l35 168q44 19 79 31t69 20q35 8 66 12.5t60 4.5q81 0 140 -33q58 -33 90 -96q23 29 54 54t66 42q36 17 74.5 25t75.5 8q59 0 108 -19t85 -58q35 -38 53 -90.5t18 -112.5q0 -21 -2 -49.5t-6 -57.5q-2 -11 -4.5 -30.5t-6.5 -41.5l-8 -44t-7 -40l-17 -90h-495 q-12 -57 -17.5 -88.5t-9.5 -57.5q-4 -28 -6 -47t-2 -36q0 -41 13 -71.5t36 -50.5q49 -44 133 -44q69 0 142 29q70 28 124 79l-34 -172q-28 -20 -61.5 -36.5t-63.5 -26.5q-65 -21 -137 -21q-53 0 -98 11t-79 31t-58 50t-36 68q-47 -80 -117 -120q-35 -20 -76.5 -30t-86.5 -10 zM1024 657l16 74q4 17 6 31.5t3 23.5q1 11 1.5 29t0.5 29q0 39 -9 66.5t-26 46.5q-33 38 -94 38q-35 0 -70 -14t-64 -49t-46 -82t-31 -111l-17 -82h330zM267 123q83 0 134 68q13 18 24.5 41t22 53.5t20 69t19.5 87.5l15 72h-49q-67 0 -107 -3.5t-70 -12.5q-31 -9 -51 -21.5 t-37 -32.5q-18 -20 -28.5 -39.5t-18.5 -42.5q-18 -51 -18 -95q0 -27 8.5 -55t29.5 -50q22 -22 50 -30.5t56 -8.5z" />
<glyph unicode="&#xe7;" d="M469 813q-26 -38 -48.5 -85.5t-38.5 -101.5q-32 -108 -32 -208q0 -69 16.5 -124.5t51.5 -93.5q32 -35 82.5 -54t124.5 -19q45 0 91.5 7.5t91.5 23.5q47 17 90 41t81 53l-39 -201q-43 -23 -80.5 -36.5t-75.5 -22.5q-24 -6 -48 -10t-48 -7q14 -24 23.5 -45.5t17.5 -40.5 q17 -45 17 -87t-17.5 -78.5t-52.5 -64.5q-69 -54 -191 -54q-20 0 -43.5 1.5t-46.5 5.5q-45 7 -94 23l25 129q20 -10 41.5 -17.5t35.5 -11.5q34 -9 69 -9q31 0 58 7.5t46 22.5t28 36t9 45q0 17 -4 35.5t-10 34.5q-3 9 -11 26.5t-18 38.5q-101 5 -174.5 33.5t-124.5 78.5 q-58 57 -86.5 139.5t-28.5 188.5q0 75 13.5 151.5t39.5 145.5t63 130t82 111q48 53 102.5 90t102.5 58q110 49 245 49q88 0 171 -21q38 -10 80 -26.5t82 -38.5l-37 -182q-65 58 -136 85t-154 27q-111 0 -196 -44q-42 -22 -78.5 -55.5t-66.5 -78.5z" />
<glyph unicode="&#xe8;" d="M453 1673h198l197 -376h-143zM558 -29q-120 0 -204.5 29t-140.5 83q-115 112 -115 327q0 154 60 304t166 259q45 47 90 78t94 53q51 23 102.5 34t108.5 11q95 0 169 -30t127 -84q55 -57 83 -135.5t28 -170.5q0 -21 -1.5 -40t-3.5 -44q-2 -16 -5.5 -48.5t-11.5 -80.5h-807 q-6 -30 -9 -58q-3 -26 -3 -49q0 -135 77 -209q38 -37 94 -55t128 -18q47 0 94.5 7.5t100.5 21.5q105 29 218 84l-36 -183q-57 -23 -105 -38t-100 -26q-50 -11 -97 -16.5t-101 -5.5zM938 659q3 14 5 25t3 20q1 8 1.5 16.5t0.5 20.5q0 115 -65 183q-32 34 -77.5 50.5 t-99.5 16.5q-60 0 -118 -21t-111 -69q-46 -42 -84.5 -103t-60.5 -139h606z" />
<glyph unicode="&#xe9;" d="M907 1673h219l-395 -376h-156zM558 -29q-120 0 -204.5 29t-140.5 83q-115 112 -115 327q0 154 60 304t166 259q45 47 90 78t94 53q51 23 102.5 34t108.5 11q95 0 169 -30t127 -84q55 -57 83 -135.5t28 -170.5q0 -21 -1.5 -40t-3.5 -44q-2 -16 -5.5 -48.5t-11.5 -80.5 h-807q-6 -30 -9 -58q-3 -26 -3 -49q0 -135 77 -209q38 -37 94 -55t128 -18q47 0 94.5 7.5t100.5 21.5q105 29 218 84l-36 -183q-57 -23 -105 -38t-100 -26q-50 -11 -97 -16.5t-101 -5.5zM938 659q3 14 5 25t3 20q1 8 1.5 16.5t0.5 20.5q0 115 -65 183q-32 34 -77.5 50.5 t-99.5 16.5q-60 0 -118 -21t-111 -69q-46 -42 -84.5 -103t-60.5 -139h606z" />
<glyph unicode="&#xea;" d="M717 1673h147l164 -376h-133l-117 241l-225 -241h-156zM558 -29q-120 0 -204.5 29t-140.5 83q-115 112 -115 327q0 154 60 304t166 259q45 47 90 78t94 53q51 23 102.5 34t108.5 11q95 0 169 -30t127 -84q55 -57 83 -135.5t28 -170.5q0 -21 -1.5 -40t-3.5 -44 q-2 -16 -5.5 -48.5t-11.5 -80.5h-807q-6 -30 -9 -58q-3 -26 -3 -49q0 -135 77 -209q38 -37 94 -55t128 -18q47 0 94.5 7.5t100.5 21.5q105 29 218 84l-36 -183q-57 -23 -105 -38t-100 -26q-50 -11 -97 -16.5t-101 -5.5zM938 659q3 14 5 25t3 20q1 8 1.5 16.5t0.5 20.5 q0 115 -65 183q-32 34 -77.5 50.5t-99.5 16.5q-60 0 -118 -21t-111 -69q-46 -42 -84.5 -103t-60.5 -139h606z" />
<glyph unicode="&#xeb;" d="M469 1350q-15 0 -22.5 9t-4.5 24l28 142q4 27 32 27h143q15 0 22.5 -9t4.5 -24l-28 -142q-5 -27 -32 -27h-143zM860 1350q-15 0 -22.5 9t-4.5 24l28 142q4 27 32 27h143q15 0 22.5 -9t4.5 -24l-28 -142q-5 -27 -32 -27h-143zM558 -29q-120 0 -204.5 29t-140.5 83 q-115 112 -115 327q0 154 60 304t166 259q45 47 90 78t94 53q51 23 102.5 34t108.5 11q95 0 169 -30t127 -84q55 -57 83 -135.5t28 -170.5q0 -21 -1.5 -40t-3.5 -44q-2 -16 -5.5 -48.5t-11.5 -80.5h-807q-6 -30 -9 -58q-3 -26 -3 -49q0 -135 77 -209q38 -37 94 -55t128 -18 q47 0 94.5 7.5t100.5 21.5q105 29 218 84l-36 -183q-57 -23 -105 -38t-100 -26q-50 -11 -97 -16.5t-101 -5.5zM938 659q3 14 5 25t3 20q1 8 1.5 16.5t0.5 20.5q0 115 -65 183q-32 34 -77.5 50.5t-99.5 16.5q-60 0 -118 -21t-111 -69q-46 -42 -84.5 -103t-60.5 -139h606z" />
<glyph unicode="&#xec;" d="M383 1646h198l197 -376h-143zM749 -4q-174 0 -257 64q-85 64 -85 192q0 17 1.5 33.5t3.5 36.5t5.5 42t8.5 44l133 568h-246l29 144h430l-162 -716q-4 -16 -6.5 -35t-3.5 -27q-2 -16 -3 -25.5t-1 -19.5q0 -74 44 -109q45 -36 136 -36h211l-31 -156h-207z" />
<glyph unicode="&#xed;" d="M828 1673h219l-395 -376h-156zM749 -4q-174 0 -257 64q-85 64 -85 192q0 17 1.5 33.5t3.5 36.5t5.5 42t8.5 44l133 568h-246l29 144h430l-162 -716q-4 -16 -6.5 -35t-3.5 -27q-2 -16 -3 -25.5t-1 -19.5q0 -74 44 -109q45 -36 136 -36h211l-31 -156h-207z" />
<glyph unicode="&#xee;" d="M688 1673h147l164 -376h-133l-117 241l-225 -241h-156zM749 -4q-174 0 -257 64q-85 64 -85 192q0 17 1.5 33.5t3.5 36.5t5.5 42t8.5 44l133 568h-246l29 144h430l-162 -716q-4 -16 -6.5 -35t-3.5 -27q-2 -16 -3 -25.5t-1 -19.5q0 -74 44 -109q45 -36 136 -36h211 l-31 -156h-207z" />
<glyph unicode="&#xef;" d="M380 1320q-15 0 -22.5 9t-4.5 24l28 142q4 27 32 27h143q15 0 22.5 -9t4.5 -24l-28 -142q-5 -27 -32 -27h-143zM771 1320q-15 0 -22.5 9t-4.5 24l28 142q4 27 32 27h143q15 0 22.5 -9t4.5 -24l-28 -142q-5 -27 -32 -27h-143zM749 -4q-174 0 -257 64q-85 64 -85 192 q0 17 1.5 33.5t3.5 36.5t5.5 42t8.5 44l133 568h-246l29 144h430l-162 -716q-4 -16 -6.5 -35t-3.5 -27q-2 -16 -3 -25.5t-1 -19.5q0 -74 44 -109q45 -36 136 -36h211l-31 -156h-207z" />
<glyph unicode="&#xf0;" d="M516 -29q-193 0 -295 108q-54 57 -78 134.5t-24 175.5q0 125 38 248q20 66 50 125.5t59 101.5q77 112 192 173q58 31 120.5 46t118.5 15q18 0 35 -1.5t40 -3.5l33 -3q-20 37 -45 81q-5 7 -12.5 19.5t-17 26.5t-19.5 28.5t-19 26.5l-297 -94l-30 92l274 86l-141 200h213 l104 -145l287 88l28 -92l-260 -80q62 -86 107 -166.5t73 -153.5q56 -147 56 -306q0 -64 -9 -130t-28 -131q-37 -129 -108 -233q-42 -61 -87.5 -103.5t-102.5 -72.5q-114 -60 -255 -60zM534 127q79 0 149 40.5t123 120.5q53 81 79 186.5t26 227.5q0 36 -2 64t-7 54 q-9 51 -28 87q-37 19 -77 28q-41 9 -83 9q-94 0 -166.5 -41t-123.5 -114q-28 -40 -49 -87t-34.5 -97.5t-20.5 -103t-7 -103.5q0 -67 12.5 -119t44.5 -87q26 -29 67.5 -47t96.5 -18z" />
<glyph unicode="&#xf1;" d="M890 1297q-43 0 -76 15q-15 7 -33.5 19.5t-39.5 34.5l-47 49q-5 5 -15.5 14t-20.5 14q-17 9 -37 9q-15 0 -32 -7t-31 -30q-25 -38 -32 -116h-125q16 135 74 209q57 73 147 73q43 0 76 -15q17 -8 35.5 -22t36.5 -32l47 -47q14 -14 20 -19t17 -11q16 -9 34 -9q20 0 37 10.5 t28 28.5t19.5 47.5t12.5 68.5h125q-8 -63 -26 -117.5t-47 -92.5t-66 -56t-81 -18zM303 1120h164l-12 -168q74 96 163 146q43 24 88 36.5t101 12.5q66 0 120 -18t92 -54q38 -35 57.5 -86.5t19.5 -111.5q0 -17 -1.5 -40.5t-3.5 -43.5t-5.5 -42t-10.5 -57l-135 -694h-184 l135 695q3 9 2 8.5t1 5.5q4 21 6.5 35.5t4.5 26.5t3 22.5t1 23.5q0 44 -11.5 74.5t-34.5 52.5q-46 43 -133 43q-129 0 -217 -93q-89 -94 -122 -261l-123 -633h-184z" />
<glyph unicode="&#xf2;" d="M453 1673h198l197 -376h-143zM510 -29q-92 0 -166 26t-126 83q-47 51 -74 129t-27 187q0 130 41 267q19 63 47.5 126t68.5 121q81 118 190 177q112 60 253 60q91 0 166.5 -26t128.5 -81q102 -107 102 -314q0 -135 -41 -273q-23 -75 -53 -137t-62 -109 q-42 -61 -88.5 -104.5t-103.5 -72.5t-121.5 -44t-134.5 -15zM533 127q87 0 157.5 45t121.5 126q27 42 47 91.5t33.5 103.5t20.5 111t7 114q0 72 -12.5 123t-43.5 86q-30 34 -71.5 49t-90.5 15q-90 0 -159.5 -45t-120.5 -126q-50 -79 -79.5 -188t-29.5 -230q0 -72 12.5 -124 t43.5 -87q29 -32 71.5 -48t92.5 -16z" />
<glyph unicode="&#xf3;" d="M907 1673h219l-395 -376h-156zM510 -29q-92 0 -166 26t-126 83q-47 51 -74 129t-27 187q0 130 41 267q19 63 47.5 126t68.5 121q81 118 190 177q112 60 253 60q91 0 166.5 -26t128.5 -81q102 -107 102 -314q0 -135 -41 -273q-23 -75 -53 -137t-62 -109 q-42 -61 -88.5 -104.5t-103.5 -72.5t-121.5 -44t-134.5 -15zM533 127q87 0 157.5 45t121.5 126q27 42 47 91.5t33.5 103.5t20.5 111t7 114q0 72 -12.5 123t-43.5 86q-30 34 -71.5 49t-90.5 15q-90 0 -159.5 -45t-120.5 -126q-50 -79 -79.5 -188t-29.5 -230q0 -72 12.5 -124 t43.5 -87q29 -32 71.5 -48t92.5 -16z" />
<glyph unicode="&#xf4;" d="M717 1673h147l164 -376h-133l-117 241l-225 -241h-156zM510 -29q-92 0 -166 26t-126 83q-47 51 -74 129t-27 187q0 130 41 267q19 63 47.5 126t68.5 121q81 118 190 177q112 60 253 60q91 0 166.5 -26t128.5 -81q102 -107 102 -314q0 -135 -41 -273q-23 -75 -53 -137 t-62 -109q-42 -61 -88.5 -104.5t-103.5 -72.5t-121.5 -44t-134.5 -15zM533 127q87 0 157.5 45t121.5 126q27 42 47 91.5t33.5 103.5t20.5 111t7 114q0 72 -12.5 123t-43.5 86q-30 34 -71.5 49t-90.5 15q-90 0 -159.5 -45t-120.5 -126q-50 -79 -79.5 -188t-29.5 -230 q0 -72 12.5 -124t43.5 -87q29 -32 71.5 -48t92.5 -16z" />
<glyph unicode="&#xf5;" d="M890 1297q-43 0 -76 15q-15 7 -33.5 19.5t-39.5 34.5l-47 49q-5 5 -15.5 14t-20.5 14q-17 9 -37 9q-15 0 -32 -7t-31 -30q-25 -38 -32 -116h-125q16 135 74 209q57 73 147 73q43 0 76 -15q17 -8 35.5 -22t36.5 -32l47 -47q14 -14 20 -19t17 -11q16 -9 34 -9q20 0 37 10.5 t28 28.5t19.5 47.5t12.5 68.5h125q-8 -63 -26 -117.5t-47 -92.5t-66 -56t-81 -18zM510 -29q-92 0 -166 26t-126 83q-47 51 -74 129t-27 187q0 130 41 267q19 63 47.5 126t68.5 121q81 118 190 177q112 60 253 60q91 0 166.5 -26t128.5 -81q102 -107 102 -314 q0 -135 -41 -273q-23 -75 -53 -137t-62 -109q-42 -61 -88.5 -104.5t-103.5 -72.5t-121.5 -44t-134.5 -15zM533 127q87 0 157.5 45t121.5 126q27 42 47 91.5t33.5 103.5t20.5 111t7 114q0 72 -12.5 123t-43.5 86q-30 34 -71.5 49t-90.5 15q-90 0 -159.5 -45t-120.5 -126 q-50 -79 -79.5 -188t-29.5 -230q0 -72 12.5 -124t43.5 -87q29 -32 71.5 -48t92.5 -16z" />
<glyph unicode="&#xf6;" d="M469 1350q-15 0 -22.5 9t-4.5 24l28 142q4 27 32 27h143q15 0 22.5 -9t4.5 -24l-28 -142q-5 -27 -32 -27h-143zM860 1350q-15 0 -22.5 9t-4.5 24l28 142q4 27 32 27h143q15 0 22.5 -9t4.5 -24l-28 -142q-5 -27 -32 -27h-143zM510 -29q-92 0 -166 26t-126 83 q-47 51 -74 129t-27 187q0 130 41 267q19 63 47.5 126t68.5 121q81 118 190 177q112 60 253 60q91 0 166.5 -26t128.5 -81q102 -107 102 -314q0 -135 -41 -273q-23 -75 -53 -137t-62 -109q-42 -61 -88.5 -104.5t-103.5 -72.5t-121.5 -44t-134.5 -15zM533 127q87 0 157.5 45 t121.5 126q27 42 47 91.5t33.5 103.5t20.5 111t7 114q0 72 -12.5 123t-43.5 86q-30 34 -71.5 49t-90.5 15q-90 0 -159.5 -45t-120.5 -126q-50 -79 -79.5 -188t-29.5 -230q0 -72 12.5 -124t43.5 -87q29 -32 71.5 -48t92.5 -16z" />
<glyph unicode="&#xf7;" d="M524 889q-30 0 -30 30v186q0 30 30 30h185q30 0 30 -30v-186q0 -30 -30 -30h-185zM88 727h1057v-170h-1057v170zM524 150q-30 0 -30 30v185q0 30 30 30h185q30 0 30 -30v-185q0 -30 -30 -30h-185z" />
<glyph unicode="&#xf8;" d="M47 -20l129 153q-14 24 -25 52t-18 60t-10.5 67.5t-3.5 78.5q0 69 10 138t30 137q19 63 48 127t67 119t87 101.5t106 75.5q56 29 120.5 43.5t136.5 14.5q79 0 139 -18q59 -18 106 -54l112 137l93 -77l-123 -146q17 -26 29 -56t19 -58q8 -31 11.5 -69.5t3.5 -79.5 q0 -135 -41 -273q-21 -70 -50.5 -132t-64.5 -114q-42 -61 -88.5 -104.5t-103.5 -72.5q-113 -59 -259 -59q-40 0 -72 4.5t-64 14.5q-28 8 -56 21t-57 34l-119 -141zM852 938q-14 13 -31.5 24t-36.5 17q-18 6 -39.5 9t-43.5 3q-88 0 -158 -45t-121 -126t-80 -192.5t-29 -239.5 q0 -20 0.5 -29t1.5 -19q2 -19 2.5 -26.5t1.5 -11.5zM534 127q83 0 153 43t124 129q50 79 79.5 187t29.5 239q0 20 -0.5 34t-1.5 23q-1 10 -2.5 21t-4.5 22l-534 -639q15 -15 31.5 -25.5t37.5 -18.5q19 -7 40 -11t48 -4z" />
<glyph unicode="&#xf9;" d="M449 1648h198l197 -376h-143zM409 -27q-65 0 -117.5 18t-90.5 55q-39 38 -57.5 89.5t-18.5 112.5q0 18 1.5 39.5t3.5 44.5q3 30 5.5 49.5t7.5 44.5l133 694h185l-135 -694q-1 -6 -2.5 -16t-3 -20.5t-3 -19.5l-2.5 -15q-2 -17 -3 -32t-1 -25q0 -37 11 -68.5t36 -54.5 q23 -21 56.5 -31.5t74.5 -10.5q60 0 115 22.5t100 69.5q45 48 75 114.5t46 147.5l123 633h185l-218 -1120h-164l13 168q-74 -98 -162 -146q-47 -26 -94.5 -37.5t-98.5 -11.5z" />
<glyph unicode="&#xfa;" d="M903 1648h219l-395 -376h-156zM409 -27q-65 0 -117.5 18t-90.5 55q-39 38 -57.5 89.5t-18.5 112.5q0 18 1.5 39.5t3.5 44.5q3 30 5.5 49.5t7.5 44.5l133 694h185l-135 -694q-1 -6 -2.5 -16t-3 -20.5t-3 -19.5l-2.5 -15q-2 -17 -3 -32t-1 -25q0 -37 11 -68.5t36 -54.5 q23 -21 56.5 -31.5t74.5 -10.5q60 0 115 22.5t100 69.5q45 48 75 114.5t46 147.5l123 633h185l-218 -1120h-164l13 168q-74 -98 -162 -146q-47 -26 -94.5 -37.5t-98.5 -11.5z" />
<glyph unicode="&#xfb;" d="M713 1648h147l164 -376h-133l-117 241l-225 -241h-156zM409 -27q-65 0 -117.5 18t-90.5 55q-39 38 -57.5 89.5t-18.5 112.5q0 18 1.5 39.5t3.5 44.5q3 30 5.5 49.5t7.5 44.5l133 694h185l-135 -694q-1 -6 -2.5 -16t-3 -20.5t-3 -19.5l-2.5 -15q-2 -17 -3 -32t-1 -25 q0 -37 11 -68.5t36 -54.5q23 -21 56.5 -31.5t74.5 -10.5q60 0 115 22.5t100 69.5q45 48 75 114.5t46 147.5l123 633h185l-218 -1120h-164l13 168q-74 -98 -162 -146q-47 -26 -94.5 -37.5t-98.5 -11.5z" />
<glyph unicode="&#xfc;" d="M465 1320q-15 0 -22.5 9t-4.5 24l28 142q4 27 32 27h143q15 0 22.5 -9t4.5 -24l-28 -142q-5 -27 -32 -27h-143zM856 1320q-15 0 -22.5 9t-4.5 24l28 142q4 27 32 27h143q15 0 22.5 -9t4.5 -24l-28 -142q-5 -27 -32 -27h-143zM409 -27q-65 0 -117.5 18t-90.5 55 q-39 38 -57.5 89.5t-18.5 112.5q0 18 1.5 39.5t3.5 44.5q3 30 5.5 49.5t7.5 44.5l133 694h185l-135 -694q-1 -6 -2.5 -16t-3 -20.5t-3 -19.5l-2.5 -15q-2 -17 -3 -32t-1 -25q0 -37 11 -68.5t36 -54.5q23 -21 56.5 -31.5t74.5 -10.5q60 0 115 22.5t100 69.5q45 48 75 114.5 t46 147.5l123 633h185l-218 -1120h-164l13 168q-74 -98 -162 -146q-47 -26 -94.5 -37.5t-98.5 -11.5z" />
<glyph unicode="&#xfd;" d="M947 1648h219l-395 -376h-156zM20 -272h108q83 0 140 47q62 50 118 159l43 84l-217 1102h183l172 -862l483 862h205l-439 -760q-33 -58 -52 -90t-29.5 -50.5t-16 -28.5t-12.5 -22.5t-19.5 -34t-35.5 -62.5q-51 -90 -84.5 -148t-56 -95.5t-38 -60.5t-30.5 -43 q-27 -35 -58.5 -64.5t-73.5 -49.5q-74 -37 -171 -37h-148z" />
<glyph unicode="&#xfe;" d="M385 1567h184l-114 -590q61 82 147 126t186 44q76 0 141 -25t111 -79q45 -52 66.5 -127t21.5 -172q0 -64 -9.5 -135.5t-29.5 -143.5q-21 -77 -50 -141.5t-60 -112.5q-38 -60 -82 -104t-95 -75q-101 -61 -224 -61q-100 0 -170 42q-72 43 -115 128l-111 -567h-184zM567 127 q43 0 81 12t70 33q34 23 61 54.5t50 74.5q24 45 44 99.5t33 108.5q14 58 21 115t7 107q0 73 -13.5 120.5t-37.5 76.5q-27 33 -66.5 48t-88.5 15q-83 0 -152 -45q-37 -24 -64.5 -56t-52.5 -77q-26 -46 -45 -97.5t-32 -104.5q-14 -57 -21 -114.5t-7 -104.5q0 -69 14 -117.5 t41 -80.5q28 -33 68 -50t90 -17z" />
<glyph unicode="&#xff;" d="M509 1320q-15 0 -22.5 9t-4.5 24l28 142q4 27 32 27h143q15 0 22.5 -9t4.5 -24l-28 -142q-5 -27 -32 -27h-143zM900 1320q-15 0 -22.5 9t-4.5 24l28 142q4 27 32 27h143q15 0 22.5 -9t4.5 -24l-28 -142q-5 -27 -32 -27h-143zM20 -272h108q83 0 140 47q62 50 118 159 l43 84l-217 1102h183l172 -862l483 862h205l-439 -760q-33 -58 -52 -90t-29.5 -50.5t-16 -28.5t-12.5 -22.5t-19.5 -34t-35.5 -62.5q-51 -90 -84.5 -148t-56 -95.5t-38 -60.5t-30.5 -43q-27 -35 -58.5 -64.5t-73.5 -49.5q-74 -37 -171 -37h-148z" />
<glyph unicode="&#x100;" d="M531 1800h598l-29 -148h-598zM639 1493h246l166 -1493h-201l-35 389h-520l-184 -389h-217zM801 551l-66 774l-364 -774h430z" />
<glyph unicode="&#x101;" d="M469 1495h598l-29 -148h-598zM404 -29q-75 0 -136.5 21.5t-105 62t-67 98.5t-23.5 130q0 94 40 172t114.5 134t180.5 87t238 31h246l12 61q2 9 3 19t1 20q0 94 -62.5 139t-179.5 45q-175 0 -397 -102l35 180q109 39 205 58.5t185 19.5q93 0 166.5 -21.5t124 -61t77 -96.5 t26.5 -129q0 -34 -6 -85.5t-18 -114.5l-125 -639h-164l12 166q-72 -93 -168 -144t-214 -51zM461 125q67 0 130 26.5t115.5 77t91.5 124.5t58 169l8 41h-172q-56 0 -98.5 -1.5t-75 -5.5t-58 -10.5t-46.5 -15.5q-68 -29 -109 -87t-41 -136q0 -84 51 -133t146 -49z" />
<glyph unicode="&#x102;" d="M794 1612q-267 0 -267 205q0 9 0.5 18t1.5 19h119q1 -54 45 -82.5t129 -28.5q163 0 215 111h119q-35 -120 -126 -181t-236 -61zM639 1493h246l166 -1493h-201l-35 389h-520l-184 -389h-217zM801 551l-66 774l-364 -774h430z" />
<glyph unicode="&#x103;" d="M747 1297q-134 0 -206 64t-72 182q0 17 0.5 25t2.5 16h120v-17q0 -66 43.5 -99.5t125.5 -33.5q85 0 137 37.5t81 112.5h119q-33 -144 -122.5 -215.5t-228.5 -71.5zM404 -29q-75 0 -136.5 21.5t-105 62t-67 98.5t-23.5 130q0 94 40 172t114.5 134t180.5 87t238 31h246 l12 61q2 9 3 19t1 20q0 94 -62.5 139t-179.5 45q-175 0 -397 -102l35 180q109 39 205 58.5t185 19.5q93 0 166.5 -21.5t124 -61t77 -96.5t26.5 -129q0 -34 -6 -85.5t-18 -114.5l-125 -639h-164l12 166q-72 -93 -168 -144t-214 -51zM461 125q67 0 130 26.5t115.5 77 t91.5 124.5t58 169l8 41h-172q-56 0 -98.5 -1.5t-75 -5.5t-58 -10.5t-46.5 -15.5q-68 -29 -109 -87t-41 -136q0 -84 51 -133t146 -49z" />
<glyph unicode="&#x104;" d="M943 -272q29 0 62 7.5t65 22.5l-25 -133q-69 -20 -139 -20q-98 0 -151.5 40t-53.5 110q0 56 37 115.5t115 129.5h-3l-35 389h-520l-184 -389h-217l745 1493h246l166 -1493h-79q-61 -58 -93 -108t-32 -92q0 -35 24 -53.5t72 -18.5zM801 551l-66 774l-364 -774h430z" />
<glyph unicode="&#x105;" d="M868 0q-61 -58 -93 -108t-32 -92q0 -35 24 -53.5t72 -18.5q29 0 62 7.5t65 22.5l-25 -133q-69 -20 -139 -20q-98 0 -151.5 40t-53.5 110q0 56 37 115.5t115 129.5h5l32 166q-72 -93 -168 -144t-214 -51q-75 0 -136.5 21.5t-105 62t-67 98.5t-23.5 130q0 94 40 172 t114.5 134t180.5 87t238 31h246l12 61q2 9 3 19t1 20q0 94 -62.5 139t-179.5 45q-175 0 -397 -102l35 180q109 39 205 58.5t185 19.5q93 0 166.5 -21.5t124 -61t77 -96.5t26.5 -129q0 -34 -6 -85.5t-18 -114.5l-125 -639h-70zM461 125q67 0 130 26.5t115.5 77t91.5 124.5 t58 169l8 41h-172q-56 0 -98.5 -1.5t-75 -5.5t-58 -10.5t-46.5 -15.5q-68 -29 -109 -87t-41 -136q0 -84 51 -133t146 -49z" />
<glyph unicode="&#x106;" d="M1008 1859h208l-307 -264h-160zM597 -29q-118 0 -207 35t-149 97q-62 64 -94 159.5t-32 229.5q0 99 17.5 206t52.5 215q35 110 80.5 195.5t103.5 157.5q56 69 114 115t123 77q130 62 287 62q46 0 85.5 -5t79.5 -16q80 -21 154 -61l-41 -207q-64 62 -135 94 q-69 31 -152 31q-95 0 -175 -40t-152 -124q-51 -60 -93.5 -140t-73.5 -174q-33 -100 -48.5 -196t-15.5 -179q0 -187 78 -277q34 -39 89 -65t135 -26q86 0 177 32q89 31 178 93l-39 -207q-42 -20 -84 -35.5t-85 -26.5q-38 -9 -84 -14.5t-94 -5.5z" />
<glyph unicode="&#x107;" d="M997 1673h219l-395 -376h-156zM607 -29q-115 0 -198 29.5t-138 83.5q-58 57 -86.5 139.5t-28.5 188.5q0 75 13.5 151.5t39.5 145.5t63 130t82 111q48 53 102.5 90t102.5 58q110 49 245 49q88 0 171 -21q38 -10 80 -26.5t82 -38.5l-37 -182q-65 58 -136 85t-154 27 q-111 0 -196 -44q-42 -22 -78.5 -55.5t-66.5 -78.5q-26 -38 -48.5 -85.5t-38.5 -101.5q-32 -108 -32 -208q0 -69 16.5 -124.5t51.5 -93.5q32 -35 82.5 -54t124.5 -19q45 0 91.5 7.5t91.5 23.5q47 17 90 41t81 53l-39 -201q-43 -23 -80.5 -36.5t-75.5 -22.5 q-44 -11 -86.5 -16t-90.5 -5z" />
<glyph unicode="&#x10a;" d="M808 1627q-16 0 -25.5 11t-6.5 28l27 143q2 11 10 17t19 6h141q16 0 26 -11t7 -28l-28 -143q-2 -11 -10 -17t-19 -6h-141zM598 -29q-115 0 -205 32.5t-151.5 98.5t-94 165t-32.5 232q0 102 18.5 208.5t52 207t80.5 190.5t103 161q102 128 234.5 191t288.5 63 q86 0 162.5 -20t157.5 -62l-41 -207q-126 125 -287 125q-97 0 -178 -41.5t-149 -122.5q-51 -61 -93.5 -141.5t-73 -171t-47.5 -186t-17 -185.5q0 -191 77.5 -282t222.5 -91q88 0 178.5 32t178.5 93l-39 -207q-167 -82 -346 -82z" />
<glyph unicode="&#x10b;" d="M739 1348q-27 0 -27 24q0 6 1 9l29 144q4 27 32 27h145q27 0 27 -24q0 -6 -1 -9l-29 -144q-6 -27 -32 -27h-145zM606 -29q-221 0 -335.5 111.5t-114.5 331.5q0 75 13.5 148.5t39 142.5t62 131t83.5 114q88 97 202 147t249 50q174 0 332 -86l-37 -182q-66 58 -136 85 t-156 27q-115 0 -197 -45.5t-142 -132.5q-28 -41 -50 -88.5t-37.5 -98.5t-23.5 -104t-8 -104q0 -149 68.5 -220t208.5 -71q92 0 180 31t172 94l-39 -201q-73 -39 -156 -59.5t-178 -20.5z" />
<glyph unicode="&#x10c;" d="M616 1861h136l139 -178l209 178h151l-264 -266h-213zM597 -29q-118 0 -207 35t-149 97q-62 64 -94 159.5t-32 229.5q0 99 17.5 206t52.5 215q35 110 80.5 195.5t103.5 157.5q56 69 114 115t123 77q130 62 287 62q46 0 85.5 -5t79.5 -16q80 -21 154 -61l-41 -207 q-64 62 -135 94q-69 31 -152 31q-95 0 -175 -40t-152 -124q-51 -60 -93.5 -140t-73.5 -174q-33 -100 -48.5 -196t-15.5 -179q0 -187 78 -277q34 -39 89 -65t135 -26q86 0 177 32q89 31 178 93l-39 -207q-42 -20 -84 -35.5t-85 -26.5q-38 -9 -84 -14.5t-94 -5.5z" />
<glyph unicode="&#x10d;" d="M561 1673h131l119 -243l225 243h156l-320 -376h-147zM607 -29q-115 0 -198 29.5t-138 83.5q-58 57 -86.5 139.5t-28.5 188.5q0 75 13.5 151.5t39.5 145.5t63 130t82 111q48 53 102.5 90t102.5 58q110 49 245 49q88 0 171 -21q38 -10 80 -26.5t82 -38.5l-37 -182 q-65 58 -136 85t-154 27q-111 0 -196 -44q-42 -22 -78.5 -55.5t-66.5 -78.5q-26 -38 -48.5 -85.5t-38.5 -101.5q-32 -108 -32 -208q0 -69 16.5 -124.5t51.5 -93.5q32 -35 82.5 -54t124.5 -19q45 0 91.5 7.5t91.5 23.5q47 17 90 41t81 53l-39 -201q-43 -23 -80.5 -36.5 t-75.5 -22.5q-44 -11 -86.5 -16t-90.5 -5z" />
<glyph unicode="&#x10e;" d="M484 1861h136l139 -178l209 178h151l-264 -266h-213zM283 1493h303q277 0 410.5 -125.5t133.5 -384.5q0 -75 -10.5 -156.5t-30.5 -164t-49 -161t-65 -147.5q-51 -96 -115 -163.5t-146.5 -109.5t-185.5 -61.5t-233 -19.5h-303zM324 166q93 0 166.5 15.5t131.5 48t102 82.5 t77 120q26 54 48.5 124t39 146t26 152t9.5 142q0 89 -19.5 152t-62.5 102.5t-110.5 58t-164.5 18.5h-114l-226 -1161h97z" />
<glyph unicode="&#x10f;" d="M460 -29q-161 0 -251 104t-90 304q0 66 10 136.5t29.5 139.5t47 134t62.5 120q75 118 176.5 178t221.5 60q100 0 172.5 -42t115.5 -128l115 579h184l-303 -1556h-164l7 141q-66 -85 -148 -127.5t-185 -42.5zM1316 1552h196l-186 -373h-140zM517 127q89 0 156 45.5 t115 132.5q24 43 43.5 95.5t33 108t21 110.5t7.5 105q0 138 -54.5 202.5t-157.5 64.5q-89 0 -153 -45t-110 -129q-24 -44 -43 -96t-32.5 -108t-20.5 -112.5t-7 -108.5q0 -136 49.5 -200.5t152.5 -64.5z" />
<glyph unicode="&#x110;" d="M129 709h-127l29 149h129l123 635h303q277 0 410.5 -125.5t133.5 -384.5q0 -75 -10.5 -156.5t-30.5 -164t-49 -161t-65 -147.5q-51 -96 -115 -163.5t-146.5 -109.5t-185.5 -61.5t-233 -19.5h-303zM324 166q93 0 166.5 15.5t131.5 48t102 82.5t77 120q26 54 48.5 124 t39 146t26 152t9.5 142q0 89 -19.5 152t-62.5 102.5t-110.5 58t-164.5 18.5h-114l-91 -469h267l-29 -149h-266l-107 -543h97z" />
<glyph unicode="&#x111;" d="M462 -29q-85 0 -146.5 27t-105.5 78q-46 53 -68.5 125.5t-22.5 172.5q0 66 10 138t30 145q21 76 49 138.5t60 113.5q39 62 83 105.5t94 72.5t105 44.5t118 15.5q51 0 93 -10.5t79 -32.5q73 -44 114 -127l62 309h-332l25 121h329l31 149h184l-30 -149h192l-22 -121h-193 l-250 -1286h-164l7 141q-64 -83 -147 -127q-82 -43 -184 -43zM518 127q85 0 154 45q35 23 63 55.5t53 77.5q49 87 77 203q14 56 21 112.5t7 106.5q0 132 -53 197q-25 31 -64.5 49t-93.5 18q-42 0 -81 -11.5t-70 -31.5q-32 -21 -61.5 -55t-52.5 -76q-22 -40 -41.5 -93.5 t-33.5 -110.5t-20.5 -115.5t-6.5 -109.5q0 -69 12.5 -117t38.5 -80q51 -64 152 -64z" />
<glyph unicode="&#x112;" d="M549 1800h598l-29 -148h-598zM344 1493h885l-33 -170h-684l-86 -442h653l-32 -170h-654l-104 -541h702l-33 -170h-905z" />
<glyph unicode="&#x113;" d="M504 1486h598l-29 -148h-598zM556 -29q-227 0 -342.5 111t-115.5 325q0 78 15.5 156t44.5 151t71 139t95 120q84 87 183.5 131.5t211.5 44.5q92 0 167 -30t128.5 -84.5t82.5 -132t29 -171.5q0 -36 -5 -86.5t-17 -128.5h-807q-6 -32 -9 -58t-3 -52q0 -133 76 -206t223 -73 q90 0 194 28t219 85l-36 -183q-106 -43 -205.5 -64.5t-199.5 -21.5zM938 659q6 27 8 45t2 35q0 59 -17 106t-48.5 79.5t-76 49.5t-99.5 17q-65 0 -123.5 -23.5t-107 -67t-85.5 -105t-59 -136.5h606z" />
<glyph unicode="&#x116;" d="M751 1627q-16 0 -25.5 11t-6.5 28l27 143q2 11 10 17t19 6h141q16 0 26 -11t7 -28l-28 -143q-2 -11 -10 -17t-19 -6h-141zM344 1493h885l-33 -170h-684l-86 -442h653l-32 -170h-654l-104 -541h702l-33 -170h-905z" />
<glyph unicode="&#x117;" d="M678 1349q-27 0 -27 24q0 6 1 9l29 144q4 27 32 27h145q27 0 27 -24q0 -6 -1 -9l-29 -144q-6 -27 -32 -27h-145zM556 -29q-227 0 -342.5 111t-115.5 325q0 78 15.5 156t44.5 151t71 139t95 120q84 87 183.5 131.5t211.5 44.5q92 0 167 -30t128.5 -84.5t82.5 -132 t29 -171.5q0 -36 -5 -86.5t-17 -128.5h-807q-6 -32 -9 -58t-3 -52q0 -133 76 -206t223 -73q90 0 194 28t219 85l-36 -183q-106 -43 -205.5 -64.5t-199.5 -21.5zM938 659q6 27 8 45t2 35q0 59 -17 106t-48.5 79.5t-76 49.5t-99.5 17q-65 0 -123.5 -23.5t-107 -67t-85.5 -105 t-59 -136.5h606z" />
<glyph unicode="&#x118;" d="M512 1323l-86 -442h653l-32 -170h-654l-104 -541h702l-33 -170h-96q-61 -58 -93 -108t-32 -92q0 -35 24 -53.5t72 -18.5q29 0 62 7.5t65 22.5l-25 -133q-69 -20 -139 -20q-98 0 -151.5 40t-53.5 110q0 56 37 115.5t115 129.5h-690l291 1493h885l-33 -170h-684z" />
<glyph unicode="&#x119;" d="M297 516q-6 -32 -9 -58t-3 -52q0 -133 76 -206t223 -73q90 0 194 28t219 85l-36 -183q-89 -36 -174 -57q-61 -58 -93 -108t-32 -92q0 -35 24 -53.5t72 -18.5q29 0 62 7.5t65 22.5l-25 -133q-69 -20 -139 -20q-98 0 -151.5 40t-53.5 110q0 51 30.5 104.5t94.5 115.5 q-21 -2 -42.5 -3t-42.5 -1q-227 0 -342.5 111t-115.5 325q0 78 15.5 156t44.5 151t71 139t95 120q84 87 183.5 131.5t211.5 44.5q92 0 167 -30t128.5 -84.5t82.5 -132t29 -171.5q0 -36 -5 -86.5t-17 -128.5h-807zM707 991q-65 0 -123.5 -23.5t-107 -67t-85.5 -105 t-59 -136.5h606q6 27 8 45t2 35q0 59 -17 106t-48.5 79.5t-76 49.5t-99.5 17z" />
<glyph unicode="&#x11a;" d="M586 1861h136l139 -178l209 178h151l-264 -266h-213zM344 1493h885l-33 -170h-684l-86 -442h653l-32 -170h-654l-104 -541h702l-33 -170h-905z" />
<glyph unicode="&#x11b;" d="M526 1673h131l119 -243l225 243h156l-320 -376h-147zM556 -29q-227 0 -342.5 111t-115.5 325q0 78 15.5 156t44.5 151t71 139t95 120q84 87 183.5 131.5t211.5 44.5q92 0 167 -30t128.5 -84.5t82.5 -132t29 -171.5q0 -36 -5 -86.5t-17 -128.5h-807q-6 -32 -9 -58t-3 -52 q0 -133 76 -206t223 -73q90 0 194 28t219 85l-36 -183q-106 -43 -205.5 -64.5t-199.5 -21.5zM938 659q6 27 8 45t2 35q0 59 -17 106t-48.5 79.5t-76 49.5t-99.5 17q-65 0 -123.5 -23.5t-107 -67t-85.5 -105t-59 -136.5h606z" />
<glyph unicode="&#x11e;" d="M788 1619q-120 0 -190 61q-33 29 -56 72t-34 109h114q17 -62 56 -88q20 -14 48 -20.5t69 -6.5t76 7t62 21q53 28 80 87h121q-33 -112 -125 -177q-94 -65 -221 -65zM564 -29q-122 0 -211.5 34.5t-150.5 100.5q-63 69 -93.5 165t-30.5 217q0 47 4.5 94.5t12.5 98.5 q8 47 20 102.5t28 109.5q17 59 39 114.5t43 97.5q28 56 55.5 96t47.5 66q49 61 109.5 110t128.5 81q130 62 288 62q46 0 86 -5t80 -16q81 -21 156 -61l-41 -207q-35 34 -70 57t-66 37q-71 31 -153 31q-50 0 -96.5 -10.5t-87.5 -30.5q-42 -20 -82 -52t-72 -71 q-45 -54 -83 -130q-20 -41 -37 -84t-32 -91q-18 -58 -30.5 -112t-20.5 -102q-9 -52 -13.5 -94.5t-4.5 -84.5q0 -174 79 -266q40 -47 95.5 -70t130.5 -23q36 0 65 5t55 14q29 10 50.5 23t40.5 30l76 393h-217l30 166h410l-133 -670q-86 -61 -190 -93q-51 -16 -103.5 -24 t-111.5 -8z" />
<glyph unicode="&#x11f;" d="M748 1297q-132 0 -206 63q-40 35 -56.5 82.5t-16.5 104.5q0 13 0.5 16t0.5 5v5t2 11h120v-17q0 -64 44 -99q43 -34 126 -34t135 37q26 18 47 46.5t35 66.5h119q-15 -68 -45.5 -122.5t-75.5 -91.5q-89 -73 -229 -73zM376 -440q-43 0 -82.5 3.5t-79.5 10.5q-78 13 -155 41 l37 182q40 -23 76 -39.5t76 -27.5q80 -23 158 -23q148 0 231 80q42 40 70.5 105t48.5 161l24 117q-59 -87 -145 -132q-45 -23 -93 -34.5t-99 -11.5q-79 0 -142.5 27t-108.5 80q-46 54 -68 129.5t-22 169.5q0 63 10 132t30 138q39 135 112 243q40 60 83 101.5t95 72.5 q104 62 216 62q99 0 176 -48q35 -23 63.5 -56t46.5 -78l47 151h164l-203 -1044q-53 -272 -186 -392q-134 -120 -380 -120zM513 145q38 0 74 11t71 34q65 44 112 129q26 46 46 100.5t31 101.5q14 55 20.5 111t6.5 101q0 126 -56 192q-28 33 -67 49.5t-87 16.5 q-84 0 -149.5 -46t-112.5 -122q-50 -81 -77.5 -187.5t-27.5 -214.5q0 -83 15.5 -131.5t40.5 -77.5q29 -32 70 -49.5t90 -17.5z" />
<glyph unicode="&#x120;" d="M783 1627q-16 0 -25.5 11t-6.5 28l27 143q2 11 10 17t19 6h141q16 0 26 -11t7 -28l-28 -143q-2 -11 -10 -17t-19 -6h-141zM563 -29q-118 0 -208.5 34t-152 100t-93 162t-31.5 220q0 94 17 198t48 208q35 118 80 208t105 165q206 254 524 254q85 0 162.5 -19.5 t161.5 -62.5l-41 -207q-129 125 -290 125q-97 0 -183 -41.5t-154 -122.5q-49 -59 -86 -136t-66 -169q-17 -56 -30 -111t-21.5 -106.5t-13 -98t-4.5 -84.5q0 -168 79 -260t227 -92q66 0 119.5 18.5t90.5 53.5l76 393h-217l30 166h410l-133 -670q-86 -62 -189 -93.5 t-217 -31.5z" />
<glyph unicode="&#x121;" d="M664 1348q-27 0 -27 24q0 6 1 9l29 144q4 27 32 27h145q27 0 27 -24q0 -6 -1 -9l-29 -144q-6 -27 -32 -27h-145zM378 -440q-86 0 -165 14t-154 41l37 182q73 -45 151 -67.5t162 -22.5q76 0 132.5 20t98 62t69.5 107.5t47 156.5l24 117q-59 -90 -147.5 -134t-189.5 -44 q-79 0 -142 27t-107.5 79t-68 128t-23.5 175q0 65 10.5 133t30 134t47.5 128t64 115q37 55 81.5 99t95 74.5t105.5 46.5t112 16q101 0 176.5 -48.5t109.5 -133.5l47 151h164l-203 -1044q-26 -132 -71 -228.5t-113 -159.5t-162 -93.5t-218 -30.5zM507 145q166 0 263 174 q24 43 43 95t32.5 106.5t21 108t7.5 99.5q0 130 -55 196.5t-152 66.5q-57 0 -107 -23t-91 -63t-73 -94.5t-54 -117t-33.5 -130t-11.5 -134.5q0 -76 14.5 -129.5t41.5 -88t66 -50.5t88 -16z" />
<glyph unicode="&#x122;" d="M563 -29q-118 0 -208.5 34t-152 100t-93 162t-31.5 220q0 94 17 198t48 208q35 118 80 208t105 165q206 254 524 254q85 0 162.5 -19.5t161.5 -62.5l-41 -207q-129 125 -290 125q-97 0 -183 -41.5t-154 -122.5q-49 -59 -86 -136t-66 -169q-17 -56 -30 -111t-21.5 -106.5 t-13 -98t-4.5 -84.5q0 -168 79 -260t227 -92q66 0 119.5 18.5t90.5 53.5l76 393h-217l30 166h410l-133 -670q-86 -62 -189 -93.5t-217 -31.5zM463 -228h239l-254 -345h-146z" />
<glyph unicode="&#x123;" d="M804 1614h146l-161 -345h-239zM378 -440q-86 0 -165 14t-154 41l37 182q73 -45 151 -67.5t162 -22.5q76 0 132.5 20t98 62t69.5 107.5t47 156.5l24 117q-59 -90 -147.5 -134t-189.5 -44q-79 0 -142 27t-107.5 79t-68 128t-23.5 175q0 65 10.5 133t30 134t47.5 128t64 115 q37 55 81.5 99t95 74.5t105.5 46.5t112 16q101 0 176.5 -48.5t109.5 -133.5l47 151h164l-203 -1044q-26 -132 -71 -228.5t-113 -159.5t-162 -93.5t-218 -30.5zM507 145q166 0 263 174q24 43 43 95t32.5 106.5t21 108t7.5 99.5q0 130 -55 196.5t-152 66.5q-57 0 -107 -23 t-91 -63t-73 -94.5t-54 -117t-33.5 -130t-11.5 -134.5q0 -76 14.5 -129.5t41.5 -88t66 -50.5t88 -16z" />
<glyph unicode="&#x126;" d="M207 1105h-134l32 164h134l43 224h202l-43 -224h554l43 224h202l-43 -224h135l-32 -164h-135l-215 -1105h-202l138 711h-554l-138 -711h-202zM919 881l44 224h-554l-44 -224h554z" />
<glyph unicode="&#x127;" d="M291 1270h-125l32 164h125l23 122h184l-23 -122h353l-32 -164h-353l-62 -318q67 97 160.5 146t210.5 49q85 0 137.5 -25t82 -65t39.5 -91.5t10 -103.5q0 -43 -5 -82.5t-14 -85.5l-134 -694h-185l135 695q12 64 12 114q0 33 -6.5 65t-25 57t-52.5 40.5t-89 15.5 q-63 0 -117 -22t-97.5 -66t-75 -110.5t-48.5 -155.5l-123 -633h-184z" />
<glyph unicode="&#x128;" d="M448 1627q35 109 97 164t143 55q34 0 67 -10.5t68 -36.5l35 -26q36 -27 72 -27q42 0 69.5 27t38.5 73h125q-32 -111 -97 -165t-148 -54q-32 0 -60.5 9.5t-61.5 33.5l-34 25l-2 1q-43 32 -80 32q-69 0 -107 -101h-125zM90 170h313l224 1153h-314l33 170h830l-33 -170h-314 l-223 -1153h314l-33 -170h-830z" />
<glyph unicode="&#x129;" d="M817 1270q-34 0 -69 13.5t-76 55.5l-47 49q-36 37 -74 37q-42 0 -64 -40t-30 -113h-125q17 134 72.5 208t150.5 74q40 0 74 -15.5t72 -53.5l47 -47q20 -20 35 -29.5t35 -9.5q81 0 98 155h125q-18 -140 -73.5 -212t-150.5 -72zM749 -4q-174 0 -257 64q-85 64 -85 192 q0 17 1.5 33.5t3.5 36.5t5.5 41.5t8.5 44.5l133 568h-246l29 144h430l-162 -716q-4 -16 -6.5 -34.5t-3.5 -27.5l-3 -25.5t-1 -18.5q0 -75 44 -110q45 -36 136 -36h211l-31 -156h-207z" />
<glyph unicode="&#x12a;" d="M531 1800h598l-29 -148h-598zM90 170h313l224 1153h-314l33 170h830l-33 -170h-314l-223 -1153h314l-33 -170h-830z" />
<glyph unicode="&#x12b;" d="M409 1468h598l-29 -148h-598zM749 -4q-174 0 -257 64q-85 64 -85 192q0 17 1.5 33.5t3.5 36.5t5.5 42t8.5 44l133 568h-246l29 144h430l-162 -716q-4 -16 -6.5 -35t-3.5 -27q-2 -16 -3 -25.5t-1 -19.5q0 -74 44 -109q45 -36 136 -36h211l-31 -156h-207z" />
<glyph unicode="&#x12e;" d="M865 1323l-223 -1153h314l-33 -170h-313q-61 -58 -93 -108t-32 -92q0 -35 24 -53.5t72 -18.5q29 0 62 7.5t65 22.5l-25 -133q-69 -20 -139 -20q-98 0 -151.5 40t-53.5 110q0 56 37 115.5t115 129.5h-398l33 170h313l224 1153h-314l33 170h830l-33 -170h-314z" />
<glyph unicode="&#x12f;" d="M631 1323q-15 0 -22.5 9t-4.5 24l34 173q4 27 32 27h124q15 0 22.5 -9t4.5 -24l-34 -173q-5 -27 -32 -27h-124zM774 -4q-51 -52 -78 -97t-27 -83q0 -35 24 -53.5t72 -18.5q29 0 62 7.5t65 22.5l-25 -133q-69 -20 -139 -20q-98 0 -151.5 40t-53.5 110q0 53 33 109t103 121 q-109 14 -167 59q-85 64 -85 192q0 17 1.5 33.5t3.5 36.5t5.5 41.5t8.5 44.5l133 568h-246l29 144h430l-162 -716q-4 -16 -6.5 -34.5t-3.5 -27.5l-3 -25.5t-1 -18.5q0 -75 44 -110q45 -36 136 -36h211l-31 -156h-182z" />
<glyph unicode="&#x130;" d="M711 1627q-27 0 -27 24q0 6 1 9l29 145q4 27 32 27h142q15 0 22.5 -9t4.5 -24l-28 -145q-5 -27 -32 -27h-144zM90 170h313l224 1153h-314l33 170h830l-33 -170h-314l-223 -1153h314l-33 -170h-830z" />
<glyph unicode="&#x131;" d="M749 -4q-174 0 -257 64q-85 64 -85 192q0 17 1.5 33.5t3.5 36.5t5.5 42t8.5 44l133 568h-246l29 144h430l-162 -716q-4 -16 -6.5 -35t-3.5 -27q-2 -16 -3 -25.5t-1 -19.5q0 -74 44 -109q45 -36 136 -36h211l-31 -156h-207v0z" />
<glyph unicode="&#x136;" d="M283 1493h202l-127 -647l742 647h254l-703 -619l428 -874h-219l-360 741l-193 -168l-112 -573h-203zM439 -199h239l-254 -345h-146z" />
<glyph unicode="&#x137;" d="M393 1556h191l-170 -874l549 438h241l-520 -422l373 -698h-213l-307 582l-168 -133l-88 -449h-191zM477 -199h239l-254 -345h-146z" />
<glyph unicode="&#x139;" d="M839 1860h208l-307 -264h-160zM369 1493h202l-258 -1323h721l-33 -170h-923z" />
<glyph unicode="&#x13a;" d="M889 1901h208l-307 -264h-160zM739 -8q-342 0 -342 253q0 34 5.5 76t13.5 83l211 1008h-316l29 144h500l-240 -1156q-14 -70 -14 -111q0 -69 44.5 -105t135.5 -36h211l-31 -156h-207z" />
<glyph unicode="&#x13b;" d="M369 1493h202l-258 -1323h721l-33 -170h-923zM443 -199h239l-254 -345h-146z" />
<glyph unicode="&#x13c;" d="M739 -8q-342 0 -342 253q0 34 5.5 76t13.5 83l211 1008h-316l29 144h500l-240 -1156q-14 -70 -14 -111q0 -69 44.5 -105t135.5 -36h211l-31 -156h-207zM512 -199h239l-254 -345h-146z" />
<glyph unicode="&#x13d;" d="M369 1493h202l-258 -1323h721l-33 -170h-923zM887 1492h219l-208 -376h-156z" />
<glyph unicode="&#x13e;" d="M739 -8q-342 0 -342 253q0 34 5.5 76t13.5 83l211 1008h-316l29 144h500l-240 -1156q-14 -70 -14 -111q0 -69 44.5 -105t135.5 -36h211l-31 -156h-207zM1017 1556h219l-208 -376h-156z" />
<glyph unicode="&#x141;" d="M195 563l-150 -104l-74 100l260 180l140 752h202l-114 -592l297 209l73 -100l-399 -279l-113 -561h721l-32 -168h-924z" />
<glyph unicode="&#x142;" d="M739 -8q-94 0 -155.5 17t-101.5 47q-85 64 -85 194q0 18 1.5 36.5t3.5 38.5q3 25 6 42t8 37l59 286l-313 -219l-74 99l424 292l115 550h-316l29 144h500l-115 -550l315 217l74 -98l-424 -293l-90 -432q-3 -15 -5.5 -33t-4.5 -31q-2 -15 -3 -25t-1 -20q0 -38 11 -63.5 t34 -43.5q22 -17 54 -26.5t81 -9.5h211l-31 -156h-207v0z" />
<glyph unicode="&#x143;" d="M907 1866h208l-307 -264h-160zM285 1493h256l264 -1229l239 1229h195l-291 -1493h-256l-264 1229l-240 -1229h-194z" />
<glyph unicode="&#x144;" d="M900 1685h219l-395 -376h-156zM303 1120h164l-12 -168q78 100 164.5 147.5t189.5 47.5q66 0 119 -18.5t90.5 -54t57.5 -86t20 -114.5q0 -35 -5.5 -81.5t-15.5 -98.5l-135 -694h-184l135 695q2 5 3 14q15 70 15 112q0 79 -46 122.5t-134 43.5q-63 0 -117.5 -24t-98 -69 t-75 -111t-47.5 -150l-123 -633h-184z" />
<glyph unicode="&#x145;" d="M285 1493h256l264 -1229l239 1229h195l-291 -1493h-256l-264 1229l-240 -1229h-194zM375 -199h239l-254 -345h-146z" />
<glyph unicode="&#x146;" d="M303 1120h164l-12 -168q78 100 164.5 147.5t189.5 47.5q66 0 119 -18.5t90.5 -54t57.5 -86t20 -114.5q0 -35 -5.5 -81.5t-15.5 -98.5l-135 -694h-184l135 695q2 5 3 14q15 70 15 112q0 79 -46 122.5t-134 43.5q-63 0 -117.5 -24t-98 -69t-75 -111t-47.5 -150l-123 -633 h-184zM416 -199h239l-254 -345h-146z" />
<glyph unicode="&#x147;" d="M534 1861h136l139 -178l209 178h151l-264 -266h-213zM285 1493h256l264 -1229l239 1229h195l-291 -1493h-256l-264 1229l-240 -1229h-194z" />
<glyph unicode="&#x148;" d="M519 1673h131l119 -243l225 243h156l-320 -376h-147zM303 1120h164l-12 -168q78 100 164.5 147.5t189.5 47.5q66 0 119 -18.5t90.5 -54t57.5 -86t20 -114.5q0 -35 -5.5 -81.5t-15.5 -98.5l-135 -694h-184l135 695q2 5 3 14q15 70 15 112q0 79 -46 122.5t-134 43.5 q-63 0 -117.5 -24t-98 -69t-75 -111t-47.5 -150l-123 -633h-184z" />
<glyph unicode="&#x14a;" d="M377 -270h167q93 0 148 63.5t83 206.5l197 1009q16 80 16 144q0 106 -46.5 155.5t-141.5 49.5q-140 0 -237 -105.5t-138 -315.5l-183 -937h-202l291 1493h182l-19 -198q76 112 178.5 169.5t229.5 57.5q293 0 293 -322q0 -91 -22 -201l-198 -1019q-19 -98 -56.5 -173.5 t-91.5 -127t-123.5 -78.5t-151.5 -27h-205z" />
<glyph unicode="&#x14b;" d="M379 -270h185q93 0 148.5 62.5t79.5 187.5l139 714q12 64 12 116q0 32 -6 63.5t-24 57t-52 41t-90 15.5q-132 0 -219 -91t-120 -263l-123 -633h-184l218 1120h164l-13 -168q69 97 162 146t209 49q85 0 137.5 -24.5t81.5 -64.5t39.5 -91t10.5 -103q0 -76 -18 -170 l-139 -714q-19 -98 -56.5 -173.5t-91.5 -127t-123.5 -78.5t-151.5 -27h-205z" />
<glyph unicode="&#x14c;" d="M531 1800h598l-29 -148h-598zM480 -29q-398 0 -398 488q0 128 23.5 263t61.5 253q31 97 66 170t71 127q84 125 194 186.5t253 61.5q201 0 300.5 -119.5t99.5 -363.5q0 -60 -6 -125.5t-17.5 -132.5t-27.5 -133.5t-36 -129.5q-30 -94 -65 -168t-72 -129q-85 -128 -196 -188 t-251 -60zM497 135q49 0 90 13.5t75 39t62.5 62t53.5 83.5t47 104t40 119.5t33 128t25 131t15.5 127.5t5.5 117q0 66 -9.5 120.5t-33 93.5t-64 60.5t-103.5 21.5q-49 0 -89.5 -13.5t-74 -38.5t-62 -62t-53.5 -83q-38 -71 -68.5 -162t-53 -189.5t-34.5 -196t-12 -179.5 q0 -69 10 -124.5t34 -93.5t64.5 -58.5t101.5 -20.5z" />
<glyph unicode="&#x14d;" d="M469 1495h598l-29 -148h-598zM514 -29q-196 0 -296.5 109t-100.5 312q0 67 11 136.5t31 137t49.5 130t65.5 115.5q81 118 190.5 177t252.5 59q193 0 295 -106.5t102 -316.5q0 -65 -10 -133.5t-30 -135t-49 -130t-67 -118.5q-80 -116 -189.5 -176t-254.5 -60zM524 127 q67 0 122.5 24.5t99.5 67t76.5 99t54.5 121t32.5 133.5t10.5 135q0 149 -52.5 216.5t-158.5 67.5q-67 0 -122.5 -24.5t-99.5 -67t-76.5 -99t-54.5 -121t-32.5 -133.5t-10.5 -135q0 -149 52.5 -216.5t158.5 -67.5z" />
<glyph unicode="&#x150;" d="M766 1859h186l-280 -264h-154zM1085 1859h186l-280 -264h-154zM480 -29q-398 0 -398 488q0 128 23.5 263t61.5 253q31 97 66 170t71 127q84 125 194 186.5t253 61.5q201 0 300.5 -119.5t99.5 -363.5q0 -60 -6 -125.5t-17.5 -132.5t-27.5 -133.5t-36 -129.5 q-30 -94 -65 -168t-72 -129q-85 -128 -196 -188t-251 -60zM497 135q49 0 90 13.5t75 39t62.5 62t53.5 83.5t47 104t40 119.5t33 128t25 131t15.5 127.5t5.5 117q0 66 -9.5 120.5t-33 93.5t-64 60.5t-103.5 21.5q-49 0 -89.5 -13.5t-74 -38.5t-62 -62t-53.5 -83 q-38 -71 -68.5 -162t-53 -189.5t-34.5 -196t-12 -179.5q0 -69 10 -124.5t34 -93.5t64.5 -58.5t101.5 -20.5z" />
<glyph unicode="&#x151;" d="M688 1673h189l-302 -376h-135zM1028 1673h197l-324 -376h-135zM514 -29q-196 0 -296.5 109t-100.5 312q0 67 11 136.5t31 137t49.5 130t65.5 115.5q81 118 190.5 177t252.5 59q193 0 295 -106.5t102 -316.5q0 -65 -10 -133.5t-30 -135t-49 -130t-67 -118.5 q-80 -116 -189.5 -176t-254.5 -60zM524 127q67 0 122.5 24.5t99.5 67t76.5 99t54.5 121t32.5 133.5t10.5 135q0 149 -52.5 216.5t-158.5 67.5q-67 0 -122.5 -24.5t-99.5 -67t-76.5 -99t-54.5 -121t-32.5 -133.5t-10.5 -135q0 -149 52.5 -216.5t158.5 -67.5z" />
<glyph unicode="&#x152;" d="M467 0q-108 0 -190 25.5t-136 77.5q-56 54 -81 134.5t-25 186.5q0 62 8 144.5t25 173.5t39 175t47 150q45 120 100.5 200.5t124.5 128.5q137 97 379 97h594l-33 -170h-358l-87 -442h328l-33 -170h-327l-107 -541h369l-33 -170h-604zM539 170l225 1153h-62 q-119 0 -201 -54q-47 -30 -77 -70.5t-53 -92.5q-6 -14 -12 -28.5t-11.5 -31t-12 -37.5t-13.5 -48q-14 -52 -26 -103.5t-24 -112.5q-11 -53 -18.5 -98.5t-13.5 -90.5q-5 -42 -8 -77.5t-3 -62.5q0 -60 15.5 -107t47.5 -79q33 -32 80.5 -46t104.5 -14h62z" />
<glyph unicode="&#x153;" d="M288 -29q-140 0 -217 83t-77 238q0 26 2 58t6 64q1 13 3.5 30.5t5.5 37t6.5 39.5t6.5 38q5 28 12 58.5t14.5 59.5t14.5 54.5t12 42.5q12 39 29 82t39 82q28 50 63 88.5t83 67.5q91 53 204 53q84 0 145 -34q62 -34 95 -93q59 64 126 95q69 32 147 32q123 0 193 -76 q35 -38 53 -91t18 -117q0 -26 -2.5 -55.5t-5.5 -53.5q-4 -29 -10.5 -69.5t-14.5 -80.5l-16 -90h-502q-5 -23 -8.5 -40.5t-6.5 -34t-5.5 -33.5t-5.5 -38q-5 -29 -7 -47.5t-2 -35.5q0 -42 12.5 -71t36.5 -51q49 -44 133 -44q70 0 142 29q69 28 125 79l-35 -172 q-34 -23 -64.5 -37.5t-60.5 -24.5q-32 -11 -64.5 -16.5t-71.5 -5.5q-96 0 -164 35t-102 98q-59 -65 -129 -99q-71 -34 -156 -34zM309 123q61 0 110 35q29 20 46 46.5t30 55.5q5 11 9 21t8.5 23t9.5 30.5t12 44.5q13 49 23 93t18 88t15.5 89.5t12.5 85.5q9 67 9 101 q0 36 -9 66t-27 51q-36 42 -104 42q-36 0 -63 -9.5t-48 -24.5q-24 -17 -42 -42t-34 -63q-11 -26 -22 -59t-20 -68q-20 -75 -38 -170q-8 -44 -14.5 -80.5t-12.5 -78.5q-5 -37 -7.5 -64t-2.5 -47q0 -79 37 -122q38 -44 104 -44zM1083 653l15 76q3 16 5.5 33.5t3.5 25.5 q2 14 2.5 27.5t0.5 24.5q0 33 -8 63t-25 50q-18 21 -43.5 29.5t-53.5 8.5q-43 0 -75.5 -17t-57.5 -48q-30 -37 -50 -87t-29 -104l-14 -82h329z" />
<glyph unicode="&#x154;" d="M839 1860h208l-307 -264h-160zM281 1493h416q207 0 320.5 -89t113.5 -264q0 -85 -27 -159.5t-77 -132t-121.5 -95t-159.5 -48.5q35 -6 65.5 -24t50.5 -43q21 -27 45.5 -83t51.5 -147l121 -408h-201l-106 377q-22 78 -45.5 127.5t-53.5 77.5t-69.5 38.5t-94.5 10.5h-192 l-123 -631h-203zM570 797q81 0 147.5 22t113 63.5t72 99.5t25.5 130q0 111 -63 163t-199 52h-213l-102 -530h219z" />
<glyph unicode="&#x155;" d="M1045 1673h219l-395 -376h-156zM434 1120h164l-20 -219q67 121 173 183.5t241 62.5q146 0 227 -72l-35 -186q-45 45 -104.5 66.5t-131.5 21.5q-85 0 -157.5 -30t-128.5 -85.5t-95.5 -134.5t-58.5 -178l-107 -549h-184z" />
<glyph unicode="&#x156;" d="M281 1493h416q207 0 320.5 -89t113.5 -264q0 -85 -27 -159.5t-77 -132t-121.5 -95t-159.5 -48.5q35 -6 65.5 -24t50.5 -43q21 -27 45.5 -83t51.5 -147l121 -408h-201l-106 377q-22 78 -45.5 127.5t-53.5 77.5t-69.5 38.5t-94.5 10.5h-192l-123 -631h-203zM570 797 q81 0 147.5 22t113 63.5t72 99.5t25.5 130q0 111 -63 163t-199 52h-213l-102 -530h219zM440 -199h239l-254 -345h-146z" />
<glyph unicode="&#x157;" d="M434 1120h164l-20 -219q67 121 173 183.5t241 62.5q146 0 227 -72l-35 -186q-45 45 -104.5 66.5t-131.5 21.5q-85 0 -157.5 -30t-128.5 -85.5t-95.5 -134.5t-58.5 -178l-107 -549h-184zM213 -199h239l-254 -345h-146z" />
<glyph unicode="&#x158;" d="M438 1861h136l139 -178l209 178h151l-264 -266h-213zM281 1493h416q207 0 320.5 -89t113.5 -264q0 -85 -27 -159.5t-77 -132t-121.5 -95t-159.5 -48.5q35 -6 65.5 -24t50.5 -43q21 -27 45.5 -83t51.5 -147l121 -408h-201l-106 377q-22 78 -45.5 127.5t-53.5 77.5 t-69.5 38.5t-94.5 10.5h-192l-123 -631h-203zM570 797q81 0 147.5 22t113 63.5t72 99.5t25.5 130q0 111 -63 163t-199 52h-213l-102 -530h219z" />
<glyph unicode="&#x159;" d="M591 1673h131l119 -243l225 243h156l-320 -376h-147zM434 1120h164l-20 -219q67 121 173 183.5t241 62.5q146 0 227 -72l-35 -186q-45 45 -104.5 66.5t-131.5 21.5q-85 0 -157.5 -30t-128.5 -85.5t-95.5 -134.5t-58.5 -178l-107 -549h-184z" />
<glyph unicode="&#x15a;" d="M907 1866h208l-307 -264h-160zM435 -29q-110 0 -210 22.5t-200 67.5l41 209q101 -72 203 -103.5t200 -31.5q88 0 158.5 23.5t119.5 65.5t75 100t26 128q0 40 -10 69.5t-35.5 53t-68 43.5t-107.5 41l-101 33q-93 30 -156.5 62t-102.5 70.5t-55.5 86.5t-16.5 111 q0 109 44 200.5t122.5 157.5t186 103t234.5 37q87 0 175 -19t190 -59l-39 -205q-163 119 -349 119q-83 0 -151 -22t-117.5 -60.5t-76.5 -91.5t-27 -116q0 -38 11 -66t37.5 -50.5t70 -42.5t108.5 -41l121 -39q86 -28 146 -61.5t97.5 -76.5t54 -96.5t16.5 -120.5 q0 -112 -43 -204t-122.5 -158t-193 -102.5t-255.5 -36.5z" />
<glyph unicode="&#x15b;" d="M900 1680h219l-395 -376h-156zM476 -29q-87 0 -174 17.5t-187 52.5l37 190q187 -106 353 -106q67 0 122.5 16t95.5 43.5t62 64t22 76.5q0 114 -196 162l-28 7l-67 18q-128 34 -189 96t-61 170q0 84 34 152t97.5 116.5t154 74.5t202.5 26q177 0 323 -66l-35 -180 q-72 45 -149 68.5t-162 23.5q-66 0 -118.5 -14t-89 -38.5t-55.5 -58t-19 -72.5q0 -29 11.5 -52t37.5 -43t68 -37t104 -33q16 -5 22 -6l72 -18q120 -30 176.5 -93t56.5 -163q0 -84 -37.5 -156t-106 -125t-164.5 -83t-213 -30z" />
<glyph unicode="&#x15e;" d="M490 1274q-48 -38 -75.5 -91t-27.5 -115q0 -39 12 -67.5t37 -50.5t68.5 -42.5t109.5 -41.5l121 -39q85 -27 142 -58t97 -75q38 -42 56.5 -94.5t18.5 -126.5q0 -110 -41 -202.5t-125 -161.5q-63 -52 -142.5 -84t-173.5 -45q15 -28 26 -51t17 -40q9 -24 13 -45.5t4 -41.5 q0 -42 -17.5 -78.5t-52.5 -64.5q-69 -54 -191 -54q-20 0 -43.5 1.5t-46.5 5.5q-45 7 -94 23l25 129q20 -10 41.5 -17.5t35.5 -11.5q34 -9 69 -9q31 0 58 7.5t46 22.5t28 36t9 45q0 17 -4 35.5t-10 34.5q-3 9 -10.5 26.5t-18.5 37.5h-16q-58 0 -108 6t-101 17 q-103 23 -201 67l41 209q97 -68 199 -102q51 -17 103.5 -25t106.5 -8q86 0 152 21.5t118 66.5q103 88 103 221q0 44 -11 75t-33 54q-26 26 -68.5 45.5t-108.5 40.5l-101 33q-81 26 -147 57t-110 75q-37 37 -55.5 84.5t-18.5 116.5q0 101 40.5 192.5t124.5 162.5 q83 70 191 105t232 35q48 0 91 -5t88 -15q48 -11 91.5 -24.5t93.5 -33.5l-39 -205q-82 59 -168 89q-87 30 -181 30q-85 0 -153 -22t-116 -60z" />
<glyph unicode="&#x15f;" d="M525 942q-40 -27 -58 -63t-18 -71q0 -36 17.5 -61t47.5 -43t70 -32t86 -27q15 -5 16 -4.5t6 -1.5l72 -18q51 -13 97 -36t78 -56q29 -31 43.5 -69t14.5 -91q0 -85 -37 -159t-107 -128q-57 -44 -129.5 -70.5t-154.5 -35.5q14 -25 23.5 -46.5t17.5 -40.5q17 -45 17 -87 t-17.5 -78.5t-52.5 -64.5q-69 -54 -191 -54q-20 0 -43.5 1.5t-46.5 5.5q-45 7 -94 23l25 129q20 -10 41.5 -17.5t35.5 -11.5q34 -9 69 -9q31 0 58 7.5t46 22.5t28 36t9 45q0 17 -4 35.5t-10 34.5q-3 9 -11 26.5t-18 37.5q-82 3 -149 17q-45 9 -92 22.5t-95 30.5l37 190 q48 -26 93 -46t90 -33q45 -14 86.5 -20.5t85.5 -6.5q132 0 216 60q42 30 63 67.5t21 76.5q0 26 -10 48.5t-33 42t-60.5 36t-92.5 31.5l-28 7l-67 18q-65 17 -111.5 40.5t-77.5 55.5q-61 64 -61 172q0 79 32.5 147.5t98.5 119.5q62 48 151.5 74t206.5 26q43 0 85 -4t83 -12 t79 -20.5t75 -29.5l-35 -180q-35 23 -74.5 40.5t-74.5 28.5q-77 23 -162 23q-62 0 -115 -12.5t-91 -38.5z" />
<glyph unicode="&#x160;" d="M489 1861h136l139 -178l209 178h151l-264 -266h-213zM435 -29q-58 0 -108 6t-101 17q-103 23 -201 67l41 209q97 -68 199 -102q51 -17 103.5 -25t106.5 -8q86 0 152 21.5t118 66.5q103 88 103 221q0 44 -11 75t-33 54q-26 26 -68.5 45.5t-108.5 40.5l-101 33 q-81 26 -147 57t-110 75q-37 37 -55.5 84.5t-18.5 116.5q0 101 40.5 192.5t124.5 162.5q83 70 191 105t232 35q48 0 91 -5t88 -15q48 -11 91.5 -24.5t93.5 -33.5l-39 -205q-82 59 -168 89q-87 30 -181 30q-85 0 -153 -22t-116 -60t-75.5 -91t-27.5 -115q0 -39 12 -67.5 t37 -50.5t68.5 -42.5t109.5 -41.5l121 -39q85 -27 142 -58t97 -75q38 -42 56.5 -94.5t18.5 -126.5q0 -110 -41 -202.5t-125 -161.5t-197 -103.5t-251 -34.5z" />
<glyph unicode="&#x161;" d="M471 1673h131l119 -243l225 243h156l-320 -376h-147zM477 -29q-48 0 -92.5 4.5t-82.5 12.5q-45 9 -92 22.5t-95 30.5l37 190q48 -26 93 -46t90 -33q45 -14 86.5 -20.5t85.5 -6.5q132 0 216 60q42 30 63 67.5t21 76.5q0 26 -10 48.5t-33 42t-60.5 36t-92.5 31.5l-28 7 l-67 18q-65 17 -111.5 40.5t-77.5 55.5q-61 64 -61 172q0 79 32.5 147.5t98.5 119.5q62 48 151.5 74t206.5 26q43 0 85 -4t83 -12t79 -20.5t75 -29.5l-35 -180q-35 23 -74.5 40.5t-74.5 28.5q-77 23 -162 23q-62 0 -115 -12.5t-91 -38.5q-40 -27 -58 -63t-18 -71 q0 -36 17.5 -61t47.5 -43t70 -32t86 -27q15 -5 16 -4.5t6 -1.5l72 -18q51 -13 97 -36t78 -56q29 -31 43.5 -69t14.5 -91q0 -85 -37 -159t-107 -128q-72 -56 -169 -83.5t-207 -27.5z" />
<glyph unicode="&#x164;" d="M508 1861h136l139 -178l209 178h151l-264 -266h-213zM629 1323h-469l33 170h1140l-33 -170h-469l-256 -1323h-204z" />
<glyph unicode="&#x165;" d="M1063 1680h219l-208 -376h-156zM682 -4q-89 0 -148 15t-97 41q-40 28 -59.5 69t-19.5 101q0 12 1 28.5t3 33.5q2 13 5 34t8 47l119 612h-299l28 143h299l62 318h184l-61 -318h417l-28 -143h-418l-119 -612q-3 -17 -4.5 -26t-2.5 -14t-1 -7.5t-1 -7.5q-3 -26 -3 -47 q0 -67 39 -93q39 -27 141 -27h207l-29 -147h-223z" />
<glyph unicode="&#x166;" d="M483 577h-265l33 170h265l112 576h-469l33 170h1139l-33 -170h-467l-112 -576h265l-33 -170h-265l-112 -577h-203z" />
<glyph unicode="&#x167;" d="M667 -4q-103 0 -171 20t-104 63q-24 29 -34 67t-10 86q0 32 3.5 64t10.5 69l45 237h-229l28 142h229l45 233h-299l28 143h299l62 318h184l-62 -318h418l-28 -143h-418l-45 -233h229l-28 -142h-229l-45 -237q-9 -50 -9 -86q0 -58 22 -87q37 -49 155 -49h207l-29 -147h-225 v0z" />
<glyph unicode="&#x168;" d="M446 1627q35 109 97 164t143 55q34 0 67 -10.5t68 -36.5l35 -26q36 -27 72 -27q42 0 69.5 27t38.5 73h125q-32 -111 -97 -165t-148 -54q-32 0 -60.5 9.5t-61.5 33.5l-34 25l-2 1q-43 32 -80 32q-69 0 -107 -101h-125zM478 -29q-96 0 -170 23.5t-124.5 67.5t-77 107 t-26.5 142q0 44 8.5 106t26.5 156l178 920h203l-179 -920q-1 -6 -1.5 -8t-1 -5t-1.5 -8.5t-4 -19.5q-15 -74 -22.5 -131t-7.5 -89q0 -85 54.5 -131t162.5 -46q37 0 74.5 6t72 20t63.5 36.5t50 55.5q11 18 22 42.5t23 65.5q11 38 23.5 92t25.5 120l178 920h203l-178 -920 q-21 -107 -42 -184t-46 -134t-56 -97t-71 -72q-73 -58 -164.5 -86.5t-195.5 -28.5z" />
<glyph unicode="&#x169;" d="M882 1270q-34 0 -69 13.5t-76 55.5l-47 49q-36 37 -74 37q-42 0 -64 -40t-30 -113h-125q17 134 72.5 208t150.5 74q40 0 74 -15.5t72 -53.5l47 -47q20 -20 35 -29.5t35 -9.5q81 0 98 155h125q-18 -140 -73.5 -212t-150.5 -72zM409 -27q-66 0 -118.5 18.5t-89.5 54.5 t-56.5 88t-19.5 119q0 32 4.5 78.5t13.5 94.5l133 694h185l-135 -694q-6 -32 -10.5 -68t-4.5 -62q0 -78 46.5 -120.5t131.5 -42.5q124 0 213 90.5t123 263.5l123 633h185l-218 -1120h-164l13 168q-144 -195 -355 -195z" />
<glyph unicode="&#x16a;" d="M531 1800h598l-29 -148h-598zM478 -29q-96 0 -170 23.5t-124.5 67.5t-77 107t-26.5 142q0 44 8.5 106t26.5 156l178 920h203l-179 -920q-1 -6 -1.5 -8t-1 -5t-1.5 -8.5t-4 -19.5q-15 -74 -22.5 -131t-7.5 -89q0 -85 54.5 -131t162.5 -46q37 0 74.5 6t72 20t63.5 36.5 t50 55.5q11 18 22 42.5t23 65.5q11 38 23.5 92t25.5 120l178 920h203l-178 -920q-21 -107 -42 -184t-46 -134t-56 -97t-71 -72q-73 -58 -164.5 -86.5t-195.5 -28.5z" />
<glyph unicode="&#x16b;" d="M469 1469h598l-29 -148h-598zM409 -27q-66 0 -118.5 18.5t-89.5 54.5t-56.5 88t-19.5 119q0 32 4.5 78.5t13.5 94.5l133 694h185l-135 -694q-6 -32 -10.5 -68t-4.5 -62q0 -78 46.5 -120.5t131.5 -42.5q124 0 213 90.5t123 263.5l123 633h185l-218 -1120h-164l13 168 q-144 -195 -355 -195z" />
<glyph unicode="&#x16e;" d="M760 1352q-57 0 -107 21.5t-87 58.5t-58.5 87t-21.5 108t21.5 108t58.5 87t87 58t107 21t107.5 -21t87.5 -58t58.5 -87t21.5 -108t-21.5 -108t-58.5 -87t-87.5 -58.5t-107.5 -21.5zM760 1475q32 0 59.5 12t48 32t32.5 47.5t12 59.5t-12 59.5t-32.5 48t-48 32.5t-59.5 12 t-59.5 -11.5t-48 -32t-32 -48t-11.5 -59.5t11.5 -60t32 -48.5t48 -32t59.5 -11.5zM478 -29q-96 0 -170 23.5t-124.5 67.5t-77 107t-26.5 142q0 44 8.5 106t26.5 156l178 920h203l-179 -920q-1 -6 -1.5 -8t-1 -5t-1.5 -8.5t-4 -19.5q-15 -74 -22.5 -131t-7.5 -89 q0 -85 54.5 -131t162.5 -46q37 0 74.5 6t72 20t63.5 36.5t50 55.5q11 18 22 42.5t23 65.5q11 38 23.5 92t25.5 120l178 920h203l-178 -920q-21 -107 -42 -184t-46 -134t-56 -97t-71 -72q-73 -58 -164.5 -86.5t-195.5 -28.5z" />
<glyph unicode="&#x16f;" d="M738 1186q-57 0 -107 21.5t-87 58.5t-58.5 87t-21.5 108t21.5 108t58.5 87t87 58t107 21t107.5 -21t87.5 -58t58.5 -87t21.5 -108t-21.5 -108t-58.5 -87t-87.5 -58.5t-107.5 -21.5zM738 1309q32 0 59.5 12t48 32t32.5 47.5t12 59.5t-12 59.5t-32.5 48t-48 32.5t-59.5 12 t-59.5 -11.5t-48 -32t-32 -48t-11.5 -59.5t11.5 -60t32 -48.5t48 -32t59.5 -11.5zM409 -27q-66 0 -118.5 18.5t-89.5 54.5t-56.5 88t-19.5 119q0 32 4.5 78.5t13.5 94.5l133 694h185l-135 -694q-6 -32 -10.5 -68t-4.5 -62q0 -78 46.5 -120.5t131.5 -42.5q124 0 213 90.5 t123 263.5l123 633h185l-218 -1120h-164l13 168q-144 -195 -355 -195z" />
<glyph unicode="&#x170;" d="M766 1859h186l-280 -264h-154zM1085 1859h186l-280 -264h-154zM478 -29q-96 0 -170 23.5t-124.5 67.5t-77 107t-26.5 142q0 44 8.5 106t26.5 156l178 920h203l-179 -920q-1 -6 -1.5 -8t-1 -5t-1.5 -8.5t-4 -19.5q-15 -74 -22.5 -131t-7.5 -89q0 -85 54.5 -131t162.5 -46 q37 0 74.5 6t72 20t63.5 36.5t50 55.5q11 18 22 42.5t23 65.5q11 38 23.5 92t25.5 120l178 920h203l-178 -920q-21 -107 -42 -184t-46 -134t-56 -97t-71 -72q-73 -58 -164.5 -86.5t-195.5 -28.5z" />
<glyph unicode="&#x171;" d="M688 1648h189l-302 -376h-135zM1028 1648h197l-324 -376h-135zM409 -27q-66 0 -118.5 18.5t-89.5 54.5t-56.5 88t-19.5 119q0 32 4.5 78.5t13.5 94.5l133 694h185l-135 -694q-6 -32 -10.5 -68t-4.5 -62q0 -78 46.5 -120.5t131.5 -42.5q124 0 213 90.5t123 263.5l123 633 h185l-218 -1120h-164l13 168q-144 -195 -355 -195z" />
<glyph unicode="&#x172;" d="M1231 1493l-178 -920q-21 -107 -42 -184t-46 -134t-56 -97t-71 -72q-73 -58 -164.5 -86.5t-195.5 -28.5h-23q-55 -54 -83.5 -101t-28.5 -86q0 -35 24 -53.5t72 -18.5q29 0 62 7.5t65 22.5l-25 -133q-69 -20 -139 -20q-98 0 -151.5 40t-53.5 110q0 56 37 115.5t115 129.5 q-131 28 -200 112.5t-69 214.5q0 44 8.5 106t26.5 156l178 920h203l-179 -920q-1 -6 -1.5 -8t-1 -5t-1.5 -8.5t-4 -19.5q-15 -74 -22.5 -131t-7.5 -89q0 -85 54.5 -131t162.5 -46q37 0 74.5 6t72 20t63.5 36.5t50 55.5q11 18 22 42.5t23 65.5q11 38 23.5 92t25.5 120 l178 920h203z" />
<glyph unicode="&#x173;" d="M409 -27q-66 0 -118.5 18.5t-89.5 54.5t-56.5 88t-19.5 119q0 32 4.5 78.5t13.5 94.5l133 694h185l-135 -694q-6 -32 -10.5 -68t-4.5 -62q0 -78 46.5 -120.5t131.5 -42.5q124 0 213 90.5t123 263.5l123 633h185l-218 -1120h-164l13 168q-144 -195 -355 -195zM850 -397 q-98 0 -151.5 40t-53.5 110q0 56 37 115.5t115 129.5h119q-61 -58 -93 -108t-32 -92q0 -35 24 -53.5t72 -18.5q29 0 62 7.5t65 22.5l-25 -133q-69 -20 -139 -20z" />
<glyph unicode="&#x174;" d="M737 1868h213l158 -266h-133l-139 178l-209 -178h-152zM145 1493h191l-90 -1210l329 800h211l15 -802l377 1212h198l-510 -1493h-194l-31 870l-371 -870h-188z" />
<glyph unicode="&#x175;" d="M737 1646h147l164 -376h-133l-117 241l-225 -241h-156zM92 1120h176l15 -905l268 578h162l49 -578l362 905h191l-486 -1120h-165l-60 623l-297 -623h-166z" />
<glyph unicode="&#x176;" d="M735 1868h213l158 -266h-133l-139 178l-209 -178h-152zM508 670l-313 823h202l236 -651l497 651h218l-635 -823l-129 -670h-207z" />
<glyph unicode="&#x177;" d="M777 1646h147l164 -376h-133l-117 241l-225 -241h-156zM20 -272h108q42 0 77 12t66 37.5t59.5 64.5t55.5 92l43 84l-217 1102h183l172 -862l483 862h205l-439 -760q-25 -43 -49.5 -86t-46.5 -81.5l-40 -70t-29 -50.5q-79 -138 -128.5 -222t-80.5 -126 q-60 -79 -136 -114.5t-167 -35.5h-148z" />
<glyph unicode="&#x178;" d="M506 1627q-15 0 -22.5 9t-4.5 24l28 143q4 27 32 27h144q27 0 27 -24q0 -6 -1 -9l-29 -143q-6 -27 -32 -27h-142zM897 1627q-15 0 -22.5 9t-4.5 24l28 143q4 27 32 27h143q15 0 22.5 -9t4.5 -24l-28 -143q-5 -27 -32 -27h-143zM508 670l-313 823h202l236 -651l497 651 h218l-635 -823l-129 -670h-207z" />
<glyph unicode="&#x179;" d="M907 1866h208l-307 -264h-160zM23 154l976 1169h-727l33 170h969l-29 -154l-979 -1169h774l-34 -170h-1012z" />
<glyph unicode="&#x17a;" d="M940 1646h219l-395 -376h-156zM111 168l784 805h-604l28 147h814l-33 -168l-785 -805h629l-29 -147h-837z" />
<glyph unicode="&#x17b;" d="M783 1627q-16 0 -25.5 11t-6.5 28l27 143q2 11 10 17t19 6h141q16 0 26 -11t7 -28l-28 -143q-2 -11 -10 -17t-19 -6h-141zM23 154l976 1169h-727l33 170h969l-29 -154l-979 -1169h774l-34 -170h-1012z" />
<glyph unicode="&#x17c;" d="M694 1320q-27 0 -27 24q0 6 1 9l29 144q4 27 32 27h145q27 0 27 -24q0 -6 -1 -9l-29 -144q-6 -27 -32 -27h-145zM111 168l784 805h-604l28 147h814l-33 -168l-785 -805h629l-29 -147h-837z" />
<glyph unicode="&#x17d;" d="M539 1861h136l139 -178l209 178h151l-264 -266h-213zM23 154l976 1169h-727l33 170h969l-29 -154l-979 -1169h774l-34 -170h-1012z" />
<glyph unicode="&#x17e;" d="M501 1646h131l119 -243l225 243h156l-320 -376h-147zM111 168l784 805h-604l28 147h814l-33 -168l-785 -805h629l-29 -147h-837z" />
<glyph unicode="&#x192;" d="M203 -426q-26 0 -53 2.5t-53 7.5q-50 10 -97 33v164q27 -17 51 -28.5t48 -19.5q25 -8 49.5 -12t46.5 -4q53 0 91.5 20t67.5 55t50.5 90.5t35.5 135.5l117 687h-252v143h275l49 330q14 92 45 160t80 118q99 100 248 100q48 0 98 -9q48 -9 100 -27v-164q-15 12 -36 24 t-41 19q-17 6 -39.5 10t-48.5 4q-51 0 -89.5 -16.5t-66.5 -45.5q-30 -32 -48 -78t-28 -114l-45 -311h303v-143h-328l-100 -635q-20 -125 -55.5 -223t-86.5 -158q-98 -115 -288 -115z" />
<glyph unicode="&#x1a0;" d="M1367 1557q1 -14 1.5 -26t0.5 -23q0 -27 -2.5 -48t-5.5 -39q-21 -114 -74.5 -175.5t-144.5 -61.5q-31 0 -56 7q12 -69 12 -154q0 -60 -6 -125.5t-17.5 -132.5t-27.5 -133.5t-36 -129.5q-30 -94 -65 -168t-72 -129q-85 -128 -196 -188t-251 -60q-398 0 -398 488 q0 128 23.5 263t61.5 253q31 97 66 170t71 127q84 125 194 186.5t253 61.5q227 0 326 -156q32 -22 57.5 -31.5t49.5 -9.5q42 0 70 27.5t39 81.5q5 28 5 51q0 35 -11 74h133zM725 333q25 47 47 104t40 119.5t33 128t25 131t15.5 127.5t5.5 117q0 66 -9.5 120.5t-33 93.5 t-64 60.5t-103.5 21.5q-49 0 -89.5 -13.5t-74 -38.5t-62 -62t-53.5 -83q-38 -71 -68.5 -162t-53 -189.5t-34.5 -196t-12 -179.5q0 -69 10 -124.5t34 -93.5t64.5 -58.5t101.5 -20.5q49 0 90 13.5t75 39t62.5 62t53.5 83.5z" />
<glyph unicode="&#x1a1;" d="M1218 1137q1 -14 1.5 -26t0.5 -23q0 -27 -2.5 -48t-5.5 -39q-20 -109 -70 -170.5t-135 -66.5q1 -10 1 -19.5v-20.5q0 -65 -10 -133.5t-30 -135t-49 -130t-67 -118.5q-80 -116 -189.5 -176t-254.5 -60q-196 0 -296.5 109t-100.5 312q0 67 11 136.5t31 137t49.5 130 t65.5 115.5q81 118 190.5 177t252.5 59q146 0 240 -61.5t132 -182.5q42 1 69.5 28.5t38.5 80.5q5 28 5 51q0 35 -11 74h133zM418 127q67 0 122.5 24.5t99.5 67t76.5 99t54.5 121t32.5 133.5t10.5 135q0 149 -52.5 216.5t-158.5 67.5q-67 0 -122.5 -24.5t-99.5 -67t-76.5 -99 t-54.5 -121t-32.5 -133.5t-10.5 -135q0 -149 52.5 -216.5t158.5 -67.5z" />
<glyph unicode="&#x1af;" d="M1385 1557q1 -14 1.5 -26t0.5 -23q0 -27 -2.5 -48t-5.5 -39q-21 -114 -74.5 -175.5t-144.5 -61.5q-40 0 -73 13l-121 -624q-21 -107 -42 -184t-46 -134t-56 -97t-71 -72q-73 -58 -164.5 -86.5t-195.5 -28.5q-96 0 -170 23.5t-124.5 67.5t-77 107t-26.5 142q0 44 8.5 106 t26.5 156l178 920h203l-179 -920q-1 -6 -1.5 -8t-1 -5t-1.5 -8.5t-4 -19.5q-15 -74 -22.5 -131t-7.5 -89q0 -85 54.5 -131t162.5 -46q37 0 74.5 6t72 20t63.5 36.5t50 55.5q11 18 22 42.5t23 65.5q11 38 23.5 92t25.5 120l178 920h203l-32 -165q10 -2 19 -3.5t18 -1.5 q42 0 70 27.5t39 81.5q5 28 5 51q0 35 -11 74h133v0z" />
<glyph unicode="&#x1b0;" d="M1260 1137q1 -14 1.5 -26t0.5 -23q0 -27 -2.5 -48t-5.5 -39q-21 -114 -74.5 -175.5t-144.5 -61.5q-40 0 -75 13l-151 -777h-164l13 168q-144 -195 -355 -195q-66 0 -118.5 18.5t-89.5 54.5t-56.5 88t-19.5 119q0 32 4.5 78.5t13.5 94.5l133 694h185l-135 -694 q-6 -32 -10.5 -68t-4.5 -62q0 -78 46.5 -120.5t131.5 -42.5q124 0 213 90.5t123 263.5l123 633h185l-41 -211q19 -6 38 -6q42 0 70 27.5t39 81.5q5 28 5 51q0 35 -11 74h133v0z" />
<glyph unicode="&#x1e6;" d="M529 1861h136l139 -178l209 178h151l-264 -266h-213zM563 -29q-118 0 -208.5 34t-152 100t-93 162t-31.5 220q0 94 17 198t48 208q35 118 80 208t105 165q206 254 524 254q85 0 162.5 -19.5t161.5 -62.5l-41 -207q-129 125 -290 125q-97 0 -183 -41.5t-154 -122.5 q-49 -59 -86 -136t-66 -169q-17 -56 -30 -111t-21.5 -106.5t-13 -98t-4.5 -84.5q0 -168 79 -260t227 -92q66 0 119.5 18.5t90.5 53.5l76 393h-217l30 166h410l-133 -670q-86 -62 -189 -93.5t-217 -31.5z" />
<glyph unicode="&#x1e7;" d="M471 1673h131l119 -243l225 243h156l-320 -376h-147zM378 -440q-86 0 -165 14t-154 41l37 182q73 -45 151 -67.5t162 -22.5q76 0 132.5 20t98 62t69.5 107.5t47 156.5l24 117q-59 -90 -147.5 -134t-189.5 -44q-79 0 -142 27t-107.5 79t-68 128t-23.5 175q0 65 10.5 133 t30 134t47.5 128t64 115q37 55 81.5 99t95 74.5t105.5 46.5t112 16q101 0 176.5 -48.5t109.5 -133.5l47 151h164l-203 -1044q-26 -132 -71 -228.5t-113 -159.5t-162 -93.5t-218 -30.5zM507 145q166 0 263 174q24 43 43 95t32.5 106.5t21 108t7.5 99.5q0 130 -55 196.5 t-152 66.5q-57 0 -107 -23t-91 -63t-73 -94.5t-54 -117t-33.5 -130t-11.5 -134.5q0 -76 14.5 -129.5t41.5 -88t66 -50.5t88 -16z" />
<glyph unicode="&#x1fe;" d="M887 1859h208l-307 -264h-160zM14 -6l119 170q-27 58 -40 128t-13 161q0 95 13.5 198t38 203.5t59 193.5t77.5 169q87 153 207 228t274 75q83 0 148 -21.5t119 -64.5l84 125l100 -64l-106 -158q29 -60 43 -131.5t14 -165.5q0 -97 -14 -200.5t-38.5 -204t-59 -193 t-76.5 -166.5q-90 -159 -212 -232t-271 -73q-81 0 -148.5 22t-124.5 70l-94 -133zM905 1274q-29 39 -74 60.5t-105 21.5q-114 0 -193 -84.5t-138 -253.5q-24 -69 -44 -145.5t-34 -150t-22 -139.5t-8 -114q0 -26 1.5 -45.5t2.5 -34.5zM502 135q57 0 105 20.5t88.5 62.5 t75 105.5t65.5 149.5q24 68 43.5 141.5t33 147.5t20.5 145.5t7 135.5q0 20 -0.5 38t-1.5 35l-616 -887q20 -45 67 -69.5t113 -24.5z" />
<glyph unicode="&#x1ff;" d="M907 1673h219l-395 -376h-156zM47 -20l129 153q-57 94 -57 256q0 140 39.5 275.5t115.5 246.5q80 116 188.5 176t259.5 60q81 0 141 -18t106 -54l112 137l93 -77l-123 -146q32 -51 47.5 -114.5t15.5 -145.5q0 -71 -11 -142t-31 -138t-49 -128.5t-65 -113.5 q-78 -113 -187.5 -174.5t-259.5 -61.5q-81 0 -141 18.5t-112 55.5l-119 -141zM852 938q-30 28 -68 40.5t-81 12.5q-86 0 -157.5 -45.5t-123 -125.5t-80.5 -191t-29 -241q0 -29 1.5 -48.5t4.5 -37.5zM533 127q84 0 154.5 45.5t122.5 126t81 191t29 241.5q0 29 -2 51.5 t-7 42.5l-534 -639q29 -29 68.5 -44t87.5 -15z" />
<glyph unicode="&#x218;" d="M435 -29q-110 0 -210 22.5t-200 67.5l41 209q101 -72 203 -103.5t200 -31.5q88 0 158.5 23.5t119.5 65.5t75 100t26 128q0 40 -10 69.5t-35.5 53t-68 43.5t-107.5 41l-101 33q-93 30 -156.5 62t-102.5 70.5t-55.5 86.5t-16.5 111q0 109 44 200.5t122.5 157.5t186 103 t234.5 37q87 0 175 -19t190 -59l-39 -205q-163 119 -349 119q-83 0 -151 -22t-117.5 -60.5t-76.5 -91.5t-27 -116q0 -38 11 -66t37.5 -50.5t70 -42.5t108.5 -41l121 -39q86 -28 146 -61.5t97.5 -76.5t54 -96.5t16.5 -120.5q0 -112 -43 -204t-122.5 -158t-193 -102.5 t-255.5 -36.5zM335 -197h239l-254 -345h-146z" />
<glyph unicode="&#x219;" d="M476 -29q-87 0 -174 17.5t-187 52.5l37 190q187 -106 353 -106q67 0 122.5 16t95.5 43.5t62 64t22 76.5q0 114 -196 162l-28 7l-67 18q-128 34 -189 96t-61 170q0 84 34 152t97.5 116.5t154 74.5t202.5 26q177 0 323 -66l-35 -180q-72 45 -149 68.5t-162 23.5 q-66 0 -118.5 -14t-89 -38.5t-55.5 -58t-19 -72.5q0 -29 11.5 -52t37.5 -43t68 -37t104 -33q16 -5 22 -6l72 -18q120 -30 176.5 -93t56.5 -163q0 -84 -37.5 -156t-106 -125t-164.5 -83t-213 -30zM389 -197h239l-254 -345h-146z" />
<glyph unicode="&#x21a;" d="M1333 1493l-33 -170h-469l-256 -1323h-20q38 -67 55 -112t17 -86q0 -44 -18.5 -80t-52 -62t-82 -40.5t-108.5 -14.5q-43 0 -89.5 7.5t-94.5 22.5l25 129q40 -19 76.5 -28.5t71.5 -9.5q65 0 102 30.5t37 81.5q0 30 -14.5 69t-43.5 93h-65l258 1323h-469l33 170h1140z" />
<glyph unicode="&#x21b;" d="M559 365q-3 -17 -4.5 -26t-2.5 -14t-1 -7.5t-1 -7.5q-3 -26 -3 -47q0 -67 39 -93q39 -27 141 -27h207l-29 -147h-203q34 -60 50 -103.5t16 -78.5q0 -47 -18.5 -84t-52 -63.5t-81.5 -40.5t-108 -14q-91 0 -185 30l25 129q81 -38 145 -38q67 0 104.5 30t37.5 84 q0 53 -56 155q-47 7 -81.5 19.5t-60.5 30.5q-40 28 -59.5 69t-19.5 101q0 12 1 28.5t3 33.5q2 13 5 34t8 47l119 612h-299l28 143h299l62 318h184l-61 -318h417l-28 -143h-418l-119 -612v0z" />
<glyph unicode="&#x2b9;" d="M605 1638h190l-206 -498h-145z" />
<glyph unicode="&#x2bb;" d="M504 1174l270 382h154l-172 -382l-41 -207h-252z" />
<glyph unicode="&#x2bc;" d="M578 1349l40 207h252l-40 -207l-270 -382h-154z" />
<glyph unicode="&#x2bd;" d="M688 1218q-200 0 -200 177q0 18 1.5 38t6.5 42l49 254h241l-49 -254h-111q-3 -13 -4 -24.5t-1 -22.5q0 -87 90 -87l-23 -123v0z" />
<glyph unicode="&#x2be;" d="M615 1007q5 31 11 61.5t12 61.5q36 0 69 14.5t59 39t41.5 57.5t15.5 70q0 53 -34.5 87.5t-91.5 34.5l24 123q51 0 92.5 -16.5t71 -46t46 -70t16.5 -88.5q0 -13 -1.5 -26t-3.5 -27q-11 -57 -42 -107.5t-75 -87.5t-98.5 -58.5t-111.5 -21.5z" />
<glyph unicode="&#x2bf;" d="M819 1007q-51 0 -92.5 17t-71 46.5t-46 70t-16.5 88.5q0 13 1.5 26t3.5 27q11 57 42 107t75 87t98.5 58.5t111.5 21.5l-24 -123q-36 0 -69 -14.5t-58.5 -39.5t-41 -58t-15.5 -69q0 -53 34 -87.5t91 -34.5q-6 -31 -12 -61.5t-11 -61.5z" />
<glyph unicode="&#x2c0;" d="M511 1341h40q66 0 112 17.5t76 46.5q28 27 44 64t16 74q0 41 -20 70t-61.5 46.5t-103.5 17.5q-48 0 -99.5 -12t-105.5 -36l18 96q52 20 104.5 29.5t106.5 9.5q75 0 129 -16.5t88.5 -44.5t50.5 -66t16 -80q0 -28 -6 -55q-11 -52 -38.5 -93.5t-66.5 -71.5t-87 -49.5 t-101 -28.5l-71 -365h-127z" />
<glyph unicode="&#x2c1;" d="M582 1259q-46 8 -83 25t-63.5 42.5t-41 59t-14.5 74.5q0 22 4 42q9 51 37 98.5t75.5 83.5t114 58t153.5 22q54 0 102.5 -9.5t93.5 -29.5l-19 -96q-90 48 -189 48q-56 0 -98.5 -13.5t-73.5 -37t-49.5 -55.5t-24.5 -69q-3 -15 -3 -30q0 -36 21 -67q44 -64 163 -64h39 l-87 -447h-128z" />
<glyph unicode="&#x2c6;" d="M717 1638h147l164 -376h-133l-117 241l-225 -241h-156z" />
<glyph unicode="&#x2c7;" d="M471 1638h131l119 -243l225 243h156l-320 -376h-147z" />
<glyph unicode="&#x2c8;" d="M602 1554h136l-107 -555h-136z" />
<glyph unicode="&#x2c9;" d="M469 1526h598l-29 -148h-598z" />
<glyph unicode="&#x2cc;" d="M602 252h136l-107 -555h-136z" />
<glyph unicode="&#x2cd;" d="M133 -209h598l-29 -148h-598z" />
<glyph unicode="&#x2ce;" d="M551 -208h198l197 -376h-143z" />
<glyph unicode="&#x2cf;" d="M809 -208h219l-395 -376h-156z" />
<glyph unicode="&#x2d0;" d="M541 1059h357l-243 -330zM578 330l114 -330h-357z" />
<glyph unicode="&#x2d1;" d="M470 1059h357l-243 -330z" />
<glyph unicode="&#x2d8;" d="M748 1321q-135 0 -206 64q-73 64 -73 182v14.5t1 10.5q0 6 2 16h120v-17q0 -64 44 -99q43 -34 128 -34q81 0 133 37q54 39 82 113h119q-31 -139 -121 -214q-89 -73 -229 -73z" />
<glyph unicode="&#x2d9;" d="M664 1348q-27 0 -27 24q0 6 1 9l29 144q4 27 32 27h145q27 0 27 -24q0 -6 -1 -9l-29 -144q-5 -27 -32 -27h-145v0z" />
<glyph unicode="&#x2da;" d="M778 1321q-114 0 -194 80t-80 194q0 116 80 196q79 79 194 79q116 0 195 -79q80 -80 80 -196q0 -114 -80 -194t-195 -80zM778 1444q64 0 108 44t44 107q0 64 -44 108t-108 44t-107 -43q-44 -44 -44 -109q0 -63 44 -107t107 -44z" />
<glyph unicode="&#x2db;" d="M438 -395q-48 0 -87 10t-66 30q-29 22 -41.5 50.5t-12.5 59.5q0 29 9.5 57.5t28.5 58.5q37 60 114 129h119q-62 -59 -93 -109q-32 -51 -32 -89q0 -36 24 -55q22 -19 70 -19q14 0 30.5 1.5t33.5 5.5q32 7 65 23l-25 -133q-20 -6 -36 -9.5t-33 -5.5q-18 -2 -33.5 -3.5 t-34.5 -1.5z" />
<glyph unicode="&#x2dc;" d="M890 1307q-43 0 -76 15q-15 7 -33.5 19.5t-39.5 34.5l-47 49q-5 5 -15.5 14t-20.5 14q-17 9 -37 9q-15 0 -32 -7t-31 -30q-25 -38 -32 -116h-125q16 135 74 209q57 73 147 73q43 0 76 -15q17 -8 35.5 -22t36.5 -32l47 -47q14 -14 20 -19t17 -11q16 -9 34 -9q20 0 37 10.5 t28 28.5t19.5 47.5t12.5 68.5h125q-8 -63 -26 -117.5t-47 -92.5t-66 -56t-81 -18z" />
<glyph unicode="&#x2dd;" d="M688 1638h189l-302 -376h-135zM1028 1638h197l-324 -376h-135z" />
<glyph unicode="&#x300;" horiz-adv-x="0" d="M-780 1638h198l197 -376h-143z" />
<glyph unicode="&#x301;" horiz-adv-x="0" d="M-326 1638h219l-395 -376h-156z" />
<glyph unicode="&#x302;" horiz-adv-x="0" d="M-516 1638h147l164 -376h-133l-117 241l-225 -241h-156z" />
<glyph unicode="&#x303;" horiz-adv-x="0" d="M-347 1307q-34 0 -69 13.5t-76 55.5l-47 49q-36 37 -74 37q-42 0 -64 -40t-30 -113h-125q17 134 72.5 208t150.5 74q40 0 74 -15.5t72 -53.5l47 -47q20 -20 35 -29.5t35 -9.5q81 0 98 155h125q-18 -140 -73.5 -212t-150.5 -72z" />
<glyph unicode="&#x304;" horiz-adv-x="0" d="M-764 1526h598l-29 -148h-598z" />
<glyph unicode="&#x305;" horiz-adv-x="0" d="M-1233 1547h1233v-80h-1233v80z" />
<glyph unicode="&#x306;" horiz-adv-x="0" d="M-486 1321q-134 0 -206 64t-72 182q0 17 0.5 25t2.5 16h120v-17q0 -66 43.5 -99.5t125.5 -33.5q85 0 137 37.5t81 112.5h119q-33 -144 -122.5 -215.5t-228.5 -71.5z" />
<glyph unicode="&#x307;" horiz-adv-x="0" d="M-561 1552h205l-41 -204h-205z" />
<glyph unicode="&#x308;" horiz-adv-x="0" d="M-758 1552h203l-39 -202h-203zM-367 1552h203l-39 -202h-203z" />
<glyph unicode="&#x309;" horiz-adv-x="0" d="M-711 1374q19 6 38.5 15t37 18.5t31.5 19.5t22 17q15 14 28 40t13 52q0 15 -5.5 28.5t-18.5 24t-34.5 16.5t-54.5 6q-35 0 -76.5 -7.5t-77.5 -24.5l25 131q91 24 179 24q210 0 210 -138q0 -16 -3 -32q-1 -2 -1 -5t-1 -5q-6 -32 -22 -61t-39 -54.5t-50.5 -47t-56.5 -37.5 l-17 -88h-148z" />
<glyph unicode="&#x30a;" horiz-adv-x="0" d="M-455 1321q-57 0 -107 21.5t-87 58.5t-58.5 87t-21.5 108t21.5 108t58.5 87t87 58t107 21t107.5 -21t87.5 -58t58.5 -87t21.5 -108t-21.5 -108t-58.5 -87t-87.5 -58.5t-107.5 -21.5zM-455 1444q32 0 59.5 12t48 32t32.5 47.5t12 59.5t-12 59.5t-32.5 48t-48 32.5 t-59.5 12t-59.5 -11.5t-48 -32t-32 -48t-11.5 -59.5t11.5 -60t32 -48.5t48 -32t59.5 -11.5z" />
<glyph unicode="&#x30b;" horiz-adv-x="0" d="M-545 1638h189l-302 -376h-135zM-205 1638h197l-324 -376h-135z" />
<glyph unicode="&#x30c;" horiz-adv-x="0" d="M-762 1638h131l119 -243l225 243h156l-320 -376h-147z" />
<glyph unicode="&#x30d;" horiz-adv-x="0" d="M-644 1706h136l-86 -444h-136z" />
<glyph unicode="&#x30e;" horiz-adv-x="0" d="M-848 1706h136l-86 -444h-136zM-440 1706h136l-86 -444h-136z" />
<glyph unicode="&#x30f;" horiz-adv-x="0" d="M-849 1638h178l132 -376h-135zM-507 1638h170l117 -376h-137z" />
<glyph unicode="&#x310;" horiz-adv-x="0" d="M-87 1812q-33 -144 -122.5 -215.5t-228.5 -71.5q-134 0 -206 64t-72 182q0 17 0.5 25t2.5 16h120v-17q0 -79 65 -113l15 74h205l-15 -76q41 17 69 49.5t48 82.5h119z" />
<glyph unicode="&#x311;" horiz-adv-x="0" d="M-817 1321q78 287 370 287q72 0 121.5 -17t80.5 -47.5t44.5 -73.5t13.5 -94q0 -27 -3 -55h-119q1 79 -41.5 114.5t-125.5 35.5q-89 0 -142.5 -38t-79.5 -112h-119v0z" />
<glyph unicode="&#x312;" horiz-adv-x="0" d="M-510 1312h146l-161 -345h-239z" />
<glyph unicode="&#x313;" horiz-adv-x="0" d="M-763 1341q111 -3 138 134h-111l49 254h241l-49 -254q-50 -257 -292 -257z" />
<glyph unicode="&#x314;" horiz-adv-x="0" d="M-545 1218q-200 0 -200 177q0 18 1.5 38t6.5 42l49 254h241l-49 -254h-111q-3 -13 -4 -24.5t-1 -22.5q0 -87 90 -87l-23 -123v0z" />
<glyph unicode="&#x315;" horiz-adv-x="0" d="M-513 1638h219l-208 -376h-156z" />
<glyph unicode="&#x316;" horiz-adv-x="0" d="M-682 -208h198l197 -376h-143z" />
<glyph unicode="&#x317;" horiz-adv-x="0" d="M-424 -208h219l-395 -376h-156z" />
<glyph unicode="&#x318;" horiz-adv-x="0" d="M-672 -590h-176l26 136h176l34 177h136l-95 -490h-136z" />
<glyph unicode="&#x319;" horiz-adv-x="0" d="M-667 -277h136l-34 -177h176l-27 -136h-176l-34 -177h-136z" />
<glyph unicode="&#x31a;" horiz-adv-x="0" d="M-486 1768h-354l26 136h490l-95 -490h-136z" />
<glyph unicode="&#x31b;" horiz-adv-x="0" d="M-628 764q-56 0 -102.5 26t-98.5 82l23 119q55 -48 94 -68t73 -20q42 0 70 27.5t39 81.5q5 28 5 51q0 35 -11 74h133q1 -14 1.5 -26t0.5 -23q0 -27 -2.5 -48t-5.5 -39q-21 -114 -74.5 -175.5t-144.5 -61.5z" />
<glyph unicode="&#x31c;" horiz-adv-x="0" d="M-749 -502q-47 0 -81 15t-56 40t-33 58t-11 68q0 55 24.5 102.5t62.5 82t85.5 54t94.5 19.5l-19 -98q-26 0 -52 -11t-47.5 -30t-35 -45t-13.5 -57q0 -39 24.5 -69.5t75.5 -30.5l-19 -98v0z" />
<glyph unicode="&#x31d;" horiz-adv-x="0" d="M-842 -454h177l34 177h136l-34 -177h177l-27 -136h-490z" />
<glyph unicode="&#x31e;" horiz-adv-x="0" d="M-638 -413h-177l26 136h490l-26 -136h-177l-35 -177h-136z" />
<glyph unicode="&#x31f;" horiz-adv-x="0" d="M-682 -590h-177l27 136h177l34 177h136l-34 -177h177l-27 -136h-177l-34 -177h-136z" />
<glyph unicode="&#x320;" horiz-adv-x="0" d="M-848 -277h490l-27 -136h-490z" />
<glyph unicode="&#x321;" horiz-adv-x="0" d="M-893 -270h185q94 0 148.5 63t78.5 187l29 148h185l-29 -148q-19 -98 -56.5 -173.5t-91.5 -127t-123.5 -78.5t-151.5 -27h-205z" />
<glyph unicode="&#x322;" horiz-adv-x="0" d="M-888 -426q-137 0 -207.5 71.5t-70.5 208.5q0 29 3 60t10 66l29 148h185l-29 -148q-5 -27 -7.5 -50.5t-2.5 -44.5q0 -155 141 -155h185l-31 -156h-205v0z" />
<glyph unicode="&#x323;" horiz-adv-x="0" d="M-905 -209h205l-39 -204h-205z" />
<glyph unicode="&#x324;" horiz-adv-x="0" d="M-1098 -210h203l-40 -202h-203zM-706 -210h202l-40 -202h-202z" />
<glyph unicode="&#x325;" horiz-adv-x="0" d="M-863 -502q-41 0 -73.5 13.5t-55 37.5t-35 57t-12.5 72q0 56 24 103.5t63 82t87.5 54t96.5 19.5q40 0 72.5 -13.5t56 -37.5t36 -57t12.5 -72q0 -56 -24 -103t-63 -82t-87.5 -54.5t-97.5 -19.5zM-843 -404q27 0 54 11t49 30t35.5 45t13.5 57q0 43 -27 71.5t-72 28.5 q-26 0 -52.5 -10.5t-48 -30t-35 -46t-13.5 -57.5q0 -43 25.5 -71t70.5 -28z" />
<glyph unicode="&#x326;" horiz-adv-x="0" d="M-898 -197h239l-254 -345h-146z" />
<glyph unicode="&#x327;" horiz-adv-x="0" d="M-867 -395q-43 0 -89.5 7.5t-94.5 22.5l25 129q40 -19 76.5 -28.5t71.5 -9.5q65 0 102 30.5t37 81.5q0 30 -14.5 69t-43.5 93h119q38 -67 55 -112t17 -86q0 -44 -18.5 -80t-52 -62t-82 -40.5t-108.5 -14.5z" />
<glyph unicode="&#x328;" horiz-adv-x="0" d="M-787 -395q-98 0 -151.5 40t-53.5 110q0 56 37 115.5t115 129.5h119q-61 -58 -93 -108t-32 -92q0 -35 24 -53.5t72 -18.5q29 0 62 7.5t65 22.5l-25 -133q-69 -20 -139 -20z" />
<glyph unicode="&#x329;" horiz-adv-x="0" d="M-641 -209h136l-87 -444h-136z" />
<glyph unicode="&#x32a;" horiz-adv-x="0" d="M-860 -209h551l-64 -330h-137l38 194h-277l-38 -194h-137z" />
<glyph unicode="&#x32b;" horiz-adv-x="0" d="M-820 -455q-186 0 -186 205q0 35 6 77q1 1 1 5h117q-1 -10 -1.5 -19.5t-0.5 -18.5q0 -112 90 -112q102 0 146 150h118q-1 -8 -1.5 -15.5t-0.5 -15.5q0 -60 26 -89.5t62 -29.5q41 0 83 37.5t65 112.5h118q-36 -148 -111 -217.5t-180 -69.5q-116 0 -159 82 q-76 -82 -192 -82z" />
<glyph unicode="&#x32c;" horiz-adv-x="0" d="M-1101 -109h139l132 -245l229 245h139l-319 -376h-147z" />
<glyph unicode="&#x32d;" horiz-adv-x="0" d="M-855 -109h147l173 -376h-139l-134 245l-227 -245h-139z" />
<glyph unicode="&#x32e;" horiz-adv-x="0" d="M-838 -487q-134 0 -206 64t-72 182q0 17 0.5 25t2.5 16h120v-17q0 -66 43.5 -99.5t125.5 -33.5q85 0 137 37.5t81 112.5h119q-33 -144 -122.5 -215.5t-228.5 -71.5z" />
<glyph unicode="&#x32f;" horiz-adv-x="0" d="M-1168 -485q78 287 370 287q72 0 121.5 -17t80.5 -47.5t44.5 -73.5t13.5 -94q0 -27 -3 -55h-119v13q0 66 -38.5 101.5t-125.5 35.5q-89 0 -143.5 -38t-81.5 -112h-119v0z" />
<glyph unicode="&#x330;" horiz-adv-x="0" d="M-699 -487q-34 0 -69 13.5t-76 55.5l-47 49q-36 37 -74 37q-42 0 -64 -40t-30 -113h-125q17 134 72.5 208t150.5 74q40 0 74 -15.5t72 -53.5l47 -47q20 -20 35 -29.5t35 -9.5q81 0 98 155h125q-18 -140 -73.5 -212t-150.5 -72z" />
<glyph unicode="&#x331;" horiz-adv-x="0" d="M-1100 -209h598l-29 -148h-598z" />
<glyph unicode="&#x332;" horiz-adv-x="0" d="M-1233 -403h1233v-80h-1233v80z" />
<glyph unicode="&#x333;" horiz-adv-x="0" d="M-1233 -163h1233v-80h-1233v80zM-1233 -403h1233v-80h-1233v80z" />
<glyph unicode="&#x334;" horiz-adv-x="0" d="M-1139 666q45 30 86 51.5t81.5 35.5t80.5 20.5t83 6.5q25 0 49 -2.5t49.5 -8.5t54 -16.5t62.5 -25.5q6 -3 8.5 -4t4 -2t5 -3t12.5 -6q56 -28 101.5 -41.5t94.5 -13.5q72 0 146 30t161 93l-34 -174q-165 -114 -314 -114q-51 0 -98.5 12.5t-99.5 38.5q-5 2 -6.5 3t-3.5 2 t-6.5 3l-13.5 6q-36 16 -64 26.5t-52.5 17.5t-48 10t-50.5 3q-81 0 -157 -28t-165 -94z" />
<glyph unicode="&#x335;" horiz-adv-x="0" d="M-1091 616h920v-164h-920v164z" />
<glyph unicode="&#x336;" horiz-adv-x="0" d="M-1233 616h1233v-164h-1233v164z" />
<glyph unicode="&#x337;" horiz-adv-x="0" d="M-1297 -20l1273 1232l78 -77l-1274 -1231z" />
<glyph unicode="&#x338;" horiz-adv-x="0" d="M-1369 0l1395 1559l86 -74l-1391 -1555z" />
<glyph unicode="&#x339;" horiz-adv-x="0" d="M-950 -404q25 0 51.5 11t48.5 30t35.5 45t13.5 57q0 39 -25 69.5t-76 30.5l19 98q46 0 80.5 -15t57 -40t33.5 -57.5t11 -67.5q0 -56 -24.5 -103t-63 -82t-86.5 -54.5t-94 -19.5z" />
<glyph unicode="&#x33a;" horiz-adv-x="0" d="M-860 -54h137l-38 -194h277l38 194h137l-64 -330h-551z" />
<glyph unicode="&#x33b;" horiz-adv-x="0" d="M-839 -209h551l-106 -550h-551zM-505 -623l54 278h-277l-54 -278h277z" />
<glyph unicode="&#x33c;" horiz-adv-x="0" d="M-1055 -455q36 148 111 217.5t180 69.5q116 0 159 -82q76 82 192 82q186 0 186 -205q0 -35 -6 -77q-1 -1 -1 -5h-117q1 10 1.5 19.5t0.5 18.5q0 112 -90 112q-103 0 -146 -150h-118q1 8 1.5 15.5t0.5 15.5q0 60 -26 89.5t-62 29.5q-41 0 -83 -37.5t-65 -112.5h-118v0z " />
<glyph unicode="&#x33d;" horiz-adv-x="0" d="M-862 1324l149 125l-100 125l114 97l101 -126l150 126l77 -97l-149 -125l100 -125l-114 -96l-101 125l-150 -125z" />
<glyph unicode="&#x33e;" horiz-adv-x="0" d="M-787 1328q42 1 71.5 5t49.5 11q45 16 45 44q0 8 -6 20t-23 28l-47 43q-24 24 -33.5 44t-9.5 40q0 5 0.5 10t1.5 10q7 40 32.5 70.5t66.5 50.5t95.5 30.5t119.5 11.5l-22 -110q-82 -1 -121 -15q-45 -17 -45 -45q0 -8 6 -20t23 -28l47 -43q24 -24 33.5 -44t9.5 -40 q0 -5 -0.5 -10t-1.5 -10q-7 -40 -32.5 -70.5t-66.5 -50.5t-95.5 -30.5t-119.5 -11.5z" />
<glyph unicode="&#x33f;" horiz-adv-x="0" d="M0 1307v-80h-1233v80h1233z" />
<glyph unicode="&#x358;" horiz-adv-x="0" d="M90 1552h205l-41 -204h-205z" />
<glyph unicode="&#x361;" horiz-adv-x="0" d="M-1500 1520q47 240 566 300q234 27 351 27q28 0 77 -1t110 -4.5t129.5 -11t136 -21.5t129 -35t108.5 -51t75 -70.5t28 -93.5q0 -22 -4 -39h-118q-101 142 -363 165q-141 13 -224 19t-111 6q-18 0 -68 -1t-119 -6.5t-149.5 -17t-160.5 -32.5t-152 -53.5t-123 -79.5h-118v0 z" />
<glyph unicode="&#x384;" d="M907 1638h219l-395 -376h-156z" />
<glyph unicode="&#x385;" d="M1008 1896h219l-395 -376h-156zM439 1320q-15 0 -22.5 9t-4.5 24l28 142q4 27 32 27h143q15 0 22.5 -9t4.5 -24l-28 -142q-5 -27 -32 -27h-143zM870 1320q-15 0 -22.5 9t-4.5 24l28 142q4 27 32 27h143q15 0 22.5 -9t4.5 -24l-28 -142q-5 -27 -32 -27h-143z" />
<glyph unicode="&#x386;" d="M457 1638h219l-395 -376h-156zM639 1493h246l166 -1493h-201l-35 389h-520l-184 -389h-217zM801 551l-66 774l-364 -774h430z" />
<glyph unicode="&#x388;" d="M207 1638h219l-395 -376h-156zM344 1493h885l-33 -170h-684l-86 -442h653l-32 -170h-654l-104 -541h702l-33 -170h-905z" />
<glyph unicode="&#x389;" d="M157 1638h219l-395 -376h-156zM283 1493h202l-118 -612h553l118 612h203l-291 -1493h-202l139 711h-555l-137 -711h-203z" />
<glyph unicode="&#x38a;" d="M207 1638h219l-395 -376h-156zM90 170h313l224 1153h-314l33 170h830l-33 -170h-314l-223 -1153h314l-33 -170h-830z" />
<glyph unicode="&#x38c;" d="M357 1638h219l-395 -376h-156zM480 -29q-398 0 -398 488q0 128 23.5 263t61.5 253q31 97 66 170t71 127q84 125 194 186.5t253 61.5q201 0 300.5 -119.5t99.5 -363.5q0 -60 -6 -125.5t-17.5 -132.5t-27.5 -133.5t-36 -129.5q-30 -94 -65 -168t-72 -129 q-85 -128 -196 -188t-251 -60zM497 135q49 0 90 13.5t75 39t62.5 62t53.5 83.5t47 104t40 119.5t33 128t25 131t15.5 127.5t5.5 117q0 66 -9.5 120.5t-33 93.5t-64 60.5t-103.5 21.5q-49 0 -89.5 -13.5t-74 -38.5t-62 -62t-53.5 -83q-38 -71 -68.5 -162t-53 -189.5 t-34.5 -196t-12 -179.5q0 -69 10 -124.5t34 -93.5t64.5 -58.5t101.5 -20.5z" />
<glyph unicode="&#x38e;" d="M-8 1638h219l-395 -376h-156zM496 650q10 49 14.5 102t4.5 108q0 74 -8.5 145.5t-24.5 131t-39.5 102t-54.5 58.5q-72 35 -149 35q-40 0 -82 -9l33 170q19 6 42 8.5t49 2.5q29 0 63.5 -3t72.5 -11q263 -48 258 -446q191 393 430 446q28 7 59 7q35 0 66 -9.5t54.5 -28 t37 -45.5t13.5 -62q0 -27 -9.5 -59t-30.5 -69q-20 -34 -51 -50.5t-63 -16.5q-25 0 -48 9t-40.5 26.5t-27 43.5t-6.5 61q-43 -26 -83 -69t-76.5 -96.5t-68.5 -115t-57.5 -124.5t-44.5 -125t-30 -117l-126 -650h-203z" />
<glyph unicode="&#x38f;" d="M383 1638h219l-395 -376h-156zM-33 172h245q-69 94 -102.5 194.5t-33.5 218.5q0 92 21 197q30 154 91.5 279.5t147.5 214t193.5 136.5t229.5 48q101 0 179 -33t131 -94.5t80.5 -149.5t27.5 -198q0 -95 -21 -203q-18 -94 -47.5 -176.5t-72.5 -156.5t-100.5 -142.5 t-131.5 -134.5h248l-34 -172h-463l34 172q67 37 126.5 99.5t108 144t84.5 179t56 204.5q8 47 12.5 90t4.5 82q0 153 -63.5 238t-189.5 85q-76 0 -144 -32.5t-123.5 -95.5t-97.5 -155.5t-66 -211.5q-24 -117 -24 -222q0 -140 40 -245.5t117 -159.5l-34 -172h-463z" />
<glyph unicode="&#x390;" d="M1008 1896h219l-395 -376h-156zM439 1320q-15 0 -22.5 9t-4.5 24l28 142q4 27 32 27h143q15 0 22.5 -9t4.5 -24l-28 -142q-5 -27 -32 -27h-143zM870 1320q-15 0 -22.5 9t-4.5 24l28 142q4 27 32 27h143q15 0 22.5 -9t4.5 -24l-28 -142q-5 -27 -32 -27h-143zM746 -5 q-145 0 -213.5 61t-68.5 193q0 64 17 152l110 576h-210l28 143h398l-141 -730q-15 -77 -15 -125q0 -33 8 -55t25.5 -35t45.5 -18.5t68 -5.5h88l-30 -156h-110z" />
<glyph unicode="&#x391;" d="M639 1493h246l166 -1493h-201l-35 389h-520l-184 -389h-217zM801 551l-66 774l-364 -774h430z" />
<glyph unicode="&#x392;" d="M313 1493h443q204 0 307.5 -79t103.5 -236q0 -76 -24 -141t-68 -114.5t-107 -81.5t-141 -42q136 -27 197 -108t61 -209q0 -110 -41 -199t-119 -152t-191.5 -97t-258.5 -34h-452zM639 877q75 0 135 18.5t102 54t64.5 85.5t22.5 113q0 94 -55.5 136.5t-180.5 42.5h-244 l-88 -450h244zM506 166q92 0 162.5 22.5t118.5 65t73 103t25 135.5q0 116 -65 168.5t-214 52.5h-241l-107 -547h248z" />
<glyph unicode="&#x393;" d="M360 1493h924l-33 -170h-721l-257 -1323h-203z" />
<glyph unicode="&#x394;" d="M640 1493h245l167 -1493h-1159zM827 170l-99 1145l-545 -1145h644z" />
<glyph unicode="&#x395;" d="M344 1493h885l-33 -170h-684l-86 -442h653l-32 -170h-654l-104 -541h702l-33 -170h-905z" />
<glyph unicode="&#x396;" d="M23 154l976 1169h-727l33 170h969l-29 -154l-979 -1169h774l-34 -170h-1012z" />
<glyph unicode="&#x397;" d="M283 1493h202l-118 -612h553l118 612h203l-291 -1493h-202l139 711h-555l-137 -711h-203z" />
<glyph unicode="&#x398;" d="M465 -29q-191 0 -287.5 110.5t-96.5 339.5q0 139 36 324q75 385 234 580t416 195q196 0 290.5 -113t94.5 -339q0 -140 -36 -323q-76 -390 -237 -582t-414 -192zM498 135q78 0 140.5 36.5t107.5 104.5q27 41 52 99.5t47 127.5t39.5 145t30.5 151.5t20 148t7 133.5 q0 40 -3 74t-10 60q-18 69 -67 105t-127 36q-79 0 -141.5 -37t-106.5 -104q-26 -41 -51 -99t-47 -127t-40 -145t-31.5 -152t-20.5 -148.5t-7 -133.5q0 -80 14 -134q19 -72 69 -106.5t125 -34.5zM444 881h398l-33 -170h-398z" />
<glyph unicode="&#x399;" d="M90 170h313l224 1153h-314l33 170h830l-33 -170h-314l-223 -1153h314l-33 -170h-830z" />
<glyph unicode="&#x39a;" d="M283 1493h202l-127 -647l742 647h254l-703 -619l428 -874h-219l-360 741l-193 -168l-112 -573h-203z" />
<glyph unicode="&#x39b;" d="M640 1493h245l167 -1493h-209l-115 1315l-626 -1315h-209z" />
<glyph unicode="&#x39c;" d="M229 1493h269l110 -756l414 756h270l-291 -1493h-186l258 1327l-434 -795h-141l-115 795l-256 -1327h-186z" />
<glyph unicode="&#x39d;" d="M285 1493h256l264 -1229l239 1229h195l-291 -1493h-256l-264 1229l-240 -1229h-194z" />
<glyph unicode="&#x39e;" d="M283 1493h959l-33 -170h-959zM367 881h553l-33 -170h-553zM26 170h959l-33 -170h-959z" />
<glyph unicode="&#x39f;" d="M480 -29q-398 0 -398 488q0 128 23.5 263t61.5 253q31 97 66 170t71 127q84 125 194 186.5t253 61.5q201 0 300.5 -119.5t99.5 -363.5q0 -60 -6 -125.5t-17.5 -132.5t-27.5 -133.5t-36 -129.5q-30 -94 -65 -168t-72 -129q-85 -128 -196 -188t-251 -60zM497 135 q49 0 90 13.5t75 39t62.5 62t53.5 83.5t47 104t40 119.5t33 128t25 131t15.5 127.5t5.5 117q0 66 -9.5 120.5t-33 93.5t-64 60.5t-103.5 21.5q-49 0 -89.5 -13.5t-74 -38.5t-62 -62t-53.5 -83q-38 -71 -68.5 -162t-53 -189.5t-34.5 -196t-12 -179.5q0 -69 10 -124.5 t34 -93.5t64.5 -58.5t101.5 -20.5z" />
<glyph unicode="&#x3a0;" d="M283 1493h959l-290 -1493h-203l257 1323h-553l-257 -1323h-203z" />
<glyph unicode="&#x3a1;" d="M342 1493h440q205 0 313.5 -91t108.5 -280q0 -117 -41.5 -213t-119 -165t-188.5 -106.5t-251 -37.5h-233l-117 -600h-203zM637 766q82 0 149 25t114.5 70.5t73 109t25.5 139.5q0 112 -61 164.5t-193 52.5h-233l-109 -561h234z" />
<glyph unicode="&#x3a3;" d="M9 170l566 577l-342 576l33 170h1013l-33 -170h-802l343 -576l-567 -577h802l-33 -170h-1013z" />
<glyph unicode="&#x3a4;" d="M629 1323h-469l33 170h1140l-33 -170h-469l-256 -1323h-204z" />
<glyph unicode="&#x3a5;" d="M496 650q10 49 14.5 102t4.5 108q0 74 -8.5 145.5t-24.5 131t-39.5 102t-54.5 58.5q-72 35 -149 35q-40 0 -82 -9l33 170q19 6 42 8.5t49 2.5q29 0 63.5 -3t72.5 -11q263 -48 258 -446q191 393 430 446q28 7 59 7q35 0 66 -9.5t54.5 -28t37 -45.5t13.5 -62 q0 -27 -9.5 -59t-30.5 -69q-20 -34 -51 -50.5t-63 -16.5q-25 0 -48 9t-40.5 26.5t-27 43.5t-6.5 61q-43 -26 -83 -69t-76.5 -96.5t-68.5 -115t-57.5 -124.5t-44.5 -125t-30 -117l-126 -650h-203z" />
<glyph unicode="&#x3a6;" d="M255 170h147l22 116q-73 8 -132 29.5t-101 60t-65 95.5t-23 137q0 31 3 65t11 72q23 118 68.5 201.5t108.5 137.5t141.5 83t167.5 38l23 118h-147l33 170h497l-33 -170h-147l-23 -118q73 -8 132.5 -30t101.5 -61t65 -97t23 -137q0 -30 -3 -63.5t-11 -71.5 q-23 -117 -68 -200t-108 -137.5t-142 -83.5t-169 -38l-22 -116h147l-33 -170h-497zM569 1029q-37 -8 -71 -22.5t-59 -35.5q-27 -24 -49.5 -60.5t-38.5 -80t-24.5 -90t-8.5 -89.5q0 -41 8.5 -74.5t25.5 -56.5q17 -21 44.5 -35.5t62.5 -22.5zM662 462q37 8 71 22.5t59 35.5 q27 23 49.5 60t38 80.5t24 90.5t8.5 90q0 41 -8 74.5t-25 55.5q-17 21 -44.5 35.5t-62.5 22.5z" />
<glyph unicode="&#x3a7;" d="M530 797l-288 696h200l224 -532l440 532h231l-596 -719l324 -774h-201l-254 612l-506 -612h-231z" />
<glyph unicode="&#x3a8;" d="M255 170h147l42 214q-172 32 -239 183q-46 104 -46 260q0 140 36 323l67 343h203l-67 -343q-36 -185 -36 -310q0 -96 21 -159q28 -86 95 -121l181 933h203l-181 -933q81 35 142 121q53 73 94 192t72 277l67 343h203l-67 -343q-39 -202 -98.5 -345.5t-137.5 -237.5 q-128 -152 -309 -183l-42 -214h147l-33 -170h-497z" />
<glyph unicode="&#x3a9;" d="M74 172h245q-122 132 -178 278q-55 143 -55 333q0 309 144 494q71 91 166.5 137t217.5 46q125 0 221 -47t166 -136q144 -183 144 -494q0 -190 -55 -333q-29 -75 -73.5 -143.5t-105.5 -134.5h248v-172h-463v172q120 76 187 241q33 81 50 176t17 201q0 116 -21.5 210 t-67.5 162q-43 63 -105 97.5t-140 34.5q-82 0 -142.5 -36t-101.5 -96q-44 -65 -66.5 -157t-22.5 -215q0 -106 17 -201t50 -176q35 -85 82 -144.5t105 -96.5v-172h-463v172z" />
<glyph unicode="&#x3aa;" d="M506 1647q-15 0 -22.5 9t-4.5 24l28 143q4 27 32 27h144q16 0 22.5 -9t3.5 -24l-29 -143q-6 -27 -32 -27h-142zM897 1647q-15 0 -22.5 9t-4.5 24l28 143q4 27 32 27h143q15 0 22.5 -9t4.5 -24l-28 -143q-5 -27 -32 -27h-143zM90 170h313l224 1153h-314l33 170h830 l-33 -170h-314l-223 -1153h314l-33 -170h-830z" />
<glyph unicode="&#x3ab;" d="M506 1647q-15 0 -22.5 9t-4.5 24l28 143q4 27 32 27h144q16 0 22.5 -9t3.5 -24l-29 -143q-6 -27 -32 -27h-142zM897 1647q-15 0 -22.5 9t-4.5 24l28 143q4 27 32 27h143q15 0 22.5 -9t4.5 -24l-28 -143q-5 -27 -32 -27h-143zM496 650q10 49 14.5 102t4.5 108 q0 74 -8.5 145.5t-24.5 131t-39.5 102t-54.5 58.5q-72 35 -149 35q-40 0 -82 -9l33 170q19 6 42 8.5t49 2.5q29 0 63.5 -3t72.5 -11q263 -48 258 -446q191 393 430 446q28 7 59 7q35 0 66 -9.5t54.5 -28t37 -45.5t13.5 -62q0 -27 -9.5 -59t-30.5 -69q-20 -34 -51 -50.5 t-63 -16.5q-25 0 -48 9t-40.5 26.5t-27 43.5t-6.5 61q-43 -26 -83 -69t-76.5 -96.5t-68.5 -115t-57.5 -124.5t-44.5 -125t-30 -117l-126 -650h-203z" />
<glyph unicode="&#x3ac;" d="M917 1673h219l-395 -376h-156zM396 -25q-165 0 -256 100.5t-91 291.5q0 87 21 192q30 150 87.5 259.5t131.5 181t159.5 107.5t171.5 39h17q68 0 122 -21.5t90.5 -62t55 -100t16.5 -135.5l156 293h164l-323 -607l-3 -219q0 -24 8 -48.5t20.5 -44.5t29 -32.5t32.5 -12.5h89 l-30 -156h-111q-47 0 -91.5 23t-70.5 61q-16 22 -24 52.5t-9 77.5q-30 -48 -63.5 -91.5t-76.5 -76.5t-97.5 -52t-124.5 -19zM421 127q60 0 121 51t120 162l96 181l1 231q0 65 -12 110.5t-33 74t-49 41.5t-59 13q-52 0 -106.5 -30.5t-96.5 -81.5q-32 -38 -60.5 -94t-50 -121 t-34.5 -134.5t-13 -133.5q0 -45 7 -86.5t23 -75.5q23 -50 61 -78.5t85 -28.5z" />
<glyph unicode="&#x3ad;" d="M947 1673h219l-395 -376h-156zM544 -29q-109 0 -193.5 21t-139.5 67q-45 38 -64.5 86t-19.5 99q0 35 8 69.5t23 66.5t36 59.5t46 48.5l36 30q67 54 158 74q-14 3 -31 8.5t-29 11.5q-16 8 -35.5 23t-36 37.5t-27.5 52t-11 66.5q0 10 1 20t3 21q11 66 52.5 121.5t106 95 t149 61.5t181.5 22q70 0 152 -12t188 -36l-35 -179q-47 16 -94.5 28t-91.5 19.5t-82.5 10.5t-66.5 2l-31 -1q-38 -2 -76.5 -15t-66.5 -30l-44 -28q-17 -14 -26 -30t-14 -40q-3 -14 -3 -26q0 -17 11 -33t43 -38q38 -26 79 -40t98 -14h127l-32 -163h-126q-55 0 -115.5 -18 t-108.5 -45t-71.5 -58t-30.5 -65q-2 -6 -3.5 -18.5t-1.5 -24.5q0 -53 58 -99q4 -2 7 -5t7 -5q32 -23 77.5 -34t99.5 -11q20 0 34 1.5t30 3.5l128 29l15 3q20 4 45 9.5t50 12t46.5 12.5t35.5 12l-36 -181q-99 -27 -198 -41t-190 -14z" />
<glyph unicode="&#x3ae;" d="M946 1673h219l-395 -376h-156zM890 694q6 32 9.5 60.5t3.5 54.5q0 93 -43.5 135.5t-130.5 42.5q-129 0 -216.5 -89.5t-121.5 -264.5l-123 -633h-184l218 1120h164l-13 -168q69 97 162 146t208 49q270 0 270 -284q0 -75 -18 -169l-218 -1120h-185z" />
<glyph unicode="&#x3af;" d="M887 1648h219l-395 -376h-156zM716 -5q-145 0 -213.5 61t-68.5 193q0 64 17 152l110 576h-210l28 143h398l-141 -730q-15 -77 -15 -125q0 -33 8 -55t25.5 -35t45.5 -18.5t68 -5.5h88l-30 -156h-110z" />
<glyph unicode="&#x3b0;" d="M1017 1888h219l-395 -376h-156zM449 1320q-15 0 -22.5 9t-4.5 24l28 142q4 27 32 27h143q15 0 22.5 -9t4.5 -24l-28 -142q-5 -27 -32 -27h-143zM885 1320q-15 0 -22.5 9t-4.5 24l28 142q4 27 32 27h143q15 0 22.5 -9t4.5 -24l-28 -142q-5 -27 -32 -27h-143zM485 0 q-137 0 -203 62.5t-66 194.5q0 33 4 70t12 79l110 571h-210l28 143h398l-141 -725q-7 -36 -11 -66t-4 -54q0 -64 28.5 -91.5t94.5 -27.5q84 0 153.5 40t123.5 107t93 154.5t63 182.5q11 43 17.5 87.5t6.5 92.5q0 70 -19 144.5t-68 155.5h186q36 -62 58 -141t22 -176 q0 -39 -4 -80t-13 -85q-15 -74 -43.5 -150t-70.5 -147t-97.5 -133t-123.5 -108.5t-149.5 -73t-174.5 -26.5z" />
<glyph unicode="&#x3b1;" d="M396 -25q-165 0 -256 100.5t-91 291.5q0 87 21 192q30 150 87.5 259.5t131.5 181t159.5 107.5t171.5 39h17q68 0 122 -21.5t90.5 -62t55 -100t16.5 -135.5l156 293h164l-323 -607l-3 -219q0 -24 8 -48.5t20.5 -44.5t29 -32.5t32.5 -12.5h89l-30 -156h-111q-47 0 -91.5 23 t-70.5 61q-16 22 -24 52.5t-9 77.5q-30 -48 -63.5 -91.5t-76.5 -76.5t-97.5 -52t-124.5 -19zM421 127q60 0 121 51t120 162l96 181l1 231q0 65 -12 110.5t-33 74t-49 41.5t-59 13q-52 0 -106.5 -30.5t-96.5 -81.5q-32 -38 -60.5 -94t-50 -121t-34.5 -134.5t-13 -133.5 q0 -45 7 -86.5t23 -75.5q23 -50 61 -78.5t85 -28.5z" />
<glyph unicode="&#x3b2;" d="M258 1113q23 120 75 207.5t121 143.5t149 83t158 27q74 0 142 -22.5t119.5 -65.5t82.5 -105t31 -141q0 -14 -1 -28t-3 -28q-8 -56 -29.5 -113.5t-54 -108t-73.5 -90.5t-88 -62q114 -23 167.5 -87t53.5 -170q0 -23 -2.5 -48t-7.5 -52q-20 -113 -70 -201t-124.5 -148.5 t-171 -92.5t-209.5 -32q-32 0 -63 3.5t-64.5 13t-71.5 27t-84 46.5l-96 -495h-185zM293 342q12 -35 41.5 -64.5t71 -51t90.5 -33.5t100 -12q53 0 105 14.5t94.5 47t73 83.5t41.5 124q2 14 3 27t1 25q0 53 -20 92t-63 65t-109.5 39t-160.5 13h-32t-33 -1l33 170 q7 0 13.5 -0.5t13.5 -0.5q96 0 168 27.5t122 72.5q54 47 80 105t26 113q0 45 -17 80t-45.5 58.5t-66 36t-78.5 12.5q-47 0 -95 -16.5t-89.5 -50.5t-73 -86t-45.5 -124z" />
<glyph unicode="&#x3b3;" d="M445 0l-139 836q-21 126 -115 126h-49l31 158h70q193 0 225 -176l122 -685l493 861h191l-639 -1120l-83 -426h-190z" />
<glyph unicode="&#x3b4;" d="M502 -29q-189 0 -288 98t-99 295q0 88 21 195q28 144 80.5 253t127.5 184q16 16 37.5 33.5t50.5 37.5q-8 5 -23 19t-27 30q-18 23 -27.5 49t-9.5 57q0 11 1.5 22.5t3.5 24.5q13 69 55 124.5t107.5 94.5t152 60t188.5 21q38 0 76.5 -3t62.5 -9l144 -36l-34 -173 q-61 24 -136 40t-156 14l-32 -1q-74 -1 -142 -45l-44 -28q-23 -17 -33 -43.5t-10 -49.5q0 -17 5 -29q5 -10 17 -22t32 -23q16 -8 43 -10.5t83 -3.5q195 -5 291 -103.5t96 -287.5q0 -89 -21 -197q-28 -143 -80 -252.5t-127 -184t-171.5 -113t-214.5 -38.5zM531 127 q138 0 232 106t137 326q10 48 14.5 91t4.5 81q0 131 -55 195.5t-164 64.5q-144 0 -236.5 -112t-132.5 -320q-9 -48 -14 -90.5t-5 -80.5q0 -128 54 -194.5t165 -66.5z" />
<glyph unicode="&#x3b5;" d="M544 -29q-109 0 -193.5 21t-139.5 67q-45 38 -64.5 86t-19.5 99q0 35 8 69.5t23 66.5t36 59.5t46 48.5l36 30q67 54 158 74q-14 3 -31 8.5t-29 11.5q-16 8 -35.5 23t-36 37.5t-27.5 52t-11 66.5q0 10 1 20t3 21q11 66 52.5 121.5t106 95t149 61.5t181.5 22q70 0 152 -12 t188 -36l-35 -179q-47 16 -94.5 28t-91.5 19.5t-82.5 10.5t-66.5 2l-31 -1q-38 -2 -76.5 -15t-66.5 -30l-44 -28q-17 -14 -26 -30t-14 -40q-3 -14 -3 -26q0 -17 11 -33t43 -38q38 -26 79 -40t98 -14h127l-32 -163h-126q-55 0 -115.5 -18t-108.5 -45t-71.5 -58t-30.5 -65 q-2 -6 -3.5 -18.5t-1.5 -24.5q0 -53 58 -99q4 -2 7 -5t7 -5q32 -23 77.5 -34t99.5 -11q20 0 34 1.5t30 3.5l128 29l15 3q20 4 45 9.5t50 12t46.5 12.5t35.5 12l-36 -181q-99 -27 -198 -41t-190 -14z" />
<glyph unicode="&#x3b6;" d="M595 -430q8 38 15 75.5t14 75.5q34 -3 63 7.5t50.5 27t35 37.5t16.5 39q3 15 3 31q0 44 -24 76t-73 32q-130 0 -226.5 32t-160 89t-94.5 135t-31 169q0 115 48 244.5t142.5 258.5t234.5 251t323 221h-532l36 185h870l-36 -185q-849 -415 -887 -837q-3 -35 -3 -65 q0 -342 346 -342q58 0 104 -16t78 -44.5t49 -68.5t17 -89q0 -27 -6 -57q-12 -57 -41 -108.5t-75.5 -90t-110.5 -61t-145 -22.5z" />
<glyph unicode="&#x3b7;" d="M890 694q6 32 9.5 60.5t3.5 54.5q0 93 -43.5 135.5t-130.5 42.5q-129 0 -216.5 -89.5t-121.5 -264.5l-123 -633h-184l218 1120h164l-13 -168q69 97 162 146t208 49q270 0 270 -284q0 -75 -18 -169l-218 -1120h-185z" />
<glyph unicode="&#x3b8;" d="M497 -29q-180 0 -271.5 116t-91.5 342q0 134 33 307q37 190 95.5 330.5t138.5 237.5q161 196 392 196q183 0 274.5 -117t91.5 -343q0 -135 -33 -304q-37 -190 -96.5 -333t-139.5 -239t-179 -144.5t-214 -48.5zM947 828q9 56 14 107t5 98q0 70 -11.5 127.5t-36 97.5 t-63 62t-91.5 22q-70 0 -129 -38t-107 -106t-84.5 -162.5t-61.5 -207.5h565zM528 129q70 0 130 38.5t108 107t84.5 163t60.5 206.5h-565q-9 -56 -14 -107t-5 -97q0 -71 11.5 -128.5t36 -98t62.5 -62.5t91 -22z" />
<glyph unicode="&#x3b9;" d="M756 -5q-145 0 -213.5 61t-68.5 193q0 64 17 152l110 576h-210l28 143h398l-141 -730q-15 -77 -15 -125q0 -33 8 -55t25.5 -35t45.5 -18.5t68 -5.5h88l-30 -156h-110v0z" />
<glyph unicode="&#x3ba;" d="M315 1120h190l-91 -465l574 465h224l-523 -422l374 -698h-225l-302 578l-162 -129l-87 -449h-190z" />
<glyph unicode="&#x3bb;" d="M666 1074l-35 198q-22 126 -177 126h-49l31 158l69 -2q273 -8 303 -173l248 -1381h-195l-153 828l-547 -828h-195z" />
<glyph unicode="&#x3bc;" d="M262 1120h187l-136 -696q-12 -62 -12 -105q0 -91 54 -139.5t157 -48.5q138 0 219.5 82.5t114.5 253.5l127 653h186l-168 -862q-3 -18 -4.5 -31t-1.5 -24q0 -62 49 -62q7 0 25 5q14 4 47 18l-29 -148q-40 -22 -77 -33.5t-70 -11.5q-67 0 -106.5 42.5t-39.5 115.5 q-54 -82 -122.5 -120t-167.5 -38q-184 0 -248 166l-109 -563h-176z" />
<glyph unicode="&#x3bd;" d="M225 1120h198l106 -940q72 62 139.5 132.5t122 142t92.5 139t51 123.5q5 17 8 42.5t3 57.5q0 61 -18.5 139t-70.5 164h186q20 -35 35.5 -75.5t26.5 -83.5t16.5 -86.5t5.5 -83.5q0 -42 -6 -76q-11 -62 -44 -128t-80.5 -132.5t-105.5 -131.5t-118.5 -123.5t-119 -109.5 t-107.5 -90h-196z" />
<glyph unicode="&#x3be;" d="M580 -430q8 38 15 75.5t14 75.5q34 -3 63 7.5t50.5 27t35 37.5t16.5 39q3 15 3 31q0 44 -24 76t-73 32q-150 0 -255 27.5t-171.5 73.5t-97 107t-30.5 128q0 72 32 147t88.5 141t134 119t169.5 82q-61 8 -104.5 28.5t-72 50.5t-42 67t-13.5 78q0 51 20 103.5t56.5 100 t89 86t118.5 61.5h-208l36 185h789l-36 -185q-170 0 -297.5 -24t-212.5 -62.5t-127.5 -87t-42.5 -97.5q0 -42 30.5 -80.5t91 -69t151 -49.5t211.5 -21l-33 -170q-160 -11 -279 -46.5t-198 -85t-118 -108t-39 -115.5q0 -45 24.5 -86t73.5 -72.5t122 -50t170 -19.5 q58 0 104 -16t78 -44.5t49 -68.5t17 -89q0 -27 -6 -57q-12 -57 -41 -108.5t-75.5 -90t-110.5 -61t-145 -22.5z" />
<glyph unicode="&#x3bf;" d="M514 -29q-196 0 -296.5 109t-100.5 312q0 67 11 136.5t31 137t49.5 130t65.5 115.5q81 118 190.5 177t252.5 59q193 0 295 -106.5t102 -316.5q0 -65 -10 -133.5t-30 -135t-49 -130t-67 -118.5q-80 -116 -189.5 -176t-254.5 -60zM524 127q67 0 122.5 24.5t99.5 67t76.5 99 t54.5 121t32.5 133.5t10.5 135q0 149 -52.5 216.5t-158.5 67.5q-67 0 -122.5 -24.5t-99.5 -67t-76.5 -99t-54.5 -121t-32.5 -133.5t-10.5 -135q0 -149 52.5 -216.5t158.5 -67.5z" />
<glyph unicode="&#x3c0;" d="M1027 -39q-114 0 -160 66q-23 32 -34.5 90t-11.5 151v684h-428v-952h-180v952h-143v148h1073v-148h-141v-704q0 -35 5.5 -60.5t19.5 -42.5q12 -16 30 -24t45 -8q18 0 41 3q10 1 14.5 1.5t6.5 0.5h3.5t4.5 1v-133q-32 -13 -72 -19q-38 -6 -73 -6z" />
<glyph unicode="&#x3c1;" d="M185 540q31 160 85 275t127 188.5t163.5 108.5t194.5 35q187 0 280 -103t93 -290q0 -45 -5.5 -95t-16.5 -104q-29 -140 -80.5 -249t-122 -183.5t-157.5 -113t-186 -38.5q-105 0 -172.5 43t-95.5 127l-110 -567h-185zM562 127q71 0 126 29t96 80q33 41 60 100.5 t46.5 126.5t30.5 137t11 133q0 44 -5.5 82t-17.5 67q-23 56 -68.5 82.5t-111.5 26.5q-131 0 -221.5 -107t-133.5 -325q-10 -50 -14.5 -94t-4.5 -82q0 -129 52 -192.5t155 -63.5z" />
<glyph unicode="&#x3c2;" d="M523 -430q7 38 14 75.5t15 75.5q34 -3 62.5 7.5t50 27t35 37.5t17.5 39q3 18 3 36q0 40 -21 68.5t-76 34.5q-39 4 -88 11.5t-100 23t-100 43t-87 72t-61 108.5t-23 154q0 39 4.5 82.5t15.5 93.5q30 142 89.5 251.5t144.5 184.5t192.5 113.5t233.5 38.5q45 0 85 -5 t77 -15.5t72 -27t70 -38.5l-38 -193q-57 62 -124 92.5t-160 30.5q-91 0 -165 -29t-130.5 -84.5t-94.5 -136t-58 -182.5q-15 -78 -15 -138q0 -76 19.5 -127.5t49.5 -84t65.5 -49t67.5 -23.5t56.5 -8t31.5 -2q134 -20 193 -69t59 -131q0 -17 -2.5 -36t-7.5 -39 q-14 -61 -44 -112.5t-76 -89t-109 -59t-143 -21.5z" />
<glyph unicode="&#x3c3;" d="M491 -29q-190 0 -289.5 99t-99.5 294q0 88 21 195q55 270 202 415.5t386 145.5h515l-36 -184h-241q72 -59 103 -140.5t31 -173.5q0 -68 -15.5 -137.5t-43.5 -135t-66 -124t-84 -103.5q-153 -151 -383 -151zM514 127q72 0 134 30.5t110 87t81 136.5t48 178q3 20 5 38.5 t2 36.5q0 31 -7 60t-23.5 57.5t-44.5 57.5t-70 59q-31 22 -57.5 37.5t-50.5 29.5q-67 -5 -119 -29t-91.5 -70.5t-67 -115t-45.5 -161.5q-18 -95 -18 -169q0 -263 214 -263z" />
<glyph unicode="&#x3c4;" d="M726 0q-145 0 -213.5 61.5t-68.5 192.5q0 34 4.5 71.5t12.5 80.5l103 530h-361l35 184h914l-35 -184h-365l-106 -541q-15 -77 -15 -125q0 -44 12 -66q27 -48 135 -48h88l-30 -156h-110v0z" />
<glyph unicode="&#x3c5;" d="M485 0q-137 0 -203 62.5t-66 194.5q0 33 4 70t12 79l110 571h-210l28 143h398l-141 -725q-7 -36 -11 -66t-4 -54q0 -64 28.5 -91.5t94.5 -27.5q84 0 153.5 40t123.5 107t93 154.5t63 182.5q11 43 17.5 87.5t6.5 92.5q0 70 -19 144.5t-68 155.5h186q36 -62 58 -141 t22 -176q0 -39 -4 -80t-13 -85q-15 -74 -43.5 -150t-70.5 -147t-97.5 -133t-123.5 -108.5t-149.5 -73t-174.5 -26.5z" />
<glyph unicode="&#x3c6;" d="M422 -25q-83 0 -148.5 27t-111 79t-69.5 128t-24 175q0 78 17 175q27 147 79 250t119 169.5t144 102t153 47.5l-32 -163q-72 -27 -133 -101q-36 -43 -64.5 -98.5t-48 -116.5t-30 -123.5t-10.5 -120.5q0 -48 7.5 -89.5t23.5 -73.5q26 -52 69 -77.5t91 -25.5l133 687 q29 151 106.5 226.5t191.5 75.5q66 0 121.5 -25.5t95.5 -74.5t62.5 -121t22.5 -166q0 -42 -4.5 -86.5t-14.5 -94.5q-27 -140 -81.5 -248.5t-129 -183t-164.5 -113.5t-188 -39l-78 -402h-183zM637 140q46 0 95.5 22t95.5 72t84.5 130t61.5 196q9 45 13 84t4 74 q0 51 -8.5 90.5t-23.5 71.5q-21 44 -49 67.5t-51 23.5q-26 0 -50.5 -35.5t-38.5 -109.5z" />
<glyph unicode="&#x3c7;" d="M524 351l-88 485q-23 126 -178 126h-49l30 158h70q257 0 289 -176l69 -380l374 556h191l-524 -780l88 -482q22 -126 179 -126h49l-30 -158h-70q-258 0 -290 176l-69 378l-372 -554h-191z" />
<glyph unicode="&#x3c8;" d="M413 -25q-62 0 -118 28t-98.5 78.5t-67.5 121t-25 156.5q0 27 2.5 55.5t8.5 57.5l126 648h185l-124 -641q-5 -29 -8 -54.5t-3 -48.5q0 -89 45 -150q23 -32 53 -54t56 -32l190 980h183l-190 -980q33 11 71 34t70 52q51 46 84 107t50 146l124 641h185l-126 -648 q-21 -108 -73.5 -199t-121 -157t-146 -103.5t-149.5 -37.5l-78 -401h-183z" />
<glyph unicode="&#x3c9;" d="M268 -29q-88 0 -144 47.5t-73 137.5q-9 46 -9 112q0 79 15 181.5t48 215t86 229.5t128 226h190q-54 -83 -92.5 -157t-65.5 -142t-45.5 -133t-32.5 -130q-23 -110 -31 -185.5t-8 -104.5q0 -67 28 -102t66 -35q32 0 66 26.5t60 82.5q9 21 20 53.5t24.5 86t30.5 131 t39 188.5h170q-19 -97 -31.5 -168.5t-20 -123.5t-10.5 -87t-3 -58q0 -6 0.5 -11.5t0.5 -10.5q4 -55 28 -82t56 -27q37 0 77.5 34.5t68.5 104.5q12 31 32.5 100.5t40.5 187.5q12 68 18.5 130t6.5 125q0 72 -9.5 147t-31.5 160h190q23 -76 32.5 -156t9.5 -160q0 -100 -13 -196 t-34 -181t-48 -154.5t-54 -116.5q-51 -88 -126.5 -136.5t-163.5 -48.5q-47 0 -84.5 14t-63.5 38t-41.5 56.5t-18.5 70.5q-17 -36 -44.5 -68.5t-63 -57t-78.5 -39t-92 -14.5z" />
<glyph unicode="&#x3ca;" d="M459 1320q-15 0 -22.5 9t-4.5 24l28 142q4 27 32 27h143q15 0 22.5 -9t4.5 -24l-28 -142q-5 -27 -32 -27h-143zM850 1320q-15 0 -22.5 9t-4.5 24l28 142q4 27 32 27h143q15 0 22.5 -9t4.5 -24l-28 -142q-5 -27 -32 -27h-143zM746 -5q-145 0 -213.5 61t-68.5 193 q0 64 17 152l110 576h-210l28 143h398l-141 -730q-15 -77 -15 -125q0 -33 8 -55t25.5 -35t45.5 -18.5t68 -5.5h88l-30 -156h-110z" />
<glyph unicode="&#x3cb;" d="M469 1320q-15 0 -22.5 9t-4.5 24l28 142q4 27 32 27h143q15 0 22.5 -9t4.5 -24l-28 -142q-5 -27 -32 -27h-143zM860 1320q-15 0 -22.5 9t-4.5 24l28 142q4 27 32 27h143q15 0 22.5 -9t4.5 -24l-28 -142q-5 -27 -32 -27h-143zM485 0q-137 0 -203 62.5t-66 194.5q0 33 4 70 t12 79l110 571h-210l28 143h398l-141 -725q-7 -36 -11 -66t-4 -54q0 -64 28.5 -91.5t94.5 -27.5q84 0 153.5 40t123.5 107t93 154.5t63 182.5q11 43 17.5 87.5t6.5 92.5q0 70 -19 144.5t-68 155.5h186q36 -62 58 -141t22 -176q0 -39 -4 -80t-13 -85q-15 -74 -43.5 -150 t-70.5 -147t-97.5 -133t-123.5 -108.5t-149.5 -73t-174.5 -26.5z" />
<glyph unicode="&#x3cc;" d="M937 1673h219l-395 -376h-156zM514 -29q-196 0 -296.5 109t-100.5 312q0 67 11 136.5t31 137t49.5 130t65.5 115.5q81 118 190.5 177t252.5 59q193 0 295 -106.5t102 -316.5q0 -65 -10 -133.5t-30 -135t-49 -130t-67 -118.5q-80 -116 -189.5 -176t-254.5 -60zM524 127 q67 0 122.5 24.5t99.5 67t76.5 99t54.5 121t32.5 133.5t10.5 135q0 149 -52.5 216.5t-158.5 67.5q-67 0 -122.5 -24.5t-99.5 -67t-76.5 -99t-54.5 -121t-32.5 -133.5t-10.5 -135q0 -149 52.5 -216.5t158.5 -67.5z" />
<glyph unicode="&#x3cd;" d="M907 1648h219l-395 -376h-156zM485 0q-137 0 -203 62.5t-66 194.5q0 33 4 70t12 79l110 571h-210l28 143h398l-141 -725q-7 -36 -11 -66t-4 -54q0 -64 28.5 -91.5t94.5 -27.5q84 0 153.5 40t123.5 107t93 154.5t63 182.5q11 43 17.5 87.5t6.5 92.5q0 70 -19 144.5 t-68 155.5h186q36 -62 58 -141t22 -176q0 -39 -4 -80t-13 -85q-15 -74 -43.5 -150t-70.5 -147t-97.5 -133t-123.5 -108.5t-149.5 -73t-174.5 -26.5z" />
<glyph unicode="&#x3ce;" d="M967 1673h219l-395 -376h-156zM268 -29q-88 0 -144 47.5t-73 137.5q-9 46 -9 112q0 79 15 181.5t48 215t86 229.5t128 226h190q-54 -83 -92.5 -157t-65.5 -142t-45.5 -133t-32.5 -130q-23 -110 -31 -185.5t-8 -104.5q0 -67 28 -102t66 -35q32 0 66 26.5t60 82.5 q9 21 20 53.5t24.5 86t30.5 131t39 188.5h170q-19 -97 -31.5 -168.5t-20 -123.5t-10.5 -87t-3 -58q0 -6 0.5 -11.5t0.5 -10.5q4 -55 28 -82t56 -27q37 0 77.5 34.5t68.5 104.5q12 31 32.5 100.5t40.5 187.5q12 68 18.5 130t6.5 125q0 72 -9.5 147t-31.5 160h190 q23 -76 32.5 -156t9.5 -160q0 -100 -13 -196t-34 -181t-48 -154.5t-54 -116.5q-51 -88 -126.5 -136.5t-163.5 -48.5q-47 0 -84.5 14t-63.5 38t-41.5 56.5t-18.5 70.5q-17 -36 -44.5 -68.5t-63 -57t-78.5 -39t-92 -14.5z" />
<glyph unicode="&#x3f4;" d="M465 -29q-195 0 -289.5 110.5t-94.5 338.5q0 140 36 325q76 391 237 583t413 192q385 0 385 -452q0 -140 -36 -323q-76 -390 -237 -582t-414 -192zM928 881q8 56 12.5 105.5t4.5 93.5q0 66 -11 117.5t-36 86.5t-65 53.5t-98 18.5q-77 0 -135.5 -32.5t-103.5 -94 t-78.5 -149.5t-60.5 -199h571zM497 135q77 0 138 33.5t109 104t86 179.5t68 259h-577q-17 -88 -24.5 -161.5t-7.5 -133.5q0 -85 15 -140q40 -141 193 -141z" />
<glyph unicode="&#x400;" d="M576 1869h182l147 -264h-139zM344 1493h885l-33 -170h-684l-86 -442h653l-32 -170h-654l-104 -541h702l-33 -170h-905z" />
<glyph unicode="&#x401;" d="M556 1648q-15 0 -22.5 9t-4.5 24l28 142q4 27 32 27h143q28 0 28 -25q0 -5 -1 -8l-28 -142q-5 -27 -32 -27h-143zM947 1648q-15 0 -22.5 9t-4.5 24l28 142q4 27 32 27h143q28 0 28 -25q0 -5 -1 -8l-28 -142q-5 -27 -32 -27h-143zM344 1493h885l-33 -170h-684l-86 -442 h653l-32 -170h-654l-104 -541h702l-33 -170h-905z" />
<glyph unicode="&#x402;" d="M467 -470h-24t-24.5 0.5t-20.5 1t-13 0.5q1 1 33 181l75 -17q6 -1 12 -1.5t21 -0.5q69 0 119.5 17.5t87.5 58.5t62.5 108.5t45.5 167.5l81 416q13 65 13 117q0 94 -44.5 135t-137.5 41q-46 0 -94.5 -10t-99.5 -32q-28 -12 -45 -23t-32 -26q-40 -40 -72 -109t-49 -154 l-78 -401h-203l258 1325h-246l33 170h894l-33 -170h-445l-102 -525q12 11 22 19.5t21 16t24 14.5t31 16q2 1 3.5 2t6.5 3.5t15 7t28 13.5t38.5 16t46.5 13t59.5 10.5t77.5 7.5q13 1 23.5 1.5t25.5 0.5q77 0 134.5 -20t96.5 -64q6 -7 11 -14t9 -15q37 -65 37 -169 q0 -38 -5 -80.5t-14 -90.5l-86 -442q-28 -143 -73 -241.5t-114 -159.5t-165 -88t-225 -27z" />
<glyph unicode="&#x403;" d="M974 1866h208l-307 -264h-160zM380 1493h924l-33 -170h-721l-257 -1323h-203z" />
<glyph unicode="&#x404;" d="M589 -29q-95 0 -167 21t-125 57.5t-88.5 86.5t-57 107.5t-30.5 120.5t-9 127q0 115 27 253q37 186 106.5 330.5t166.5 243.5t219 150.5t263 51.5q177 0 314 -82l-41 -207q-128 125 -315 125q-95 0 -167.5 -33t-129.5 -98.5t-101.5 -164t-81.5 -229.5h627l-33 -170h-632 q-8 -44 -12 -90.5t-4 -84.5q0 -36 4.5 -76t16 -79t32.5 -74.5t55 -62.5t81.5 -43t113.5 -16q92 0 183 32.5t175 92.5l-41 -207q-168 -82 -349 -82z" />
<glyph unicode="&#x405;" d="M435 -29q-110 0 -210 22.5t-200 67.5l41 209q101 -72 203 -103.5t200 -31.5q88 0 158.5 23.5t119.5 65.5t75 100t26 128q0 40 -10 69.5t-35.5 53t-68 43.5t-107.5 41l-101 33q-93 30 -156.5 62t-102.5 70.5t-55.5 86.5t-16.5 111q0 109 44 200.5t122.5 157.5t186 103 t234.5 37q87 0 175 -19t190 -59l-39 -205q-163 119 -349 119q-83 0 -151 -22t-117.5 -60.5t-76.5 -91.5t-27 -116q0 -38 11 -66t37.5 -50.5t70 -42.5t108.5 -41l121 -39q86 -28 146 -61.5t97.5 -76.5t54 -96.5t16.5 -120.5q0 -112 -43 -204t-122.5 -158t-193 -102.5 t-255.5 -36.5z" />
<glyph unicode="&#x406;" d="M90 170h313l224 1153h-314l33 170h830l-33 -170h-314l-223 -1153h314l-33 -170h-830z" />
<glyph unicode="&#x407;" d="M523 1648q-15 0 -22.5 9t-4.5 24l28 142q4 27 32 27h143q28 0 28 -25q0 -5 -1 -8l-28 -142q-5 -27 -32 -27h-143zM914 1648q-15 0 -22.5 9t-4.5 24l28 142q4 27 32 27h143q28 0 28 -25q0 -5 -1 -8l-28 -142q-5 -27 -32 -27h-143zM90 170h313l224 1153h-314l33 170h830 l-33 -170h-314l-223 -1153h314l-33 -170h-830z" />
<glyph unicode="&#x408;" d="M381 -29q-110 0 -208 23t-198 67l45 236q78 -85 169 -123.5t197 -38.5q70 0 121 18t88 59t62 108.5t45 166.5l164 836h-381l33 170h584l-197 -1006q-28 -141 -69.5 -239.5t-104 -160t-148.5 -89t-202 -27.5z" />
<glyph unicode="&#x409;" d="M-97 164q47 0 81 6t58.5 21.5t42.5 41.5t32.5 65t29 93t33.5 126q11 43 23 94.5t26 117.5t30.5 149t37.5 189l83 426h544l-117 -600h21q59 0 117.5 -19.5t105 -62.5t75.5 -110t29 -161q0 -26 -5 -74.5t-25.5 -107.5t-62 -123t-113.5 -121q-73 -57 -150 -85.5t-144 -28.5 h-207l257 1323h-172l-49 -250q-19 -98 -38 -195.5t-39 -190t-43 -177.5t-51 -158t-62.5 -132.5t-76.5 -100.5q-32 -31 -62.5 -53.5t-65 -37t-77 -21.5t-98.5 -7zM687 166q45 0 88 18t79 53t62.5 85.5t38.5 115.5q5 26 7.5 55t2.5 47q0 35 -9 68.5t-29.5 60t-52.5 42.5 t-78 16h-21l-109 -561h21z" />
<glyph unicode="&#x40a;" d="M211 1493h186l-119 -612h395l119 612h186l-117 -600h21q90 0 152.5 -24t102.5 -65t58 -96t18 -117q0 -29 -4 -66.5t-12 -76.5q-24 -113 -76.5 -197.5t-120 -140t-143.5 -83t-148 -27.5h-207l138 711h-395l-138 -711h-186zM741 166q45 0 88 18t79 53t62.5 85.5t38.5 115.5 q5 26 7.5 54t2.5 46q0 34 -8.5 68t-28.5 61t-52 43.5t-80 16.5h-21l-109 -561h21z" />
<glyph unicode="&#x40b;" d="M292 1325h-246l33 170h894l-33 -170h-445l-102 -525q14 13 26 22t23.5 16.5t23.5 14t26 13.5q17 8 32.5 16t19.5 10q38 19 90 30.5t132 16.5q14 1 24.5 1.5t25.5 0.5q76 0 133.5 -20t96.5 -64q6 -7 11 -14t9 -15q37 -65 37 -173q0 -76 -18 -167l-95 -488h-203l90 462 q6 33 9.5 61.5t3.5 54.5q0 91 -44 134t-138 43q-49 0 -98 -11t-97 -31q-28 -12 -45 -23t-32 -26q-41 -40 -72 -108.5t-48 -154.5l-78 -401h-203z" />
<glyph unicode="&#x40c;" d="M1004 1852h208l-307 -264h-160zM366 1493h202l-127 -647l742 647h254l-703 -619l428 -874h-219l-360 741l-193 -168l-112 -573h-203z" />
<glyph unicode="&#x40d;" d="M556 1852h182l147 -264h-139zM285 1493h195l-239 -1229l743 1229h256l-290 -1493h-195l239 1229l-743 -1229h-256z" />
<glyph unicode="&#x40e;" d="M814 1613q-267 0 -267 205q0 9 0.5 18t1.5 19h119q1 -54 45 -82.5t129 -28.5q163 0 215 111h119q-35 -120 -126 -181t-236 -61zM92 172h109q40 0 73.5 12t62 34t54 53.5t49.5 70.5q10 16 21.5 35.5t22.5 38.5l-215 1077h217l150 -830l469 830h213l-619 -1068 q-46 -80 -92.5 -150t-88.5 -119q-24 -28 -53.5 -55.5t-67 -50t-84.5 -36.5t-106 -14h-148z" />
<glyph unicode="&#x40f;" d="M397 0h-394l290 1493h203l-257 -1323h553l257 1323h203l-290 -1493h-394l-62 -322h-171z" />
<glyph unicode="&#x410;" d="M644 1493h246l166 -1493h-201l-35 389h-520l-184 -389h-217zM806 551l-66 774l-364 -774h430z" />
<glyph unicode="&#x411;" d="M311 1493h902l-32 -166h-699l-88 -450h235q185 -8 295.5 -57.5t144.5 -148.5q9 -26 13.5 -58.5t4.5 -70.5q0 -54 -11 -114.5t-36 -119.5t-64.5 -112t-96.5 -92q-75 -52 -180.5 -78t-235.5 -26h-442zM495 166q88 0 153 15t110 46.5t72.5 81.5t41.5 121q9 45 9 83 q0 105 -68.5 152.5t-211.5 47.5h-239l-106 -547h239z" />
<glyph unicode="&#x412;" d="M313 1493h443q204 0 307.5 -79t103.5 -236q0 -76 -24 -141t-68 -114.5t-107 -81.5t-141 -42q136 -27 197 -108t61 -209q0 -110 -41 -199t-119 -152t-191.5 -97t-258.5 -34h-452zM639 877q75 0 135 18.5t102 54t64.5 85.5t22.5 113q0 94 -55.5 136.5t-180.5 42.5h-244 l-88 -450h244zM506 166q92 0 162.5 22.5t118.5 65t73 103t25 135.5q0 116 -65 168.5t-214 52.5h-241l-107 -547h248z" />
<glyph unicode="&#x413;" d="M380 1493h924l-33 -170h-721l-257 -1323h-203z" />
<glyph unicode="&#x414;" d="M974 170h121l-95 -492h-170l62 322h-827l-62 -322h-170l95 492h77q47 0 140 294q21 68 41.5 140.5t39.5 145t35 143t28 134.5l90 466h852zM995 1323h-446l-57 -297q-20 -107 -55.5 -245.5t-80.5 -296.5q-43 -148 -68 -226.5t-25 -69.5q0 -18 43 -18h465z" />
<glyph unicode="&#x415;" d="M344 1493h885l-33 -170h-684l-86 -442h653l-32 -170h-654l-104 -541h702l-33 -170h-905z" />
<glyph unicode="&#x416;" d="M360 891l-170 602h207l168 -595l116 595h187l-116 -595l400 595h207l-404 -602l131 -891h-197l-96 650l-125 -186l-90 -464h-187l90 464l-53 186l-348 -650h-197z" />
<glyph unicode="&#x417;" d="M412 -29q-95 0 -199 18t-201 56l38 201q91 -52 185.5 -78.5t190.5 -26.5q93 0 168.5 24.5t129 69t82.5 106.5t29 137q0 117 -71 177t-210 60h-153l32 166h154q79 0 142.5 19.5t108.5 55.5t69 86.5t24 113.5q0 100 -61.5 147t-189.5 47q-84 0 -180 -20t-210 -60l37 186 q124 33 220.5 48.5t175.5 15.5q96 0 172 -22t128.5 -64.5t80.5 -105t28 -142.5q0 -74 -23.5 -137.5t-67.5 -114t-107 -85t-142 -50.5q112 -21 177 -100t65 -219q0 -113 -44 -206.5t-125 -161t-196 -104.5t-257 -37z" />
<glyph unicode="&#x418;" d="M285 1493h195l-239 -1229l743 1229h256l-290 -1493h-195l239 1229l-743 -1229h-256z" />
<glyph unicode="&#x419;" d="M795 1608q-267 0 -267 205q0 9 0.5 18t1.5 19h119q1 -54 45 -82.5t129 -28.5q163 0 215 111h119q-35 -120 -126 -181t-236 -61zM285 1493h195l-239 -1229l743 1229h256l-290 -1493h-195l239 1229l-743 -1229h-256z" />
<glyph unicode="&#x41a;" d="M283 1493h202l-127 -647l742 647h254l-703 -619l428 -874h-219l-360 741l-193 -168l-112 -573h-203z" />
<glyph unicode="&#x41b;" d="M-74 164q47 0 82 6t61 21.5t45 41.5t35.5 65t31.5 93t34 126q11 43 23 94.5t26 117.5t30.5 149t37.5 189l83 426h814l-290 -1493h-203l257 1323h-408l-49 -250q-33 -165 -61.5 -312t-62 -269t-78 -216.5t-108.5 -155.5q-32 -30 -63 -52.5t-69 -37.5t-86 -22.5t-114 -7.5z " />
<glyph unicode="&#x41c;" d="M237 1493h269l110 -756l414 756h270l-291 -1493h-186l258 1327l-434 -795h-141l-115 795l-256 -1327h-186z" />
<glyph unicode="&#x41d;" d="M283 1493h202l-118 -612h553l118 612h203l-291 -1493h-202l139 711h-555l-137 -711h-203z" />
<glyph unicode="&#x41e;" d="M490 -29q-398 0 -398 488q0 128 23.5 263t61.5 253q31 97 66 170t71 127q84 125 194 186.5t253 61.5q201 0 300.5 -119.5t99.5 -363.5q0 -60 -6 -125.5t-17.5 -132.5t-27.5 -133.5t-36 -129.5q-30 -94 -65 -168t-72 -129q-85 -128 -196 -188t-251 -60zM507 135 q49 0 90 13.5t75 39t62.5 62t53.5 83.5t47 104t40 119.5t33 128t25 131t15.5 127.5t5.5 117q0 66 -9.5 120.5t-33 93.5t-64 60.5t-103.5 21.5q-49 0 -89.5 -13.5t-74 -38.5t-62 -62t-53.5 -83q-38 -71 -68.5 -162t-53 -189.5t-34.5 -196t-12 -179.5q0 -69 10 -124.5 t34 -93.5t64.5 -58.5t101.5 -20.5z" />
<glyph unicode="&#x41f;" d="M283 1493h959l-290 -1493h-203l257 1323h-553l-257 -1323h-203z" />
<glyph unicode="&#x420;" d="M342 1493h440q205 0 313.5 -91t108.5 -280q0 -117 -41.5 -213t-119 -165t-188.5 -106.5t-251 -37.5h-233l-117 -600h-203zM637 766q82 0 149 25t114.5 70.5t73 109t25.5 139.5q0 112 -61 164.5t-193 52.5h-233l-109 -561h234z" />
<glyph unicode="&#x421;" d="M590 -29q-115 0 -205 32.5t-151.5 98.5t-94 165t-32.5 232q0 102 18.5 208.5t52 207t80.5 190.5t103 161q102 128 234.5 191t288.5 63q86 0 162.5 -20t157.5 -62l-41 -207q-126 125 -287 125q-97 0 -178 -41.5t-149 -122.5q-51 -61 -93.5 -141.5t-73 -171t-47.5 -186 t-17 -185.5q0 -191 77.5 -282t222.5 -91q88 0 178.5 32t178.5 93l-39 -207q-167 -82 -346 -82z" />
<glyph unicode="&#x422;" d="M659 1323h-469l33 170h1140l-33 -170h-469l-256 -1323h-204z" />
<glyph unicode="&#x423;" d="M92 172h109q40 0 73.5 12t62 34t54 53.5t49.5 70.5q10 16 21.5 35.5t22.5 38.5l-215 1077h217l150 -830l469 830h213l-619 -1068q-46 -80 -92.5 -150t-88.5 -119q-24 -28 -53.5 -55.5t-67 -50t-84.5 -36.5t-106 -14h-148z" />
<glyph unicode="&#x424;" d="M406 152q-68 4 -117.5 14t-84.5 27.5t-58 43t-39 60.5q-12 26 -21.5 57.5t-16.5 66t-10.5 70t-3.5 68.5q0 43 5.5 95.5t15.5 107.5q24 133 68 243.5t113 191t164.5 126t221.5 48.5l24 122h203l-24 -122q88 -3 148.5 -22.5t100 -50t61 -69t31.5 -79.5t11.5 -82.5 t1.5 -77.5q0 -107 -23 -228q-25 -132 -67.5 -242t-110 -190.5t-163.5 -127t-227 -50.5l-29 -152h-203zM612 1207q-87 -14 -141.5 -49t-88.5 -89t-53.5 -124.5t-35.5 -154.5q-11 -57 -17.5 -94.5t-10 -63.5t-4.5 -44.5t-2 -36.5q-1 -16 -1.5 -31t-0.5 -29q0 -31 6 -58.5 t25 -50t54.5 -39.5t95.5 -27zM641 316q76 10 130 43t91.5 87t61 126.5t39.5 160.5q8 43 13.5 82.5t9 71t5.5 54t3 32.5q1 14 1.5 27.5t0.5 25.5q0 37 -7.5 66.5t-27.5 52t-55.5 38t-90.5 24.5z" />
<glyph unicode="&#x425;" d="M530 797l-288 696h200l224 -532l440 532h231l-596 -719l324 -774h-201l-254 612l-506 -612h-231z" />
<glyph unicode="&#x426;" d="M889 0h-923l290 1493h203l-257 -1323h553l257 1323h203l-257 -1323h134l-95 -492h-170z" />
<glyph unicode="&#x427;" d="M872 658q-59 -27 -107 -43t-91 -24.5t-82 -11t-80 -2.5q-67 0 -115 5t-82.5 16.5t-59 30t-44.5 46.5q-22 31 -33 66.5t-11 88.5q0 30 3.5 71t11.5 79l100 513h203l-95 -487q-6 -32 -9 -63t-3 -54q0 -40 8 -57.5t20 -28.5q26 -24 69 -32t118 -8q46 0 83.5 3t73.5 13.5 t74.5 30t86.5 51.5l123 632h203l-290 -1493h-203z" />
<glyph unicode="&#x428;" d="M267 1493h186l-257 -1323h224l257 1323h186l-257 -1323h224l257 1323h186l-290 -1493h-1006z" />
<glyph unicode="&#x429;" d="M943 0h-970l290 1493h186l-257 -1323h224l257 1323h186l-257 -1323h224l257 1323h186l-257 -1323h134l-95 -492h-170z" />
<glyph unicode="&#x42a;" d="M414 1323h-261l33 170h463l-117 -600h138q218 0 326 -84.5t108 -245.5q0 -54 -12 -117q-22 -112 -72 -196t-125.5 -139.5t-175.5 -83t-222 -27.5h-340zM529 166q142 0 234 73t118 207q7 35 7 70q0 101 -64.5 156t-185.5 55h-138l-109 -561h138z" />
<glyph unicode="&#x42b;" d="M211 1493h202l-117 -600h91q87 0 156.5 -22t118 -65t75 -105.5t26.5 -143.5q0 -26 -2.5 -54t-8.5 -57q-22 -111 -73 -194.5t-123 -139.5t-159.5 -84t-182.5 -28h-293zM1077 1493h203l-290 -1493h-203zM246 166q52 0 99 16t86 50.5t67.5 87t42.5 126.5q9 46 9 87 q0 93 -48.5 143.5t-146.5 50.5h-91l-109 -561h91z" />
<glyph unicode="&#x42c;" d="M342 1493h202l-117 -600h234q218 0 326 -84.5t108 -245.5q0 -54 -12 -117q-22 -112 -72 -196t-125.5 -139.5t-175.5 -83t-222 -27.5h-436zM520 166q142 0 234 73t118 207q7 35 7 70q0 101 -64.5 156t-185.5 55h-234l-109 -561h234z" />
<glyph unicode="&#x42d;" d="M336 -29q-178 0 -315 82l41 207q63 -63 142.5 -94t165.5 -31q99 0 179 39.5t141.5 110t104.5 166.5t68 210h-632l33 170h627q4 48 6 98.5t2 88.5q0 39 -3.5 79.5t-14 78t-29.5 70.5t-50.5 57.5t-77.5 38.5t-110 14q-186 0 -364 -125l41 207q168 82 348 82q94 0 166 -21 t125.5 -58t89 -87t57.5 -108.5t31 -122t9 -127.5q0 -116 -27 -252q-36 -184 -105 -328t-165.5 -243t-218.5 -150.5t-265 -51.5z" />
<glyph unicode="&#x42e;" d="M661 -29q-150 0 -219.5 103.5t-69.5 297.5q0 65 7 138t21 156h-111l-130 -666h-203l291 1493h203l-128 -657h111q36 159 85.5 285.5t114.5 215t146.5 136t183.5 47.5q106 0 171.5 -50t93.5 -142q13 -43 19 -97.5t6 -117.5q0 -77 -8.5 -162.5t-24.5 -173.5t-38.5 -175.5 t-50.5 -167.5t-60.5 -149.5t-68.5 -121.5q-63 -91 -148.5 -141.5t-192.5 -50.5zM695 135q54 0 101 36t82 105q22 43 44.5 107.5t43 141t38.5 160.5t31.5 166.5t21 157.5t7.5 135q0 20 -1 38t-3 33q-8 66 -39.5 103.5t-88.5 37.5q-51 0 -97 -34t-84 -107q-23 -45 -46 -111 t-44 -143.5t-38.5 -161t-30.5 -165t-20.5 -156t-7.5 -132.5q0 -20 1 -37.5t3 -32.5q8 -66 39.5 -103.5t87.5 -37.5z" />
<glyph unicode="&#x42f;" d="M399 666q-100 39 -160 114t-60 179q0 41 11 102q20 106 69.5 186.5t125.5 135t176 82.5t221 28h466l-290 -1493h-203l123 631h-290l-473 -631h-214zM910 797l103 530h-263q-145 0 -233.5 -68t-113.5 -198q-4 -20 -6 -39t-2 -37q0 -188 244 -188h271z" />
<glyph unicode="&#x430;" d="M404 -29q-75 0 -136.5 21.5t-105 62t-67 98.5t-23.5 130q0 94 40 172t114.5 134t180.5 87t238 31h246l12 61q2 9 3 19t1 20q0 94 -62.5 139t-179.5 45q-175 0 -397 -102l35 180q109 39 205 58.5t185 19.5q93 0 166.5 -21.5t124 -61t77 -96.5t26.5 -129q0 -34 -6 -85.5 t-18 -114.5l-125 -639h-164l12 166q-72 -93 -168 -144t-214 -51zM461 125q67 0 130 26.5t115.5 77t91.5 124.5t58 169l8 41h-172q-56 0 -98.5 -1.5t-75 -5.5t-58 -10.5t-46.5 -15.5q-68 -29 -109 -87t-41 -136q0 -84 51 -133t146 -49z" />
<glyph unicode="&#x431;" d="M504 -29q-116 0 -190.5 34.5t-117.5 90.5t-60 127.5t-17 145.5q0 38 4 79.5t12 79.5q10 46 14 67t5 26l25 167q12 79 25.5 143t29.5 117t35.5 97t43.5 83q47 77 107 132t126.5 92.5t136 60t136.5 35t127.5 17.5t108.5 8q13 1 24 2t21 2.5t20.5 5t23.5 8.5l43 -142 q-23 -8 -45 -12t-45 -6l-244 -24q-50 -5 -91.5 -16.5t-91.5 -36.5q-109 -54 -177 -124.5t-93 -145.5l-20 -60q71 61 162.5 92t197.5 31q114 0 188 -33.5t116.5 -89t59.5 -126t17 -144.5q0 -48 -5.5 -98t-14.5 -98q-27 -141 -79 -250.5t-127.5 -184t-173.5 -113.5t-217 -39z M534 127q68 0 127.5 26.5t107.5 80t83 134.5t55 191q9 49 13.5 97.5t4.5 83.5q0 121 -54 186t-164 65q-137 0 -234.5 -108t-136.5 -324q-8 -46 -13 -93.5t-5 -85.5q0 -42 8 -87t31.5 -81.5t66 -60.5t110.5 -24z" />
<glyph unicode="&#x432;" d="M338 1120h397q85 0 146 -19t100.5 -49.5t58 -70t18.5 -80.5q0 -12 -1.5 -24t-3.5 -24q-20 -112 -83 -176t-160 -77q65 -13 103.5 -34t59 -47t26.5 -56.5t6 -63.5q0 -102 -37.5 -177t-102 -124.5t-150.5 -73.5t-182 -24h-413zM661 665q42 0 79 13t64.5 36.5t43.5 57.5 t16 76q0 23 -6 45t-22 39t-44 27.5t-72 10.5h-227l-60 -305h228zM572 150q34 0 68.5 9t65 28.5t54.5 51t38 76.5q12 40 12 74q0 26 -7 48t-21 39q-7 8 -17 15t-25.5 12.5t-38 8.5t-54.5 3h-243l-71 -365h239z" />
<glyph unicode="&#x433;" d="M394 1120h752l-29 -150h-568l-189 -970h-184z" />
<glyph unicode="&#x434;" d="M44 150h67q18 0 38 32.5t39.5 83.5t38 114t34 124.5t27.5 114.5t18 85l81 416h748l-189 -970h121l-85 -436h-150l56 286h-723l-56 -286h-150zM761 150l159 820h-380l-52 -270q-2 -10 -9.5 -42t-18.5 -79t-26 -105t-32 -121q-8 -31 -16.5 -60t-15 -51.5t-11.5 -36.5 t-6 -14q-12 -20 -12 -29q0 -12 32 -12h388z" />
<glyph unicode="&#x435;" d="M556 -29q-227 0 -342.5 111t-115.5 325q0 78 15.5 156t44.5 151t71 139t95 120q84 87 183.5 131.5t211.5 44.5q92 0 167 -30t128.5 -84.5t82.5 -132t29 -171.5q0 -36 -5 -86.5t-17 -128.5h-807q-6 -32 -9 -58t-3 -52q0 -133 76 -206t223 -73q90 0 194 28t219 85l-36 -183 q-106 -43 -205.5 -64.5t-199.5 -21.5zM938 659q6 27 8 45t2 35q0 59 -17 106t-48.5 79.5t-76 49.5t-99.5 17q-65 0 -123.5 -23.5t-107 -67t-85.5 -105t-59 -136.5h606z" />
<glyph unicode="&#x436;" d="M348 716l-160 404h199l171 -432l84 432h168l-84 -432l339 432h199l-318 -404l120 -716h-179l-88 528l-139 -177l-68 -351h-168l68 351l-69 177l-294 -528h-179z" />
<glyph unicode="&#x437;" d="M426 -22q-94 0 -181.5 14t-178.5 42l34 173q69 -34 156.5 -51.5t185.5 -17.5q95 0 169 16t125 46t77.5 71.5t26.5 92.5q0 76 -72 122t-212 46h-158l28 144h165q69 0 123 11.5t92.5 31.5t62 47t31.5 58q4 13 4 28q0 59 -66.5 95.5t-197.5 36.5q-71 0 -160 -12.5 t-198 -39.5l32 167q220 48 376 48q94 0 169 -16.5t127 -47.5t80 -76t28 -102q0 -22 -5 -50q-20 -97 -97 -160t-200 -88q112 -21 171.5 -78.5t59.5 -149.5q0 -12 -1.5 -25t-3.5 -27q-13 -77 -59 -141.5t-121.5 -110.5t-179 -71.5t-232.5 -25.5z" />
<glyph unicode="&#x438;" d="M304 1120h184l-157 -809l644 809h184l-218 -1120h-184l157 809l-644 -809h-184z" />
<glyph unicode="&#x439;" d="M747 1261q-134 0 -206 64t-72 182q0 17 0.5 25t2.5 16h120v-17q0 -66 43.5 -99.5t125.5 -33.5q85 0 137 37.5t81 112.5h119q-33 -144 -122.5 -215.5t-228.5 -71.5zM304 1120h184l-157 -809l644 809h184l-218 -1120h-184l157 809l-644 -809h-184z" />
<glyph unicode="&#x43a;" d="M325 1120h190l-91 -465l574 465h224l-523 -422l374 -698h-225l-302 578l-162 -129l-87 -449h-190z" />
<glyph unicode="&#x43b;" d="M-39 150h35q46 0 81.5 14t63.5 45t50.5 80t43.5 119q12 39 22.5 81.5t19.5 84t16.5 79.5t13.5 69l78 398h785l-218 -1120h-184l189 970h-417l-48 -245q-15 -76 -33 -161.5t-44.5 -168.5t-63.5 -158.5t-88 -130.5q-25 -27 -52.5 -46.5t-60.5 -33t-73 -20t-90 -6.5h-55z " />
<glyph unicode="&#x43c;" d="M169 1120h184l241 -691l509 691h184l-218 -1120h-184l144 741l-376 -481h-184l-190 481l-144 -741h-184z" />
<glyph unicode="&#x43d;" d="M304 1120h184l-89 -455h487l89 455h184l-218 -1120h-184l100 515h-487l-100 -515h-184z" />
<glyph unicode="&#x43e;" d="M514 -29q-196 0 -296.5 109t-100.5 312q0 67 11 136.5t31 137t49.5 130t65.5 115.5q81 118 190.5 177t252.5 59q193 0 295 -106.5t102 -316.5q0 -65 -10 -133.5t-30 -135t-49 -130t-67 -118.5q-80 -116 -189.5 -176t-254.5 -60zM524 127q67 0 122.5 24.5t99.5 67t76.5 99 t54.5 121t32.5 133.5t10.5 135q0 149 -52.5 216.5t-158.5 67.5q-67 0 -122.5 -24.5t-99.5 -67t-76.5 -99t-54.5 -121t-32.5 -133.5t-10.5 -135q0 -149 52.5 -216.5t158.5 -67.5z" />
<glyph unicode="&#x43f;" d="M304 1120h855l-218 -1120h-184l189 970h-487l-189 -970h-184z" />
<glyph unicode="&#x440;" d="M299 1120h164l-8 -143q63 84 148 127t188 43q80 0 142.5 -26.5t106 -78t66 -127t22.5 -173.5q0 -66 -10 -136.5t-29.5 -140t-47 -134.5t-62.5 -120q-72 -115 -173.5 -177.5t-227.5 -62.5q-100 0 -170 41.5t-115 128.5l-111 -567h-184zM568 127q86 0 149.5 44t111.5 131 q24 45 43.5 98t33 109t21 112.5t7.5 108.5q0 134 -50.5 197.5t-154.5 63.5q-92 0 -157 -47t-113 -132q-24 -44 -43.5 -95.5t-33 -106t-21 -109t-7.5 -104.5q0 -139 55.5 -204.5t158.5 -65.5z" />
<glyph unicode="&#x441;" d="M586 -29q-221 0 -335.5 111.5t-114.5 331.5q0 75 13.5 148.5t39 142.5t62 131t83.5 114q88 97 202 147t249 50q174 0 332 -86l-37 -182q-66 58 -136 85t-156 27q-115 0 -197 -45.5t-142 -132.5q-28 -41 -50 -88.5t-37.5 -98.5t-23.5 -104t-8 -104q0 -149 68.5 -220 t208.5 -71q92 0 180 31t172 94l-39 -201q-73 -39 -156 -59.5t-178 -20.5z" />
<glyph unicode="&#x442;" d="M607 970h-311l29 150h806l-29 -150h-311l-189 -970h-184z" />
<glyph unicode="&#x443;" d="M20 -272h108q42 0 77 12t66 37.5t59.5 64.5t55.5 92l43 84l-217 1102h183l172 -862l483 862h205l-439 -760q-25 -43 -49.5 -86t-46.5 -81.5l-40 -70t-29 -50.5q-79 -138 -128.5 -222t-80.5 -126q-60 -79 -136 -114.5t-167 -35.5h-148z" />
<glyph unicode="&#x444;" d="M405 -29q-108 11 -173.5 44.5t-100.5 81.5t-46.5 105.5t-11.5 116.5q0 39 4 91.5t13.5 112.5t25 124t38.5 126t54.5 118.5t73.5 100.5q123 132 351 155l80 409h184l-80 -409q109 -11 174.5 -44.5t101 -81t46.5 -104t11 -113.5q0 -38 -4 -90.5t-13 -112.5t-25 -125 t-39 -128t-55 -120t-74 -101q-61 -65 -149 -105t-202 -51l-78 -397h-184zM601 982q-68 -14 -116 -38.5t-81.5 -66.5t-57 -106t-43.5 -158q-17 -82 -27 -157t-10 -126q0 -33 6 -64.5t24 -58.5t51.5 -48t87.5 -32zM619 127q66 14 113.5 38.5t82 67.5t58.5 109t45 163 q20 93 28.5 165.5t8.5 115.5q0 33 -6 63.5t-24.5 56t-52 45.5t-87.5 31z" />
<glyph unicode="&#x445;" d="M515 596l-293 524h196l217 -395l369 395h225l-512 -547l318 -573h-197l-244 444l-417 -444h-226z" />
<glyph unicode="&#x446;" d="M887 0h-844l218 1120h184l-189 -970h486l189 970h184l-189 -970h140l-85 -436h-150z" />
<glyph unicode="&#x447;" d="M811 466q-8 -3 -35.5 -13.5t-69.5 -21.5t-96.5 -20t-117.5 -9q-85 0 -144 18t-95.5 50.5t-53 77.5t-16.5 99q0 49 12 108l71 367h184l-71 -367q-6 -30 -6 -56q0 -78 52 -107.5t162 -29.5q60 0 121.5 11t132.5 48l97 501h184l-218 -1122h-184z" />
<glyph unicode="&#x448;" d="M234 1120h168l-189 -970h240l189 970h168l-189 -970h240l189 970h168l-218 -1120h-984z" />
<glyph unicode="&#x449;" d="M977 0h-978l218 1120h168l-189 -970h240l189 970h168l-189 -970h240l189 970h168l-189 -970h144l-85 -436h-150z" />
<glyph unicode="&#x44a;" d="M358 970h-248l29 150h432l-88 -453h256q114 0 189 -21.5t119.5 -59t62 -87.5t17.5 -107q0 -30 -6 -69t-24 -81t-52 -83.5t-90 -76.5q-131 -82 -346 -82h-440zM631 153q259 0 293 181q2 11 3 21.5t1 18.5q0 140 -227 140h-248l-70 -361h248z" />
<glyph unicode="&#x44b;" d="M213 1120h182l-88 -453h91q105 0 178.5 -20t120 -54.5t68 -82t21.5 -102.5q0 -19 -2 -37.5t-6 -38.5q-32 -168 -164 -250t-346 -82h-273zM1054 1120h184l-218 -1120h-184zM290 153q259 0 293 181q2 11 3 21.5t1 18.5q0 140 -227 140h-83l-70 -361h83z" />
<glyph unicode="&#x44c;" d="M335 1120h184l-88 -453h256q186 0 287 -65t101 -196q0 -17 -1.5 -35.5t-5.5 -38.5q-31 -164 -160.5 -248t-349.5 -84h-440zM579 153q129 0 201.5 43.5t90.5 135.5q2 11 3.5 21.5t1.5 21.5q0 74 -60 106.5t-166 32.5h-248l-71 -361h248z" />
<glyph unicode="&#x44d;" d="M421 -29q-92 0 -164.5 21.5t-139.5 64.5l38 191q103 -121 283 -121q88 0 159 27t126 77.5t93.5 122.5t61.5 162h-542l28 144h537q1 10 1 19v18q0 55 -13 108t-46 94.5t-88.5 66.5t-140.5 25q-91 0 -174.5 -30.5t-164.5 -92.5l38 193q42 21 82.5 37t82 27t84.5 16.5 t90 5.5q124 0 209.5 -36t138 -95.5t75.5 -136.5t23 -158q0 -38 -4.5 -78t-12.5 -84q-27 -139 -86.5 -248.5t-145.5 -185t-194.5 -115t-233.5 -39.5z" />
<glyph unicode="&#x44e;" d="M700 -29q-75 0 -129 32.5t-89.5 86.5t-52 124.5t-16.5 147.5q0 29 2 59.5t6 62.5h-142l-94 -484h-184l218 1120h184l-94 -486h142q33 128 83.5 224.5t113 160.5t135 96t149.5 32q76 0 131 -29t90.5 -80t52.5 -120t17 -149q0 -34 -3.5 -82.5t-13 -105.5t-25.5 -119 t-41 -123.5t-60 -119.5t-82 -107q-66 -68 -142.5 -104.5t-155.5 -36.5zM731 127q43 0 84 30.5t77 88.5t65.5 141t50.5 188q21 103 21 179q0 38 -6 79.5t-20.5 76.5t-38 57.5t-59.5 22.5q-39 0 -79.5 -30t-78 -86t-68.5 -137.5t-52 -183.5q-11 -56 -16 -102.5t-5 -85.5 q0 -32 4 -73.5t17.5 -78t38 -61.5t65.5 -25z" />
<glyph unicode="&#x44f;" d="M429 479q-25 12 -55 31t-55.5 47t-43 65.5t-17.5 85.5q0 17 2.5 40.5t7.5 49.5q18 86 60 147t100.5 100t129 57t143.5 18h397l-218 -1120h-184l89 455h-193l-347 -455h-181zM814 605l71 365h-227q-29 0 -61.5 -11t-61.5 -33.5t-51.5 -57t-31.5 -81.5q-2 -14 -3.5 -26 t-1.5 -23q0 -30 11.5 -54.5t31 -42t44.5 -27t52 -9.5h228z" />
<glyph unicode="&#x450;" d="M453 1675h198l197 -376h-143zM556 -29q-227 0 -342.5 111t-115.5 325q0 78 15.5 156t44.5 151t71 139t95 120q84 87 183.5 131.5t211.5 44.5q92 0 167 -30t128.5 -84.5t82.5 -132t29 -171.5q0 -36 -5 -86.5t-17 -128.5h-807q-6 -32 -9 -58t-3 -52q0 -133 76 -206t223 -73 q90 0 194 28t219 85l-36 -183q-106 -43 -205.5 -64.5t-199.5 -21.5zM938 659q6 27 8 45t2 35q0 59 -17 106t-48.5 79.5t-76 49.5t-99.5 17q-65 0 -123.5 -23.5t-107 -67t-85.5 -105t-59 -136.5h606z" />
<glyph unicode="&#x451;" d="M494 1349q-15 0 -22.5 9t-4.5 24l28 142q4 27 32 27h143q28 0 28 -25q0 -5 -1 -8l-28 -142q-5 -27 -32 -27h-143zM885 1349q-15 0 -22.5 9t-4.5 24l28 142q4 27 32 27h143q28 0 28 -25q0 -5 -1 -8l-28 -142q-5 -27 -32 -27h-143zM556 -29q-227 0 -342.5 111t-115.5 325 q0 78 15.5 156t44.5 151t71 139t95 120q84 87 183.5 131.5t211.5 44.5q92 0 167 -30t128.5 -84.5t82.5 -132t29 -171.5q0 -36 -5 -86.5t-17 -128.5h-807q-6 -32 -9 -58t-3 -52q0 -133 76 -206t223 -73q90 0 194 28t219 85l-36 -183q-106 -43 -205.5 -64.5t-199.5 -21.5z M938 659q6 27 8 45t2 35q0 59 -17 106t-48.5 79.5t-76 49.5t-99.5 17q-65 0 -123.5 -23.5t-107 -67t-85.5 -105t-59 -136.5h606z" />
<glyph unicode="&#x452;" d="M480 -261q64 10 127.5 55t118.5 119.5t97.5 177.5t64.5 231q5 30 8.5 60t3.5 56q0 91 -44.5 134t-138.5 43q-141 0 -227.5 -92.5t-119.5 -261.5l-51 -261h-184l190 977h-190l28 143h190l85 436h184l-85 -436h448l-28 -143h-448l-77 -397q66 95 160.5 145t215.5 50 q146 0 218 -73t72 -214q0 -35 -4 -79t-12 -87q-25 -146 -79.5 -273.5t-135 -226t-186 -163t-233.5 -85.5z" />
<glyph unicode="&#x453;" d="M982 1646h219l-395 -376h-156zM380 1120h752l-29 -150h-568l-189 -970h-184z" />
<glyph unicode="&#x454;" d="M586 -29q-104 0 -187 28t-140.5 82.5t-88.5 134.5t-31 184q0 76 16 159q27 141 87.5 250.5t146.5 184.5t194.5 114t233.5 39q82 0 154.5 -19t147.5 -67l-38 -193q-61 67 -130 95t-155 28q-91 0 -160 -27t-119.5 -72.5t-85 -105.5t-56.5 -127l537 1l-28 -144h-542 q-4 -25 -5.5 -48.5t-1.5 -46.5q0 -68 17 -122t53 -92.5t91.5 -59t132.5 -20.5q90 0 172.5 29t159.5 92l-38 -191q-83 -43 -164 -64.5t-173 -21.5z" />
<glyph unicode="&#x455;" d="M476 -29q-87 0 -174 17.5t-187 52.5l37 190q187 -106 353 -106q67 0 122.5 16t95.5 43.5t62 64t22 76.5q0 114 -196 162l-28 7l-67 18q-128 34 -189 96t-61 170q0 84 34 152t97.5 116.5t154 74.5t202.5 26q177 0 323 -66l-35 -180q-72 45 -149 68.5t-162 23.5 q-66 0 -118.5 -14t-89 -38.5t-55.5 -58t-19 -72.5q0 -29 11.5 -52t37.5 -43t68 -37t104 -33q16 -5 22 -6l72 -18q120 -30 176.5 -93t56.5 -163q0 -84 -37.5 -156t-106 -125t-164.5 -83t-213 -30z" />
<glyph unicode="&#x456;" d="M627 1323q-15 0 -22.5 9t-4.5 24l34 173q4 27 32 27h124q15 0 22.5 -9t4.5 -24l-34 -173q-5 -27 -32 -27h-124zM749 -8q-174 0 -257 64q-85 64 -85 192q0 17 1.5 33.5t3.5 36.5t5.5 42t8.5 44l133 572h-246l29 144h430l-162 -720q-4 -16 -6.5 -35t-3.5 -27 q-2 -16 -3 -25.5t-1 -19.5q0 -74 44 -109q45 -36 136 -36h211l-31 -156h-207z" />
<glyph unicode="&#x457;" d="M360 1350q-15 0 -22.5 9t-4.5 24l28 142q4 27 32 27h143q15 0 22.5 -9t4.5 -24l-28 -142q-5 -27 -32 -27h-143zM751 1350q-15 0 -22.5 9t-4.5 24l28 142q4 27 32 27h143q15 0 22.5 -9t4.5 -24l-28 -142q-5 -27 -32 -27h-143zM749 -8q-174 0 -257 64q-85 64 -85 192 q0 17 1.5 33.5t3.5 36.5t5.5 42t8.5 44l133 572h-246l29 144h430l-162 -720q-4 -16 -6.5 -35t-3.5 -27q-2 -16 -3 -25.5t-1 -19.5q0 -74 44 -109q45 -36 136 -36h211l-31 -156h-207z" />
<glyph unicode="&#x458;" d="M823 1556h184l-45 -233h-184zM55 -270h233q97 0 151 60.5t79 189.5l192 997h-317l28 143h502l-221 -1140q-21 -107 -56 -183.5t-86.5 -126t-121.5 -73t-160 -23.5h-254z" />
<glyph unicode="&#x459;" d="M-71 150h35q46 0 81.5 14t63.5 45t50.5 80t43.5 119q12 39 22.5 81.5t19.5 84t16.5 79.5t13.5 69l78 398h565l-88 -453h21q82 0 145.5 -19.5t107 -55.5t65.5 -87.5t22 -115.5q0 -25 -5.5 -62.5t-23.5 -79.5t-52.5 -85t-92.5 -80q-65 -42 -140.5 -62t-155.5 -20h-189 l189 970h-229l-48 -245q-15 -76 -33.5 -161.5t-45 -169t-63 -159t-87.5 -130.5q-24 -26 -51.5 -46t-60.5 -33t-73.5 -19.5t-90.5 -6.5h-39zM743 153q208 0 228 104q10 52 15 82.5t5 50.5q0 58 -44 91t-134 33h-13l-70 -361h13z" />
<glyph unicode="&#x45a;" d="M217 1120h168l-89 -455h364l89 455h168l-88 -453h21q83 0 146.5 -19.5t106 -56t64.5 -88t22 -115.5q0 -25 -5.5 -62t-23.5 -79t-52 -85t-92 -80q-65 -42 -140.5 -62t-155.5 -20h-189l100 515h-364l-100 -515h-168zM742 153q103 0 164.5 44t78.5 137q2 13 3.5 24.5 t1.5 23.5q0 132 -178 132h-13l-70 -361h13z" />
<glyph unicode="&#x45b;" d="M305 977h-190l27 143h190l85 436h184l-85 -436h448l-27 -143h-448l-77 -397q136 195 368 195q139 0 205.5 -71t66.5 -216q0 -41 -5 -80.5t-14 -85.5l-62 -322h-185l62 322q13 65 13 112q0 181 -175 181q-131 0 -217 -91.5t-119 -262.5l-51 -261h-184z" />
<glyph unicode="&#x45c;" d="M948 1646h219l-395 -376h-156zM328 1120h190l-91 -465l574 465h224l-523 -422l374 -698h-225l-302 578l-162 -129l-87 -449h-190z" />
<glyph unicode="&#x45d;" d="M487 1646h198l197 -376h-143zM304 1120h184l-157 -809l644 809h184l-218 -1120h-184l157 809l-644 -809h-184z" />
<glyph unicode="&#x45e;" d="M777 1261q-134 0 -206 64t-72 182q0 17 0.5 25t2.5 16h120v-17q0 -66 43.5 -99.5t125.5 -33.5q85 0 137 37.5t81 112.5h119q-33 -144 -122.5 -215.5t-228.5 -71.5zM20 -272h108q42 0 77 12t66 37.5t59.5 64.5t55.5 92l43 84l-217 1102h183l172 -862l483 862h205 l-439 -760q-25 -43 -49.5 -86t-46.5 -81.5l-40 -70t-29 -50.5q-79 -138 -128.5 -222t-80.5 -126q-60 -79 -136 -114.5t-167 -35.5h-148z" />
<glyph unicode="&#x45f;" d="M446 0h-352l218 1120h184l-189 -970h487l189 970h184l-218 -1120h-352l-56 -286h-151z" />
<glyph unicode="&#x462;" d="M363 1105h-261l32 164h261l43 224h202l-43 -224h369l-32 -164h-369l-42 -212h138q218 0 326 -84.5t108 -245.5q0 -54 -12 -117q-22 -112 -72 -196t-125.5 -139.5t-175.5 -83t-222 -27.5h-340zM520 166q69 0 127.5 18.5t104 54t76.5 87.5t44 120q7 34 7 69 q0 103 -65 157.5t-185 54.5h-138l-109 -561h138z" />
<glyph unicode="&#x463;" d="M353 973h-248l29 147h248l84 436h184l-84 -436h425l-29 -147h-425l-59 -306h256q186 0 287 -65t101 -196q0 -17 -1.5 -35.5t-5.5 -38.5q-32 -166 -164 -249t-347 -83h-440zM626 156q128 0 202 45t91 133q2 10 3 19t1 18q0 72 -59 107.5t-168 35.5h-248l-70 -358h248z" />
<glyph unicode="&#x472;" d="M465 -29q-191 0 -287.5 110.5t-96.5 339.5q0 139 36 324q75 385 234 580t416 195q196 0 290.5 -113t94.5 -339q0 -140 -36 -323q-76 -390 -237 -582t-414 -192zM920 828q12 73 18.5 135t6.5 115q0 140 -49 209t-161 69q-77 0 -136 -33t-105.5 -99t-82.5 -165t-66 -231 h575zM498 135q76 0 135.5 32.5t105.5 96.5t81 159t64 221h-574q-11 -66 -16.5 -124t-5.5 -108q0 -135 48 -206t162 -71z" />
<glyph unicode="&#x473;" d="M502 -29q-192 0 -289 100.5t-97 292.5q0 88 21 195q28 143 79 251.5t129 185.5q80 79 176 115t208 36q193 0 290.5 -100t97.5 -294q0 -88 -21 -194q-56 -286 -207.5 -437t-386.5 -151zM910 611q5 32 7.5 62t2.5 58q0 122 -52.5 191t-167.5 69q-70 0 -126.5 -26.5 t-101 -75.5t-76.5 -119.5t-53 -158.5h567zM532 127q70 0 125 25t96 68.5t70.5 102t49.5 124.5h-557q-3 -32 -3 -60q0 -56 11 -103.5t36.5 -82t67.5 -54.5t104 -20z" />
<glyph unicode="&#x490;" d="M390 1493h754l63 306h167l-93 -476h-721l-257 -1323h-203z" />
<glyph unicode="&#x491;" d="M395 1120h568l61 314h185l-98 -498h-568l-182 -936h-184z" />
<glyph unicode="&#x492;" d="M254 830h-130l33 170h130l96 493h924l-33 -170h-721l-63 -323h547l-33 -170h-547l-161 -830h-203z" />
<glyph unicode="&#x493;" d="M293 500h-130l33 170h130l88 450h752l-36 -184h-568l-52 -266h416l-33 -170h-416l-97 -500h-184z" />
<glyph unicode="&#x494;" d="M402 -240h62q65 0 115 16.5t87.5 56.5t64 106t45.5 165l56 290q12 63 12 114q0 203 -198 203h-270l-138 -711h-203l290 1493h924l-33 -170h-721l-86 -442h311q94 0 163.5 -30.5t112.5 -88.5q59 -80 59 -205q0 -68 -16 -147l-60 -306q-27 -137 -71.5 -234t-110 -159.5 t-153 -91.5t-199.5 -29h-76z" />
<glyph unicode="&#x495;" d="M378 -270h172q57 0 95 12t63 41t41 77t30 120l52 264q8 42 12.5 74t4.5 58q0 38 -11 60t-34 33.5t-59 14.5t-87 3h-260l-95 -487h-184l218 1120h752l-36 -184h-568l-59 -305h250q102 0 171 -10t111.5 -34t61 -64t18.5 -100q0 -36 -5.5 -79t-15.5 -94l-53 -270 q-21 -110 -57 -187t-87.5 -125.5t-121 -71t-157.5 -22.5h-193z" />
<glyph unicode="&#x496;" d="M903 0h-27l-96 650l-125 -186l-90 -464h-187l90 464l-53 186l-348 -650h-197l477 891l-170 602h207l169 -595l115 595h187l-115 -595l399 595h207l-404 -602l106 -721h58l-96 -492h-170z" />
<glyph unicode="&#x497;" d="M939 0h-52l-88 528l-139 -177l-68 -351h-168l68 351l-69 177l-294 -528h-179l398 716l-160 404h199l171 -432l84 432h168l-84 -432l339 432h199l-318 -404l95 -566h77l-85 -436h-150z" />
<glyph unicode="&#x498;" d="M762 799q112 -21 177 -100t65 -219q0 -101 -35.5 -187t-101.5 -151.5t-160 -108t-212 -56.5q32 -57 45.5 -97.5t13.5 -77.5q0 -44 -18.5 -80t-52 -62t-82 -40.5t-108.5 -14.5q-43 0 -89.5 7.5t-94.5 22.5l25 129q40 -19 76.5 -28.5t71.5 -9.5q65 0 102 30.5t37 81.5 q0 26 -10.5 58t-32.5 75q-94 0 -196.5 18t-199.5 56l38 201q91 -52 185.5 -78.5t190.5 -26.5q93 0 168.5 24.5t129 69t82.5 106.5t29 137q0 117 -71 177t-210 60h-153l32 166h154q79 0 142.5 19.5t108.5 55.5t69 86.5t24 113.5q0 100 -61.5 147t-189.5 47q-84 0 -180 -20 t-210 -60l37 186q124 33 220.5 48.5t175.5 15.5q96 0 172 -22t128.5 -64.5t80.5 -105t28 -142.5q0 -74 -23.5 -137.5t-67.5 -114t-107 -85t-142 -50.5z" />
<glyph unicode="&#x499;" d="M1089 855q-20 -97 -97 -160t-200 -88q112 -21 171.5 -78.5t59.5 -149.5q0 -12 -1.5 -25t-3.5 -27q-12 -72 -52.5 -132.5t-106.5 -105.5t-157 -73.5t-203 -35.5q32 -58 46.5 -99t14.5 -79q0 -44 -18.5 -80t-52 -62t-82 -40.5t-108.5 -14.5q-43 0 -89.5 7.5t-94.5 22.5 l25 129q40 -19 76.5 -28.5t71.5 -9.5q65 0 102 30.5t37 81.5q0 27 -11.5 61t-35.5 80q-81 3 -157.5 17t-156.5 38l34 173q69 -34 156.5 -51.5t185.5 -17.5q95 0 169 16t125 46t77.5 71.5t26.5 92.5q0 76 -72 122t-212 46h-158l28 144h165q69 0 123 11.5t92.5 31.5t62 47 t31.5 58q4 13 4 28q0 59 -66.5 95.5t-197.5 36.5q-71 0 -160 -12.5t-198 -39.5l32 167q220 48 376 48q94 0 169 -16.5t127 -47.5t80 -76t28 -102q0 -22 -5 -50z" />
<glyph unicode="&#x49a;" d="M868 0h-41l-342 748l-186 -164l-113 -584h-203l290 1493h203l-129 -664l760 664h237l-699 -610l343 -713h116l-93 -482h-203z" />
<glyph unicode="&#x49b;" d="M885 0h-42l-302 578l-162 -129l-87 -449h-190l218 1120h190l-91 -465l574 465h224l-523 -422l276 -514h134l-90 -460h-183z" />
<glyph unicode="&#x4a2;" d="M940 0h-202l139 711h-555l-137 -711h-203l291 1493h202l-118 -612h553l118 612h203l-258 -1323h203l-94 -482h-203z" />
<glyph unicode="&#x4a3;" d="M931 0h-184l98 505h-487l-98 -505h-184l218 1120h184l-87 -445h487l87 445h184l-182 -936h183l-90 -460h-182z" />
<glyph unicode="&#x4a4;" d="M314 1493h186l-119 -612h364l119 612h546l-33 -170h-360l-257 -1323h-186l138 711h-364l-138 -711h-186z" />
<glyph unicode="&#x4a5;" d="M265 1120h168l-89 -455h410l89 455h496l-29 -150h-328l-189 -970h-168l100 515h-410l-100 -515h-168z" />
<glyph unicode="&#x4aa;" d="M866 1356q-97 0 -178 -41.5t-149 -122.5q-51 -61 -93.5 -141.5t-73 -171t-47.5 -186t-17 -185.5q0 -191 77.5 -282t222.5 -91q88 0 178.5 32t178.5 93l-39 -207q-134 -66 -275 -79q31 -56 44.5 -95.5t13.5 -76.5q0 -44 -18.5 -80t-52 -62t-82 -40.5t-108.5 -14.5 q-43 0 -89.5 7.5t-94.5 22.5l25 129q40 -19 76.5 -28.5t71.5 -9.5q65 0 102 30.5t37 81.5q0 50 -44 134q-208 13 -321.5 144.5t-113.5 382.5q0 102 18.5 208.5t52 207t80.5 190.5t103 161q102 128 234.5 191t288.5 63q86 0 162.5 -20t157.5 -62l-41 -207q-126 125 -287 125z " />
<glyph unicode="&#x4ab;" d="M790 991q-115 0 -197 -45.5t-142 -132.5q-28 -41 -50 -88.5t-37.5 -98.5t-23.5 -104t-8 -104q0 -149 68.5 -220t208.5 -71q92 0 180 31t172 94l-39 -201q-60 -32 -126 -51.5t-140 -25.5q30 -56 43.5 -96t13.5 -76q0 -44 -18.5 -80t-52 -62t-82 -40.5t-108.5 -14.5 q-43 0 -89.5 7.5t-94.5 22.5l25 129q40 -19 76.5 -28.5t71.5 -9.5q65 0 102 30.5t37 81.5q0 50 -44 135q-195 13 -296.5 124t-101.5 317q0 75 13.5 148.5t39 142.5t62 131t83.5 114q88 97 202 147t249 50q174 0 332 -86l-37 -182q-66 58 -136 85t-156 27z" />
<glyph unicode="&#x4ac;" d="M575 0h-204l258 1323h-469l33 170h1140l-33 -170h-469l-223 -1153h203l-94 -482h-203z" />
<glyph unicode="&#x4ad;" d="M591 0h-184l183 942h-311l35 178h806l-35 -178h-311l-147 -758h183l-90 -460h-182z" />
<glyph unicode="&#x4ae;" d="M508 670l-313 823h202l236 -651l497 651h218l-635 -823l-129 -670h-207z" />
<glyph unicode="&#x4af;" d="M401 18l-214 1102h195l159 -876l499 876h195l-642 -1102l-86 -444h-192z" />
<glyph unicode="&#x4b0;" d="M464 420h-264l33 170h264l15 80l-317 823h215l236 -659l491 659h217l-639 -823l-15 -80h266l-33 -170h-266l-82 -420h-203z" />
<glyph unicode="&#x4b1;" d="M361 -185h-200l29 150h200l10 53l-213 1102h195l158 -876l500 876h195l-643 -1102l-10 -53h200l-29 -150h-200l-47 -241h-192z" />
<glyph unicode="&#x4b2;" d="M867 0h-14l-241 643l-520 -643h-218l654 791l-296 702h217l219 -563l443 563h217l-583 -702l255 -621h103l-93 -482h-203z" />
<glyph unicode="&#x4b3;" d="M866 0h-30l-241 449l-414 -449h-213l554 584l-297 536h204l218 -405l374 405h207l-505 -536l223 -400h139l-90 -460h-183z" />
<glyph unicode="&#x4ba;" d="M313 1495h203l-132 -683q22 20 45 35.5t53 30.5l52 26q20 10 46.5 18t56.5 14t61 10t59 5l48 2q158 0 232 -84q7 -8 12 -16t8 -13q17 -31 26.5 -74t9.5 -98q0 -74 -18 -168l-97 -500h-203l92 474q13 64 13 117q0 91 -43.5 133.5t-137.5 42.5q-48 0 -97.5 -10.5 t-98.5 -31.5q-52 -22 -76 -49q-88 -91 -121 -263l-80 -413h-203z" />
<glyph unicode="&#x4bb;" d="M387 1556h184l-116 -604q78 100 164.5 147.5t189.5 47.5q66 0 119 -18.5t90.5 -54t57.5 -86t20 -114.5q0 -35 -5.5 -81.5t-15.5 -98.5l-135 -694h-184l135 695q2 5 3 14q15 70 15 112q0 79 -46 122.5t-134 43.5q-63 0 -117.5 -24t-98 -69t-75 -111t-47.5 -150l-123 -633 h-184z" />
<glyph unicode="&#x4c0;" d="M90 170h313l224 1153h-314l33 170h830l-33 -170h-314l-223 -1153h314l-33 -170h-830z" />
<glyph unicode="&#x4c1;" d="M782 1619q-267 0 -267 205q0 9 0.5 18t1.5 19h119q1 -54 45 -82.5t129 -28.5q163 0 215 111h119q-35 -120 -126 -181t-236 -61zM347 891l-170 602h207l168 -595l116 595h187l-116 -595l400 595h207l-404 -602l131 -891h-197l-96 650l-125 -186l-90 -464h-187l90 464 l-53 186l-348 -650h-197z" />
<glyph unicode="&#x4c2;" d="M737 1271q-134 0 -206 64t-72 182q0 17 0.5 25t2.5 16h120v-17q0 -66 43.5 -99.5t125.5 -33.5q85 0 137 37.5t81 112.5h119q-33 -144 -122.5 -215.5t-228.5 -71.5zM348 716l-160 404h199l171 -432l84 432h168l-84 -432l339 432h199l-318 -404l120 -716h-179l-88 528 l-139 -177l-68 -351h-168l68 351l-69 177l-294 -528h-179z" />
<glyph unicode="&#x4c3;" d="M375 -240h62q69 0 119 17.5t86.5 58t62 106t44.5 162.5l57 290q12 61 12 112q0 205 -199 205h-151l-143 -127l-114 -584h-203l290 1493h203l-129 -664l760 664h237l-700 -612h24q76 0 138 -20.5t105.5 -61.5t67 -103t23.5 -146q0 -64 -15 -140l-60 -306 q-27 -137 -71.5 -234t-110 -159.5t-153 -91.5t-199.5 -29h-76z" />
<glyph unicode="&#x4c4;" d="M363 -270h172q57 0 95 12t63 41t41 77t30 120l52 264q8 42 12.5 74t4.5 58q0 38 -11 60t-34 33.5t-59 14.5t-87 3h-221l-47 -38l-87 -449h-190l218 1120h190l-91 -465l574 465h224l-610 -489h58q102 0 171 -10t111.5 -34t61 -64t18.5 -100q0 -36 -5.5 -79t-15.5 -94 l-53 -270q-21 -110 -57 -187t-87.5 -125.5t-121 -71t-157.5 -22.5h-193z" />
<glyph unicode="&#x4c7;" d="M394 -240h62q70 0 120.5 18.5t87 59t61.5 106t43 160.5l118 607h-553l-138 -711h-203l290 1493h203l-119 -612h553l119 612h203l-270 -1389q-27 -138 -71.5 -235.5t-110 -159.5t-153 -90.5t-199.5 -28.5h-76z" />
<glyph unicode="&#x4c8;" d="M352 -270h172q55 0 92.5 11.5t63 40t42.5 76.5t31 122l102 525h-487l-98 -505h-184l218 1120h184l-87 -445h487l87 445h184l-222 -1140q-21 -107 -55.5 -183.5t-86 -126t-121.5 -73t-160 -23.5h-193z" />
<glyph unicode="&#x4cb;" d="M255 0h-203l290 1493h924l-33 -170h-721l-224 -1153h203l-94 -482h-203z" />
<glyph unicode="&#x4cc;" d="M352 0h-184l218 1120h752l-36 -184h-568l-146 -752h183l-90 -460h-183z" />
<glyph unicode="&#x4cf;" d="M656 1567h184l-305 -1567h-184z" />
<glyph unicode="&#x4d0;" d="M800 1613q-267 0 -267 205q0 9 0.5 18t1.5 19h119q1 -54 45 -82.5t129 -28.5q163 0 215 111h119q-35 -120 -126 -181t-236 -61zM645 1493h246l166 -1493h-201l-35 389h-520l-184 -389h-217zM807 551l-66 774l-364 -774h430z" />
<glyph unicode="&#x4d1;" d="M747 1297q-134 0 -206 64t-72 182q0 17 0.5 25t2.5 16h120v-17q0 -66 43.5 -99.5t125.5 -33.5q85 0 137 37.5t81 112.5h119q-33 -144 -122.5 -215.5t-228.5 -71.5zM404 -29q-75 0 -136.5 21.5t-105 62t-67 98.5t-23.5 130q0 94 40 172t114.5 134t180.5 87t238 31h246 l12 61q2 9 3 19t1 20q0 94 -62.5 139t-179.5 45q-175 0 -397 -102l35 180q109 39 205 58.5t185 19.5q93 0 166.5 -21.5t124 -61t77 -96.5t26.5 -129q0 -34 -6 -85.5t-18 -114.5l-125 -639h-164l12 166q-72 -93 -168 -144t-214 -51zM461 125q67 0 130 26.5t115.5 77 t91.5 124.5t58 169l8 41h-172q-56 0 -98.5 -1.5t-75 -5.5t-58 -10.5t-46.5 -15.5q-68 -29 -109 -87t-41 -136q0 -84 51 -133t146 -49z" />
<glyph unicode="&#x4d2;" d="M506 1647q-15 0 -22.5 9t-4.5 24l28 143q4 27 32 27h144q27 0 27 -24q0 -6 -1 -9l-29 -143q-6 -27 -32 -27h-142zM897 1647q-15 0 -22.5 9t-4.5 24l28 143q4 27 32 27h143q15 0 22.5 -9t4.5 -24l-28 -143q-5 -27 -32 -27h-143zM645 1493h246l166 -1493h-201l-35 389h-520 l-184 -389h-217zM807 551l-66 774l-364 -774h430z" />
<glyph unicode="&#x4d3;" d="M473 1350q-15 0 -22.5 9t-4.5 24l28 142q4 27 32 27h143q28 0 28 -25q0 -5 -1 -8l-28 -142q-5 -27 -32 -27h-143zM864 1350q-15 0 -22.5 9t-4.5 24l28 142q4 27 32 27h143q28 0 28 -25q0 -5 -1 -8l-28 -142q-5 -27 -32 -27h-143zM404 -29q-75 0 -136.5 21.5t-105 62 t-67 98.5t-23.5 130q0 94 40 172t114.5 134t180.5 87t238 31h246l12 61q2 9 3 19t1 20q0 94 -62.5 139t-179.5 45q-175 0 -397 -102l35 180q109 39 205 58.5t185 19.5q93 0 166.5 -21.5t124 -61t77 -96.5t26.5 -129q0 -34 -6 -85.5t-18 -114.5l-125 -639h-164l12 166 q-72 -93 -168 -144t-214 -51zM461 125q67 0 130 26.5t115.5 77t91.5 124.5t58 169l8 41h-172q-56 0 -98.5 -1.5t-75 -5.5t-58 -10.5t-46.5 -15.5q-68 -29 -109 -87t-41 -136q0 -84 51 -133t146 -49z" />
<glyph unicode="&#x4d4;" d="M555 1493h752l-33 -170h-338l-86 -442h307l-33 -170h-307l-106 -541h356l-33 -170h-542l75 383h-352l-176 -383h-184zM600 551l150 772h-103l-356 -772h309z" />
</font>
</defs>
</svg>
