<?xml version="1.0" standalone="no"?>
<!DOCTYPE svg PUBLIC "-//W3C//DTD SVG 1.1//EN" "http://www.w3.org/Graphics/SVG/1.1/DTD/svg11.dtd" >
<svg xmlns="http://www.w3.org/2000/svg" xmlns:xlink="http://www.w3.org/1999/xlink" version="1.1">
<metadata></metadata>
<defs>
<font id="hackoblique" horiz-adv-x="1233" >
<font-face units-per-em="2048" ascent="1556" descent="-492" />
<missing-glyph horiz-adv-x="500" />
<glyph horiz-adv-x="0" />
<glyph unicode="&#xd;" />
<glyph unicode=" " />
<glyph unicode="!" d="M489 81q-1 85 52.5 133t114.5 48t91 -36t30 -66q0 -103 -61 -156q-46 -42 -107 -42t-90 36t-30 83zM634 486l13 567l70 445h265l-70 -445l-157 -567h-121z" />
<glyph unicode="&#x22;" d="M338 938v555h174v-555h-174zM721 938v555h174v-555h-174z" />
<glyph unicode="#" d="M-6 414l39 153h256l84 334h-258l39 154h258l104 415h160l-105 -415h246l105 415h159l-104 -415h256l-39 -154h-256l-84 -334h258l-39 -153h-258l-104 -414h-160l104 414h-245l-105 -414h-160l105 414h-256zM449 567h245l84 334h-246z" />
<glyph unicode="$" d="M31 92l35 180q81 -60 175.5 -93t198.5 -38l90 465q-176 35 -255.5 107.5t-79.5 197.5q0 173 132.5 288t341.5 122l48 235h100l-47 -235q85 -6 163 -21.5t150 -39.5l-32 -173q-65 40 -142 63.5t-166 31.5l-81 -426q174 -34 263 -117t89 -213q0 -184 -137 -304t-353 -120 h-10l-59 -303h-101l59 301q-95 3 -191 26t-191 66zM373 940q0 -69 42 -106t148 -60l80 410q-119 -8 -194.5 -76.5t-75.5 -167.5zM543 145q129 0 208.5 72.5t79.5 188.5q0 78 -47 120.5t-155 61.5z" />
<glyph unicode="%" d="M33 1112q0 135 92 227.5t227 92.5q64 0 122.5 -24t103.5 -69t69.5 -103.5t24.5 -123.5q0 -134 -93 -226.5t-227 -92.5q-135 0 -227 92t-92 227zM42 453v107l1150 436v-113zM168 1112q0 -79 52.5 -131.5t131.5 -52.5q77 0 131 53.5t54 130.5t-54 130.5t-131 53.5 t-130.5 -53t-53.5 -131zM561 319q0 135 92 227.5t226 92.5q64 0 121.5 -24t103.5 -70q46 -47 71 -105t25 -121q0 -133 -93 -226t-228 -93q-136 0 -227 91.5t-91 227.5zM696 319q0 -78 52.5 -131t130.5 -53q77 0 130.5 53.5t53.5 130.5t-54 131t-130 54q-78 0 -130.5 -53 t-52.5 -132z" />
<glyph unicode="&#x26;" d="M-20 360q0 168 99.5 312.5t287.5 247.5q-29 52 -43.5 106t-14.5 109q0 174 123 279.5t330 105.5q65 0 127 -12t119 -35l-35 -183q-42 38 -103 57t-137 19q-113 0 -181.5 -57.5t-68.5 -151.5q0 -47 22 -112.5t62 -137.5l307 -557q62 66 99 168.5t49 241.5h168 q-17 -168 -78 -302.5t-168 -236.5l123 -221h-199l-59 113q-95 -71 -195 -106.5t-204 -35.5q-195 0 -312.5 107t-117.5 282zM158 408q0 -119 86 -199t215 -80q65 0 138 28.5t144 82.5l-309 555q-135 -73 -204.5 -171.5t-69.5 -215.5z" />
<glyph unicode="'" d="M528 938v555h174v-555h-174z" />
<glyph unicode="(" d="M373 375q0 303 129 602.5t381 576.5h159q-236 -301 -355.5 -606.5t-119.5 -607.5q0 -146 29.5 -297t89.5 -313h-160q-79 189 -116 346t-37 299z" />
<glyph unicode=")" d="M150 -270q236 300 355.5 605.5t119.5 608.5q0 146 -29.5 297t-89.5 313h160q78 -188 115.5 -345.5t37.5 -299.5q0 -303 -129 -602.5t-381 -576.5h-159z" />
<glyph unicode="*" d="M128 1095l36 103l376 -123l20 425h108l20 -425l376 123l36 -103l-364 -158l242 -371l-94 -67l-270 357l-270 -357l-94 67l242 371z" />
<glyph unicode="+" d="M88 557v170h444v444h168v-444h445v-170h-445v-444h-168v444h-444z" />
<glyph unicode="," d="M400 -283q244 110 252 334q-24 -4 -38 -4q-68 0 -112 39t-44 111q0 70 46 111t114 41q88 0 134 -68t46 -188q0 -172 -92 -295t-260 -185z" />
<glyph unicode="-" d="M303 509l33 164h522l-33 -164h-522z" />
<glyph unicode="." d="M451 141q0 76 47 123t115 47t115 -47t47 -123q0 -74 -47 -121t-115 -47t-115 47t-47 121z" />
<glyph unicode="/" d="M16 -190l852 1683h191l-854 -1683h-189z" />
<glyph unicode="0" d="M98 473q0 192 57 411.5t142 360.5t195.5 208t257.5 67q195 0 290 -123t95 -377q0 -191 -57.5 -412.5t-141.5 -359.5q-84 -141 -195.5 -209t-259.5 -68q-195 0 -289 123t-94 379zM299 414q0 -141 51.5 -210t155.5 -69q80 0 148.5 51.5t115.5 147.5q69 140 115.5 346.5 t46.5 382.5q0 154 -49 223.5t-156 69.5q-80 0 -149 -51t-117 -146q-70 -139 -116 -347.5t-46 -397.5zM493 516q0 23 2 51q12 154 24 208q13 54 65 169q48 104 95 104q5 0 10 -1q48 -11 48 -112q-1 -12 -1 -26q-6 -126 -18 -180q-14 -55 -70 -197q-52 -131 -102 -132 q-4 0 -9 1q-44 10 -44 115z" />
<glyph unicode="1" d="M123 0l33 170h313l221 1141l-352 -76l35 184l352 74h203l-258 -1323h309l-33 -170h-823z" />
<glyph unicode="2" d="M6 0l33 170l311 274l39 35q537 471 537 674q0 93 -64 146t-178 53q-92 0 -198 -33.5t-232 -101.5l41 204q112 49 216.5 74t201.5 25q185 0 299 -97t114 -252q0 -96 -35.5 -182.5t-117.5 -189.5q-33 -42 -119 -121t-266 -234l-320 -274h684l-32 -170h-914z" />
<glyph unicode="3" d="M-18 45l38 201q91 -52 186 -78.5t193 -26.5q182 0 294 93.5t112 242.5q0 117 -71.5 177.5t-209.5 60.5h-153l32 166h154q158 0 251 75t93 199q0 100 -61.5 147.5t-190.5 47.5q-82 0 -179 -20t-210 -60l37 186q123 33 220 48.5t181 15.5q188 0 296 -88t108 -240 q0 -153 -89.5 -256.5t-250.5 -136.5q114 -20 178 -102t64 -208q0 -234 -167.5 -376t-447.5 -142q-108 0 -210.5 18.5t-196.5 55.5z" />
<glyph unicode="4" d="M25 356l36 191l785 946h233l-190 -973h198l-30 -164h-199l-70 -356h-198l69 356h-634zM217 520h473l152 762z" />
<glyph unicode="5" d="M4 35l41 205q84 -51 172 -76t182 -25q186 0 308 117t122 291q0 128 -80.5 201t-222.5 73q-79 0 -161.5 -20t-157.5 -58l145 750h756l-33 -170h-571l-72 -367q47 16 91.5 23.5t88.5 7.5q188 0 303 -113.5t115 -298.5q0 -124 -52.5 -241t-148.5 -203q-88 -80 -201.5 -120 t-256.5 -40q-108 0 -201.5 16.5t-165.5 47.5z" />
<glyph unicode="6" d="M92 420q0 166 39 345t107 325q98 215 250.5 322.5t359.5 107.5q75 0 146 -15.5t134 -44.5l-36 -186q-58 37 -126 56.5t-143 19.5q-193 0 -318.5 -143.5t-180.5 -426.5q68 102 161.5 154.5t206.5 52.5q178 0 274.5 -99.5t96.5 -283.5q0 -119 -40 -238t-108 -202 q-78 -97 -177.5 -145t-221.5 -48q-203 0 -313.5 117t-110.5 332zM293 387q0 -121 61 -189.5t168 -68.5q144 0 241 134t97 331q0 113 -58 174t-165 61q-146 0 -245 -126t-99 -316z" />
<glyph unicode="7" d="M174 0l778 1323h-708l32 170h936l-16 -94l-805 -1399h-217z" />
<glyph unicode="8" d="M41 354q0 166 104.5 284t284.5 155q-107 38 -161 110.5t-54 177.5q0 182 148 310.5t362 128.5q178 0 289.5 -91t111.5 -235t-97 -257.5t-257 -154.5q126 -30 190 -113t64 -216q0 -209 -152 -345.5t-389 -136.5q-207 0 -325.5 102t-118.5 281zM246 358q0 -105 67 -168 t179 -63q148 0 238.5 92t90.5 242q0 116 -66 182t-184 66q-142 0 -233.5 -98.5t-91.5 -252.5zM416 1079q0 -99 58.5 -156t160.5 -57q123 0 207 87t84 212q0 91 -60 145t-159 54q-127 0 -209 -80.5t-82 -204.5z" />
<glyph unicode="9" d="M63 31l35 186q58 -37 126 -56.5t143 -19.5q193 0 318.5 143.5t180.5 426.5q-68 -102 -161.5 -154.5t-206.5 -52.5q-178 0 -274.5 100t-96.5 285q0 118 40 236.5t107 201.5q78 96 178 144.5t222 48.5q203 0 314.5 -117.5t111.5 -331.5q0 -166 -39 -345t-107 -325 q-98 -214 -251 -322t-361 -108q-75 0 -145 15t-134 45zM330 897q0 -113 58 -174t165 -61q146 0 245 126t99 316q0 122 -60 190t-167 68q-144 0 -242 -134t-98 -331z" />
<glyph unicode=":" d="M482 135q0 96 62 149.5t130 53.5t103 -41.5t35 -94.5q0 -95 -62 -148.5t-130 -53.5t-103 41.5t-35 93.5zM595 852q-1 94 61.5 148t130 54t103 -41.5t35.5 -93.5q0 -95 -62 -149t-130 -54t-102.5 41t-35.5 95z" />
<glyph unicode=";" d="M353 -320q261 110 305 334q-25 -4 -38 -4q-68 0 -106 39q-29 30 -29 80q-1 14 2 31q13 71 63 111q53 41 121 41q86 0 123 -68q24 -44 24 -111q-1 -36 -7 -77q-25 -170 -139 -295q-111 -123 -289 -185zM582 830q0 17 3 34q13 75 66 121q54 47 122 47t108 -47 q31 -36 31 -88q0 -17 -3 -33q-14 -77 -67 -123q-54 -47 -122 -47q-69 0 -108 47q-30 36 -30 89z" />
<glyph unicode="&#x3c;" d="M88 559v166l1057 418v-182l-850 -320l850 -317v-183z" />
<glyph unicode="=" d="M88 352v172h1057v-172h-1057zM88 760v170h1057v-170h-1057z" />
<glyph unicode="&#x3e;" d="M88 141v183l850 317l-850 320v182l1057 -418v-166z" />
<glyph unicode="?" d="M398 1227l30 188q103 57 203 85t204 28q184 0 281 -96q76 -75 76 -191q-1 -32 -6 -66q-11 -74 -56 -142q-45 -66 -152 -157l-102 -86q-81 -69 -105 -108q-26 -42 -32 -83l-8 -47l-12 -80h-190l17 111q12 78 53 146q39 66 139 151l104 89q73 62 102 103q31 44 39 93 q3 18 3 34q-1 67 -46 110q-58 55 -166 55q-78 0 -172.5 -34.5t-203.5 -102.5zM421 83q-2 84 55 132.5t118 48.5t92.5 -38t31.5 -85q0 -84 -55.5 -132.5t-116.5 -48.5t-92.5 37t-32.5 86z" />
<glyph unicode="@" d="M-29 379q0 201 71.5 400.5t195.5 344.5q110 131 257 202t306 71q189 0 301 -104.5t112 -280.5q0 -30 -4.5 -68.5t-13.5 -85.5l-137 -723h-144l21 111q-51 -63 -122 -97t-152 -34q-131 0 -214 92t-83 237q0 220 132 376.5t314 156.5q84 0 148.5 -36t93.5 -97l8 43 q6 35 9 61t3 41q0 126 -73 196t-203 70q-142 0 -273.5 -78t-226.5 -221q-84 -125 -128 -274.5t-44 -306.5q0 -257 129 -404t354 -147q57 0 117 12.5t127 38.5l45 -131q-66 -31 -137 -46t-154 -15q-288 0 -461.5 189.5t-173.5 506.5zM524 469q0 -97 49.5 -153t135.5 -56 q125 0 212 105.5t87 257.5q0 96 -50.5 151t-138.5 55q-123 0 -209 -104.5t-86 -255.5z" />
<glyph unicode="A" d="M-106 0l745 1493h246l166 -1493h-201l-35 389h-520l-184 -389h-217zM371 551h430l-66 774z" />
<glyph unicode="B" d="M23 0l290 1493h443q203 0 307 -79.5t104 -233.5t-92 -257.5t-248 -123.5q125 -23 191.5 -102t66.5 -203q0 -234 -159.5 -364t-450.5 -130h-452zM258 166h248q184 0 281.5 87t97.5 251q0 107 -68 158t-211 51h-241zM395 877h244q151 0 237.5 72.5t86.5 199.5 q0 94 -55.5 136t-180.5 42h-244z" />
<glyph unicode="C" d="M115 477q0 220 70 436t184 353q107 130 236 192t294 62q80 0 159 -21t154 -61l-41 -207q-64 63 -135 94t-151 31q-95 0 -176 -40.5t-152 -123.5q-104 -123 -167.5 -315t-63.5 -385q0 -173 78 -265t225 -92q85 0 175.5 32t178.5 93l-39 -207q-84 -41 -169.5 -61.5 t-176.5 -20.5q-230 0 -356.5 133t-126.5 373z" />
<glyph unicode="D" d="M-8 0l291 1493h303q273 0 408.5 -124t135.5 -376q0 -162 -42 -334t-113 -305q-104 -191 -259.5 -272.5t-420.5 -81.5h-303zM227 166h97q185 0 297 62.5t180 203.5q54 115 88.5 274.5t34.5 292.5q0 176 -82 252t-275 76h-114z" />
<glyph unicode="E" d="M53 0l291 1493h885l-33 -170h-684l-86 -442h653l-32 -170h-654l-104 -541h702l-33 -170h-905z" />
<glyph unicode="F" d="M92 0l291 1493h879l-33 -170h-676l-86 -440h612l-32 -170h-613l-139 -713h-203z" />
<glyph unicode="G" d="M78 489q0 90 16.5 191.5t48.5 212.5q35 117 82 211.5t103 161.5q107 130 236.5 192t295.5 62q80 0 159.5 -21t156.5 -61l-41 -207q-65 63 -136.5 94t-152.5 31q-98 0 -184 -41.5t-154 -122.5q-44 -52 -83 -130t-69 -175q-34 -114 -51.5 -214t-17.5 -181q0 -171 79 -264 t224 -93q68 0 122 18.5t91 53.5l76 393h-217l30 166h410l-133 -670q-87 -62 -190 -93.5t-220 -31.5q-232 0 -356.5 134.5t-124.5 383.5z" />
<glyph unicode="H" d="M-8 0l291 1493h202l-118 -612h553l118 612h203l-291 -1493h-202l139 711h-555l-137 -711h-203z" />
<glyph unicode="I" d="M57 0l33 170h313l224 1153h-314l33 170h830l-33 -170h-314l-223 -1153h314l-33 -170h-830z" />
<glyph unicode="J" d="M-25 61l45 236q72 -79 164 -120.5t195 -41.5q142 0 212.5 73t110.5 279l164 836h-381l33 170h584l-197 -1006q-56 -289 -176 -402.5t-358 -113.5q-97 0 -197 23t-199 67z" />
<glyph unicode="K" d="M-8 0l291 1493h202l-127 -647l742 647h254l-703 -619l428 -874h-219l-360 741l-193 -168l-112 -573h-203z" />
<glyph unicode="L" d="M78 0l291 1493h202l-258 -1323h721l-33 -170h-923z" />
<glyph unicode="M" d="M-59 0l288 1493h269l110 -756l414 756h270l-291 -1493h-186l258 1327l-434 -795h-141l-115 795l-256 -1327h-186z" />
<glyph unicode="N" d="M-6 0l291 1493h256l264 -1229l239 1229h195l-291 -1493h-256l-264 1229l-240 -1229h-194z" />
<glyph unicode="O" d="M82 473q0 111 21.5 238.5t64.5 263.5q29 92 62.5 165t72.5 132q88 127 197 187.5t254 60.5q202 0 299.5 -122.5t97.5 -377.5q0 -110 -22.5 -239t-65.5 -265q-29 -92 -62.5 -165t-72.5 -132q-88 -127 -197 -187.5t-254 -60.5q-201 0 -298 123t-97 379zM287 414 q0 -143 52.5 -211t162.5 -68q85 0 157 51t119 146q74 145 120 351t46 396q0 142 -52.5 209.5t-162.5 67.5q-85 0 -156 -51t-118 -146q-76 -147 -122 -351t-46 -394z" />
<glyph unicode="P" d="M51 0l291 1493h440q206 0 314 -92t108 -266q0 -249 -160 -392t-440 -143h-233l-117 -600h-203zM403 766h234q165 0 263.5 95.5t98.5 254.5q0 108 -62 159.5t-192 51.5h-233z" />
<glyph unicode="Q" d="M82 473q0 111 21.5 238.5t64.5 263.5q29 92 62.5 165t72.5 132q88 127 197 187.5t254 60.5q202 0 299.5 -122.5t97.5 -377.5q0 -83 -14.5 -181.5t-42.5 -209.5q-30 -116 -62 -202t-69 -153q-54 -95 -124 -163t-149 -101l154 -188l-154 -92l-186 243h-10 q-215 0 -313.5 119t-98.5 381zM287 414q0 -143 52.5 -211t162.5 -68q85 0 157 51t119 146q74 145 120 351t46 396q0 142 -52.5 209.5t-162.5 67.5q-85 0 -156 -51t-118 -146q-76 -147 -122 -351t-46 -394z" />
<glyph unicode="R" d="M12 0l289 1493h416q207 0 320.5 -89.5t113.5 -252.5q0 -183 -103.5 -303t-281.5 -143q72 -14 115.5 -67t97.5 -230l121 -408h-201l-106 377q-44 156 -98.5 205t-164.5 49h-192l-123 -631h-203zM371 797h219q163 0 260.5 85.5t97.5 227.5q0 112 -63 164.5t-199 52.5h-213z " />
<glyph unicode="S" d="M25 61l41 209q98 -69 198.5 -102t212.5 -33q165 0 268 88t103 223q0 82 -44 127t-177 86l-101 33q-184 58 -257.5 131.5t-73.5 194.5q0 221 165 361.5t431 140.5q80 0 170.5 -20t185.5 -58l-39 -205q-81 59 -168 89t-180 30q-165 0 -269 -82t-104 -209q0 -71 49 -115 t178 -84l121 -39q163 -50 238.5 -133.5t75.5 -212.5q0 -235 -166 -372.5t-453 -137.5q-104 0 -204.5 22.5t-200.5 67.5z" />
<glyph unicode="T" d="M160 1323l33 170h1140l-33 -170h-469l-256 -1323h-204l258 1323h-469z" />
<glyph unicode="U" d="M80 317q0 37 8.5 100t26.5 156l178 920h203l-179 -920q-2 -13 -8 -41q-30 -154 -30 -213q0 -92 54.5 -138t164.5 -46q89 0 151 28.5t107 90.5q22 31 44.5 106.5t49.5 212.5l178 920h203l-178 -920q-42 -219 -89.5 -321.5t-125.5 -165.5q-71 -56 -162 -85.5t-197 -29.5 q-192 0 -295.5 90t-103.5 256z" />
<glyph unicode="V" d="M199 1493h198l113 -1303l598 1303h215l-719 -1493h-258z" />
<glyph unicode="W" d="M82 0l63 1493h191l-90 -1210l329 800h211l15 -802l377 1212h198l-510 -1493h-194l-31 870l-371 -870h-188z" />
<glyph unicode="X" d="M-127 0l657 797l-288 696h200l224 -532l440 532h231l-596 -719l324 -774h-201l-254 612l-506 -612h-231z" />
<glyph unicode="Y" d="M195 1493h202l236 -651l497 651h218l-635 -823l-129 -670h-207l131 670z" />
<glyph unicode="Z" d="M-6 0l29 154l976 1169h-727l33 170h969l-29 -154l-979 -1169h774l-34 -170h-1012z" />
<glyph unicode="[" d="M420 -270l302 1906h424l-23 -143h-240l-256 -1620h240l-23 -143h-424z" />
<glyph unicode="\" d="M356 1493h170l199 -1683h-170z" />
<glyph unicode="]" d="M303 -270l23 143h240l256 1619h-240l23 143h424l-302 -1905h-424z" />
<glyph unicode="^" d="M72 936l456 557h177l456 -557h-178l-367 395l-366 -395h-178z" />
<glyph unicode="_" d="M0 -403h1024v-80h-1024v80z" />
<glyph unicode="`" d="M453 1638h198l197 -376h-143z" />
<glyph unicode="a" d="M72 276q0 196 154.5 313.5t418.5 117.5h246l12 61q2 9 3 19t1 28q0 85 -63 130.5t-180 45.5q-86 0 -185.5 -25.5t-210.5 -76.5l35 180q108 39 205 58.5t186 19.5q186 0 289.5 -82t103.5 -227q0 -32 -6 -84t-18 -115l-125 -639h-184l32 166q-72 -94 -170 -144.5 t-208 -50.5q-153 0 -244.5 83.5t-91.5 221.5zM264 307q0 -83 51.5 -132.5t139.5 -49.5q148 0 255.5 106t145.5 291l8 41h-172q-119 0 -177 -7.5t-101 -25.5q-68 -27 -109 -88.5t-41 -134.5z" />
<glyph unicode="b" d="M59 0l303 1556h185l-113 -579q62 84 144 127t184 43q164 0 255 -103.5t91 -289.5q0 -145 -41 -289t-113 -252q-76 -115 -185.5 -178.5t-233.5 -63.5q-98 0 -164.5 43t-100.5 127l-26 -141h-185zM332 383q0 -123 53.5 -189.5t153.5 -66.5q84 0 152 45t114 131 q49 94 77.5 210t28.5 224q0 128 -50.5 192t-151.5 64q-83 0 -151.5 -46t-119.5 -134q-48 -86 -77 -202.5t-29 -227.5z" />
<glyph unicode="c" d="M156 416q0 149 53.5 292.5t144.5 241.5q93 99 204.5 148t244.5 49q89 0 172 -21.5t162 -64.5l-37 -182q-66 58 -136 85t-155 27q-110 0 -195 -44.5t-145 -133.5q-56 -82 -87.5 -187.5t-31.5 -209.5q0 -144 68.5 -216.5t204.5 -72.5q96 0 184.5 31t171.5 94l-39 -201 q-73 -39 -156.5 -59.5t-173.5 -20.5q-224 0 -339 112.5t-115 332.5z" />
<glyph unicode="d" d="M119 369q0 143 40 287.5t109 252.5q75 118 176.5 178t225.5 60q97 0 170 -43.5t114 -126.5l115 579h184l-303 -1556h-184l27 141q-65 -84 -147.5 -127t-182.5 -43q-163 0 -253.5 105t-90.5 293zM315 383q0 -128 51 -192t152 -64q85 0 153.5 45t116.5 133q49 87 77 202.5 t28 229.5q0 120 -54.5 187t-152.5 67q-88 0 -155 -43.5t-113 -130.5q-49 -90 -76 -204.5t-27 -229.5z" />
<glyph unicode="e" d="M98 408q0 156 60 306t166 259q83 86 183.5 131t209.5 45q186 0 297.5 -114.5t111.5 -305.5q0 -34 -5 -84.5t-17 -128.5h-807q-6 -32 -9 -58t-3 -46q0 -139 77 -212t224 -73q88 0 192.5 28.5t218.5 84.5l-36 -183q-105 -43 -205 -64.5t-203 -21.5q-223 0 -339 111.5 t-116 325.5zM332 659h606q6 27 8 44.5t2 33.5q0 120 -65 187t-181 67q-123 0 -224.5 -90t-145.5 -242z" />
<glyph unicode="f" d="M264 977l29 143h297l16 78q38 193 134.5 275.5t283.5 82.5h221l-31 -153h-208q-95 0 -143 -41.5t-68 -142.5l-21 -99h385l-26 -143h-385l-191 -977h-184l190 977h-299z" />
<glyph unicode="g" d="M59 -385l37 182q73 -44 151.5 -67t158.5 -23q149 0 231 80t119 266l24 117q-58 -87 -145 -132.5t-197 -45.5q-154 0 -245 107.5t-91 291.5q0 139 40 276.5t112 243.5q74 112 178 174t215 62q101 0 177 -48.5t110 -133.5l27 151h184l-203 -1044q-53 -271 -186.5 -391.5 t-380.5 -120.5q-82 0 -161.5 14t-154.5 41zM297 399q0 -119 57 -186.5t158 -67.5q79 0 145.5 45t112.5 129q49 90 76.5 202t27.5 218q0 119 -56 185.5t-156 66.5q-154 0 -259.5 -168.5t-105.5 -423.5z" />
<glyph unicode="h" d="M84 0l303 1556h184l-116 -604q75 97 162.5 146t185.5 49q139 0 216 -72.5t77 -202.5q0 -32 -5.5 -79t-15.5 -99l-135 -694h-184l135 695q1 4 3 14q15 71 15 110q0 81 -46.5 124.5t-133.5 43.5q-127 0 -216 -93t-122 -261l-123 -633h-184z" />
<glyph unicode="i" d="M61 0l29 143h365l161 834h-286l28 143h471l-190 -977h365l-29 -143h-914zM684 1323l45 233h184l-45 -233h-184z" />
<glyph unicode="j" d="M4 -426l31 156h233q95 0 150 59.5t80 190.5l192 997h-317l28 143h502l-221 -1140q-41 -213 -142 -309.5t-282 -96.5h-254zM758 1323l45 233h184l-45 -233h-184z" />
<glyph unicode="k" d="M90 0l303 1556h191l-170 -874l549 438h241l-520 -422l373 -698h-213l-307 582l-168 -133l-88 -449h-191z" />
<glyph unicode="l" d="M311 1423l29 144h500l-240 -1159q-7 -35 -10.5 -62t-3.5 -45q0 -73 44.5 -109t135.5 -36h211l-31 -156h-207q-173 0 -257.5 63.5t-84.5 194.5q0 28 5 68t14 86l211 1011h-316z" />
<glyph unicode="m" d="M-14 0l217 1120h168l-19 -96q44 60 99.5 91.5t119.5 31.5q75 0 121 -37.5t56 -103.5q39 68 101.5 104.5t139.5 36.5q86 0 137.5 -54.5t51.5 -146.5q0 -54 -9 -122t-30 -175l-127 -649h-168l125 641q18 92 27.5 150.5t9.5 82.5q0 63 -23 91t-74 28q-75 0 -117 -64.5 t-85 -287.5l-125 -641h-168l125 641q19 97 27.5 153.5t8.5 79.5q0 61 -23.5 90t-72.5 29q-74 0 -114.5 -59.5t-85.5 -292.5l-125 -641h-168z" />
<glyph unicode="n" d="M84 0l219 1120h184l-32 -168q75 97 162.5 146t185.5 49q139 0 216 -72.5t77 -202.5q0 -32 -5.5 -79t-15.5 -99l-135 -694h-184l135 695q1 4 3 14q15 71 15 110q0 81 -46.5 124.5t-133.5 43.5q-127 0 -216 -93t-122 -261l-123 -633h-184z" />
<glyph unicode="o" d="M117 393q0 135 41 270t116 248q79 116 190.5 176t248.5 60q196 0 298.5 -107t102.5 -313q0 -138 -41 -274.5t-115 -245.5q-79 -118 -192 -177t-260 -59q-187 0 -288 109.5t-101 312.5zM313 385q0 -129 56 -193.5t168 -64.5q164 0 273.5 171t109.5 435q0 129 -56 193.5 t-168 64.5q-164 0 -273.5 -171t-109.5 -435z" />
<glyph unicode="p" d="M-2 -426l301 1546h184l-28 -143q61 82 147 126t186 44q162 0 251 -104t89 -291q0 -143 -39.5 -287t-109.5 -254q-75 -118 -177 -179t-224 -61q-100 0 -170.5 42t-114.5 128l-111 -567h-184zM354 383q0 -123 56 -189.5t159 -66.5q81 0 148 44.5t112 129.5q49 92 77 207.5 t28 228.5q0 127 -51.5 190.5t-153.5 63.5q-85 0 -153.5 -45t-116.5 -133q-49 -88 -77 -202t-28 -228z" />
<glyph unicode="q" d="M98 365q0 142 41 287t113 257q75 118 179.5 178t234.5 60q100 0 167.5 -42.5t102.5 -127.5l27 143h184l-299 -1546h-184l110 567q-61 -84 -143.5 -127t-184.5 -43q-164 0 -256 103.5t-92 290.5zM295 383q0 -128 50.5 -192t152.5 -64q82 0 151 45.5t119 132.5 q48 85 77 202.5t29 229.5q0 123 -53.5 188.5t-152.5 65.5q-85 0 -153 -44t-114 -130q-49 -94 -77.5 -210t-28.5 -224z" />
<glyph unicode="r" d="M217 0l217 1120h184l-40 -219q67 120 173.5 183t241.5 63q71 0 128.5 -18.5t97.5 -53.5l-35 -186q-45 44 -104.5 66t-135.5 22q-164 0 -281 -114.5t-155 -313.5l-107 -549h-184z" />
<glyph unicode="s" d="M115 41l37 190q94 -53 182.5 -79.5t171.5 -26.5q133 0 217 59.5t84 151.5q0 99 -196 151q-18 4 -28 7l-67 18q-129 33 -189.5 97t-60.5 167q0 170 132 270.5t356 100.5q88 0 169 -16.5t154 -49.5l-35 -180q-71 45 -149.5 68.5t-155.5 23.5q-137 0 -212.5 -51t-75.5 -143 q0 -98 221 -154q15 -4 22 -6l72 -18q117 -31 175 -92.5t58 -153.5q0 -181 -144 -292.5t-382 -111.5q-81 0 -169 17.5t-187 52.5z" />
<glyph unicode="t" d="M195 977l28 143h299l62 318h184l-61 -318h417l-28 -143h-418l-119 -608q-6 -30 -9 -55.5t-3 -47.5q0 -66 39 -92.5t141 -26.5h207l-29 -147h-223q-167 0 -245.5 55.5t-78.5 173.5q0 25 4 59t13 81l119 608h-299z" />
<glyph unicode="u" d="M125 246q0 39 4.5 85.5t13.5 94.5l133 694h185l-135 -694q-7 -37 -11 -71t-4 -58q0 -79 46.5 -121.5t131.5 -42.5q127 0 215 92.5t121 261.5l123 633h185l-218 -1120h-184l33 168q-73 -98 -162 -146.5t-194 -48.5q-131 0 -207 73.5t-76 199.5z" />
<glyph unicode="v" d="M182 1120h178l154 -956l502 956h198l-614 -1120h-238z" />
<glyph unicode="w" d="M92 1120h176l15 -905l268 578h162l49 -578l362 905h191l-486 -1120h-165l-60 623l-297 -623h-166z" />
<glyph unicode="x" d="M-70 0l564 596l-293 524h196l217 -395l369 395h225l-512 -547l318 -573h-197l-244 444l-417 -444h-226z" />
<glyph unicode="y" d="M-39 -426l29 154h108q81 0 139.5 46.5t118.5 159.5l43 84l-217 1102h183l172 -862l483 862h205l-439 -760q-62 -107 -165 -288q-155 -275 -209 -348q-58 -76 -132.5 -113t-170.5 -37h-148z" />
<glyph unicode="z" d="M78 0l33 168l784 805h-604l28 147h814l-33 -168l-785 -805h629l-29 -147h-837z" />
<glyph unicode="{" d="M154 537l29 147h91q145 0 208 55q62 54 93 205l50 244q25 124 61 194q36 72 90 111q47 34 116 48.5t202 14.5h82l-29 -143h-78h-7q-129 1 -176 -39t-77 -190l-51 -252q-32 -158 -93 -232q-60 -72 -171 -94q73 -18 113 -69.5t40 -126.5q1 -25 -3 -57q-5 -42 -11 -70 l-47 -244q-6 -31 -8 -59q-2 -26 -3 -50q0 -63 43 -91.5t140 -28.5h78l-29 -144h-72q-187 0 -268.5 54.5t-81.5 177.5v13q-1 20 3 52q6 48 11 71l45 236q1 3 3 12q10 50 10 95q0 85 -49 122.5t-162 37.5h-92z" />
<glyph unicode="|" d="M530 -483v2048h172v-2048h-172z" />
<glyph unicode="}" d="M-14 -334l28 144h78q136 0 183 40q47 39 77 189l51 252q32 159 93 233q60 72 172 92q-74 19 -114 70t-40 127q0 25 4 57q3 32 10 70l47 243q6 34 8.5 59.5t2.5 49.5q0 64 -42.5 92.5t-140.5 28.5h-77l26 143h74q188 0 269 -54t81 -177q0 -32 -4 -66q-3 -34 -10 -71 l-45 -236q-2 -10 -2 -12q-10 -49 -10 -94q0 -86 49 -123t161 -37h92l-29 -147h-91q-143 0 -207 -55q-67 -58 -96 -205l-47 -244q-22 -115 -62 -195q-36 -71 -90 -110q-47 -34 -116 -49t-201 -15h-82z" />
<glyph unicode="~" d="M88 492v174q78 60 151 87t156 27q53 0 103 -11t124 -42q12 -5 33 -15q116 -55 209 -55q70 0 138.5 30.5t142.5 92.5v-174q-75 -59 -146.5 -86.5t-150.5 -27.5q-90 0 -203 51q-22 10 -33 14q-77 33 -128.5 45t-102.5 12q-79 0 -149.5 -29.5t-143.5 -92.5z" />
<glyph unicode="&#xa0;" />
<glyph unicode="&#xa1;" d="M389 0l129 655l88 357h162l-49 -357l-127 -655h-203zM631 1239l49 254h203l-49 -254h-203z" />
<glyph unicode="&#xa2;" d="M123 430q0 186 81 348t222 258q70 49 147.5 76t163.5 33l56 287h102l-55 -287q60 -3 122.5 -20t124.5 -48l-32 -172q-49 38 -110.5 60t-133.5 28l-170 -870q65 5 134.5 27.5t144.5 62.5l-33 -172q-75 -31 -143.5 -47.5t-131.5 -20.5l-55 -286h-102l55 286 q-183 20 -285 141t-102 316zM315 422q0 -130 58.5 -206.5t167.5 -88.5l168 864q-165 -15 -279.5 -179.5t-114.5 -389.5z" />
<glyph unicode="&#xa3;" d="M-8 0l33 170h237l90 465h-198l26 143h199l47 238q51 260 182 382t359 122q60 0 125 -14.5t137 -43.5l-37 -184q-54 43 -114.5 65.5t-123.5 22.5q-139 0 -216 -85t-115 -286l-43 -217h370l-28 -143h-371l-90 -465h536l-32 -170h-973z" />
<glyph unicode="&#xa4;" d="M205 285l166 166q-31 51 -45.5 97.5t-14.5 92.5q0 50 15.5 96.5t46.5 91.5l-168 166l94 95l166 -168q46 31 91.5 46t96.5 15q46 0 93 -14.5t98 -44.5l166 166l90 -93l-166 -166q30 -49 44.5 -95.5t14.5 -94.5q0 -50 -15 -95.5t-46 -90.5l168 -166l-94 -94l-166 167 q-46 -31 -91.5 -46t-95.5 -15q-48 0 -96 14.5t-96 42.5l-164 -163zM438 643q0 -92 62.5 -154.5t152.5 -62.5q91 0 153 63t62 154q0 90 -62 151.5t-153 61.5q-90 0 -152.5 -61.5t-62.5 -151.5z" />
<glyph unicode="&#xa5;" d="M47 524l23 111h397l6 35l-55 151h-309l22 111h246l-205 561h207l223 -664l459 664h211l-404 -561h252l-22 -111h-312l-110 -151l-10 -35h393l-23 -111h-393l-98 -524h-199l98 524h-397z" />
<glyph unicode="&#xa6;" d="M530 -350v758h172v-758h-172zM530 674v758h172v-758h-172z" />
<glyph unicode="&#xa7;" d="M100 -143l33 161q74 -36 146 -55.5t133 -19.5q112 0 178.5 47t66.5 125q0 98 -183 222l-13 9l-74 51q-125 85 -165 140.5t-40 128.5q0 96 64 182t182 149q-41 37 -59.5 77t-18.5 93q0 149 120 246.5t306 97.5q71 0 144.5 -14t148.5 -43l-33 -164q-71 38 -139.5 58 t-126.5 20q-103 0 -169 -49t-66 -121q0 -79 134 -169q31 -20 48 -32l86 -59q124 -86 166.5 -144.5t42.5 -127.5q0 -101 -66 -191t-180 -143q41 -35 61.5 -80t20.5 -100q0 -157 -121.5 -255t-320.5 -98q-70 0 -146.5 14.5t-159.5 43.5zM348 709q0 -51 42.5 -99t168.5 -131 l119 -78q84 51 128 106.5t44 110.5q0 53 -53.5 109t-200.5 150l-80 51q-82 -52 -125 -108t-43 -111z" />
<glyph unicode="&#xa8;" d="M436 1350l39 202h203l-39 -202h-203zM827 1350l39 202h203l-39 -202h-203z" />
<glyph unicode="&#xa9;" d="M0 741q0 126 46 236t136 201q90 90 199 135t235 45q127 0 236 -45t199 -135q90 -91 136 -201t46 -236q0 -125 -45.5 -234t-136.5 -200t-200 -136.5t-235 -45.5q-125 0 -234 45.5t-200 136.5t-136.5 200t-45.5 234zM102 741q0 -104 38.5 -195.5t113.5 -166.5 q76 -76 166.5 -114t195.5 -38q106 0 196.5 38t166.5 114t113.5 166.5t37.5 195.5q0 106 -38 198t-113 167t-165.5 112t-197.5 37q-106 0 -196.5 -37t-165.5 -112t-113.5 -167t-38.5 -198zM250 741q0 173 104 274t283 101q61 0 118 -11t109 -34v-108q-58 28 -113.5 41.5 t-113.5 13.5q-117 0 -184.5 -74.5t-67.5 -202.5q0 -132 70 -203t200 -71q56 0 107.5 12.5t101.5 38.5v-104q-52 -23 -109 -34t-118 -11q-180 0 -283.5 100t-103.5 272z" />
<glyph unicode="&#xaa;" d="M223 469l23 123h676l-23 -123h-676zM295 920q0 140 111.5 219.5t310.5 79.5h174q0 2 1 9q3 27 3 40q0 71 -44 104t-140 33q-69 0 -137 -16.5t-140 -51.5l23 127q75 28 148 42t138 14q148 0 220.5 -62.5t72.5 -189.5q0 -23 -2.5 -48.5t-7.5 -54.5l-86 -448h-143l22 112 q-53 -63 -127 -97t-160 -34q-109 0 -173 60t-64 162zM442 938q0 -55 36.5 -88t96.5 -33q111 0 186.5 67t102.5 191l6 29h-141q-148 0 -217.5 -40t-69.5 -126z" />
<glyph unicode="&#xab;" d="M74 559l16 82l549 418l-43 -211l-350 -264l250 -267l-35 -176zM541 559l16 82l549 418l-43 -211l-350 -264l250 -267l-35 -176z" />
<glyph unicode="&#xac;" d="M88 690v172h1057v-491h-168v319h-889z" />
<glyph unicode="&#xad;" d="M303 479l33 164h522l-33 -164h-522z" />
<glyph unicode="&#xae;" d="M0 741q0 126 46 236t136 201q90 90 199 135t235 45q127 0 236 -45t199 -135q90 -91 136 -201t46 -236q0 -125 -45.5 -234t-136.5 -200t-200 -136.5t-235 -45.5q-125 0 -234 45.5t-200 136.5t-136.5 200t-45.5 234zM102 741q0 -104 38.5 -195.5t113.5 -166.5 q76 -76 166.5 -114t195.5 -38q106 0 196.5 38t166.5 114t113.5 166.5t37.5 195.5q0 106 -38 198t-113 167t-165.5 112t-197.5 37q-106 0 -196.5 -37t-165.5 -112t-113.5 -167t-38.5 -198zM362 406v694h238q147 0 219 -49t72 -150q0 -71 -44 -117.5t-124 -60.5 q19 -5 48 -38.5t67 -92.5l114 -186h-143l-107 174q-49 80 -79.5 101t-75.5 21h-55v-296h-130zM492 784h102q90 0 127 27t37 90q0 62 -37 88.5t-127 26.5h-102v-232z" />
<glyph unicode="&#xaf;" d="M440 1378l29 148h598l-29 -148h-598z" />
<glyph unicode="&#xb0;" d="M299 1200q0 134 92 227t225 93q65 0 123.5 -24.5t102.5 -70.5q45 -45 68.5 -102t23.5 -123q0 -132 -93 -223.5t-227 -91.5q-135 0 -225 90t-90 225zM426 1200q0 -80 54.5 -134t133.5 -54q80 0 136.5 55t56.5 133q0 79 -56 135t-135 56t-134.5 -55.5t-55.5 -135.5z" />
<glyph unicode="&#xb1;" d="M88 0v170h1057v-170h-1057zM88 672v170h444v329h168v-329h445v-170h-445v-332h-168v332h-444z" />
<glyph unicode="&#xb2;" d="M307 668l21 110l170 140l33 27q313 253 313 358q0 51 -37 81.5t-100 30.5q-51 0 -112 -18.5t-144 -59.5l24 127q84 29 146.5 42.5t115.5 13.5q118 0 186 -55.5t68 -149.5q0 -139 -309 -382l-20 -15l-170 -136h395l-23 -114h-557z" />
<glyph unicode="&#xb3;" d="M287 694l24 121q67 -29 119 -42t102 -13q112 0 177 46t65 124q0 67 -42.5 99t-131.5 32h-72l21 106h72q97 0 156 40t59 104q0 51 -43 76.5t-129 25.5q-42 0 -92.5 -10.5t-110.5 -32.5l22 115q71 17 132 26t116 9q121 0 186.5 -50t65.5 -141q0 -79 -57 -137t-154 -76 q72 -12 111 -57.5t39 -116.5q0 -131 -104 -210t-279 -79q-66 0 -129.5 10.5t-122.5 30.5z" />
<glyph unicode="&#xb4;" d="M575 1262l332 376h219l-395 -376h-156z" />
<glyph unicode="&#xb5;" d="M-39 -426l301 1546h187l-136 -696q-6 -31 -9 -58t-3 -47q0 -91 54.5 -139.5t156.5 -48.5q137 0 219 83t115 253l127 653h186l-168 -862q-3 -18 -4.5 -31t-1.5 -24q0 -30 12.5 -46t36.5 -16q9 0 25 5t47 18l-29 -148q-40 -22 -77 -33.5t-70 -11.5q-67 0 -106.5 42.5 t-39.5 115.5q-53 -82 -122.5 -120t-167.5 -38q-92 0 -154 41.5t-94 124.5l-109 -563h-176z" />
<glyph unicode="&#xb6;" d="M125 1004q0 209 173 349t437 140h406l-328 -1690h-139l303 1567h-191l-303 -1567h-141l164 846q-177 4 -279 99t-102 256z" />
<glyph unicode="&#xb7;" d="M455 559l57 305h254l-59 -305h-252z" />
<glyph unicode="&#xb8;" d="M182 -365l25 129q40 -19 76.5 -28.5t68.5 -9.5q67 0 104.5 30t37.5 84q0 28 -14.5 67t-43.5 93h119q37 -64 54.5 -110.5t17.5 -82.5q0 -93 -70.5 -147.5t-189.5 -54.5q-44 0 -91 7.5t-94 22.5z" />
<glyph unicode="&#xb9;" d="M348 668l21 110h206l117 611l-231 -41l22 116l238 39h137l-141 -725h205l-21 -110h-553z" />
<glyph unicode="&#xba;" d="M223 469l23 123h676l-23 -123h-676zM307 1036q0 87 32.5 176t88.5 156q61 74 142 113t171 39q151 0 237.5 -91t86.5 -249q0 -88 -32 -176t-87 -154q-61 -74 -141.5 -113t-171.5 -39q-152 0 -239 90.5t-87 247.5zM463 1038q0 -105 49.5 -165t136.5 -60q106 0 184 108 t78 259q0 105 -49.5 165t-136.5 60q-107 0 -184.5 -107.5t-77.5 -259.5z" />
<glyph unicode="&#xbb;" d="M82 141l43 211l350 262l-250 269l35 176l387 -418l-14 -82zM549 141l43 211l350 262l-250 269l35 176l387 -418l-14 -82z" />
<glyph unicode="&#xbc;" d="M47 612l1059 258l27 -108l-1063 -258zM90 824l21 110h206l117 611l-231 -41l22 116l238 39h137l-141 -725h205l-21 -110h-553zM413 -86l23 121l465 530h162l-105 -540h117l-20 -111h-119l-33 -184h-139l35 184h-386zM555 25h266l76 391z" />
<glyph unicode="&#xbd;" d="M47 612l1059 258l27 -108l-1063 -258zM90 824l21 110h206l117 611l-231 -41l22 116l238 39h137l-141 -725h205l-21 -110h-553zM461 -270l21 110l170 140l33 27q313 253 313 358q0 51 -37 81.5t-100 30.5q-51 0 -112 -18.5t-144 -59.5l24 127q84 29 146.5 42.5t115.5 13.5 q118 0 186 -55.5t68 -149.5q0 -139 -309 -382l-20 -15l-170 -136h395l-23 -114h-557z" />
<glyph unicode="&#xbe;" d="M47 612l1059 258l27 -108l-1063 -258zM60 850l24 121q67 -29 119 -42t102 -13q112 0 177 46t65 124q0 67 -42.5 99t-131.5 32h-72l21 106h72q97 0 156 40t59 104q0 51 -43 76.5t-129 25.5q-42 0 -92.5 -10.5t-110.5 -32.5l22 115q71 17 132 26t116 9q121 0 186.5 -50 t65.5 -141q0 -79 -57 -137t-154 -76q72 -12 111 -57.5t39 -116.5q0 -131 -104 -210t-279 -79q-66 0 -129.5 10.5t-122.5 30.5zM413 -86l23 121l465 530h162l-105 -540h117l-20 -111h-119l-33 -184h-139l35 184h-386zM555 25h266l76 391z" />
<glyph unicode="&#xbf;" d="M143 262q0 94 49 174.5t179 188.5l104 86q84 70 114.5 121t45.5 137l20 123h191l-29 -154q-18 -93 -58 -158.5t-151 -158.5l-106 -89q-85 -72 -120.5 -127.5t-35.5 -111.5q0 -74 55.5 -115t155.5 -41q79 0 177 35.5t204 101.5l-37 -188q-108 -57 -209.5 -85t-202.5 -28 q-152 0 -249 81.5t-97 207.5zM678 1239l49 254h203l-49 -254h-203z" />
<glyph unicode="&#xc0;" d="M-106 0l745 1493h246l166 -1493h-201l-35 389h-520l-184 -389h-217zM371 551h430l-66 774zM551 1899h182l147 -264h-139z" />
<glyph unicode="&#xc1;" d="M-106 0l745 1493h246l166 -1493h-201l-35 389h-520l-184 -389h-217zM371 551h430l-66 774zM626 1635l259 264h208l-307 -264h-160z" />
<glyph unicode="&#xc2;" d="M-106 0l745 1493h246l166 -1493h-201l-35 389h-520l-184 -389h-217zM371 551h430l-66 774zM442 1635l262 266h213l158 -266h-133l-139 178l-209 -178h-152z" />
<glyph unicode="&#xc3;" d="M-106 0l745 1493h246l166 -1493h-201l-35 389h-520l-184 -389h-217zM371 551h430l-66 774zM442 1667q35 109 97 164t147 55q34 0 65 -11t66 -36l35 -26q18 -14 36 -20.5t37 -6.5q40 0 68 27t39 73h125q-32 -109 -95 -164t-155 -55q-31 0 -58.5 10.5t-58.5 32.5l-34 25 l-2 1q-42 32 -80 32q-34 0 -61 -25.5t-46 -75.5h-125z" />
<glyph unicode="&#xc4;" d="M-106 0l745 1493h246l166 -1493h-201l-35 389h-520l-184 -389h-217zM371 551h430l-66 774zM467 1667l39 203h204l-41 -203h-202zM858 1667l39 203h203l-39 -203h-203z" />
<glyph unicode="&#xc5;" d="M-106 0l706 1415q-51 35 -76.5 88.5t-25.5 122.5q0 114 79.5 194.5t194.5 80.5q114 0 194.5 -80.5t80.5 -194.5q0 -81 -40 -144.5t-110 -95.5l154 -1386h-201l-35 389h-520l-184 -389h-217zM371 551h430l-66 774zM621 1626q0 -63 43.5 -107t107.5 -44q63 0 107.5 44 t44.5 107t-44.5 107.5t-107.5 44.5q-64 0 -107.5 -43.5t-43.5 -108.5z" />
<glyph unicode="&#xc6;" d="M-145 0l700 1493h752l-33 -170h-338l-86 -442h307l-33 -170h-307l-106 -541h356l-33 -170h-542l75 383h-352l-176 -383h-184zM291 551h309l150 772h-103z" />
<glyph unicode="&#xc7;" d="M115 477q0 220 70 436t184 353q107 130 236 192t294 62q80 0 159 -21t154 -61l-41 -207q-64 63 -135 94t-151 31q-95 0 -176 -40.5t-152 -123.5q-104 -123 -167.5 -315t-63.5 -385q0 -173 78 -265t225 -92q85 0 175.5 32t178.5 93l-39 -207q-84 -41 -169.5 -61.5 t-176.5 -20.5q-230 0 -356.5 133t-126.5 373zM286 -365l25 129q40 -19 76.5 -28.5t68.5 -9.5q67 0 104.5 30t37.5 84q0 28 -14.5 67t-43.5 93h119q37 -64 54.5 -110.5t17.5 -82.5q0 -93 -70.5 -147.5t-189.5 -54.5q-44 0 -91 7.5t-94 22.5z" />
<glyph unicode="&#xc8;" d="M53 0l291 1493h885l-33 -170h-684l-86 -442h653l-32 -170h-654l-104 -541h702l-33 -170h-905zM596 1899h182l147 -264h-139z" />
<glyph unicode="&#xc9;" d="M53 0l291 1493h885l-33 -170h-684l-86 -442h653l-32 -170h-654l-104 -541h702l-33 -170h-905zM671 1635l259 264h208l-307 -264h-160z" />
<glyph unicode="&#xca;" d="M53 0l291 1493h885l-33 -170h-684l-86 -442h653l-32 -170h-654l-104 -541h702l-33 -170h-905zM487 1635l262 266h213l158 -266h-133l-139 178l-209 -178h-152z" />
<glyph unicode="&#xcb;" d="M53 0l291 1493h885l-33 -170h-684l-86 -442h653l-32 -170h-654l-104 -541h702l-33 -170h-905zM512 1667l39 203h204l-41 -203h-202zM903 1667l39 203h203l-39 -203h-203z" />
<glyph unicode="&#xcc;" d="M57 0l33 170h313l224 1153h-314l33 170h830l-33 -170h-314l-223 -1153h314l-33 -170h-830zM557 1899h182l147 -264h-139z" />
<glyph unicode="&#xcd;" d="M57 0l33 170h313l224 1153h-314l33 170h830l-33 -170h-314l-223 -1153h314l-33 -170h-830zM632 1635l259 264h208l-307 -264h-160z" />
<glyph unicode="&#xce;" d="M57 0l33 170h313l224 1153h-314l33 170h830l-33 -170h-314l-223 -1153h314l-33 -170h-830zM448 1635l262 266h213l158 -266h-133l-139 178l-209 -178h-152z" />
<glyph unicode="&#xcf;" d="M57 0l33 170h313l224 1153h-314l33 170h830l-33 -170h-314l-223 -1153h314l-33 -170h-830zM473 1667l39 203h204l-41 -203h-202zM864 1667l39 203h203l-39 -203h-203z" />
<glyph unicode="&#xd0;" d="M-8 0l137 709h-127l29 149h129l123 635h303q273 0 408.5 -124t135.5 -376q0 -162 -42 -334t-113 -305q-104 -191 -259.5 -272.5t-420.5 -81.5h-303zM227 166h97q185 0 297 62.5t180 203.5q54 115 88.5 274.5t34.5 292.5q0 176 -82 252t-275 76h-114l-91 -469h267 l-29 -149h-266z" />
<glyph unicode="&#xd1;" d="M-6 0l291 1493h256l264 -1229l239 1229h195l-291 -1493h-256l-264 1229l-240 -1229h-194zM438 1667q35 109 97 164t147 55q34 0 65 -11t66 -36l35 -26q18 -14 36 -20.5t37 -6.5q40 0 68 27t39 73h125q-32 -109 -95 -164t-155 -55q-31 0 -58.5 10.5t-58.5 32.5l-34 25 l-2 1q-42 32 -80 32q-34 0 -61 -25.5t-46 -75.5h-125z" />
<glyph unicode="&#xd2;" d="M82 473q0 111 21.5 238.5t64.5 263.5q29 92 62.5 165t72.5 132q88 127 197 187.5t254 60.5q202 0 299.5 -122.5t97.5 -377.5q0 -110 -22.5 -239t-65.5 -265q-29 -92 -62.5 -165t-72.5 -132q-88 -127 -197 -187.5t-254 -60.5q-201 0 -298 123t-97 379zM287 414 q0 -143 52.5 -211t162.5 -68q85 0 157 51t119 146q74 145 120 351t46 396q0 142 -52.5 209.5t-162.5 67.5q-85 0 -156 -51t-118 -146q-76 -147 -122 -351t-46 -394zM543 1899h182l147 -264h-139z" />
<glyph unicode="&#xd3;" d="M82 473q0 111 21.5 238.5t64.5 263.5q29 92 62.5 165t72.5 132q88 127 197 187.5t254 60.5q202 0 299.5 -122.5t97.5 -377.5q0 -110 -22.5 -239t-65.5 -265q-29 -92 -62.5 -165t-72.5 -132q-88 -127 -197 -187.5t-254 -60.5q-201 0 -298 123t-97 379zM287 414 q0 -143 52.5 -211t162.5 -68q85 0 157 51t119 146q74 145 120 351t46 396q0 142 -52.5 209.5t-162.5 67.5q-85 0 -156 -51t-118 -146q-76 -147 -122 -351t-46 -394zM618 1635l259 264h208l-307 -264h-160z" />
<glyph unicode="&#xd4;" d="M82 473q0 111 21.5 238.5t64.5 263.5q29 92 62.5 165t72.5 132q88 127 197 187.5t254 60.5q202 0 299.5 -122.5t97.5 -377.5q0 -110 -22.5 -239t-65.5 -265q-29 -92 -62.5 -165t-72.5 -132q-88 -127 -197 -187.5t-254 -60.5q-201 0 -298 123t-97 379zM287 414 q0 -143 52.5 -211t162.5 -68q85 0 157 51t119 146q74 145 120 351t46 396q0 142 -52.5 209.5t-162.5 67.5q-85 0 -156 -51t-118 -146q-76 -147 -122 -351t-46 -394zM434 1635l262 266h213l158 -266h-133l-139 178l-209 -178h-152z" />
<glyph unicode="&#xd5;" d="M82 473q0 111 21.5 238.5t64.5 263.5q29 92 62.5 165t72.5 132q88 127 197 187.5t254 60.5q202 0 299.5 -122.5t97.5 -377.5q0 -110 -22.5 -239t-65.5 -265q-29 -92 -62.5 -165t-72.5 -132q-88 -127 -197 -187.5t-254 -60.5q-201 0 -298 123t-97 379zM287 414 q0 -143 52.5 -211t162.5 -68q85 0 157 51t119 146q74 145 120 351t46 396q0 142 -52.5 209.5t-162.5 67.5q-85 0 -156 -51t-118 -146q-76 -147 -122 -351t-46 -394zM434 1667q35 109 97 164t147 55q34 0 65 -11t66 -36l35 -26q18 -14 36 -20.5t37 -6.5q40 0 68 27t39 73h125 q-32 -109 -95 -164t-155 -55q-31 0 -58.5 10.5t-58.5 32.5l-34 25l-2 1q-42 32 -80 32q-34 0 -61 -25.5t-46 -75.5h-125z" />
<glyph unicode="&#xd6;" d="M82 473q0 111 21.5 238.5t64.5 263.5q29 92 62.5 165t72.5 132q88 127 197 187.5t254 60.5q202 0 299.5 -122.5t97.5 -377.5q0 -110 -22.5 -239t-65.5 -265q-29 -92 -62.5 -165t-72.5 -132q-88 -127 -197 -187.5t-254 -60.5q-201 0 -298 123t-97 379zM287 414 q0 -143 52.5 -211t162.5 -68q85 0 157 51t119 146q74 145 120 351t46 396q0 142 -52.5 209.5t-162.5 67.5q-85 0 -156 -51t-118 -146q-76 -147 -122 -351t-46 -394zM459 1667l39 203h204l-41 -203h-202zM850 1667l39 203h203l-39 -203h-203z" />
<glyph unicode="&#xd7;" d="M150 293l350 348l-350 350l116 117l350 -350l351 350l116 -117l-350 -350l348 -348l-116 -119l-349 350l-348 -350z" />
<glyph unicode="&#xd8;" d="M14 -6l119 170q-27 58 -40 128.5t-13 156.5q0 198 52 408.5t136 359.5q88 153 207.5 228t278.5 75q77 0 142.5 -21.5t119.5 -64.5l84 125l100 -64l-106 -158q29 -60 43 -132t14 -163q0 -196 -52.5 -407t-135.5 -359q-88 -154 -208 -229.5t-278 -75.5q-81 0 -148.5 23 t-121.5 69l-94 -133zM287 457q0 -10 2 -38q1 -18 2 -30l614 885q-29 39 -74.5 60.5t-101.5 21.5q-113 0 -193.5 -82t-140.5 -256q-50 -148 -79 -300.5t-29 -260.5zM322 229q20 -44 67 -69t113 -25q112 0 192.5 82t141.5 256q50 145 77 292.5t27 270.5q0 28 -0.5 45.5 t-1.5 34.5z" />
<glyph unicode="&#xd9;" d="M80 317q0 37 8.5 100t26.5 156l178 920h203l-179 -920q-2 -13 -8 -41q-30 -154 -30 -213q0 -92 54.5 -138t164.5 -46q89 0 151 28.5t107 90.5q22 31 44.5 106.5t49.5 212.5l178 920h203l-178 -920q-42 -219 -89.5 -321.5t-125.5 -165.5q-71 -56 -162 -85.5t-197 -29.5 q-192 0 -295.5 90t-103.5 256zM555 1899h182l147 -264h-139z" />
<glyph unicode="&#xda;" d="M80 317q0 37 8.5 100t26.5 156l178 920h203l-179 -920q-2 -13 -8 -41q-30 -154 -30 -213q0 -92 54.5 -138t164.5 -46q89 0 151 28.5t107 90.5q22 31 44.5 106.5t49.5 212.5l178 920h203l-178 -920q-42 -219 -89.5 -321.5t-125.5 -165.5q-71 -56 -162 -85.5t-197 -29.5 q-192 0 -295.5 90t-103.5 256zM630 1635l259 264h208l-307 -264h-160z" />
<glyph unicode="&#xdb;" d="M80 317q0 37 8.5 100t26.5 156l178 920h203l-179 -920q-2 -13 -8 -41q-30 -154 -30 -213q0 -92 54.5 -138t164.5 -46q89 0 151 28.5t107 90.5q22 31 44.5 106.5t49.5 212.5l178 920h203l-178 -920q-42 -219 -89.5 -321.5t-125.5 -165.5q-71 -56 -162 -85.5t-197 -29.5 q-192 0 -295.5 90t-103.5 256zM446 1635l262 266h213l158 -266h-133l-139 178l-209 -178h-152z" />
<glyph unicode="&#xdc;" d="M80 317q0 37 8.5 100t26.5 156l178 920h203l-179 -920q-2 -13 -8 -41q-30 -154 -30 -213q0 -92 54.5 -138t164.5 -46q89 0 151 28.5t107 90.5q22 31 44.5 106.5t49.5 212.5l178 920h203l-178 -920q-42 -219 -89.5 -321.5t-125.5 -165.5q-71 -56 -162 -85.5t-197 -29.5 q-192 0 -295.5 90t-103.5 256zM471 1667l39 203h204l-41 -203h-202zM862 1667l39 203h203l-39 -203h-203z" />
<glyph unicode="&#xdd;" d="M195 1493h202l236 -651l497 651h218l-635 -823l-129 -670h-207l131 670zM632 1635l259 264h208l-307 -264h-160z" />
<glyph unicode="&#xde;" d="M51 0l291 1493l203 -2l-51 -274h241q207 0 315.5 -88t108.5 -255q0 -236 -161 -372.5t-441 -136.5h-231l-72 -365h-203zM356 522h234q164 0 263 92t99 244q0 103 -62 152t-192 49h-237z" />
<glyph unicode="&#xdf;" d="M55 0l221 1137q42 212 161.5 315.5t322.5 103.5q176 0 271 -80t95 -229q0 -33 -4.5 -68t-13.5 -71q-174 -21 -274.5 -88.5t-100.5 -163.5q0 -38 20.5 -68.5t80.5 -74.5l51 -39q115 -85 155.5 -151.5t40.5 -153.5q0 -183 -129.5 -290.5t-351.5 -107.5q-71 0 -138 12.5 t-132 36.5l30 164q59 -32 125.5 -48.5t137.5 -16.5q131 0 206.5 62.5t75.5 170.5q0 52 -27 93t-112 104l-61 47q-90 68 -118 114t-28 109q0 131 101.5 227t279.5 132q3 15 4.5 29.5t1.5 29.5q0 79 -52 123.5t-144 44.5q-121 0 -192 -67.5t-97 -204.5l-219 -1133h-187z" />
<glyph unicode="&#xe0;" d="M72 276q0 196 154.5 313.5t418.5 117.5h246l12 61q2 9 3 19t1 28q0 85 -63 130.5t-180 45.5q-86 0 -185.5 -25.5t-210.5 -76.5l35 180q108 39 205 58.5t186 19.5q186 0 289.5 -82t103.5 -227q0 -32 -6 -84t-18 -115l-125 -639h-184l32 166q-72 -94 -170 -144.5 t-208 -50.5q-153 0 -244.5 83.5t-91.5 221.5zM264 307q0 -83 51.5 -132.5t139.5 -49.5q148 0 255.5 106t145.5 291l8 41h-172q-119 0 -177 -7.5t-101 -25.5q-68 -27 -109 -88.5t-41 -134.5zM457 1638h198l197 -376h-143z" />
<glyph unicode="&#xe1;" d="M72 276q0 196 154.5 313.5t418.5 117.5h246l12 61q2 9 3 19t1 28q0 85 -63 130.5t-180 45.5q-86 0 -185.5 -25.5t-210.5 -76.5l35 180q108 39 205 58.5t186 19.5q186 0 289.5 -82t103.5 -227q0 -32 -6 -84t-18 -115l-125 -639h-184l32 166q-72 -94 -170 -144.5 t-208 -50.5q-153 0 -244.5 83.5t-91.5 221.5zM264 307q0 -83 51.5 -132.5t139.5 -49.5q148 0 255.5 106t145.5 291l8 41h-172q-119 0 -177 -7.5t-101 -25.5q-68 -27 -109 -88.5t-41 -134.5zM579 1262l332 376h219l-395 -376h-156z" />
<glyph unicode="&#xe2;" d="M72 276q0 196 154.5 313.5t418.5 117.5h246l12 61q2 9 3 19t1 28q0 85 -63 130.5t-180 45.5q-86 0 -185.5 -25.5t-210.5 -76.5l35 180q108 39 205 58.5t186 19.5q186 0 289.5 -82t103.5 -227q0 -32 -6 -84t-18 -115l-125 -639h-184l32 166q-72 -94 -170 -144.5 t-208 -50.5q-153 0 -244.5 83.5t-91.5 221.5zM264 307q0 -83 51.5 -132.5t139.5 -49.5q148 0 255.5 106t145.5 291l8 41h-172q-119 0 -177 -7.5t-101 -25.5q-68 -27 -109 -88.5t-41 -134.5zM401 1262l320 376h147l164 -376h-133l-117 241l-225 -241h-156z" />
<glyph unicode="&#xe3;" d="M72 276q0 196 154.5 313.5t418.5 117.5h246l12 61q2 9 3 19t1 28q0 85 -63 130.5t-180 45.5q-86 0 -185.5 -25.5t-210.5 -76.5l35 180q108 39 205 58.5t186 19.5q186 0 289.5 -82t103.5 -227q0 -32 -6 -84t-18 -115l-125 -639h-184l32 166q-72 -94 -170 -144.5 t-208 -50.5q-153 0 -244.5 83.5t-91.5 221.5zM264 307q0 -83 51.5 -132.5t139.5 -49.5q148 0 255.5 106t145.5 291l8 41h-172q-119 0 -177 -7.5t-101 -25.5q-68 -27 -109 -88.5t-41 -134.5zM405 1309q17 136 74 209t146 73q43 0 77 -15.5t72 -53.5l47 -47q21 -22 37 -30.5 t33 -8.5q41 0 65.5 39t32.5 116h125q-17 -137 -73.5 -210.5t-145.5 -73.5q-44 0 -77 14.5t-73 54.5l-47 49q-19 19 -36.5 28t-34.5 9q-42 0 -65.5 -37.5t-31.5 -115.5h-125z" />
<glyph unicode="&#xe4;" d="M72 276q0 196 154.5 313.5t418.5 117.5h246l12 61q2 9 3 19t1 28q0 85 -63 130.5t-180 45.5q-86 0 -185.5 -25.5t-210.5 -76.5l35 180q108 39 205 58.5t186 19.5q186 0 289.5 -82t103.5 -227q0 -32 -6 -84t-18 -115l-125 -639h-184l32 166q-72 -94 -170 -144.5 t-208 -50.5q-153 0 -244.5 83.5t-91.5 221.5zM264 307q0 -83 51.5 -132.5t139.5 -49.5q148 0 255.5 106t145.5 291l8 41h-172q-119 0 -177 -7.5t-101 -25.5q-68 -27 -109 -88.5t-41 -134.5zM440 1350l39 202h203l-39 -202h-203zM831 1350l39 202h203l-39 -202h-203z" />
<glyph unicode="&#xe5;" d="M72 276q0 196 154.5 313.5t418.5 117.5h246l12 61q2 9 3 19t1 28q0 85 -63 130.5t-180 45.5q-86 0 -185.5 -25.5t-210.5 -76.5l35 180q108 39 205 58.5t186 19.5q186 0 289.5 -82t103.5 -227q0 -32 -6 -84t-18 -115l-125 -639h-184l32 166q-72 -94 -170 -144.5 t-208 -50.5q-153 0 -244.5 83.5t-91.5 221.5zM264 307q0 -83 51.5 -132.5t139.5 -49.5q148 0 255.5 106t145.5 291l8 41h-172q-119 0 -177 -7.5t-101 -25.5q-68 -27 -109 -88.5t-41 -134.5zM508 1595q0 116 79.5 195.5t194.5 79.5t195 -79.5t80 -195.5q0 -115 -80 -194.5 t-195 -79.5t-194.5 79.5t-79.5 194.5zM631 1595q0 -64 43.5 -107.5t107.5 -43.5t108 44t44 107q0 64 -44 108t-108 44t-107.5 -43.5t-43.5 -108.5z" />
<glyph unicode="&#xe6;" d="M-47 240q0 200 120.5 308.5t344.5 108.5h117l18 88q4 20 6 41.5t2 47.5q0 76 -42.5 118.5t-119.5 42.5q-49 0 -115.5 -21.5t-142.5 -62.5l35 168q79 34 148 51t125 17q82 0 141 -33t90 -96q50 62 120 95.5t150 33.5q121 0 192.5 -77t71.5 -208q0 -39 -8.5 -102.5 t-25.5 -155.5l-17 -90h-495q-19 -91 -27 -146t-8 -83q0 -78 48.5 -122t133.5 -44q70 0 141.5 29t124.5 79l-34 -172q-59 -41 -125 -62.5t-138 -21.5q-106 0 -175.5 41.5t-94.5 118.5q-47 -80 -117.5 -120t-163.5 -40q-128 0 -204 73t-76 196zM123 262q0 -60 39 -99.5 t98 -39.5q90 0 140.5 67t86.5 252l15 72h-49q-125 0 -177.5 -15.5t-87.5 -54.5q-30 -33 -47.5 -82t-17.5 -100zM694 657h330l16 74q6 27 8.5 55t2.5 60q0 70 -34 109.5t-93 39.5q-83 0 -136 -63.5t-77 -192.5z" />
<glyph unicode="&#xe7;" d="M156 416q0 149 53.5 292.5t144.5 241.5q93 99 204.5 148t244.5 49q89 0 172 -21.5t162 -64.5l-37 -182q-66 58 -136 85t-155 27q-110 0 -195 -44.5t-145 -133.5q-56 -82 -87.5 -187.5t-31.5 -209.5q0 -144 68.5 -216.5t204.5 -72.5q96 0 184.5 31t171.5 94l-39 -201 q-73 -39 -156.5 -59.5t-173.5 -20.5q-224 0 -339 112.5t-115 332.5zM301 -365l25 129q40 -19 76.5 -28.5t68.5 -9.5q67 0 104.5 30t37.5 84q0 28 -14.5 67t-43.5 93h119q37 -64 54.5 -110.5t17.5 -82.5q0 -93 -70.5 -147.5t-189.5 -54.5q-44 0 -91 7.5t-94 22.5z" />
<glyph unicode="&#xe8;" d="M98 408q0 156 60 306t166 259q83 86 183.5 131t209.5 45q186 0 297.5 -114.5t111.5 -305.5q0 -34 -5 -84.5t-17 -128.5h-807q-6 -32 -9 -58t-3 -46q0 -139 77 -212t224 -73q88 0 192.5 28.5t218.5 84.5l-36 -183q-105 -43 -205 -64.5t-203 -21.5q-223 0 -339 111.5 t-116 325.5zM332 659h606q6 27 8 44.5t2 33.5q0 120 -65 187t-181 67q-123 0 -224.5 -90t-145.5 -242zM453 1638h198l197 -376h-143z" />
<glyph unicode="&#xe9;" d="M98 408q0 156 60 306t166 259q83 86 183.5 131t209.5 45q186 0 297.5 -114.5t111.5 -305.5q0 -34 -5 -84.5t-17 -128.5h-807q-6 -32 -9 -58t-3 -46q0 -139 77 -212t224 -73q88 0 192.5 28.5t218.5 84.5l-36 -183q-105 -43 -205 -64.5t-203 -21.5q-223 0 -339 111.5 t-116 325.5zM332 659h606q6 27 8 44.5t2 33.5q0 120 -65 187t-181 67q-123 0 -224.5 -90t-145.5 -242zM575 1262l332 376h219l-395 -376h-156z" />
<glyph unicode="&#xea;" d="M98 408q0 156 60 306t166 259q83 86 183.5 131t209.5 45q186 0 297.5 -114.5t111.5 -305.5q0 -34 -5 -84.5t-17 -128.5h-807q-6 -32 -9 -58t-3 -46q0 -139 77 -212t224 -73q88 0 192.5 28.5t218.5 84.5l-36 -183q-105 -43 -205 -64.5t-203 -21.5q-223 0 -339 111.5 t-116 325.5zM332 659h606q6 27 8 44.5t2 33.5q0 120 -65 187t-181 67q-123 0 -224.5 -90t-145.5 -242zM397 1262l320 376h147l164 -376h-133l-117 241l-225 -241h-156z" />
<glyph unicode="&#xeb;" d="M98 408q0 156 60 306t166 259q83 86 183.5 131t209.5 45q186 0 297.5 -114.5t111.5 -305.5q0 -34 -5 -84.5t-17 -128.5h-807q-6 -32 -9 -58t-3 -46q0 -139 77 -212t224 -73q88 0 192.5 28.5t218.5 84.5l-36 -183q-105 -43 -205 -64.5t-203 -21.5q-223 0 -339 111.5 t-116 325.5zM332 659h606q6 27 8 44.5t2 33.5q0 120 -65 187t-181 67q-123 0 -224.5 -90t-145.5 -242zM436 1350l39 202h203l-39 -202h-203zM827 1350l39 202h203l-39 -202h-203z" />
<glyph unicode="&#xec;" d="M61 0l29 143h365l161 834h-286l28 143h471l-190 -977h365l-29 -143h-914zM424 1638h198l197 -376h-143z" />
<glyph unicode="&#xed;" d="M61 0l29 143h365l161 834h-286l28 143h471l-190 -977h365l-29 -143h-914zM546 1262l332 376h219l-395 -376h-156z" />
<glyph unicode="&#xee;" d="M61 0l29 143h365l161 834h-286l28 143h471l-190 -977h365l-29 -143h-914zM368 1262l320 376h147l164 -376h-133l-117 241l-225 -241h-156z" />
<glyph unicode="&#xef;" d="M61 0l29 143h365l161 834h-286l28 143h471l-190 -977h365l-29 -143h-914zM407 1350l39 202h203l-39 -202h-203zM798 1350l39 202h203l-39 -202h-203z" />
<glyph unicode="&#xf0;" d="M119 389q0 126 38 248t109 227q76 111 191.5 172.5t249.5 61.5q17 0 65 -5q21 -2 33 -3q-19 38 -45.5 81t-67.5 101l-297 -94l-30 92l274 86l-141 200h213l104 -145l287 88l28 -92l-260 -80q123 -171 179.5 -320t56.5 -300q0 -139 -37.5 -267.5t-107.5 -232.5 q-77 -116 -190.5 -176t-254.5 -60q-193 0 -295 107.5t-102 310.5zM313 379q0 -120 57.5 -186t161.5 -66q167 0 273 160.5t106 417.5q0 64 -9 114.5t-28 87.5q-37 19 -77 28t-84 9q-179 0 -289.5 -156t-110.5 -409z" />
<glyph unicode="&#xf1;" d="M84 0l219 1120h184l-32 -168q75 97 162.5 146t185.5 49q139 0 216 -72.5t77 -202.5q0 -32 -5.5 -79t-15.5 -99l-135 -694h-184l135 695q1 4 3 14q15 71 15 110q0 81 -46.5 124.5t-133.5 43.5q-127 0 -216 -93t-122 -261l-123 -633h-184zM401 1309q17 136 74 209t146 73 q43 0 77 -15.5t72 -53.5l47 -47q21 -22 37 -30.5t33 -8.5q41 0 65.5 39t32.5 116h125q-17 -137 -73.5 -210.5t-145.5 -73.5q-44 0 -77 14.5t-73 54.5l-47 49q-19 19 -36.5 28t-34.5 9q-42 0 -65.5 -37.5t-31.5 -115.5h-125z" />
<glyph unicode="&#xf2;" d="M117 393q0 135 41 270t116 248q79 116 190.5 176t248.5 60q196 0 298.5 -107t102.5 -313q0 -138 -41 -274.5t-115 -245.5q-79 -118 -192 -177t-260 -59q-187 0 -288 109.5t-101 312.5zM313 385q0 -129 56 -193.5t168 -64.5q164 0 273.5 171t109.5 435q0 129 -56 193.5 t-168 64.5q-164 0 -273.5 -171t-109.5 -435zM453 1638h198l197 -376h-143z" />
<glyph unicode="&#xf3;" d="M117 393q0 135 41 270t116 248q79 116 190.5 176t248.5 60q196 0 298.5 -107t102.5 -313q0 -138 -41 -274.5t-115 -245.5q-79 -118 -192 -177t-260 -59q-187 0 -288 109.5t-101 312.5zM313 385q0 -129 56 -193.5t168 -64.5q164 0 273.5 171t109.5 435q0 129 -56 193.5 t-168 64.5q-164 0 -273.5 -171t-109.5 -435zM575 1262l332 376h219l-395 -376h-156z" />
<glyph unicode="&#xf4;" d="M117 393q0 135 41 270t116 248q79 116 190.5 176t248.5 60q196 0 298.5 -107t102.5 -313q0 -138 -41 -274.5t-115 -245.5q-79 -118 -192 -177t-260 -59q-187 0 -288 109.5t-101 312.5zM313 385q0 -129 56 -193.5t168 -64.5q164 0 273.5 171t109.5 435q0 129 -56 193.5 t-168 64.5q-164 0 -273.5 -171t-109.5 -435zM397 1262l320 376h147l164 -376h-133l-117 241l-225 -241h-156z" />
<glyph unicode="&#xf5;" d="M117 393q0 135 41 270t116 248q79 116 190.5 176t248.5 60q196 0 298.5 -107t102.5 -313q0 -138 -41 -274.5t-115 -245.5q-79 -118 -192 -177t-260 -59q-187 0 -288 109.5t-101 312.5zM313 385q0 -129 56 -193.5t168 -64.5q164 0 273.5 171t109.5 435q0 129 -56 193.5 t-168 64.5q-164 0 -273.5 -171t-109.5 -435zM401 1309q17 136 74 209t146 73q43 0 77 -15.5t72 -53.5l47 -47q21 -22 37 -30.5t33 -8.5q41 0 65.5 39t32.5 116h125q-17 -137 -73.5 -210.5t-145.5 -73.5q-44 0 -77 14.5t-73 54.5l-47 49q-19 19 -36.5 28t-34.5 9 q-42 0 -65.5 -37.5t-31.5 -115.5h-125z" />
<glyph unicode="&#xf6;" d="M117 393q0 135 41 270t116 248q79 116 190.5 176t248.5 60q196 0 298.5 -107t102.5 -313q0 -138 -41 -274.5t-115 -245.5q-79 -118 -192 -177t-260 -59q-187 0 -288 109.5t-101 312.5zM313 385q0 -129 56 -193.5t168 -64.5q164 0 273.5 171t109.5 435q0 129 -56 193.5 t-168 64.5q-164 0 -273.5 -171t-109.5 -435zM436 1350l39 202h203l-39 -202h-203zM827 1350l39 202h203l-39 -202h-203z" />
<glyph unicode="&#xf7;" d="M88 557v170h1057v-170h-1057zM494 150v245h245v-245h-245zM494 889v246h245v-246h-245z" />
<glyph unicode="&#xf8;" d="M47 -20l129 153q-29 48 -43 112t-14 144q0 142 40 277t115 245q81 119 192.5 177.5t258.5 58.5q78 0 138 -18t106 -54l112 137l93 -77l-123 -146q32 -50 47.5 -114t15.5 -148q0 -138 -41 -274.5t-115 -245.5q-79 -118 -192 -177t-260 -59q-74 0 -135.5 18.5t-112.5 55.5 l-119 -141zM313 379q0 -20 1.5 -39.5t4.5 -37.5l533 636q-31 28 -67.5 40.5t-88.5 12.5q-164 0 -273.5 -172t-109.5 -440zM377 186q30 -30 69 -44.5t91 -14.5q163 0 273 171.5t110 434.5q0 26 -2 49t-7 43z" />
<glyph unicode="&#xf9;" d="M125 246q0 39 4.5 85.5t13.5 94.5l133 694h185l-135 -694q-7 -37 -11 -71t-4 -58q0 -79 46.5 -121.5t131.5 -42.5q127 0 215 92.5t121 261.5l123 633h185l-218 -1120h-184l33 168q-73 -98 -162 -146.5t-194 -48.5q-131 0 -207 73.5t-76 199.5zM449 1638h198l197 -376 h-143z" />
<glyph unicode="&#xfa;" d="M125 246q0 39 4.5 85.5t13.5 94.5l133 694h185l-135 -694q-7 -37 -11 -71t-4 -58q0 -79 46.5 -121.5t131.5 -42.5q127 0 215 92.5t121 261.5l123 633h185l-218 -1120h-184l33 168q-73 -98 -162 -146.5t-194 -48.5q-131 0 -207 73.5t-76 199.5zM571 1262l332 376h219 l-395 -376h-156z" />
<glyph unicode="&#xfb;" d="M125 246q0 39 4.5 85.5t13.5 94.5l133 694h185l-135 -694q-7 -37 -11 -71t-4 -58q0 -79 46.5 -121.5t131.5 -42.5q127 0 215 92.5t121 261.5l123 633h185l-218 -1120h-184l33 168q-73 -98 -162 -146.5t-194 -48.5q-131 0 -207 73.5t-76 199.5zM393 1262l320 376h147 l164 -376h-133l-117 241l-225 -241h-156z" />
<glyph unicode="&#xfc;" d="M125 246q0 39 4.5 85.5t13.5 94.5l133 694h185l-135 -694q-7 -37 -11 -71t-4 -58q0 -79 46.5 -121.5t131.5 -42.5q127 0 215 92.5t121 261.5l123 633h185l-218 -1120h-184l33 168q-73 -98 -162 -146.5t-194 -48.5q-131 0 -207 73.5t-76 199.5zM432 1350l39 202h203 l-39 -202h-203zM823 1350l39 202h203l-39 -202h-203z" />
<glyph unicode="&#xfd;" d="M-39 -426l29 154h108q81 0 139.5 46.5t118.5 159.5l43 84l-217 1102h183l172 -862l483 862h205l-439 -760q-62 -107 -165 -288q-155 -275 -209 -348q-58 -76 -132.5 -113t-170.5 -37h-148zM575 1262l332 376h219l-395 -376h-156z" />
<glyph unicode="&#xfe;" d="M-2 -426l387 1993h184l-114 -590q61 82 147 126t186 44q162 0 251 -104t89 -291q0 -143 -39.5 -287t-109.5 -254q-75 -118 -177 -179t-224 -61q-100 0 -170.5 42t-114.5 128l-111 -567h-184zM354 383q0 -123 56 -189.5t159 -66.5q81 0 148 44.5t112 129.5q49 92 77 207.5 t28 228.5q0 127 -51.5 190.5t-153.5 63.5q-85 0 -153.5 -45t-116.5 -133q-49 -88 -77 -202t-28 -228z" />
<glyph unicode="&#xff;" d="M-39 -426l29 154h108q81 0 139.5 46.5t118.5 159.5l43 84l-217 1102h183l172 -862l483 862h205l-439 -760q-62 -107 -165 -288q-155 -275 -209 -348q-58 -76 -132.5 -113t-170.5 -37h-148zM436 1350l39 202h203l-39 -202h-203zM827 1350l39 202h203l-39 -202h-203z" />
<glyph unicode="&#x152;" d="M35 414q0 146 33 328t86 325q86 231 224.5 328.5t379.5 97.5h594l-33 -170h-358l-87 -442h328l-33 -170h-327l-107 -541h369l-33 -170h-604q-218 0 -325 102.5t-107 311.5zM229 412q0 -120 62.5 -181t185.5 -61h62l225 1153h-62q-118 0 -201 -54t-130 -163 q-25 -55 -49.5 -145t-49.5 -216q-21 -106 -32 -189t-11 -144z" />
<glyph unicode="&#x153;" d="M-6 293q0 54 7.5 121t23.5 145q22 121 51.5 214.5t68.5 164.5q56 102 146 155.5t207 53.5q80 0 142 -34t95 -93q58 63 125.5 95t147.5 32q122 0 193 -76t71 -209q0 -43 -8.5 -108.5t-24.5 -149.5l-16 -90h-502q-18 -91 -26.5 -146t-8.5 -83q0 -78 48.5 -122t133.5 -44 q70 0 141.5 29t125.5 79l-35 -172q-59 -41 -125 -62.5t-137 -21.5q-95 0 -163 34.5t-102 98.5q-58 -65 -129.5 -99t-152.5 -34q-144 0 -220.5 83t-76.5 239zM168 291q0 -81 37 -124.5t106 -43.5q60 0 108 35.5t77 101.5q18 44 38 118.5t41 180.5q19 108 28 175.5t9 99.5 q0 77 -36 119t-103 42q-65 0 -112.5 -34.5t-75.5 -104.5q-22 -53 -42 -127t-38 -170q-17 -86 -27 -159t-10 -109zM754 653h329l15 76q6 31 9 59t3 54q0 71 -33 110t-94 39q-83 0 -136.5 -64t-78.5 -192z" />
<glyph unicode="&#x178;" d="M195 1493h202l236 -651l497 651h218l-635 -823l-129 -670h-207l131 670zM473 1667l39 203h204l-41 -203h-202zM864 1667l39 203h203l-39 -203h-203z" />
<glyph unicode="&#x2c6;" d="M397 1262l320 376h147l164 -376h-133l-117 241l-225 -241h-156z" />
<glyph unicode="&#x2dc;" d="M401 1309q17 136 74 209t146 73q43 0 77 -15.5t72 -53.5l47 -47q21 -22 37 -30.5t33 -8.5q41 0 65.5 39t32.5 116h125q-17 -137 -73.5 -210.5t-145.5 -73.5q-44 0 -77 14.5t-73 54.5l-47 49q-19 19 -36.5 28t-34.5 9q-42 0 -65.5 -37.5t-31.5 -115.5h-125z" />
<glyph unicode="&#x2000;" horiz-adv-x="950" />
<glyph unicode="&#x2001;" horiz-adv-x="1901" />
<glyph unicode="&#x2002;" horiz-adv-x="950" />
<glyph unicode="&#x2003;" horiz-adv-x="1901" />
<glyph unicode="&#x2004;" horiz-adv-x="633" />
<glyph unicode="&#x2005;" horiz-adv-x="475" />
<glyph unicode="&#x2006;" horiz-adv-x="316" />
<glyph unicode="&#x2007;" horiz-adv-x="316" />
<glyph unicode="&#x2008;" horiz-adv-x="237" />
<glyph unicode="&#x2009;" horiz-adv-x="380" />
<glyph unicode="&#x200a;" horiz-adv-x="105" />
<glyph unicode="&#x2010;" d="M303 509l33 164h522l-33 -164h-522z" />
<glyph unicode="&#x2011;" d="M303 509l33 164h522l-33 -164h-522z" />
<glyph unicode="&#x2012;" d="M303 509l33 164h522l-33 -164h-522z" />
<glyph unicode="&#x2013;" d="M-51 492l28 141h1233l-28 -141h-1233z" />
<glyph unicode="&#x2014;" d="M-51 492l28 141h1233l-28 -141h-1233z" />
<glyph unicode="&#x2018;" d="M463 967l41 207l270 382h154l-172 -382l-41 -207h-252z" />
<glyph unicode="&#x2019;" d="M463 967l172 383l41 206h252l-41 -206l-271 -383h-153z" />
<glyph unicode="&#x201a;" d="M203 -287l172 383l41 207h252l-41 -207l-271 -383h-153z" />
<glyph unicode="&#x201c;" d="M246 967l39 207l272 382h154l-174 -382l-39 -207h-252zM705 967l38 207l273 382h153l-172 -382l-41 -207h-251z" />
<glyph unicode="&#x201d;" d="M221 967l172 383l41 206h252l-41 -206l-270 -383h-154zM680 967l172 383l41 206h252l-41 -206l-270 -383h-154z" />
<glyph unicode="&#x201e;" d="M-16 -287l172 383l41 207h252l-39 -207l-273 -383h-153zM442 -287l172 383l41 207h252l-39 -207l-272 -383h-154z" />
<glyph unicode="&#x2022;" d="M319 762q0 124 86 209.5t211 85.5q124 0 210.5 -86t86.5 -209q0 -124 -87 -210.5t-212 -86.5q-124 0 -209.5 85.5t-85.5 211.5z" />
<glyph unicode="&#x2026;" d="M-66 0l60 303h252l-60 -303h-252zM344 0l59 303h252l-59 -303h-252zM754 0l59 303h252l-59 -303h-252z" />
<glyph unicode="&#x202f;" horiz-adv-x="380" />
<glyph unicode="&#x2039;" d="M309 559l17 82l551 418l-43 -211l-351 -264l248 -267l-33 -176z" />
<glyph unicode="&#x203a;" d="M317 141l43 211l351 262l-250 269l35 176l387 -418l-17 -82z" />
<glyph unicode="&#x205f;" horiz-adv-x="475" />
<glyph unicode="&#x20ac;" d="M-10 543l49 110h133q8 59 16.5 103.5t18.5 83.5h-158l49 108h140q93 283 259 427.5t398 144.5q74 0 149.5 -21t147.5 -61l-39 -207q-70 65 -135.5 95t-136.5 30q-138 0 -249.5 -105.5t-182.5 -302.5h473l-50 -108h-456q-12 -43 -21.5 -89t-17.5 -98h411l-47 -110h-376 v-54q0 -171 72.5 -262.5t207.5 -91.5q76 0 161.5 32t170.5 93l-39 -207q-80 -42 -160 -62t-166 -20q-221 0 -335.5 134.5t-114.5 392.5v45h-172z" />
<glyph unicode="&#x2122;" d="M0 1399v94h438v-94h-162v-484h-114v484h-162zM522 915v578h170l137 -256l125 256h172v-578h-114v482l-156 -301h-55l-166 301v-482h-113z" />
<glyph unicode="&#x25fc;" horiz-adv-x="1120" d="M0 0v1120h1120v-1120h-1120z" />
<glyph unicode="&#xfb01;" d="M98 977l29 143h199l16 78q38 193 134.5 275.5t283.5 82.5h192l-30 -153h-181q-95 0 -142.5 -41.5t-68.5 -142.5l-20 -99h661l-219 -1120h-184l190 977h-475l-190 -977h-184l190 977h-201zM1026 1323l45 233h184l-45 -233h-184z" />
<glyph unicode="&#xfb02;" d="M98 977l29 143h199l16 78q38 193 134.5 275.5t283.5 82.5h495l-303 -1556h-184l274 1403h-301q-95 0 -142.5 -41.5t-68.5 -142.5l-20 -99h297l-29 -143h-295l-190 -977h-184l190 977h-201z" />
</font>
</defs>
</svg>
