<?xml version="1.0" standalone="no"?>
<!DOCTYPE svg PUBLIC "-//W3C//DTD SVG 1.1//EN" "http://www.w3.org/Graphics/SVG/1.1/DTD/svg11.dtd" >
<svg xmlns="http://www.w3.org/2000/svg">
<metadata></metadata>
<defs>
<font id="hackboldoblique" horiz-adv-x="1233" >
<font-face units-per-em="2048" ascent="1638" descent="-410" />
<missing-glyph horiz-adv-x="500" />
<glyph unicode="&#xd;" />
<glyph horiz-adv-x="0" />
<glyph horiz-adv-x="0" />
<glyph unicode=" " />
<glyph unicode="!" d="M637 1054l71 454h286l-72 -457l-159 -575h-139zM612 -65q-38 0 -65 12.5t-44 30.5q-22 25 -30 55.5t-8 56.5q0 31 9.5 61t27 55t42 44.5t53.5 30.5q33 12 73 12q43 0 68.5 -14.5t41.5 -31.5q20 -23 28.5 -50t8.5 -57q0 -21 -4 -40.5t-10 -33.5q-16 -39 -45.5 -70 t-71.5 -48q-33 -13 -74 -13z" />
<glyph unicode="&#x22;" d="M231 1493h256v-555h-256v555zM743 1493h256v-555h-256v555z" />
<glyph unicode="#" d="M199 373h-240l53 215h242l72 293h-240l53 215h242l94 374h221l-94 -374h205l94 374h221l-94 -374h240l-54 -215h-241l-72 -293h240l-54 -215h-241l-94 -373h-222l95 373h-205l-94 -373h-222zM678 588l74 293h-203l-74 -293h203z" />
<glyph unicode="$" d="M401 0q-43 1 -86.5 7.5t-88.5 17.5q-51 13 -94 29t-93 38l51 262q45 -31 89 -54t89 -40q87 -32 176 -37l68 346q-84 22 -140.5 52t-94.5 70q-39 42 -58.5 92.5t-19.5 116.5q0 85 32 159t96 134q127 118 330 126l48 237h141l-47 -237q35 -2 73.5 -7t70.5 -11 q33 -6 71 -15.5t78 -23.5l-50 -250q-32 21 -66 36t-65 25q-72 22 -153 27l-64 -318q172 -46 253 -130q41 -42 61 -95t20 -122q0 -89 -32.5 -164.5t-98.5 -135.5q-68 -62 -156.5 -94.5t-197.5 -40.5l-58 -301h-141zM614 1099q-73 -9 -113 -54q-22 -24 -32 -52t-10 -58 q0 -25 6.5 -42t19.5 -31q26 -29 76 -41zM588 227q81 10 131 59q23 23 36 50.5t13 64.5q0 52 -28 83q-29 31 -93 48z" />
<glyph unicode="%" d="M353 778q-67 0 -130.5 22.5t-113.5 70.5q-43 42 -69.5 102t-26.5 132q0 70 25.5 130t70.5 104q47 46 110.5 69.5t140.5 23.5h9.5t15.5 -1q7 -1 16.5 -2t17.5 -3t14 -3t19 -5q18 -5 24 -7.5t8 -3.5q13 -5 21 -8.5t14.5 -6.5t12 -6.5t13.5 -8.5q29 -18 52 -40t42.5 -48 t33.5 -58q27 -60 27 -128t-25 -125t-76 -105q-22 -20 -50 -38.5t-63 -32.5q-63 -24 -133 -24zM351 943q36 0 68 12q11 4 25.5 11.5t31.5 23.5q26 24 39 52q13 27 13 61q0 69 -51 116q-26 23 -58.5 35t-67.5 12t-68 -11.5t-57 -34.5t-36 -53.5t-12 -62.5q0 -33 12 -62.5 t35 -52.5q22 -21 54.5 -33.5t71.5 -12.5zM22 570l1210 448v-145l-1210 -442v139zM898 0q-71 0 -134 24q-28 11 -56 27.5t-56 42.5q-15 14 -29.5 31.5t-25.5 36.5q-23 37 -33 77q-11 42 -11 88q0 72 27 131t74 103q48 45 110.5 69t135.5 24q72 0 131 -25q30 -13 60 -32.5 t49 -38.5q9 -9 12.5 -13t6.5 -7q1 -2 7.5 -10t8.5 -10q5 -8 6 -9t1 -1.5t1 -2t6 -9.5l14 -22q2 -4 5.5 -12t5.5 -11q8 -17 12.5 -32.5t7.5 -28.5q3 -14 4.5 -31.5t1.5 -33.5q0 -64 -24.5 -124t-71.5 -106q-43 -42 -105.5 -68.5t-140.5 -26.5zM900 165q74 0 124 47 q25 23 37 52t12 61q0 33 -12.5 63.5t-36.5 53.5q-20 20 -51.5 33.5t-73.5 13.5q-35 0 -67 -11.5t-57 -34.5q-50 -47 -50 -117q0 -12 1.5 -21.5t4.5 -20.5t6.5 -20t9.5 -19q4 -6 11.5 -16t16.5 -18q13 -12 26.5 -20t29.5 -14q31 -12 69 -12z" />
<glyph unicode="&#x26;" d="M387 -29q-92 0 -170.5 26t-136.5 80q-59 55 -86 128.5t-27 156.5q0 161 99 304q51 73 120.5 133.5t163.5 113.5q-14 31 -22.5 56t-15.5 52q-6 24 -9.5 46t-3.5 51q0 88 33 163t100 130q66 54 158 81.5t204 27.5q37 0 71 -3t68 -8q33 -5 65 -13t67 -19l-49 -256 q-54 35 -118 54q-32 10 -64.5 14.5t-64.5 4.5q-48 0 -81 -9t-55 -26q-47 -36 -47 -101q0 -36 19 -93q11 -35 24.5 -67t34.5 -78l221 -480q42 58 66 135q23 75 28 170h235q-10 -156 -71 -282q-60 -125 -168 -217l115 -246h-316l-35 72q-43 -25 -86.5 -44t-88.5 -32 q-88 -25 -177 -25zM473 207q42 0 89 14q23 7 45.5 17t45.5 24l-217 469q-91 -53 -137 -126q-24 -38 -35.5 -80.5t-11.5 -84.5q0 -49 15.5 -91.5t47.5 -75.5t72.5 -49.5t85.5 -16.5z" />
<glyph unicode="'" d="M487 1493h256v-555h-256v555z" />
<glyph unicode="(" d="M440 -270q-39 82 -70 166t-52 171q-40 163 -40 326q0 149 32.5 292t97.5 289t159 288t227 292h225q-234 -314 -350 -613q-117 -302 -117 -595q0 -71 7 -145t21 -151q15 -81 36.5 -161t48.5 -159h-225v0z" />
<glyph unicode=")" d="M243 -270q233 313 350 614t117 595q0 71 -7 144.5t-21 151.5q-29 155 -85 319h225q82 -173 122 -336q20 -83 30 -164.5t10 -161.5q0 -146 -32 -291t-97 -291q-64 -144 -161 -289t-226 -291h-225v0z" />
<glyph unicode="*" d="M230 562l240 368l-361 157l46 130l371 -122l20 420h136l20 -420l371 122l46 -130l-361 -157l240 -368l-117 -84l-267 353l-267 -353z" />
<glyph unicode="+" d="M498 524h-432v238h432v430h237v-430h430v-238h-430v-432h-237v432z" />
<glyph unicode="," d="M380 -275l14 6q102 44 168 121t74 182q-7 -1 -12.5 -1.5t-14.5 -0.5q-32 0 -62.5 10.5t-54.5 32.5q-23 20 -36 49t-13 72q0 14 1.5 25.5t4.5 22.5q4 14 8.5 24t8.5 17t11 16.5t17 17.5q14 12 27 20t30 14q15 5 31 8t36 3q17 0 30.5 -2t27.5 -6q27 -8 50 -25q12 -9 21 -19 t17 -23q25 -35 37 -85t12 -111q0 -88 -24 -164q-12 -38 -30.5 -74.5t-40.5 -65.5q-49 -67 -115.5 -112.5t-151.5 -77.5l-13 -5z" />
<glyph unicode="-" d="M259 745h789l-56 -291h-788z" />
<glyph unicode="." d="M614 -42q-76 0 -127 51q-24 24 -37.5 57.5t-13.5 76.5q0 79 51 132q51 51 125 51q76 0 127 -51t51 -134q0 -80 -51 -132q-51 -51 -125 -51z" />
<glyph unicode="/" d="M852 1493h223l-854 -1683h-221z" />
<glyph unicode="0" d="M504 -29q-108 0 -183.5 31.5t-125.5 95.5q-48 62 -72.5 154t-24.5 225q0 57 4 103.5t11 94.5q8 59 18 108t24 103q28 106 64.5 196.5t79.5 160.5q16 26 32 48t30 38q33 39 70 70q36 30 77 53q61 34 129.5 51t148.5 17q112 0 187 -32.5t123 -93.5q50 -63 74.5 -156 t24.5 -215q0 -93 -14 -200.5t-43 -216.5q-27 -103 -64.5 -195.5t-79.5 -160.5q-19 -31 -43 -63t-52 -60q-25 -25 -54 -47.5t-60 -39.5q-122 -69 -281 -69zM529 165q22 0 40.5 3t37.5 9q16 5 35 14t36 21q32 22 62.5 58t53.5 81q7 13 16 31.5t19 40.5q9 20 16.5 40t14.5 39 q5 14 9 24.5t7 20.5t6 19.5t7 22.5q5 16 12 43t13 53q5 22 9 39.5t7 32.5t5.5 29.5t5.5 29.5q6 35 10 64.5t6 58.5t3.5 58.5t1.5 53.5q0 17 -0.5 32.5t-1.5 27.5t-2 23t-4 26q-1 5 -4 19t-5 22q-2 6 -6 17.5t-8 18.5q-2 5 -6 11.5t-11 15.5q-11 15 -26 27t-34 20t-42 11.5 t-46 3.5q-42 0 -80.5 -12t-71.5 -35q-38 -26 -67 -62.5t-50 -74.5q-35 -63 -67 -151t-54 -184q-24 -103 -35.5 -201.5t-11.5 -172.5q0 -76 12 -125.5t38 -81.5q49 -61 150 -61zM572 410q-1 0 -1.5 1t-1.5 1h-4q-48 15 -44 131v12q0 3 0.5 6t1.5 7v13v4.5t1 9.5q4 33 6 52.5 t4 32.5t3.5 22.5t3.5 22.5q1 6 3.5 18t5 24.5t5 23t3.5 13.5q4 15 6.5 23.5t4 13t2 5.5t0.5 2q2 8 8 26.5t10 30.5q6 17 14.5 37.5t13.5 31.5q9 21 21 41t25.5 35.5t27 24.5t25.5 9h5q2 0 6 -2q53 -15 48 -128v-1q-1 -4 -1 -12v-14q-2 -32 -12 -102q-5 -25 -9 -46.5 t-7 -32.5q-4 -17 -11 -42t-16 -52t-18.5 -54.5t-18.5 -49.5q-14 -35 -26.5 -60t-25.5 -43q-14 -19 -27.5 -27t-27.5 -8h-3z" />
<glyph unicode="1" d="M94 260h330l188 969l-321 -76l51 266l326 74h282l-239 -1233h309l-51 -260h-926z" />
<glyph unicode="2" d="M13 218q4 19 11.5 31.5t21.5 25.5l251 225q28 25 46 40.5t32.5 28.5t29.5 26t37 33q108 97 184.5 174t125 138.5t70.5 110t22 87.5q0 32 -14 61t-42 49t-66.5 30t-86.5 10q-42 0 -89.5 -7.5t-98.5 -21.5q-45 -13 -102 -35t-120 -53l51 267q55 20 110 35.5t106 25.5 q54 11 107 16t98 5q95 0 176 -23t141 -71q56 -44 88.5 -105.5t32.5 -134.5q0 -131 -113.5 -291t-340.5 -353l-40 -34l-317 -248h647l-51 -260h-949z" />
<glyph unicode="3" d="M421 -29q-51 0 -103.5 4.5t-111.5 14.5q-63 11 -120 24.5t-117 30.5l54 270q50 -24 100.5 -41.5t99.5 -28.5q52 -12 105 -18t102 -6q88 0 144.5 18.5t94.5 50.5t59.5 79.5t21.5 107.5q0 95 -64 143q-32 24 -76.5 36t-95.5 12h-158l52 260h157q123 0 202 56q40 29 58.5 64 t18.5 76q0 70 -57 108q-26 17 -66.5 27.5t-98.5 10.5q-82 0 -181 -21q-51 -11 -103 -26t-107 -35l54 268q54 17 103.5 28.5t97.5 19.5t94.5 12t86.5 4q106 0 189.5 -25t141.5 -71q62 -49 92 -116t30 -144q0 -66 -22.5 -124t-71.5 -109t-115 -81.5t-147 -44.5 q135 -36 200 -118q33 -42 49.5 -94.5t16.5 -122.5q0 -110 -41 -203t-122 -161t-193.5 -101.5t-252.5 -33.5z" />
<glyph unicode="4" d="M612 322h-594l58 286l735 885h309l-178 -918h164l-49 -253h-164l-62 -322h-282zM662 575l110 578l-483 -578h373z" />
<glyph unicode="5" d="M387 -29q-47 0 -94.5 4t-95.5 12q-97 17 -191 48l51 266q69 -40 156 -61q43 -11 88 -16t90 -5q90 0 157.5 20t116.5 59q50 40 74.5 93.5t24.5 117.5q0 108 -71 168t-195 60q-73 0 -158 -20q-80 -19 -162 -58l162 834h811l-51 -260h-572l-53 -277q31 13 69 19q36 6 78 6 q99 0 179 -30.5t135 -85.5q56 -56 85.5 -136t29.5 -184q0 -127 -44.5 -233.5t-133.5 -184.5q-88 -78 -210.5 -117t-275.5 -39z" />
<glyph unicode="6" d="M544 -33q-107 0 -191.5 31.5t-142.5 94.5q-57 63 -85.5 156t-28.5 231q0 100 15 203t46 208q30 103 72.5 192.5t96.5 163.5q49 67 106 118t131 86q71 34 151 50.5t167 16.5q42 0 75 -3.5t68 -11.5q68 -15 145 -45l-51 -268q-38 27 -68 41.5t-62 25.5q-35 11 -70 17t-72 6 q-157 0 -263 -108q-54 -54 -92 -134.5t-61 -183.5q61 66 136 98q76 33 166 33q165 0 263 -111q48 -54 72.5 -129.5t24.5 -179.5q0 -131 -39.5 -236t-114.5 -190q-76 -85 -171.5 -128.5t-222.5 -43.5zM551 207q52 0 98 25.5t81 73.5t54 111.5t19 132.5q0 48 -10.5 84 t-34.5 63q-47 51 -122 51q-56 0 -102 -27.5t-78 -72.5q-36 -51 -54.5 -114t-18.5 -126q0 -50 11 -86t34 -62q21 -24 51.5 -38.5t71.5 -14.5z" />
<glyph unicode="7" d="M844 1233h-633l51 260h963l-41 -209l-756 -1284h-319z" />
<glyph unicode="8" d="M502 -29q-106 0 -187 26t-137 74q-115 100 -115 281q0 85 25.5 157t73.5 130t116 99t156 61q-51 14 -90 37.5t-67 60.5q-26 34 -40 77.5t-14 100.5q0 88 36 169t111 147q69 60 160 94.5t200 34.5q90 0 164 -24.5t131 -73.5q54 -47 83 -112t29 -149q0 -145 -89 -248 q-88 -101 -239 -127q108 -28 170 -113q30 -42 45.5 -93t15.5 -119q0 -104 -36.5 -194.5t-111.5 -159.5q-69 -63 -166.5 -99.5t-223.5 -36.5zM653 903q44 0 86 15t74 45q64 60 64 153q0 79 -46 124q-47 44 -126 44q-94 0 -157 -61q-29 -28 -46 -67t-17 -86q0 -35 11 -66 t34 -54q24 -25 55 -36t68 -11zM528 209q54 0 100 19t81 57q34 37 51.5 86t17.5 103q0 49 -14 84t-39 59q-24 23 -60 37t-86 14q-112 0 -182 -75q-35 -37 -53 -86t-18 -102q0 -44 13.5 -81t42.5 -64q28 -26 65 -38.5t81 -12.5z" />
<glyph unicode="9" d="M345 -31q-42 0 -75.5 3.5t-68.5 11.5q-31 7 -67.5 17.5t-78.5 27.5l51 268q30 -21 62.5 -38.5t68.5 -28.5q35 -11 70 -17t72 -6q156 0 262 109q58 60 94.5 140t59.5 177q-63 -66 -137 -98q-38 -17 -78.5 -25t-85.5 -8q-92 0 -156 31t-106 79q-52 60 -74.5 138.5 t-22.5 168.5q0 130 41 241.5t110 189.5q75 85 177 127.5t222 42.5q109 0 192.5 -33t137.5 -93q113 -123 113 -386q0 -99 -15 -204t-45 -208t-72.5 -193t-96.5 -165q-52 -72 -108.5 -120t-127.5 -82q-73 -35 -152.5 -51t-165.5 -16zM589 739q106 0 179 100q36 50 55 111 t19 128q0 48 -10.5 84.5t-34.5 64.5q-46 53 -122 53q-107 0 -179 -101q-36 -51 -54 -114t-18 -130q0 -54 11 -86.5t34 -58.5q20 -23 48.5 -37t71.5 -14z" />
<glyph unicode=":" d="M734 697q-40 0 -68 13t-46 33q-17 20 -28 48t-11 63q0 31 9 61.5t26.5 57t42.5 47t57 32.5q17 6 34.5 9.5t37.5 3.5q37 0 66 -12t49 -34q21 -23 29.5 -54.5t8.5 -60.5q0 -23 -4 -40t-10 -32q-17 -43 -48 -73.5t-73 -47.5q-34 -14 -72 -14zM620 -15q-40 0 -68 13t-46 33 q-17 20 -28 48t-11 63q0 31 9 61.5t26.5 57t42.5 47t57 32.5q17 6 34.5 9.5t37.5 3.5q37 0 66 -12t49 -34q21 -23 29.5 -54.5t8.5 -60.5q0 -23 -4 -40t-10 -32q-17 -43 -48 -73.5t-73 -47.5q-34 -14 -72 -14z" />
<glyph unicode=";" d="M724 698q-38 0 -70.5 13.5t-55.5 39.5q-19 23 -26.5 52t-7.5 60v4.5t1 7.5l2 20q4 20 9.5 38t16.5 38q19 34 48 60q29 24 63 38.5t76 14.5q38 0 70 -13.5t55 -39.5q18 -22 27.5 -49t9.5 -62v-4.5t-1 -7.5l-2 -19q-6 -29 -12 -45t-16 -33q-10 -18 -21 -32t-27 -28 q-17 -15 -32.5 -23.5t-32.5 -16.5q-33 -13 -74 -13zM320 -342l13 6q129 54 205 134.5t101 182.5q-5 -1 -10 -1h-10q-79 0 -122 46q-35 37 -35 93v10q0 6 0.5 12.5t1.5 14.5q6 39 25 71t48 55q18 16 42 25q20 12 45 16q11 2 23 3.5t26 1.5q48 0 84 -19t59 -61 q14 -26 20.5 -56.5t6.5 -59.5q0 -17 -2 -42.5t-5 -47.5q-13 -90 -51 -171t-98 -148q-31 -34 -65.5 -61.5t-74.5 -53.5q-50 -32 -92 -51t-79 -32l-16 -5z" />
<glyph unicode="&#x3c;" d="M88 524v236l1057 416v-250l-795 -285l795 -283v-249z" />
<glyph unicode="=" d="M88 987h1057v-235h-1057v235zM88 532h1057v-237h-1057v237z" />
<glyph unicode="&#x3e;" d="M88 358l795 283l-795 285v250l1057 -416v-236l-1057 -415v249z" />
<glyph unicode="?" d="M531 585q12 83 55 152q24 39 57.5 75t84.5 79l104 89q36 31 61.5 56.5t38.5 44.5q28 40 36 86q1 3 1 9q1 3 1 8t1 8v7q0 29 -10.5 54.5t-30.5 44.5q-25 24 -66 38q-20 7 -43 10t-46 3q-43 0 -85.5 -9.5t-83.5 -24.5q-49 -18 -98.5 -43.5t-101.5 -57.5l-28 -17l36 228l7 3 q13 8 34.5 18.5t34.5 16.5q16 8 34.5 15.5t34.5 13.5q17 7 31 11.5t37 10.5q48 13 97 21t109 8q105 0 175 -26t119 -74q16 -15 26 -28.5t18 -29.5q18 -32 27 -68q5 -18 7 -37t2 -33t-2 -35.5t-4 -38.5q-10 -76 -59 -148q-14 -21 -28 -37.5t-33 -36.5q-23 -25 -44 -44 t-49 -42l-102 -86q-5 -4 -13.5 -11.5t-18 -16.5t-18.5 -17.5t-16 -15.5q-11 -11 -21 -23.5t-15 -20.5q-12 -18 -19.5 -38.5t-10.5 -38.5l-8 -47l-14 -93h-220zM556 -55q-35 0 -59 11.5t-41 30.5q-16 18 -26 43t-10 53v30q0 10 4.5 24.5t10.5 26.5q8 16 22 37t37 39t51 28.5 t62 10.5q47 0 81 -21t50 -66q9 -26 9 -56q0 -48 -17 -82t-43 -57q-26 -24 -59.5 -38t-71.5 -14z" />
<glyph unicode="@" d="M599 -319q-137 0 -250.5 48.5t-195.5 142.5q-84 96 -125.5 225.5t-41.5 289.5q0 163 44 322q23 81 55.5 156t72.5 139q115 185 284 289q81 50 170.5 76t186.5 26t176.5 -26t136.5 -76q61 -54 89 -123.5t28 -146.5q0 -13 -0.5 -31t-2.5 -32q-1 -10 -3.5 -24t-8.5 -44 l-147 -757h-197l17 82q-42 -48 -99 -75q-35 -17 -66 -22t-58 -5q-66 0 -120 22.5t-93 65.5q-42 46 -61 108t-19 137q0 109 34.5 206t92.5 167q65 78 146.5 115t165.5 37q35 0 66 -6t57 -18q27 -13 47.5 -32t33.5 -40q5 17 8.5 34t5.5 34t3 32.5t1 26.5q0 50 -16 87t-45 62 t-72.5 39t-100.5 14q-58 0 -116.5 -15.5t-115.5 -47.5t-107 -78t-94 -104q-51 -67 -84.5 -136.5t-54.5 -134.5q-48 -149 -48 -302q0 -113 28 -210t89 -169q58 -69 138.5 -104.5t180.5 -35.5q79 0 160 24t162 72l63 -174q-105 -56 -202 -84q-43 -12 -93.5 -19t-104.5 -7z M724 301q51 0 96 24t78 67q35 46 53 105t18 119q0 45 -10 74.5t-30 51.5q-41 44 -112 44q-51 0 -95.5 -22.5t-79.5 -66.5q-35 -45 -53 -101.5t-18 -114.5q0 -38 8.5 -73t31.5 -61q17 -20 45.5 -33t67.5 -13z" />
<glyph unicode="A" d="M582 1493h360l113 -1493h-293l-14 369h-400l-162 -369h-299zM737 612l-20 607l-264 -607h284z" />
<glyph unicode="B" d="M270 1495h482q210 0 319 -83q107 -83 107 -248q0 -159 -95 -259t-270 -119q66 -5 122 -28t94 -62q39 -40 58 -95t19 -121q0 -48 -9.5 -98.5t-28.5 -97.5q-18 -45 -45 -85t-62 -72q-74 -67 -190 -97t-310 -30h-481zM639 913q122 0 183 55q29 26 45 64.5t16 90.5 q0 40 -10.5 64.5t-32.5 40.5q-44 32 -133 32h-197l-68 -347h197zM508 236q157 0 230 67q37 34 55 85t18 113q0 54 -13.5 85t-39.5 51q-53 41 -164 41h-197l-86 -442h197z" />
<glyph unicode="C" d="M598 -29q-110 0 -205.5 33t-161.5 104q-67 72 -96.5 176t-29.5 233q0 102 17.5 212t53.5 219q35 105 82.5 192t108.5 156q48 54 104 96t123 71q130 57 283 57q42 0 81.5 -4.5t79.5 -13.5q32 -8 73 -21t82 -33l-64 -328q-50 69 -122 103q-37 17 -77.5 25.5t-76.5 8.5 q-41 0 -82.5 -11t-81.5 -36q-42 -26 -74.5 -62.5t-56.5 -73.5q-35 -54 -62.5 -117t-48.5 -138q-23 -81 -33 -151.5t-10 -130.5q0 -71 14.5 -129t48.5 -100q63 -77 184 -77q78 0 159 34q43 18 85.5 44.5t88.5 61.5l-64 -328q-40 -19 -80 -32.5t-77 -21.5q-81 -18 -165 -18z " />
<glyph unicode="D" d="M283 1493h315q139 0 247 -30t180 -93q70 -61 105 -155t35 -219q0 -36 -3 -85.5t-10 -96.5q-3 -21 -7.5 -47t-10 -54.5t-11.5 -57t-12 -52.5q-20 -81 -44 -146t-46 -110q-29 -60 -62 -103.5t-62 -72.5q-45 -44 -102.5 -77.5t-123.5 -53.5q-127 -40 -349 -40h-330zM434 266 q112 0 189 44q42 23 70 56t50 76q24 48 46.5 114.5t38.5 138.5q17 75 24.5 144.5t7.5 120.5q0 73 -15.5 122t-46.5 81q-63 64 -192 64h-82l-186 -961h96z" />
<glyph unicode="E" d="M317 1493h932l-51 -260h-635l-63 -322h575l-49 -260h-575l-76 -391h635l-52 -260h-929z" />
<glyph unicode="F" d="M338 1493h930l-51 -260h-635l-62 -332h578l-51 -260h-578l-127 -641h-295z" />
<glyph unicode="G" d="M611 -29q-128 0 -220.5 38t-155.5 106q-70 76 -101.5 181t-31.5 232q0 96 17.5 204.5t54.5 216.5q32 94 80.5 183t112.5 162q45 51 101.5 94.5t126.5 74.5q130 57 281 57q42 0 81.5 -4.5t79.5 -13.5q32 -8 73 -21t82 -33l-66 -328q-51 67 -120 102q-70 35 -149 35 q-39 0 -73 -8t-63 -21q-30 -14 -58.5 -34.5t-57.5 -52.5q-23 -25 -41 -52t-35 -58q-16 -29 -31 -63t-29 -77q-15 -45 -28 -94.5t-21 -94.5q-17 -94 -17 -169q0 -82 18.5 -136.5t45.5 -87.5q34 -42 80.5 -60t100.5 -18q19 0 34.5 2t32.5 7q12 3 26 8t29 16l57 291h-206 l49 248h460l-139 -709q-72 -60 -168 -91q-99 -32 -212 -32z" />
<glyph unicode="H" d="M283 1493h295l-111 -569h369l110 569h295l-291 -1493h-295l129 664h-368l-129 -664h-295z" />
<glyph unicode="I" d="M78 260h297l188 973h-297l51 260h889l-51 -260h-297l-188 -973h297l-52 -260h-888z" />
<glyph unicode="J" d="M411 -29q-55 0 -111 6.5t-108 19.5q-46 11 -100.5 31.5t-111.5 49.5l65 344q78 -96 167 -143q88 -48 194 -48q112 0 169 54q29 27 49.5 74t34.5 120l148 754h-361l52 260h655l-199 -1014q-17 -88 -35.5 -150.5t-38.5 -105.5q-20 -42 -46.5 -77t-61.5 -64t-74.5 -49 t-83.5 -34q-46 -14 -97 -21t-106 -7z" />
<glyph unicode="K" d="M270 1493h295l-108 -557l563 557h348l-606 -604l338 -889h-303l-254 670l-172 -170l-95 -500h-294z" />
<glyph unicode="L" d="M371 1493h295l-240 -1233h631l-51 -260h-926z" />
<glyph unicode="M" d="M231 1493h353l49 -655l297 655h360l-289 -1493h-253l237 1198l-293 -655h-219l-47 655l-231 -1198h-252z" />
<glyph unicode="N" d="M266 1493h303l215 -1085l211 1085h260l-288 -1493h-293l-225 1085l-211 -1085h-263z" />
<glyph unicode="O" d="M500 -29q-102 0 -185.5 31t-141.5 96q-59 66 -85.5 160.5t-26.5 217.5q0 88 12.5 189.5t37.5 204.5q26 109 60.5 198t74.5 160q35 63 83.5 119t117.5 98q65 39 137.5 57t147.5 18q103 0 186 -31t140 -94q64 -70 88.5 -167.5t24.5 -212.5q0 -85 -11.5 -184.5t-37.5 -208.5 q-23 -99 -56 -189.5t-78 -168.5q-42 -74 -90.5 -127t-111.5 -91q-64 -38 -136 -56.5t-150 -18.5zM525 233q60 0 110 36q24 17 45.5 43t40.5 61q13 24 24 51t22 59q13 37 22 69t20 78q15 63 25.5 115t18.5 101q15 99 15 174q0 121 -40 180q-41 60 -120 60q-34 0 -61.5 -10 t-48.5 -25q-24 -17 -46 -44t-40 -60q-14 -25 -23.5 -50t-19.5 -54q-7 -21 -12.5 -38.5t-10.5 -34.5t-10 -37t-12 -47q-13 -52 -24.5 -107.5t-19.5 -106.5q-15 -101 -15 -175q0 -121 40 -179q21 -31 51.5 -45t68.5 -14z" />
<glyph unicode="P" d="M305 1493h420q236 0 360 -91q63 -47 93 -114t30 -159q0 -51 -9 -107t-27 -113q-19 -59 -42.5 -101.5t-52.5 -76.5q-77 -90 -194 -131t-301 -41h-164l-109 -559h-295zM610 807q75 0 129.5 18t89.5 50q36 34 54 84.5t18 111.5q0 98 -52 136q-53 38 -177 38h-121l-84 -438 h143z" />
<glyph unicode="Q" d="M535 -29h-27q-109 0 -192 31.5t-140 92.5q-60 65 -87.5 158.5t-27.5 220.5q0 88 12.5 190t37.5 206t59 195t74 161q38 66 87 122t117 97q60 36 131 55.5t153 19.5q106 0 187.5 -32t137.5 -91q62 -66 88 -156.5t26 -216.5q0 -83 -11.5 -183.5t-37.5 -213.5 q-23 -100 -56.5 -195t-75.5 -170q-21 -37 -43 -66.5t-45 -54.5q-53 -56 -126 -102l239 -320h-344zM525 233q60 0 110 36q24 17 45.5 43t40.5 61q11 21 23 50t23 60q21 60 42 147q16 65 26 116.5t18 99.5q15 99 15 174q0 121 -40 180q-41 60 -120 60q-34 0 -61.5 -10 t-48.5 -25q-24 -17 -46 -44t-40 -60q-14 -25 -23.5 -50t-19.5 -54q-7 -21 -12.5 -38.5t-10.5 -34.5t-10 -37t-12 -47q-16 -64 -26 -114.5t-18 -99.5q-15 -101 -15 -175q0 -121 40 -179q21 -31 51.5 -45t68.5 -14z" />
<glyph unicode="R" d="M294 1493h410q231 0 344 -87q54 -42 83 -108t29 -165q0 -90 -24.5 -164t-73.5 -131q-98 -114 -279 -133q60 -9 95 -45q34 -36 61 -123l164 -537h-301l-106 376l-8 27q-31 101 -68.5 144t-89.5 43h-117l-115 -590h-295zM585 838q70 0 121 16.5t84 47.5q35 32 52 79t17 103 q0 86 -46 123q-47 38 -138 38h-133l-80 -407h123z" />
<glyph unicode="S" d="M469 -29q-58 0 -113.5 6.5t-112.5 19.5q-60 14 -118 33.5t-121 45.5l59 305q49 -41 97.5 -70.5t105.5 -52.5q53 -21 104.5 -32t108.5 -11q132 0 209 59q76 58 76 155q0 35 -9 62t-26 49q-35 45 -104 74l-119 50q-98 41 -159 78t-95 78q-29 35 -45.5 82.5t-16.5 118.5 q0 117 44.5 207.5t116.5 152.5q78 67 184.5 103t234.5 36q48 0 101 -5t100 -15t95 -26t93 -36l-57 -285q-69 63 -159 94q-46 16 -96.5 23.5t-98.5 7.5q-69 0 -117 -15t-82 -41q-37 -29 -55.5 -65.5t-18.5 -69.5q0 -52 46.5 -95t137.5 -82l7 -3l116 -51q75 -33 128 -72 t86 -84q34 -46 50.5 -101.5t16.5 -125.5q0 -107 -39 -201t-121 -164q-78 -66 -187.5 -101.5t-246.5 -35.5z" />
<glyph unicode="T" d="M563 1235h-383l49 258h1059l-51 -258h-379l-240 -1235h-294z" />
<glyph unicode="U" d="M497 -29q-106 0 -190 24.5t-144 74.5q-62 51 -90 122t-28 162q0 21 1.5 42t4.5 48q2 18 3.5 30t3 23.5t4 23.5t6.5 30l184 942h295l-199 -1016q0 -3 -1 -6q-4 -23 -5.5 -40t-1.5 -31q0 -79 46 -124t132 -45q52 0 95.5 15t75.5 46q64 61 89 185l199 1016h295l-185 -942 q-17 -85 -34 -150.5t-41 -121.5q-21 -49 -46.5 -86.5t-57.5 -69.5q-75 -73 -179 -113q-52 -20 -109 -29.5t-123 -9.5z" />
<glyph unicode="V" d="M203 1493h291l24 -1251l506 1251h301l-645 -1493h-412z" />
<glyph unicode="W" d="M143 1493h254l-108 -1096l272 709h238l12 -709l297 1096h262l-461 -1493h-270l-12 784l-318 -784h-268z" />
<glyph unicode="X" d="M471 782l-287 711h291l187 -463l360 463h321l-573 -737l301 -756h-291l-200 512l-400 -512h-323z" />
<glyph unicode="Y" d="M432 588l-287 905h293l187 -649l411 649h322l-633 -905l-115 -588h-293z" />
<glyph unicode="Z" d="M4 244l858 989h-643l52 260h1009l-49 -244l-876 -989h700l-51 -260h-1047z" />
<glyph unicode="[" d="M649 1651h455l-28 -173h-240l-251 -1590h240l-28 -173h-455z" />
<glyph unicode="\" d="M340 1493h203l198 -1683h-202z" />
<glyph unicode="]" d="M373 -112h240l251 1589h-240l28 173h455l-307 -1935h-455z" />
<glyph unicode="^" d="M494 1493h245l437 -557h-242l-318 301l-317 -301h-242z" />
<glyph unicode="_" d="M0 -293h1233v-190h-1233v190z" />
<glyph unicode="`" d="M371 1638h284l209 -376h-198z" />
<glyph unicode="a" d="M379 -29q-75 0 -137 21t-107 66q-47 46 -67.5 108t-20.5 134q0 102 39 184.5t117 139.5q155 113 448 113h193l8 49q2 10 2 12v17q0 57 -51 87t-146 30q-85 0 -187 -28q-50 -14 -103.5 -34.5t-118.5 -50.5l47 250q115 40 214 59q51 10 98 14.5t98 4.5q104 0 185.5 -19 t138.5 -57q60 -40 86 -96.5t26 -129.5q0 -18 -1.5 -39.5t-5.5 -49.5q-4 -29 -8 -53.5t-12 -63.5l-123 -639h-262l-4 125q-70 -79 -153 -115q-44 -20 -93 -29.5t-100 -9.5zM501 172q54 0 103.5 23t89.5 70q38 44 66.5 110t42.5 155h-113q-173 0 -255 -52q-42 -26 -62.5 -66 t-20.5 -91q0 -36 10.5 -62t30.5 -46t45.5 -30.5t62.5 -10.5z" />
<glyph unicode="b" d="M651 -29q-58 0 -102.5 17t-78.5 46t-57 71t-32 102l-70 -207h-264l303 1556h293l-119 -604q63 96 146 146q42 25 86.5 37t91.5 12q71 0 130.5 -27t102.5 -82q45 -57 64.5 -135t19.5 -171q0 -58 -7.5 -123t-22.5 -130q-13 -54 -34.5 -116t-51.5 -119q-34 -63 -78 -114.5 t-95 -86.5t-108.5 -53.5t-116.5 -18.5zM599 209q57 0 106.5 37.5t86.5 104.5q38 69 58 155.5t20 175.5q0 60 -10 100.5t-31 68.5q-42 56 -115 56q-53 0 -104.5 -33t-93.5 -105q-39 -67 -60.5 -153t-21.5 -172q0 -63 11.5 -105t32.5 -70q22 -29 53 -44.5t68 -15.5z" />
<glyph unicode="c" d="M621 -29q-105 0 -197 28.5t-161 94.5t-98.5 156.5t-29.5 197.5q0 71 12 140t35 133.5t57 122.5t79 106q90 97 212.5 147t266.5 50q50 0 98 -5.5t86 -14.5q41 -10 82 -26t79 -38l-53 -268q-60 57 -129 86q-66 28 -146 28q-89 0 -158 -33t-118 -90q-54 -63 -80.5 -145 t-26.5 -175q0 -69 15 -115.5t46 -78.5t77 -47.5t106 -15.5q38 0 75 6.5t77 19.5q37 12 78.5 30.5t91.5 47.5l-56 -276q-78 -34 -158 -50q-42 -8 -82.5 -12t-79.5 -4z" />
<glyph unicode="d" d="M382 -29q-144 0 -230 110q-43 55 -64.5 129.5t-21.5 175.5q0 60 7.5 124t23.5 129t39 126.5t48 108.5q32 61 76 112.5t98 89.5q104 73 223 73q111 0 185 -63q34 -29 57 -73t31 -102l125 645h293l-303 -1556h-262l2 166q-66 -96 -148 -145q-83 -50 -179 -50zM517 211 q57 0 107 34.5t92 104.5t62.5 153t20.5 171q0 66 -11.5 106.5t-33.5 69.5q-45 59 -120 59q-113 0 -192 -141q-40 -72 -60 -158t-20 -174q0 -64 10.5 -102.5t31.5 -66.5q42 -56 113 -56z" />
<glyph unicode="e" d="M583 -29q-250 0 -378 118q-66 61 -97.5 148.5t-31.5 200.5q0 137 44 271q23 68 53.5 124t70.5 105q43 52 93.5 91.5t106.5 65.5q115 54 250 54q102 0 188 -30t148 -90q58 -56 91.5 -135t33.5 -181q0 -20 -1.5 -50t-4.5 -56q-2 -20 -8 -60.5t-13 -81.5h-759 q-2 -8 -2.5 -16t-1.5 -16l-3 -30q0 -55 18 -90.5t49 -58.5q67 -51 200 -51q52 0 106 7.5t108 23.5q108 31 201 90l-51 -269q-95 -42 -198 -63q-104 -21 -212 -21zM876 684q4 13 6 28q1 7 1 13v12q0 84 -51 134q-50 49 -140 49q-100 0 -171 -59t-111 -177h466z" />
<glyph unicode="f" d="M456 895h-273l43 225h273l16 78q23 114 56.5 182t77.5 103q46 36 126.5 54.5t204.5 18.5h240l-43 -225h-230q-66 0 -94 -27q-14 -14 -25.5 -41.5t-19.5 -66.5l-16 -76h344l-43 -225h-344l-174 -895h-293z" />
<glyph unicode="g" d="M386 -424q-99 0 -190 15q-46 8 -90 19t-88 25l54 265q76 -46 158 -68q42 -11 83.5 -16.5t82.5 -5.5q66 0 115 14.5t84 43.5q39 32 60 77.5t33 105.5l27 133q-54 -83 -131 -125q-77 -43 -175 -43q-76 0 -137.5 25t-110.5 80q-48 54 -70.5 123t-22.5 163q0 65 10.5 135 t31.5 141q23 76 52 137.5t63 111.5q71 103 171 161t206 58q105 0 172 -55t88 -158l64 182h264l-203 -1036q-26 -135 -72 -233.5t-119 -159.5q-137 -115 -410 -115zM521 246q55 0 106 33.5t93 99.5q42 67 62.5 148t20.5 162q0 51 -9 93.5t-32 72.5q-22 29 -51 41.5t-62 12.5 q-57 0 -108.5 -34.5t-90.5 -97.5q-42 -66 -62.5 -148.5t-20.5 -163.5q0 -51 9 -93t31 -71q41 -55 114 -55z" />
<glyph unicode="h" d="M362 1556h291l-116 -604q25 48 59 84t73 60q82 51 188 51q61 0 110 -17t84 -52q33 -33 51 -82t18 -116q0 -14 -1 -31t-3 -36q-2 -12 -5.5 -37t-8.5 -48l-141 -728h-293l133 682q1 4 2 12.5t2.5 17t2.5 15.5t1 8q1 13 1.5 26t0.5 23q0 29 -6.5 52.5t-22.5 40.5 q-29 30 -83 30q-45 0 -80 -19t-62 -52q-30 -37 -50.5 -89t-33.5 -118l-121 -629h-293z" />
<glyph unicode="i" d="M615 1323q-28 0 -28 25q0 5 1 8l56 282q4 27 32 27h233q28 0 28 -25q0 -5 -1 -8l-56 -282q-5 -27 -32 -27h-233zM732 -8q-107 0 -177 14t-113 43q-47 31 -66 76.5t-19 103.5q0 17 1.5 31.5t3.5 31.5q3 23 6 39.5t8 39.5l120 524h-236l43 225h528l-166 -763 q-3 -12 -4 -17.5t-1 -8v-4.5t-1 -6q-2 -8 -2.5 -14t-0.5 -12q0 -17 7 -32.5t24 -26.5q31 -19 109 -19h278l-45 -225h-297z" />
<glyph unicode="j" d="M763 1323q-15 0 -22.5 9t-4.5 24l55 282q4 27 32 27h233q15 0 22.5 -9t4.5 -24l-55 -282q-5 -27 -32 -27h-233zM22 -199h231q100 0 151 53q29 30 46.5 79t29.5 110l166 852h-297l43 225h590l-209 -1077q-10 -50 -18.5 -87.5t-16.5 -66t-15 -49t-14 -36.5 q-30 -71 -77 -118q-30 -30 -66 -50.5t-75 -33.5q-40 -13 -90.5 -19.5t-116.5 -6.5h-307z" />
<glyph unicode="k" d="M363 1556h293l-152 -782l404 346h370l-505 -418l313 -702h-311l-222 524l-116 -96l-82 -428h-293z" />
<glyph unicode="l" d="M690 -10q-107 0 -177 14t-113 43q-41 27 -63 70.5t-22 108.5q0 17 1.5 33t3.5 31q2 10 5.5 33.5t8.5 45.5l203 962h-306l43 225h598l-249 -1201q-3 -12 -4 -17.5t-1 -8.5v-4.5t-1 -5.5q-2 -8 -2.5 -14t-0.5 -12q0 -17 7 -32.5t24 -26.5q31 -19 109 -19h278l-45 -225h-297 v0z" />
<glyph unicode="m" d="M184 1120h192l-1 -116q41 69 102 106q59 37 129 37t113 -37q43 -38 51 -102q31 64 96 102q64 37 138 37q48 0 85 -14.5t63 -40.5q29 -30 41.5 -71.5t12.5 -89.5q0 -17 -1.5 -40.5t-3.5 -47.5q-3 -27 -9.5 -62t-11.5 -62l-140 -719h-239l139 719q5 23 8 41t6 41q2 15 3 27 t1 20q0 23 -5 37t-12 22q-18 21 -52 21q-48 0 -76 -45q-15 -24 -27.5 -64.5t-23.5 -99.5l-139 -719h-240l141 719q2 12 6.5 35.5t6.5 39.5q2 17 3 29.5t1 21.5q0 41 -18 62t-52 21q-47 0 -74 -43q-16 -25 -28 -65.5t-23 -100.5l-139 -719h-240z" />
<glyph unicode="n" d="M276 1120h264l-3 -168q25 48 59 84t73 60q82 51 188 51q61 0 110 -17t84 -52q33 -33 51 -82t18 -116q0 -14 -1 -31t-3 -36q-2 -12 -5.5 -37t-8.5 -48l-141 -728h-293l133 682q4 20 5.5 34t2.5 19q1 13 1.5 25.5t0.5 22.5q0 29 -6.5 53t-22.5 41q-29 30 -83 30 q-83 0 -141 -72q-60 -73 -85 -206l-121 -629h-293z" />
<glyph unicode="o" d="M543 -29q-114 0 -197.5 33.5t-137.5 86.5q-64 63 -92 151t-28 200q0 142 41.5 274t124.5 233q80 97 190 148.5t245 51.5q100 0 187 -29.5t149 -89.5q63 -62 91.5 -151t28.5 -203q0 -145 -42 -276t-123 -229q-85 -103 -196.5 -151.5t-240.5 -48.5zM563 207q58 0 110 33.5 t94 102.5q38 63 60.5 148t22.5 181q0 69 -12 111.5t-34 69.5q-26 32 -61 45t-71 13q-124 0 -206 -135q-21 -36 -37 -76.5t-26 -83t-15 -85.5t-5 -83q0 -53 10 -100t38 -81q21 -26 54 -43t78 -17z" />
<glyph unicode="p" d="M264 1120h264l-4 -168q70 97 153 147q39 23 83.5 35.5t93.5 12.5q145 0 230 -109q43 -55 64 -129.5t21 -174.5q0 -60 -7.5 -124t-23.5 -130t-38.5 -126t-48.5 -110q-69 -129 -174 -201t-223 -72q-110 0 -183 62t-92 174l-123 -633h-293zM601 209q60 0 109 39t84 102 q38 69 59 156.5t21 176.5q0 60 -10 100t-31 68q-42 56 -115 56q-56 0 -107 -34.5t-92 -103.5q-40 -68 -61.5 -153t-21.5 -172q0 -55 10 -99t34 -76q21 -28 52 -44t69 -16z" />
<glyph unicode="q" d="M709 166q-64 -96 -146 -145q-83 -50 -178 -50q-70 0 -129.5 27.5t-102.5 82.5t-64 132t-21 174q0 58 7.5 122.5t23.5 129.5q31 129 88 235q35 64 76.5 114.5t95.5 88.5q104 72 221 72q57 0 104 -16.5t80 -45.5t57 -73t33 -103l68 209h264l-301 -1546h-291zM519 211 q116 0 198 139q41 69 61.5 151.5t20.5 172.5q0 59 -10 101.5t-35 74.5q-45 59 -120 59q-113 0 -192 -141q-40 -72 -60 -158t-20 -174q0 -64 10.5 -102t31.5 -66t49 -42.5t66 -14.5z" />
<glyph unicode="r" d="M343 1120h264l-6 -174q62 96 161 149q98 52 217 52q63 0 119 -15q55 -15 99 -42l-53 -275q-26 23 -53.5 39t-53.5 25q-30 11 -65.5 15.5t-71.5 4.5q-78 0 -141 -21t-110 -67q-44 -43 -77 -116t-53 -179l-100 -516h-295z" />
<glyph unicode="s" d="M501 -29q-53 0 -108 4.5t-100 12.5q-48 8 -100.5 22t-102.5 31l51 256q48 -31 90.5 -50.5t90.5 -34.5q46 -14 91.5 -22t96.5 -8q110 0 172 38q61 37 61 106q0 27 -8.5 42.5t-22.5 26.5q-20 16 -61 32.5t-102 33.5l-88 24q-55 15 -101 41.5t-78 65.5q-27 33 -42 75.5 t-15 99.5q0 88 35 158.5t100 119.5t157.5 75.5t207.5 26.5q46 0 95 -4t89 -11t91 -19.5t94 -27.5l-50 -254q-76 53 -162 80q-44 14 -88.5 20.5t-88.5 6.5q-51 0 -87.5 -9t-64.5 -26q-55 -35 -55 -93q0 -46 37 -73q20 -14 59.5 -30t105.5 -35l74 -21q66 -19 112.5 -46.5 t74.5 -60.5q29 -34 44 -79.5t15 -105.5q0 -91 -35 -162.5t-101 -121.5q-70 -53 -168 -78.5t-215 -25.5z" />
<glyph unicode="t" d="M707 -5q-106 0 -176 14t-113 43q-46 30 -66 75t-20 102q0 17 1.5 30.5t3.5 30.5q2 12 5 36t8 48l101 521h-287l43 225h287l61 318h293l-62 -318h383l-43 -225h-383l-104 -535q-1 -5 -2.5 -13t-3.5 -22q-1 -8 -1.5 -13.5t-0.5 -11.5q0 -43 30 -61q29 -19 109 -19h225 l-43 -225h-245v0z" />
<glyph unicode="u" d="M372 -29q-128 0 -197 71q-69 70 -69 202q0 14 1 30t3 34q1 3 4 28.5t9 54.5l143 729h291l-131 -684q-2 -13 -3.5 -24.5t-3.5 -28.5q-2 -16 -2.5 -26t-0.5 -21q0 -35 7.5 -56t21.5 -37q13 -14 32.5 -23t51.5 -9q44 0 78 18t61 53q58 74 84 207l122 631h291l-217 -1120 h-264l4 166q-24 -50 -56.5 -83.5t-72.5 -58.5q-46 -29 -91.5 -41t-95.5 -12z" />
<glyph unicode="v" d="M172 1120h283l80 -878l389 878h307l-551 -1120h-369z" />
<glyph unicode="w" d="M96 1120h240l-33 -858l227 565h230l22 -565l291 858h252l-418 -1120h-280l-19 590l-239 -590h-279z" />
<glyph unicode="x" d="M436 594l-258 526h301l148 -317l268 317h332l-477 -553l278 -567h-299l-170 356l-303 -356h-332z" />
<glyph unicode="y" d="M-20 -201h117q90 0 137 30q24 15 52 50t58 92l39 74l-217 1075h297l127 -700l383 700h309l-706 -1241q-56 -98 -103 -160t-90 -91q-38 -26 -91.5 -39t-116.5 -13h-240z" />
<glyph unicode="z" d="M94 229l707 672h-551l43 219h895l-45 -229l-707 -672h576l-43 -219h-920z" />
<glyph unicode="{" d="M644 -334q-105 0 -171 14t-108 40t-63.5 68.5t-21.5 110.5q0 13 1 24t3 28q0 3 1.5 12t3.5 20.5t4 25t5 26.5l43 215q1 4 2.5 13t3.5 20.5t4 23.5t3 21q2 17 3 28.5t1 20.5q0 42 -15.5 67.5t-47.5 41.5q-27 14 -73 22t-109 8h-62l37 191h91q143 0 207 55t94 211l41 215 q22 115 56.5 188t80.5 108q93 72 353 72h149l-36 -190h-123q-56 0 -91.5 -11t-57.5 -32q-23 -22 -40 -65.5t-31 -118.5l-38 -209q-14 -78 -38 -138t-57 -96q-61 -67 -192 -84q96 -21 137 -64q20 -20 30.5 -48.5t10.5 -71.5q0 -11 -1 -29t-3 -35q-2 -13 -4.5 -30t-7.5 -43 l-41 -205q-3 -13 -4.5 -21t-3 -15t-2.5 -15.5t-3 -22.5l-3 -25.5t-1 -18.5q0 -32 8.5 -52.5t25.5 -33.5q34 -25 114 -25h121l-37 -191h-148v0z" />
<glyph unicode="|" d="M502 1565h227v-2048h-227v2048z" />
<glyph unicode="}" d="M56 -143h123q48 0 86.5 11t60.5 32q45 43 72 186l39 205q15 79 38.5 138t56.5 95q62 68 192 88q-95 16 -136 58q-42 42 -42 122q0 11 1 26.5t3 33.5q2 11 5 34.5t7 43.5l41 209q5 18 7.5 35t5.5 40q2 15 3 22t1 11t-0.5 5t-0.5 5q0 28 -8 50t-25 35q-33 24 -114 24h-121 l37 190h147q204 0 287 -48q42 -24 62 -65t20 -92q0 -49 -20 -149l-3 -15l-41 -215q-3 -16 -5.5 -32.5t-4.5 -28.5q-2 -16 -3 -26.5t-1 -20.5q0 -53 18.5 -80t44.5 -42q62 -35 178 -35h62l-37 -191h-92q-141 0 -206 -58q-67 -59 -95 -208l-41 -215q-42 -222 -142 -295 q-100 -74 -347 -74h-150z" />
<glyph unicode="~" d="M850 463q-30 0 -56 4t-50.5 10.5t-48.5 16t-50 20.5q-11 4 -17.5 7t-9.5 4.5l-4 2t-2 0.5q-38 17 -70 28.5t-58 17.5q-53 12 -103 12q-76 0 -148 -29q-29 -12 -66.5 -34.5t-78.5 -57.5v229q77 61 151 88q37 14 76.5 20.5t78.5 6.5q55 0 104 -11q23 -5 57.5 -16.5 t66.5 -25.5l33 -15q61 -28 109 -41.5t99 -13.5q39 0 72.5 8t67.5 23t69 37.5t73 56.5v-233q-74 -59 -146 -87q-33 -13 -69.5 -20.5t-79.5 -7.5z" />
<glyph unicode="&#xa0;" />
<glyph unicode="&#xa1;" d="M696 1198q-38 0 -65 12.5t-44 30.5q-22 25 -30 55.5t-8 56.5q0 31 9.5 61t27 55t42 44.5t53.5 30.5q33 12 73 12q43 0 68.5 -14.5t41.5 -31.5q20 -23 28.5 -50t8.5 -57q0 -21 -4 -40.5t-10 -33.5q-16 -39 -45.5 -70t-71.5 -48q-33 -13 -74 -13zM455 655l112 357h199 l-25 -357l-127 -655h-286z" />
<glyph unicode="&#xa2;" d="M506 -25q-195 23 -298 141q-52 60 -78 138.5t-26 183.5q0 77 14 148.5t41 140.5q29 72 69 134t87 110q37 38 83 71t105 57q51 21 109 33t121 13l55 287h142l-55 -287q27 -2 55.5 -7t54.5 -13q57 -17 117 -48l-53 -264q-23 20 -48.5 36.5t-51.5 27.5q-52 22 -119 30 l-135 -692q32 2 64.5 9.5t64.5 18.5q34 12 65 28t63 36l-51 -264q-61 -31 -125 -48q-65 -17 -129 -20l-55 -288h-141zM688 907q-136 -15 -229 -145q-46 -64 -70 -139t-24 -160q0 -60 13 -102.5t39 -75.5q25 -32 57.5 -50t77.5 -20z" />
<glyph unicode="&#xa3;" d="M29 260h235l64 334h-199l45 225h199l37 197q26 137 71 232.5t108 153.5q64 60 156 89t207 29q80 0 150 -16q73 -17 143 -48l-53 -266q-29 20 -61 36.5t-58 25.5t-58 14.5t-63 5.5q-105 0 -168 -67q-31 -33 -54.5 -84.5t-37.5 -125.5l-33 -176h336l-43 -225h-338l-63 -334 h481l-51 -260h-1004z" />
<glyph unicode="&#xa4;" d="M186 305l170 170q-14 27 -20 43.5t-13 40.5q-5 20 -8.5 38.5t-3.5 44.5t3.5 47t8.5 40q5 17 12.5 36t22.5 42l-172 170l131 131l166 -172q20 12 42 21.5t41 14.5q42 11 86 11q21 0 41 -3t40 -8t41.5 -14t44.5 -20l172 170l127 -129l-170 -170q11 -20 20 -41t14 -41 q11 -44 11 -86q0 -21 -3 -44.5t-8 -42.5q-5 -16 -14 -37t-22 -40l172 -170l-131 -131l-170 172q-22 -14 -38.5 -21.5t-37.5 -13.5q-19 -5 -39.5 -8.5t-45.5 -3.5q-23 0 -43 3t-41 8t-42.5 13t-44.5 19l-170 -168zM654 467q73 0 123 51q50 52 50 124q0 36 -13 68.5t-36 55.5 q-24 24 -57 36.5t-68 12.5t-66.5 -12t-56.5 -36q-23 -22 -37 -54t-14 -70q0 -35 12.5 -67t37.5 -58q23 -24 55 -37.5t70 -13.5z" />
<glyph unicode="&#xa5;" d="M383 438h-412l37 189h408l-58 151h-321l37 187h223l-170 528h317l174 -600l408 600h317l-374 -528h223l-37 -187h-321l-115 -151h407l-36 -189h-412l-86 -438h-293z" />
<glyph unicode="&#xa6;" d="M502 1432h227v-758h-227v758zM502 408h227v-758h-227v758z" />
<glyph unicode="&#xa7;" d="M458 -195q-79 0 -167 15q-91 15 -187 45l46 229q35 -16 72.5 -28.5t80.5 -21.5q82 -17 150 -17q91 0 137 34q23 17 35 41.5t12 48.5q0 39 -34.5 80t-117.5 97l-18 12l-100 68q-52 35 -88.5 65t-60.5 65q-18 26 -29 57.5t-11 73.5q0 95 61 171q30 38 74 70t101 57 q-51 40 -75 90q-12 25 -18 52.5t-6 62.5q0 154 118 251q56 46 131 71.5t175 25.5q73 0 153 -15q81 -15 167 -45l-45 -229q-34 17 -68.5 30t-64.5 21q-33 8 -65.5 12t-62.5 4q-87 0 -133 -34q-47 -35 -47 -95q0 -44 31 -79q20 -23 53.5 -47.5t85.5 -57.5l105 -67 q95 -60 142 -127q23 -32 32.5 -65.5t9.5 -69.5q0 -86 -55 -160q-29 -38 -71 -73t-99 -69q24 -23 40.5 -47t26.5 -47q21 -50 21 -111q0 -77 -30.5 -140.5t-88.5 -109.5q-57 -45 -137.5 -69.5t-180.5 -24.5zM682 451q55 38 88 83q17 24 24 44.5t7 40.5q0 35 -19 66 q-9 15 -22.5 29.5t-30.5 26.5l-80 54q-2 0 -12 7.5t-29 20.5l-78 54q-29 -21 -51.5 -44t-37.5 -44q-17 -24 -24 -44.5t-7 -40.5q0 -35 18 -65t55 -55l78 -54l51 -34q15 -10 24 -15.5t15.5 -10t13.5 -9t17 -10.5z" />
<glyph unicode="&#xa8;" d="M449 1339q-15 0 -22.5 9t-4.5 24l36 186q4 27 32 27h177q27 0 27 -24q0 -6 -1 -9l-37 -186q-5 -27 -32 -27h-175zM844 1339q-15 0 -22.5 9t-4.5 24l36 186q4 27 32 27h178q27 0 27 -24q0 -6 -1 -9l-37 -186q-5 -27 -32 -27h-176z" />
<glyph unicode="&#xa9;" d="M616 125q-66 0 -123 11.5t-111 34.5q-55 23 -106 57.5t-95 78.5q-42 42 -77.5 93.5t-58.5 107.5q-45 106 -45 233q0 63 11.5 122t34.5 114q23 54 56.5 104t79.5 97q47 48 97 81t102 54q109 45 235 45t236 -45q57 -23 107 -57.5t92 -77.5q49 -50 82.5 -101.5t53.5 -99.5 q46 -108 46 -235q0 -128 -45 -234q-22 -52 -56.5 -104t-79.5 -97q-42 -42 -93 -77t-108 -59q-108 -46 -235 -46zM616 256q51 0 95.5 8.5t90.5 28.5q38 17 78 43t78 64q34 34 62 74.5t46 83.5q36 85 36 185q0 54 -9.5 98t-26.5 86q-19 45 -46.5 85t-60.5 74t-74 62t-83 45 q-48 20 -92.5 28t-90.5 8q-56 0 -101.5 -9.5t-86.5 -26.5q-42 -18 -82 -45t-75 -62t-62.5 -77t-44.5 -82q-36 -84 -36 -185q0 -99 36 -184q19 -45 45.5 -83.5t61.5 -73.5q38 -38 76.5 -64.5t80.5 -43.5q46 -20 90.5 -28.5t94.5 -8.5zM637 399q-81 0 -150 22.5t-120 70.5 t-76 111.5t-25 137.5q0 82 27.5 145t73.5 105q47 43 115 67.5t154 24.5q26 0 55.5 -2t53.5 -6q23 -4 51.5 -11t51.5 -15v-168q-53 32 -97 45q-23 7 -46.5 10.5t-49.5 3.5q-49 0 -85.5 -13t-62.5 -39q-54 -53 -54 -147q0 -95 53 -146q52 -52 152 -52q29 0 53 4t47 11 t43.5 16.5t46.5 27.5v-168q-28 -8 -55 -14.5t-53 -11.5q-53 -9 -103 -9z" />
<glyph unicode="&#xaa;" d="M511 698q-111 0 -173 61q-64 61 -64 167q0 71 27 128t85 99q112 80 319 80h135l6 35q2 4 2 7v11q0 40 -36 61q-19 11 -45.5 16t-58.5 5t-64 -5t-69 -15q-36 -10 -73 -23.5t-84 -34.5l33 174q79 28 152 42q35 7 69.5 10.5t70.5 3.5q67 0 125.5 -12.5t100.5 -38.5 q44 -27 63 -65.5t19 -85.5q0 -10 -1 -28t-3 -35q-2 -19 -6.5 -44.5t-8.5 -45.5l-88 -448h-207l19 88q-25 -29 -50 -47.5t-57 -32.5q-63 -27 -138 -27zM598 838q38 0 73.5 16.5t63.5 48.5q26 29 46 75t30 109h-80q-122 0 -180 -36q-29 -18 -44 -45.5t-15 -62.5q0 -47 29 -76 q14 -14 32.5 -21.5t44.5 -7.5zM246 598h688l-35 -170h-688z" />
<glyph unicode="&#xab;" d="M78 535l24 131l547 393l-47 -238l-319 -221l233 -221l-45 -238zM532 535l25 131l545 393l-45 -238l-320 -221l234 -221l-45 -238z" />
<glyph unicode="&#xac;" d="M907 662h-819v237h1057v-537h-238v300z" />
<glyph unicode="&#xad;" d="M299 735h629l-56 -291h-628z" />
<glyph unicode="&#xae;" d="M616 125q-66 0 -123 11.5t-111 34.5t-105 57t-96 79q-44 44 -78 94.5t-57 105.5q-23 54 -34.5 111t-11.5 123q0 128 46 236q23 54 57 104.5t79 96.5q43 44 92.5 78t106.5 57q109 45 235 45t236 -45q57 -23 107 -57.5t92 -77.5q49 -50 82.5 -101.5t53.5 -99.5 q46 -108 46 -235q0 -128 -45 -234q-22 -52 -56.5 -104t-79.5 -97q-42 -42 -93 -77t-108 -59q-108 -46 -235 -46zM616 256q99 0 185 36t157 107q32 32 60 72t48 87q18 43 27 88t9 96q0 50 -8.5 95t-27.5 90t-46.5 85t-60.5 74q-32 33 -73 61t-84 46q-48 20 -92.5 28t-92.5 8 q-59 0 -102.5 -9.5t-82.5 -26.5q-35 -15 -76 -40.5t-83 -67.5q-37 -38 -63 -78.5t-43 -79.5q-20 -48 -28 -94t-8 -91q0 -51 9 -96t27 -88q16 -38 42 -78.5t65 -79.5q71 -71 158 -108q85 -36 184 -36zM360 1055h246q133 0 198 -44q32 -22 48 -55.5t16 -77.5q0 -66 -39 -108 q-18 -20 -44 -34t-66 -21q23 -8 39.5 -20t26.5 -22q11 -11 24.5 -30.5t26.5 -46.5l79 -166h-172l-63 133q-13 27 -26.5 48.5t-28.5 33.5q-12 10 -30 17t-40 8h-31v-240h-164v625zM588 780q57 0 86 20q28 19 28 61t-28 63q-29 20 -86 20h-64v-164h64z" />
<glyph unicode="&#xaf;" d="M459 1556h631l-37 -188h-631z" />
<glyph unicode="&#xb0;" d="M613 854q-71 0 -131 25t-104 69q-47 47 -71 107.5t-24 129.5t23.5 130t71.5 109t108.5 72t129.5 24q68 0 128 -25q29 -12 57 -31t51 -42t42 -52t30 -57q24 -59 24 -125q0 -69 -25 -129q-12 -29 -29.5 -56t-41.5 -51q-23 -23 -51.5 -41.5t-57.5 -30.5q-31 -13 -63 -19.5 t-67 -6.5zM614 1016q72 0 122 50t50 121q0 72 -49 121q-50 50 -121 50q-72 0 -122 -50t-50 -123q0 -71 49 -120t121 -49z" />
<glyph unicode="&#xb1;" d="M498 694h-410v236h410v354h237v-354h410v-236h-410v-354h-237v354zM88 238h1057v-238h-1057v238z" />
<glyph unicode="&#xb2;" d="M289 1261q34 25 51.5 37.5t29.5 21t24.5 17.5t36.5 26q109 78 185 138.5t124 106.5t69.5 80t21.5 58q0 16 -9 33.5t-27 30.5q-35 24 -104 24q-30 0 -64.5 -4.5t-71.5 -13.5q-38 -9 -77 -22.5t-75 -30.5l31 162q38 11 75 20t74 15q73 12 145 12q69 0 124.5 -12.5 t97.5 -41.5q41 -29 59.5 -67t18.5 -74q0 -41 -23.5 -86t-73.5 -98.5t-127.5 -116t-185.5 -138.5q-13 -9 -18 -12.5t-12.5 -8.5t-23 -16t-50.5 -36h438l-28 -145h-664z" />
<glyph unicode="&#xb3;" d="M569 1103q-40 0 -76.5 3t-73.5 8q-36 5 -70.5 12t-72.5 18l31 154q35 -15 67 -24.5t68 -16.5q37 -7 75 -10.5t71 -3.5q55 0 92.5 10.5t65.5 30.5q29 22 42 49t13 56q0 52 -43 77q-44 26 -119 26h-111l29 146h109q89 0 135 28q47 28 47 77q0 42 -40 64q-41 23 -109 23 q-49 0 -118 -12q-32 -6 -69.5 -14.5t-79.5 -20.5l29 152q37 8 73 14.5t71 11.5q70 9 134 9q73 0 127.5 -12.5t94.5 -38.5q79 -51 79 -143q0 -42 -15 -78t-45 -64q-29 -27 -72.5 -44.5t-100.5 -23.5q84 -9 133 -58q25 -25 37 -55.5t12 -72.5q0 -63 -27 -114.5t-82 -88.5 t-133 -55.5t-178 -18.5z" />
<glyph unicode="&#xb4;" d="M887 1638h321l-442 -376h-197z" />
<glyph unicode="&#xb5;" d="M246 1120h289l-132 -680q-2 -8 -4.5 -20.5t-4.5 -31.5q-3 -24 -3 -42q0 -64 34 -98q17 -17 40.5 -26t55.5 -9q81 0 132 56q52 56 74 171l131 680h289l-150 -776q-2 -17 -3.5 -27t-2.5 -15t-1 -6.5v-2.5q-2 -10 -2.5 -16t-0.5 -13q0 -23 11 -37t30 -14q12 0 27 6 q5 2 14.5 7t20.5 12l-43 -222q-28 -14 -47 -21.5t-39 -12.5t-39 -8t-39 -3q-38 0 -64 10t-44 28q-38 38 -50 120q-52 -79 -114 -118q-29 -19 -61 -29.5t-71 -10.5q-59 0 -96 24q-38 24 -53 71l-97 -494h-288z" />
<glyph unicode="&#xb6;" d="M457 649q-171 18 -263 104q-46 43 -69 99t-23 134q0 103 40.5 194t122.5 166q162 147 407 147h518l-328 -1690h-190l301 1543h-191l-299 -1543h-190z" />
<glyph unicode="&#xb7;" d="M441 530q-28 0 -28 25q0 5 1 8l60 305q4 27 32 27h274q28 0 28 -25q0 -5 -1 -8l-61 -305q-5 -27 -32 -27h-273v0z" />
<glyph unicode="&#xb8;" d="M349 -401q-26 0 -54.5 2t-45.5 4q-6 1 -19.5 3t-28.5 5t-29.5 6t-21.5 6l28 156q22 -8 43 -14.5t41 -11.5q40 -9 77 -9q34 0 60.5 7t43.5 20q36 27 36 76q0 28 -13 61q-6 16 -17 39t-27 51h141q36 -49 54 -94q18 -47 18 -91q0 -47 -18.5 -87.5t-56.5 -69.5 q-37 -29 -90.5 -44t-120.5 -15z" />
<glyph unicode="&#xb9;" d="M315 1265h236l106 543l-229 -43l29 149l229 41h197l-135 -690h227l-29 -145h-657z" />
<glyph unicode="&#xba;" d="M634 698q-78 0 -137 21t-103 63q-45 42 -66 101t-21 144q0 103 30 193t90 160q119 140 313 140q154 0 241 -84q43 -42 64.5 -100t21.5 -145q0 -100 -29.5 -190.5t-89.5 -162.5q-62 -73 -140.5 -106.5t-173.5 -33.5zM649 862q45 0 82.5 25.5t64.5 69.5q30 49 45 110 t15 121q0 38 -7 71t-27 56q-17 20 -41.5 30.5t-52.5 10.5q-46 0 -83.5 -25.5t-64.5 -69.5q-32 -51 -46 -112.5t-14 -116.5q0 -47 9 -77t25 -50q17 -20 41 -31.5t54 -11.5zM254 598h688l-33 -170h-688z" />
<glyph unicode="&#xbb;" d="M127 379l322 221l-234 221l45 238l393 -393l-26 -131l-545 -394zM582 379l321 221l-233 221l45 238l393 -393l-27 -131l-544 -394z" />
<glyph unicode="&#xbc;" d="M57 969h236l106 543l-229 -43l29 149l229 41h197l-135 -690h227l-29 -145h-657zM47 618l1059 261l37 -117l-1059 -262zM796 -90h-389l31 162l467 493h205l-101 -512h109l-27 -143h-108l-35 -180h-188zM823 53l64 330l-314 -330h250z" />
<glyph unicode="&#xbd;" d="M57 969h236l106 543l-229 -43l29 149l229 41h197l-135 -690h227l-29 -145h-657zM47 618l1059 261l37 -117l-1059 -262zM443 -129q34 25 51.5 37.5t29.5 21t24.5 17.5t36.5 26q107 77 183 137t124 106.5t70.5 80.5t22.5 59q0 16 -9 33.5t-27 30.5q-35 24 -104 24 q-30 0 -64.5 -4.5t-71.5 -13.5q-41 -10 -78 -23t-74 -30l31 162q38 11 75 20t74 15q73 12 144 12t128 -13t96 -41q40 -29 58.5 -67.5t18.5 -73.5q0 -80 -99.5 -186.5t-310.5 -252.5q-12 -8 -21.5 -14.5t-20.5 -14.5t-25.5 -18t-36.5 -26h438l-28 -145h-664z" />
<glyph unicode="&#xbe;" d="M342 809q-40 0 -76.5 3t-73.5 8q-36 5 -70.5 12t-72.5 18l31 154q35 -15 67 -24.5t68 -16.5q37 -7 75 -10.5t71 -3.5q55 0 92.5 10.5t65.5 30.5q29 22 42 49t13 56q0 52 -43 77q-44 26 -119 26h-111l29 146h109q89 0 135 28q47 28 47 77q0 42 -40 64q-41 23 -109 23 q-49 0 -118 -12q-32 -6 -69.5 -14.5t-79.5 -20.5l29 152q37 8 73 14.5t71 11.5q70 9 134 9q73 0 127.5 -12.5t94.5 -38.5q79 -51 79 -143q0 -42 -15 -78t-45 -64q-29 -27 -72.5 -44.5t-100.5 -23.5q84 -9 133 -58q25 -25 37 -55.5t12 -72.5q0 -63 -27 -114.5t-82 -88.5 t-133 -55.5t-178 -18.5zM47 618l1059 261l37 -117l-1059 -262zM796 -90h-389l31 162l467 493h205l-101 -512h109l-27 -143h-108l-35 -180h-188zM823 53l64 330l-314 -330h250z" />
<glyph unicode="&#xbf;" d="M732 1222q-35 0 -59 11.5t-41 30.5q-16 18 -26 43t-10 53v30q0 10 4.5 24.5t10.5 26.5q8 16 22 37t37 39t51 28.5t62 10.5q47 0 81 -21t50 -66q9 -26 9 -56q0 -48 -17 -82t-43 -57q-26 -24 -59.5 -38t-71.5 -14zM454 -27q-85 0 -150 20.5t-115 62.5q-99 82 -99 216 q0 96 49 178q25 42 67.5 88.5t98.5 92.5l105 86l8 7q66 58 102.5 116t50.5 129l23 123h266l-29 -154q-10 -52 -24.5 -91.5t-36.5 -74.5q-26 -42 -60.5 -77.5t-78.5 -73.5l-105 -93l-15 -13q-68 -59 -104 -105.5t-36 -88.5q0 -20 9 -42.5t28 -38.5t45 -23.5t64 -7.5 q46 0 93 10t96 27t103.5 43.5t114.5 64.5l-52 -268q-100 -55 -208 -84t-210 -29z" />
<glyph unicode="&#xc0;" d="M500 1852h264l143 -264h-178zM582 1493h360l113 -1493h-293l-14 369h-400l-162 -369h-299zM737 612l-20 607l-264 -607h284z" />
<glyph unicode="&#xc1;" d="M862 1852h281l-320 -264h-207zM582 1493h360l113 -1493h-293l-14 369h-400l-162 -369h-299zM737 612l-20 607l-264 -607h284z" />
<glyph unicode="&#xc2;" d="M639 1852h348l151 -264h-169l-164 161l-230 -161h-180zM582 1493h360l113 -1493h-293l-14 369h-400l-162 -369h-299zM737 612l-20 607l-264 -607h284z" />
<glyph unicode="&#xc3;" d="M422 1589q26 129 91 197q32 34 71.5 51.5t88.5 17.5q38 0 71 -12q14 -5 30.5 -14.5t36.5 -24.5l53 -41q13 -12 34 -20q17 -7 34 -7q40 0 65 31q27 32 37 88h137q-25 -127 -91 -197q-65 -69 -159 -69q-20 0 -36.5 3t-32.5 8t-31 13.5t-39 26.5l-49 37q-14 11 -22.5 16 t-19.5 10q-10 4 -17.5 5t-13.5 1q-21 0 -37 -9t-27 -22q-16 -19 -25 -45.5t-12 -43.5h-137zM582 1493h360l113 -1493h-293l-14 369h-400l-162 -369h-299zM737 612l-20 607l-264 -607h284z" />
<glyph unicode="&#xc4;" d="M487 1613q-27 0 -27 24q0 6 1 9l38 186q6 27 32 27h175q27 0 27 -24q0 -6 -1 -9l-37 -186q-5 -27 -32 -27h-176zM883 1613q-27 0 -27 24q0 6 1 9l37 186q4 27 32 27h175q15 0 22.5 -9t4.5 -24l-36 -186q-5 -27 -32 -27h-177zM582 1493h360l113 -1493h-293l-14 369h-400 l-162 -369h-299zM737 612l-20 607l-264 -607h284z" />
<glyph unicode="&#xc5;" d="M547 1421q-36 36 -57 89q-21 52 -21 108q0 115 84 199q40 40 88.5 62t111.5 22q117 0 201 -84t84 -199q0 -32 -6 -61.5t-17 -53.5q-12 -28 -29.5 -52t-37.5 -42l107 -1409h-295l-21 369h-395l-162 -369h-295zM754 1485q54 0 93 39q38 38 38 92t-39 93q-40 38 -92 38 q-54 0 -92 -38q-39 -39 -39 -93q0 -29 10.5 -52t27.5 -40q39 -39 93 -39zM729 612l-20 611l-258 -611h278z" />
<glyph unicode="&#xc6;" d="M502 1493h809l-51 -260h-291l-60 -311h260l-51 -260h-260l-78 -402h310l-52 -260h-563l72 362h-283l-155 -362h-259zM592 598l125 635h-80l-272 -635h227z" />
<glyph unicode="&#xc7;" d="M1038 1502q35 -8 75.5 -21.5t79.5 -32.5l-64 -328q-50 69 -122 103q-37 17 -77.5 25.5t-76.5 8.5q-41 0 -82.5 -11t-81.5 -36q-42 -26 -74.5 -62.5t-56.5 -73.5q-35 -54 -62.5 -117t-48.5 -138q-23 -81 -33 -151.5t-10 -130.5q0 -71 14.5 -129t48.5 -100q63 -77 184 -77 q78 0 159 34q43 18 85.5 44.5t88.5 61.5l-64 -328q-40 -19 -80 -32.5t-77 -21.5q-22 -5 -43.5 -8.5t-43.5 -5.5q22 -35 36 -69q18 -47 18 -91q0 -47 -18.5 -87.5t-56.5 -69.5q-37 -29 -90 -44t-122 -15q-26 0 -53 2t-46 4q-22 3 -37 5.5t-26 5.5t-19 5t-17 4l28 156 q22 -8 43 -14.5t41 -11.5q40 -9 77 -9q34 0 60.5 7t43.5 20q36 27 36 76q0 28 -13 61q-5 12 -12 28t-18 36q-91 8 -167.5 41t-132.5 93q-67 72 -96.5 176t-29.5 233q0 102 17.5 212t53.5 219q35 105 82.5 192t108.5 156q48 54 104 96t123 71q66 29 139.5 43t149.5 14 q42 0 78.5 -4.5t76.5 -13.5z" />
<glyph unicode="&#xc8;" d="M527 1853h264l143 -264h-178zM317 1493h932l-51 -260h-635l-63 -322h575l-49 -260h-575l-76 -391h635l-52 -260h-929z" />
<glyph unicode="&#xc9;" d="M899 1852h281l-320 -264h-207zM317 1493h932l-51 -260h-635l-63 -322h575l-49 -260h-575l-76 -391h635l-52 -260h-929z" />
<glyph unicode="&#xca;" d="M666 1853h348l151 -264h-169l-164 161l-230 -161h-180zM317 1493h932l-51 -260h-635l-63 -322h575l-49 -260h-575l-76 -391h635l-52 -260h-929z" />
<glyph unicode="&#xcb;" d="M514 1607q-27 0 -27 24q0 6 1 9l38 186q6 27 32 27h175q27 0 27 -24q0 -6 -1 -9l-37 -186q-5 -27 -32 -27h-176zM910 1607q-27 0 -27 24q0 6 1 9l37 186q4 27 32 27h175q15 0 22.5 -9t4.5 -24l-36 -186q-5 -27 -32 -27h-177zM317 1493h932l-51 -260h-635l-63 -322h575 l-49 -260h-575l-76 -391h635l-52 -260h-929z" />
<glyph unicode="&#xcc;" d="M496 1853h264l143 -264h-178zM78 260h297l188 973h-297l51 260h889l-51 -260h-297l-188 -973h297l-52 -260h-888z" />
<glyph unicode="&#xcd;" d="M858 1853h281l-320 -264h-207zM78 260h297l188 973h-297l51 260h889l-51 -260h-297l-188 -973h297l-52 -260h-888z" />
<glyph unicode="&#xce;" d="M645 1853h348l151 -264h-169l-164 161l-230 -161h-180zM78 260h297l188 973h-297l51 260h889l-51 -260h-297l-188 -973h297l-52 -260h-888z" />
<glyph unicode="&#xcf;" d="M493 1606q-27 0 -27 24q0 6 1 9l38 186q6 27 32 27h175q27 0 27 -24q0 -6 -1 -9l-37 -186q-5 -27 -32 -27h-176zM889 1606q-27 0 -27 24q0 6 1 9l37 186q4 27 32 27h175q15 0 22.5 -9t4.5 -24l-36 -186q-5 -27 -32 -27h-177zM78 260h297l188 973h-297l51 260h889 l-51 -260h-297l-188 -973h297l-52 -260h-888z" />
<glyph unicode="&#xd0;" d="M151 664h-137l47 237h135l117 592h315q139 0 247 -30t180 -93q70 -61 105 -155t35 -219q0 -36 -3 -85.5t-10 -96.5q-3 -21 -7.5 -47t-10 -54.5t-11.5 -56.5t-12 -53q-20 -81 -44 -146t-46 -110q-30 -62 -62 -104.5t-62 -71.5q-48 -47 -105.5 -79t-120.5 -52 q-69 -21 -154.5 -30.5t-194.5 -9.5h-330zM464 266q112 0 189 44q42 23 70 56t50 76q24 48 46.5 114.5t38.5 138.5q17 75 24.5 144.5t7.5 120.5q0 73 -15.5 122t-46.5 81q-63 64 -192 64h-82l-63 -326h211l-45 -237h-211l-78 -398h96z" />
<glyph unicode="&#xd1;" d="M452 1588q26 129 91 197q32 34 71.5 51.5t88.5 17.5q38 0 71 -12q14 -5 30.5 -14.5t36.5 -24.5l53 -41q13 -12 34 -20q17 -7 34 -7q40 0 65 31q27 32 37 88h137q-25 -127 -91 -197q-65 -69 -159 -69q-20 0 -36.5 3t-32.5 8t-31 13.5t-39 26.5l-49 37q-16 12 -22.5 16.5 t-19.5 9.5q-10 4 -17.5 5t-13.5 1q-21 0 -37 -9t-27 -22q-16 -19 -25 -45.5t-12 -43.5h-137zM266 1493h303l215 -1085l211 1085h260l-288 -1493h-293l-225 1085l-211 -1085h-263z" />
<glyph unicode="&#xd2;" d="M510 1852h264l143 -264h-178zM500 -29q-102 0 -185.5 31t-141.5 96q-59 66 -85.5 160.5t-26.5 217.5q0 88 12.5 189.5t37.5 204.5q26 109 61 199t74 159q35 63 83.5 119t117.5 98q65 39 137.5 57t147.5 18q103 0 186 -31t140 -94q64 -70 88.5 -167.5t24.5 -212.5 q0 -85 -11.5 -184.5t-37.5 -208.5q-23 -99 -56 -189.5t-78 -168.5q-42 -74 -90.5 -127t-111.5 -91q-64 -38 -136 -56.5t-150 -18.5zM525 233q60 0 110 36q24 17 45.5 43t40.5 61q13 24 24 51t22 59q14 39 22.5 71.5t19.5 75.5q14 57 25 112t19 104q15 99 15 174 q0 121 -40 180q-41 60 -120 60q-34 0 -61.5 -10t-48.5 -25q-24 -17 -46 -44t-40 -60q-14 -25 -23.5 -50t-19.5 -54q-7 -21 -12.5 -38.5t-10.5 -34.5t-10 -37t-12 -47q-14 -58 -25 -109t-19 -105q-15 -101 -15 -175q0 -121 40 -179q21 -31 51.5 -45t68.5 -14z" />
<glyph unicode="&#xd3;" d="M872 1852h281l-320 -264h-207zM500 -29q-102 0 -185.5 31t-141.5 96q-59 66 -85.5 160.5t-26.5 217.5q0 88 12.5 189.5t37.5 204.5q26 109 61 199t74 159q35 63 83.5 119t117.5 98q65 39 137.5 57t147.5 18q103 0 186 -31t140 -94q64 -70 88.5 -167.5t24.5 -212.5 q0 -85 -11.5 -184.5t-37.5 -208.5q-23 -99 -56 -189.5t-78 -168.5q-42 -74 -90.5 -127t-111.5 -91q-64 -38 -136 -56.5t-150 -18.5zM525 233q60 0 110 36q24 17 45.5 43t40.5 61q13 24 24 51t22 59q14 39 22.5 71.5t19.5 75.5q14 57 25 112t19 104q15 99 15 174 q0 121 -40 180q-41 60 -120 60q-34 0 -61.5 -10t-48.5 -25q-24 -17 -46 -44t-40 -60q-14 -25 -23.5 -50t-19.5 -54q-7 -21 -12.5 -38.5t-10.5 -34.5t-10 -37t-12 -47q-14 -58 -25 -109t-19 -105q-15 -101 -15 -175q0 -121 40 -179q21 -31 51.5 -45t68.5 -14z" />
<glyph unicode="&#xd4;" d="M629 1852h348l151 -264h-169l-164 161l-230 -161h-180zM500 -29q-102 0 -185.5 31t-141.5 96q-59 66 -85.5 160.5t-26.5 217.5q0 88 12.5 189.5t37.5 204.5q26 109 61 199t74 159q35 63 83.5 119t117.5 98q65 39 137.5 57t147.5 18q103 0 186 -31t140 -94 q64 -70 88.5 -167.5t24.5 -212.5q0 -85 -11.5 -184.5t-37.5 -208.5q-23 -99 -56 -189.5t-78 -168.5q-42 -74 -90.5 -127t-111.5 -91q-64 -38 -136 -56.5t-150 -18.5zM525 233q60 0 110 36q24 17 45.5 43t40.5 61q13 24 24 51t22 59q14 39 22.5 71.5t19.5 75.5q14 57 25 112 t19 104q15 99 15 174q0 121 -40 180q-41 60 -120 60q-34 0 -61.5 -10t-48.5 -25q-24 -17 -46 -44t-40 -60q-14 -25 -23.5 -50t-19.5 -54q-7 -21 -12.5 -38.5t-10.5 -34.5t-10 -37t-12 -47q-14 -58 -25 -109t-19 -105q-15 -101 -15 -175q0 -121 40 -179q21 -31 51.5 -45 t68.5 -14z" />
<glyph unicode="&#xd5;" d="M422 1589q26 129 91 197q32 34 71.5 51.5t88.5 17.5q38 0 71 -12q14 -5 30.5 -14.5t36.5 -24.5l53 -41q13 -12 34 -20q17 -7 34 -7q40 0 65 31q27 32 37 88h137q-25 -127 -91 -197q-65 -69 -159 -69q-20 0 -36.5 3t-32.5 8t-31 13.5t-39 26.5l-49 37q-16 12 -22.5 16.5 t-19.5 9.5q-10 4 -17.5 5t-13.5 1q-21 0 -37 -9t-27 -22q-16 -19 -25 -45.5t-12 -43.5h-137zM500 -29q-102 0 -185.5 31t-141.5 96q-59 66 -85.5 160.5t-26.5 217.5q0 88 12.5 189.5t37.5 204.5q26 109 61 199t74 159q35 63 83.5 119t117.5 98q65 39 137.5 57t147.5 18 q103 0 186 -31t140 -94q64 -70 88.5 -167.5t24.5 -212.5q0 -85 -11.5 -184.5t-37.5 -208.5q-23 -99 -56 -189.5t-78 -168.5q-42 -74 -90.5 -127t-111.5 -91q-64 -38 -136 -56.5t-150 -18.5zM525 233q60 0 110 36q24 17 45.5 43t40.5 61q13 24 24 51t22 59q14 39 22.5 71.5 t19.5 75.5q14 57 25 112t19 104q15 99 15 174q0 121 -40 180q-41 60 -120 60q-34 0 -61.5 -10t-48.5 -25q-24 -17 -46 -44t-40 -60q-14 -25 -23.5 -50t-19.5 -54q-7 -21 -12.5 -38.5t-10.5 -34.5t-10 -37t-12 -47q-14 -58 -25 -109t-19 -105q-15 -101 -15 -175 q0 -121 40 -179q21 -31 51.5 -45t68.5 -14z" />
<glyph unicode="&#xd6;" d="M487 1606q-27 0 -27 26q0 4 0.5 4.5t0.5 2.5l38 186q6 27 32 27h175q27 0 27 -26q0 -4 -0.5 -4.5t-0.5 -2.5l-37 -186q-5 -27 -32 -27h-176zM883 1606q-27 0 -27 26q0 4 0.5 4.5t0.5 2.5l37 186q4 27 32 27h175q15 0 22.5 -9t4.5 -24l-36 -186q-5 -27 -32 -27h-177z M500 -29q-102 0 -185.5 31t-141.5 96q-59 66 -85.5 160.5t-26.5 217.5q0 88 12.5 189.5t37.5 204.5q26 109 61 199t74 159q35 63 83.5 119t117.5 98q65 39 137.5 57t147.5 18q103 0 186 -31t140 -94q64 -70 88.5 -167.5t24.5 -212.5q0 -85 -11.5 -184.5t-37.5 -208.5 q-23 -99 -56 -189.5t-78 -168.5q-42 -74 -90.5 -127t-111.5 -91q-64 -38 -136 -56.5t-150 -18.5zM525 233q60 0 110 36q24 17 45.5 43t40.5 61q13 24 24 51t22 59q14 39 22.5 71.5t19.5 75.5q14 57 25 112t19 104q15 99 15 174q0 121 -40 180q-41 60 -120 60 q-34 0 -61.5 -10t-48.5 -25q-24 -17 -46 -44t-40 -60q-14 -25 -23.5 -50t-19.5 -54q-7 -21 -12.5 -38.5t-10.5 -34.5t-10 -37t-12 -47q-14 -58 -25 -109t-19 -105q-15 -101 -15 -175q0 -121 40 -179q21 -31 51.5 -45t68.5 -14z" />
<glyph unicode="&#xd7;" d="M119 313l330 330l-330 328l168 168l327 -328l330 328l168 -168l-330 -328l330 -330l-168 -166l-330 328l-327 -328z" />
<glyph unicode="&#xd8;" d="M-141 51l219 244q-5 21 -7.5 37t-4.5 34q-2 19 -3.5 37t-1.5 51q0 94 12 200t37 211q23 100 57 193t77 169q39 69 89 124.5t114 93.5t137 56.5t148 18.5q104 0 187 -33q82 -33 144 -98l154 170l139 -115l-205 -227q6 -32 9.5 -56.5t5.5 -47.5q2 -25 3.5 -45t1.5 -46 t-1.5 -63t-5.5 -72q-2 -14 -4 -32.5t-5 -39l-6 -41t-6 -37.5q-5 -30 -12.5 -64t-15.5 -68t-17 -66t-18 -59q-17 -52 -39.5 -107t-51.5 -108q-42 -74 -93.5 -129t-109.5 -90q-63 -38 -135.5 -56.5t-150.5 -18.5q-110 0 -196 37q-88 38 -144 109l-160 -180zM852 1153 q-9 27 -23.5 47.5t-31.5 32.5q-20 15 -44 21t-47 6q-65 0 -112.5 -39t-83.5 -108q-38 -72 -70.5 -189t-60.5 -295zM525 233q127 0 204 153q38 76 70.5 203.5t58.5 299.5l-483 -535q18 -60 57 -90q18 -14 40 -22.5t53 -8.5z" />
<glyph unicode="&#xd9;" d="M496 1852h264l143 -264h-178zM497 -29q-106 0 -190 24.5t-144 74.5q-62 51 -90 122t-28 162q0 21 1.5 42t4.5 48q2 19 3.5 31.5t3.5 23.5t4 22.5t6 29.5l184 942h295l-199 -1016q0 -3 -1 -6q-4 -23 -5.5 -40t-1.5 -31q0 -79 46 -124t132 -45q52 0 95.5 15t75.5 46 q64 61 89 185l199 1016h295l-185 -942q-17 -85 -34 -150.5t-41 -121.5q-21 -49 -46.5 -86.5t-57.5 -69.5q-76 -74 -179 -113q-52 -20 -109 -29.5t-123 -9.5z" />
<glyph unicode="&#xda;" d="M868 1854h281l-320 -264h-207zM497 -29q-106 0 -190 24.5t-144 74.5q-62 51 -90 122t-28 162q0 21 1.5 42t4.5 48q2 19 3.5 31.5t3.5 23.5t4 22.5t6 29.5l184 942h295l-199 -1016q0 -3 -1 -6q-4 -23 -5.5 -40t-1.5 -31q0 -79 46 -124t132 -45q52 0 95.5 15t75.5 46 q64 61 89 185l199 1016h295l-185 -942q-17 -85 -34 -150.5t-41 -121.5q-21 -49 -46.5 -86.5t-57.5 -69.5q-76 -74 -179 -113q-52 -20 -109 -29.5t-123 -9.5z" />
<glyph unicode="&#xdb;" d="M645 1855h348l151 -264h-169l-164 161l-230 -161h-180zM497 -29q-106 0 -190 24.5t-144 74.5q-62 51 -90 122t-28 162q0 21 1.5 42t4.5 48q2 19 3.5 31.5t3.5 23.5t4 22.5t6 29.5l184 942h295l-199 -1016q0 -3 -1 -6q-4 -23 -5.5 -40t-1.5 -31q0 -79 46 -124t132 -45 q52 0 95.5 15t75.5 46q64 61 89 185l199 1016h295l-185 -942q-17 -85 -34 -150.5t-41 -121.5q-21 -49 -46.5 -86.5t-57.5 -69.5q-76 -74 -179 -113q-52 -20 -109 -29.5t-123 -9.5z" />
<glyph unicode="&#xdc;" d="M493 1608q-27 0 -27 26q0 4 0.5 4.5t0.5 2.5l38 186q6 27 32 27h175q27 0 27 -26q0 -4 -0.5 -4.5t-0.5 -2.5l-37 -186q-5 -27 -32 -27h-176zM889 1608q-27 0 -27 26q0 4 0.5 4.5t0.5 2.5l37 186q4 27 32 27h175q15 0 22.5 -9t4.5 -24l-36 -186q-5 -27 -32 -27h-177z M497 -29q-106 0 -190 24.5t-144 74.5q-62 51 -90 122t-28 162q0 21 1.5 42t4.5 48q2 19 3.5 31.5t3.5 23.5t4 22.5t6 29.5l184 942h295l-199 -1016q0 -3 -1 -6q-4 -23 -5.5 -40t-1.5 -31q0 -79 46 -124t132 -45q52 0 95.5 15t75.5 46q64 61 89 185l199 1016h295l-185 -942 q-17 -85 -34 -150.5t-41 -121.5q-21 -49 -46.5 -86.5t-57.5 -69.5q-76 -74 -179 -113q-52 -20 -109 -29.5t-123 -9.5z" />
<glyph unicode="&#xdd;" d="M868 1852h281l-320 -264h-207zM432 588l-287 905h293l187 -649l411 649h322l-633 -905l-115 -588h-293z" />
<glyph unicode="&#xde;" d="M307 1493h295l-47 -227h127q235 0 360 -92q63 -47 93 -114t30 -158q0 -51 -9 -107t-27 -112q-19 -58 -42.5 -100.5t-52.5 -76.5q-44 -52 -91.5 -82t-102.5 -50q-59 -21 -130.5 -31.5t-170.5 -10.5h-164l-64 -332h-295zM569 580q147 0 217 67q36 34 54 83.5t18 112.5 q0 55 -13 87t-39 50q-26 19 -68.5 28.5t-106.5 9.5h-121l-86 -438h145z" />
<glyph unicode="&#xdf;" d="M666 -29q-40 0 -70 3.5t-61 9.5q-39 8 -67.5 16t-61.5 20l49 250q29 -16 57 -27.5t55 -19.5q51 -16 102 -16q42 0 77.5 10t61.5 30t39 46t13 54q0 41 -27.5 84.5t-83.5 99.5l-6 6l-69 71q-45 46 -65 97q-21 51 -21 112q0 132 92 227q91 93 260 130v16q0 29 -10.5 55 t-34.5 45q-46 35 -125 35q-95 0 -152 -51t-77 -152l-219 -1122h-293l219 1126q21 109 64 188.5t109 134.5q131 110 346 110q97 0 170.5 -21.5t122.5 -65.5t73 -109.5t24 -147.5q0 -29 -3 -64t-8 -86l-1 -6q-73 -4 -128 -19.5t-91 -38.5t-57 -56t-21 -70q0 -33 21.5 -70 t74.5 -90l82 -82q59 -60 88 -121q14 -29 21.5 -62t7.5 -76q0 -86 -32 -161t-96 -131q-128 -111 -349 -111z" />
<glyph unicode="&#xe0;" d="M402 1673h284l209 -376h-198zM379 -29q-75 0 -137 21t-107 66q-47 46 -67.5 108t-20.5 134q0 102 39 184.5t117 139.5q155 113 448 113h193l8 49q2 10 2 12v17q0 57 -51 87t-146 30q-85 0 -187 -28q-50 -14 -103.5 -34.5t-118.5 -50.5l47 250q115 40 214 59 q51 10 98 14.5t98 4.5q104 0 185.5 -19t138.5 -57q60 -40 86 -96.5t26 -129.5q0 -18 -1.5 -39.5t-5.5 -49.5q-4 -29 -8 -53.5t-12 -63.5l-123 -639h-262l-4 125q-70 -79 -153 -115q-44 -20 -93 -29.5t-100 -9.5zM501 172q54 0 103.5 23t89.5 70q38 44 66.5 110t42.5 155 h-113q-173 0 -255 -52q-42 -26 -62.5 -66t-20.5 -91q0 -36 10.5 -62t30.5 -46t45.5 -30.5t62.5 -10.5z" />
<glyph unicode="&#xe1;" d="M918 1673h321l-442 -376h-197zM379 -29q-75 0 -137 21t-107 66q-47 46 -67.5 108t-20.5 134q0 102 39 184.5t117 139.5q155 113 448 113h193l8 49q2 10 2 12v17q0 57 -51 87t-146 30q-85 0 -187 -28q-50 -14 -103.5 -34.5t-118.5 -50.5l47 250q115 40 214 59 q51 10 98 14.5t98 4.5q104 0 185.5 -19t138.5 -57q60 -40 86 -96.5t26 -129.5q0 -18 -1.5 -39.5t-5.5 -49.5q-4 -29 -8 -53.5t-12 -63.5l-123 -639h-262l-4 125q-70 -79 -153 -115q-44 -20 -93 -29.5t-100 -9.5zM501 172q54 0 103.5 23t89.5 70q38 44 66.5 110t42.5 155 h-113q-173 0 -255 -52q-42 -26 -62.5 -66t-20.5 -91q0 -36 10.5 -62t30.5 -46t45.5 -30.5t62.5 -10.5z" />
<glyph unicode="&#xe2;" d="M699 1673h243l183 -376h-176l-152 225l-240 -225h-190zM379 -29q-75 0 -137 21t-107 66q-47 46 -67.5 108t-20.5 134q0 102 39 184.5t117 139.5q155 113 448 113h193l8 49q2 10 2 12v17q0 57 -51 87t-146 30q-85 0 -187 -28q-50 -14 -103.5 -34.5t-118.5 -50.5l47 250 q115 40 214 59q51 10 98 14.5t98 4.5q104 0 185.5 -19t138.5 -57q60 -40 86 -96.5t26 -129.5q0 -18 -1.5 -39.5t-5.5 -49.5q-4 -29 -8 -53.5t-12 -63.5l-123 -639h-262l-4 125q-70 -79 -153 -115q-44 -20 -93 -29.5t-100 -9.5zM501 172q54 0 103.5 23t89.5 70 q38 44 66.5 110t42.5 155h-113q-173 0 -255 -52q-42 -26 -62.5 -66t-20.5 -91q0 -36 10.5 -62t30.5 -46t45.5 -30.5t62.5 -10.5z" />
<glyph unicode="&#xe3;" d="M911 1297q-20 0 -35.5 3t-32.5 10t-35 17.5t-38 26.5l-49 37q-3 3 -3 2.5t-2 1.5q-17 13 -35 23t-38 10q-35 0 -60 -34t-36 -95h-139q19 130 87 207q34 38 75 57.5t86 19.5q17 0 35 -3t32 -9t33.5 -19t42.5 -30l51 -39q10 -8 19 -13.5t18 -9.5t17 -6t17 -2q20 0 35.5 9 t27.5 25q25 33 36 95h139q-22 -140 -85 -212t-163 -72zM379 -29q-75 0 -137 21t-107 66q-47 46 -67.5 108t-20.5 134q0 102 39 184.5t117 139.5q155 113 448 113h193l8 49q2 10 2 12v17q0 57 -51 87t-146 30q-85 0 -187 -28q-50 -14 -103.5 -34.5t-118.5 -50.5l47 250 q115 40 214 59q51 10 98 14.5t98 4.5q109 0 189 -19.5t135 -56.5q60 -40 86 -95.5t26 -127.5q0 -18 -1.5 -41t-5.5 -51q-2 -14 -4 -27t-4 -26.5t-5 -29t-7 -34.5l-123 -639h-262l-4 125q-70 -79 -153 -115q-44 -20 -93 -29.5t-100 -9.5zM501 172q54 0 103.5 23t89.5 70 q38 44 66.5 110t42.5 155h-113q-173 0 -255 -52q-42 -26 -62.5 -66t-20.5 -91q0 -36 10.5 -62t30.5 -46t45.5 -30.5t62.5 -10.5z" />
<glyph unicode="&#xe4;" d="M480 1347q-15 0 -22.5 9t-4.5 24l36 186q4 27 32 27h177q27 0 27 -24q0 -6 -1 -9l-37 -186q-5 -27 -32 -27h-175zM875 1347q-15 0 -22.5 9t-4.5 24l36 186q4 27 32 27h178q27 0 27 -24q0 -6 -1 -9l-37 -186q-5 -27 -32 -27h-176zM379 -29q-75 0 -137 21t-107 66 q-47 46 -67.5 108t-20.5 134q0 102 39 184.5t117 139.5q155 113 448 113h193l8 49q2 10 2 12v17q0 57 -51 87t-146 30q-85 0 -187 -28q-50 -14 -103.5 -34.5t-118.5 -50.5l47 250q115 40 214 59q51 10 98 14.5t98 4.5q104 0 185.5 -19t138.5 -57q60 -40 86 -96.5t26 -129.5 q0 -18 -1.5 -39.5t-5.5 -49.5q-4 -29 -8 -53.5t-12 -63.5l-123 -639h-262l-4 125q-70 -79 -153 -115q-44 -20 -93 -29.5t-100 -9.5zM501 172q54 0 103.5 23t89.5 70q38 44 66.5 110t42.5 155h-113q-173 0 -255 -52q-42 -26 -62.5 -66t-20.5 -91q0 -36 10.5 -62t30.5 -46 t45.5 -30.5t62.5 -10.5z" />
<glyph unicode="&#xe5;" d="M778 1249q-57 0 -108.5 21t-93.5 63q-41 42 -61.5 93t-20.5 108q0 63 23.5 115t59.5 88q37 37 88.5 59.5t113.5 22.5q57 0 108.5 -20.5t92.5 -61.5q35 -35 59 -86.5t24 -115.5q0 -63 -23.5 -115.5t-58.5 -87.5q-41 -41 -93.5 -62t-109.5 -21zM779 1403q25 0 49.5 9.5 t44.5 29.5q37 39 37 93q0 53 -39 92q-17 17 -40 27.5t-52 10.5q-55 0 -93 -38q-39 -39 -39 -93q0 -55 38 -93q17 -17 41.5 -27.5t52.5 -10.5zM379 -29q-75 0 -137 21t-107 66q-47 46 -67.5 108t-20.5 134q0 102 39 184.5t117 139.5q155 113 448 113h193l8 49q2 10 2 12v17 q0 57 -51 87t-146 30q-85 0 -187 -28q-50 -14 -103.5 -34.5t-118.5 -50.5l47 250q115 40 214 59q51 10 98 14.5t98 4.5q104 0 185.5 -19t138.5 -57q60 -40 86 -96.5t26 -129.5q0 -18 -1.5 -39.5t-5.5 -49.5q-4 -29 -8 -53.5t-12 -63.5l-123 -639h-262l-4 125 q-70 -79 -153 -115q-44 -20 -93 -29.5t-100 -9.5zM501 172q54 0 103.5 23t89.5 70q38 44 66.5 110t42.5 155h-113q-173 0 -255 -52q-42 -26 -62.5 -66t-20.5 -91q0 -36 10.5 -62t30.5 -46t45.5 -30.5t62.5 -10.5z" />
<glyph unicode="&#xe6;" d="M246 -29q-127 0 -202 79q-38 40 -56.5 92.5t-18.5 124.5q0 92 30.5 169t91.5 137q121 117 325 117h108l11 58q3 17 3.5 21.5t1.5 8.5q1 5 1 12.5v9.5q0 36 -8.5 60t-25.5 40q-35 32 -98 32q-54 0 -122 -25q-37 -14 -75 -32.5t-81 -43.5l47 238q40 20 77.5 34.5t74.5 24.5 q36 10 71.5 14.5t67.5 4.5q84 0 142 -35q30 -18 50 -42t33 -56q53 65 122 99q68 34 154 34q126 0 193 -70q68 -71 68 -204q0 -24 -2 -51t-6 -61q-7 -58 -15 -99.5t-10 -55.5l-22 -129h-451q-3 -19 -6.5 -43t-4.5 -32q-3 -27 -3 -45q0 -42 11.5 -75t31.5 -55q42 -47 113 -47 q54 0 124 29q31 13 65.5 33t67.5 47l-47 -238q-57 -40 -125 -60q-34 -10 -71.5 -15t-74.5 -5q-52 0 -90.5 10.5t-73.5 32.5q-68 44 -99 121q-62 -83 -134 -123q-39 -22 -78.5 -31.5t-84.5 -9.5zM991 688l12 67q4 16 6 34q1 8 1 19.5v25.5q0 50 -20 75q-20 23 -64 23 q-57 0 -91 -42q-19 -23 -33 -57.5t-22 -72.5l-14 -72h225zM296 180q66 0 106 52t61 169l14 78h-74q-98 0 -156 -51q-30 -26 -44.5 -61.5t-14.5 -73.5q0 -28 7.5 -48t21.5 -35q28 -30 79 -30z" />
<glyph unicode="&#xe7;" d="M809 909q-89 0 -158 -33t-118 -90q-54 -63 -80.5 -145t-26.5 -175q0 -69 15 -115.5t46 -78.5t77 -47.5t106 -15.5q38 0 75 6.5t77 19.5q37 12 78.5 30.5t91.5 47.5l-56 -276q-78 -34 -158 -50q-18 -4 -36.5 -6.5t-36.5 -4.5q23 -35 37 -70q18 -47 18 -91 q0 -47 -18.5 -87.5t-56.5 -69.5q-37 -29 -90 -44t-122 -15q-26 0 -53 2t-46 4q-22 3 -37 5.5t-26 5.5t-19 5t-17 4l28 156q22 -8 43 -14.5t41 -11.5q40 -9 77 -9q34 0 60.5 7t43.5 20q36 27 36 76q0 28 -13 61q-5 12 -12 27.5t-17 35.5q-89 6 -166.5 35t-137.5 86 q-69 66 -98.5 156.5t-29.5 197.5q0 71 12 140t35 133.5t57 122.5t79 106q90 97 212.5 147t266.5 50q50 0 98 -5.5t86 -14.5q41 -10 82 -26t79 -38l-53 -268q-60 57 -129 86q-66 28 -146 28z" />
<glyph unicode="&#xe8;" d="M391 1674h284l209 -376h-198zM583 -29q-250 0 -378 118q-66 61 -97.5 148.5t-31.5 200.5q0 137 44 271q23 68 53.5 124t70.5 105q43 52 93.5 91.5t106.5 65.5q54 26 116.5 40t133.5 14q102 0 188 -30t148 -90q58 -56 91.5 -135t33.5 -181q0 -20 -1.5 -50t-4.5 -56 q-2 -20 -8 -60.5t-13 -81.5h-759q-2 -8 -2.5 -16t-1.5 -16l-3 -30q0 -55 18 -90.5t49 -58.5q67 -51 200 -51q52 0 106 7.5t108 23.5q108 31 201 90l-51 -269q-95 -42 -198 -63q-104 -21 -212 -21zM876 684q4 13 6 28q1 7 1 13v12q0 84 -51 134q-50 49 -140 49 q-100 0 -171 -59t-111 -177h466z" />
<glyph unicode="&#xe9;" d="M867 1673h321l-442 -376h-197zM583 -29q-250 0 -378 118q-66 61 -97.5 148.5t-31.5 200.5q0 137 44 271q23 68 53.5 124t70.5 105q43 52 93.5 91.5t106.5 65.5q54 26 116.5 40t133.5 14q102 0 188 -30t148 -90q58 -56 91.5 -135t33.5 -181q0 -20 -1.5 -50t-4.5 -56 q-2 -20 -8 -60.5t-13 -81.5h-759q-2 -8 -2.5 -16t-1.5 -16l-3 -30q0 -55 18 -90.5t49 -58.5q67 -51 200 -51q52 0 106 7.5t108 23.5q108 31 201 90l-51 -269q-95 -42 -198 -63q-104 -21 -212 -21zM876 684q4 13 6 28q1 7 1 13v12q0 84 -51 134q-50 49 -140 49 q-100 0 -171 -59t-111 -177h466z" />
<glyph unicode="&#xea;" d="M668 1673h243l183 -376h-176l-152 225l-240 -225h-190zM583 -29q-250 0 -378 118q-66 61 -97.5 148.5t-31.5 200.5q0 137 44 271q23 68 53.5 124t70.5 105q43 52 93.5 91.5t106.5 65.5q54 26 116.5 40t133.5 14q102 0 188 -30t148 -90q58 -56 91.5 -135t33.5 -181 q0 -20 -1.5 -50t-4.5 -56q-2 -20 -8 -60.5t-13 -81.5h-759q-2 -8 -2.5 -16t-1.5 -16l-3 -30q0 -55 18 -90.5t49 -58.5q67 -51 200 -51q52 0 106 7.5t108 23.5q108 31 201 90l-51 -269q-95 -42 -198 -63q-104 -21 -212 -21zM876 684q4 13 6 28q1 7 1 13v12q0 84 -51 134 q-50 49 -140 49q-100 0 -171 -59t-111 -177h466z" />
<glyph unicode="&#xeb;" d="M439 1349q-15 0 -22.5 9t-4.5 24l36 186q4 27 32 27h177q27 0 27 -26q0 -4 -0.5 -4.5t-0.5 -2.5l-37 -186q-5 -27 -32 -27h-175zM834 1349q-15 0 -22.5 9t-4.5 24l36 186q4 27 32 27h178q27 0 27 -26q0 -4 -0.5 -4.5t-0.5 -2.5l-37 -186q-5 -27 -32 -27h-176zM583 -29 q-250 0 -378 118q-66 61 -97.5 148.5t-31.5 200.5q0 137 44 271q23 68 53.5 124t70.5 105q43 52 93.5 91.5t106.5 65.5q54 26 116.5 40t133.5 14q102 0 188 -30t148 -90q58 -56 91.5 -135t33.5 -181q0 -20 -1.5 -50t-4.5 -56q-2 -20 -8 -60.5t-13 -81.5h-759q-2 -8 -2.5 -16 t-1.5 -16l-3 -30q0 -55 18 -90.5t49 -58.5q67 -51 200 -51q52 0 106 7.5t108 23.5q108 31 201 90l-51 -269q-95 -42 -198 -63q-104 -21 -212 -21zM876 684q4 13 6 28q1 7 1 13v12q0 84 -51 134q-50 49 -140 49q-100 0 -171 -59t-111 -177h466z" />
<glyph unicode="&#xec;" d="M306 1648h284l209 -376h-198zM737 -8q-107 0 -177 14t-113 43q-47 31 -66 76.5t-19 103.5q0 17 1.5 31.5t3.5 31.5q2 18 5.5 37.5t8.5 41.5l120 524h-236l43 225h528l-166 -763q-3 -12 -4 -17.5t-1 -8.5v-4.5t-1 -5.5q-2 -8 -2.5 -14t-0.5 -12q0 -17 7 -32.5t24 -26.5 q31 -19 109 -19h278l-45 -225h-297z" />
<glyph unicode="&#xed;" d="M862 1648h321l-442 -376h-197zM697 -8q-107 0 -177 14t-113 43q-47 31 -66 76.5t-19 103.5q0 17 1.5 31.5t3.5 31.5q2 18 5.5 37.5t8.5 41.5l120 524h-236l43 225h528l-166 -763q-3 -12 -4 -17.5t-1 -8.5v-4.5t-1 -5.5q-2 -8 -2.5 -14t-0.5 -12q0 -17 7 -32.5t24 -26.5 q31 -19 109 -19h278l-45 -225h-297z" />
<glyph unicode="&#xee;" d="M596 1673h243l183 -376h-176l-152 225l-240 -225h-190zM700 -8q-107 0 -177 14t-113 43q-47 31 -66 76.5t-19 103.5q0 17 1.5 31.5t3.5 31.5q2 18 5.5 37.5t8.5 41.5l120 524h-236l43 225h528l-166 -763q-3 -12 -4 -17.5t-1 -8.5v-4.5t-1 -5.5q-2 -8 -2.5 -14t-0.5 -12 q0 -17 7 -32.5t24 -26.5q31 -19 109 -19h278l-45 -225h-297z" />
<glyph unicode="&#xef;" d="M395 1320q-15 0 -22.5 9t-4.5 24l36 186q4 27 32 27h177q14 0 18 -6.5t8 -17.5q1 -5 0 -9l-37 -186q-5 -27 -32 -27h-175zM790 1320q-15 0 -22.5 9t-4.5 24l36 186q4 27 32 27h178q14 0 18 -6.5t8 -17.5q1 -5 0 -9l-37 -186q-5 -27 -32 -27h-176zM718 -8q-107 0 -177 14 t-113 43q-47 31 -66 76.5t-19 103.5q0 17 1.5 31.5t3.5 31.5q2 18 5.5 37.5t8.5 41.5l120 524h-236l43 225h528l-166 -763q-3 -12 -4 -17.5t-1 -8.5v-4.5t-1 -5.5q-2 -8 -2.5 -14t-0.5 -12q0 -17 7 -32.5t24 -26.5q31 -19 109 -19h278l-45 -225h-297z" />
<glyph unicode="&#xf0;" d="M538 -29q-112 0 -195.5 30.5t-140.5 84.5q-63 60 -91.5 143.5t-28.5 190.5q0 129 39.5 245.5t119.5 207.5q74 84 176.5 132t233.5 48q42 0 75 -6q17 -3 32.5 -7.5t29.5 -11.5q-6 15 -10.5 25t-10 22t-13.5 28l-21 42q-23 44 -35 65.5t-20 32.5l-330 -123l-41 115l307 115 l-125 206h279l74 -120l323 118l41 -112l-303 -113q120 -182 179 -349q29 -81 44 -163t15 -171q0 -144 -41 -269t-123 -219q-78 -90 -188 -138.5t-251 -48.5zM560 207q60 0 113 31t94 94q39 60 60 143.5t21 176.5q0 17 -0.5 36t-1.5 30q-1 8 -3.5 27t-4.5 33q-19 11 -40 18.5 t-39 12.5q-20 5 -42.5 7.5t-40.5 2.5q-68 0 -122.5 -29t-93.5 -80q-43 -57 -64 -128.5t-21 -144.5q0 -60 13 -101.5t36 -68.5q22 -26 56 -43t80 -17z" />
<glyph unicode="&#xf1;" d="M880 1297q-20 0 -35.5 3t-32.5 10t-35 17.5t-38 26.5l-49 37q-3 3 -3 2.5t-2 1.5q-17 13 -35 23t-38 10q-35 0 -60 -34t-36 -95h-139q19 130 87 207q34 38 75 57.5t86 19.5q17 0 35 -3t32 -9t33.5 -19t42.5 -30l51 -39q10 -8 19 -13.5t18 -9.5t17 -6t17 -2q20 0 35.5 9 t27.5 25q25 33 36 95h139q-22 -140 -85 -212t-163 -72zM276 1120h264l-3 -168q25 48 59 84t73 60q82 51 188 51q61 0 110 -17t84 -52q33 -33 51 -82t18 -116q0 -14 -1 -31t-3 -36q-2 -12 -5.5 -37t-8.5 -48l-141 -728h-293l133 682q1 4 2 12.5t2.5 17t2.5 15.5t1 8 q1 13 1.5 26t0.5 23q0 29 -6.5 52.5t-22.5 40.5q-29 30 -83 30q-83 0 -141 -72q-60 -73 -85 -206l-121 -629h-293z" />
<glyph unicode="&#xf2;" d="M371 1673h284l209 -376h-198zM543 -29q-114 0 -197.5 33.5t-137.5 86.5q-64 63 -92 151t-28 200q0 142 41.5 274t124.5 233q80 97 190 148.5t245 51.5q100 0 187 -29.5t149 -89.5q63 -62 91.5 -151t28.5 -203q0 -145 -42 -276t-123 -229q-85 -103 -196.5 -151.5 t-240.5 -48.5zM563 207q58 0 110 33.5t94 102.5q38 63 60.5 148t22.5 181q0 69 -12 111.5t-34 69.5q-26 32 -61 45t-71 13q-124 0 -206 -135q-21 -36 -37 -76.5t-26 -83t-15 -85.5t-5 -83q0 -53 10 -100t38 -81q21 -26 54 -43t78 -17z" />
<glyph unicode="&#xf3;" d="M887 1673h321l-442 -376h-197zM543 -29q-114 0 -197.5 33.5t-137.5 86.5q-64 63 -92 151t-28 200q0 142 41.5 274t124.5 233q80 97 190 148.5t245 51.5q100 0 187 -29.5t149 -89.5q63 -62 91.5 -151t28.5 -203q0 -145 -42 -276t-123 -229q-85 -103 -196.5 -151.5 t-240.5 -48.5zM563 207q58 0 110 33.5t94 102.5q38 63 60.5 148t22.5 181q0 69 -12 111.5t-34 69.5q-26 32 -61 45t-71 13q-124 0 -206 -135q-21 -36 -37 -76.5t-26 -83t-15 -85.5t-5 -83q0 -53 10 -100t38 -81q21 -26 54 -43t78 -17z" />
<glyph unicode="&#xf4;" d="M668 1675h243l183 -376h-176l-152 225l-240 -225h-190zM543 -29q-114 0 -197.5 33.5t-137.5 86.5q-64 63 -92 151t-28 200q0 142 41.5 274t124.5 233q80 97 190 148.5t245 51.5q100 0 187 -29.5t149 -89.5q63 -62 91.5 -151t28.5 -203q0 -145 -42 -276t-123 -229 q-85 -103 -196.5 -151.5t-240.5 -48.5zM563 207q58 0 110 33.5t94 102.5q38 63 60.5 148t22.5 181q0 69 -12 111.5t-34 69.5q-26 32 -61 45t-71 13q-124 0 -206 -135q-21 -36 -37 -76.5t-26 -83t-15 -85.5t-5 -83q0 -53 10 -100t38 -81q21 -26 54 -43t78 -17z" />
<glyph unicode="&#xf5;" d="M880 1299q-20 0 -35.5 3t-32.5 10t-35 17.5t-38 26.5l-49 37q-3 3 -3 2.5t-2 1.5q-17 13 -35 23t-38 10q-35 0 -60 -34t-36 -95h-139q19 130 87 207q34 38 75 57.5t86 19.5q17 0 35 -3t32 -9t33.5 -19t42.5 -30l51 -39q10 -8 19 -13.5t18 -9.5t17 -6t17 -2q20 0 35.5 9 t27.5 25q25 33 36 95h139q-22 -140 -85 -212t-163 -72zM543 -29q-114 0 -197.5 33.5t-137.5 86.5q-64 63 -92 151t-28 200q0 142 41.5 274t124.5 233q80 97 190 148.5t245 51.5q100 0 187 -29.5t149 -89.5q63 -62 91.5 -151t28.5 -203q0 -145 -42 -276t-123 -229 q-85 -103 -196.5 -151.5t-240.5 -48.5zM563 207q58 0 110 33.5t94 102.5q38 63 60.5 148t22.5 181q0 69 -12 111.5t-34 69.5q-26 32 -61 45t-71 13q-124 0 -206 -135q-21 -36 -37 -76.5t-26 -83t-15 -85.5t-5 -83q0 -53 10 -100t38 -81q21 -26 54 -43t78 -17z" />
<glyph unicode="&#xf6;" d="M449 1349q-15 0 -22.5 9t-4.5 24l36 186q4 27 32 27h177q27 0 27 -26q0 -4 -0.5 -4.5t-0.5 -2.5l-37 -186q-5 -27 -32 -27h-175zM844 1349q-15 0 -22.5 9t-4.5 24l36 186q4 27 32 27h178q27 0 27 -26q0 -4 -0.5 -4.5t-0.5 -2.5l-37 -186q-5 -27 -32 -27h-176zM543 -29 q-114 0 -197.5 33.5t-137.5 86.5q-64 63 -92 151t-28 200q0 142 41.5 274t124.5 233q80 97 190 148.5t245 51.5q100 0 187 -29.5t149 -89.5q63 -62 91.5 -151t28.5 -203q0 -145 -42 -276t-123 -229q-85 -103 -196.5 -151.5t-240.5 -48.5zM563 207q58 0 110 33.5t94 102.5 q38 63 60.5 148t22.5 181q0 69 -12 111.5t-34 69.5q-26 32 -61 45t-71 13q-124 0 -206 -135q-21 -36 -37 -76.5t-26 -83t-15 -85.5t-5 -83q0 -53 10 -100t38 -81q21 -26 54 -43t78 -17z" />
<glyph unicode="&#xf7;" d="M461 1198h309v-309h-309v309zM66 762h1099v-238h-1099v238zM461 395h309v-309h-309v309z" />
<glyph unicode="&#xf8;" d="M-82 2l211 207q-11 27 -17.5 49t-12.5 50q-5 26 -8 53.5t-3 68.5q0 153 42 287t123 233q83 100 194.5 149.5t240.5 49.5q45 0 88 -6t82 -19q76 -25 143 -75l193 186l117 -121l-207 -201q10 -25 18 -50.5t13 -52.5q5 -28 7.5 -53.5t2.5 -60.5q0 -155 -41.5 -290.5 t-123.5 -235.5q-79 -96 -189.5 -147.5t-249.5 -51.5q-47 0 -90 6t-81 19q-76 25 -137 76l-198 -189zM801 856q-26 29 -56 42t-71 13q-63 0 -110.5 -29.5t-85.5 -88.5q-39 -61 -62 -145t-33 -195zM562 207q120 0 196 121q39 63 61.5 147.5t30.5 194.5l-416 -404 q14 -17 26.5 -26.5t29.5 -17.5q31 -15 72 -15z" />
<glyph unicode="&#xf9;" d="M381 1648h284l209 -376h-198zM370 -29q-61 0 -110.5 18t-84.5 53q-69 70 -69 202q0 14 1 30t3 34q2 12 5 36t8 47l143 729h291l-131 -684q-2 -11 -3.5 -24t-3.5 -29t-2.5 -26t-0.5 -21q0 -35 7.5 -56t21.5 -37q13 -14 32.5 -23t51.5 -9q44 0 78 18t61 53q58 74 84 207 l122 631h291l-217 -1120h-264l4 166q-24 -51 -60 -86.5t-68 -55.5q-47 -29 -95 -41t-95 -12z" />
<glyph unicode="&#xfa;" d="M897 1648h321l-442 -376h-197zM370 -29q-61 0 -110.5 18t-84.5 53q-69 70 -69 202q0 14 1 30t3 34q2 12 5 36t8 47l143 729h291l-131 -684q-2 -11 -3.5 -24t-3.5 -29t-2.5 -26t-0.5 -21q0 -35 7.5 -56t21.5 -37q13 -14 32.5 -23t51.5 -9q44 0 78 18t61 53q58 74 84 207 l122 631h291l-217 -1120h-264l4 166q-24 -51 -60 -86.5t-68 -55.5q-47 -29 -95 -41t-95 -12z" />
<glyph unicode="&#xfb;" d="M678 1648h243l183 -376h-176l-152 225l-240 -225h-190zM370 -29q-61 0 -110.5 18t-84.5 53q-69 70 -69 202q0 14 1 30t3 34q2 12 5 36t8 47l143 729h291l-131 -684q-2 -11 -3.5 -24t-3.5 -29t-2.5 -26t-0.5 -21q0 -35 7.5 -56t21.5 -37q13 -14 32.5 -23t51.5 -9 q44 0 78 18t61 53q58 74 84 207l122 631h291l-217 -1120h-264l4 166q-24 -51 -60 -86.5t-68 -55.5q-47 -29 -95 -41t-95 -12z" />
<glyph unicode="&#xfc;" d="M459 1320q-15 0 -22.5 9t-4.5 24l36 186q4 27 32 27h177q27 0 27 -24q0 -6 -1 -9l-37 -186q-5 -27 -32 -27h-175zM854 1320q-15 0 -22.5 9t-4.5 24l36 186q4 27 32 27h178q27 0 27 -24q0 -6 -1 -9l-37 -186q-5 -27 -32 -27h-176zM370 -29q-61 0 -110.5 18t-84.5 53 q-69 70 -69 202q0 14 1 30t3 34q2 12 5 36t8 47l143 729h291l-131 -684q-2 -11 -3.5 -24t-3.5 -29t-2.5 -26t-0.5 -21q0 -35 7.5 -56t21.5 -37q13 -14 32.5 -23t51.5 -9q44 0 78 18t61 53q58 74 84 207l122 631h291l-217 -1120h-264l4 166q-24 -51 -60 -86.5t-68 -55.5 q-47 -29 -95 -41t-95 -12z" />
<glyph unicode="&#xfd;" d="M922 1648h321l-442 -376h-197zM-20 -201h117q90 0 137 30q24 15 52 50t58 92l39 74l-217 1075h297l127 -700l383 700h309l-706 -1241q-56 -98 -103 -160t-90 -91q-38 -26 -91.5 -39t-116.5 -13h-240z" />
<glyph unicode="&#xfe;" d="M348 1556h293l-117 -604q70 97 153 147q39 23 83.5 35.5t93.5 12.5q145 0 230 -109q43 -55 64 -129.5t21 -174.5q0 -60 -7.5 -124t-23.5 -130t-38.5 -126t-48.5 -110q-69 -129 -174 -201t-223 -72q-110 0 -183 62t-92 174l-123 -633h-293zM601 209q60 0 109 39t84 102 q38 69 59 156.5t21 176.5q0 60 -10 100t-31 68q-42 56 -115 56q-56 0 -107 -34.5t-92 -103.5q-40 -68 -61.5 -153t-21.5 -172q0 -55 10 -99t34 -76q21 -28 52 -44t69 -16z" />
<glyph unicode="&#xff;" d="M484 1320q-15 0 -22.5 9t-4.5 24l36 186q4 27 32 27h177q27 0 27 -24q0 -6 -0.5 -6.5t-0.5 -2.5l-37 -186q-5 -27 -32 -27h-175zM879 1320q-15 0 -22.5 9t-4.5 24l36 186q4 27 32 27h178q27 0 27 -24q0 -6 -0.5 -6.5t-0.5 -2.5l-37 -186q-5 -27 -32 -27h-176zM-20 -201 h117q90 0 137 30q24 15 52 50t58 92l39 74l-217 1075h297l127 -700l383 700h309l-706 -1241q-56 -98 -103 -160t-90 -91q-38 -26 -91.5 -39t-116.5 -13h-240z" />
<glyph unicode="&#x100;" d="M519 1850h631l-36 -188h-631zM582 1493h360l113 -1493h-293l-14 369h-400l-162 -369h-299zM737 612l-20 607l-264 -607h284z" />
<glyph unicode="&#x101;" d="M459 1535h631l-37 -188h-631zM381 -29q-78 0 -139.5 22t-105 64t-66.5 103.5t-23 141.5q0 103 39.5 184t116 137t189 85t259.5 29h193l8 49q1 6 1.5 11.5t0.5 13.5q0 60 -50 90.5t-143 30.5q-88 0 -189.5 -27.5t-223.5 -85.5l47 250q63 21 117.5 36t105 24.5t97.5 13.5 t94 4q209 0 320.5 -76t111.5 -226q0 -40 -7.5 -92t-19.5 -114l-123 -639h-252l-14 125q-67 -78 -154.5 -116t-189.5 -38zM504 172q54 0 102.5 24t87.5 70t67 112.5t42 151.5h-113q-168 0 -253 -51t-85 -154q0 -72 40 -112.5t112 -40.5z" />
<glyph unicode="&#x102;" d="M796 1588q-142 0 -215 67t-73 193v4h143q8 -54 47 -84.5t118 -30.5q78 0 129.5 29.5t76.5 85.5h154q-20 -66 -56.5 -115.5t-85.5 -82.5t-109.5 -49.5t-128.5 -16.5zM582 1493h360l113 -1493h-293l-14 369h-400l-162 -369h-299zM737 612l-20 607l-264 -607h284z" />
<glyph unicode="&#x103;" d="M736 1297q-143 0 -216.5 65t-73.5 199v33h144v-13q0 -61 44 -97t122 -36q79 0 137.5 38.5t83.5 107.5h143q-29 -139 -125.5 -218t-258.5 -79zM381 -29q-78 0 -139.5 22t-105 64t-66.5 103.5t-23 141.5q0 103 39.5 184t116 137t189 85t259.5 29h193l8 49q1 6 1.5 11.5 t0.5 13.5q0 60 -50 90.5t-143 30.5q-88 0 -189.5 -27.5t-223.5 -85.5l47 250q63 21 117.5 36t105 24.5t97.5 13.5t94 4q209 0 320.5 -76t111.5 -226q0 -40 -7.5 -92t-19.5 -114l-123 -639h-262l-4 125q-67 -78 -154.5 -116t-189.5 -38zM504 172q54 0 102.5 24t87.5 70 t67 112.5t42 151.5h-113q-168 0 -253 -51t-85 -154q0 -72 40 -112.5t112 -40.5z" />
<glyph unicode="&#x104;" d="M785 -182q0 -29 24 -50.5t76 -21.5q27 0 68 7t88 24l-31 -156q-49 -11 -95 -16.5t-84 -5.5q-103 0 -161.5 37.5t-58.5 108.5q0 54 37.5 119t118.5 136h-5l-14 369h-400l-162 -369h-299l695 1493h360l113 -1493h-147q-75 -80 -99 -117q-12 -19 -18 -34.5t-6 -30.5z M737 612l-20 607l-264 -607h284z" />
<glyph unicode="&#x105;" d="M709 1147q209 0 320.5 -76t111.5 -226q0 -40 -7.5 -92t-19.5 -114l-123 -639h-150q-75 -80 -99 -117q-12 -19 -18 -34.5t-6 -30.5q0 -29 24 -50.5t76 -21.5q27 0 68 7t88 24l-31 -156q-49 -11 -95 -16.5t-84 -5.5q-103 0 -161.5 37.5t-58.5 108.5q0 54 37.5 119 t118.5 136l25 125q-67 -78 -154.5 -116t-189.5 -38q-78 0 -139.5 22t-105 64t-66.5 103.5t-23 141.5q0 103 39.5 184t116 137t189 85t259.5 29h193l8 49q1 6 1.5 11.5t0.5 13.5q0 60 -50 90.5t-143 30.5q-88 0 -189.5 -27.5t-223.5 -85.5l47 250q63 21 117.5 36t105 24.5 t97.5 13.5t94 4zM504 172q54 0 102.5 24t87.5 70t67 112.5t42 151.5h-113q-168 0 -253 -51t-85 -154q0 -72 40 -112.5t112 -40.5z" />
<glyph unicode="&#x106;" d="M978 1852h281l-320 -264h-207zM598 -29q-110 0 -205.5 33t-161.5 104q-67 72 -96.5 176t-29.5 233q0 102 17.5 212t53.5 219q35 105 82.5 192t108.5 156q48 54 104 96t123 71q66 29 137.5 43t147.5 14q42 0 80.5 -4.5t78.5 -13.5q32 -8 73 -21t82 -33l-64 -328 q-50 69 -122 103q-37 17 -77.5 25.5t-76.5 8.5q-41 0 -82.5 -11t-81.5 -36q-42 -26 -74.5 -62.5t-56.5 -73.5q-35 -54 -62.5 -117t-48.5 -138q-23 -81 -33 -151.5t-10 -130.5q0 -71 14.5 -129t48.5 -100q63 -77 184 -77q78 0 159 34q43 18 85.5 44.5t88.5 61.5l-64 -328 q-40 -19 -80 -32.5t-77 -21.5q-81 -18 -165 -18z" />
<glyph unicode="&#x107;" d="M948 1673h321l-442 -376h-197zM611 -29q-105 0 -197 28.5t-161 94.5t-98.5 156.5t-29.5 197.5q0 71 12 140t35 133.5t57 122.5t79 106q90 97 212.5 147t266.5 50q50 0 98 -5.5t86 -14.5q41 -10 82 -26t79 -38l-53 -268q-60 57 -129 86q-66 28 -146 28q-89 0 -158 -33 t-118 -90q-54 -63 -80.5 -145t-26.5 -175q0 -69 15 -115.5t46 -78.5t77 -47.5t106 -15.5q38 0 75 6.5t77 19.5q37 12 78.5 30.5t91.5 47.5l-56 -276q-78 -34 -158 -50q-42 -8 -82.5 -12t-79.5 -4z" />
<glyph unicode="&#x10a;" d="M763 1607q-16 0 -23 9t-4 24l37 186q4 27 32 27h215q16 0 23 -9t4 -24l-37 -186q-5 -27 -32 -27h-215zM596 -29q-238 0 -364 136.5t-126 414.5q0 106 18.5 214.5t52.5 210t82.5 191t108.5 158.5q97 111 226.5 167.5t281.5 56.5q85 0 162.5 -18t155.5 -54l-64 -328 q-24 33 -55 59t-66.5 43t-74 26t-77.5 9q-94 0 -168.5 -48.5t-129.5 -133.5q-34 -52 -62 -118t-48.5 -137.5t-32 -144.5t-11.5 -139q0 -153 63 -229t184 -76q78 0 158.5 33.5t174.5 106.5l-64 -328q-78 -36 -157.5 -54t-167.5 -18z" />
<glyph unicode="&#x10b;" d="M677 1347q-16 0 -22.5 9t-3.5 24l37 186q4 27 32 27h212q15 0 22.5 -9t4.5 -24l-36 -186q-5 -27 -32 -27h-214zM608 -29q-113 0 -202.5 30.5t-152 91.5t-95.5 152t-33 212q0 147 48 273t136 218.5t211.5 145.5t274.5 53q91 0 176 -20.5t161 -63.5l-53 -268 q-120 114 -274 114q-86 0 -156.5 -33t-121 -91.5t-78.5 -138.5t-28 -174q0 -136 59.5 -199.5t180.5 -63.5q74 0 151.5 24.5t174.5 79.5l-56 -276q-155 -66 -323 -66z" />
<glyph unicode="&#x10c;" d="M507 1853h170l149 -162l229 162h181l-244 -264h-348zM598 -29q-110 0 -205.5 33t-161.5 104q-67 72 -96.5 176t-29.5 233q0 102 17.5 212t53.5 219q35 105 82.5 192t108.5 156q48 54 104 96t123 71q66 29 137.5 43t147.5 14q42 0 80.5 -4.5t78.5 -13.5q32 -8 73 -21 t82 -33l-64 -328q-50 69 -122 103q-37 17 -77.5 25.5t-76.5 8.5q-41 0 -82.5 -11t-81.5 -36q-42 -26 -74.5 -62.5t-56.5 -73.5q-35 -54 -62.5 -117t-48.5 -138q-23 -81 -33 -151.5t-10 -130.5q0 -71 14.5 -129t48.5 -100q63 -77 184 -77q78 0 159 34q43 18 85.5 44.5 t88.5 61.5l-64 -328q-40 -19 -80 -32.5t-77 -21.5q-81 -18 -165 -18z" />
<glyph unicode="&#x10d;" d="M475 1673h174l153 -227l238 227h190l-331 -376h-242zM611 -29q-105 0 -197 28.5t-161 94.5t-98.5 156.5t-29.5 197.5q0 71 12 140t35 133.5t57 122.5t79 106q90 97 212.5 147t266.5 50q50 0 98 -5.5t86 -14.5q41 -10 82 -26t79 -38l-53 -268q-60 57 -129 86 q-66 28 -146 28q-89 0 -158 -33t-118 -90q-54 -63 -80.5 -145t-26.5 -175q0 -69 15 -115.5t46 -78.5t77 -47.5t106 -15.5q38 0 75 6.5t77 19.5q37 12 78.5 30.5t91.5 47.5l-56 -276q-78 -34 -158 -50q-42 -8 -82.5 -12t-79.5 -4z" />
<glyph unicode="&#x10e;" d="M383 1853h170l149 -162l229 162h181l-244 -264h-348zM283 1493h315q287 0 427 -123.5t140 -375.5q0 -79 -13.5 -179.5t-41.5 -212.5q-20 -81 -43 -146t-49 -116.5t-56 -92.5t-65 -75q-47 -46 -101.5 -78.5t-123.5 -53.5t-155 -30.5t-195 -9.5h-330zM434 266 q115 0 189 43.5t120 132.5q24 46 45 110t37 134.5t25.5 140.5t9.5 129q0 140 -60.5 205.5t-193.5 65.5h-82l-186 -961h96z" />
<glyph unicode="&#x10f;" d="M382 -29q-73 0 -131.5 28t-99.5 81.5t-63 132t-22 180.5q0 64 8.5 129t24.5 127t38 119t48 105q73 136 175 206t219 70q58 0 105.5 -17t83 -48.5t57.5 -75t29 -97.5l125 645h293l-303 -1556h-262l2 166q-66 -97 -148 -146t-179 -49zM1333 1556h321l-257 -376h-197z M513 211q63 0 115.5 40t90.5 104.5t59 146.5t21 165q0 123 -44.5 182.5t-115.5 59.5q-63 0 -114 -42t-87.5 -108.5t-56 -150t-19.5 -165.5q0 -121 41 -176.5t110 -55.5z" />
<glyph unicode="&#x110;" d="M121 664h-137l47 237h135l117 592h315q287 0 427 -123.5t140 -375.5q0 -79 -13.5 -179.5t-41.5 -212.5q-20 -81 -43 -146t-49 -116.5t-56 -92.5t-65 -75q-47 -46 -101.5 -78.5t-123.5 -53.5t-155 -30.5t-195 -9.5h-330zM434 266q115 0 189 43.5t120 132.5q24 46 45 110 t37 134.5t25.5 140.5t9.5 129q0 140 -60.5 205.5t-193.5 65.5h-82l-63 -326h211l-45 -237h-211l-78 -398h96z" />
<glyph unicode="&#x111;" d="M382 -29q-144 0 -230 110q-43 55 -64.5 129.5t-21.5 175.5q0 60 7.5 124t23.5 129t39 126.5t48 108.5q32 61 76 112.5t98 89.5q104 73 223 73q111 0 185 -63q34 -29 57 -73t31 -102l66 340h-304l37 189h303l23 116h293l-23 -116h146l-37 -189h-146l-243 -1251h-262l2 166 q-66 -96 -148 -145q-83 -50 -179 -50zM517 211q57 0 107 34.5t92 104.5t62.5 153t20.5 171q0 66 -11.5 106.5t-33.5 69.5q-45 59 -120 59q-113 0 -192 -141q-40 -72 -60 -158t-20 -174q0 -64 10.5 -102.5t31.5 -66.5q42 -56 113 -56z" />
<glyph unicode="&#x112;" d="M540 1850h631l-36 -188h-631zM317 1493h932l-51 -260h-635l-63 -322h575l-49 -260h-575l-76 -391h635l-52 -260h-929z" />
<glyph unicode="&#x113;" d="M468 1537h631l-37 -188h-631zM586 -29q-253 0 -381.5 117t-128.5 352q0 68 11 135.5t32 131.5t52.5 122.5t72.5 108.5q85 103 200 157t252 54q104 0 188.5 -31.5t144.5 -89t93 -139t33 -181.5q0 -42 -6.5 -100.5t-20.5 -142.5h-759q-3 -17 -4.5 -32t-2.5 -30 q0 -200 268 -200q106 0 213 30.5t201 90.5l-51 -269q-96 -42 -198.5 -63t-208.5 -21zM876 684q7 27 7 55q0 84 -51 132.5t-143 48.5q-97 0 -168 -59t-111 -177h466z" />
<glyph unicode="&#x116;" d="M709 1606q-16 0 -23 9t-4 24l37 186q4 27 32 27h215q16 0 23 -9t4 -24l-37 -186q-5 -27 -32 -27h-215zM317 1493h932l-51 -260h-635l-63 -322h575l-49 -260h-575l-76 -391h635l-52 -260h-929z" />
<glyph unicode="&#x117;" d="M636 1349q-16 0 -22.5 9t-3.5 24l37 186q4 27 32 27h212q15 0 22.5 -9t4.5 -24l-36 -186q-5 -27 -32 -27h-214zM586 -29q-253 0 -381.5 117t-128.5 352q0 68 11 135.5t32 131.5t52.5 122.5t72.5 108.5q85 103 200 157t252 54q104 0 188.5 -31.5t144.5 -89t93 -139 t33 -181.5q0 -42 -6.5 -100.5t-20.5 -142.5h-759q-3 -17 -4.5 -32t-2.5 -30q0 -200 268 -200q106 0 213 30.5t201 90.5l-51 -269q-96 -42 -198.5 -63t-208.5 -21zM876 684q7 27 7 55q0 84 -51 132.5t-143 48.5q-97 0 -168 -59t-111 -177h466z" />
<glyph unicode="&#x118;" d="M563 1233l-63 -322h575l-49 -260h-575l-76 -391h635l-52 -260h-130q-75 -80 -99 -117q-12 -19 -18 -34.5t-6 -30.5q0 -29 24 -50.5t76 -21.5q27 0 68 7t88 24l-31 -156q-49 -11 -95 -16.5t-84 -5.5q-103 0 -161.5 37.5t-58.5 108.5q0 54 37.5 119t118.5 136h-658 l288 1493h932l-51 -260h-635z" />
<glyph unicode="&#x119;" d="M369 465q-3 -17 -4.5 -32t-2.5 -30q0 -200 268 -200q106 0 213 30.5t201 90.5l-51 -269q-40 -17 -81 -31t-83 -24q-75 -80 -99 -117q-12 -19 -18 -34.5t-6 -30.5q0 -29 24 -50.5t76 -21.5q27 0 68 7t88 24l-31 -156q-49 -11 -95 -16.5t-84 -5.5q-103 0 -161.5 37.5 t-58.5 108.5q0 49 30.5 107t96.5 122q-36 -3 -73 -3q-253 0 -381.5 117t-128.5 352q0 68 11 135.5t32 131.5t52.5 122.5t72.5 108.5q85 103 200 157t252 54q104 0 188.5 -31.5t144.5 -89t93 -139t33 -181.5q0 -42 -6.5 -100.5t-20.5 -142.5h-759zM689 920q-97 0 -168 -59 t-111 -177h466q7 27 7 55q0 84 -51 132.5t-143 48.5z" />
<glyph unicode="&#x11a;" d="M509 1852h170l149 -162l229 162h181l-244 -264h-348zM317 1493h932l-51 -260h-635l-63 -322h575l-49 -260h-575l-76 -391h635l-52 -260h-929z" />
<glyph unicode="&#x11b;" d="M410 1673h174l153 -227l238 227h190l-331 -376h-242zM586 -29q-253 0 -381.5 117t-128.5 352q0 68 11 135.5t32 131.5t52.5 122.5t72.5 108.5q85 103 200 157t252 54q104 0 188.5 -31.5t144.5 -89t93 -139t33 -181.5q0 -42 -6.5 -100.5t-20.5 -142.5h-759 q-3 -17 -4.5 -32t-2.5 -30q0 -200 268 -200q106 0 213 30.5t201 90.5l-51 -269q-96 -42 -198.5 -63t-208.5 -21zM876 684q7 27 7 55q0 84 -51 132.5t-143 48.5q-97 0 -168 -59t-111 -177h466z" />
<glyph unicode="&#x11e;" d="M807 1588q-72 0 -123.5 17t-88.5 51q-74 68 -74 192v4h143q10 -60 51 -87q41 -28 117 -28q40 0 70 7.5t57 23.5q54 32 76 84h154q-40 -129 -139 -196q-100 -68 -243 -68zM611 -29q-128 0 -220.5 38t-155.5 106q-70 76 -101.5 181t-31.5 232q0 96 17.5 204.5t54.5 216.5 q32 94 80.5 183t112.5 162q45 51 101.5 94.5t126.5 74.5q130 57 281 57q42 0 81.5 -4.5t79.5 -13.5q32 -8 73 -21t82 -33l-66 -328q-51 67 -120 102q-70 35 -149 35q-39 0 -73 -8t-63 -21q-30 -14 -58.5 -34.5t-57.5 -52.5q-23 -25 -41 -52t-35 -58q-16 -29 -31 -63t-29 -77 q-15 -45 -28 -94.5t-21 -94.5q-17 -94 -17 -169q0 -82 18.5 -136.5t45.5 -87.5q34 -42 80.5 -60t100.5 -18q19 0 34.5 2t32.5 7q12 3 26 8t29 16l57 291h-206l49 248h460l-139 -709q-72 -60 -168 -91q-99 -32 -212 -32z" />
<glyph unicode="&#x11f;" d="M749 1301q-146 0 -219 66q-35 31 -54.5 78.5t-19.5 119.5v33h144v-13q0 -61 44 -97q43 -36 120 -36q81 0 140 39q29 19 49 44.5t34 62.5h143q-14 -71 -45.5 -125t-82.5 -94q-99 -78 -253 -78zM386 -424q-99 0 -190 15q-46 8 -90 19t-88 25l54 265q76 -46 158 -68 q42 -11 83.5 -16.5t82.5 -5.5q66 0 115 14.5t84 43.5q39 32 60 77.5t33 105.5l27 133q-54 -83 -131 -125q-77 -43 -175 -43q-76 0 -137.5 25t-110.5 80q-48 54 -70.5 123t-22.5 163q0 65 10.5 135t31.5 141q23 76 52 137.5t63 111.5q71 103 171 161t206 58q105 0 172 -55 t88 -158l64 182h264l-203 -1036q-26 -135 -72 -233.5t-119 -159.5q-137 -115 -410 -115zM521 246q55 0 106 33.5t93 99.5q42 68 62.5 149.5t20.5 160.5q0 51 -9 93.5t-32 72.5q-20 27 -49 40.5t-64 13.5q-57 0 -108.5 -34.5t-90.5 -97.5q-42 -66 -62.5 -148.5t-20.5 -163.5 q0 -51 9 -93t31 -71q41 -55 114 -55z" />
<glyph unicode="&#x120;" d="M738 1607q-16 0 -23 9t-4 24l37 186q4 27 32 27h215q16 0 23 -9t4 -24l-37 -186q-5 -27 -32 -27h-215zM610 -29q-121 0 -215.5 36.5t-159.5 107.5t-99 176t-34 242q0 102 18.5 208t53 205.5t83.5 189t110 158.5q99 112 228 169t280 57q84 0 161.5 -18t155.5 -54l-66 -328 q-51 67 -120 102t-149 35q-70 0 -134.5 -28t-118.5 -88q-44 -48 -76.5 -111.5t-58.5 -138.5q-15 -43 -27 -89.5t-20.5 -93t-13.5 -91t-5 -84.5q0 -146 63.5 -224t178.5 -78q75 0 125 33l57 291h-206l49 248h460l-139 -709q-70 -60 -168 -91.5t-213 -31.5z" />
<glyph unicode="&#x121;" d="M647 1351q-16 0 -22.5 9t-3.5 24l37 186q4 27 32 27h212q15 0 22.5 -9t4.5 -24l-36 -186q-5 -27 -32 -27h-214zM389 -424q-103 0 -193 15t-178 44l54 265q75 -45 157.5 -67.5t165.5 -22.5q66 0 115.5 14.5t85 44.5t58 75t34.5 107l27 133q-56 -86 -133.5 -127t-172.5 -41 q-78 0 -141 26.5t-107.5 77.5t-68.5 124.5t-24 167.5q0 64 11.5 134.5t32 139t49.5 132t64 114.5q72 104 171 161.5t207 57.5q104 0 171 -55t88 -158l64 182h264l-203 -1036q-27 -138 -73 -235t-118 -157.5t-172 -88t-235 -27.5zM516 246q60 0 112 36.5t91 97.5t61.5 140 t22.5 164q0 115 -40.5 170t-109.5 55q-59 0 -111 -36t-91 -96.5t-61.5 -139.5t-22.5 -166q0 -115 39.5 -170t109.5 -55z" />
<glyph unicode="&#x122;" d="M610 -29q-121 0 -215.5 36.5t-159.5 107.5t-99 176t-34 242q0 102 18.5 208t53 205.5t83.5 189t110 158.5q99 112 228 169t280 57q84 0 161.5 -18t155.5 -54l-66 -328q-51 67 -120 102t-149 35q-70 0 -134.5 -28t-118.5 -88q-44 -48 -76.5 -111.5t-58.5 -138.5 q-15 -43 -27 -89.5t-20.5 -93t-13.5 -91t-5 -84.5q0 -146 63.5 -224t178.5 -78q75 0 125 33l57 291h-206l49 248h460l-139 -709q-70 -60 -168 -91.5t-213 -31.5zM490 -187h282l-236 -306h-194z" />
<glyph unicode="&#x123;" d="M761 1579h194l-148 -306h-282zM389 -424q-103 0 -193 15t-178 44l54 265q75 -45 157.5 -67.5t165.5 -22.5q66 0 115.5 14.5t85 44.5t58 75t34.5 107l27 133q-56 -86 -133.5 -127t-172.5 -41q-78 0 -141 26.5t-107.5 77.5t-68.5 124.5t-24 167.5q0 64 11.5 134.5t32 139 t49.5 132t64 114.5q72 104 171 161.5t207 57.5q104 0 171 -55t88 -158l64 182h264l-203 -1036q-27 -138 -73 -235t-118 -157.5t-172 -88t-235 -27.5zM516 246q60 0 112 36.5t91 97.5t61.5 140t22.5 164q0 115 -40.5 170t-109.5 55q-59 0 -111 -36t-91 -96.5t-61.5 -139.5 t-22.5 -166q0 -115 39.5 -170t109.5 -55z" />
<glyph unicode="&#x126;" d="M207 1105h-134l32 164h134l43 224h295l-43 -224h369l43 224h294l-43 -224h135l-32 -164h-135l-215 -1105h-294l129 664h-369l-129 -664h-295zM836 924l35 181h-369l-35 -181h369z" />
<glyph unicode="&#x127;" d="M268 1270h-160l32 164h160l23 122h291l-23 -122h277l-32 -164h-277l-62 -318q51 96 134 145.5t188 49.5q125 0 193 -69.5t68 -199.5q0 -26 -4 -60t-15 -91l-141 -727h-291l132 682q9 46 11 68t2 34q0 70 -26 102.5t-83 32.5q-88 0 -145.5 -71t-83.5 -207l-124 -641h-291z " />
<glyph unicode="&#x128;" d="M428 1588q25 130 91 198t161 68q38 0 70 -12t67 -39l53 -41q32 -27 70 -27q37 0 63 30.5t37 88.5h137q-26 -124 -89 -195t-163 -71q-35 0 -67 11t-70 40l-49 37q-25 19 -41.5 25.5t-31.5 6.5q-38 0 -64 -30.5t-37 -89.5h-137zM78 260h297l188 973h-297l51 260h889 l-51 -260h-297l-188 -973h297l-52 -260h-888z" />
<glyph unicode="&#x129;" d="M804 1270q-35 0 -67.5 13t-72.5 44l-49 37q-2 2 -5 4q-42 33 -73 33q-34 0 -60 -34.5t-36 -94.5h-139q9 65 31.5 117.5t55 89.5t74 57t89.5 20q17 0 32.5 -3t32 -9.5t35 -18.5t41.5 -30l51 -39q39 -31 70 -31q38 0 64 33t36 96h139q-47 -284 -249 -284zM727 -8 q-107 0 -177 14t-113 43q-47 31 -66 76.5t-19 103.5q0 17 1.5 31.5t3.5 31.5q2 12 5.5 33.5t8.5 45.5l120 524h-236l43 225h528l-166 -763q-3 -12 -4 -17.5t-1 -8v-4.5t-1 -6q-2 -8 -2.5 -14t-0.5 -12q0 -17 7 -32.5t24 -26.5q31 -19 109 -19h278l-45 -225h-297z" />
<glyph unicode="&#x12a;" d="M519 1850h631l-36 -188h-631zM78 260h297l188 973h-297l51 260h889l-51 -260h-297l-188 -973h297l-52 -260h-888z" />
<glyph unicode="&#x12b;" d="M367 1508h631l-37 -188h-631zM717 -8q-107 0 -177 14t-113 43q-47 31 -66 76.5t-19 103.5q0 17 1.5 31.5t3.5 31.5q3 23 6 39.5t8 39.5l120 524h-236l43 225h528l-166 -763q-3 -12 -4 -17.5t-1 -8v-4.5t-1 -6q-2 -8 -2.5 -14t-0.5 -12q0 -17 7 -32.5t24 -26.5 q31 -19 109 -19h278l-45 -225h-297z" />
<glyph unicode="&#x12e;" d="M858 1233l-188 -973h297l-52 -260h-297q-75 -80 -99 -117q-12 -19 -18 -34.5t-6 -30.5q0 -29 24 -50.5t76 -21.5q27 0 68 7t88 24l-31 -156q-49 -11 -95 -16.5t-84 -5.5q-103 0 -161.5 37.5t-58.5 108.5q0 54 37.5 119t118.5 136h-450l51 260h297l188 973h-297l51 260 h889l-51 -260h-297z" />
<glyph unicode="&#x12f;" d="M544 1323q-16 0 -23 9t-4 24l56 282q4 27 32 27h233q16 0 23 -9t4 -24l-56 -282q-5 -27 -32 -27h-233zM823 -8q-66 -71 -90 -107q-12 -19 -18 -34.5t-6 -30.5q0 -29 24 -50.5t76 -21.5q27 0 68 7t88 24l-31 -156q-49 -11 -95 -16.5t-84 -5.5q-103 0 -161.5 37.5 t-58.5 108.5q0 53 35 115t110 130q-91 3 -152.5 17t-100.5 40q-47 31 -66 76.5t-19 103.5q0 17 1.5 31.5t3.5 31.5q2 12 5.5 33.5t8.5 45.5l120 524h-236l43 225h528l-166 -763q-3 -12 -4 -17.5t-1 -8v-4.5t-1 -6q-2 -8 -2.5 -14t-0.5 -12q0 -17 7 -32.5t24 -26.5 q31 -19 109 -19h278l-45 -225h-191z" />
<glyph unicode="&#x130;" d="M674 1607q-15 0 -22.5 9t-4.5 24l36 186q4 27 32 27h214q15 0 22.5 -9t4.5 -24l-36 -186q-5 -27 -32 -27h-214zM78 260h297l188 973h-297l51 260h889l-51 -260h-297l-188 -973h297l-52 -260h-888z" />
<glyph unicode="&#x131;" d="M732 -8q-107 0 -177 14t-113 43q-47 31 -66 76.5t-19 103.5q0 17 1.5 31.5t3.5 31.5q3 23 6 39.5t8 39.5l120 524h-236l43 225h528l-166 -763q-3 -12 -4 -17.5t-1 -8v-4.5t-1 -6q-2 -8 -2.5 -14t-0.5 -12q0 -17 7 -32.5t24 -26.5q31 -19 109 -19h278l-45 -225h-297v0z " />
<glyph unicode="&#x136;" d="M270 1493h295l-108 -557l563 557h348l-606 -604l338 -889h-303l-254 670l-172 -170l-95 -500h-294zM421 -158h282l-236 -306h-194z" />
<glyph unicode="&#x137;" d="M363 1556h293l-152 -782l404 346h370l-505 -418l313 -702h-311l-222 524l-116 -96l-82 -428h-293zM454 -158h282l-236 -306h-194z" />
<glyph unicode="&#x139;" d="M858 1854h281l-320 -264h-207zM371 1493h295l-240 -1233h631l-51 -260h-926z" />
<glyph unicode="&#x13a;" d="M855 1901h281l-320 -264h-207zM690 -10q-100 0 -171 13.5t-116.5 41.5t-66.5 72t-21 106q0 29 4.5 64t14.5 82l203 962h-306l43 225h598l-249 -1201q-9 -45 -9 -66q0 -42 36 -58t104 -16h278l-45 -225h-297z" />
<glyph unicode="&#x13b;" d="M371 1493h295l-240 -1233h631l-51 -260h-926zM423 -158h282l-236 -306h-194z" />
<glyph unicode="&#x13c;" d="M690 -10q-100 0 -171 13.5t-116.5 41.5t-66.5 72t-21 106q0 29 4.5 64t14.5 82l203 962h-306l43 225h598l-249 -1201q-9 -45 -9 -66q0 -42 36 -58t104 -16h278l-45 -225h-297zM358 -153h282l-236 -306h-194z" />
<glyph unicode="&#x13d;" d="M371 1493h295l-240 -1233h631l-51 -260h-926zM908 1492h321l-257 -376h-197z" />
<glyph unicode="&#x13e;" d="M690 -10q-100 0 -171 13.5t-116.5 41.5t-66.5 72t-21 106q0 29 4.5 64t14.5 82l203 962h-306l43 225h598l-249 -1201q-9 -45 -9 -66q0 -42 36 -58t104 -16h278l-45 -225h-297zM990 1556h321l-257 -376h-197z" />
<glyph unicode="&#x141;" d="M176 502l-131 -99l-115 154l299 211l142 725h295l-95 -481l250 174l115 -154l-418 -295l-92 -477h631l-51 -260h-926z" />
<glyph unicode="&#x142;" d="M719 -10q-205 0 -290 56q-43 28 -64 74.5t-21 106.5q0 17 1.5 31.5t3.5 31.5t5 37t8 42l53 260l-276 -195l-90 146l418 284l98 467h-305l43 225h598l-94 -464l290 203l103 -138l-443 -301l-106 -502q-3 -12 -4 -16.5t-1 -6.5v-4t-1 -8t-1.5 -15.5t-0.5 -15.5 q0 -20 8.5 -33t22.5 -21t38 -13.5t70 -5.5h279l-45 -225h-297v0z" />
<glyph unicode="&#x143;" d="M887 1853h281l-320 -264h-207zM266 1493h303l215 -1085l211 1085h260l-288 -1493h-293l-225 1085l-211 -1085h-263z" />
<glyph unicode="&#x144;" d="M881 1673h321l-442 -376h-197zM276 1120h264l-3 -168q48 91 130 143t191 52q124 0 193 -69t69 -196q0 -32 -4.5 -69t-13.5 -85l-141 -728h-293l133 682q5 26 7.5 53t2.5 45q0 66 -28.5 96.5t-82.5 30.5q-85 0 -143 -71.5t-84 -206.5l-121 -629h-293z" />
<glyph unicode="&#x145;" d="M266 1493h303l215 -1085l211 1085h260l-288 -1493h-293l-225 1085l-211 -1085h-263zM351 -158h282l-236 -306h-194z" />
<glyph unicode="&#x146;" d="M276 1120h264l-3 -168q48 91 130 143t191 52q124 0 193 -69t69 -196q0 -32 -4.5 -69t-13.5 -85l-141 -728h-293l133 682q5 26 7.5 53t2.5 45q0 66 -28.5 96.5t-82.5 30.5q-85 0 -143 -71.5t-84 -206.5l-121 -629h-293zM390 -158h282l-236 -306h-194z" />
<glyph unicode="&#x147;" d="M487 1852h170l149 -162l229 162h181l-244 -264h-348zM266 1493h303l215 -1085l211 1085h260l-288 -1493h-293l-225 1085l-211 -1085h-263z" />
<glyph unicode="&#x148;" d="M414 1673h174l153 -227l238 227h190l-331 -376h-242zM276 1120h264l-3 -168q48 91 130 143t191 52q124 0 193 -69t69 -196q0 -32 -4.5 -69t-13.5 -85l-141 -728h-293l133 682q5 26 7.5 53t2.5 45q0 66 -28.5 96.5t-82.5 30.5q-85 0 -143 -71.5t-84 -206.5l-121 -629h-293 z" />
<glyph unicode="&#x14a;" d="M447 -199h37q50 0 87 13t64 42t46 75.5t32 112.5l189 971q5 26 7.5 49.5t2.5 42.5q0 77 -38.5 112.5t-115.5 35.5q-59 0 -108 -20t-86 -56.5t-62.5 -89t-38.5 -117.5l-189 -972h-295l291 1493h266l-18 -240q63 129 165 199t233 70q143 0 217 -87t74 -263q0 -50 -6 -107.5 t-19 -122.5l-172 -884q-26 -133 -66 -225.5t-99 -150t-138 -83t-183 -25.5h-121z" />
<glyph unicode="&#x14b;" d="M419 -199h39q49 0 86 12.5t64.5 41t46.5 75t32 113.5l124 639q12 61 12 105q0 19 -3 40.5t-14.5 39.5t-33 30t-57.5 12q-88 0 -146.5 -72t-82.5 -196l-124 -641h-291l217 1120h262l-3 -168q51 97 136 146t194 49q78 0 126.5 -23.5t76 -61.5t37.5 -86.5t10 -97.5 q0 -34 -4 -71.5t-12 -79.5l-133 -684q-24 -126 -63 -214.5t-97 -145t-137.5 -82t-184.5 -25.5h-121z" />
<glyph unicode="&#x14c;" d="M509 1850h631l-36 -188h-631zM497 -29q-212 0 -324 127t-112 384q0 92 14 194.5t38.5 202t58.5 190.5t74 160q82 144 203 217.5t286 73.5q211 0 323.5 -126t112.5 -383q0 -85 -12.5 -184.5t-36 -199.5t-57 -194t-76.5 -169q-82 -144 -204 -218.5t-288 -74.5zM528 233 q63 0 108.5 35.5t82.5 104.5q25 46 47.5 109t43.5 148q12 50 23 102.5t18.5 104t12 99.5t4.5 88q0 236 -163 236q-65 0 -110 -36t-81 -105q-23 -43 -46 -105.5t-46 -152.5q-15 -60 -26 -119t-17.5 -112.5t-10 -97.5t-3.5 -74q0 -107 40 -166t123 -59z" />
<glyph unicode="&#x14d;" d="M459 1537h631l-37 -188h-631zM533 -29q-103 0 -185.5 30.5t-140 91t-88.5 151t-31 210.5q0 91 18 178t53.5 164t87.5 142t120 112t151.5 73t181.5 26q103 0 185.5 -30.5t140 -91t88.5 -151t31 -211.5q0 -137 -40.5 -262.5t-118.5 -221.5t-192 -153t-261 -57zM557 207 q67 0 121.5 40t92.5 104.5t58.5 146.5t20.5 166q0 128 -46 187.5t-125 59.5q-71 0 -126.5 -41t-93 -106.5t-57 -146.5t-19.5 -161q0 -128 47.5 -188.5t126.5 -60.5z" />
<glyph unicode="&#x150;" d="M687 1852h284l-337 -264h-197zM1062 1852h284l-337 -264h-197zM497 -29q-212 0 -324 127t-112 384q0 92 14 194.5t38.5 202t58.5 190.5t74 160q82 144 203 217.5t286 73.5q211 0 323.5 -126t112.5 -383q0 -85 -12.5 -184.5t-36 -199.5t-57 -194t-76.5 -169 q-82 -144 -204 -218.5t-288 -74.5zM528 233q63 0 108.5 35.5t82.5 104.5q25 46 47.5 109t43.5 148q12 50 23 102.5t18.5 104t12 99.5t4.5 88q0 236 -163 236q-65 0 -110 -36t-81 -105q-23 -43 -46 -105.5t-46 -152.5q-15 -60 -26 -119t-17.5 -112.5t-10 -97.5t-3.5 -74 q0 -107 40 -166t123 -59z" />
<glyph unicode="&#x151;" d="M612 1673h246l-321 -376h-164zM1008 1673h260l-346 -376h-172zM533 -29q-103 0 -185.5 30.5t-140 91t-88.5 151t-31 210.5q0 91 18 178t53.5 164t87.5 142t120 112t151.5 73t181.5 26q103 0 185.5 -30.5t140 -91t88.5 -151t31 -211.5q0 -137 -40.5 -262.5t-118.5 -221.5 t-192 -153t-261 -57zM557 207q67 0 121.5 40t92.5 104.5t58.5 146.5t20.5 166q0 128 -46 187.5t-125 59.5q-71 0 -126.5 -41t-93 -106.5t-57 -146.5t-19.5 -161q0 -128 47.5 -188.5t126.5 -60.5z" />
<glyph unicode="&#x152;" d="M474 0q-133 0 -219 23.5t-138 67.5q-53 45 -79.5 119.5t-26.5 191.5q0 66 8.5 147t25.5 175t41 187t52 172q35 99 80 177.5t116 134.5q64 51 141 74.5t171 23.5h686l-52 -260h-331l-60 -311h301l-51 -260h-301l-78 -402h342l-51 -260h-577zM506 260l189 973h-51 q-48 0 -82.5 -13t-60.5 -34q-30 -25 -51.5 -61t-39.5 -86q-10 -27 -21 -64t-22 -79.5t-21.5 -88.5t-18.5 -90q-15 -80 -23.5 -153t-8.5 -124q0 -52 9.5 -84.5t29.5 -53.5q18 -20 47 -31t74 -11h51z" />
<glyph unicode="&#x153;" d="M296 -29q-72 0 -132 20.5t-102 62.5q-40 40 -61 101.5t-21 153.5q0 57 8 132t24 154q17 84 39 155.5t48 130.5q29 66 66 115t89 84q50 33 109 50t122 17q39 0 75.5 -7t67.5 -23t55.5 -39.5t41.5 -51.5q48 58 117 90q68 31 151 31q67 0 117 -18t83 -51q35 -35 52 -86 t17 -114q0 -26 -2.5 -59t-5.5 -58q-4 -29 -10.5 -71t-14.5 -84l-23 -127h-450q-5 -26 -7.5 -46t-4.5 -33q-3 -26 -3 -44q0 -38 11 -70.5t32 -55.5q20 -22 50 -34t67 -12q55 0 123 28q33 14 64.5 32t66.5 45l-47 -238q-57 -41 -126 -60q-71 -20 -147 -20q-52 0 -91.5 10.5 t-72.5 30.5q-68 41 -87 109q-25 -38 -55.5 -65.5t-65.5 -46.5q-36 -19 -76.5 -28.5t-90.5 -9.5zM319 184q27 0 48 8t38 24q20 18 33.5 44t26.5 62q10 25 23 81q7 29 14.5 68t17.5 88q4 19 8 41t8 43t7 38.5t5 27.5q4 23 6.5 48t2.5 47q0 31 -6 56t-20 42q-26 32 -79 32 q-55 0 -90 -32q-17 -16 -30 -39.5t-28 -65.5q-9 -26 -15.5 -48t-14.5 -55t-15 -62.5t-15 -72.5q-8 -41 -13.5 -71.5t-10.5 -70.5q-5 -33 -7 -53.5t-2 -41.5q0 -73 26 -105q25 -33 82 -33zM1022 690l10 66q4 19 6 40q1 10 1.5 19t0.5 19q0 51 -20 76q-20 24 -63 24 q-57 0 -91 -42q-17 -21 -32 -55.5t-23 -76.5l-14 -70h225z" />
<glyph unicode="&#x154;" d="M844 1853h281l-320 -264h-207zM294 1493h410q234 0 345 -88.5t111 -273.5q0 -90 -25 -164t-73.5 -129t-118.5 -89t-160 -44q30 -5 53.5 -15.5t41.5 -30t32.5 -49.5t28.5 -73l164 -537h-301l-106 376l-8 27q-29 96 -65.5 141.5t-92.5 45.5h-117l-115 -590h-295zM585 838 q136 0 205 64.5t69 177.5q0 86 -43.5 125.5t-140.5 39.5h-133l-80 -407h123z" />
<glyph unicode="&#x155;" d="M911 1673h321l-442 -376h-197zM343 1120h264l-6 -174q64 99 163 150t215 51q63 0 118 -15t100 -42l-53 -275q-50 44 -108.5 64t-136.5 20q-81 0 -143 -21.5t-108 -67.5t-77.5 -118.5t-51.5 -175.5l-100 -516h-295z" />
<glyph unicode="&#x156;" d="M294 1493h410q234 0 345 -88.5t111 -273.5q0 -90 -25 -164t-73.5 -129t-118.5 -89t-160 -44q30 -5 53.5 -15.5t41.5 -30t32.5 -49.5t28.5 -73l164 -537h-301l-106 376l-8 27q-29 96 -65.5 141.5t-92.5 45.5h-117l-115 -590h-295zM585 838q136 0 205 64.5t69 177.5 q0 86 -43.5 125.5t-140.5 39.5h-133l-80 -407h123zM433 -158h282l-236 -306h-194z" />
<glyph unicode="&#x157;" d="M373 1120h264l-6 -174q64 99 163 150t215 51q63 0 118 -15t100 -42l-53 -275q-50 44 -108.5 64t-136.5 20q-81 0 -143 -21.5t-108 -67.5t-77.5 -118.5t-51.5 -175.5l-100 -516h-295zM181 -158h282l-236 -306h-194z" />
<glyph unicode="&#x158;" d="M420 1852h170l149 -162l229 162h181l-244 -264h-348zM294 1493h410q234 0 345 -88.5t111 -273.5q0 -90 -25 -164t-73.5 -129t-118.5 -89t-160 -44q30 -5 53.5 -15.5t41.5 -30t32.5 -49.5t28.5 -73l164 -537h-301l-106 376l-8 27q-29 96 -65.5 141.5t-92.5 45.5h-117 l-115 -590h-295zM585 838q136 0 205 64.5t69 177.5q0 86 -43.5 125.5t-140.5 39.5h-133l-80 -407h123z" />
<glyph unicode="&#x159;" d="M475 1673h174l153 -227l238 227h190l-331 -376h-242zM348 1120h264l-6 -174q64 99 163 150t215 51q63 0 118 -15t100 -42l-53 -275q-50 44 -108.5 64t-136.5 20q-81 0 -143 -21.5t-108 -67.5t-77.5 -118.5t-51.5 -175.5l-100 -516h-295z" />
<glyph unicode="&#x15a;" d="M887 1853h281l-320 -264h-207zM469 -29q-113 0 -227 26t-238 79l59 305q97 -81 202.5 -123.5t214.5 -42.5q66 0 118.5 15.5t89 43.5t56.5 67.5t20 88.5q0 65 -35 110t-104 74l-119 50q-94 39 -155 75.5t-97 77t-50 87.5t-14 108q0 115 42.5 209t119.5 160.5t184.5 102.5 t238.5 36q97 0 195 -20t189 -62l-57 -285q-34 31 -75 54.5t-86.5 39.5t-93 23.5t-94.5 7.5q-78 0 -131.5 -19.5t-86 -48t-46.5 -61.5t-14 -61q0 -49 42.5 -92t141.5 -86l7 -3l116 -51q73 -32 126 -70.5t87.5 -86t51 -104t16.5 -125.5q0 -112 -42 -204t-119 -157.5 t-187 -101.5t-246 -36z" />
<glyph unicode="&#x15b;" d="M881 1673h321l-442 -376h-197zM495 -29q-100 0 -202.5 17.5t-202.5 52.5l51 256q87 -57 180.5 -86t190.5 -29q109 0 170 37t61 111q0 18 -6 33.5t-26 31.5q-23 18 -62.5 33.5t-99.5 32.5l-88 24q-236 65 -236 284q0 85 35 155t100 119.5t158.5 76.5t210.5 27 q88 0 180 -15.5t185 -46.5l-50 -254q-77 55 -165 81t-171 26q-101 0 -155.5 -34.5t-54.5 -93.5q0 -46 37 -73q9 -7 25.5 -15t38 -16.5t47.5 -17t54 -16.5l74 -21q124 -35 185 -104.5t61 -187.5q0 -91 -35 -163t-102 -122t-165 -76.5t-223 -26.5z" />
<glyph unicode="&#x15e;" d="M549 1222q-37 -29 -55.5 -65.5t-18.5 -69.5q0 -52 46.5 -95t137.5 -82l7 -3l116 -51q75 -33 128 -72t86 -84q34 -46 50.5 -101.5t16.5 -125.5q0 -107 -39 -201t-121 -164q-61 -52 -142.5 -85.5t-181.5 -45.5q12 -18 21.5 -35.5t16.5 -35.5q18 -47 18 -91 q0 -47 -18.5 -87.5t-56.5 -69.5q-37 -29 -90 -44t-122 -15q-26 0 -53 2t-46 4q-42 5 -62.5 11t-36.5 9l28 156q22 -8 43 -14.5t41 -11.5q40 -9 77 -9q34 0 60.5 7t43.5 20q36 27 36 76q0 28 -13 61q-5 11 -11.5 27t-16.5 35q-98 3 -195 25q-60 14 -118 33.5t-121 45.5 l59 305q49 -41 97.5 -70.5t105.5 -52.5q53 -21 104.5 -32t108.5 -11q132 0 209 59q76 58 76 155q0 35 -9 62t-26 49q-35 45 -104 74l-119 50q-98 41 -159 78t-95 78q-29 35 -45.5 82.5t-16.5 118.5q0 117 44.5 207.5t116.5 152.5q78 67 184.5 103t234.5 36q48 0 101 -5 t100 -15t95 -26t93 -36l-57 -285q-69 63 -159 94q-46 16 -96.5 23.5t-98.5 7.5q-69 0 -117 -15t-82 -41z" />
<glyph unicode="&#x15f;" d="M553 903q-55 -35 -55 -93q0 -46 37 -73q20 -14 59.5 -30t105.5 -35l74 -21q66 -19 112.5 -46.5t74.5 -60.5q29 -34 44 -79.5t15 -105.5q0 -91 -35 -162.5t-101 -121.5q-58 -44 -135 -68.5t-168 -32.5q23 -36 36 -68q18 -47 18 -91q0 -47 -18.5 -87.5t-56.5 -69.5 q-37 -29 -90 -44t-122 -15q-26 0 -53 2t-46 4q-42 5 -62.5 11t-36.5 9l28 156q22 -8 43 -14.5t41 -11.5q40 -9 77 -9q34 0 60.5 7t43.5 20q36 27 36 77q0 26 -13 61q-5 12 -12 27.5t-17 34.5q-38 2 -75.5 6t-68.5 9q-48 8 -100.5 22t-102.5 31l51 256q48 -31 90.5 -50.5 t90.5 -34.5q46 -14 91.5 -22t96.5 -8q110 0 172 38q61 37 61 106q0 27 -8.5 42.5t-22.5 26.5q-20 16 -61 32.5t-102 33.5l-88 24q-55 15 -101 41.5t-78 65.5q-27 33 -42 75.5t-15 99.5q0 88 35 158.5t100 119.5t157.5 75.5t207.5 26.5q46 0 95 -4t89 -11t91 -19.5t94 -27.5 l-50 -254q-76 53 -162 80q-44 14 -88.5 20.5t-88.5 6.5q-51 0 -87.5 -9t-64.5 -26z" />
<glyph unicode="&#x160;" d="M457 1853h170l149 -162l229 162h181l-244 -264h-348zM469 -29q-58 0 -113.5 6.5t-112.5 19.5q-60 14 -118 33.5t-121 45.5l59 305q49 -41 97.5 -70.5t105.5 -52.5q53 -21 104.5 -32t108.5 -11q132 0 209 59q76 58 76 155q0 35 -9 62t-26 49q-35 45 -104 74l-119 50 q-98 41 -159 78t-95 78q-29 35 -45.5 82.5t-16.5 118.5q0 117 44.5 207.5t116.5 152.5q78 67 184.5 103t234.5 36q48 0 101 -5t100 -15t95 -26t93 -36l-57 -285q-69 63 -159 94q-46 16 -96.5 23.5t-98.5 7.5q-69 0 -117 -15t-82 -41q-37 -29 -55.5 -65.5t-18.5 -69.5 q0 -52 46.5 -95t137.5 -82l7 -3l116 -51q75 -33 128 -72t86 -84q34 -46 50.5 -101.5t16.5 -125.5q0 -107 -39 -201t-121 -164q-78 -66 -187.5 -101.5t-246.5 -35.5z" />
<glyph unicode="&#x161;" d="M424 1673h174l153 -227l238 227h190l-331 -376h-242zM501 -29q-53 0 -108 4.5t-100 12.5q-48 8 -100.5 22t-102.5 31l51 256q48 -31 90.5 -50.5t90.5 -34.5q46 -14 91.5 -22t96.5 -8q110 0 172 38q61 37 61 106q0 27 -8.5 42.5t-22.5 26.5q-20 16 -61 32.5t-102 33.5 l-88 24q-55 15 -101 41.5t-78 65.5q-27 33 -42 75.5t-15 99.5q0 88 35 158.5t100 119.5t157.5 75.5t207.5 26.5q46 0 95 -4t89 -11t91 -19.5t94 -27.5l-50 -254q-76 53 -162 80q-44 14 -88.5 20.5t-88.5 6.5q-51 0 -87.5 -9t-64.5 -26q-55 -35 -55 -93q0 -46 37 -73 q20 -14 59.5 -30t105.5 -35l74 -21q66 -19 112.5 -46.5t74.5 -60.5q29 -34 44 -79.5t15 -105.5q0 -91 -35 -162.5t-101 -121.5q-70 -53 -168 -78.5t-215 -25.5z" />
<glyph unicode="&#x164;" d="M459 1853h170l149 -162l229 162h181l-244 -264h-348zM563 1235h-383l49 258h1059l-51 -258h-379l-240 -1235h-294z" />
<glyph unicode="&#x165;" d="M1073 1661h321l-257 -376h-197zM707 -5q-106 0 -176 14t-113 43q-46 30 -66 75t-20 102q0 17 1.5 30.5t3.5 30.5q2 12 5 36t8 48l101 521h-287l43 225h287l61 318h293l-62 -318h383l-43 -225h-383l-104 -535q-1 -5 -2.5 -13t-3.5 -22q-1 -8 -1.5 -13.5t-0.5 -11.5 q0 -43 30 -61q29 -19 109 -19h225l-43 -225h-245z" />
<glyph unicode="&#x166;" d="M428 538h-247l38 192h247l98 505h-379l50 258h1053l-50 -258h-379l-98 -505h247l-38 -192h-247l-104 -538h-295z" />
<glyph unicode="&#x167;" d="M706 -5q-251 0 -325 80q-47 52 -47 158q0 31 4 66t12 75l35 187h-178l38 192h178l27 142h-286l44 225h286l62 318h293l-62 -318h383l-44 -225h-383l-27 -142h184l-38 -192h-184l-38 -201q-5 -28 -5 -45q0 -40 20 -62q31 -33 116 -33h225l-44 -225h-246v0z" />
<glyph unicode="&#x168;" d="M438 1589q25 130 91 198t161 68q38 0 70 -12t67 -39l53 -41q32 -27 70 -27q37 0 63 30.5t37 88.5h137q-26 -124 -89 -195t-163 -71q-35 0 -67 11t-70 40l-49 37q-25 19 -41.5 25.5t-31.5 6.5q-38 0 -64 -30.5t-37 -89.5h-137zM492 -29q-106 0 -189 25t-140.5 74.5 t-87.5 121.5t-30 167q0 39 5.5 85.5t17.5 106.5l184 942h295l-199 -1016q0 -3 -1 -6q-4 -23 -5.5 -40.5t-1.5 -31.5q0 -79 46 -123.5t136 -44.5q100 0 165.5 60t90.5 186l199 1016h295l-185 -942q-17 -86 -34.5 -151.5t-38.5 -116.5t-46.5 -89.5t-58.5 -70.5 q-75 -74 -178.5 -113t-238.5 -39z" />
<glyph unicode="&#x169;" d="M892 1270q-20 0 -37 3t-34 10t-34.5 18t-37.5 26l-49 37q-2 2 -5 4q-42 33 -73 33q-34 0 -60 -34.5t-36 -94.5h-139q9 65 31.5 117.5t55 89.5t74.5 57t90 20q18 0 33.5 -3t32 -10t34 -19t40.5 -29l51 -39q40 -31 72 -31q38 0 63.5 34.5t34.5 94.5h139q-23 -140 -85 -212 t-161 -72zM368 -29q-123 0 -192.5 70t-69.5 203q0 29 4 64t13 83l143 729h291l-131 -684q-5 -27 -7.5 -53.5t-2.5 -44.5q0 -65 29 -96t83 -31q80 0 138 67.5t86 210.5l122 631h291l-217 -1120h-264l4 166q-45 -91 -128 -143t-192 -52z" />
<glyph unicode="&#x16a;" d="M519 1850h631l-36 -188h-631zM492 -29q-106 0 -189 25t-140.5 74.5t-87.5 121.5t-30 167q0 39 5.5 85.5t17.5 106.5l184 942h295l-199 -1016q0 -3 -1 -6q-4 -23 -5.5 -40.5t-1.5 -31.5q0 -79 46 -123.5t136 -44.5q100 0 165.5 60t90.5 186l199 1016h295l-185 -942 q-17 -86 -34.5 -151.5t-38.5 -116.5t-46.5 -89.5t-58.5 -70.5q-75 -74 -178.5 -113t-238.5 -39z" />
<glyph unicode="&#x16b;" d="M469 1508h631l-37 -188h-631zM368 -29q-123 0 -192.5 70t-69.5 203q0 29 4 64t13 83l143 729h291l-131 -684q-5 -27 -7.5 -53.5t-2.5 -44.5q0 -65 29 -96t83 -31q80 0 138 67.5t86 210.5l122 631h291l-217 -1120h-264l4 166q-45 -91 -128 -143t-192 -52z" />
<glyph unicode="&#x16e;" d="M1272 1493l-185 -942q-17 -86 -34.5 -151.5t-38.5 -116.5t-46.5 -89.5t-58.5 -70.5q-75 -74 -178.5 -113t-238.5 -39q-106 0 -189 25t-140.5 74.5t-87.5 121.5t-30 167q0 39 5.5 85.5t17.5 106.5l184 942h251q-28 58 -28 123q0 59 22 111t60.5 90.5t90.5 61t111 22.5 t111 -22.5t90.5 -61t61 -90.5t22.5 -111q0 -65 -28 -123h256zM759 1747q-27 0 -51 -10.5t-41.5 -28t-28 -41.5t-10.5 -51t10.5 -51t28 -42t41.5 -28t51 -10t51 10.5t42 28t28.5 41.5t10.5 51t-10.5 51t-28.5 41.5t-42 28t-51 10.5zM962 1416q-39 -40 -91 -62.5t-112 -22.5 q-69 0 -126.5 29t-96.5 79l-188 -962q0 -3 -1 -6q-4 -23 -5.5 -40.5t-1.5 -31.5q0 -79 46 -123.5t136 -44.5q100 0 165.5 60t90.5 186z" />
<glyph unicode="&#x16f;" d="M737 1254q-59 0 -111 22.5t-90.5 61t-60.5 90.5t-22 111t22 111t60.5 90.5t90.5 61t111 22.5t111 -22.5t90.5 -61t61 -90.5t22.5 -111t-22.5 -111t-61 -90.5t-90.5 -61t-111 -22.5zM737 1408q27 0 51 10.5t42 28t28.5 41.5t10.5 51t-10.5 51t-28.5 41.5t-42 28t-51 10.5 t-51 -10.5t-41.5 -28t-28 -41.5t-10.5 -51t10.5 -51t28 -42t41.5 -28t51 -10zM368 -29q-123 0 -192.5 70t-69.5 203q0 29 4 64t13 83l143 729h291l-131 -684q-5 -27 -7.5 -53.5t-2.5 -44.5q0 -65 29 -96t83 -31q80 0 138 67.5t86 210.5l122 631h291l-217 -1120h-264l4 166 q-45 -91 -128 -143t-192 -52z" />
<glyph unicode="&#x170;" d="M687 1852h284l-337 -264h-197zM1062 1852h284l-337 -264h-197zM492 -29q-106 0 -189 25t-140.5 74.5t-87.5 121.5t-30 167q0 39 5.5 85.5t17.5 106.5l184 942h295l-199 -1016q0 -3 -1 -6q-4 -23 -5.5 -40.5t-1.5 -31.5q0 -79 46 -123.5t136 -44.5q100 0 165.5 60 t90.5 186l199 1016h295l-185 -942q-17 -86 -34.5 -151.5t-38.5 -116.5t-46.5 -89.5t-58.5 -70.5q-75 -74 -178.5 -113t-238.5 -39z" />
<glyph unicode="&#x171;" d="M632 1648h246l-321 -376h-164zM1028 1648h260l-346 -376h-172zM368 -29q-123 0 -192.5 70t-69.5 203q0 29 4 64t13 83l143 729h291l-131 -684q-5 -27 -7.5 -53.5t-2.5 -44.5q0 -65 29 -96t83 -31q80 0 138 67.5t86 210.5l122 631h291l-217 -1120h-264l4 166 q-45 -91 -128 -143t-192 -52z" />
<glyph unicode="&#x172;" d="M1272 1493l-185 -942q-17 -86 -34.5 -151.5t-38.5 -116.5t-46.5 -89.5t-58.5 -70.5q-75 -74 -178.5 -113t-238.5 -39h-5q-63 -68 -87 -104q-12 -19 -18 -34.5t-6 -30.5q0 -29 24 -50.5t76 -21.5q27 0 68 7t88 24l-31 -156q-49 -11 -95 -16.5t-84 -5.5q-103 0 -161.5 37.5 t-58.5 108.5q0 54 37.5 118.5t117.5 135.5q-151 29 -231.5 123.5t-80.5 252.5q0 39 5.5 85.5t17.5 106.5l184 942h295l-199 -1016q0 -3 -1 -6q-4 -23 -5.5 -40.5t-1.5 -31.5q0 -79 46 -123.5t136 -44.5q100 0 165.5 60t90.5 186l199 1016h295z" />
<glyph unicode="&#x173;" d="M823 -182q0 -29 24 -50.5t76 -21.5q27 0 68 7t88 24l-31 -156q-49 -11 -95 -16.5t-84 -5.5q-103 0 -161.5 37.5t-58.5 108.5q0 54 37.5 119t118.5 136h-150l33 166q-45 -91 -128 -143t-192 -52q-123 0 -192.5 70t-69.5 203q0 29 4 64t13 83l143 729h291l-131 -684 q-5 -27 -7.5 -53.5t-2.5 -44.5q0 -65 29 -96t83 -31q80 0 138 67.5t86 210.5l122 631h291l-217 -1120h-2q-75 -80 -99 -117q-12 -19 -18 -34.5t-6 -30.5z" />
<glyph unicode="&#x174;" d="M669 1859h348l151 -264h-169l-164 161l-230 -161h-180zM143 1493h254l-108 -1096l272 709h238l12 -709l297 1096h262l-461 -1493h-270l-12 784l-318 -784h-268z" />
<glyph unicode="&#x175;" d="M698 1646h243l183 -376h-176l-152 225l-240 -225h-190zM96 1120h240l-33 -858l227 565h230l22 -565l291 858h252l-418 -1120h-280l-19 590l-239 -590h-279z" />
<glyph unicode="&#x176;" d="M656 1859h348l151 -264h-169l-164 161l-230 -161h-180zM432 588l-287 905h293l187 -649l411 649h322l-633 -905l-115 -588h-293z" />
<glyph unicode="&#x177;" d="M716 1647h243l183 -376h-176l-152 225l-240 -225h-190zM-20 -201h117q41 0 73.5 5.5t61 23.5t55.5 52t57 91l39 74l-217 1075h297l127 -700l383 700h309l-706 -1241q-56 -99 -102 -159t-91.5 -92t-95 -42t-112.5 -10h-240z" />
<glyph unicode="&#x178;" d="M489 1607q-27 0 -27 24q0 6 1 9l38 186q6 27 32 27h175q27 0 27 -24q0 -6 -1 -9l-37 -186q-5 -27 -32 -27h-176zM885 1607q-27 0 -27 24q0 6 1 9l37 186q4 27 32 27h175q15 0 22.5 -9t4.5 -24l-36 -186q-5 -27 -32 -27h-177zM432 588l-287 905h293l187 -649l411 649h322 l-633 -905l-115 -588h-293z" />
<glyph unicode="&#x179;" d="M867 1853h281l-320 -264h-207zM4 244l858 989h-643l52 260h1009l-49 -244l-876 -989h700l-51 -260h-1047z" />
<glyph unicode="&#x17a;" d="M901 1647h321l-442 -376h-197zM94 229l707 672h-551l43 219h895l-45 -229l-707 -672h576l-43 -219h-920z" />
<glyph unicode="&#x17b;" d="M698 1606q-16 0 -23 9t-4 24l37 186q4 27 32 27h215q16 0 23 -9t4 -24l-37 -186q-5 -27 -32 -27h-215zM4 244l858 989h-643l52 260h1009l-49 -244l-876 -989h700l-51 -260h-1047z" />
<glyph unicode="&#x17c;" d="M667 1320q-16 0 -22.5 9t-3.5 24l37 186q4 27 32 27h212q15 0 22.5 -9t4.5 -24l-36 -186q-5 -27 -32 -27h-214zM94 229l707 672h-551l43 219h895l-45 -229l-707 -672h576l-43 -219h-920z" />
<glyph unicode="&#x17d;" d="M477 1852h170l149 -162l229 162h181l-244 -264h-348zM4 244l858 989h-643l52 260h1009l-49 -244l-876 -989h700l-51 -260h-1047z" />
<glyph unicode="&#x17e;" d="M444 1648h174l153 -227l238 227h190l-331 -376h-242zM94 229l707 672h-551l43 219h895l-45 -229l-707 -672h576l-43 -219h-920z" />
<glyph unicode="&#x192;" d="M270 -426q-28 0 -58 3t-57 9t-56 16t-57 23v234q22 -14 42.5 -24t40.5 -17q39 -13 80 -13q94 0 147 60q52 60 69 190l80 611h-252v219h281l39 293q12 91 44.5 161.5t81.5 118.5q51 49 117 73.5t144 24.5q28 0 59 -3t57 -9q23 -5 54 -16t57 -23v-231q-23 14 -44 23t-38 15 q-39 13 -79 13q-93 0 -144 -60q-27 -32 -44.5 -79.5t-25.5 -110.5l-24 -190h260v-219h-289l-94 -713q-11 -85 -42.5 -157t-83.5 -123q-101 -99 -265 -99z" />
<glyph unicode="&#x1a0;" d="M1388 1555q0 -55 -3.5 -101.5t-11.5 -88.5q-23 -114 -80.5 -176t-143.5 -62q-19 0 -37 3q4 -28 5.5 -57.5t1.5 -61.5q0 -85 -12.5 -184.5t-36 -199.5t-57 -194t-76.5 -169q-82 -144 -204 -218.5t-288 -74.5q-212 0 -324 127t-112 384q0 92 14 194.5t38.5 202t58.5 190.5 t74 160q82 144 203 217.5t286 73.5q136 0 230.5 -51t146.5 -156l5 -3q32 -19 58 -19q35 0 66 25.5t43 82.5q4 18 6 39.5t2 39.5q0 34 -8 77h156zM758 630q12 50 23 102.5t18.5 104t12 99.5t4.5 88q0 236 -163 236q-65 0 -110 -36t-81 -105q-23 -43 -46 -105.5t-46 -152.5 q-15 -60 -26 -119t-17.5 -112.5t-10 -97.5t-3.5 -74q0 -107 40 -166t123 -59q63 0 108.5 35.5t82.5 104.5q25 46 47.5 109t43.5 148z" />
<glyph unicode="&#x1a1;" d="M1294 1167q0 -55 -3.5 -101.5t-11.5 -88.5q-20 -97 -65 -156.5t-112 -76.5q2 -19 3 -38.5t1 -40.5q0 -137 -40.5 -262.5t-118.5 -221.5t-192 -153t-261 -57q-103 0 -185.5 30.5t-140 91t-88.5 151t-31 210.5q0 91 18 178t53.5 164t87.5 142t120 112t151.5 73t181.5 26 q146 0 248.5 -59.5t153.5 -180.5q25 10 45.5 35t29.5 67q4 18 6 39.5t2 39.5q0 34 -8 77h156zM518 207q67 0 121.5 40t92.5 104.5t58.5 146.5t20.5 166q0 128 -46 187.5t-125 59.5q-71 0 -126.5 -41t-93 -106.5t-57 -146.5t-19.5 -161q0 -128 47.5 -188.5t126.5 -60.5z" />
<glyph unicode="&#x1af;" d="M1437 1555q0 -55 -3.5 -101.5t-11.5 -88.5q-23 -114 -80.5 -176t-143.5 -62q-35 0 -69 12l-115 -588q-17 -86 -34.5 -151.5t-38.5 -116.5t-46.5 -89.5t-58.5 -70.5q-75 -74 -178.5 -113t-238.5 -39q-106 0 -189 25t-140.5 74.5t-87.5 121.5t-30 167q0 39 5.5 85.5 t17.5 106.5l184 942h295l-199 -1016q0 -3 -1 -6q-4 -23 -5.5 -40.5t-1.5 -31.5q0 -79 46 -123.5t136 -44.5q100 0 165.5 60t90.5 186l199 1016h295l-39 -201q4 -1 12 -1q35 0 66 25.5t43 82.5q4 18 6 39.5t2 39.5q0 34 -8 77h156z" />
<glyph unicode="&#x1b0;" d="M1336 1167q0 -55 -3.5 -101.5t-11.5 -88.5q-23 -114 -80.5 -176t-143.5 -62q-35 0 -65 10l-145 -749h-264l4 166q-45 -91 -128 -143t-192 -52q-123 0 -192.5 70t-69.5 203q0 29 4 64t13 83l143 729h291l-131 -684q-5 -27 -7.5 -53.5t-2.5 -44.5q0 -65 29 -96t83 -31 q80 0 138 67.5t86 210.5l122 631h291l-42 -217h9q35 0 66 25.5t43 82.5q4 18 6 39.5t2 39.5q0 34 -8 77h156z" />
<glyph unicode="&#x1e6;" d="M505 1853h170l149 -162l229 162h181l-244 -264h-348zM610 -29q-121 0 -215.5 36.5t-159.5 107.5t-99 176t-34 242q0 102 18.5 208t53 205.5t83.5 189t110 158.5q99 112 228 169t280 57q84 0 161.5 -18t155.5 -54l-66 -328q-51 67 -120 102t-149 35q-70 0 -134.5 -28 t-118.5 -88q-44 -48 -76.5 -111.5t-58.5 -138.5q-15 -43 -27 -89.5t-20.5 -93t-13.5 -91t-5 -84.5q0 -146 63.5 -224t178.5 -78q75 0 125 33l57 291h-206l49 248h460l-139 -709q-70 -60 -168 -91.5t-213 -31.5z" />
<glyph unicode="&#x1e7;" d="M414 1677h174l153 -227l238 227h190l-331 -376h-242zM389 -424q-103 0 -193 15t-178 44l54 265q75 -45 157.5 -67.5t165.5 -22.5q66 0 115.5 14.5t85 44.5t58 75t34.5 107l27 133q-56 -86 -133.5 -127t-172.5 -41q-78 0 -141 26.5t-107.5 77.5t-68.5 124.5t-24 167.5 q0 64 11.5 134.5t32 139t49.5 132t64 114.5q72 104 171 161.5t207 57.5q104 0 171 -55t88 -158l64 182h264l-203 -1036q-27 -138 -73 -235t-118 -157.5t-172 -88t-235 -27.5zM516 246q60 0 112 36.5t91 97.5t61.5 140t22.5 164q0 115 -40.5 170t-109.5 55q-59 0 -111 -36 t-91 -96.5t-61.5 -139.5t-22.5 -166q0 -115 39.5 -170t109.5 -55z" />
<glyph unicode="&#x1fe;" d="M862 1853h281l-320 -264h-207zM-141 51l219 244q-5 21 -8 39.5t-5 37t-3 38.5t-1 43q0 100 13 206.5t37 208.5t58 194.5t75 164.5q81 143 203 218t284 75q210 0 332 -131l154 170l139 -115l-205 -227q10 -57 15 -105t5 -94q0 -30 -2 -65.5t-6 -72.5t-8.5 -73.5 t-10.5 -69.5q-25 -146 -67 -267t-90 -205q-87 -153 -207.5 -223.5t-275.5 -70.5q-113 0 -199 36t-145 110l-160 -180zM852 1153q-18 52 -55.5 79.5t-90.5 27.5q-63 0 -111.5 -38.5t-84.5 -107.5q-40 -77 -72.5 -200.5t-58.5 -284.5zM526 233q60 0 111.5 37t91.5 116 q76 151 129 503l-483 -535q36 -121 151 -121z" />
<glyph unicode="&#x1ff;" d="M887 1675h321l-442 -376h-197zM-82 2l211 207q-21 49 -31 100t-10 124q0 157 43.5 289t122.5 226.5t190 147.5t246 53q180 0 311 -100l193 186l117 -121l-207 -201q11 -27 18.5 -53t12.5 -53.5t7.5 -57.5t2.5 -65q0 -158 -43.5 -289t-123 -225t-191.5 -146.5t-249 -52.5 q-186 0 -305 101l-198 -189zM801 856q-49 55 -128 55q-120 0 -195.5 -117t-94.5 -341zM562 207q60 0 109.5 31t86.5 90t60.5 145t31.5 197l-416 -404q47 -59 128 -59z" />
<glyph unicode="&#x218;" d="M469 -29q-113 0 -227 26t-238 79l59 305q97 -81 202.5 -123.5t214.5 -42.5q66 0 118.5 15.5t89 43.5t56.5 67.5t20 88.5q0 65 -35 110t-104 74l-119 50q-94 39 -155 75.5t-97 77t-50 87.5t-14 108q0 115 42.5 209t119.5 160.5t184.5 102.5t238.5 36q97 0 195 -20t189 -62 l-57 -285q-34 31 -75 54.5t-86.5 39.5t-93 23.5t-94.5 7.5q-78 0 -131.5 -19.5t-86 -48t-46.5 -61.5t-14 -61q0 -49 42.5 -92t141.5 -86l7 -3l116 -51q73 -32 126 -70.5t87.5 -86t51 -104t16.5 -125.5q0 -112 -42 -204t-119 -157.5t-187 -101.5t-246 -36zM284 -198h282 l-236 -306h-194z" />
<glyph unicode="&#x219;" d="M495 -29q-100 0 -202.5 17.5t-202.5 52.5l51 256q87 -57 180.5 -86t190.5 -29q109 0 170 37t61 111q0 18 -6 33.5t-26 31.5q-23 18 -62.5 33.5t-99.5 32.5l-88 24q-236 65 -236 284q0 85 35 155t100 119.5t158.5 76.5t210.5 27q88 0 180 -15.5t185 -46.5l-50 -254 q-77 55 -165 81t-171 26q-101 0 -155.5 -34.5t-54.5 -93.5q0 -46 37 -73q9 -7 25.5 -15t38 -16.5t47.5 -17t54 -16.5l74 -21q124 -35 185 -104.5t61 -187.5q0 -91 -35 -163t-102 -122t-165 -76.5t-223 -26.5zM284 -198h282l-236 -306h-194z" />
<glyph unicode="&#x21a;" d="M1288 1493l-51 -258h-379l-240 -1235h-54q36 -48 54 -93.5t18 -92.5q0 -49 -19.5 -88.5t-57 -67.5t-91.5 -43.5t-122 -15.5q-45 0 -96 6.5t-99 19.5l28 156q87 -35 162 -35q66 0 102.5 26.5t36.5 76.5q0 27 -13 61.5t-44 89.5h-99l239 1235h-383l49 258h1059z" />
<glyph unicode="&#x21b;" d="M639 360q-1 -5 -2.5 -13t-3.5 -22q-1 -8 -1.5 -13.5t-0.5 -11.5q0 -43 30 -61q29 -19 109 -19h225l-43 -225h-200q32 -46 48.5 -89t16.5 -88q0 -49 -19.5 -88.5t-57 -67.5t-91.5 -43.5t-122 -15.5q-45 0 -96 6.5t-99 19.5l28 156q87 -35 162 -35q66 0 102.5 26.5 t36.5 76.5q0 26 -12.5 59.5t-41.5 86.5q-65 5 -111 18.5t-78 34.5q-46 30 -66 75t-20 102q0 17 1.5 30.5t3.5 30.5q2 12 5 36t8 48l101 521h-287l43 225h287l61 318h293l-62 -318h383l-43 -225h-383l-104 -535v0z" />
<glyph unicode="&#x2b9;" d="M613 1638h221l-206 -498h-176z" />
<glyph unicode="&#x2bb;" d="M473 1174l270 382h215l-172 -382l-53 -271h-313z" />
<glyph unicode="&#x2bc;" d="M542 1285l52 271h313l-52 -271l-271 -382h-215z" />
<glyph unicode="&#x2bd;" d="M704 1218q-231 1 -231 188q0 18 2 37t6 40l48 246h274l-48 -246h-121q-2 -10 -3 -19t-1 -17q0 -86 102 -86l-28 -143v0z" />
<glyph unicode="&#x2be;" d="M632 1140q30 0 58.5 12.5t50.5 34t35.5 49.5t13.5 59q0 45 -30 76t-78 31l30 154q52 0 95 -17.5t74 -48.5t48.5 -73t17.5 -91q0 -14 -1 -27.5t-4 -27.5q-12 -59 -44.5 -111t-78.5 -90.5t-102 -61t-115 -22.5z" />
<glyph unicode="&#x2bf;" d="M771 986q-118 0 -186 83q-25 32 -36.5 69t-11.5 77q0 69 32 137t95 121q101 83 218 83l-30 -154q-30 0 -58.5 -13t-51 -34.5t-36 -49.5t-13.5 -59q0 -45 30 -75.5t78 -30.5l-30 -154v0z" />
<glyph unicode="&#x2c0;" d="M437 1080h54q126 0 187 64q26 27 39 56t13 57q0 33 -18 60q-45 64 -148 64q-94 0 -191 -48l32 167q24 9 46.5 16.5t50 12.5t64 7.5t89.5 2.5q62 0 113.5 -21.5t88 -57.5t57 -83.5t20.5 -100.5q0 -22 -5 -50q-12 -65 -41.5 -113.5t-70.5 -82.5t-92 -54.5t-108 -29.5 l-54 -278h-206z" />
<glyph unicode="&#x2c1;" d="M554 946q-45 7 -83.5 23.5t-66.5 43t-43.5 63.5t-15.5 85q0 15 2 31.5t5 33.5q12 60 49.5 116.5t91.5 100t120 70t135 26.5q52 0 88 -2.5t61.5 -7.5t45 -12.5t39.5 -16.5l-32 -167q-83 48 -173 48q-103 0 -173 -64q-26 -23 -38.5 -50.5t-12.5 -56.5q0 -35 18 -66 q36 -64 161 -64h54l-80 -412h-206z" />
<glyph unicode="&#x2c6;" d="M668 1638h243l183 -376h-176l-152 225l-240 -225h-190z" />
<glyph unicode="&#x2c7;" d="M414 1638h174l153 -227l238 227h190l-331 -376h-242z" />
<glyph unicode="&#x2c8;" d="M576 1554h189l-108 -555h-189z" />
<glyph unicode="&#x2c9;" d="M459 1556h631l-37 -188h-631z" />
<glyph unicode="&#x2cc;" d="M576 390h189l-108 -555h-189z" />
<glyph unicode="&#x2cd;" d="M114 -218h631l-37 -188h-631z" />
<glyph unicode="&#x2ce;" d="M469 -208h284l209 -376h-198z" />
<glyph unicode="&#x2cf;" d="M789 -208h321l-442 -376h-197z" />
<glyph unicode="&#x2d0;" d="M520 1120h411l-280 -380zM582 380l131 -380h-411z" />
<glyph unicode="&#x2d1;" d="M448 1120h411l-280 -380z" />
<glyph unicode="&#x2d8;" d="M739 1309q-146 0 -219 66q-35 31 -54.5 78.5t-19.5 119.5v33h144v-13q0 -61 44 -97q43 -36 120 -36q81 0 140 39q29 19 49 44.5t34 62.5h143q-14 -71 -45.5 -125t-82.5 -94q-99 -78 -253 -78z" />
<glyph unicode="&#x2d9;" d="M627 1339q-27 0 -27 24q0 6 1 9l37 186q4 27 32 27h212q15 0 22.5 -9t4.5 -24l-36 -186q-5 -27 -32 -27h-214v0z" />
<glyph unicode="&#x2da;" d="M747 1249q-57 0 -108.5 21t-93.5 63q-41 42 -61.5 92.5t-20.5 107.5q0 64 23.5 116t59.5 88q37 37 88.5 59.5t113.5 22.5q57 0 108.5 -20.5t92.5 -61.5q35 -35 59 -86.5t24 -115.5q0 -63 -23.5 -115.5t-58.5 -87.5q-41 -41 -93.5 -62t-109.5 -21zM749 1403q53 0 92 39 q38 38 38 92t-39 93q-40 38 -92 38q-55 0 -93 -38q-39 -39 -39 -93q0 -55 38 -93q17 -17 41.5 -27.5t53.5 -10.5z" />
<glyph unicode="&#x2db;" d="M471 -401q-47 0 -87 9t-70 29q-28 18 -43 44.5t-15 62.5q0 57 39 122q40 66 117 134h141q-75 -80 -99 -117q-11 -17 -17.5 -33.5t-6.5 -31.5q0 -31 26 -52q12 -10 29.5 -15t43.5 -5q14 0 33 1.5t39 5.5q39 7 85 24l-31 -156q-9 -2 -22 -4.5t-27 -5t-26.5 -4.5t-19.5 -3 q-20 -2 -45 -3.5t-44 -1.5z" />
<glyph unicode="&#x2dc;" d="M880 1307q-20 0 -35.5 3t-32.5 10t-35 17.5t-38 26.5l-49 37q-3 3 -1.5 1.5t-3.5 2.5q-17 13 -35 23t-38 10q-35 0 -60 -34t-36 -95h-139q19 130 87 207q34 38 75 57.5t86 19.5q17 0 35 -3t32 -9t33.5 -19t42.5 -30l51 -39q10 -8 19 -13.5t18 -9.5t17 -6t17 -2 q20 0 35.5 9t27.5 25q25 33 36 95h139q-22 -140 -85 -212t-163 -72z" />
<glyph unicode="&#x2dd;" d="M612 1638h246l-321 -376h-164zM1008 1638h260l-346 -376h-172z" />
<glyph unicode="&#x300;" horiz-adv-x="0" d="M-862 1638h284l209 -376h-198z" />
<glyph unicode="&#x301;" horiz-adv-x="0" d="M-346 1638h321l-442 -376h-197z" />
<glyph unicode="&#x302;" horiz-adv-x="0" d="M-565 1638h243l183 -376h-176l-152 225l-240 -225h-190z" />
<glyph unicode="&#x303;" horiz-adv-x="0" d="M-354 1307q-35 0 -67.5 13t-72.5 44l-49 37q-2 2 -5 4q-42 33 -73 33q-34 0 -60 -34.5t-36 -94.5h-139q9 65 31.5 117.5t55 89.5t74 57t89.5 20q17 0 32.5 -3t32 -9.5t35 -18.5t41.5 -30l51 -39q39 -31 70 -31q38 0 64 33t36 96h139q-47 -284 -249 -284z" />
<glyph unicode="&#x304;" horiz-adv-x="0" d="M-774 1556h631l-37 -188h-631z" />
<glyph unicode="&#x305;" horiz-adv-x="0" d="M-1233 1547h1233v-190h-1233v190z" />
<glyph unicode="&#x306;" horiz-adv-x="0" d="M-492 1309q-295 0 -295 264v33h144v-13q0 -61 44 -97t120 -36q81 0 139.5 38.5t83.5 107.5h143q-29 -143 -127.5 -220t-251.5 -77z" />
<glyph unicode="&#x307;" horiz-adv-x="0" d="M-590 1585h272l-47 -246h-274z" />
<glyph unicode="&#x308;" horiz-adv-x="0" d="M-770 1585h237l-49 -246h-235zM-375 1585h238l-49 -246h-236z" />
<glyph unicode="&#x309;" horiz-adv-x="0" d="M-709 1376q68 17 120 62q15 11 26.5 35.5t11.5 49.5q0 20 -10 36.5t-34 23.5q-19 5 -35 7t-30 1h-49q-47 0 -122 -31l30 152q112 26 207 26q223 0 219 -145l-2 -20t-3 -21q-18 -91 -145 -206l-17 -84h-189z" />
<glyph unicode="&#x30a;" horiz-adv-x="0" d="M-485 1249q-60 0 -112 22.5t-90.5 61t-60.5 90.5t-22 111t22 111t60.5 90.5t90.5 61t112 22.5q59 0 110.5 -22.5t90 -61t61 -90.5t22.5 -111t-22.5 -111t-61 -90.5t-90 -61t-110.5 -22.5zM-485 1403q27 0 51 10.5t41.5 28t28 41.5t10.5 51t-10.5 51t-28.5 41.5t-41.5 28 t-50.5 10.5t-51 -10.5t-42 -28t-28.5 -41.5t-10.5 -51t10.5 -51t28.5 -42t42 -28t51 -10z" />
<glyph unicode="&#x30b;" horiz-adv-x="0" d="M-621 1638h246l-321 -376h-164zM-225 1638h260l-346 -376h-172z" />
<glyph unicode="&#x30c;" horiz-adv-x="0" d="M-819 1638h174l153 -227l238 227h190l-331 -376h-242z" />
<glyph unicode="&#x30d;" horiz-adv-x="0" d="M-668 1706h190l-86 -444h-190z" />
<glyph unicode="&#x30e;" horiz-adv-x="0" d="M-953 1706h190l-86 -444h-190zM-383 1706h190l-86 -444h-190z" />
<glyph unicode="&#x30f;" horiz-adv-x="0" d="M-918 1638h231l142 -376h-174zM-541 1638h217l121 -376h-163z" />
<glyph unicode="&#x310;" horiz-adv-x="0" d="M-77 1822q-29 -143 -127.5 -220t-251.5 -77q-295 0 -295 264v33h144v-13q0 -56 37 -90l16 82h272l-16 -83q54 37 78 104h143z" />
<glyph unicode="&#x311;" horiz-adv-x="0" d="M-843 1309q34 145 135 221t258 76q78 0 132.5 -18t88 -49.5t48.5 -74t15 -91.5q0 -30 -6 -64h-143q1 3 1 8q0 64 -41 100t-125 36t-140.5 -37.5t-81.5 -106.5h-141v0z" />
<glyph unicode="&#x312;" horiz-adv-x="0" d="M-562 1209h194l-148 -306h-282z" />
<glyph unicode="&#x313;" horiz-adv-x="0" d="M-775 1361q120 0 144 122h-121l48 246h274l-48 -246q-51 -264 -325 -265z" />
<glyph unicode="&#x314;" horiz-adv-x="0" d="M-529 1218q-231 1 -231 188q0 18 2 37t6 40l48 246h274l-48 -246h-121q-2 -10 -3 -19t-1 -17q0 -86 102 -86l-28 -143v0z" />
<glyph unicode="&#x315;" horiz-adv-x="0" d="M-531 1638h321l-257 -376h-197z" />
<glyph unicode="&#x316;" horiz-adv-x="0" d="M-727 -217h284l209 -376h-198z" />
<glyph unicode="&#x317;" horiz-adv-x="0" d="M-481 -217h321l-442 -376h-197z" />
<glyph unicode="&#x318;" horiz-adv-x="0" d="M-740 -624h-183l37 189h183l35 183h190l-108 -555h-189z" />
<glyph unicode="&#x319;" horiz-adv-x="0" d="M-758 -252h190l-36 -183h183l-37 -189h-182l-36 -183h-189z" />
<glyph unicode="&#x31a;" horiz-adv-x="0" d="M-511 1713h-366l37 189h555l-108 -555h-189z" />
<glyph unicode="&#x31b;" horiz-adv-x="0" d="M-636 739q-54 0 -102 27t-99 84l27 141q60 -50 91 -69t58 -19q39 0 69.5 29.5t39.5 78.5q4 20 6 39t2 39q0 35 -8 78h156q0 -55 -3.5 -101.5t-11.5 -88.5q-23 -115 -80.5 -176.5t-144.5 -61.5z" />
<glyph unicode="&#x31c;" horiz-adv-x="0" d="M-750 -502q-47 0 -81 15.5t-56 40t-33 55.5t-11 63q0 60 24.5 108.5t62.5 83.5t85.5 54t94.5 19l-26 -132q-18 0 -37 -8t-34.5 -21t-25.5 -30.5t-10 -35.5q0 -80 73 -80l-26 -132v0z" />
<glyph unicode="&#x31d;" horiz-adv-x="0" d="M-946 -435h183l35 183h190l-36 -183h183l-37 -189h-555z" />
<glyph unicode="&#x31e;" horiz-adv-x="0" d="M-867 -624h-183l37 189h555l-37 -189h-183l-35 -183h-190z" />
<glyph unicode="&#x31f;" horiz-adv-x="0" d="M-825 -624h-183l37 189h183l35 183h190l-36 -183h183l-37 -189h-182l-36 -183h-189z" />
<glyph unicode="&#x320;" horiz-adv-x="0" d="M-876 -252h555l-36 -189h-555z" />
<glyph unicode="&#x321;" horiz-adv-x="0" d="M-688 -199h39q49 0 86 12.5t64.5 41t46.5 75t32 113.5l25 125h291l-25 -125q-24 -125 -63 -213.5t-97 -145t-137.5 -82.5t-184.5 -26h-121z" />
<glyph unicode="&#x322;" horiz-adv-x="0" d="M-733 -426q-166 0 -243 67t-77 217q0 39 5 84.5t15 98.5l25 125h291l-25 -125q-12 -62 -12 -106q0 -75 35.5 -105.5t111.5 -30.5h39l-44 -225h-121v0z" />
<glyph unicode="&#x323;" horiz-adv-x="0" d="M-941 -216h275l-48 -246h-275z" />
<glyph unicode="&#x324;" horiz-adv-x="0" d="M-1119 -216h236l-48 -246h-236zM-724 -216h236l-48 -246h-236z" />
<glyph unicode="&#x325;" horiz-adv-x="0" d="M-859 -502q-47 0 -81 15.5t-56 40t-33 55.5t-11 63q0 60 24.5 108.5t62.5 83.5t85.5 54t93.5 19t80.5 -15.5t57 -40t33.5 -55.5t11 -62q0 -60 -24.5 -109t-63 -84t-86 -54t-93.5 -19zM-834 -370q18 0 37 8t34.5 21.5t25.5 30t10 34.5q0 81 -73 81q-18 0 -37 -8t-34.5 -21 t-25 -30.5t-9.5 -35.5q0 -80 72 -80z" />
<glyph unicode="&#x326;" horiz-adv-x="0" d="M-949 -198h282l-236 -306h-194z" />
<glyph unicode="&#x327;" horiz-adv-x="0" d="M-880 -401q-104 0 -202 26l28 156q87 -35 160 -35q69 0 105 26.5t36 77.5q0 26 -13 60.5t-44 89.5h141q72 -96 72 -184q0 -50 -20 -90t-56.5 -68t-89 -43.5t-117.5 -15.5z" />
<glyph unicode="&#x328;" horiz-adv-x="0" d="M-806 -401q-99 0 -157 38.5t-58 104.5q0 120 156 258h141q-75 -80 -99 -117q-24 -38 -24 -63q0 -33 26 -53.5t68 -20.5q73 0 162 31l-31 -156q-49 -11 -95 -16.5t-89 -5.5z" />
<glyph unicode="&#x329;" horiz-adv-x="0" d="M-668 -218h189l-86 -444h-189z" />
<glyph unicode="&#x32a;" horiz-adv-x="0" d="M-895 -218h630l-73 -374h-188l36 186h-254l-36 -186h-188z" />
<glyph unicode="&#x32b;" horiz-adv-x="0" d="M-813 -489q-190 0 -190 206q0 21 1.5 43.5t6.5 47.5h143q0 -6 -0.5 -12t-0.5 -12q0 -113 69 -120q79 0 120 128q4 9 5 16h143q0 -6 -0.5 -12t-0.5 -12q0 -113 69 -120q71 0 113 109q7 17 12 35h143q-46 -207 -180 -272q-51 -25 -117 -25q-107 0 -155 70q-74 -70 -181 -70 z" />
<glyph unicode="&#x32c;" horiz-adv-x="0" d="M-1159 -109h178l154 -227l243 227h178l-329 -376h-241z" />
<glyph unicode="&#x32d;" horiz-adv-x="0" d="M-903 -109h241l183 -376h-178l-156 225l-241 -225h-178z" />
<glyph unicode="&#x32e;" horiz-adv-x="0" d="M-840 -491q-295 0 -295 264v33h144v-13q0 -61 44 -97t120 -36q81 0 139.5 38.5t83.5 107.5h143q-29 -143 -127.5 -220t-251.5 -77z" />
<glyph unicode="&#x32f;" horiz-adv-x="0" d="M-1192 -489q34 145 135 221t259 76q78 0 132 -18t87 -49.5t48 -74t15 -91.5q0 -15 -1.5 -31t-3.5 -33h-141v7q0 64 -41 100.5t-125 36.5t-140 -37t-81 -107h-143v0z" />
<glyph unicode="&#x330;" horiz-adv-x="0" d="M-702 -487q-35 0 -67.5 13t-72.5 44l-49 37q-2 2 -5 4q-42 33 -73 33q-34 0 -60 -34.5t-36 -94.5h-139q9 65 31.5 117.5t55 89.5t74 57t89.5 20q17 0 32.5 -3t32 -9.5t35 -18.5t41.5 -30l51 -39q39 -31 70 -31q38 0 64 33t36 96h139q-47 -284 -249 -284z" />
<glyph unicode="&#x331;" horiz-adv-x="0" d="M-1119 -218h631l-37 -188h-631z" />
<glyph unicode="&#x332;" horiz-adv-x="0" d="M-1233 -293h1233v-190h-1233v190z" />
<glyph unicode="&#x333;" horiz-adv-x="0" d="M-1233 -18h1233v-190h-1233v190zM-1233 -293h1233v-190h-1233v190z" />
<glyph unicode="&#x334;" horiz-adv-x="0" d="M-419 463q-90 0 -193 51q-10 5 -17.5 8.5t-12.5 5.5q-36 17 -65 28t-55 18t-50.5 9.5t-49.5 2.5q-78 0 -153.5 -29t-162.5 -92l44 229q90 61 168 88t161 27q27 0 51 -2.5t49.5 -8.5t54 -16.5t62.5 -25.5l30 -15q106 -55 199 -55q70 0 144 30.5t161 94.5l-45 -233 q-87 -60 -164 -87.5t-156 -27.5z" />
<glyph unicode="&#x335;" horiz-adv-x="0" d="M-1022 632h774l-38 -194h-774z" />
<glyph unicode="&#x336;" horiz-adv-x="0" d="M-1213 632h1233l-38 -194h-1233z" />
<glyph unicode="&#x337;" horiz-adv-x="0" d="M-1315 2l1277 1233l116 -121l-1277 -1231z" />
<glyph unicode="&#x338;" horiz-adv-x="0" d="M-1373 51l1358 1508l139 -115l-1358 -1507z" />
<glyph unicode="&#x339;" horiz-adv-x="0" d="M-944 -370q18 0 37 8t34.5 21.5t25.5 30t10 34.5q0 81 -73 81l26 132q46 0 80.5 -15.5t57 -40t33.5 -55.5t11 -62q0 -60 -24.5 -109t-63 -84t-86.5 -54t-94 -19z" />
<glyph unicode="&#x33a;" horiz-adv-x="0" d="M-895 -146h188l-36 -186h254l36 186h188l-73 -374h-630z" />
<glyph unicode="&#x33b;" horiz-adv-x="0" d="M-847 -218h573l-112 -573h-573zM-523 -620l44 231h-231l-44 -231h231z" />
<glyph unicode="&#x33c;" horiz-adv-x="0" d="M-1053 -489q46 207 180 272q51 25 117 25q107 0 155 -70q74 70 181 70q190 0 190 -206q0 -21 -1.5 -43.5t-6.5 -47.5h-143q0 6 0.5 12t0.5 12q0 112 -69 120q-79 0 -120 -128q-4 -9 -5 -16h-143q0 6 0.5 12t0.5 12q0 112 -69 120q-71 0 -113 -109q-7 -17 -12 -35h-143v0z " />
<glyph unicode="&#x33d;" horiz-adv-x="0" d="M-905 1326l154 129l-104 129l160 134l105 -129l154 129l108 -134l-154 -129l104 -129l-160 -134l-105 129l-154 -129z" />
<glyph unicode="&#x33e;" horiz-adv-x="0" d="M-788 1340h8q57 0 92 15t40 42q2 11 -3.5 25.5t-16.5 29.5l-34 46q-38 51 -38 89q0 11 3 23q16 82 97.5 123.5t218.5 41.5l-24 -122h-8q-121 0 -132 -55q-3 -20 21 -54q2 -2 2.5 -4t1.5 -4l29 -41q20 -30 29 -49.5t9 -38.5q0 -12 -3 -25q-16 -82 -97.5 -123t-218.5 -41z " />
<glyph unicode="&#x33f;" horiz-adv-x="0" d="M0 1272v-190h-1233v190h1233z" />
<glyph unicode="&#x358;" horiz-adv-x="0" d="M28 1585h272l-47 -246h-274z" />
<glyph unicode="&#x361;" horiz-adv-x="0" d="M-1502 1506q3 58 43 102t106.5 76t155 54t189 36t208.5 20.5t213 8.5h45q81 0 169 -6t172.5 -18.5t161 -32.5t134.5 -48.5t92 -65.5t34 -83q0 -22 -7 -43h-143q0 71 -191 107q-194 37 -496 37q-303 0 -512 -37q-205 -36 -231 -107h-143v0z" />
<glyph unicode="&#x384;" d="M887 1638h321l-442 -376h-197z" />
<glyph unicode="&#x385;" d="M959 1946h321l-442 -376h-197zM379 1339q-15 0 -22.5 9t-4.5 24l36 186q4 27 32 27h177q16 0 22.5 -9t3.5 -24l-37 -186q-5 -27 -32 -27h-175zM874 1339q-15 0 -22.5 9t-4.5 24l36 186q4 27 32 27h178q16 0 22.5 -9t3.5 -24l-37 -186q-5 -27 -32 -27h-176z" />
<glyph unicode="&#x386;" d="M262 1518h321l-442 -376h-197zM614 1493h360l113 -1493h-293l-14 369h-400l-162 -369h-299zM769 612l-20 607l-264 -607h284z" />
<glyph unicode="&#x388;" d="M-79 1502h321l-442 -376h-197zM297 1493h932l-51 -260h-635l-63 -322h575l-49 -260h-575l-76 -391h635l-52 -260h-929z" />
<glyph unicode="&#x389;" d="M-82 1502h321l-442 -376h-197zM283 1493h295l-111 -569h369l110 569h295l-291 -1493h-295l129 664h-368l-129 -664h-295z" />
<glyph unicode="&#x38a;" d="M-43 1502h321l-442 -376h-197zM78 260h297l188 973h-297l51 260h889l-51 -260h-297l-188 -973h297l-52 -260h-888z" />
<glyph unicode="&#x38c;" d="M100 1502h321l-442 -376h-197zM489 -56q-212 0 -324 127t-112 384q0 92 14 194.5t38.5 202t58.5 190.5t74 160q82 144 203 217.5t286 73.5q211 0 323.5 -126t112.5 -383q0 -85 -12.5 -184.5t-36 -199.5t-57 -194t-76.5 -169q-82 -144 -204 -218.5t-288 -74.5zM520 206 q63 0 108.5 35.5t82.5 104.5q25 46 47.5 109t43.5 148q12 50 23 102.5t18.5 104t12 99.5t4.5 88q0 236 -163 236q-65 0 -110 -36t-81 -105q-23 -43 -46 -105.5t-46 -152.5q-15 -60 -26 -119t-17.5 -112.5t-10 -97.5t-3.5 -74q0 -107 40 -166t123 -59z" />
<glyph unicode="&#x38e;" d="M427 534q15 76 22 150.5t7 144.5q0 72 -7 135t-19.5 112.5t-31 82.5t-40.5 44q-72 35 -149 35q-40 0 -82 -9l51 264q19 6 42 8.5t49 2.5q29 0 63.5 -3t72.5 -11q264 -48 260 -433q180 377 428 433q38 8 67 8q61 0 104 -31q69 -50 69 -135q0 -83 -68 -202 q-20 -34 -51 -50.5t-64 -16.5q-25 0 -48 9t-40 26.5t-26.5 43.5t-6.5 61q-119 -136 -193.5 -301.5t-113.5 -367.5l-104 -534h-295zM-216 1502h321l-442 -376h-197z" />
<glyph unicode="&#x38f;" d="M164 1502h321l-442 -376h-197zM4 211h238q-71 78 -104.5 167.5t-33.5 203.5q0 90 21 200q30 154 90 279t144 213.5t189 137t224 48.5q97 0 172.5 -32.5t127.5 -93t79.5 -148t27.5 -197.5q0 -96 -21 -207q-18 -95 -47 -176t-70.5 -151t-96.5 -130t-125 -114h238l-41 -211 h-471l52 268q51 42 90.5 91.5t70 108t52.5 128t39 152.5q24 120 24 209q0 70 -15 121q-17 59 -51.5 87.5t-84.5 28.5q-53 0 -99 -31t-85 -88.5t-69 -140.5t-50 -186q-21 -108 -21 -196q0 -181 90 -284l-52 -268h-473z" />
<glyph unicode="&#x390;" d="M951 1936h321l-442 -376h-197zM382 1320q-15 0 -22.5 9t-4.5 24l36 186q4 27 32 27h177q16 0 22.5 -9t3.5 -24l-37 -186q-5 -27 -32 -27h-175zM857 1320q-15 0 -22.5 9t-4.5 24l36 186q4 27 32 27h178q16 0 22.5 -9t3.5 -24l-37 -186q-5 -27 -32 -27h-176zM765 -8 q-101 0 -171.5 11t-115.5 38t-65.5 71t-20.5 110q0 32 4.5 68.5t12.5 80.5l100 524h-201l44 225h493l-147 -763q-2 -12 -3.5 -22.5t-1.5 -21.5q0 -51 33 -73.5t103 -22.5h58l-44 -225h-78z" />
<glyph unicode="&#x391;" d="M590 1493h360l113 -1493h-293l-14 369h-400l-162 -369h-299zM745 612l-20 607l-264 -607h284z" />
<glyph unicode="&#x392;" d="M277 1495h482q212 0 319 -82t107 -250q0 -80 -24.5 -145t-71 -113t-114.5 -78.5t-155 -40.5q68 -6 122 -28t92 -60.5t58.5 -93.5t20.5 -127q0 -50 -9.5 -99t-28.5 -94t-46 -85.5t-61 -71.5q-36 -33 -82.5 -57t-106.5 -39.5t-137 -23t-174 -7.5h-481zM646 913 q121 0 182.5 54.5t61.5 151.5q0 75 -40.5 108t-135.5 33h-197l-68 -347h197zM515 236q151 0 227 64.5t76 195.5q0 43 -10 77t-34.5 57.5t-66.5 35.5t-106 12h-197l-86 -442h197z" />
<glyph unicode="&#x393;" d="M342 1493h930l-50 -260h-635l-240 -1233h-295z" />
<glyph unicode="&#x394;" d="M582 1493h361l113 -1493h-1167zM751 260l-41 963l-417 -963h458z" />
<glyph unicode="&#x395;" d="M317 1493h932l-51 -260h-635l-63 -322h575l-49 -260h-575l-76 -391h635l-52 -260h-929z" />
<glyph unicode="&#x396;" d="M14 244l858 989h-643l52 260h1009l-49 -244l-876 -989h700l-51 -260h-1047z" />
<glyph unicode="&#x397;" d="M283 1493h295l-111 -569h369l110 569h295l-291 -1493h-295l129 664h-368l-129 -664h-295z" />
<glyph unicode="&#x398;" d="M469 -29q-202 0 -303.5 120t-101.5 346q0 64 8 144t24 165q35 187 96.5 331.5t147.5 242.5t195.5 149t239.5 51q202 0 303 -119.5t101 -346.5q0 -64 -8 -144t-24 -166q-34 -184 -95 -327.5t-147 -242.5t-195.5 -151t-240.5 -52zM525 236q65 0 108.5 33.5t76.5 89.5 q36 61 66 146t51.5 177.5t33 184t11.5 165.5q0 64 -9 103q-13 57 -48 88.5t-98 31.5t-106 -32t-77 -89q-25 -41 -46.5 -93.5t-39.5 -111t-32 -121t-24 -124t-15 -119t-5 -106.5q0 -63 9 -102q15 -67 53 -94t91 -27zM526 911h254l-50 -260h-254z" />
<glyph unicode="&#x399;" d="M78 260h297l188 973h-297l51 260h889l-51 -260h-297l-188 -973h297l-52 -260h-888z" />
<glyph unicode="&#x39a;" d="M266 1493h295l-108 -557l563 557h348l-606 -604l338 -889h-303l-254 670l-172 -170l-95 -500h-294z" />
<glyph unicode="&#x39b;" d="M590 1493h361l113 -1493h-295l-51 1223l-526 -1223h-295z" />
<glyph unicode="&#x39c;" d="M231 1493h353l49 -655l297 655h360l-289 -1493h-253l237 1198l-293 -655h-219l-47 655l-231 -1198h-252z" />
<glyph unicode="&#x39d;" d="M266 1493h303l215 -1085l211 1085h260l-288 -1493h-293l-225 1085l-211 -1085h-263z" />
<glyph unicode="&#x39e;" d="M283 1493h959l-50 -260h-959zM412 924h480l-51 -260h-479zM43 260h959l-50 -260h-959z" />
<glyph unicode="&#x39f;" d="M497 -29q-212 0 -324 127t-112 384q0 92 14 194.5t38.5 202t58.5 190.5t74 160q82 144 203 217.5t286 73.5q211 0 323.5 -126t112.5 -383q0 -85 -12.5 -184.5t-36 -199.5t-57 -194t-76.5 -169q-82 -144 -204 -218.5t-288 -74.5zM528 233q63 0 108.5 35.5t82.5 104.5 q25 46 47.5 109t43.5 148q12 50 23 102.5t18.5 104t12 99.5t4.5 88q0 236 -163 236q-65 0 -110 -36t-81 -105q-23 -43 -46 -105.5t-46 -152.5q-15 -60 -26 -119t-17.5 -112.5t-10 -97.5t-3.5 -74q0 -107 40 -166t123 -59z" />
<glyph unicode="&#x3a0;" d="M292 1493h959l-290 -1493h-295l240 1233h-369l-240 -1233h-295z" />
<glyph unicode="&#x3a1;" d="M317 1493h420q236 0 359.5 -91t123.5 -279q0 -54 -10 -109t-27 -106t-41.5 -96.5t-52.5 -80.5q-78 -96 -203 -134t-292 -38h-164l-109 -559h-295zM622 807q147 0 219 67.5t72 194.5q0 48 -11.5 81.5t-38.5 54.5t-71 30.5t-108 9.5h-121l-84 -438h143z" />
<glyph unicode="&#x3a3;" d="M3 260l496 487l-306 487l50 259h1046l-50 -260h-706l307 -486l-497 -487h706l-50 -260h-1046z" />
<glyph unicode="&#x3a4;" d="M575 1235h-383l49 258h1059l-51 -258h-379l-240 -1235h-294z" />
<glyph unicode="&#x3a5;" d="M432 534q15 76 22 150.5t7 144.5q0 72 -7 135t-19.5 112.5t-31 82.5t-40.5 44q-72 35 -149 35q-40 0 -82 -9l51 264q19 6 42 8.5t49 2.5q29 0 63.5 -3t72.5 -11q264 -48 260 -433q180 377 428 433q38 8 67 8q61 0 104 -31q69 -50 69 -135q0 -83 -68 -202 q-20 -34 -51 -50.5t-64 -16.5q-25 0 -48 9t-40 26.5t-26.5 43.5t-6.5 61q-119 -136 -193.5 -301.5t-113.5 -367.5l-104 -534h-295z" />
<glyph unicode="&#x3a6;" d="M255 260h119l14 70q-65 9 -121.5 31t-97.5 58.5t-64.5 89.5t-23.5 124q0 25 2.5 55.5t7.5 56.5q17 99 61.5 172.5t107 124.5t137.5 80t153 39l14 72h-120l51 260h533l-50 -260h-119l-14 -72q65 -11 121 -32t97.5 -57.5t65 -90t23.5 -128.5q0 -23 -2.5 -51t-8.5 -58 q-20 -103 -64.5 -176.5t-106 -123t-135.5 -77t-152 -37.5l-14 -70h120l-51 -260h-533zM511 965l-39 -27q-60 -42 -91 -105.5t-31 -131.5q0 -41 11.5 -78.5t35.5 -69.5q11 -16 29 -27zM721 526q14 8 23 14t17 13q30 27 53.5 58t39.5 64.5t24.5 67t8.5 65.5q0 39 -12.5 73 t-38.5 57l-30 27z" />
<glyph unicode="&#x3a7;" d="M471 782l-287 711h291l187 -463l360 463h321l-573 -737l301 -756h-291l-200 512l-400 -512h-323z" />
<glyph unicode="&#x3a8;" d="M255 260h119l26 132q-139 44 -210 176q-31 57 -47 129t-16 168q0 65 7.5 132.5t23.5 148.5l67 347h295l-67 -347q-14 -69 -21 -129.5t-7 -119.5q0 -45 4 -77.5t12 -61.5q5 -20 10 -32.5t10 -20.5l153 788h295l-153 -788q9 9 19.5 23.5t20.5 29.5q45 70 80 165t60 223 l67 347h295l-67 -347q-38 -195 -103.5 -338.5t-153.5 -239.5q-62 -67 -133 -111t-146 -65l-26 -132h120l-51 -260h-533z" />
<glyph unicode="&#x3a9;" d="M90 211h238q-121 110 -174 245q-54 135 -54 325q0 157 36 283t103 214q65 85 159.5 133.5t216.5 48.5q121 0 216 -47.5t162 -135.5q68 -88 104 -212.5t36 -282.5q0 -191 -54 -326q-53 -135 -174 -245h238v-211h-471v268q81 80 120 196q39 117 39 287q0 210 -56 327 q-56 116 -159 116q-101 0 -158 -116q-57 -117 -57 -327q0 -170 40 -287q17 -51 46 -101.5t76 -94.5v-268h-473v211z" />
<glyph unicode="&#x3aa;" d="M473 1608q-16 0 -22.5 9t-3.5 24l38 186q6 27 32 27h175q16 0 22.5 -9t3.5 -24l-37 -186q-5 -27 -32 -27h-176zM869 1608q-16 0 -22.5 9t-3.5 24l37 186q4 27 32 27h175q15 0 22.5 -9t4.5 -24l-36 -186q-5 -27 -32 -27h-177zM78 260h297l188 973h-297l51 260h889 l-51 -260h-297l-188 -973h297l-52 -260h-888z" />
<glyph unicode="&#x3ab;" d="M483 1608q-16 0 -22.5 9t-3.5 24l38 186q6 27 32 27h175q16 0 22.5 -9t3.5 -24l-37 -186q-5 -27 -32 -27h-176zM879 1608q-16 0 -22.5 9t-3.5 24l37 186q4 27 32 27h175q15 0 22.5 -9t4.5 -24l-36 -186q-5 -27 -32 -27h-177zM432 534q15 76 22 150.5t7 144.5q0 72 -7 135 t-19.5 112.5t-31 82.5t-40.5 44q-72 35 -149 35q-40 0 -82 -9l51 264q19 6 42 8.5t49 2.5q29 0 63.5 -3t72.5 -11q264 -48 260 -433q180 377 428 433q38 8 67 8q61 0 104 -31q69 -50 69 -135q0 -83 -68 -202q-20 -34 -51 -50.5t-64 -16.5q-25 0 -48 9t-40 26.5t-26.5 43.5 t-6.5 61q-119 -136 -193.5 -301.5t-113.5 -367.5l-104 -534h-295z" />
<glyph unicode="&#x3ac;" d="M887 1673h321l-442 -376h-197zM953 0q-160 0 -224 84q-15 21 -17 29l-31.5 -31.5t-25.5 -24.5t-24.5 -20t-28.5 -19q-45 -27 -91 -36t-100 -9q-56 0 -106 8t-92 26t-75 46.5t-56 69.5q-25 45 -36 104t-11 140q0 93 14 181t41.5 167t68.5 147.5t95 121.5q45 44 94 75 t99 50.5t100 28t97 8.5q97 0 168.5 -34t108.5 -100l57 108h282l-305 -577l-3 -153q-3 -165 65 -165h82l-44 -225h-102zM701 589l1 163q1 80 -29 116.5t-79 36.5q-39 0 -82 -22.5t-81 -69.5q-30 -37 -53 -85t-38.5 -100t-23.5 -105.5t-8 -101.5q0 -45 6 -73.5t16 -48.5 q19 -39 50 -59t63 -20q29 0 56 16.5t44 48.5z" />
<glyph unicode="&#x3ad;" d="M887 1666h321l-442 -376h-197zM568 -22q-244 0 -359 68.5t-115 199.5q0 15 1.5 32t5.5 34q25 121 116 195t253 97q-115 17 -175.5 68t-60.5 131q0 12 1.5 23.5t3.5 23.5q13 66 54.5 119.5t109 91.5t160 58.5t208.5 20.5q85 0 180 -12q2 -1 5 -1t5 -1q15 -2 51 -10.5 t94 -23.5l-42 -215l-24 8q-45 15 -81 25t-68 16.5t-64.5 9t-70.5 2.5q-56 0 -98 -7t-81 -27l-25 -15q-42 -28 -48 -69q-1 -5 -1.5 -10.5t-0.5 -9.5q0 -16 12 -30.5t32 -26.5q55 -33 155 -33h151l-43 -223h-151q-61 0 -112 -12.5t-85 -34.5l-20 -13q-57 -40 -69 -106 q-3 -12 -3 -21q0 -21 13.5 -41t36.5 -36q35 -25 80.5 -33.5t105.5 -8.5q54 0 104.5 5t102.5 14q21 4 31 6t19 4q11 3 42 13.5t82 29.5l-43 -219q-5 -1 -9 -2t-9 -3q-50 -14 -95.5 -24t-88.5 -16t-85.5 -8.5t-87.5 -2.5z" />
<glyph unicode="&#x3ae;" d="M877 1673h321l-442 -376h-197zM812 682q12 61 12 104q0 63 -27 93t-81 30q-88 0 -146 -71.5t-82 -196.5l-125 -641h-291l218 1120h262l-4 -168q50 94 134.5 144.5t193.5 50.5q124 0 188.5 -66.5t64.5 -200.5q0 -35 -4.5 -73t-12.5 -80l-224 -1153h-291z" />
<glyph unicode="&#x3af;" d="M857 1648h321l-442 -376h-197zM762 -8q-101 0 -171.5 11t-115.5 38t-65.5 71t-20.5 110q0 32 4.5 68.5t12.5 80.5l100 524h-201l44 225h493l-147 -763q-2 -12 -3.5 -22.5t-1.5 -21.5q0 -51 33 -73.5t103 -22.5h58l-44 -225h-78z" />
<glyph unicode="&#x3b0;" d="M959 1946h321l-442 -376h-197zM379 1339q-15 0 -22.5 9t-4.5 24l36 186q4 27 32 27h177q16 0 22.5 -9t3.5 -24l-37 -186q-5 -27 -32 -27h-175zM874 1339q-15 0 -22.5 9t-4.5 24l36 186q4 27 32 27h178q16 0 22.5 -9t3.5 -24l-37 -186q-5 -27 -32 -27h-176zM484 0 q-88 0 -148 16t-97 46t-53.5 73t-16.5 97q0 29 4.5 66t12.5 81l100 516h-165l44 225h457l-147 -755q-2 -11 -3 -21.5t-1 -18.5q0 -53 29.5 -76.5t75.5 -23.5q94 0 167 101t118 314q11 53 18.5 111.5t7.5 136.5q0 39 -2.5 70.5t-9.5 59.5t-18.5 53t-30.5 49h291 q26 -45 40 -119.5t14 -165.5q0 -55 -5 -102t-14 -95q-28 -150 -82 -268.5t-136 -200.5t-194 -125.5t-256 -43.5z" />
<glyph unicode="&#x3b1;" d="M953 0q-160 0 -224 84q-15 21 -17 29l-31.5 -31.5t-25.5 -24.5t-24.5 -20t-28.5 -19q-45 -27 -91 -36t-100 -9q-56 0 -106 8t-92 26t-75 46.5t-56 69.5q-25 45 -36 104t-11 140q0 93 14 181t41.5 167t68.5 147.5t95 121.5q45 44 94 75t99 50.5t100 28t97 8.5 q97 0 168.5 -34t108.5 -100l57 108h282l-305 -577l-3 -153q-3 -165 65 -165h82l-44 -225h-102zM701 589l1 163q1 80 -29 116.5t-79 36.5q-39 0 -82 -22.5t-81 -69.5q-30 -37 -53 -85t-38.5 -100t-23.5 -105.5t-8 -101.5q0 -45 6 -73.5t16 -48.5q19 -39 50 -59t63 -20 q29 0 56 16.5t44 48.5z" />
<glyph unicode="&#x3b2;" d="M258 1113q45 229 175 342.5t341 113.5q111 0 188 -29.5t124.5 -78.5t69 -112.5t21.5 -132.5q0 -60 -14.5 -119.5t-41 -113t-63 -98.5t-80.5 -75q45 -16 77 -41t52 -56.5t29 -69t9 -77.5q0 -26 -3 -56t-8 -57q-18 -104 -58 -189.5t-102 -147t-145 -97.5t-186 -40 q-8 0 -12 -0.5t-18 -0.5q-71 0 -142.5 21t-124.5 70l-97 -495h-291zM410 402q18 -40 44 -71t56 -52.5t62.5 -33t63.5 -11.5q32 0 62.5 12.5t57 38.5t46 67t30.5 97q6 31 6 58q0 151 -214 151h-16t-16 -1l43 223q55 -2 99.5 24t76 68t48.5 93t17 100q0 34 -8.5 64t-26 53 t-44.5 36.5t-63 13.5q-71 0 -117.5 -55t-69.5 -170z" />
<glyph unicode="&#x3b3;" d="M356 0l-87 752q-5 38 -16 62.5t-29 41.5q-12 11 -27.5 20t-29.5 9h-42l46 235h80q54 0 104.5 -21t91 -60.5t67.5 -97.5t35 -133l41 -394l381 706h297l-620 -1120l-83 -426h-292z" />
<glyph unicode="&#x3b4;" d="M491 -29q-100 0 -178 29.5t-132 84.5t-82.5 134t-28.5 178q0 39 4.5 79t12.5 83q28 142 85 245t139 184q15 15 30 28.5t29 24.5t25.5 17.5t18.5 6.5q-56 26 -82 70.5t-26 97.5q0 34 10.5 69.5t32 69.5t54 65t75.5 55q66 37 158.5 57t210.5 20q45 0 89.5 -3t86.5 -9 q2 -1 5 -1t5 -1q15 -2 51 -10.5t94 -23.5l-42 -215q-8 3 -11 4l-4.5 1.5t-3 0.5t-5.5 2q-45 14 -78.5 24t-64.5 16.5t-62.5 9.5t-73.5 3q-61 0 -103.5 -7t-80.5 -27l-24 -15q-51 -32 -51 -88q0 -29 13.5 -45t34.5 -24t46.5 -10.5t50.5 -3.5q109 -5 188.5 -36t131.5 -85 t77 -130t25 -172q0 -42 -4.5 -82t-12.5 -84q-27 -136 -85 -245t-140.5 -185t-186.5 -116.5t-221 -40.5zM538 209q52 0 98.5 23.5t84.5 68.5t66 110t44 148q7 35 10.5 67t3.5 62q0 106 -44 163.5t-128 57.5q-53 0 -99 -24t-84 -69t-66 -110t-44 -147q-7 -35 -10.5 -67 t-3.5 -62q0 -106 44 -163.5t128 -57.5z" />
<glyph unicode="&#x3b5;" d="M568 -22q-244 0 -359 68.5t-115 199.5q0 15 1.5 32t5.5 34q25 121 116 195t253 97q-115 17 -175.5 68t-60.5 131q0 12 1.5 23.5t3.5 23.5q13 66 54.5 119.5t109 91.5t160 58.5t208.5 20.5q85 0 180 -12q2 -1 5 -1t5 -1q15 -2 51 -10.5t94 -23.5l-42 -215l-24 8 q-45 15 -81 25t-68 16.5t-64.5 9t-70.5 2.5q-56 0 -98 -7t-81 -27l-25 -15q-42 -28 -48 -69q-1 -5 -1.5 -10.5t-0.5 -9.5q0 -16 12 -30.5t32 -26.5q55 -33 155 -33h151l-43 -223h-151q-61 0 -112 -12.5t-85 -34.5l-20 -13q-57 -40 -69 -106q-3 -12 -3 -21q0 -21 13.5 -41 t36.5 -36q35 -25 80.5 -33.5t105.5 -8.5q54 0 104.5 5t102.5 14q21 4 31 6t19 4q11 3 42 13.5t82 29.5l-43 -219q-5 -1 -9 -2t-9 -3q-50 -14 -95.5 -24t-88.5 -16t-85.5 -8.5t-87.5 -2.5z" />
<glyph unicode="&#x3b6;" d="M623 -201q35 0 59.5 8t40.5 21.5t25 31t12 36.5t-0.5 37.5t-15.5 33.5t-32 24t-50 9q-149 0 -252.5 39.5t-164.5 107.5t-81 160t-3 196.5t69.5 216.5t136.5 221t198 209t254 181h-471l44 225h876l-44 -225q-684 -378 -765 -797q-58 -297 247 -309q69 -3 123 -25t88 -63.5 t45.5 -101.5t-3.5 -139q-15 -74 -49.5 -133.5t-84.5 -101.5t-112.5 -64.5t-133.5 -22.5z" />
<glyph unicode="&#x3b7;" d="M809 682q12 61 12 104q0 63 -27 93t-81 30q-88 0 -146 -71.5t-82 -196.5l-125 -641h-291l218 1120h262l-4 -168q50 94 134.5 144.5t193.5 50.5q124 0 188.5 -66.5t64.5 -200.5q0 -35 -4.5 -73t-12.5 -80l-224 -1153h-291z" />
<glyph unicode="&#x3b8;" d="M502 -24q-95 0 -168.5 36t-123.5 102.5t-76 161.5t-26 214q0 60 7 134.5t21 151.5q33 178 97.5 325t153.5 252.5t197.5 163.5t228.5 58q93 0 166 -36t123 -102.5t76 -162t26 -215.5q0 -64 -7 -136.5t-21 -146.5q-15 -82 -39.5 -163t-57 -156.5t-72.5 -143t-86 -122.5 q-92 -110 -199 -162.5t-220 -52.5zM901 887q6 48 9.5 93t3.5 87q0 61 -8 112t-26 87.5t-46 56.5t-68 20q-53 0 -98.5 -35t-84.5 -96t-71 -144.5t-57 -180.5h446zM546 209q54 0 100.5 36t85.5 98t70 144t55 175h-446q-6 -48 -9.5 -92.5t-3.5 -86.5q0 -60 8 -110.5t25.5 -86.5 t45.5 -56.5t69 -20.5z" />
<glyph unicode="&#x3b9;" d="M772 -8q-101 0 -171.5 11t-115.5 38t-65.5 71t-20.5 110q0 32 4.5 68.5t12.5 80.5l100 524h-201l44 225h493l-147 -763q-2 -12 -3.5 -22.5t-1.5 -21.5q0 -51 33 -73.5t103 -22.5h58l-44 -225h-78v0z" />
<glyph unicode="&#x3ba;" d="M283 1120h293l-74 -381l426 381h355l-505 -418l311 -702h-324l-205 524l-119 -96l-83 -428h-293z" />
<glyph unicode="&#x3bb;" d="M609 1069l-18 119q-6 37 -15.5 62.5t-28.5 41t-49.5 22.5t-77.5 7h-112l45 235h150q94 0 160.5 -20.5t111.5 -62.5t71.5 -105t38.5 -148l178 -1220h-297l-96 655l-383 -655h-297z" />
<glyph unicode="&#x3bc;" d="M246 1120h289l-132 -680q-12 -56 -12 -94q0 -63 34 -98t95 -35q161 0 207 227l131 680h289l-150 -776q-2 -17 -4 -30t-3 -21q-3 -17 -3 -25q0 -55 41 -55q12 0 26.5 6t35.5 19l-43 -222q-46 -23 -86 -34t-76 -11q-72 0 -110 37t-50 121q-107 -158 -246 -158 q-58 0 -96 23.5t-53 71.5l-97 -494h-288z" />
<glyph unicode="&#x3bd;" d="M156 1120h306l62 -825q76 66 136 124.5t103.5 114.5t71 110t39.5 111q3 14 4 27.5t1 30.5q0 16 -1 28t-4 30q-10 64 -32 132t-53 117h307q21 -35 36.5 -77t26 -85.5t16 -86.5t5.5 -82q0 -41 -6 -74q-11 -62 -44 -128.5t-80.5 -132.5t-105 -130.5t-118 -123t-119.5 -110 t-108 -90.5h-356z" />
<glyph unicode="&#x3be;" d="M613 -201q35 0 59.5 8t40.5 21.5t25 31t12 36.5q2 10 2 21q0 37 -22.5 57.5t-77.5 25.5q-24 3 -73 6t-108 12.5t-121 28.5t-113 54t-83.5 88.5t-32.5 132.5q0 76 33 150.5t93 136.5t143.5 107t185.5 63q-71 10 -122 32t-84 52.5t-48.5 67.5t-15.5 77q0 47 19.5 95 t56 91.5t88 79t115.5 57.5h-247l44 225h876l-44 -225q-152 0 -265.5 -22t-188.5 -57.5t-112.5 -80t-37.5 -89.5q0 -38 26 -73.5t78 -63t129.5 -45t181.5 -20.5l-43 -223q-252 -4 -394 -65.5t-163 -181.5q-3 -17 -3 -32q0 -32 12.5 -55.5t34 -40t49 -26.5t58 -16t61.5 -9.5 t59 -5.5q18 -1 44 -5t55.5 -13t58.5 -25t52 -43t37.5 -66t14.5 -93q0 -39 -9 -84q-15 -74 -49.5 -133.5t-84.5 -101.5t-112.5 -64.5t-133.5 -22.5z" />
<glyph unicode="&#x3bf;" d="M533 -29q-103 0 -185.5 30.5t-140 91t-88.5 151t-31 210.5q0 91 18 178t53.5 164t87.5 142t120 112t151.5 73t181.5 26q103 0 185.5 -30.5t140 -91t88.5 -151t31 -211.5q0 -137 -40.5 -262.5t-118.5 -221.5t-192 -153t-261 -57zM557 207q67 0 121.5 40t92.5 104.5 t58.5 146.5t20.5 166q0 128 -46 187.5t-125 59.5q-71 0 -126.5 -41t-93 -106.5t-57 -146.5t-19.5 -161q0 -128 47.5 -188.5t126.5 -60.5z" />
<glyph unicode="&#x3c0;" d="M1016 -39q-43 0 -76 4.5t-62 12.5q-33 10 -53 22.5t-34 26.5t-25 32t-19 43q-14 45 -14 131v658h-274v-891h-285v891h-162v209h1168v-209h-162v-529q0 -37 2 -63.5t5 -45.5t7.5 -31.5t10.5 -19.5q24 -32 94 -32h23.5t18.5 1l33 3v-188q-41 -13 -93 -19q-25 -3 -51.5 -4.5 t-51.5 -1.5z" />
<glyph unicode="&#x3c1;" d="M139 552q28 147 80 258t129 186t180 113t234 38q107 0 182 -24.5t122.5 -72t69.5 -116t22 -155.5q0 -97 -24 -221q-28 -144 -78 -253.5t-117.5 -183.5t-150 -112t-174.5 -38q-101 0 -161.5 46t-97.5 141l-114 -584h-292zM573 215q48 0 88.5 23.5t75.5 68.5q27 35 48.5 81 t37 97.5t23.5 105.5t8 105q0 38 -4.5 67t-13.5 52q-18 46 -51 69t-78 23q-47 0 -90.5 -24.5t-79.5 -69.5t-63.5 -109t-41.5 -143q-7 -38 -10 -74.5t-3 -62.5q0 -97 39.5 -153t114.5 -56z" />
<glyph unicode="&#x3c2;" d="M600 -201q66 0 97.5 28t39.5 69q2 10 2 22q0 35 -23 56.5t-77 25.5q-26 2 -72.5 3t-101 10t-111.5 30.5t-103 63t-75 107.5t-29 166q0 43 5.5 90t13.5 89q27 138 86 247.5t145.5 185.5t197 116.5t239.5 40.5q91 0 169.5 -20.5t153.5 -65.5l-52 -268q-54 55 -124.5 84.5 t-152.5 29.5q-145 0 -239 -92t-126 -258q-12 -63 -12 -112q0 -74 23 -117t58 -65t75 -29.5t75 -10.5q21 -2 48.5 -6t56.5 -13t57 -25.5t50.5 -43.5t36 -66t13.5 -94q0 -17 -1.5 -37.5t-6.5 -43.5q-14 -73 -48.5 -132.5t-84.5 -101.5t-113 -65t-134 -23z" />
<glyph unicode="&#x3c3;" d="M469 -29q-101 0 -180 29.5t-133 84.5t-82.5 134t-28.5 178q0 39 4.5 79t12.5 83q25 129 79 233t134 177t184 112t230 39h552l-44 -225h-211q60 -51 87.5 -121.5t27.5 -152.5q0 -63 -16 -129.5t-45 -131t-71 -123.5t-94 -107q-171 -159 -406 -159zM510 209q62 0 114 33.5 t90 85t62 113.5t31 118q2 12 3 29t1 28q0 57 -34.5 110.5t-99.5 101.5q-23 17 -49 33t-46 26q-40 -11 -68 -30t-50 -45q-28 -33 -50.5 -78t-38.5 -95.5t-24.5 -103.5t-8.5 -102q0 -38 5.5 -71.5t17.5 -59.5q21 -47 58 -70t87 -23z" />
<glyph unicode="&#x3c4;" d="M767 0q-101 0 -171.5 11t-115.5 38t-65.5 71t-20.5 110q0 32 4.5 68.5t12.5 80.5l100 516h-335l44 225h962l-44 -225h-335l-103 -530q-2 -12 -3.5 -23t-1.5 -22q0 -51 33 -73t103 -22h58l-44 -225h-78v0z" />
<glyph unicode="&#x3c5;" d="M494 0q-88 0 -148 16t-97 46t-53.5 73t-16.5 97q0 29 4.5 66t12.5 81l100 516h-165l44 225h457l-147 -755q-2 -11 -3 -21.5t-1 -18.5q0 -53 29.5 -76.5t75.5 -23.5q94 0 167 101t118 314q11 53 18.5 111.5t7.5 136.5q0 39 -2.5 70.5t-9.5 59.5t-18.5 53t-30.5 49h291 q26 -45 40 -119.5t14 -165.5q0 -55 -5 -102t-14 -95q-28 -150 -82 -268.5t-136 -200.5t-194 -125.5t-256 -43.5z" />
<glyph unicode="&#x3c6;" d="M369 0q-89 14 -149 52t-97.5 93t-53.5 123t-16 143q0 88 19 176.5t50 166.5t70.5 141t79.5 101q25 24 61 47.5t75.5 41.5t78 28t69.5 7l-44 -229q-11 0 -35 -24.5t-48 -60.5q-19 -29 -37 -66.5t-31.5 -80.5t-21.5 -89t-8 -92q0 -66 20 -123.5t68 -98.5l76 392 q48 246 157.5 364t264.5 118q79 0 138 -30t93 -93q26 -48 38 -114t12 -143q0 -74 -12 -155t-38 -160t-67.5 -152t-101.5 -132t-139 -99t-179 -52l-82 -426h-292zM711 256q152 97 205 339q9 42 14.5 84t5.5 77q0 12 -1 25t-3 25q-11 58 -43 58q-60 0 -102 -216z" />
<glyph unicode="&#x3c7;" d="M435 348l-105 404q-20 75 -51 104q-13 12 -29 20.5t-28 8.5h-79l45 235h117q51 0 96 -15.5t84 -51.5t70.5 -96t54.5 -149l38 -148l314 460h297l-529 -775l104 -403q8 -32 20 -59.5t31 -44.5q13 -12 29 -20.5t28 -8.5h80l-45 -235h-118q-50 0 -95.5 15t-84 51t-70.5 96 t-55 150l-38 146l-313 -458h-297z" />
<glyph unicode="&#x3c8;" d="M359 0q-309 51 -309 391q0 89 21 197l103 532h292l-102 -525q-21 -110 -21 -188q0 -132 59 -182l174 895h292l-174 -895q129 100 182 370l102 525h292l-103 -532q-104 -537 -516 -588l-83 -426h-292z" />
<glyph unicode="&#x3c9;" d="M287 -29q-66 0 -117 22.5t-80 60.5q-51 67 -51 217q0 93 18 203.5t50.5 224t78.5 222.5t103 199h262q-42 -86 -72.5 -160.5t-53.5 -142t-40 -131t-30 -129.5q-9 -42 -16 -84t-12.5 -80t-8.5 -69.5t-3 -52.5q0 -22 3 -34q6 -26 39 -28q71 0 163 456h252 q-23 -124 -34.5 -213.5t-11.5 -146.5q0 -96 33 -96q31 1 49 28q15 23 36 88t39.5 159t31.5 209.5t13 239.5q0 94 -9 187h262q26 -113 26 -256q0 -79 -8 -161t-22.5 -161t-36 -153.5t-48.5 -138t-59.5 -114t-68.5 -82.5q-44 -38 -104.5 -60.5t-124.5 -22.5q-175 0 -189 179 q-84 -179 -259 -179z" />
<glyph unicode="&#x3ca;" d="M412 1320q-15 0 -22.5 9t-4.5 24l36 186q4 27 32 27h177q16 0 22.5 -9t3.5 -24l-37 -186q-5 -27 -32 -27h-175zM807 1320q-15 0 -22.5 9t-4.5 24l36 186q4 27 32 27h178q16 0 22.5 -9t3.5 -24l-37 -186q-5 -27 -32 -27h-176zM765 -8q-101 0 -171.5 11t-115.5 38t-65.5 71 t-20.5 110q0 32 4.5 68.5t12.5 80.5l100 524h-201l44 225h493l-147 -763q-2 -12 -3.5 -22.5t-1.5 -21.5q0 -51 33 -73.5t103 -22.5h58l-44 -225h-78z" />
<glyph unicode="&#x3cb;" d="M429 1320q-15 0 -22.5 9t-4.5 24l36 186q4 27 32 27h177q16 0 22.5 -9t3.5 -24l-37 -186q-5 -27 -32 -27h-175zM824 1320q-15 0 -22.5 9t-4.5 24l36 186q4 27 32 27h178q16 0 22.5 -9t3.5 -24l-37 -186q-5 -27 -32 -27h-176zM484 0q-88 0 -148 16t-97 46t-53.5 73 t-16.5 97q0 29 4.5 66t12.5 81l100 516h-165l44 225h457l-147 -755q-2 -11 -3 -21.5t-1 -18.5q0 -53 29.5 -76.5t75.5 -23.5q94 0 167 101t118 314q11 53 18.5 111.5t7.5 136.5q0 39 -2.5 70.5t-9.5 59.5t-18.5 53t-30.5 49h291q26 -45 40 -119.5t14 -165.5q0 -55 -5 -102 t-14 -95q-28 -150 -82 -268.5t-136 -200.5t-194 -125.5t-256 -43.5z" />
<glyph unicode="&#x3cc;" d="M887 1675h321l-442 -376h-197zM533 -29q-103 0 -185.5 30.5t-140 91t-88.5 151t-31 210.5q0 91 18 178t53.5 164t87.5 142t120 112t151.5 73t181.5 26q103 0 185.5 -30.5t140 -91t88.5 -151t31 -211.5q0 -137 -40.5 -262.5t-118.5 -221.5t-192 -153t-261 -57zM557 207 q67 0 121.5 40t92.5 104.5t58.5 146.5t20.5 166q0 128 -46 187.5t-125 59.5q-71 0 -126.5 -41t-93 -106.5t-57 -146.5t-19.5 -161q0 -128 47.5 -188.5t126.5 -60.5z" />
<glyph unicode="&#x3cd;" d="M867 1648h321l-442 -376h-197zM484 0q-88 0 -148 16t-97 46t-53.5 73t-16.5 97q0 29 4.5 66t12.5 81l100 516h-165l44 225h457l-147 -755q-2 -11 -3 -21.5t-1 -18.5q0 -53 29.5 -76.5t75.5 -23.5q94 0 167 101t118 314q11 53 18.5 111.5t7.5 136.5q0 39 -2.5 70.5 t-9.5 59.5t-18.5 53t-30.5 49h291q26 -45 40 -119.5t14 -165.5q0 -55 -5 -102t-14 -95q-28 -150 -82 -268.5t-136 -200.5t-194 -125.5t-256 -43.5z" />
<glyph unicode="&#x3ce;" d="M882 1648h321l-442 -376h-197zM282 -29q-66 0 -117 22.5t-80 60.5q-51 67 -51 217q0 93 18 203.5t50.5 224t78.5 222.5t103 199h262q-42 -86 -72.5 -160.5t-53.5 -142t-40 -131t-30 -129.5q-9 -42 -16 -84t-12.5 -80t-8.5 -69.5t-3 -52.5q0 -22 3 -34q6 -26 39 -28 q71 0 163 456h252q-23 -124 -34.5 -213.5t-11.5 -146.5q0 -96 33 -96q31 1 49 28q15 23 36 88t39.5 159t31.5 209.5t13 239.5q0 94 -9 187h262q26 -113 26 -256q0 -79 -8 -161t-22.5 -161t-36 -153.5t-48.5 -138t-59.5 -114t-68.5 -82.5q-44 -38 -104.5 -60.5t-124.5 -22.5 q-175 0 -189 179q-84 -179 -259 -179z" />
<glyph unicode="&#x3f4;" d="M465 -29q-203 0 -304.5 119t-101.5 355q0 132 33 300q74 383 245 579t430 196q204 0 305.5 -118.5t101.5 -354.5q0 -133 -33 -302q-75 -384 -244.5 -579t-431.5 -195zM860 911q3 33 5 63.5t2 59.5q0 49 -7 90t-24.5 70t-47 45t-73.5 16q-57 0 -99 -25.5t-74.5 -71 t-57.5 -109t-47 -138.5h423zM517 236q57 0 101.5 27t79.5 79.5t63.5 130t52.5 178.5h-431q-8 -56 -12.5 -104t-4.5 -90q0 -109 34.5 -165t116.5 -56z" />
<glyph unicode="&#x400;" d="M537 1854h264l143 -264h-178zM317 1493h932l-51 -260h-635l-63 -322h575l-49 -260h-575l-76 -391h635l-52 -260h-929z" />
<glyph unicode="&#x401;" d="M504 1608q-16 0 -22.5 9t-3.5 24l38 186q6 27 32 27h175q16 0 22.5 -9t3.5 -24l-37 -186q-5 -27 -32 -27h-176zM900 1608q-16 0 -22.5 9t-3.5 24l37 186q4 27 32 27h175q15 0 22.5 -9t4.5 -24l-36 -186q-5 -27 -32 -27h-177zM317 1493h932l-51 -260h-635l-63 -322h575 l-49 -260h-575l-76 -391h635l-52 -260h-929z" />
<glyph unicode="&#x402;" d="M369 -199h136q51 0 88.5 14t64 43.5t44.5 75t30 109.5l90 461q12 60 12 103q0 45 -13 70q-16 37 -109 49l-41 3q-70 0 -148 -29l-37 -16q-22 -12 -33 -26q-30 -35 -50.5 -84.5t-32.5 -110.5l-90 -463h-291l262 1347h-190l40 209h964l-40 -209h-483l-100 -514q26 50 74 77 l53 31q33 20 84 30.5t129 17.5q31 3 60 3q59 0 113 -12.5t98 -40.5q23 -14 34 -27t19 -26q36 -63 36 -162q0 -33 -4 -71.5t-12 -80.5l-103 -529q-24 -126 -63 -214.5t-97 -145t-136.5 -82t-182.5 -25.5h-218z" />
<glyph unicode="&#x403;" d="M929 1854h281l-320 -264h-207zM342 1493h930l-50 -260h-635l-240 -1233h-295z" />
<glyph unicode="&#x404;" d="M591 -29q-99 0 -174.5 20.5t-130 57t-90.5 85.5t-57.5 105t-30.5 117t-9 122q0 57 6.5 126.5t20.5 141.5q34 184 102.5 328t167 243t225 151t276.5 52q174 0 296 -72l-64 -328q-122 135 -272 135q-76 0 -138 -31t-110.5 -83.5t-84 -121.5t-58.5 -144h572l-50 -260h-572 q-3 -30 -3 -60q0 -57 11 -114t39.5 -102.5t76 -74t121.5 -28.5q149 0 322 135l-64 -328q-78 -36 -157.5 -54t-170.5 -18z" />
<glyph unicode="&#x405;" d="M469 -29q-113 0 -227 26t-238 79l59 305q97 -81 202.5 -123.5t214.5 -42.5q66 0 118.5 15.5t89 43.5t56.5 67.5t20 88.5q0 65 -35 110t-104 74l-119 50q-94 39 -155 75.5t-97 77t-50 87.5t-14 108q0 115 42.5 209t119.5 160.5t184.5 102.5t238.5 36q97 0 195 -20t189 -62 l-57 -285q-34 31 -75 54.5t-86.5 39.5t-93 23.5t-94.5 7.5q-78 0 -131.5 -19.5t-86 -48t-46.5 -61.5t-14 -61q0 -49 42.5 -92t141.5 -86l7 -3l116 -51q73 -32 126 -70.5t87.5 -86t51 -104t16.5 -125.5q0 -112 -42 -204t-119 -157.5t-187 -101.5t-246 -36z" />
<glyph unicode="&#x406;" d="M78 260h297l188 973h-297l51 260h889l-51 -260h-297l-188 -973h297l-52 -260h-888z" />
<glyph unicode="&#x407;" d="M484 1608q-16 0 -22.5 9t-3.5 24l38 186q6 27 32 27h175q16 0 22.5 -9t3.5 -24l-37 -186q-5 -27 -32 -27h-176zM880 1608q-16 0 -22.5 9t-3.5 24l37 186q4 27 32 27h175q15 0 22.5 -9t4.5 -24l-36 -186q-5 -27 -32 -27h-177zM78 260h297l188 973h-297l51 260h889 l-51 -260h-297l-188 -973h297l-52 -260h-888z" />
<glyph unicode="&#x408;" d="M427 -29q-221 0 -429 107l65 344q82 -100 169.5 -145.5t195.5 -45.5q53 0 93.5 12t70.5 40.5t50.5 76t34.5 119.5l148 754h-361l52 260h655l-199 -1014q-17 -84 -34.5 -146t-39 -108.5t-48 -80.5t-60.5 -62q-68 -55 -157.5 -83t-205.5 -28z" />
<glyph unicode="&#x409;" d="M-101 250h10q53 0 91 13t66 40.5t47.5 69t36.5 98.5q9 32 20.5 79t27 117t35 167.5t45.5 230.5l83 428h616l-113 -580h22q55 0 109.5 -25.5t97.5 -75t70 -121.5t27 -165q0 -7 -1 -29.5t-7.5 -55t-19.5 -73.5t-37 -85t-61 -88.5t-90 -84.5q-33 -24 -68.5 -44.5t-70.5 -35 t-67.5 -22.5t-58.5 -8h-262l240 1233h-136l-35 -176q-32 -159 -59.5 -303t-61.5 -266t-78 -218t-107 -157q-118 -113 -322 -113h-37zM741 236q17 0 44.5 11t56 33.5t52.5 56.5t35 79q3 13 6 30.5t5 35.5t3.5 34t1.5 26q0 29 -12 54t-29.5 43t-38 28.5t-38.5 10.5h-8 l-86 -442h8z" />
<glyph unicode="&#x40a;" d="M211 1493h240l-110 -569h322l110 569h240l-113 -580h22q55 0 109.5 -24.5t97.5 -69t70 -106t27 -135.5q0 -24 -3 -56t-10 -66q-16 -79 -46.5 -144t-71 -115.5t-86.5 -87.5t-93 -61.5t-91 -36t-80 -11.5h-262l129 664h-322l-129 -664h-240zM777 236q18 0 47 11.5t58.5 38 t54.5 68.5t36 103q4 20 6 44t2 38q0 34 -13 60.5t-31.5 43.5t-39 26t-34.5 9h-8l-86 -442h8z" />
<glyph unicode="&#x40b;" d="M278 1347h-190l40 209h964l-40 -209h-483l-100 -514q26 50 74 77l53 31q33 20 84 30.5t129 17.5q31 3 60 3q59 0 113 -12.5t98 -40.5q23 -14 34 -27t19 -26q36 -63 36 -162q0 -33 -4 -71.5t-12 -80.5l-111 -572h-291l98 504q12 60 12 103q0 45 -13 70q-16 37 -109 49 l-41 3q-70 0 -148 -29l-37 -16q-22 -12 -33 -26q-30 -35 -50.5 -84.5t-32.5 -110.5l-90 -463h-291z" />
<glyph unicode="&#x40c;" d="M877 1854h281l-320 -264h-207zM265 1493h295l-108 -557l563 557h348l-606 -604l338 -889h-303l-254 670l-172 -170l-95 -500h-294z" />
<glyph unicode="&#x40d;" d="M501 1854h264l143 -264h-178zM267 1493h260l-211 -1085l627 1085h317l-290 -1493h-260l211 1085l-629 -1085h-315z" />
<glyph unicode="&#x40e;" d="M779 1590q-142 0 -215 67t-73 193v4h143q8 -54 47 -84.5t118 -30.5q78 0 129.5 29.5t76.5 85.5h154q-20 -66 -56.5 -115.5t-85.5 -82.5t-109.5 -49.5t-128.5 -16.5zM113 260h80q56 0 86 8q33 9 68.5 40t67.5 88l83 145l-302 952h305l196 -620l371 620h305l-709 -1190 q-92 -153 -188 -228t-213 -75h-200z" />
<glyph unicode="&#x40f;" d="M353 0h-350l290 1493h295l-239 -1233h369l239 1233h295l-290 -1493h-350l-62 -322h-259z" />
<glyph unicode="&#x410;" d="M582 1493h360l113 -1493h-293l-14 369h-400l-162 -369h-299zM737 612l-20 607l-264 -607h284z" />
<glyph unicode="&#x411;" d="M298 1493h930l-50 -260h-635l-58 -299h110q258 0 381 -77.5t123 -244.5q0 -30 -3.5 -68.5t-10.5 -76.5q-22 -123 -73 -211t-134 -145t-198.5 -84t-266.5 -27h-405zM472 248q71 0 123.5 11.5t89 37.5t58.5 67.5t34 102.5q4 20 6 37t2 34q0 81 -54.5 114.5t-173.5 33.5 h-121l-85 -438h121z" />
<glyph unicode="&#x412;" d="M280 1495h482q212 0 319 -82t107 -250q0 -80 -24.5 -145t-71 -113t-114.5 -78.5t-155 -40.5q68 -6 122 -28t92 -60.5t58.5 -93.5t20.5 -127q0 -50 -9.5 -99t-28.5 -94t-46 -85.5t-61 -71.5q-36 -33 -82.5 -57t-106.5 -39.5t-137 -23t-174 -7.5h-481zM649 913 q121 0 182.5 54.5t61.5 151.5q0 75 -40.5 108t-135.5 33h-197l-68 -347h197zM518 236q151 0 227 64.5t76 195.5q0 43 -10 77t-34.5 57.5t-66.5 35.5t-106 12h-197l-86 -442h197z" />
<glyph unicode="&#x413;" d="M342 1493h930l-50 -260h-635l-240 -1233h-295z" />
<glyph unicode="&#x414;" d="M-54 260h100q12 0 26 12t27.5 31t24 43t15.5 48l213 1099h848l-239 -1233h137l-113 -582h-255l62 322h-642l-62 -322h-255zM666 260l189 973h-258l-143 -736q-13 -66 -33 -128.5t-43 -108.5h288z" />
<glyph unicode="&#x415;" d="M317 1493h932l-51 -260h-635l-63 -322h575l-49 -260h-575l-76 -391h635l-52 -260h-929z" />
<glyph unicode="&#x416;" d="M298 886l-140 607h261l121 -523l102 523h240l-102 -523l325 523h261l-376 -607l86 -886h-250l-53 537l-112 -181l-69 -356h-240l69 356l-42 181l-261 -537h-250z" />
<glyph unicode="&#x417;" d="M442 -29q-103 0 -216.5 19t-236.5 55l54 270q94 -45 199 -69.5t201 -24.5q81 0 142 18t102.5 50.5t62 78t20.5 101.5q0 102 -64 150.5t-172 48.5h-158l52 260h157q62 0 113.5 14.5t88 41t57 62.5t20.5 78q0 70 -57.5 108t-166.5 38q-81 0 -179.5 -21t-209.5 -61l54 268 q105 32 201.5 48t177.5 16q105 0 189.5 -25.5t144 -72t91 -111.5t31.5 -145q0 -70 -24.5 -129.5t-70 -106t-111.5 -78.5t-150 -47q141 -38 203.5 -122t62.5 -214q0 -113 -42.5 -205t-121 -157t-191 -100.5t-253.5 -35.5z" />
<glyph unicode="&#x418;" d="M267 1493h260l-211 -1085l627 1085h317l-290 -1493h-260l211 1085l-629 -1085h-315z" />
<glyph unicode="&#x419;" d="M754 1590q-137 0 -210 67t-73 193v4h143q10 -60 51 -87.5t120 -27.5q72 0 124.5 30.5t75.5 84.5h154q-40 -130 -138.5 -197t-246.5 -67zM267 1493h260l-211 -1085l627 1085h317l-290 -1493h-260l211 1085l-629 -1085h-315z" />
<glyph unicode="&#x41a;" d="M265 1493h295l-108 -557l563 557h348l-606 -604l338 -889h-303l-254 670l-172 -170l-95 -500h-294z" />
<glyph unicode="&#x41b;" d="M-73 265h10q94 0 153 47t85 161q25 107 42.5 184.5t31.5 143t26.5 127t27.5 137.5l83 428h870l-290 -1493h-295l240 1233h-280l-35 -176q-32 -159 -59.5 -303t-61.5 -266t-78 -218t-107 -157q-118 -113 -322 -113h-92z" />
<glyph unicode="&#x41c;" d="M231 1493h353l49 -655l297 655h360l-289 -1493h-253l237 1198l-293 -655h-219l-47 655l-231 -1198h-252z" />
<glyph unicode="&#x41d;" d="M283 1493h295l-111 -569h369l110 569h295l-291 -1493h-295l129 664h-368l-129 -664h-295z" />
<glyph unicode="&#x41e;" d="M497 -29q-212 0 -324 127t-112 384q0 92 14 194.5t38.5 202t58.5 190.5t74 160q82 144 203 217.5t286 73.5q211 0 323.5 -126t112.5 -383q0 -85 -12.5 -184.5t-36 -199.5t-57 -194t-76.5 -169q-82 -144 -204 -218.5t-288 -74.5zM528 233q63 0 108.5 35.5t82.5 104.5 q25 46 47.5 109t43.5 148q12 50 23 102.5t18.5 104t12 99.5t4.5 88q0 236 -163 236q-65 0 -110 -36t-81 -105q-23 -43 -46 -105.5t-46 -152.5q-15 -60 -26 -119t-17.5 -112.5t-10 -97.5t-3.5 -74q0 -107 40 -166t123 -59z" />
<glyph unicode="&#x41f;" d="M297 1493h959l-290 -1493h-295l240 1233h-369l-240 -1233h-295z" />
<glyph unicode="&#x420;" d="M322 1493h420q236 0 359.5 -91t123.5 -279q0 -54 -10 -109t-27 -106t-41.5 -96.5t-52.5 -80.5q-78 -96 -203 -134t-292 -38h-164l-109 -559h-295zM627 807q147 0 219 67.5t72 194.5q0 48 -11.5 81.5t-38.5 54.5t-71 30.5t-108 9.5h-121l-84 -438h143z" />
<glyph unicode="&#x421;" d="M601 -29q-238 0 -364 136.5t-126 414.5q0 106 18.5 214.5t52.5 210t82.5 191t108.5 158.5q97 111 226.5 167.5t281.5 56.5q85 0 162.5 -18t155.5 -54l-64 -328q-24 33 -55 59t-66.5 43t-74 26t-77.5 9q-94 0 -168.5 -48.5t-129.5 -133.5q-34 -52 -62 -118t-48.5 -137.5 t-32 -144.5t-11.5 -139q0 -153 63 -229t184 -76q78 0 158.5 33.5t174.5 106.5l-64 -328q-78 -36 -157.5 -54t-167.5 -18z" />
<glyph unicode="&#x422;" d="M573 1235h-383l49 258h1059l-51 -258h-379l-240 -1235h-294z" />
<glyph unicode="&#x423;" d="M113 260h80q56 0 86 8q33 9 68.5 40t67.5 88l83 145l-302 952h305l196 -620l371 620h305l-709 -1190q-92 -153 -188 -228t-213 -75h-200z" />
<glyph unicode="&#x424;" d="M375 132q-68 6 -121 30t-92 60t-66 82t-43.5 96t-23.5 102t-7 101q0 37 4 76.5t12 80.5q24 123 78 233t130 195t171 139t202 64l20 102h255l-20 -102q68 -6 120.5 -30t92 -60t66 -82t43 -96.5t24 -103t7.5 -101.5q0 -37 -4 -76.5t-12 -81.5q-24 -119 -78 -228.5 t-130.5 -195t-171.5 -140t-201 -64.5l-26 -132h-255zM570 1136q-102 -19 -174 -111.5t-104 -264.5q-8 -41 -10.5 -70t-4.5 -58q-2 -36 2 -75.5t19 -74t45 -60.5t81 -35zM679 387q61 13 107 47t78.5 81t53 102t32.5 109q4 21 8 44.5t7 46t4.5 42.5t1.5 34q0 37 -2.5 75 t-16 71.5t-43.5 59t-84 37.5z" />
<glyph unicode="&#x425;" d="M486 782l-287 711h291l187 -463l360 463h321l-573 -737l301 -756h-291l-200 512l-400 -512h-323z" />
<glyph unicode="&#x426;" d="M789 0h-803l290 1493h295l-239 -1233h369l239 1233h295l-239 -1233h137l-113 -582h-293z" />
<glyph unicode="&#x427;" d="M824 766q-46 -77 -136 -118t-238 -41q-86 0 -147.5 15t-101.5 47.5t-59 84t-19 124.5q0 33 4 70.5t12 78.5l103 529h291l-89 -461q-4 -21 -6 -39t-2 -36q0 -47 14 -76t37.5 -45.5t55.5 -22.5t68 -6q67 0 115 16.5t81.5 50t54.5 83.5t34 116l81 420h291l-302 -1556h-291z " />
<glyph unicode="&#x428;" d="M234 1494h240l-240 -1234h178l240 1233h240l-240 -1234h178l240 1234h240l-290 -1493h-1076z" />
<glyph unicode="&#x429;" d="M846 0h-902l290 1493h240l-239 -1232h178l239 1231h240l-239 -1232h178l239 1232h240l-239 -1232h66l-113 -582h-240z" />
<glyph unicode="&#x42a;" d="M382 1284h-250l41 209h545l-113 -580h30q154 0 252 -25t154 -69t77.5 -104.5t21.5 -131.5q0 -33 -3.5 -65t-10.5 -67q-23 -116 -72 -201t-130 -140.5t-196.5 -82.5t-269.5 -27h-325zM515 236q74 0 127.5 11t91 36t60 66.5t33.5 101.5q5 24 7 45.5t2 38.5q0 32 -9.5 58.5 t-30.5 44.5q-23 20 -68 30t-127 10h-41l-86 -442h41z" />
<glyph unicode="&#x42b;" d="M195 1493h255l-113 -580h10q132 0 220.5 -25t142 -69t76 -105.5t22.5 -133.5q0 -31 -3.5 -62.5t-10.5 -66.5q-45 -229 -201 -340t-423 -111h-265zM1093 1493h255l-290 -1493h-255zM227 236q74 0 127.5 11t91 36t60 66.5t33.5 101.5q5 24 7 45.5t2 38.5q0 32 -9.5 58.5 t-30.5 44.5q-23 20 -68 30t-127 10h-21l-86 -442h21z" />
<glyph unicode="&#x42c;" d="M311 1493h295l-113 -580h110q154 0 252 -25t154 -69t77.5 -104.5t21.5 -131.5q0 -33 -3.5 -65t-10.5 -67q-23 -116 -72 -201t-130 -140.5t-196.5 -82.5t-269.5 -27h-405zM483 236q74 0 127.5 11t91 36t60 66.5t33.5 101.5q5 24 7 45.5t2 38.5q0 32 -9.5 58.5t-30.5 44.5 q-23 20 -68 30t-127 10h-121l-86 -442h121z" />
<glyph unicode="&#x42d;" d="M348 -29q-88 0 -161 18t-137 54l64 328q120 -135 278 -135q271 0 385 379h-542l50 260h542q2 21 3 40.5t1 36.5q0 154 -61 228.5t-181 74.5q-81 0 -161.5 -33.5t-167.5 -101.5l64 328q148 72 327 72q100 0 175 -20.5t130 -57t91 -85t57.5 -105t30.5 -118t9 -122.5 q0 -57 -6.5 -125.5t-20.5 -140.5q-35 -185 -103.5 -329t-166.5 -243t-224 -151t-275 -52z" />
<glyph unicode="&#x42e;" d="M674 -29q-75 0 -130.5 36t-91.5 99.5t-53.5 151t-17.5 191.5q0 97 15 202h-114l-127 -651h-240l290 1493h240l-113 -582h118q20 70 49 143t66 140.5t82 127t98.5 103.5t114.5 69.5t130 25.5q137 0 208 -102t71 -296q0 -79 -11.5 -177t-31.5 -200q-38 -187 -96 -331 t-130 -242.5t-155 -149.5t-171 -51zM723 236q25 0 56.5 34t61.5 96q20 42 39.5 96.5t36.5 115t31 125t24 126.5t15.5 119t5.5 104q0 24 -1 42t-3 31q-8 65 -25.5 97.5t-41.5 32.5q-50 0 -119 -144q-18 -38 -33.5 -77t-29 -83.5t-26 -95t-24.5 -110.5q-39 -197 -39 -313 q0 -23 1.5 -40.5t3.5 -33.5q8 -59 25.5 -90.5t41.5 -31.5z" />
<glyph unicode="&#x42f;" d="M339 644q-36 19 -70.5 50.5t-62 72t-44.5 89.5t-17 102q0 43 11 101q22 117 71.5 199t127 134.5t183.5 76.5t241 24h476l-290 -1493h-295l115 590h-162l-414 -590h-321zM833 838l79 407h-189q-53 0 -97.5 -11t-78.5 -35.5t-57 -63t-33 -93.5q-6 -33 -6 -59 q0 -145 193 -145h189z" />
<glyph unicode="&#x430;" d="M381 -29q-78 0 -139.5 22t-105 64t-66.5 103.5t-23 141.5q0 103 39.5 184t116 137t189 85t259.5 29h193l8 49q1 6 1.5 11.5t0.5 13.5q0 60 -50 90.5t-143 30.5q-88 0 -189.5 -27.5t-223.5 -85.5l47 250q63 21 117.5 36t105 24.5t97.5 13.5t94 4q209 0 320.5 -76 t111.5 -226q0 -40 -7.5 -92t-19.5 -114l-123 -639h-291l25 125q-67 -78 -154.5 -116t-189.5 -38zM504 172q54 0 102.5 24t87.5 70t67 112.5t42 151.5h-113q-168 0 -253 -51t-85 -154q0 -72 40 -112.5t112 -40.5z" />
<glyph unicode="&#x431;" d="M498 -29q-117 0 -196.5 36.5t-128.5 96.5t-70.5 137t-21.5 158q0 35 3.5 70t10.5 72q4 23 8 44.5t6 35.5l15 167q5 59 13.5 118t23 117.5t36.5 115t55 110.5q45 74 100 127t117 89.5t130.5 58.5t141 35.5t149 20.5t154.5 13q19 1 31 2.5t20.5 3t17 4.5t20.5 8l69 -212 q-20 -7 -43 -11.5t-46 -6.5l-295 -24q-66 -5 -107 -16.5t-72 -28.5q-37 -20 -75 -49.5t-72 -65.5t-60.5 -75t-39.5 -77q148 102 338 102q119 0 199.5 -36.5t130 -96t71 -135.5t21.5 -155q0 -41 -4.5 -83.5t-12.5 -81.5q-26 -135 -83.5 -244t-140 -185.5t-187.5 -117.5 t-226 -41zM548 209q54 0 101.5 25t85 70.5t65 110t42.5 144.5q7 35 10.5 70t3.5 63q0 35 -7 73t-25.5 70t-51.5 53t-84 21q-54 0 -100.5 -23.5t-83.5 -65t-63.5 -96.5t-40.5 -118q-5 -21 -9 -46t-7 -51t-5 -50t-2 -42q0 -30 7 -66.5t26 -68t52 -52.5t86 -21z" />
<glyph unicode="&#x432;" d="M253 1120h468q131 0 211.5 -15.5t127.5 -46.5q42 -28 64.5 -71t22.5 -107q0 -96 -51.5 -171t-158.5 -110q47 -14 78.5 -36.5t50 -50t26.5 -58.5t8 -63q0 -14 -1.5 -32t-5.5 -38q-30 -161 -166.5 -241t-374.5 -80h-517zM619 698q66 0 111.5 6.5t73.5 20t40 34t12 48.5 q0 26 -8.5 43t-21.5 26q-7 5 -18 9.5t-29.5 8t-47.5 5.5t-73 2h-156l-39 -203h156zM537 219q60 0 109.5 8t85.5 25.5t56 46.5t20 71q0 32 -12.5 51.5t-35.5 31.5q-51 26 -173 26h-167l-50 -260h167z" />
<glyph unicode="&#x433;" d="M356 1120h799l-43 -219h-508l-175 -901h-291z" />
<glyph unicode="&#x434;" d="M0 219h76q11 0 26.5 13t27.5 30q9 12 16.5 26.5t14.5 35t14 48t14 63.5l134 685h847l-175 -901h123l-99 -505h-219l56 286h-680l-56 -286h-219zM704 219l132 682h-265l-86 -442q-14 -73 -33 -132.5t-44 -107.5h296z" />
<glyph unicode="&#x435;" d="M586 -29q-253 0 -381.5 117t-128.5 352q0 68 11 135.5t32 131.5t52.5 122.5t72.5 108.5q85 103 200 157t252 54q104 0 188.5 -31.5t144.5 -89t93 -139t33 -181.5q0 -42 -6.5 -100.5t-20.5 -142.5h-759q-3 -17 -4.5 -32t-2.5 -30q0 -200 268 -200q106 0 213 30.5t201 90.5 l-51 -269q-96 -42 -198.5 -63t-208.5 -21zM876 684q7 27 7 55q0 84 -51 132.5t-143 48.5q-97 0 -168 -59t-111 -177h466z" />
<glyph unicode="&#x436;" d="M294 694l-167 426h277l135 -343l67 343h240l-67 -343l269 343h277l-333 -426l119 -694h-255l-73 427l-96 -122l-59 -305h-240l59 305l-48 122l-239 -427h-255z" />
<glyph unicode="&#x437;" d="M390 -22q-40 0 -79 2.5t-79.5 9.5t-85 20t-94.5 34l46 236q45 -24 85 -39.5t82 -24.5t90.5 -12t111.5 -3q55 0 101.5 3.5t82 16t58.5 37.5t31 67q3 15 3 27q0 31 -19.5 52t-49.5 34t-67 18.5t-71 5.5h-163l43 219h137q42 0 87 7t82.5 23t61.5 42.5t24 65.5 q0 56 -56.5 82.5t-174.5 26.5q-164 0 -326 -52l43 223q80 22 175 35t191 13q112 0 195 -18.5t138 -52.5t81.5 -80.5t26.5 -101.5q0 -14 -1.5 -29t-4.5 -29q-12 -62 -35.5 -105.5t-54.5 -74t-68.5 -50.5t-77.5 -33q37 -12 68.5 -33t54.5 -51t36 -68.5t13 -85.5 q0 -93 -51 -160.5t-138.5 -111t-204 -64.5t-247.5 -21z" />
<glyph unicode="&#x438;" d="M261 1120h291l-139 -715l496 715h291l-218 -1120h-291l139 715l-496 -715h-291z" />
<glyph unicode="&#x439;" d="M736 1270q-143 0 -216.5 65t-73.5 199v33h144v-13q0 -61 44 -97t122 -36q79 0 137.5 38.5t83.5 107.5h143q-29 -139 -125.5 -218t-258.5 -79zM261 1120h291l-139 -715l496 715h291l-218 -1120h-291l139 715l-496 -715h-291z" />
<glyph unicode="&#x43a;" d="M276 1120h293l-74 -381l426 381h355l-505 -418l311 -702h-324l-205 524l-119 -96l-83 -428h-293z" />
<glyph unicode="&#x43b;" d="M-28 240h10q52 0 87.5 8t61 29.5t44 60.5t36.5 101q7 26 15.5 58.5t16.5 67t15.5 69.5t13.5 66l82 420h849l-218 -1120h-291l175 901h-267l-38 -197q-4 -18 -11.5 -58.5t-20.5 -93.5t-31 -113.5t-41.5 -120t-53 -113t-64.5 -91.5q-55 -59 -134.5 -86.5t-187.5 -27.5h-95z " />
<glyph unicode="&#x43c;" d="M188 1120h352l51 -655l305 655h352l-218 -1120h-240l158 823l-299 -653h-232l-47 653l-160 -823h-240z" />
<glyph unicode="&#x43d;" d="M273 1120h291l-74 -381h317l74 381h291l-218 -1120h-291l101 520h-317l-101 -520h-291z" />
<glyph unicode="&#x43e;" d="M533 -29q-103 0 -185.5 30.5t-140 91t-88.5 151t-31 210.5q0 91 18 178t53.5 164t87.5 142t120 112t151.5 73t181.5 26q103 0 185.5 -30.5t140 -91t88.5 -151t31 -211.5q0 -137 -40.5 -262.5t-118.5 -221.5t-192 -153t-261 -57zM557 207q67 0 121.5 40t92.5 104.5 t58.5 146.5t20.5 166q0 128 -46 187.5t-125 59.5q-71 0 -126.5 -41t-93 -106.5t-57 -146.5t-19.5 -161q0 -128 47.5 -188.5t126.5 -60.5z" />
<glyph unicode="&#x43f;" d="M281 1120h899l-218 -1120h-291l175 901h-317l-175 -901h-291z" />
<glyph unicode="&#x440;" d="M261 1120h264l-4 -168q72 100 153.5 147.5t175.5 47.5q73 0 131.5 -28t99.5 -81.5t63 -130.5t22 -176q0 -59 -8 -123t-23 -127.5t-37 -124t-50 -112.5q-72 -133 -176 -203t-221 -70q-114 0 -184.5 63.5t-90.5 172.5l-123 -633h-293zM593 209q63 0 114 41.5t87.5 108 t56.5 150t20 166.5q0 120 -40.5 176t-110.5 56q-63 0 -116 -40t-91 -105t-59 -146.5t-21 -164.5q0 -123 44.5 -182.5t115.5 -59.5z" />
<glyph unicode="&#x441;" d="M606 -29q-113 0 -202.5 30.5t-152 91.5t-95.5 152t-33 212q0 147 48 273t136 218.5t211.5 145.5t274.5 53q91 0 176 -20.5t161 -63.5l-53 -268q-120 114 -274 114q-86 0 -156.5 -33t-121 -91.5t-78.5 -138.5t-28 -174q0 -136 59.5 -199.5t180.5 -63.5q74 0 151.5 24.5 t174.5 79.5l-56 -276q-155 -66 -323 -66z" />
<glyph unicode="&#x442;" d="M532 901h-308l43 219h907l-43 -219h-308l-175 -901h-291z" />
<glyph unicode="&#x443;" d="M-20 -201h117q41 0 73.5 5.5t61 23.5t55.5 52t57 91l39 74l-217 1075h297l127 -700l383 700h309l-706 -1241q-56 -99 -102 -159t-91.5 -92t-95 -42t-112.5 -10h-240z" />
<glyph unicode="&#x444;" d="M381 -29q-73 7 -132 45t-101 96t-64.5 131t-22.5 151q0 34 4.5 77.5t12.5 87.5q17 89 49 166.5t74.5 141t93 114t104 86t107.5 55.5t104 25l79 409h240l-79 -409q72 -8 131 -44.5t101 -94t65 -131t23 -153.5q0 -35 -4.5 -77t-13.5 -88q-27 -138 -85 -244t-131.5 -179.5 t-155.5 -115t-159 -49.5l-77 -397h-240zM563 909q-38 -9 -75 -33.5t-69.5 -67.5t-58.5 -104.5t-42 -144.5q-8 -40 -11.5 -76t-3.5 -63q0 -38 7.5 -72.5t23 -62.5t38.5 -48t55 -28zM667 209q39 9 75.5 33t68.5 65.5t58 103.5t43 148q16 80 16 138q0 37 -7 72t-22.5 63t-39 48 t-56.5 29z" />
<glyph unicode="&#x445;" d="M466 594l-258 526h301l148 -317l268 317h332l-477 -553l278 -567h-299l-170 356l-303 -356h-332z" />
<glyph unicode="&#x446;" d="M872 0h-836l218 1120h291l-175 -901h317l175 901h291l-175 -901h156l-99 -505h-219z" />
<glyph unicode="&#x447;" d="M706 416h-107q-231 0 -365 101l-4 3q-43 33 -66 82.5t-23 114.5q0 23 2.5 47.5t7.5 48.5l60 307h299l-66 -337q-3 -18 -3 -33q0 -38 20 -61q3 -4 7.5 -8t10.5 -9q48 -39 162 -39h107l95 488h290l-218 -1121h-290z" />
<glyph unicode="&#x448;" d="M187 1120h240l-175 -901h178l175 901h240l-175 -901h178l175 901h240l-218 -1120h-1076z" />
<glyph unicode="&#x449;" d="M900 0h-943l218 1120h240l-175 -901h178l175 901h240l-175 -901h178l175 901h240l-175 -901h86l-99 -505h-219z" />
<glyph unicode="&#x44a;" d="M363 895h-251l44 225h542l-82 -422h127q106 0 181 -20t122.5 -56t69.5 -85.5t22 -107.5q0 -19 -2 -38t-6 -41q-15 -83 -56.5 -148t-108 -110t-156.5 -68.5t-202 -23.5h-418zM596 219q52 0 96.5 7.5t77.5 25.5t51.5 47.5t18.5 73.5q0 28 -9.5 47t-32.5 33q-45 26 -152 26 h-73l-50 -260h73z" />
<glyph unicode="&#x44b;" d="M133 1120h291l-82 -422h21q106 0 181 -20t122.5 -56t69.5 -85.5t22 -107.5q0 -19 -2 -38t-6 -41q-15 -83 -56.5 -148t-108 -110t-156.5 -68.5t-202 -23.5h-312zM1010 1120h293l-218 -1120h-293zM276 219q30 0 62.5 10t59.5 29t44.5 47t17.5 65q0 30 -12 51t-31.5 34 t-43 18.5t-47.5 5.5h-27l-50 -260h27z" />
<glyph unicode="&#x44c;" d="M298 1120h291l-82 -422h177q106 0 181 -20t122.5 -56t69.5 -85.5t22 -107.5q0 -19 -2 -38t-6 -41q-15 -83 -56.5 -148t-108 -110t-156.5 -68.5t-202 -23.5h-468zM537 219q52 0 96.5 7.5t77.5 25.5t51.5 47.5t18.5 73.5q0 28 -9.5 47t-32.5 33q-45 26 -152 26h-123 l-50 -260h123z" />
<glyph unicode="&#x44d;" d="M418 -29q-193 0 -323 86l53 269q56 -59 120 -88t148 -29q125 0 213 63t134 186h-477l43 219h472q-7 232 -242 232q-166 0 -320 -114l52 268q87 42 175 63t183 21q129 0 216 -36t140 -95t75.5 -135t22.5 -157q0 -41 -4.5 -83t-12.5 -81q-27 -139 -85.5 -248.5t-144.5 -185 t-196.5 -115.5t-241.5 -40z" />
<glyph unicode="&#x44e;" d="M1212 988q29 -46 48 -110.5t19 -157.5q0 -78 -15.5 -165t-45 -171t-73 -160t-99.5 -132q-37 -37 -72.5 -58.5t-71 -33.5t-71.5 -18t-75 -10q-6 -1 -10 -1h-6q-47 0 -88.5 14t-76 36.5t-62 51t-47.5 57.5q-33 48 -50 106.5t-17 140.5q0 24 1.5 50t5.5 53h-102l-93 -480 h-293l218 1120h293l-84 -431h106q30 95 79.5 171.5t108.5 133t124.5 93t128.5 51.5q37 9 68 9q35 0 70.5 -11t68.5 -32t61.5 -50.5t51.5 -65.5zM1004 666q1 34 -0.5 57.5t-1.5 27.5q-1 10 -6.5 37.5t-21.5 58.5q-10 19 -20.5 33.5t-15.5 14.5q-5 3 -11 4t-10 1 q-19 0 -43.5 -20.5t-50.5 -58.5q-19 -27 -35 -57t-28.5 -56.5t-20 -46.5t-10.5 -27q-3 -8 -5.5 -14.5t-5 -15t-5 -20.5t-6.5 -30q-13 -64 -19 -105.5t-8 -65.5t-1.5 -33.5l0.5 -9.5q4 -11 8 -24t5 -15l4 -9q10 -35 23.5 -53.5t24.5 -25.5q14 -11 31 -11q12 0 26.5 7t30 19 t31.5 29t30 37q16 23 28.5 47.5t21.5 47.5t15 44t11 37q2 8 4 13.5t4 13.5t4.5 20t7.5 34q4 22 7 38t4.5 28.5t2.5 24t1 24.5z" />
<glyph unicode="&#x44f;" d="M342 488q-23 13 -52 34t-54.5 50t-43.5 67.5t-18 85.5q0 16 2 38t7 45q15 79 55.5 138t109.5 97.5t170 57.5t238 19h424l-218 -1120h-291l84 429h-121l-345 -429h-339zM797 648l51 261h-173q-43 0 -82.5 -9t-69.5 -27.5t-48 -46.5t-18 -66q0 -60 43.5 -86t123.5 -26h173z " />
<glyph unicode="&#x450;" d="M410 1675h284l209 -376h-198zM586 -29q-253 0 -381.5 117t-128.5 352q0 68 11 135.5t32 131.5t52.5 122.5t72.5 108.5q85 103 200 157t252 54q104 0 188.5 -31.5t144.5 -89t93 -139t33 -181.5q0 -42 -6.5 -100.5t-20.5 -142.5h-759q-3 -17 -4.5 -32t-2.5 -30 q0 -200 268 -200q106 0 213 30.5t201 90.5l-51 -269q-96 -42 -198.5 -63t-208.5 -21zM876 684q7 27 7 55q0 84 -51 132.5t-143 48.5q-97 0 -168 -59t-111 -177h466z" />
<glyph unicode="&#x451;" d="M478 1349q-15 0 -22.5 9t-4.5 24l36 186q4 27 32 27h177q16 0 22.5 -9t3.5 -24l-37 -186q-5 -27 -32 -27h-175zM873 1349q-15 0 -22.5 9t-4.5 24l36 186q4 27 32 27h178q16 0 22.5 -9t3.5 -24l-37 -186q-5 -27 -32 -27h-176zM586 -29q-253 0 -381.5 117t-128.5 352 q0 68 11 135.5t32 131.5t52.5 122.5t72.5 108.5q85 103 200 157t252 54q104 0 188.5 -31.5t144.5 -89t93 -139t33 -181.5q0 -42 -6.5 -100.5t-20.5 -142.5h-759q-3 -17 -4.5 -32t-2.5 -30q0 -200 268 -200q106 0 213 30.5t201 90.5l-51 -269q-96 -42 -198.5 -63t-208.5 -21z M876 684q7 27 7 55q0 84 -51 132.5t-143 48.5q-97 0 -168 -59t-111 -177h466z" />
<glyph unicode="&#x452;" d="M411 -199q87 12 150.5 51.5t109 101t75.5 144.5t50 182q18 88 18 147q0 25 -4.5 48t-18.5 41t-40 28.5t-70 10.5q-110 0 -169 -69t-84 -197l-56 -289h-291l174 895h-171l44 225h171l84 436h291l-84 -436h437l-44 -225h-437l-57 -295q52 100 142.5 147.5t199.5 47.5 q76 0 129.5 -21.5t87.5 -59.5t49.5 -91t15.5 -117q0 -43 -6 -98.5t-17 -112.5q-24 -133 -72 -253t-131.5 -215.5t-210 -161t-308.5 -89.5z" />
<glyph unicode="&#x453;" d="M912 1648h321l-442 -376h-197zM356 1120h799l-43 -219h-508l-175 -901h-291z" />
<glyph unicode="&#x454;" d="M569 -29q-110 0 -195 28.5t-143 83.5t-88 134t-30 180q0 39 4.5 79t12.5 83q27 138 86 247.5t145 185.5t196 116.5t240 40.5q91 0 170 -20.5t154 -65.5l-52 -268q-54 55 -124 84.5t-154 29.5q-72 0 -126 -21t-94 -54t-66.5 -74.5t-43.5 -82.5h412l-41 -209h-417 q-2 -51 8.5 -98t38.5 -82t76 -56t121 -21q164 0 318 115l-52 -269q-164 -86 -356 -86z" />
<glyph unicode="&#x455;" d="M495 -29q-100 0 -202.5 17.5t-202.5 52.5l51 256q87 -57 180.5 -86t190.5 -29q109 0 170 37t61 111q0 18 -6 33.5t-26 31.5q-23 18 -62.5 33.5t-99.5 32.5l-88 24q-236 65 -236 284q0 85 35 155t100 119.5t158.5 76.5t210.5 27q88 0 180 -15.5t185 -46.5l-50 -254 q-77 55 -165 81t-171 26q-101 0 -155.5 -34.5t-54.5 -93.5q0 -46 37 -73q9 -7 25.5 -15t38 -16.5t47.5 -17t54 -16.5l74 -21q124 -35 185 -104.5t61 -187.5q0 -91 -35 -163t-102 -122t-165 -76.5t-223 -26.5z" />
<glyph unicode="&#x456;" d="M588 1323q-16 0 -23 9t-4 24l56 282q4 27 32 27h233q16 0 23 -9t4 -24l-56 -282q-5 -27 -32 -27h-233zM732 -8q-107 0 -177 14t-113 43q-47 31 -66 76.5t-19 103.5q0 17 1.5 31.5t3.5 31.5q3 23 6 39.5t8 39.5l120 524h-236l43 225h528l-166 -763q-3 -12 -4 -17.5t-1 -8 v-4.5t-1 -6q-2 -8 -2.5 -14t-0.5 -12q0 -17 7 -32.5t24 -26.5q31 -19 109 -19h278l-45 -225h-297z" />
<glyph unicode="&#x457;" d="M369 1320q-15 0 -22.5 9t-4.5 24l36 186q4 27 32 27h177q16 0 22.5 -9t3.5 -24l-37 -186q-5 -27 -32 -27h-175zM764 1320q-15 0 -22.5 9t-4.5 24l36 186q4 27 32 27h178q16 0 22.5 -9t3.5 -24l-37 -186q-5 -27 -32 -27h-176zM703 -8q-107 0 -177 14t-113 43 q-47 31 -66 76.5t-19 103.5q0 17 1.5 31.5t3.5 31.5q3 23 6 39.5t8 39.5l120 524h-236l43 225h528l-166 -763q-3 -12 -4 -17.5t-1 -8v-4.5t-1 -6q-2 -8 -2.5 -14t-0.5 -12q0 -17 7 -32.5t24 -26.5q31 -19 109 -19h278l-45 -225h-297z" />
<glyph unicode="&#x458;" d="M743 1323q-15 0 -22.5 9t-4.5 24l55 282q4 27 32 27h233q15 0 22.5 -9t4.5 -24l-55 -282q-5 -27 -32 -27h-233zM22 -199h231q51 0 88 13t64 42t45 75t31 112l165 852h-297l43 225h590l-209 -1077q-9 -47 -17 -83t-16 -64.5t-15.5 -50.5t-15.5 -40q-33 -78 -86 -128 t-131 -75q-83 -26 -208 -26h-307z" />
<glyph unicode="&#x459;" d="M-57 240h10q52 0 87.5 8t61 29.5t44 60.5t36.5 101q7 26 15.5 58.5t16.5 67t15.5 69.5t13.5 66l82 420h598l-82 -422h11q80 0 143.5 -20t107.5 -56t67.5 -85.5t23.5 -107.5q0 -18 -2 -37.5t-6 -41.5q-16 -88 -62 -154t-110.5 -109.5t-142 -65t-155.5 -21.5h-251l175 901 h-118l-38 -197q-4 -18 -11.5 -58.5t-20.5 -93.5t-31 -113.5t-41.5 -120t-53 -113t-64.5 -91.5q-55 -59 -134.5 -86.5t-187.5 -27.5h-44zM765 219q30 0 62.5 10t59.5 29t44.5 47t17.5 65q0 30 -12 51t-31.5 34t-43 18.5t-47.5 5.5h-17l-50 -260h17z" />
<glyph unicode="&#x45a;" d="M164 1120h240l-74 -381h299l74 381h240l-82 -422h11q80 0 143.5 -20t107.5 -56t67.5 -85.5t23.5 -107.5q0 -18 -2 -37.5t-6 -41.5q-16 -88 -62 -154t-110.5 -109.5t-142 -65t-155.5 -21.5h-251l101 520h-299l-101 -520h-240zM785 219q30 0 62.5 10t59.5 29t44.5 47 t17.5 65q0 30 -12 51t-31.5 34t-43 18.5t-47.5 5.5h-17l-50 -260h17z" />
<glyph unicode="&#x45b;" d="M249 895h-171l43 225h171l85 436h291l-85 -436h437l-43 -225h-437l-58 -295q48 91 131.5 143t197.5 52q125 0 188.5 -67t63.5 -203q0 -32 -4 -70t-12 -80l-73 -375h-291l64 330q5 24 8 52t3 50q0 62 -28.5 92.5t-82.5 30.5q-85 0 -143 -70.5t-82 -195.5l-56 -289h-291z " />
<glyph unicode="&#x45c;" d="M880 1648h321l-442 -376h-197zM276 1120h293l-74 -381l426 381h355l-505 -418l311 -702h-324l-205 524l-119 -96l-83 -428h-293z" />
<glyph unicode="&#x45d;" d="M431 1648h284l209 -376h-198zM261 1120h291l-139 -715l496 715h291l-218 -1120h-291l139 715l-496 -715h-291z" />
<glyph unicode="&#x45e;" d="M741 1270q-143 0 -216.5 65t-73.5 199v33h144v-13q0 -61 44 -97t122 -36q79 0 137.5 38.5t83.5 107.5h143q-29 -139 -125.5 -218t-258.5 -79zM-20 -201h117q41 0 73.5 5.5t61 23.5t55.5 52t57 91l39 74l-217 1075h297l127 -700l383 700h309l-706 -1241q-56 -99 -102 -159 t-91.5 -92t-95 -42t-112.5 -10h-240z" />
<glyph unicode="&#x45f;" d="M398 0h-340l218 1120h291l-175 -901h318l175 901h291l-218 -1120h-340l-56 -286h-220z" />
<glyph unicode="&#x462;" d="M343 1124h-250l41 209h250l31 160h295l-31 -160h323l-41 -209h-323l-41 -211h30q130 0 225.5 -19t157.5 -59.5t92 -102.5t30 -148q0 -31 -3.5 -64t-10.5 -69q-23 -116 -72.5 -201t-130.5 -140.5t-196.5 -82.5t-268.5 -27h-325zM507 236q77 0 131 11.5t90.5 37t57.5 66.5 t33 100q9 46 9 81q0 41 -13 69t-41 45t-73 24.5t-108 7.5h-41l-86 -442h41z" />
<glyph unicode="&#x463;" d="M357 950h-251l43 225h251l74 381h291l-74 -381h402l-43 -225h-402l-49 -252h127q188 0 291.5 -67.5t103.5 -202.5q0 -20 -2 -38.5t-6 -39.5q-16 -86 -59.5 -151.5t-110.5 -109.5t-156 -66.5t-197 -22.5h-418zM579 219q112 0 170 31t71 100q3 16 3 30q0 54 -48 76.5 t-146 22.5h-73l-50 -260h73z" />
<glyph unicode="&#x472;" d="M465 -29q-123 0 -202.5 37.5t-126 99t-64.5 141.5t-18 165q0 39 3 82t8.5 85.5t12 84t13.5 79.5q28 148 73 271.5t106.5 219t140 161t175.5 96.5q84 27 180 27q205 0 306.5 -119t101.5 -347q0 -65 -8 -144.5t-24 -165.5q-29 -153 -76 -279t-112 -221.5t-146 -159 t-177 -91.5q-76 -22 -166 -22zM860 911q6 63 6 115q0 108 -28 160q-20 37 -51 53t-72 16q-78 0 -133.5 -53.5t-100.5 -160.5l-10 -26t-10.5 -28t-11 -33.5t-12.5 -42.5h423zM518 236q57 0 101 27t79 79.5t63.5 130t52.5 178.5h-431q-8 -56 -12.5 -104t-4.5 -90 q0 -109 34.5 -165t117.5 -56z" />
<glyph unicode="&#x473;" d="M502 -29q-121 0 -207.5 40.5t-139.5 118.5q-73 107 -73 272q0 76 15.5 156.5t45.5 157.5t74.5 146.5t103.5 125.5q82 78 185.5 118.5t224.5 40.5q118 0 205 -39.5t141 -119.5q38 -57 55.5 -125.5t17.5 -147.5q0 -78 -16 -159t-46.5 -157.5t-75 -145.5t-101.5 -123 q-85 -80 -188 -119.5t-221 -39.5zM853 632q3 28 3 55q0 47 -9.5 87.5t-30 70.5t-53.5 47t-79 17q-53 0 -96.5 -22t-78 -60t-60 -88t-41.5 -107h445zM548 209q53 0 94.5 20.5t73.5 53.5t55 73.5t38 81.5h-432q0 -41 7 -81.5t26 -73.5t52 -53.5t86 -20.5z" />
<glyph unicode="&#x490;" d="M362 1493h670l60 306h260l-110 -566h-635l-240 -1233h-295z" />
<glyph unicode="&#x491;" d="M375 1120h590l61 314h209l-103 -533h-508l-175 -901h-291z" />
<glyph unicode="&#x492;" d="M216 664h-135l46 240h135l115 589h930l-50 -260h-635l-64 -329h425l-47 -240h-425l-129 -664h-295z" />
<glyph unicode="&#x493;" d="M266 458h-130l43 219h130l86 443h799l-43 -219h-508l-43 -224h360l-43 -219h-360l-89 -458h-291z" />
<glyph unicode="&#x494;" d="M324 -199h136q51 0 88.5 14t64 43.5t44.5 75t30 109.5l82 421q6 32 9.5 57.5t3.5 48.5q0 63 -29.5 89.5t-93.5 26.5h-234l-133 -686h-295l290 1493h930l-50 -260h-635l-55 -281h309q66 0 121 -14.5t95 -38.5q19 -11 33 -24t22 -29q36 -63 36 -162q0 -33 -4 -71.5 t-12 -80.5l-95 -489q-24 -126 -63 -214.5t-97 -145t-137.5 -82t-185.5 -25.5h-218z" />
<glyph unicode="&#x495;" d="M332 -199h113q47 0 83 11.5t63.5 39.5t46.5 74.5t33 116.5l27 137q6 30 8.5 55t2.5 45q0 68 -28 96.5t-86 28.5h-120l-79 -405h-291l218 1120h799l-41 -209h-508l-52 -266h237q128 0 192.5 -67t64.5 -201q0 -35 -4.5 -72.5t-12.5 -79.5l-36 -182q-25 -125 -63 -214 t-95 -145t-135.5 -82t-184.5 -26h-195z" />
<glyph unicode="&#x496;" d="M836 0h-10l-52 537l-113 -181l-69 -356h-240l69 356l-41 181l-262 -537h-250l430 886l-140 607h261l122 -523l101 523h240l-101 -523l324 523h261l-376 -607l61 -626h76l-113 -582h-240z" />
<glyph unicode="&#x497;" d="M895 0h-39l-73 427l-96 -122l-59 -305h-240l59 305l-48 122l-239 -427h-255l389 694l-167 426h277l135 -343l67 343h240l-67 -343l269 343h277l-333 -426l82 -475h83l-99 -505h-219z" />
<glyph unicode="&#x498;" d="M764 805q141 -38 203.5 -122t62.5 -214q0 -102 -34.5 -187t-99.5 -149t-158.5 -104t-210.5 -53q55 -82 55 -162q0 -49 -19.5 -88.5t-57 -67.5t-91.5 -43.5t-122 -15.5q-45 0 -96 6.5t-99 19.5l28 156q87 -35 162 -35q66 0 102.5 26.5t36.5 76.5q0 23 -9.5 52t-32.5 71 q-95 3 -199 21.5t-216 51.5l54 270q94 -45 199 -69.5t201 -24.5q81 0 142 18t102.5 50.5t62 78t20.5 101.5q0 102 -64 150.5t-172 48.5h-158l52 260h157q62 0 113.5 14.5t88 41t57 62.5t20.5 78q0 70 -57.5 108t-166.5 38q-81 0 -179.5 -21t-209.5 -61l54 268 q105 32 201.5 48t177.5 16q105 0 189.5 -25.5t144 -72t91 -111.5t31.5 -145q0 -70 -24.5 -129.5t-70 -106t-111.5 -78.5t-150 -47z" />
<glyph unicode="&#x499;" d="M1095 836q-12 -62 -35.5 -105.5t-54.5 -74t-68.5 -50.5t-77.5 -33q37 -12 68.5 -33t54.5 -51t36 -68.5t13 -85.5q0 -83 -40.5 -145.5t-111 -106t-166 -68.5t-206.5 -33q59 -86 59 -168q0 -49 -19.5 -88.5t-57 -67.5t-91.5 -43.5t-122 -15.5q-45 0 -96 6.5t-99 19.5 l28 156q87 -35 162 -35q66 0 102.5 26.5t36.5 76.5q0 24 -10.5 54t-34.5 75q-36 1 -72.5 4t-74.5 10.5t-79 19.5t-87 32l46 236q45 -24 85 -39.5t82 -24.5t90.5 -12t111.5 -3q55 0 101.5 3.5t82 16t58.5 37.5t31 67q3 15 3 27q0 31 -19.5 52t-49.5 34t-67 18.5t-71 5.5h-163 l43 219h137q42 0 87 7t82.5 23t61.5 42.5t24 65.5q0 56 -56.5 82.5t-174.5 26.5q-164 0 -326 -52l43 223q80 22 175 35t191 13q112 0 195 -18.5t138 -52.5t81.5 -80.5t26.5 -101.5q0 -14 -1.5 -29t-4.5 -29z" />
<glyph unicode="&#x49a;" d="M797 0h-10l-254 670l-172 -170l-95 -500h-294l288 1493h295l-108 -557l563 557h348l-606 -604l239 -629h150l-128 -656h-293z" />
<glyph unicode="&#x49b;" d="M781 0h-35l-205 524l-119 -96l-83 -428h-293l218 1120h293l-74 -381l426 381h355l-506 -418l219 -493h134l-104 -533h-289z" />
<glyph unicode="&#x4a2;" d="M860 0h-239l129 664h-369l-129 -664h-295l290 1493h295l-110 -569h369l110 569h295l-239 -1233h237l-128 -656h-293z" />
<glyph unicode="&#x4a3;" d="M917 0h-291l103 530h-317l-103 -530h-291l218 1120h291l-74 -381h317l74 381h291l-177 -911h289l-104 -533h-289z" />
<glyph unicode="&#x4a4;" d="M353 1493h240l-112 -578h315l112 578h580l-48 -247h-340l-242 -1246h-240l131 675h-315l-131 -675h-240z" />
<glyph unicode="&#x4a5;" d="M227 1120h240l-76 -390h323l76 390h568l-41 -210h-328l-177 -910h-240l101 520h-323l-101 -520h-240z" />
<glyph unicode="&#x4aa;" d="M871 1520q85 0 162.5 -18t155.5 -54l-64 -328q-24 33 -55 59t-66.5 43t-74 26t-77.5 9q-94 0 -168.5 -48.5t-129.5 -133.5q-34 -52 -62 -118t-48.5 -137.5t-32 -144.5t-11.5 -139q0 -153 63 -229t184 -76q78 0 158.5 33.5t174.5 106.5l-64 -328q-60 -28 -121 -45 t-126 -23q27 -42 40.5 -81t13.5 -80q0 -49 -19.5 -88.5t-57 -67.5t-91.5 -43.5t-122 -15.5q-45 0 -96 6.5t-99 19.5l28 156q87 -35 162 -35q66 0 102.5 26.5t36.5 76.5q0 23 -10 52.5t-33 72.5q-206 18 -314.5 154.5t-108.5 393.5q0 106 18.5 214.5t52.5 210t82.5 191 t108.5 158.5q97 111 226.5 167.5t281.5 56.5z" />
<glyph unicode="&#x4ab;" d="M805 909q-86 0 -156.5 -33t-121 -91.5t-78.5 -138.5t-28 -174q0 -136 59.5 -199.5t180.5 -63.5q74 0 151.5 24.5t174.5 79.5l-56 -276q-144 -61 -300 -66q52 -79 52 -157q0 -49 -19.5 -88.5t-57 -67.5t-91.5 -43.5t-122 -15.5q-45 0 -96 6.5t-99 19.5l28 156 q87 -35 162 -35q66 0 102.5 26.5t36.5 76.5q0 25 -10.5 55.5t-36.5 77.5q-168 31 -261.5 150.5t-93.5 324.5q0 147 48 273t136 218.5t211.5 145.5t274.5 53q91 0 176 -20.5t161 -63.5l-53 -268q-120 114 -274 114z" />
<glyph unicode="&#x4ac;" d="M634 0h-295l240 1235h-379l50 258h1053l-50 -258h-379l-189 -975h293l-128 -656h-293z" />
<glyph unicode="&#x4ad;" d="M623 0h-291l177 911h-308l41 209h907l-41 -209h-308l-136 -702h289l-104 -533h-289z" />
<glyph unicode="&#x4ae;" d="M455 588l-287 905h293l187 -649l411 649h322l-633 -905l-115 -588h-293z" />
<glyph unicode="&#x4af;" d="M365 31l-203 1089h308l110 -727l392 727h308l-625 -1089l-89 -457h-290z" />
<glyph unicode="&#x4b0;" d="M390 264h-240l51 260h240l12 64l-285 905h318l173 -600l408 600h318l-637 -905l-12 -64h240l-51 -260h-240l-51 -264h-295z" />
<glyph unicode="&#x4b1;" d="M310 -250h-200l43 219h200l12 62l-203 1089h308l110 -727l392 727h308l-625 -1089l-12 -62h200l-43 -219h-200l-34 -176h-290z" />
<glyph unicode="&#x4b2;" d="M763 0h-12l-189 494l-380 -494h-305l585 758l-283 735h305l180 -475l365 475h305l-567 -735l190 -498h150l-128 -656h-293z" />
<glyph unicode="&#x4b3;" d="M774 0h-53l-147 377l-292 -377h-342l528 584l-277 536h342l121 -334l252 334h342l-481 -536l190 -375h147l-104 -533h-289z" />
<glyph unicode="&#x4ba;" d="M273 1556h291l-129 -666q27 50 74 77l53 31q31 18 84.5 30t127.5 18l58 3q67 0 123.5 -15t91.5 -38q20 -13 32 -26.5t20 -26.5q36 -59 36 -163q0 -32 -4 -70.5t-12 -80.5l-122 -629h-291l109 561q12 60 12 103q0 45 -13 70q-16 37 -109 49q-23 3 -42 3q-69 0 -147 -29 q-32 -12 -45.5 -21.5t-24.5 -20.5q-28 -31 -49 -81t-34 -114l-101 -520h-291z" />
<glyph unicode="&#x4bb;" d="M362 1556h291l-116 -604q48 91 130 143t191 52q124 0 193 -69t69 -196q0 -32 -4.5 -69t-13.5 -85l-141 -728h-293l133 682q5 26 7.5 53t2.5 45q0 66 -29 96.5t-83 30.5q-85 0 -142.5 -71t-83.5 -207l-121 -629h-293z" />
<glyph unicode="&#x4c0;" d="M78 260h297l188 973h-297l51 260h889l-51 -260h-297l-188 -973h297l-52 -260h-888z" />
<glyph unicode="&#x4c1;" d="M761 1590q-137 0 -210 67t-73 193v4h143q10 -60 51 -87.5t120 -27.5q72 0 124.5 30.5t75.5 84.5h154q-40 -130 -138.5 -197t-246.5 -67zM298 886l-140 607h261l121 -523l102 523h240l-102 -523l325 523h261l-376 -607l86 -886h-250l-53 537l-112 -181l-69 -356h-240 l69 356l-42 181l-261 -537h-250z" />
<glyph unicode="&#x4c2;" d="M751 1270q-295 0 -295 264v33h144v-13q0 -61 44 -97t120 -36q81 0 139.5 38.5t83.5 107.5h143q-29 -143 -127.5 -220t-251.5 -77zM294 694l-167 426h277l135 -343l67 343h240l-67 -343l269 343h277l-333 -426l119 -694h-255l-73 427l-96 -122l-59 -305h-240l59 305 l-48 122l-239 -427h-255z" />
<glyph unicode="&#x4c3;" d="M309 -199h136q49 0 86 13t64 42q28 30 46 76t31 111l82 421q12 61 12 104q0 46 -13 69q-40 49 -109 49h-87l-182 -180l-98 -506h-295l290 1493h295l-114 -590l576 590h334l-538 -541q85 0 162 -53q21 -14 34 -26.5t21 -26.5q17 -28 26.5 -71t9.5 -97q0 -32 -4 -68.5 t-12 -77.5l-95 -489q-24 -124 -62.5 -212.5t-96.5 -145t-138 -83t-186 -26.5h-218z" />
<glyph unicode="&#x4c4;" d="M298 -199h113q47 0 83 11.5t63.5 39.5t46.5 74.5t33 116.5l27 137q6 30 8.5 55t2.5 45q0 68 -28 96.5t-86 28.5h-120l-79 -405h-293l218 1120h293l-74 -381l426 381h355l-575 -475h12q128 0 192.5 -67t64.5 -201q0 -35 -4.5 -72.5t-12.5 -79.5l-36 -182 q-25 -125 -63 -214t-95 -145t-135.5 -82t-184.5 -26h-195z" />
<glyph unicode="&#x4c7;" d="M301 -199h136q51 0 88.5 14t64 43.5t44.5 75t30 109.5l121 621h-369l-129 -664h-295l290 1493h295l-110 -569h369l110 569h295l-282 -1450q-24 -126 -64 -214.5t-98.5 -145t-137.5 -82t-183 -25.5h-218z" />
<glyph unicode="&#x4c8;" d="M343 -199h113q51 0 88.5 14t64 43.5t44.5 75t30 109.5l95 487h-317l-103 -530h-291l218 1120h291l-74 -381h317l74 381h291l-210 -1077q-25 -128 -64 -217t-97 -144.5t-136.5 -80.5t-181.5 -25h-195z" />
<glyph unicode="&#x4cb;" d="M427 260h293l98 506q-26 -50 -74 -77l-53 -31q-31 -18 -89 -31t-123 -17l-58 -3q-67 0 -123.5 15t-91.5 38q-20 13 -32 26.5t-20 26.5q-36 59 -36 163q0 32 4 70.5t12 80.5l102 529h291l-89 -461q-12 -60 -12 -103q0 -45 13 -70q16 -37 109 -49q22 -3 42 -3q69 0 147 29 q32 12 45.5 21.5t24.5 20.5q28 31 49 81t34 114l81 420h291l-302 -1556h-291l-77 -396h-293z" />
<glyph unicode="&#x4cc;" d="M404 209h289l40 207h-107q-231 0 -365 101l-4 3q-43 33 -66 82.5t-23 114.5q0 23 2.5 47.5t7.5 48.5l60 307h299l-66 -337q-3 -18 -3 -33q0 -38 20 -61q3 -4 7.5 -8t10.5 -9q48 -39 162 -39h107l95 488h290l-218 -1121h-290l-63 -324h-289z" />
<glyph unicode="&#x4cf;" d="M641 1556h293l-302 -1556h-293z" />
<glyph unicode="&#x4d0;" d="M776 1590q-142 0 -215 67t-73 193v4h143q8 -54 47 -84.5t118 -30.5q78 0 129.5 29.5t76.5 85.5h154q-20 -66 -56.5 -115.5t-85.5 -82.5t-109.5 -49.5t-128.5 -16.5zM582 1493h360l113 -1493h-293l-14 369h-400l-162 -369h-299zM737 612l-20 607l-264 -607h284z" />
<glyph unicode="&#x4d1;" d="M736 1297q-143 0 -216.5 65t-73.5 199v33h144v-13q0 -61 44 -97t122 -36q79 0 137.5 38.5t83.5 107.5h143q-29 -139 -125.5 -218t-258.5 -79zM381 -29q-78 0 -139.5 22t-105 64t-66.5 103.5t-23 141.5q0 103 39.5 184t116 137t189 85t259.5 29h193l8 49q1 6 1.5 11.5 t0.5 13.5q0 60 -50 90.5t-143 30.5q-88 0 -189.5 -27.5t-223.5 -85.5l47 250q63 21 117.5 36t105 24.5t97.5 13.5t94 4q209 0 320.5 -76t111.5 -226q0 -40 -7.5 -92t-19.5 -114l-123 -639h-262l-4 125q-67 -78 -154.5 -116t-189.5 -38zM504 172q54 0 102.5 24t87.5 70 t67 112.5t42 151.5h-113q-168 0 -253 -51t-85 -154q0 -72 40 -112.5t112 -40.5z" />
<glyph unicode="&#x4d2;" d="M487 1608q-16 0 -22.5 9t-3.5 24l38 186q6 27 32 27h175q16 0 22.5 -9t3.5 -24l-37 -186q-5 -27 -32 -27h-176zM883 1608q-16 0 -22.5 9t-3.5 24l37 186q4 27 32 27h175q15 0 22.5 -9t4.5 -24l-36 -186q-5 -27 -32 -27h-177zM582 1493h360l113 -1493h-293l-14 369h-400 l-162 -369h-299zM737 612l-20 607l-264 -607h284z" />
<glyph unicode="&#x4d3;" d="M480 1347q-15 0 -22.5 9t-4.5 24l36 186q4 27 32 27h177q16 0 22.5 -9t3.5 -24l-37 -186q-5 -27 -32 -27h-175zM875 1347q-15 0 -22.5 9t-4.5 24l36 186q4 27 32 27h178q16 0 22.5 -9t3.5 -24l-37 -186q-5 -27 -32 -27h-176zM381 -29q-78 0 -139.5 22t-105 64 t-66.5 103.5t-23 141.5q0 103 39.5 184t116 137t189 85t259.5 29h193l8 49q1 6 1.5 11.5t0.5 13.5q0 60 -50 90.5t-143 30.5q-88 0 -189.5 -27.5t-223.5 -85.5l47 250q63 21 117.5 36t105 24.5t97.5 13.5t94 4q209 0 320.5 -76t111.5 -226q0 -40 -7.5 -92t-19.5 -114 l-123 -639h-262l-4 125q-67 -78 -154.5 -116t-189.5 -38zM504 172q54 0 102.5 24t87.5 70t67 112.5t42 151.5h-113q-168 0 -253 -51t-85 -154q0 -72 40 -112.5t112 -40.5z" />
<glyph unicode="&#x4d4;" d="M522 1493h809l-51 -260h-291l-60 -311h260l-51 -260h-260l-78 -402h310l-52 -260h-563l72 362h-283l-155 -362h-259zM612 598l125 635h-80l-272 -635h227z" />
<glyph unicode="&#x4d5;" d="M246 -29q-63 0 -114.5 20t-87.5 58.5t-55.5 94t-19.5 127.5q0 91 31.5 168t90 132.5t141 87t184.5 31.5h108l11 58q6 30 6 58q0 62 -33.5 94t-96.5 32q-107 0 -280 -101l47 238q79 39 151.5 58.5t136.5 19.5q92 0 148 -36.5t80 -96.5q52 66 121 99.5t156 33.5 q125 0 192.5 -70t67.5 -202q0 -43 -7.5 -110t-24.5 -159l-23 -129h-451q-8 -49 -11 -75.5t-3 -44.5q0 -81 42 -129t114 -48q55 0 123 28.5t134 80.5l-47 -238q-60 -42 -130 -61t-136 -19q-199 0 -268 164q-61 -84 -134 -124t-163 -40zM991 688l12 67q7 32 7 71q0 22 -3 41 t-11.5 33.5t-24.5 23t-43 8.5q-114 0 -148 -172l-14 -72h225zM297 180q64 0 104.5 52t61.5 169l14 78h-74q-49 0 -89 -13.5t-68 -38t-43 -58.5t-15 -74q0 -57 29 -86t80 -29z" />
<glyph unicode="&#x4d6;" d="M794 1580q-142 0 -215 67t-73 193v4h143q8 -54 47 -84.5t118 -30.5q78 0 129.5 29.5t76.5 85.5h154q-20 -66 -56.5 -115.5t-85.5 -82.5t-109.5 -49.5t-128.5 -16.5zM317 1493h932l-51 -260h-635l-63 -322h575l-49 -260h-575l-76 -391h635l-52 -260h-929z" />
<glyph unicode="&#x4d7;" d="M730 1299q-143 0 -216.5 65t-73.5 199v33h144v-13q0 -61 44 -97t122 -36q79 0 137.5 38.5t83.5 107.5h143q-29 -139 -125.5 -218t-258.5 -79zM586 -29q-253 0 -381.5 117t-128.5 352q0 68 11 135.5t32 131.5t52.5 122.5t72.5 108.5q85 103 200 157t252 54 q104 0 188.5 -31.5t144.5 -89t93 -139t33 -181.5q0 -42 -6.5 -100.5t-20.5 -142.5h-759q-3 -17 -4.5 -32t-2.5 -30q0 -200 268 -200q106 0 213 30.5t201 90.5l-51 -269q-96 -42 -198.5 -63t-208.5 -21zM876 684q7 27 7 55q0 84 -51 132.5t-143 48.5q-97 0 -168 -59 t-111 -177h466z" />
<glyph unicode="&#x4d8;" d="M465 -29q-406 0 -406 476q0 70 8.5 142.5t24.5 155.5l18 95h741q8 55 13 102.5t5 90.5q0 109 -38.5 165.5t-133.5 56.5q-72 0 -150.5 -33t-166.5 -102l64 328q78 36 158 54t161 18q208 0 309.5 -118t101.5 -355q0 -133 -33 -302q-37 -188 -97.5 -332.5t-145 -242.5 t-193 -148.5t-240.5 -50.5zM517 236q57 0 100.5 26.5t76.5 73t57.5 109.5t44.5 135h-423q-4 -32 -6 -63t-2 -60q0 -49 7.5 -89.5t25 -70t46.5 -45.5t73 -16z" />
<glyph unicode="&#x4d9;" d="M492 -29q-204 0 -314.5 105t-110.5 301q0 35 4 74.5t12 82.5l23 119h759q4 18 5.5 35t1.5 32q0 195 -264 195q-102 0 -204.5 -29t-222.5 -92l52 269q112 43 223 63.5t217 20.5q246 0 368 -107.5t122 -310.5q0 -42 -4.5 -84.5t-12.5 -81.5q-26 -135 -83.5 -244.5 t-142 -187t-193 -119t-235.5 -41.5zM537 198q109 0 179 61t104 175l-461 -1q-3 -18 -5 -35t-2 -34q0 -82 48 -124t137 -42z" />
<glyph unicode="&#x4da;" d="M487 1608q-16 0 -22.5 9t-3.5 24l38 186q6 27 32 27h175q16 0 22.5 -9t3.5 -24l-37 -186q-5 -27 -32 -27h-176zM883 1608q-16 0 -22.5 9t-3.5 24l37 186q4 27 32 27h175q15 0 22.5 -9t4.5 -24l-36 -186q-5 -27 -32 -27h-177zM465 -29q-406 0 -406 476q0 70 8.5 142.5 t24.5 155.5l18 95h741q8 55 13 102.5t5 90.5q0 109 -38.5 165.5t-133.5 56.5q-72 0 -150.5 -33t-166.5 -102l64 328q78 36 158 54t161 18q208 0 309.5 -118t101.5 -355q0 -133 -33 -302q-37 -188 -97.5 -332.5t-145 -242.5t-193 -148.5t-240.5 -50.5zM517 236 q57 0 100.5 26.5t76.5 73t57.5 109.5t44.5 135h-423q-4 -32 -6 -63t-2 -60q0 -49 7.5 -89.5t25 -70t46.5 -45.5t73 -16z" />
<glyph unicode="&#x4db;" d="M449 1347q-15 0 -22.5 9t-4.5 24l36 186q4 27 32 27h177q16 0 22.5 -9t3.5 -24l-37 -186q-5 -27 -32 -27h-175zM844 1347q-15 0 -22.5 9t-4.5 24l36 186q4 27 32 27h178q16 0 22.5 -9t3.5 -24l-37 -186q-5 -27 -32 -27h-176zM492 -29q-204 0 -314.5 105t-110.5 301 q0 35 4 74.5t12 82.5l23 119h759q4 18 5.5 35t1.5 32q0 195 -264 195q-102 0 -204.5 -29t-222.5 -92l52 269q112 43 223 63.5t217 20.5q246 0 368 -107.5t122 -310.5q0 -42 -4.5 -84.5t-12.5 -81.5q-26 -135 -83.5 -244.5t-142 -187t-193 -119t-235.5 -41.5zM537 198 q109 0 179 61t104 175l-461 -1q-3 -18 -5 -35t-2 -34q0 -82 48 -124t137 -42z" />
<glyph unicode="&#x4dc;" d="M494 1608q-16 0 -22.5 9t-3.5 24l38 186q6 27 32 27h175q16 0 22.5 -9t3.5 -24l-37 -186q-5 -27 -32 -27h-176zM890 1608q-16 0 -22.5 9t-3.5 24l37 186q4 27 32 27h175q15 0 22.5 -9t4.5 -24l-36 -186q-5 -27 -32 -27h-177zM298 886l-140 607h261l121 -523l102 523h240 l-102 -523l325 523h261l-376 -607l86 -886h-250l-53 537l-112 -181l-69 -356h-240l69 356l-42 181l-261 -537h-250z" />
</font>
</defs>
</svg>
