<?xml version="1.0" standalone="no"?>
<!DOCTYPE svg PUBLIC "-//W3C//DTD SVG 1.1//EN" "http://www.w3.org/Graphics/SVG/1.1/DTD/svg11.dtd" >
<svg xmlns="http://www.w3.org/2000/svg" xmlns:xlink="http://www.w3.org/1999/xlink" version="1.1">
<metadata></metadata>
<defs>
<font id="hackregular" horiz-adv-x="1233" >
<font-face units-per-em="2048" ascent="1638" descent="-410" />
<missing-glyph horiz-adv-x="500" />
<glyph unicode="&#xd;" />
<glyph horiz-adv-x="0" />
<glyph horiz-adv-x="0" />
<glyph unicode=" " />
<glyph unicode="!" d="M481 1053v445h265v-445l-67 -567h-121zM616 -60q-70 0 -116 48q-46 47 -46 125q0 77 46 124q47 47 116 47t116 -47q46 -46 46 -124q0 -42 -11.5 -72t-34.5 -53q-47 -48 -116 -48z" />
<glyph unicode="&#x22;" d="M338 1493h174v-555h-174v555zM721 1493h174v-555h-174v555z" />
<glyph unicode="#" d="M260 414h-258v153h297l84 334h-266v154h303l104 415h160l-104 -415h245l105 415h160l-105 -415h244v-154h-281l-84 -334h250v-153h-289l-104 -414h-160l105 414h-246l-105 -414h-159zM705 567l83 334h-245l-84 -334h246z" />
<glyph unicode="$" d="M591 0q-51 2 -101 9.5t-101 18.5q-50 11 -98 26.5t-101 37.5v180q54 -33 102 -55.5t100 -39.5q102 -34 200 -35v458q-100 16 -174.5 45.5t-126.5 76.5q-51 46 -76 105.5t-25 136.5q0 156 106 250t296 107v235h100v-235q41 -2 82.5 -7.5t78.5 -12.5q41 -8 82 -18t83 -23 v-173q-44 23 -90 41t-75 26q-34 10 -76.5 17.5t-84.5 9.5v-431q207 -32 314 -128q108 -98 108 -249q0 -76 -28 -140.5t-88 -118.5q-116 -103 -305 -112v-303h-102v301zM592 1183q-104 -5 -162 -60q-59 -56 -59 -149q0 -46 14 -79t41 -58q55 -50 166 -67v413zM692 146 q111 3 172 61q62 59 62 156q0 46 -13.5 83.5t-42.5 63.5q-55 50 -178 70v-434z" />
<glyph unicode="%" d="M351 793q-68 0 -126 24.5t-100 66.5q-45 45 -68.5 103.5t-23.5 124.5q0 71 25 129t67 100t100 66.5t127 24.5q64 0 123 -24q58 -24 103 -69q23 -23 41 -49.5t29 -53.5q24 -59 24 -123q0 -66 -24 -125t-68 -103q-42 -42 -101 -67t-128 -25zM351 928q37 0 71 13.5t61 39.5 q23 23 38.5 56.5t15.5 75.5q0 76 -54 130q-55 53 -130 53q-77 0 -131 -52q-25 -24 -39.5 -58t-14.5 -74q0 -79 53 -132q22 -22 55 -37t75 -15zM42 560l1150 436v-113l-1150 -430v107zM879 0q-136 0 -228 92q-45 46 -67.5 103.5t-22.5 122.5q0 71 25 129.5t67 100.5t100 66.5 t126 24.5q65 0 122 -24t103 -70q26 -26 43 -53t28 -52q25 -57 25 -121q0 -63 -22.5 -121t-70.5 -106q-47 -46 -104.5 -69t-123.5 -23zM879 135q77 0 131 54q53 53 53 130t-54 131t-130 54q-77 0 -130 -53t-53 -132q0 -78 53 -131t130 -53z" />
<glyph unicode="&#x26;" d="M552 -30q-107 0 -197.5 36.5t-156.5 99.5q-64 61 -103 145.5t-39 187.5q0 67 17.5 133.5t52.5 125.5q68 116 208 217q-51 73 -74 141q-24 69 -24 141q0 79 26 136.5t74 99.5q99 87 272 87q65 0 131 -12q29 -5 63 -14t72 -21v-183q-29 20 -61 35t-61 23q-62 18 -128 18 q-101 0 -156 -45q-56 -45 -56 -124q0 -58 29 -122q14 -30 39 -71t67 -97l416 -559q38 49 58 124q10 38 14.5 82.5t4.5 92.5q0 20 -0.5 45.5t-2.5 60.5l-1 7h164v-39q0 -162 -37 -282q-18 -59 -46 -112t-66 -98l170 -229h-213l-78 109q-40 -34 -83 -60t-94 -44 q-42 -15 -93 -25t-108 -10zM585 125q25 0 46.5 3t44.5 9q49 13 90 35q24 13 45 27q11 7 16 10.5t7.5 6t4 3.5t5.5 4l-428 580q-93 -75 -137 -154q-46 -82 -46 -176q0 -72 24.5 -135t74.5 -113q47 -47 111.5 -73.5t141.5 -26.5z" />
<glyph unicode="'" d="M528 1493h174v-555h-174v555z" />
<glyph unicode="(" d="M595 -270q-78 124 -133 237.5t-92 226.5q-74 227 -74 449q0 221 74 449q38 115 93 228.5t132 233.5h160q-71 -121 -118.5 -231.5t-79.5 -222.5q-34 -118 -50 -230t-16 -227q0 -118 16.5 -229.5t49.5 -226.5t81 -226t117 -231h-160v0z" />
<glyph unicode=")" d="M478 -270q132 231 199 459q31 107 48 222t17 232q0 112 -16.5 227.5t-48.5 227.5q-31 107 -80.5 222t-118.5 234h160q153 -237 225 -462q74 -228 74 -449q0 -223 -74 -451q-74 -227 -225 -462h-160v0z" />
<glyph unicode="*" d="M250 566l242 371l-364 158l36 103l376 -123l20 425h108l20 -425l376 123l36 -103l-364 -158l242 -371l-94 -67l-270 357l-270 -357z" />
<glyph unicode="+" d="M532 557h-444v170h444v444h168v-444h445v-170h-445v-444h-168v444z" />
<glyph unicode="," d="M400 -283q244 109 252 334q-12 -2 -21.5 -3t-18.5 -1q-32 0 -60 9.5t-50 29.5q-44 39 -44 110q0 33 11 62.5t35 50.5q20 17 50 28.5t66 11.5q85 0 132 -68q46 -67 46 -188q0 -171 -92 -295q-92 -123 -260 -185z" />
<glyph unicode="-" d="M206 683h821v-164h-821v164z" />
<glyph unicode="." d="M613 -27q-68 0 -115 47t-47 122t47 122t115 47t115 -47t47 -122t-47 -122t-115 -47z" />
<glyph unicode="/" d="M889 1493h190l-786 -1683h-191z" />
<glyph unicode="0" d="M616 -29q-240 0 -361 196q-122 197 -122 578q0 382 122 579q121 196 361 196q118 0 209 -48t153 -148q60 -96 91 -239.5t31 -339.5t-31 -339t-91 -239q-123 -196 -362 -196zM616 131q73 0 125.5 39t86.5 113q69 151 69 462q0 312 -69 462q-34 75 -86 114t-126 39 q-141 0 -210 -152q-35 -75 -52.5 -188.5t-17.5 -274.5q0 -312 70 -462q36 -78 88.5 -115t121.5 -37zM618 396q-15 0 -27.5 11.5t-22 31t-16.5 46t-13 55.5q-5 24 -9 53t-7 58.5t-5 55.5t-2 43q0 12 1 35t3.5 51t6 58.5t9.5 58.5q28 143 78 143q28 0 47.5 -38t33.5 -108 q5 -25 9 -54t7 -57.5t4.5 -54t1.5 -42.5q0 -10 -0.5 -31t-2.5 -48.5t-5.5 -58.5t-8.5 -62q-13 -74 -34.5 -110t-47.5 -36z" />
<glyph unicode="1" d="M270 170h314v1141l-338 -76v184l336 74h202v-1323h310v-170h-824v170z" />
<glyph unicode="2" d="M152 134q0 19 5.5 33.5t19.5 28.5q57 60 135 142.5t167 179.5q51 55 82 89t51 56t32.5 36.5t26.5 31.5q27 32 47.5 58.5t37 50t29 45.5t22.5 44q17 38 26 76t9 80q0 60 -18 109.5t-55 84.5q-74 71 -203 71q-90 0 -190 -33t-212 -100v204q52 25 103.5 43.5t99.5 30.5 q50 13 99 19t97 6q104 0 195 -28t159 -88q60 -53 96 -129.5t36 -172.5q0 -51 -11 -99.5t-33 -97.5q-11 -25 -25 -49t-31.5 -49t-39.5 -52.5t-49 -59.5q-29 -34 -69 -79t-93 -102q-38 -41 -70 -73.5t-68.5 -69t-83 -83.5t-113.5 -118h696v-170h-907v134z" />
<glyph unicode="3" d="M566 -29q-48 0 -100.5 4.5t-106.5 14.5q-46 8 -101 22t-109 33v204q51 -26 100 -47t101 -35q50 -13 98.5 -19.5t98.5 -6.5q166 0 255 75q45 38 67 92t22 121q0 134 -88 210q-43 37 -104 56.5t-138 19.5h-154v166h154q140 0 218 61q77 60 77 173q0 54 -18 98.5t-54 75.5 q-71 61 -210 61q-41 0 -87 -5t-94 -15q-97 -20 -199 -60v186q121 31 216 48q92 16 169 16q105 0 193.5 -27t154.5 -82q62 -52 95.5 -125t33.5 -164q0 -65 -17.5 -116t-50.5 -91q-68 -81 -200 -116q147 -39 225 -138q41 -52 59.5 -115t18.5 -135q0 -100 -34 -181.5 t-103 -140.5q-68 -58 -164.5 -88t-223.5 -30z" />
<glyph unicode="4" d="M735 356h-633v191l600 946h234v-973h199v-164h-199v-356h-201v356zM735 520v789l-471 -789h471z" />
<glyph unicode="5" d="M525 -29q-45 0 -100.5 4t-104.5 12q-51 8 -94 20t-83 28v205q93 -50 185 -74q94 -25 185 -25q174 0 263 88q90 88 90 248q0 87 -25 149t-68 103q-42 40 -108 64t-157 24q-37 0 -76.5 -4.5t-77.5 -13.5q-37 -9 -76 -24t-71 -32v750h756v-170h-572v-367q43 16 87 24 q41 7 88 7q121 0 213 -37t155 -100q68 -69 101.5 -162.5t33.5 -206.5q0 -118 -36 -213t-105 -162q-69 -66 -168.5 -100.5t-234.5 -34.5z" />
<glyph unicode="6" d="M633 -29q-137 0 -228 48.5t-150 139.5q-63 98 -92.5 240t-29.5 325q0 206 36.5 353t108.5 245t177.5 148t242.5 50q41 0 79.5 -4t70.5 -11q40 -8 75.5 -20t67.5 -25v-186q-30 18 -65 33t-69 24q-35 10 -73 14.5t-73 4.5q-195 0 -293 -144q-99 -146 -99 -426 q48 100 133 154q45 28 94 40.5t109 12.5q100 0 183.5 -33t143.5 -99t89 -161t29 -213q0 -122 -30.5 -216.5t-90.5 -160.5t-146.5 -99.5t-199.5 -33.5zM633 129q65 0 115.5 22t84.5 67q68 89 68 261q0 173 -68 262q-35 46 -86 67t-113 21q-70 0 -121 -24.5t-85 -67.5 q-35 -44 -54.5 -108.5t-19.5 -149.5t19.5 -149.5t54.5 -108.5q34 -43 85 -67.5t120 -24.5z" />
<glyph unicode="7" d="M854 1323h-715v170h940v-86l-534 -1407h-211z" />
<glyph unicode="8" d="M615 -29q-116 0 -204.5 29.5t-150.5 83.5t-95.5 132.5t-33.5 183.5q0 159 80 260q79 100 229 133q-61 15 -113 46t-88 76q-38 47 -55.5 103t-17.5 119q0 85 30 155.5t91 123.5q59 51 140.5 77.5t188.5 26.5t189 -26.5t141 -77.5q60 -51 90.5 -121.5t30.5 -158.5 q0 -68 -18.5 -122t-53.5 -98t-85.5 -75t-116.5 -48q151 -33 230 -133t79 -258q0 -105 -33.5 -184.5t-95.5 -133.5q-63 -55 -153 -84t-205 -29zM616 868q121 0 186 63q64 63 64 183q0 121 -63 186q-64 64 -187 64q-121 0 -185 -64t-64 -186q0 -120 64 -183t185 -63zM619 129 q66 0 118 19t89 57t55 91.5t18 121.5q0 74 -19.5 127t-54.5 88q-75 76 -209 76q-135 0 -208 -75q-35 -36 -54.5 -89.5t-19.5 -123.5q0 -68 18.5 -122.5t55.5 -92.5q38 -39 91.5 -58t119.5 -19z" />
<glyph unicode="9" d="M528 -29q-37 0 -75.5 3.5t-73.5 11.5q-32 7 -70 19t-73 26v186q32 -19 66.5 -33t67.5 -23q72 -20 147 -20q193 0 292 145q98 145 98 425q-23 -51 -58 -90t-74 -64q-83 -53 -206 -53q-100 0 -182 33.5t-141 99.5q-119 134 -119 373q0 118 29.5 214.5t92.5 164.5 q60 66 147 98.5t198 32.5q137 0 228 -48.5t150 -139.5q64 -100 93 -243t29 -323q0 -198 -34.5 -347t-109.5 -250q-74 -100 -181 -149t-241 -49zM593 662q70 0 121 24.5t85 67.5q35 44 54 108.5t19 149.5t-19 149.5t-54 108.5q-34 43 -85 67.5t-121 24.5q-62 0 -113 -21 t-86 -67q-68 -89 -68 -262t68 -262q34 -45 84.5 -66.5t114.5 -21.5z" />
<glyph unicode=":" d="M620 716q-68 0 -115 47t-47 122t47 122t115 47t115 -47t47 -122t-47 -122t-115 -47zM620 0q-68 0 -115 47t-47 122t47 122t115 47t115 -47t47 -122t-47 -122t-115 -47z" />
<glyph unicode=";" d="M610 703q-72 0 -120 50q-50 48 -50 128q0 78 50 128q48 49 120 49q73 0 121 -49q49 -49 49 -128q0 -80 -49 -128q-48 -50 -121 -50zM394 -361q256 114 265 351q-13 -3 -23 -4t-19 -1q-33 0 -63 10.5t-53 30.5q-46 43 -46 116q0 35 11.5 65.5t36.5 52.5q21 19 52.5 30.5 t69.5 11.5q89 0 139 -71q48 -71 48 -197q0 -180 -97 -310t-273 -194z" />
<glyph unicode="&#x3c;" d="M88 559v166l1057 418v-182l-850 -320l850 -317v-183z" />
<glyph unicode="=" d="M88 930h1057v-170h-1057v170zM88 524h1057v-172h-1057v172z" />
<glyph unicode="&#x3e;" d="M88 324l850 317l-850 320v182l1057 -418v-166l-1057 -418v183z" />
<glyph unicode="?" d="M494 583q0 78 30 146q17 36 44.5 72t70.5 79l90 89q29 29 51.5 55.5t33.5 47.5q24 43 24 94q0 47 -18 82.5t-47 60.5q-33 28 -76.5 41.5t-96.5 13.5q-82 0 -169 -34q-45 -17 -91.5 -43t-95.5 -60v188q48 29 96.5 50.5t93.5 34.5q46 14 94.5 21t100.5 7q100 0 175.5 -25.5 t126.5 -70.5q54 -48 81.5 -113.5t27.5 -140.5q0 -80 -34 -145q-36 -67 -127 -157l-88 -86q-70 -68 -88 -108q-19 -40 -19 -83v-127h-190v111zM593 -40q-62 0 -104 42q-22 22 -32.5 50.5t-10.5 60.5t10.5 60t31.5 49q17 17 43.5 29.5t60.5 12.5q32 0 58 -11t46 -31 q42 -42 42 -109q0 -68 -42 -110q-43 -43 -103 -43z" />
<glyph unicode="@" d="M796 -319q-164 0 -308.5 57t-251.5 175q-101 112 -155 271t-54 363q0 188 46.5 345t140.5 272q96 118 224 174.5t271 56.5q114 0 199.5 -34t145.5 -98t92 -155.5t32 -202.5v-770h-144v111q-37 -62 -102 -97q-65 -34 -147 -34q-80 0 -148.5 31t-119.5 89q-48 54 -76.5 133 t-28.5 178q0 91 26 169t79 139q55 63 123.5 92t141.5 29q42 0 78.5 -9t70.5 -26q67 -35 103 -96v63q0 78 -22.5 142.5t-64.5 109.5q-42 46 -103.5 70t-141.5 24q-112 0 -209.5 -47.5t-170.5 -143.5q-71 -93 -108.5 -222.5t-37.5 -290.5q0 -170 42 -303.5t122 -227.5 q78 -93 189.5 -143.5t248.5 -50.5q29 0 56 2.5t54 7.5t54.5 12.5t56.5 18.5l48 -135q-34 -14 -64 -22.5t-60 -14.5q-31 -6 -60 -9t-67 -3zM803 260q52 0 96 20t76 58t47.5 91t15.5 116t-16 116.5t-48 91.5q-31 37 -75 56.5t-97 19.5q-105 0 -170 -77q-32 -38 -48.5 -89.5 t-16.5 -116.5q0 -66 16.5 -118.5t48.5 -90.5q65 -77 171 -77z" />
<glyph unicode="A" d="M494 1493h245l457 -1493h-209l-110 389h-523l-108 -389h-209zM829 551l-213 764l-213 -764h426z" />
<glyph unicode="B" d="M166 1493h442q228 0 353 -99q124 -99 124 -281q0 -70 -17 -123.5t-48 -91.5q-32 -38 -81 -63.5t-116 -35.5q148 -23 231 -125q41 -51 62 -117t21 -148q0 -202 -133 -305q-134 -104 -396 -104h-442v1493zM604 877q76 0 127.5 14t84.5 43q65 56 65 177q0 60 -16 100.5 t-48 65.5q-65 50 -213 50h-235v-450h235zM608 166q175 0 251 62q75 61 75 202q0 146 -79 215q-80 68 -247 68h-239v-547h239z" />
<glyph unicode="C" d="M742 -29q-140 0 -252.5 50t-192.5 153q-79 102 -118.5 245.5t-39.5 324.5t39.5 325t119.5 247t192 153.5t252 50.5q48 0 92.5 -5.5t80.5 -14.5t79 -25.5t79 -36.5v-207q-73 61 -159 93q-43 16 -85.5 24t-87.5 8q-97 0 -170.5 -38t-122.5 -114q-98 -152 -98 -459 q0 -306 98 -458t295 -152q45 0 87.5 8t85.5 24q83 31 157 93v-207q-78 -41 -158 -62q-39 -10 -83.5 -15t-89.5 -5z" />
<glyph unicode="D" d="M137 1493h303q342 0 504 -182t162 -566q0 -382 -162 -563q-162 -182 -504 -182h-303v1493zM436 166q255 0 356 126q51 63 76 175t25 280q0 165 -24.5 278.5t-75.5 176.5q-51 64 -141.5 94.5t-215.5 30.5h-96v-1161h96z" />
<glyph unicode="E" d="M197 1493h886v-170h-684v-442h654v-170h-654v-541h703v-170h-905v1493z" />
<glyph unicode="F" d="M233 1493h879v-170h-676v-460h613v-170h-613v-693h-203v1493z" />
<glyph unicode="G" d="M700 -29q-143 0 -253.5 52t-187.5 152q-78 102 -117.5 245t-39.5 324q0 186 41 329.5t119 243.5t189.5 151.5t251.5 51.5q100 0 184 -26q44 -14 85.5 -34.5t80.5 -46.5v-207q-43 41 -85.5 69t-80.5 45q-44 19 -90 27.5t-91 8.5q-97 0 -170 -37t-124 -115 q-50 -77 -74.5 -190.5t-24.5 -270.5q0 -158 24 -270.5t72 -187.5q94 -150 294 -150q32 0 61.5 4t55.5 12q24 8 47 19.5t44 28.5v401h-217v166h410v-643q-81 -75 -182 -113q-102 -39 -222 -39z" />
<glyph unicode="H" d="M137 1493h203v-612h553v612h203v-1493h-203v711h-553v-711h-203v1493z" />
<glyph unicode="I" d="M201 170h313v1153h-313v170h829v-170h-313v-1153h313v-170h-829v170z" />
<glyph unicode="J" d="M502 -29q-103 0 -195 22q-97 23 -198 68v236q91 -81 188 -121q99 -41 202 -41q67 0 118.5 18t80.5 57q56 74 56 277v836h-381v170h583v-1006q0 -144 -25.5 -240.5t-80.5 -157.5t-140.5 -89.5t-207.5 -28.5z" />
<glyph unicode="K" d="M137 1493h203v-664l631 664h237l-581 -610l598 -883h-244l-487 748l-154 -164v-584h-203v1493z" />
<glyph unicode="L" d="M215 1493h203v-1323h721v-170h-924v1493z" />
<glyph unicode="M" d="M86 1493h270l258 -760l260 760h271v-1493h-187v1319l-266 -787h-153l-267 787v-1319h-186v1493z" />
<glyph unicode="N" d="M139 1493h256l504 -1229v1229h195v-1493h-256l-504 1229v-1229h-195v1493z" />
<glyph unicode="O" d="M616 -29q-253 0 -376 191q-123 190 -123 583q0 392 124 583q62 96 154.5 144t220.5 48q123 0 218 -46t159 -146q123 -192 123 -583q0 -390 -123 -582q-64 -100 -159 -146t-218 -46zM616 135q154 0 222 141q67 138 67 469q0 330 -67 470q-68 141 -222 141 q-153 0 -220 -141q-68 -142 -68 -470q0 -327 68 -469q67 -141 220 -141z" />
<glyph unicode="P" d="M172 1493h436q249 0 379 -113q67 -59 98 -143.5t31 -190.5q0 -220 -128 -333q-63 -56 -158 -84.5t-222 -28.5h-234v-600h-202v1493zM608 766q75 0 129 20t90 54q78 73 78 207q0 133 -78 207q-77 73 -219 73h-234v-561h234z" />
<glyph unicode="Q" d="M655 -27h-8.5t-11.5 -1t-11.5 -1h-6.5q-125 0 -218.5 46t-157.5 146t-94 245t-30 337q0 392 124 583q62 96 154.5 144t220.5 48q123 0 218 -46t159 -146q123 -192 123 -583q0 -293 -68 -473q-33 -88 -85 -152t-123 -100l285 -290h-236zM616 135q154 0 222 141 q67 138 67 469q0 330 -67 470q-68 141 -222 141q-153 0 -220 -141q-68 -142 -68 -470q0 -327 68 -469q67 -141 220 -141z" />
<glyph unicode="R" d="M143 1493h416q246 0 377 -111q66 -56 98.5 -136t32.5 -181q0 -79 -20 -138.5t-60 -106.5q-80 -94 -227 -115q40 -10 74 -29.5t59 -45.5q28 -29 60.5 -81.5t76.5 -140.5l203 -408h-217l-178 377q-39 83 -73.5 134t-64.5 74q-31 24 -72.5 35t-88.5 11h-193v-631h-203v1493z M567 797q145 0 216 65q35 32 53 82t18 115t-18.5 115t-56.5 85q-36 32 -90.5 50t-129.5 18h-213v-530h221z" />
<glyph unicode="S" d="M584 -29q-53 0 -107 5.5t-106 16.5t-107 29t-106 39v215q58 -37 112 -63.5t106 -43.5q102 -34 205 -34q75 0 135.5 17t103.5 51q44 35 64.5 84t20.5 113q0 56 -14.5 96t-43.5 69q-32 33 -80.5 54t-123.5 38l-108 25q-101 23 -176.5 57t-125.5 85q-94 94 -94 255 q0 102 35 183t100 139q64 57 153.5 88t203.5 31q43 0 88 -4.5t93 -14.5q93 -19 200 -59v-205q-48 31 -93.5 52.5t-90.5 36.5q-93 30 -186 30q-68 0 -127 -16t-101 -50t-62 -81t-20 -104q0 -51 14.5 -85.5t40.5 -59.5q31 -29 79.5 -50t123.5 -38l106 -24q106 -24 181 -62.5 t124 -91.5q97 -104 97 -284q0 -114 -35 -194.5t-96 -132.5q-66 -56 -162.5 -84t-220.5 -28z" />
<glyph unicode="T" d="M516 1323h-469v170h1139v-170h-467v-1323h-203v1323z" />
<glyph unicode="U" d="M616 -29q-54 0 -100.5 7.5t-88.5 21.5q-39 14 -80.5 36.5t-73.5 51.5q-31 28 -55 66t-41 95q-8 25 -13.5 56t-9 70t-5.5 87.5t-2 110.5v920h203v-1012q0 -109 6 -155q6 -47 21 -72q32 -59 93 -89q60 -30 146 -30q87 0 147 30q62 31 93 89q8 15 13 31t8 40q6 46 6 154 v1014h202v-920q0 -66 -2 -116.5t-5.5 -89t-9 -67.5t-11.5 -51q-14 -50 -39 -90t-59 -71q-33 -30 -73.5 -52t-79.5 -36q-37 -13 -84 -21t-106 -8z" />
<glyph unicode="V" d="M57 1493h209l350 -1323l351 1323h209l-437 -1493h-245z" />
<glyph unicode="W" d="M0 1493h197l143 -1212l170 802h211l172 -804l143 1214h197l-223 -1493h-191l-203 887l-202 -887h-191z" />
<glyph unicode="X" d="M518 791l-432 702h217l328 -563l334 563h217l-447 -702l479 -791h-217l-366 643l-395 -643h-218z" />
<glyph unicode="Y" d="M514 670l-477 823h215l364 -659l363 659h217l-479 -823v-670h-203v670z" />
<glyph unicode="Z" d="M110 154l759 1169h-737v170h969v-154l-780 -1169h802v-170h-1013v154z" />
<glyph unicode="[" d="M423 1636h424v-143h-240v-1620h240v-143h-424v1906z" />
<glyph unicode="\" d="M102 1493h191l786 -1683h-190z" />
<glyph unicode="]" d="M386 -127h240v1619h-240v143h424v-1905h-424v143z" />
<glyph unicode="^" d="M528 1493h177l456 -557h-178l-367 395l-366 -395h-178z" />
<glyph unicode="_" d="M0 -403h1024v-80h-1024v80z" />
<glyph unicode="`" d="M604 1262l-325 376h198l281 -376h-154z" />
<glyph unicode="a" d="M513 -29q-174 0 -275 97q-48 46 -75 108.5t-27 150.5q0 185 126 283q124 97 368 97h247v29q0 64 -17 114t-51 81q-33 30 -87 45t-126 15q-95 0 -191 -27q-97 -27 -187 -79v184q42 16 93 32t103 27q91 19 183 19q71 0 129 -10.5t108 -31.5q46 -20 87.5 -50.5t70.5 -70.5 q21 -29 34 -61t20 -63q16 -73 16 -221v-229q2 -58 3 -102t6 -82q5 -42 11.5 -79t11.5 -56q7 -31 16 -58.5t11 -32.5h-185q-5 12 -12.5 35.5t-14.5 51.5q-5 22 -9.5 44.5t-6.5 38.5q-29 -50 -74.5 -89t-89.5 -62q-48 -25 -101.5 -36.5t-114.5 -11.5zM551 125q151 0 238 106 q88 108 88 291v41h-233q-160 0 -242 -56q-43 -29 -62.5 -71.5t-19.5 -98.5q0 -52 16 -90.5t45 -65.5q29 -26 70.5 -41t99.5 -15z" />
<glyph unicode="b" d="M676 -29q-51 0 -93 10.5t-83 33.5q-77 44 -123 126l-18 -141h-166v1556h184v-579q43 82 122 126q77 44 181 44q96 0 176.5 -38t139.5 -116q58 -78 87 -187t29 -245q0 -274 -116 -432q-57 -78 -137 -118t-183 -40zM650 127q133 0 200 109q68 110 68 323t-68 323 q-67 109 -201 109t-203 -109q-69 -110 -69 -323t69 -322q69 -110 204 -110z" />
<glyph unicode="c" d="M712 -29q-125 0 -227.5 39.5t-174.5 116.5q-73 78 -109.5 186.5t-36.5 245.5q0 143 38.5 251t108.5 182q74 78 175.5 116.5t226.5 38.5q46 0 85 -5t77 -16q76 -21 155 -65v-193q-37 32 -73 56t-73 38q-75 29 -166 29q-174 0 -267 -112q-93 -113 -93 -319q0 -96 21.5 -178 t71.5 -142q94 -113 270 -113q50 0 91.5 8t76.5 22q45 17 77.5 39.5t63.5 51.5v-191q-34 -20 -74 -37t-78 -28q-35 -10 -76.5 -15.5t-89.5 -5.5z" />
<glyph unicode="d" d="M559 -29q-106 0 -186 42t-134 116q-58 79 -87 188.5t-29 244.5q0 133 28.5 242.5t87.5 187.5t141 116.5t179 38.5q102 0 178 -43q77 -44 121 -127v579h184v-1556h-166l-18 141q-23 -40 -52 -71.5t-70 -54.5q-76 -44 -177 -44zM585 127q135 0 204 110q69 109 69 322 t-69 323q-32 51 -82 80t-121 29q-134 0 -201 -109q-68 -110 -68 -323t68 -323q35 -57 86 -83t114 -26z" />
<glyph unicode="e" d="M677 -29q-129 0 -231.5 39.5t-174.5 116.5t-109.5 185.5t-37.5 245.5q0 141 38 247.5t105 181.5q73 81 171 120.5t211 39.5q112 0 196.5 -37t144.5 -107t91.5 -169.5t31.5 -227.5v-90h-797v-6q0 -183 96 -283q46 -48 111.5 -74t156.5 -26t185 28q97 29 205 85v-183 q-53 -22 -103 -38t-99 -27q-48 -11 -96 -16t-95 -5zM929 660q-2 86 -22.5 147.5t-53.5 99.5q-36 42 -89 63t-119 21q-135 0 -220 -88q-86 -89 -102 -244z" />
<glyph unicode="f" d="M466 977h-299v143h299v78q0 185 85 271q84 87 263 87h221v-153h-209q-54 0 -86.5 -10.5t-50.5 -29.5q-39 -41 -39 -144v-99h385v-143h-385v-977h-184v977z" />
<glyph unicode="g" d="M601 -440q-39 0 -78 3.5t-81 10.5q-41 7 -81.5 17t-84.5 24v182q49 -23 94.5 -40t83.5 -28q78 -22 151 -22q74 0 126 20t87 62q68 80 68 256v133q-43 -93 -120 -140q-76 -46 -184 -46q-197 0 -314 157t-117 420t117 421q59 79 136.5 118t178.5 39q52 0 97.5 -10.5 t83.5 -32.5q76 -44 122 -133l18 145h166v-1044q0 -251 -119 -382q-118 -130 -350 -130zM622 145q130 0 197 109t67 315q0 208 -67 315q-35 57 -85.5 82t-112.5 25q-134 0 -205 -107t-71 -316q0 -205 72 -314t205 -109z" />
<glyph unicode="h" d="M195 1556h184v-604q50 97 133 146t198 49q90 0 153 -29t104 -83q84 -113 84 -341v-694h-185v694q0 151 -53 222t-167 71q-66 0 -114.5 -23t-82.5 -68q-70 -91 -70 -263v-633h-184v1556z" />
<glyph unicode="i" d="M523 1323q-30 0 -30 30v173q0 30 30 30h144q30 0 30 -30v-173q0 -30 -30 -30h-144zM859 -8q-80 0 -143.5 25t-111.5 81q-91 106 -91 300v578h-245v144h429v-722q0 -125 46 -187q24 -33 57.5 -48t76.5 -15h215v-156h-233z" />
<glyph unicode="j" d="M652 1323q-30 0 -30 30v173q0 30 30 30h144q30 0 30 -30v-173q0 -30 -30 -30h-144zM238 -270h234q90 0 135 62q45 63 45 188v997h-317v143h501v-1140q0 -95 -22 -171t-67 -130t-109.5 -79.5t-145.5 -25.5h-254v156z" />
<glyph unicode="k" d="M226 1556h190v-901l483 465h224l-441 -422l510 -698h-225l-414 578l-137 -129v-449h-190v1556z" />
<glyph unicode="l" d="M821 -8q-80 0 -143.5 25t-111.5 81q-91 106 -91 300v1014h-295v144h479v-1158q0 -125 46 -187q24 -33 57.5 -48t76.5 -15h215v-156h-233v0z" />
<glyph unicode="m" d="M109 1120h151l16 -96q33 60 83 92q49 31 113 31q74 0 126 -35q49 -34 78 -106q35 73 87 107t126 34q69 0 117 -26.5t74 -77.5q55 -104 55 -394v-649h-168v641q0 64 -1.5 112t-5 83.5t-8.5 60t-12 39.5q-11 26 -34 41.5t-65 15.5q-38 0 -64 -14.5t-41 -46.5 q-17 -35 -24 -103.5t-7 -187.5v-641h-168v641q0 73 -2 123.5t-6 84.5t-9.5 54.5t-11.5 33.5q-13 26 -37.5 41t-63.5 15q-42 0 -65.5 -16.5t-35.5 -43.5q-7 -15 -12.5 -38t-9.5 -57.5t-6 -82.5t-2 -114v-641h-167v1120z" />
<glyph unicode="n" d="M195 1120h166l18 -168q50 97 133 146t198 49q90 0 153 -29t104 -83q84 -113 84 -341v-694h-185v694q0 151 -53 222t-167 71q-66 0 -114.5 -23t-82.5 -68q-70 -91 -70 -263v-633h-184v1120z" />
<glyph unicode="o" d="M616 -29q-115 0 -204.5 37.5t-151.5 112.5q-63 78 -93 188.5t-30 250.5q0 284 123 436q123 151 356 151q120 0 208.5 -38.5t148.5 -112.5q123 -152 123 -435q0 -143 -30.5 -254t-92.5 -186q-60 -74 -149.5 -112t-207.5 -38zM616 127q141 0 213 110q72 109 72 322t-72 323 q-72 109 -213 109q-140 0 -212 -109q-72 -110 -72 -323t72 -322q72 -110 212 -110z" />
<glyph unicode="p" d="M190 1120h167l18 -143q47 84 123 127t177 43q100 0 180 -39t138 -118t86.5 -187.5t28.5 -245.5q0 -275 -116 -430q-116 -156 -318 -156q-57 0 -99 11.5t-79 32.5q-78 45 -121 126v-567h-185v1546zM647 127q134 0 201 109t67 323t-67 323t-201 109t-203 -109 q-69 -110 -69 -323t69 -322q69 -110 203 -110z" />
<glyph unicode="q" d="M870 139q-22 -40 -51 -72t-70 -55q-77 -45 -180 -45q-95 0 -175.5 38t-140.5 118q-53 71 -84.5 176t-31.5 252q0 134 28.5 245t87.5 191q58 78 138 117t179 39q102 0 178 -43q38 -22 68.5 -53.5t53.5 -73.5l18 143h167v-1546h-185v569zM599 123q66 0 117 27t86 83 q68 110 68 322q0 213 -68 323q-35 56 -85.5 82.5t-116.5 26.5q-133 0 -200 -109q-68 -110 -68 -323t68 -323q67 -109 199 -109z" />
<glyph unicode="r" d="M302 1120h167l18 -219q47 119 142 183q94 63 225 63q68 0 128 -17q29 -8 58 -21.5t55 -31.5v-188q-57 46 -120 67q-62 21 -135 21q-171 0 -262 -108q-91 -107 -91 -312v-557h-185v1120z" />
<glyph unicode="s" d="M590 -29q-44 0 -90.5 4.5t-89.5 12.5q-39 8 -91.5 22t-105.5 31v190q64 -32 109 -49.5t88 -29.5q46 -13 89 -20t89 -7q121 0 189 50q35 26 51 61t16 71q0 70 -59 113.5t-186 69.5l-8 2l-69 14q-75 15 -133.5 40t-98.5 65q-73 73 -73 201q0 81 27.5 143t81.5 105 q57 46 136 66.5t177 20.5q43 0 86 -4t85 -12q38 -8 79.5 -20.5t83.5 -29.5v-180q-80 46 -159 69q-40 11 -80.5 17t-86.5 6q-58 0 -104.5 -10t-77.5 -30q-62 -41 -62 -125q0 -35 11.5 -64t34.5 -47t76.5 -35.5t152.5 -36.5l74 -14q72 -14 123 -40t85 -64q70 -77 70 -204 q0 -86 -30.5 -149.5t-87.5 -108.5q-61 -48 -142.5 -71t-179.5 -23z" />
<glyph unicode="t" d="M807 -4q-206 0 -292 83q-85 82 -85 286v612h-299v143h299v293l184 80v-373h418v-143h-418v-612q0 -123 47 -173q46 -49 164 -49h207v-147h-225v0z" />
<glyph unicode="u" d="M534 -29q-171 0 -255 113q-84 112 -84 340v694h184v-694q0 -152 54 -222q26 -34 65.5 -52.5t99.5 -18.5q130 0 199 92q69 91 69 262v633h185v-1118h-167l-18 168q-50 -98 -133 -147q-85 -50 -199 -50z" />
<glyph unicode="v" d="M100 1120h191l325 -940l326 940h191l-398 -1120h-237z" />
<glyph unicode="w" d="M0 1120h182l195 -905l160 578h157l162 -578l195 905h182l-262 -1120h-176l-179 614l-178 -614h-176z" />
<glyph unicode="x" d="M516 584l-401 536h204l297 -405l295 405h207l-401 -536l440 -584h-213l-328 449l-327 -449h-213z" />
<glyph unicode="y" d="M184 -272h109q45 0 76 13.5t51 33.5q22 23 50 79t67 164l-433 1102h195l332 -876l327 876h195l-295 -760q-24 -62 -37.5 -96t-21 -53.5t-11.5 -30t-9 -24.5t-13.5 -37t-24.5 -67q-30 -81 -51.5 -136t-37.5 -91.5t-26.5 -58t-17.5 -34.5q-22 -38 -49 -67.5t-66 -51.5 q-69 -39 -161 -39h-148v154z" />
<glyph unicode="z" d="M203 170l643 805h-619v147h813v-168l-643 -804h643v-150h-837v170z" />
<glyph unicode="{" d="M908 -253q-248 0 -333 74q-85 73 -85 295v239q0 150 -53 209q-54 58 -194 58h-116v143h116q141 0 194 57q53 58 53 207v240q0 222 85 295q83 73 333 73h64v-143h-70q-140 0 -182 -43q-43 -43 -43 -186v-248q0 -158 -45 -228q-22 -34 -61 -58.5t-95 -37.5q111 -27 156 -98 t45 -227v-248q0 -143 43 -186q42 -43 182 -43h70v-144h-64v0z" />
<glyph unicode="|" d="M530 1565h172v-2048h-172v2048z" />
<glyph unicode="}" d="M261 -118h68q140 0 184 44q43 43 43 185v248q0 156 45 227t156 98q-110 26 -155 96q-22 34 -34 88.5t-12 139.5v248q0 142 -43 185q-44 44 -184 44h-68v143h62q250 0 333 -73q84 -74 84 -295v-240q0 -78 21 -127.5t63 -79.5q40 -29 97.5 -43t126.5 -14h64v-143h-64 q-71 0 -128 -14.5t-96 -43.5q-42 -31 -63 -81t-21 -128v-239q0 -222 -84 -295q-85 -74 -333 -74h-62v144z" />
<glyph unicode="~" d="M88 666q78 60 151 87t156 27q28 0 53 -3t49 -8q15 -3 29 -7t28 -9t31 -11t38 -15q8 -3 15 -6.5l17 -8.5q114 -55 210 -55q69 0 138 31q32 14 66.5 36t75.5 56v-174q-75 -58 -146 -86q-33 -13 -69.5 -20.5t-80.5 -7.5q-29 0 -54 3.5t-49 10.5t-48.5 16t-52.5 21q-3 1 -8 3 t-10 4.5t-9.5 4t-5.5 2.5q-76 33 -128 45q-53 12 -102 12q-41 0 -79.5 -7.5t-70.5 -21.5q-31 -13 -68.5 -36.5t-75.5 -56.5v174z" />
<glyph unicode="&#xa0;" />
<glyph unicode="&#xa1;" d="M626 1498q69 0 116 -48q23 -23 34.5 -53t11.5 -72q0 -78 -46 -124q-47 -47 -116 -47t-116 47q-46 47 -46 124q0 78 46 125q46 48 116 48zM689 952l67 -567v-445h-265v445l77 567h121z" />
<glyph unicode="&#xa2;" d="M698 -27q-112 11 -200 54.5t-154 124.5q-63 77 -98.5 181.5t-35.5 224.5q0 122 36.5 227.5t98.5 181.5q61 75 148 121t205 57v287h103v-287q29 -2 61 -7t61 -13t65.5 -20t72.5 -28v-172q-30 18 -65 34.5t-67 27.5q-35 12 -66 18t-62 8v-870q32 2 64 9.5t65 18.5 q31 11 65 26.5t66 35.5v-172q-46 -20 -76.5 -30t-61.5 -18q-65 -17 -122 -20v-286h-103v286zM698 991q-133 -12 -212 -130q-80 -119 -80 -302t80 -301q41 -60 93.5 -92t118.5 -39v864z" />
<glyph unicode="&#xa3;" d="M139 170h236v465h-199v143h199v238q0 254 110 379q55 63 137.5 94t187.5 31q36 0 72.5 -3.5t68.5 -10.5q24 -5 62.5 -16.5t78.5 -27.5v-184q-34 24 -66.5 40.5t-58.5 25.5q-63 22 -130 22q-135 0 -198 -89q-64 -89 -64 -282v-217h371v-143h-371v-465h537v-170h-973v170z " />
<glyph unicode="&#xa4;" d="M205 285l166 166q-19 31 -28 52.5t-17 45.5t-11.5 45.5t-3.5 47.5q0 28 4 50.5t12 45.5q16 48 46 91l-168 166l94 95l166 -168q46 31 92 46q45 15 94 15q23 0 48 -3.5t47 -10.5t48 -19t50 -26l166 166l90 -93l-166 -166q15 -25 27.5 -51t17.5 -44q7 -22 10.5 -47.5 t3.5 -48.5q0 -49 -15 -94q-15 -47 -46 -91l168 -166l-94 -94l-166 167q-46 -31 -91 -46q-47 -15 -97 -15q-26 0 -47.5 3.5t-47.5 11.5t-46.5 16.5t-49.5 25.5l-164 -163zM653 426q44 0 83 15.5t70 46.5q30 31 46 70.5t16 84.5t-16 84t-45 68q-30 30 -69.5 45.5t-84.5 15.5 q-43 0 -82 -15t-70 -45q-29 -28 -46 -67t-17 -87q0 -89 62 -153q30 -30 68.5 -46.5t84.5 -16.5z" />
<glyph unicode="&#xa5;" d="M514 524h-399v111h399v35l-90 151h-309v111h243l-321 561h215l364 -659l363 659h217l-330 -561h252v-111h-315l-86 -151v-35h401v-111h-401v-524h-203v524z" />
<glyph unicode="&#xa6;" d="M530 1432h172v-758h-172v758zM530 408h172v-758h-172v758z" />
<glyph unicode="&#xa7;" d="M595 -195q-39 0 -79 4t-72 10q-36 7 -78.5 18.5t-86.5 25.5v164q89 -40 161 -59t133 -19q101 0 157 42q28 21 42 50.5t14 61.5q0 30 -13 57.5t-40 55t-69 56.5t-99 62l-24 14q-100 58 -168 103t-110 94q-64 76 -64 179q0 89 47 162q46 71 137 120q-60 43 -89 100 q-30 57 -30 124q0 66 25.5 120t74.5 92q52 41 121 59.5t144 18.5q38 0 78.5 -4t72.5 -10q35 -7 75.5 -18.5t80.5 -25.5v-164q-84 40 -154 59t-131 19q-51 0 -87 -10.5t-61 -29.5q-27 -20 -40.5 -48.5t-13.5 -55.5q0 -49 47.5 -99.5t156.5 -112.5l41 -23q60 -33 104.5 -61 t77 -51.5t55.5 -44t39 -39.5q33 -38 49.5 -81.5t16.5 -97.5q0 -89 -45 -159q-46 -70 -139 -123q62 -53 90 -106q14 -26 21.5 -55.5t7.5 -67.5q0 -67 -25.5 -123.5t-76.5 -98.5q-102 -84 -274 -84zM750 410q62 46 92 90q30 45 30 92q0 41 -19.5 78t-51.5 66q-74 69 -316 200 q-32 -24 -54 -45.5t-38 -44.5q-14 -21 -22.5 -43t-8.5 -50q0 -39 18 -73.5t54 -68.5q19 -18 46 -38.5t64.5 -44.5t88 -53t117.5 -65z" />
<glyph unicode="&#xa8;" d="M492 1552q30 0 30 -30v-142q0 -30 -30 -30h-143q-30 0 -30 30v142q0 30 30 30h143zM883 1552q30 0 30 -30v-142q0 -30 -30 -30h-142q-30 0 -30 30v142q0 30 30 30h142z" />
<glyph unicode="&#xa9;" d="M616 125q-66 0 -123 11.5t-111 34.5t-105 57t-96 79q-44 44 -78 94.5t-57 105.5q-23 54 -34.5 111t-11.5 123q0 128 46 236q23 54 57 104.5t79 96.5q43 44 92.5 78t106.5 57q109 45 235 45t236 -45q57 -23 107 -57.5t92 -77.5q49 -50 82.5 -101.5t53.5 -99.5 q46 -108 46 -235q0 -128 -45 -234q-22 -52 -56.5 -104t-79.5 -97q-42 -42 -93 -77t-108 -59q-108 -46 -235 -46zM617 227q104 0 195 38q47 20 89.5 49t77.5 64q34 34 64.5 78t49.5 90q37 89 37 195q0 54 -9.5 103t-28.5 95q-38 92 -113 167q-74 74 -165 112q-90 37 -198 37 q-107 0 -196 -37q-92 -38 -166 -112q-76 -76 -113 -167q-39 -93 -39 -197q0 -54 9.5 -101.5t29.5 -94.5q24 -57 54 -97.5t59 -69.5q38 -38 78.5 -66t88.5 -48q45 -19 93.5 -28.5t102.5 -9.5zM638 369q-92 0 -163.5 26t-121.5 74t-76.5 117t-26.5 155q0 85 26.5 155t77.5 120 q50 48 122 74t162 26q30 0 59 -3t58 -8q28 -5 53.5 -13t55.5 -21v-108q-59 29 -113 42q-28 7 -56.5 10t-53.5 3q-57 0 -105 -17.5t-83 -55.5q-32 -35 -50 -87.5t-18 -118.5q0 -63 17.5 -114.5t52.5 -86.5t84.5 -53t117.5 -18q31 0 56 3.5t50 9.5t51 15.5t50 22.5v-104 q-26 -11 -53 -20t-56 -14t-57.5 -8t-59.5 -3z" />
<glyph unicode="&#xaa;" d="M547 698q-126 0 -202 68q-75 67 -75 183q0 129 93 200q94 70 266 70h182v4q0 44 -14 78t-46 58q-35 26 -79 36t-89 10q-33 0 -62.5 -4.5t-58.5 -12.5q-62 -18 -130 -51v127q34 14 69.5 25t66.5 17q34 7 65.5 10.5t69.5 3.5q177 0 264 -86q44 -43 65.5 -109t21.5 -160 v-448h-129l-14 112q-50 -65 -114 -98q-33 -17 -69.5 -25t-80.5 -8zM576 817q54 0 96 18.5t74 53.5q65 71 65 186v29h-127q-145 0 -206 -34q-62 -35 -62 -112q0 -36 12 -60.5t32 -41.5q43 -39 116 -39zM293 592h668v-123h-668v123z" />
<glyph unicode="&#xab;" d="M79 559v82l469 418v-191l-301 -268l301 -268v-191zM533 559v82l469 418v-191l-301 -268l301 -268v-191z" />
<glyph unicode="&#xac;" d="M977 690h-889v172h1057v-491h-168v319z" />
<glyph unicode="&#xad;" d="M356 643h521v-164h-521v164z" />
<glyph unicode="&#xae;" d="M616 125q-66 0 -123 11.5t-111 34.5t-105 57t-96 79q-44 44 -78 94.5t-57 105.5q-23 54 -34.5 111t-11.5 123q0 128 46 236q23 54 57 104.5t79 96.5q43 44 92.5 78t106.5 57q109 45 235 45t236 -45q57 -23 107 -57.5t92 -77.5q49 -50 82.5 -101.5t53.5 -99.5 q46 -108 46 -235q0 -128 -45 -234q-22 -52 -56.5 -104t-79.5 -97q-42 -42 -93 -77t-108 -59q-108 -46 -235 -46zM617 227q104 0 195 38q47 20 89.5 49t77.5 64q34 34 64.5 78t49.5 90q37 89 37 195q0 54 -9.5 103t-28.5 95q-38 92 -113 167q-74 74 -165 112q-90 37 -198 37 q-107 0 -196 -37q-92 -38 -166 -112q-76 -76 -113 -167q-39 -93 -39 -197q0 -54 9.5 -101.5t29.5 -94.5q24 -57 54 -97.5t59 -69.5q38 -38 78.5 -66t88.5 -48q45 -19 93.5 -28.5t102.5 -9.5zM362 1100h238q148 0 219 -49q72 -50 72 -148q0 -38 -11 -67t-33 -52 q-44 -47 -124 -61q10 -2 22 -12t26 -26q6 -8 15 -19t18 -24l18 -26t16 -24l114 -186h-143l-107 174q-24 39 -44.5 65t-34.5 36q-29 21 -76 21h-55v-296h-130v694zM594 784q89 0 127 27q37 27 37 89q0 29 -8.5 52.5t-28.5 37.5q-38 26 -127 26h-102v-232h102z" />
<glyph unicode="&#xaf;" d="M915 1378h-598v148h598v-148z" />
<glyph unicode="&#xb0;" d="M612 885q-63 0 -121 22.5t-103 67.5q-40 40 -64.5 97t-24.5 127q0 67 23.5 125t67.5 103q43 44 100.5 68.5t124.5 24.5q30 0 62.5 -5.5t62.5 -18.5q29 -12 56 -31.5t47 -39.5q24 -25 41.5 -53t26.5 -50q23 -55 23 -120q0 -66 -24 -124.5t-68 -101.5q-43 -42 -102.5 -66.5 t-127.5 -24.5zM614 1012q41 0 77 15t61 40q29 29 42 64t13 70q0 38 -14.5 73t-41.5 62q-23 23 -58 39t-77 16q-40 0 -74.5 -14.5t-59.5 -39.5q-27 -27 -41.5 -63t-14.5 -75q0 -41 14.5 -74.5t40.5 -59.5q27 -26 61 -39.5t72 -13.5z" />
<glyph unicode="&#xb1;" d="M532 672h-444v170h444v329h168v-329h445v-170h-445v-332h-168v332zM88 170h1057v-170h-1057v170z" />
<glyph unicode="&#xb2;" d="M322 1230l231 226q31 30 53.5 53t38.5 41.5t28 33.5t22 30q40 61 40 113q0 60 -50 98t-130 38q-52 0 -107 -18q-57 -18 -120 -54v125q67 29 126 42q30 7 60 10.5t62 3.5q139 0 225 -66q44 -34 65 -78t21 -94q0 -35 -10 -62.5t-27 -54.5q-23 -35 -61 -78.5t-95 -99.5 l-211 -205h410v-114h-571v110z" />
<glyph unicode="&#xb3;" d="M562 1109q-35 0 -63 3t-57 8q-32 6 -59 13t-57 17v121q35 -14 66 -23.5t60 -16.5q53 -13 104 -13q47 0 87.5 10.5t70.5 30.5q26 18 42 46t16 66q0 35 -14.5 62.5t-40.5 45.5q-56 38 -164 38h-66v108h74q92 0 142 32q49 31 49 90q0 58 -48 89q-24 16 -58 23.5t-74 7.5 q-26 0 -50.5 -3t-52.5 -9q-55 -12 -115 -35v121q35 8 67 14.5t61 11.5q58 9 110 9q142 0 227 -59q84 -59 84 -157q0 -71 -44 -118q-43 -46 -128 -66q94 -21 144 -75q49 -53 49 -136q0 -121 -95 -189q-48 -34 -116 -50.5t-151 -16.5z" />
<glyph unicode="&#xb4;" d="M629 1262h-154l281 376h198z" />
<glyph unicode="&#xb5;" d="M165 1120h184v-696q0 -78 16 -130t44 -87q60 -76 173 -76q62 0 110 21t80 64q64 85 64 251v653h185v-864q0 -59 16 -87q8 -14 20 -21t26 -7q12 0 27 5q13 4 42 18v-148q-19 -11 -37.5 -20t-34.5 -14q-36 -11 -68 -11q-62 0 -99 40q-38 40 -50 118q-47 -81 -112 -119 q-66 -39 -157 -39q-90 0 -154 38t-108 118v-555h-167v1548z" />
<glyph unicode="&#xb6;" d="M557 649q-214 16 -333 128q-57 54 -87.5 125.5t-30.5 167.5q0 191 131 307t345 116h448v-1690h-141v1567h-191v-1567h-141v846z" />
<glyph unicode="&#xb7;" horiz-adv-x="1707" />
<glyph unicode="&#xb8;" d="M700 0q55 -61 83 -115q11 -23 18.5 -48.5t7.5 -55.5q0 -40 -15 -74t-45 -57q-29 -22 -73 -33.5t-106 -11.5q-44 0 -87 6q-46 6 -88 18v131q17 -8 35 -14.5t37 -10.5t40.5 -5.5t38.5 -1.5q64 0 94 24t30 68q0 32 -22 75q-23 43 -66 105h118v0z" />
<glyph unicode="&#xb9;" d="M362 1230h205v611l-223 -41v116l229 39h138v-725h204v-110h-553v110z" />
<glyph unicode="&#xba;" d="M616 698q-94 0 -160 31t-111 80q-47 51 -74 126t-27 173q0 92 25 167.5t76 132.5q47 52 114 82t158 30q90 0 157.5 -30t114.5 -83q100 -112 100 -299q0 -186 -100 -298q-47 -52 -114.5 -82t-158.5 -30zM616 815q49 0 90 19.5t70 58.5q27 36 42.5 90t15.5 127 q0 137 -57 215q-27 37 -66.5 57.5t-93.5 20.5q-103 0 -160 -77q-58 -79 -58 -218q0 -69 14.5 -123.5t43.5 -93.5q58 -76 159 -76zM276 592h676v-123h-676v123z" />
<glyph unicode="&#xbb;" d="M231 332l301 268l-301 268v191l469 -418v-82l-469 -418v191zM685 332l301 268l-301 268v191l469 -418v-82l-469 -418v191z" />
<glyph unicode="&#xbc;" d="M104 934h205v611l-223 -41v116l229 39h138v-725h204v-110h-553v110zM27 612l1060 262l27 -108l-1063 -262zM839 -84h-387v121l363 528h162v-538h116v-111h-116v-186h-138v186zM839 27v413l-274 -413h274z" />
<glyph unicode="&#xbd;" d="M104 934h205v611l-223 -41v116l229 39h138v-725h204v-110h-553v110zM27 612l1060 262l27 -108l-1063 -262zM523 -160l231 226q31 30 53.5 53t38.5 41.5t28 33.5t22 30q40 61 40 113q0 60 -50 98t-130 38q-52 0 -107 -18q-57 -18 -120 -54v125q67 29 126 42q30 7 60 10.5 t62 3.5q139 0 225 -66q44 -34 65 -78t21 -94q0 -35 -10 -62.5t-27 -54.5q-23 -35 -61 -78.5t-95 -99.5l-211 -205h410v-114h-571v110z" />
<glyph unicode="&#xbe;" d="M335 809q-35 0 -63 3t-57 8q-32 6 -59 13t-57 17v121q35 -14 66 -23.5t60 -16.5q53 -13 104 -13q47 0 87.5 10.5t70.5 30.5q26 18 42 46t16 66q0 35 -14.5 62.5t-40.5 45.5q-56 38 -164 38h-66v108h74q92 0 142 32q49 31 49 90q0 58 -48 89q-24 16 -58 23.5t-74 7.5 q-26 0 -50.5 -3t-52.5 -9q-55 -12 -115 -35v121q35 8 67 14.5t61 11.5q58 9 110 9q142 0 227 -59q84 -59 84 -157q0 -71 -44 -118q-43 -46 -128 -66q94 -21 144 -75q49 -53 49 -136q0 -121 -95 -189q-48 -34 -116 -50.5t-151 -16.5zM27 612l1060 262l27 -108l-1063 -262z M839 -84h-387v121l363 528h162v-538h116v-111h-116v-186h-138v186zM839 27v413l-274 -413h274z" />
<glyph unicode="&#xbf;" d="M656 1252q-62 0 -104 42q-22 22 -32.5 50.5t-10.5 60.5t10.5 60t31.5 49q17 17 43.5 29.5t60.5 12.5q32 0 58 -11t46 -31q42 -42 42 -109q0 -68 -42 -110q-43 -43 -103 -43zM602 -27q-188 0 -298 95q-54 47 -82.5 112t-28.5 144q0 42 8.5 76.5t25.5 67.5t47.5 71t79.5 86 l88 86q30 29 52.5 55t33.5 51q19 41 19 105v5q1 11 1.5 21.5t0.5 20.5v123h190v-154q0 -99 -30 -166q-30 -68 -115 -151l-90 -89q-20 -20 -46 -48t-40 -55q-13 -24 -18 -50.5t-5 -46.5q0 -43 18 -79.5t47 -60.5q33 -28 77.5 -41.5t95.5 -13.5q42 0 83 9t86 26q91 35 187 102 v-188q-50 -30 -98 -51t-91 -34q-48 -14 -98.5 -21t-99.5 -7z" />
<glyph unicode="&#xc0;" d="M358 1849h184l197 -264h-154zM494 1493h245l457 -1493h-209l-110 389h-523l-108 -389h-209zM829 551l-213 764l-213 -764h426z" />
<glyph unicode="&#xc1;" d="M691 1856h186l-229 -264h-154zM494 1493h245l457 -1493h-209l-110 389h-523l-108 -389h-209zM829 551l-213 764l-213 -764h426z" />
<glyph unicode="&#xc2;" d="M522 1852h189l211 -266h-140l-166 178l-165 -178h-140zM494 1493h245l457 -1493h-209l-110 389h-523l-108 -389h-209zM829 551l-213 764l-213 -764h426z" />
<glyph unicode="&#xc3;" d="M287 1587q0 48 12 88t40 72q51 59 137 59q32 0 66 -8q15 -4 34 -12.5t45 -22.5l57 -30q21 -13 40 -19q16 -6 32 -6q31 0 51 26t20 66v6h125q-1 -99 -53 -159q-51 -60 -136 -60q-31 0 -63 8q-14 4 -32.5 11.5t-49.5 23.5l-57 33q-23 13 -41 20q-8 3 -16 4t-13 1 q-15 0 -29 -6t-24 -19q-20 -26 -20 -70v-6h-125zM494 1493h245l457 -1493h-209l-110 389h-523l-108 -389h-209zM829 551l-213 764l-213 -764h426z" />
<glyph unicode="&#xc4;" d="M349 1647q-30 0 -30 30v143q0 30 30 30h143q30 0 30 -30v-143q0 -30 -30 -30h-143zM741 1647q-30 0 -30 30v143q0 30 30 30h142q30 0 30 -30v-143q0 -30 -30 -30h-142zM494 1493h245l457 -1493h-209l-110 389h-523l-108 -389h-209zM829 551l-213 764l-213 -764h426z" />
<glyph unicode="&#xc5;" d="M465 1399q-30 17 -52.5 41t-37.5 52q-17 31 -25 64.5t-8 68.5q0 59 21.5 109.5t58.5 87.5t87 58t107 21q58 0 108.5 -21.5t87.5 -58.5q35 -35 57 -85t22 -111q0 -72 -32 -131q-31 -58 -91 -95l428 -1399h-209l-110 389h-523l-108 -389h-209zM616 1475q34 0 61 12t47 32 q44 44 44 107q0 34 -12 61t-32 47q-23 23 -51.5 33.5t-57.5 10.5q-63 0 -106 -43q-44 -44 -44 -109q0 -63 44 -107t107 -44zM829 551l-213 760l-213 -760h426z" />
<glyph unicode="&#xc6;" d="M410 1493h751v-170h-338v-442h307v-170h-307v-541h357v-170h-543v383h-352l-101 -383h-184zM637 551v772h-107l-202 -772h309z" />
<glyph unicode="&#xc7;" d="M741 1356q-97 0 -170.5 -38t-122.5 -114q-98 -152 -98 -459q0 -306 98 -458q47 -72 119.5 -112t174.5 -40q89 0 174 32q83 31 157 93v-207q-78 -41 -158 -62q-22 -5 -45.5 -9.5t-47.5 -6.5q41 -50 61 -90q11 -23 18.5 -48.5t7.5 -55.5q0 -40 -15 -74t-45 -57 q-29 -22 -73 -33.5t-106 -11.5q-44 0 -87 6q-46 6 -88 18v131q17 -8 35 -14.5t37 -10.5t40.5 -5.5t38.5 -1.5q64 0 94 24t30 68q0 32 -22 75q-16 32 -47 77q-129 8 -230.5 59t-173.5 143q-79 102 -118.5 245.5t-39.5 324.5t39.5 325t119.5 247q78 100 189.5 152t254.5 52 q45 0 89.5 -5t83.5 -15q38 -10 79 -26t79 -36v-207q-73 61 -159 93q-43 16 -85.5 24t-87.5 8z" />
<glyph unicode="&#xc8;" d="M395 1856h184l197 -264h-154zM197 1493h886v-170h-684v-442h654v-170h-654v-541h703v-170h-905v1493z" />
<glyph unicode="&#xc9;" d="M690 1856h186l-229 -264h-154zM197 1493h886v-170h-684v-442h654v-170h-654v-541h703v-170h-905v1493z" />
<glyph unicode="&#xca;" d="M540 1852h189l211 -266h-140l-166 178l-165 -178h-140zM197 1493h886v-170h-684v-442h654v-170h-654v-541h703v-170h-905v1493z" />
<glyph unicode="&#xcb;" d="M367 1647q-30 0 -30 30v143q0 30 30 30h143q30 0 30 -30v-143q0 -30 -30 -30h-143zM759 1647q-30 0 -30 30v143q0 30 30 30h142q30 0 30 -30v-143q0 -30 -30 -30h-142zM197 1493h886v-170h-684v-442h654v-170h-654v-541h703v-170h-905v1493z" />
<glyph unicode="&#xcc;" d="M372 1856h184l197 -264h-154zM201 170h313v1153h-313v170h829v-170h-313v-1153h313v-170h-829v170z" />
<glyph unicode="&#xcd;" d="M691 1856h186l-229 -264h-154zM201 170h313v1153h-313v170h829v-170h-313v-1153h313v-170h-829v170z" />
<glyph unicode="&#xce;" d="M521 1852h189l211 -266h-140l-166 178l-165 -178h-140zM201 170h313v1153h-313v170h829v-170h-313v-1153h313v-170h-829v170z" />
<glyph unicode="&#xcf;" d="M349 1647q-30 0 -30 30v143q0 30 30 30h143q30 0 30 -30v-143q0 -30 -30 -30h-143zM741 1647q-30 0 -30 30v143q0 30 30 30h142q30 0 30 -30v-143q0 -30 -30 -30h-142zM201 170h313v1153h-313v170h829v-170h-313v-1153h313v-170h-829v170z" />
<glyph unicode="&#xd0;" d="M133 709h-125v149h125v635h303q342 0 504 -182t162 -565t-162 -564q-83 -93 -209.5 -137.5t-294.5 -44.5h-303v709zM436 166q69 0 124 8.5t98 24.5t75.5 39.5t57.5 54.5q52 65 77 175t25 280q0 87 -6.5 157t-19 125t-31.5 96.5t-44 73.5q-53 67 -139.5 97t-216.5 30h-96 v-469h264v-149h-264v-543h96z" />
<glyph unicode="&#xd1;" d="M287 1633q0 48 12 88t40 72q51 59 137 59q32 0 66 -8q15 -4 34 -12.5t45 -22.5l57 -30q21 -13 40 -19q16 -6 32 -6q31 0 51 26t20 66v6h125q-1 -99 -53 -159q-51 -60 -136 -60q-31 0 -63 8q-14 4 -32.5 11.5t-49.5 23.5l-57 33q-23 13 -41 20q-8 3 -16 4t-13 1 q-15 0 -29 -6t-24 -19q-20 -26 -20 -70v-6h-125zM139 1493h256l504 -1229v1229h195v-1493h-256l-504 1229v-1229h-195v1493z" />
<glyph unicode="&#xd2;" d="M382 1856h184l197 -264h-154zM616 -29q-253 0 -376 191q-123 190 -123 583q0 392 124 583q62 96 154.5 144t220.5 48q123 0 218 -46t159 -146q123 -192 123 -583q0 -390 -123 -582q-64 -100 -159 -146t-218 -46zM616 135q154 0 222 141q67 138 67 469q0 330 -67 470 q-68 141 -222 141q-153 0 -220 -141q-68 -142 -68 -470q0 -327 68 -469q67 -141 220 -141z" />
<glyph unicode="&#xd3;" d="M701 1856h186l-229 -264h-154zM616 -29q-253 0 -376 191q-123 190 -123 583q0 392 124 583q62 96 154.5 144t220.5 48q123 0 218 -46t159 -146q123 -192 123 -583q0 -390 -123 -582q-64 -100 -159 -146t-218 -46zM616 135q154 0 222 141q67 138 67 469q0 330 -67 470 q-68 141 -222 141q-153 0 -220 -141q-68 -142 -68 -470q0 -327 68 -469q67 -141 220 -141z" />
<glyph unicode="&#xd4;" d="M540 1852h189l211 -266h-140l-166 178l-165 -178h-140zM616 -29q-253 0 -376 191q-123 190 -123 583q0 392 124 583q62 96 154.5 144t220.5 48q123 0 218 -46t159 -146q123 -192 123 -583q0 -390 -123 -582q-64 -100 -159 -146t-218 -46zM616 135q154 0 222 141 q67 138 67 469q0 330 -67 470q-68 141 -222 141q-153 0 -220 -141q-68 -142 -68 -470q0 -327 68 -469q67 -141 220 -141z" />
<glyph unicode="&#xd5;" d="M287 1633q0 48 12 88t40 72q51 59 137 59q32 0 66 -8q15 -4 34 -12.5t45 -22.5l57 -30q21 -13 40 -19q16 -6 32 -6q31 0 51 26t20 66v6h125q-1 -99 -53 -159q-51 -60 -136 -60q-31 0 -63 8q-14 4 -32.5 11.5t-49.5 23.5l-57 33q-23 13 -41 20q-8 3 -16 4t-13 1 q-15 0 -29 -6t-24 -19q-20 -26 -20 -70v-6h-125zM616 -29q-253 0 -376 191q-123 190 -123 583q0 392 124 583q62 96 154.5 144t220.5 48q123 0 218 -46t159 -146q123 -192 123 -583q0 -390 -123 -582q-64 -100 -159 -146t-218 -46zM616 135q154 0 222 141q67 138 67 469 q0 330 -67 470q-68 141 -222 141q-153 0 -220 -141q-68 -142 -68 -470q0 -327 68 -469q67 -141 220 -141z" />
<glyph unicode="&#xd6;" d="M349 1647q-30 0 -30 30v143q0 30 30 30h143q30 0 30 -30v-143q0 -30 -30 -30h-143zM741 1647q-30 0 -30 30v143q0 30 30 30h142q30 0 30 -30v-143q0 -30 -30 -30h-142zM616 -29q-253 0 -376 191q-123 190 -123 583q0 392 124 583q62 96 154.5 144t220.5 48q123 0 218 -46 t159 -146q123 -192 123 -583q0 -390 -123 -582q-64 -100 -159 -146t-218 -46zM616 135q154 0 222 141q67 138 67 469q0 330 -67 470q-68 141 -222 141q-153 0 -220 -141q-68 -142 -68 -470q0 -327 68 -469q67 -141 220 -141z" />
<glyph unicode="&#xd7;" d="M150 293l350 348l-350 350l116 117l350 -350l351 350l116 -117l-350 -350l348 -348l-116 -119l-349 350l-348 -350z" />
<glyph unicode="&#xd8;" d="M8 0l178 252q-17 39 -28.5 87t-21.5 117q-9 63 -14 131.5t-5 152.5q0 203 30.5 347t93.5 241q64 99 157 145.5t217 46.5q60 0 109.5 -10.5t93.5 -30.5q85 -40 143 -121l139 201l100 -74l-168 -238q21 -41 36.5 -95t26.5 -115q10 -58 15.5 -132.5t5.5 -160.5 q0 -389 -123 -581q-60 -94 -153.5 -143t-227.5 -49q-57 0 -108 9.5t-99 31.5q-90 40 -151 121l-143 -203zM842 1190q-13 42 -34.5 73t-47.5 51q-29 22 -66 32t-79 10q-84 0 -136.5 -38t-84.5 -110q-17 -38 -29.5 -87t-20.5 -112.5t-12 -143.5t-4 -179v-39t0.5 -32t1 -29 t1.5 -30q1 -14 1.5 -32t5.5 -53zM617 135q82 0 135.5 37t85.5 105q16 33 28.5 76.5t21 101t13 130t4.5 163.5q0 52 -1.5 96.5t-3.5 78.5q-2 33 -5.5 60t-9.5 53l-514 -733q30 -78 96 -123q34 -23 71 -34t79 -11z" />
<glyph unicode="&#xd9;" d="M377 1852h184l197 -264h-154zM616 -29q-54 0 -100.5 7.5t-88.5 21.5q-39 14 -80.5 36.5t-73.5 51.5q-31 28 -55 66t-41 95q-8 25 -13.5 56t-9 70t-5.5 87.5t-2 110.5v920h203v-1012q0 -109 6 -155q6 -47 21 -72q32 -59 93 -89q60 -30 146 -30q87 0 147 30q62 31 93 89 q8 15 13 31t8 40q6 46 6 154v1014h202v-920q0 -66 -2 -116.5t-5.5 -89t-9 -67.5t-11.5 -51q-14 -50 -39 -90t-59 -71q-33 -30 -73.5 -52t-79.5 -36q-37 -13 -84 -21t-106 -8z" />
<glyph unicode="&#xda;" d="M672 1856h186l-229 -264h-154zM616 -29q-54 0 -100.5 7.5t-88.5 21.5q-39 14 -80.5 36.5t-73.5 51.5q-31 28 -55 66t-41 95q-8 25 -13.5 56t-9 70t-5.5 87.5t-2 110.5v920h203v-1012q0 -109 6 -155q6 -47 21 -72q32 -59 93 -89q60 -30 146 -30q87 0 147 30q62 31 93 89 q8 15 13 31t8 40q6 46 6 154v1014h202v-920q0 -66 -2 -116.5t-5.5 -89t-9 -67.5t-11.5 -51q-14 -50 -39 -90t-59 -71q-33 -30 -73.5 -52t-79.5 -36q-37 -13 -84 -21t-106 -8z" />
<glyph unicode="&#xdb;" d="M522 1852h189l211 -266h-140l-166 178l-165 -178h-140zM616 -29q-54 0 -100.5 7.5t-88.5 21.5q-39 14 -80.5 36.5t-73.5 51.5q-31 28 -55 66t-41 95q-8 25 -13.5 56t-9 70t-5.5 87.5t-2 110.5v920h203v-1012q0 -109 6 -155q6 -47 21 -72q32 -59 93 -89q60 -30 146 -30 q87 0 147 30q62 31 93 89q8 15 13 31t8 40q6 46 6 154v1014h202v-920q0 -66 -2 -116.5t-5.5 -89t-9 -67.5t-11.5 -51q-14 -50 -39 -90t-59 -71q-33 -30 -73.5 -52t-79.5 -36q-37 -13 -84 -21t-106 -8z" />
<glyph unicode="&#xdc;" d="M349 1647q-30 0 -30 30v143q0 30 30 30h143q30 0 30 -30v-143q0 -30 -30 -30h-143zM741 1647q-30 0 -30 30v143q0 30 30 30h142q30 0 30 -30v-143q0 -30 -30 -30h-142zM616 -29q-54 0 -100.5 7.5t-88.5 21.5q-39 14 -80.5 36.5t-73.5 51.5q-31 28 -55 66t-41 95 q-8 25 -13.5 56t-9 70t-5.5 87.5t-2 110.5v920h203v-1012q0 -109 6 -155q6 -47 21 -72q32 -59 93 -89q60 -30 146 -30q87 0 147 30q62 31 93 89q8 15 13 31t8 40q6 46 6 154v1014h202v-920q0 -66 -2 -116.5t-5.5 -89t-9 -67.5t-11.5 -51q-14 -50 -39 -90t-59 -71 q-33 -30 -73.5 -52t-79.5 -36q-37 -13 -84 -21t-106 -8z" />
<glyph unicode="&#xdd;" d="M672 1852h186l-229 -264h-154zM514 670l-477 823h215l364 -659l363 659h217l-479 -823v-670h-203v670z" />
<glyph unicode="&#xde;" d="M201 1493h202v-270h254q259 0 384 -105q124 -105 124 -324q0 -112 -31.5 -191.5t-92.5 -130.5q-125 -105 -384 -105h-254v-367h-202v1493zM637 532q157 0 237 66q78 66 78 197q0 63 -19 113.5t-59 83.5q-36 30 -95 47.5t-142 17.5h-234v-525h234z" />
<glyph unicode="&#xdf;" d="M731 -29q-34 0 -70 3t-68 9q-23 5 -60 14t-74 23v164q75 -31 143 -46q66 -15 126 -15q55 0 97.5 12.5t73.5 35.5q35 26 49.5 60t14.5 79q0 32 -7.5 57.5t-26.5 51.5q-25 35 -63.5 64t-87.5 58l-67 39q-47 27 -81 59t-56 64q-23 34 -34.5 68.5t-11.5 79.5q0 60 20 114 t61 97q39 42 97.5 72t139.5 48q-2 107 -62 164q-62 57 -174 57q-121 0 -178 -65q-57 -66 -57 -205v-1133h-187v1137q0 212 105 316q53 52 133.5 77.5t183.5 25.5q209 0 313 -110q106 -112 107 -327q-154 -13 -239 -76q-84 -62 -84 -160q0 -28 7 -48.5t21 -40.5 q17 -24 40 -42.5t54 -38.5l58 -37q79 -50 128.5 -90.5t78.5 -84.5q28 -42 41.5 -91.5t13.5 -103.5q0 -74 -26 -137t-86 -110q-55 -43 -133 -65.5t-173 -22.5z" />
<glyph unicode="&#xe0;" d="M282 1673h198l281 -376h-154zM513 -29q-174 0 -275 97q-48 46 -75 108.5t-27 150.5q0 185 126 283q124 97 368 97h247v29q0 64 -17 114t-51 81q-33 30 -87 45t-126 15q-95 0 -191 -27q-97 -27 -187 -79v184q42 16 93 32t103 27q91 19 183 19q71 0 129 -10.5t108 -31.5 q46 -20 87.5 -50.5t70.5 -70.5q21 -29 34 -61t20 -63q16 -73 16 -221v-229q2 -58 3 -102t6 -82q5 -42 11.5 -79t11.5 -56q7 -31 16 -58.5t11 -32.5h-185q-5 12 -12.5 35.5t-14.5 51.5q-5 22 -9.5 44.5t-6.5 38.5q-29 -50 -74.5 -89t-89.5 -62q-48 -25 -101.5 -36.5 t-114.5 -11.5zM551 125q151 0 238 106q88 108 88 291v41h-233q-160 0 -242 -56q-43 -29 -62.5 -71.5t-19.5 -98.5q0 -52 16 -90.5t45 -65.5q29 -26 70.5 -41t99.5 -15z" />
<glyph unicode="&#xe1;" d="M759 1673h198l-325 -376h-154zM513 -29q-174 0 -275 97q-48 46 -75 108.5t-27 150.5q0 185 126 283q124 97 368 97h247v29q0 64 -17 114t-51 81q-33 30 -87 45t-126 15q-95 0 -191 -27q-97 -27 -187 -79v184q42 16 93 32t103 27q91 19 183 19q71 0 129 -10.5t108 -31.5 q46 -20 87.5 -50.5t70.5 -70.5q21 -29 34 -61t20 -63q16 -73 16 -221v-229q2 -58 3 -102t6 -82q5 -42 11.5 -79t11.5 -56q7 -31 16 -58.5t11 -32.5h-185q-5 12 -12.5 35.5t-14.5 51.5q-5 22 -9.5 44.5t-6.5 38.5q-29 -50 -74.5 -89t-89.5 -62q-48 -25 -101.5 -36.5 t-114.5 -11.5zM551 125q151 0 238 106q88 108 88 291v41h-233q-160 0 -242 -56q-43 -29 -62.5 -71.5t-19.5 -98.5q0 -52 16 -90.5t45 -65.5q29 -26 70.5 -41t99.5 -15z" />
<glyph unicode="&#xe2;" d="M546 1673h147l246 -376h-139l-181 245l-180 -245h-139zM513 -29q-174 0 -275 97q-48 46 -75 108.5t-27 150.5q0 185 126 283q124 97 368 97h247v29q0 64 -17 114t-51 81q-33 30 -87 45t-126 15q-95 0 -191 -27q-97 -27 -187 -79v184q42 16 93 32t103 27q91 19 183 19 q71 0 129 -10.5t108 -31.5q46 -20 87.5 -50.5t70.5 -70.5q21 -29 34 -61t20 -63q16 -73 16 -221v-229q2 -58 3 -102t6 -82q5 -42 11.5 -79t11.5 -56q7 -31 16 -58.5t11 -32.5h-185q-5 12 -12.5 35.5t-14.5 51.5q-5 22 -9.5 44.5t-6.5 38.5q-29 -50 -74.5 -89t-89.5 -62 q-48 -25 -101.5 -36.5t-114.5 -11.5zM551 125q151 0 238 106q88 108 88 291v41h-233q-160 0 -242 -56q-43 -29 -62.5 -71.5t-19.5 -98.5q0 -52 16 -90.5t45 -65.5q29 -26 70.5 -41t99.5 -15z" />
<glyph unicode="&#xe3;" d="M290 1339q2 135 52 208q51 74 141 74q39 0 72 -14q30 -13 69 -47l57 -55q11 -10 21.5 -17.5t16.5 -11.5q10 -6 16 -8t14 -2q38 0 56 37q17 36 19 118h125q-2 -135 -52 -208q-51 -74 -141 -74q-39 0 -72 14q-30 13 -69 47l-57 55q-13 12 -22.5 19t-15.5 11q-9 5 -15.5 7 t-14.5 2q-38 0 -56 -37q-19 -39 -20 -118h-124zM513 -29q-174 0 -275 97q-48 46 -75 108.5t-27 150.5q0 185 126 283q124 97 368 97h247v29q0 64 -17 114t-51 81q-33 30 -87 45t-126 15q-95 0 -191 -27q-97 -27 -187 -79v184q42 16 93 32t103 27q91 19 183 19 q71 0 129 -10.5t108 -31.5q46 -20 87.5 -50.5t70.5 -70.5q21 -29 34 -61t20 -63q16 -73 16 -221v-229q2 -58 3 -102t6 -82q5 -42 11.5 -79t11.5 -56q7 -31 16 -58.5t11 -32.5h-185q-5 12 -12.5 35.5t-14.5 51.5q-5 22 -9.5 44.5t-6.5 38.5q-29 -50 -74.5 -89t-89.5 -62 q-48 -25 -101.5 -36.5t-114.5 -11.5zM551 125q151 0 238 106q88 108 88 291v41h-233q-160 0 -242 -56q-43 -29 -62.5 -71.5t-19.5 -98.5q0 -52 16 -90.5t45 -65.5q29 -26 70.5 -41t99.5 -15z" />
<glyph unicode="&#xe4;" d="M352 1350q-30 0 -30 30v142q0 30 30 30h143q30 0 30 -30v-142q0 -30 -30 -30h-143zM744 1350q-30 0 -30 30v142q0 30 30 30h142q30 0 30 -30v-142q0 -30 -30 -30h-142zM513 -29q-174 0 -275 97q-48 46 -75 108.5t-27 150.5q0 185 126 283q124 97 368 97h247v29 q0 64 -17 114t-51 81q-33 30 -87 45t-126 15q-95 0 -191 -27q-97 -27 -187 -79v184q42 16 93 32t103 27q91 19 183 19q71 0 129 -10.5t108 -31.5q46 -20 87.5 -50.5t70.5 -70.5q21 -29 34 -61t20 -63q16 -73 16 -221v-229q2 -58 3 -102t6 -82q5 -42 11.5 -79t11.5 -56 q7 -31 16 -58.5t11 -32.5h-185q-5 12 -12.5 35.5t-14.5 51.5q-5 22 -9.5 44.5t-6.5 38.5q-29 -50 -74.5 -89t-89.5 -62q-48 -25 -101.5 -36.5t-114.5 -11.5zM551 125q151 0 238 106q88 108 88 291v41h-233q-160 0 -242 -56q-43 -29 -62.5 -71.5t-19.5 -98.5q0 -52 16 -90.5 t45 -65.5q29 -26 70.5 -41t99.5 -15z" />
<glyph unicode="&#xe5;" d="M619 1249q-114 0 -194 80t-80 195t80 195q79 79 194 79q117 0 196 -79t79 -195t-79 -195q-80 -80 -196 -80zM619 1372q64 0 108 44t44 108q0 63 -44 107t-109 44q-63 0 -106 -43q-44 -44 -44 -108t44 -108t107 -44zM513 -29q-174 0 -275 97q-48 46 -75 108.5t-27 150.5 q0 185 126 283q124 97 368 97h247v29q0 64 -17 114t-51 81q-33 30 -87 45t-126 15q-95 0 -191 -27q-97 -27 -187 -79v184q42 16 93 32t103 27q91 19 183 19q71 0 129 -10.5t108 -31.5q46 -20 87.5 -50.5t70.5 -70.5q21 -29 34 -61t20 -63q16 -73 16 -221v-229q2 -58 3 -102 t6 -82q5 -42 11.5 -79t11.5 -56q7 -31 16 -58.5t11 -32.5h-185q-5 12 -12.5 35.5t-14.5 51.5q-5 22 -9.5 44.5t-6.5 38.5q-29 -50 -74.5 -89t-89.5 -62q-48 -25 -101.5 -36.5t-114.5 -11.5zM551 125q151 0 238 106q88 108 88 291v41h-233q-160 0 -242 -56 q-43 -29 -62.5 -71.5t-19.5 -98.5q0 -52 16 -90.5t45 -65.5q29 -26 70.5 -41t99.5 -15z" />
<glyph unicode="&#xe6;" d="M358 -29q-154 0 -235 86q-43 45 -62.5 107.5t-19.5 139.5q0 85 23.5 151t76.5 113q101 89 291 89h117v88q0 120 -49 184t-143 64q-29 0 -61.5 -5.5t-61.5 -15.5q-30 -10 -63.5 -25.5t-64.5 -35.5v168q38 17 74 30.5t69 21.5q64 16 127 16q91 0 152 -31q61 -32 99 -96 q33 61 99 94t156 33q85 0 147.5 -29t98.5 -89q72 -119 72 -425v-90h-491q-1 -8 -1 -16v-16q0 -3 -0.5 -9.5t-0.5 -29.5q0 -98 13.5 -155.5t37.5 -91.5q27 -38 68 -54.5t97 -16.5q75 0 141 26q65 26 114 76v-172q-29 -21 -60.5 -37t-60.5 -26t-65 -15.5t-75 -5.5 q-51 0 -97.5 10.5t-83.5 30.5q-75 41 -107 119q-39 -80 -105 -120q-34 -20 -74.5 -30t-91.5 -10zM1036 657v52q0 78 -10 132t-28 86q-17 30 -48 48t-78 18q-87 0 -125 -68t-38 -225v-43h327zM375 125q94 0 131 67q17 32 27 90t10 160v72h-49q-169 0 -229 -45 q-30 -23 -45 -62.5t-15 -93.5q0 -91 45 -139q45 -49 125 -49z" />
<glyph unicode="&#xe7;" d="M718 991q-174 0 -267 -112q-93 -113 -93 -319q0 -96 21.5 -178t71.5 -142q94 -113 270 -113q50 0 91.5 8t76.5 22q45 17 77.5 39.5t63.5 51.5v-191q-34 -20 -74 -37t-78 -28q-20 -5 -40.5 -9.5t-43.5 -6.5q40 -48 62 -91q11 -23 18.5 -48.5t7.5 -55.5q0 -40 -15 -74 t-45 -57q-29 -22 -73 -33.5t-106 -11.5q-44 0 -87 6q-46 6 -88 18v131q17 -8 35 -14.5t37 -10.5t40.5 -5.5t38.5 -1.5q64 0 94 24t30 68q0 32 -22 75q-16 32 -47 77q-112 6 -204.5 45t-159.5 110q-72 77 -109 186t-37 246q0 143 38.5 251t108.5 182q74 78 175.5 116.5 t226.5 38.5q46 0 85 -5t77 -16q76 -21 155 -65v-193q-37 32 -73 56t-73 38q-75 29 -166 29z" />
<glyph unicode="&#xe8;" d="M294 1673h198l281 -376h-154zM677 -29q-129 0 -231.5 39.5t-174.5 116.5t-109.5 185.5t-37.5 245.5q0 141 38 247.5t105 181.5q73 81 171 120.5t211 39.5q112 0 196.5 -37t144.5 -107t91.5 -169.5t31.5 -227.5v-90h-797v-6q0 -183 96 -283q46 -48 111.5 -74t156.5 -26 t185 28q97 29 205 85v-183q-53 -22 -107 -39t-95 -26q-48 -11 -96 -16t-95 -5zM929 660q-2 86 -22.5 147.5t-53.5 99.5q-36 42 -89 63t-119 21q-135 0 -220 -88q-86 -89 -102 -244z" />
<glyph unicode="&#xe9;" d="M771 1673h198l-325 -376h-154zM677 -29q-129 0 -231.5 39.5t-174.5 116.5t-109.5 185.5t-37.5 245.5q0 141 38 247.5t105 181.5q73 81 171 120.5t211 39.5q112 0 196.5 -37t144.5 -107t91.5 -169.5t31.5 -227.5v-90h-797v-6q0 -183 96 -283q46 -48 111.5 -74t156.5 -26 t185 28q97 29 205 85v-183q-53 -22 -107 -39t-95 -26q-48 -11 -96 -16t-95 -5zM929 660q-2 86 -22.5 147.5t-53.5 99.5q-36 42 -89 63t-119 21q-135 0 -220 -88q-86 -89 -102 -244z" />
<glyph unicode="&#xea;" d="M558 1673h147l246 -376h-139l-181 245l-180 -245h-139zM677 -29q-129 0 -231.5 39.5t-174.5 116.5t-109.5 185.5t-37.5 245.5q0 141 38 247.5t105 181.5q73 81 171 120.5t211 39.5q112 0 196.5 -37t144.5 -107t91.5 -169.5t31.5 -227.5v-90h-797v-6q0 -183 96 -283 q46 -48 111.5 -74t156.5 -26t185 28q97 29 205 85v-183q-53 -22 -107 -39t-95 -26q-48 -11 -96 -16t-95 -5zM929 660q-2 86 -22.5 147.5t-53.5 99.5q-36 42 -89 63t-119 21q-135 0 -220 -88q-86 -89 -102 -244z" />
<glyph unicode="&#xeb;" d="M364 1348q-30 0 -30 30v142q0 30 30 30h143q30 0 30 -30v-142q0 -30 -30 -30h-143zM756 1348q-30 0 -30 30v142q0 30 30 30h142q30 0 30 -30v-142q0 -30 -30 -30h-142zM677 -29q-129 0 -231.5 39.5t-174.5 116.5t-109.5 185.5t-37.5 245.5q0 141 38 247.5t105 181.5 q73 81 171 120.5t211 39.5q112 0 196.5 -37t144.5 -107t91.5 -169.5t31.5 -227.5v-90h-797v-6q0 -183 96 -283q46 -48 111.5 -74t156.5 -26t185 28q97 29 205 85v-183q-53 -22 -107 -39t-95 -26q-48 -11 -96 -16t-95 -5zM929 660q-2 86 -22.5 147.5t-53.5 99.5 q-36 42 -89 63t-119 21q-135 0 -220 -88q-86 -89 -102 -244z" />
<glyph unicode="&#xec;" d="M218 1647h198l281 -376h-154zM859 -8q-80 0 -143.5 25t-111.5 81q-91 106 -91 300v578h-245v144h429v-722q0 -125 46 -187q24 -33 57.5 -48t76.5 -15h215v-156h-233z" />
<glyph unicode="&#xed;" d="M794 1647h198l-325 -376h-154zM859 -8q-80 0 -143.5 25t-111.5 81q-91 106 -91 300v578h-245v144h429v-722q0 -125 46 -187q24 -33 57.5 -48t76.5 -15h215v-156h-233z" />
<glyph unicode="&#xee;" d="M514 1648h147l246 -376h-139l-181 245l-180 -245h-139zM859 -8q-80 0 -143.5 25t-111.5 81q-91 106 -91 300v578h-245v144h429v-722q0 -125 46 -187q24 -33 57.5 -48t76.5 -15h215v-156h-233z" />
<glyph unicode="&#xef;" d="M328 1320q-30 0 -30 30v142q0 30 30 30h143q30 0 30 -30v-142q0 -30 -30 -30h-143zM720 1320q-30 0 -30 30v142q0 30 30 30h142q30 0 30 -30v-142q0 -30 -30 -30h-142zM859 -8q-80 0 -143.5 25t-111.5 81q-91 106 -91 300v578h-245v144h429v-722q0 -125 46 -187 q24 -33 57.5 -48t76.5 -15h215v-156h-233z" />
<glyph unicode="&#xf0;" d="M617 -29q-116 0 -204.5 37.5t-150.5 110.5q-63 75 -94 179t-31 235q0 132 31.5 237t93.5 179t152.5 110.5t216.5 36.5q18 0 23.5 -0.5t8.5 -0.5q11 -1 14.5 -1t5 -0.5t3.5 -0.5t10 -1l-10.5 14t-17.5 23t-20.5 27t-20.5 26q-18 23 -36.5 44.5t-37.5 43.5l-279 -92l-30 98 l237 80l-182 200h219l127 -145l289 94l33 -98l-250 -80q196 -212 288 -402q46 -96 68.5 -192.5t22.5 -204.5q0 -128 -31 -231t-94 -178q-64 -76 -153 -112t-201 -36zM616 127q138 0 211 106q37 54 55.5 129t18.5 169q0 60 -7.5 112.5t-21.5 103.5t-34 93.5t-45 77.5 q-17 7 -39.5 12.5t-36.5 7.5q-41 6 -79 6q-73 0 -131.5 -25t-97.5 -79t-58 -131.5t-19 -174.5q0 -194 74 -301q73 -106 210 -106z" />
<glyph unicode="&#xf1;" d="M287 1286q2 135 52 208q51 74 141 74q39 0 72 -14q30 -13 69 -47l57 -55q11 -10 21.5 -17.5t16.5 -11.5q10 -6 16 -8t14 -2q38 0 56 37q17 36 19 118h125q-2 -135 -52 -208q-51 -74 -141 -74q-39 0 -72 14q-30 13 -69 47l-57 55q-13 12 -22.5 19t-15.5 11q-9 5 -15.5 7 t-14.5 2q-38 0 -56 -37q-19 -39 -20 -118h-124zM195 1120h166l18 -168q50 97 133 146t198 49q90 0 153 -29t104 -83q84 -113 84 -341v-694h-185v694q0 151 -53 222t-167 71q-66 0 -114.5 -23t-82.5 -68q-70 -91 -70 -263v-633h-184v1120z" />
<glyph unicode="&#xf2;" d="M279 1673h198l281 -376h-154zM616 -29q-115 0 -204.5 37.5t-151.5 112.5q-63 78 -93 188.5t-30 250.5q0 284 123 436q123 151 356 151q120 0 208.5 -38.5t148.5 -112.5q123 -152 123 -435q0 -143 -30.5 -254t-92.5 -186q-60 -74 -149.5 -112t-207.5 -38zM616 127 q141 0 213 110q72 109 72 322t-72 323q-72 109 -213 109q-140 0 -212 -109q-72 -110 -72 -323t72 -322q72 -110 212 -110z" />
<glyph unicode="&#xf3;" d="M756 1673h198l-325 -376h-154zM616 -29q-115 0 -204.5 37.5t-151.5 112.5q-63 78 -93 188.5t-30 250.5q0 284 123 436q123 151 356 151q120 0 208.5 -38.5t148.5 -112.5q123 -152 123 -435q0 -143 -30.5 -254t-92.5 -186q-60 -74 -149.5 -112t-207.5 -38zM616 127 q141 0 213 110q72 109 72 322t-72 323q-72 109 -213 109q-140 0 -212 -109q-72 -110 -72 -323t72 -322q72 -110 212 -110z" />
<glyph unicode="&#xf4;" d="M543 1673h147l246 -376h-139l-181 245l-180 -245h-139zM616 -29q-115 0 -204.5 37.5t-151.5 112.5q-63 78 -93 188.5t-30 250.5q0 284 123 436q123 151 356 151q120 0 208.5 -38.5t148.5 -112.5q123 -152 123 -435q0 -143 -30.5 -254t-92.5 -186q-60 -74 -149.5 -112 t-207.5 -38zM616 127q141 0 213 110q72 109 72 322t-72 323q-72 109 -213 109q-140 0 -212 -109q-72 -110 -72 -323t72 -322q72 -110 212 -110z" />
<glyph unicode="&#xf5;" d="M287 1286q2 135 52 208q51 74 141 74q39 0 72 -14q30 -13 69 -47l57 -55q11 -10 21.5 -17.5t16.5 -11.5q10 -6 16 -8t14 -2q38 0 56 37q17 36 19 118h125q-2 -135 -52 -208q-51 -74 -141 -74q-39 0 -72 14q-30 13 -69 47l-57 55q-13 12 -22.5 19t-15.5 11q-9 5 -15.5 7 t-14.5 2q-38 0 -56 -37q-19 -39 -20 -118h-124zM616 -29q-115 0 -204.5 37.5t-151.5 112.5q-63 78 -93 188.5t-30 250.5q0 284 123 436q123 151 356 151q120 0 208.5 -38.5t148.5 -112.5q123 -152 123 -435q0 -143 -30.5 -254t-92.5 -186q-60 -74 -149.5 -112t-207.5 -38z M616 127q141 0 213 110q72 109 72 322t-72 323q-72 109 -213 109q-140 0 -212 -109q-72 -110 -72 -323t72 -322q72 -110 212 -110z" />
<glyph unicode="&#xf6;" d="M349 1350q-30 0 -30 30v142q0 30 30 30h143q30 0 30 -30v-142q0 -30 -30 -30h-143zM741 1350q-30 0 -30 30v142q0 30 30 30h142q30 0 30 -30v-142q0 -30 -30 -30h-142zM616 -29q-115 0 -204.5 37.5t-151.5 112.5q-63 78 -93 188.5t-30 250.5q0 284 123 436 q123 151 356 151q120 0 208.5 -38.5t148.5 -112.5q123 -152 123 -435q0 -143 -30.5 -254t-92.5 -186q-60 -74 -149.5 -112t-207.5 -38zM616 127q141 0 213 110q72 109 72 322t-72 323q-72 109 -213 109q-140 0 -212 -109q-72 -110 -72 -323t72 -322q72 -110 212 -110z" />
<glyph unicode="&#xf7;" d="M524 889q-30 0 -30 30v186q0 30 30 30h185q30 0 30 -30v-186q0 -30 -30 -30h-185zM88 727h1057v-170h-1057v170zM524 150q-30 0 -30 30v185q0 30 30 30h185q30 0 30 -30v-185q0 -30 -30 -30h-185z" />
<glyph unicode="&#xf8;" d="M47 -20l170 200q-23 42 -36 82t-23 87q-11 51 -16 101t-5 109q0 285 123 437q123 151 355 151q49 0 95.5 -6.5t84.5 -20.5q37 -13 72.5 -34t66.5 -50l147 176l93 -77l-164 -195q41 -65 64 -162q11 -49 16.5 -103.5t5.5 -113.5q0 -143 -30.5 -254t-92.5 -186 q-123 -150 -358 -150q-55 0 -98.5 8t-81.5 22q-41 15 -73.5 36t-62.5 53l-160 -186zM817 897q-35 49 -84 71q-51 23 -117 23q-139 0 -213 -107q-36 -52 -55.5 -127t-19.5 -178q0 -28 1.5 -54.5t5.5 -55.5q7 -59 21 -129zM615 127q142 0 214 110q36 55 54 135.5t18 183.5 q0 30 -1.5 56.5t-4.5 54.5q-2 21 -6 49t-12 64l-463 -559q22 -28 42.5 -43.5t44.5 -26.5q25 -11 52 -17.5t62 -6.5z" />
<glyph unicode="&#xf9;" d="M279 1644h198l281 -376h-154zM534 -29q-171 0 -255 113q-84 112 -84 340v694h184v-694q0 -152 54 -222q26 -34 65.5 -52.5t99.5 -18.5q130 0 199 92q69 91 69 262v633h185v-1118h-167l-18 168q-50 -98 -133 -147q-85 -50 -199 -50z" />
<glyph unicode="&#xfa;" d="M756 1644h198l-325 -376h-154zM534 -29q-171 0 -255 113q-84 112 -84 340v694h184v-694q0 -152 54 -222q26 -34 65.5 -52.5t99.5 -18.5q130 0 199 92q69 91 69 262v633h185v-1118h-167l-18 168q-50 -98 -133 -147q-85 -50 -199 -50z" />
<glyph unicode="&#xfb;" d="M543 1644h147l246 -376h-139l-181 245l-180 -245h-139zM534 -29q-171 0 -255 113q-84 112 -84 340v694h184v-694q0 -152 54 -222q26 -34 65.5 -52.5t99.5 -18.5q130 0 199 92q69 91 69 262v633h185v-1118h-167l-18 168q-50 -98 -133 -147q-85 -50 -199 -50z" />
<glyph unicode="&#xfc;" d="M349 1320q-30 0 -30 30v142q0 30 30 30h143q30 0 30 -30v-142q0 -30 -30 -30h-143zM741 1320q-30 0 -30 30v142q0 30 30 30h142q30 0 30 -30v-142q0 -30 -30 -30h-142zM534 -29q-171 0 -255 113q-84 112 -84 340v694h184v-694q0 -152 54 -222q26 -34 65.5 -52.5 t99.5 -18.5q130 0 199 92q69 91 69 262v633h185v-1118h-167l-18 168q-50 -98 -133 -147q-85 -50 -199 -50z" />
<glyph unicode="&#xfd;" d="M756 1646h198l-325 -376h-154zM184 -272h109q45 0 76 13.5t51 33.5q22 23 50 79t67 164l-433 1102h195l332 -876l327 876h195l-295 -760q-33 -84 -52.5 -135t-31.5 -82.5t-19 -50.5t-14 -40q-25 -70 -45 -121.5t-36.5 -89t-30 -63.5t-23.5 -45q-31 -54 -57 -79.5 t-55 -41.5q-35 -19 -78 -28.5t-84 -9.5h-148v154z" />
<glyph unicode="&#xfe;" d="M190 1567h185v-590q47 84 123 127t177 43q100 0 180 -39t138 -118t86.5 -187.5t28.5 -245.5q0 -275 -116 -430q-116 -156 -318 -156q-57 0 -99 11.5t-79 32.5q-78 45 -121 126v-567h-185v1993zM647 127q134 0 201 109t67 323t-67 323t-201 109t-203 -109 q-69 -110 -69 -323t69 -322q69 -110 203 -110z" />
<glyph unicode="&#xff;" d="M349 1320q-30 0 -30 30v142q0 30 30 30h143q30 0 30 -30v-142q0 -30 -30 -30h-143zM741 1320q-30 0 -30 30v142q0 30 30 30h142q30 0 30 -30v-142q0 -30 -30 -30h-142zM184 -272h109q45 0 76 13.5t51 33.5q22 23 50 79t67 164l-433 1102h195l332 -876l327 876h195 l-295 -760q-24 -62 -37.5 -96t-21 -53.5t-11.5 -30t-9 -24.5t-13.5 -37t-24.5 -67q-30 -81 -51.5 -136t-37.5 -91.5t-26.5 -58t-17.5 -34.5q-22 -38 -49 -67.5t-66 -51.5q-69 -39 -161 -39h-148v154z" />
<glyph unicode="&#x100;" d="M317 1800h598v-148h-598v148zM494 1493h245l457 -1493h-209l-110 389h-523l-108 -389h-209zM829 551l-213 764l-213 -764h426z" />
<glyph unicode="&#x101;" d="M320 1496h598v-148h-598v148zM513 -29q-174 0 -275 97q-48 46 -75 108.5t-27 150.5q0 185 126 283q124 97 368 97h247v29q0 64 -17 114t-51 81q-33 30 -87 45t-126 15q-95 0 -191 -27q-97 -27 -187 -79v184q42 16 93 32t103 27q91 19 183 19q71 0 129 -10.5t108 -31.5 q46 -20 87.5 -50.5t70.5 -70.5q21 -29 34 -61t20 -63q16 -73 16 -221v-229q2 -58 3 -102t6 -82q5 -42 11.5 -79t11.5 -56q7 -31 16 -58.5t11 -32.5h-185q-5 12 -12.5 35.5t-14.5 51.5q-5 22 -9.5 44.5t-6.5 38.5q-29 -50 -74.5 -89t-89.5 -62q-48 -25 -101.5 -36.5 t-114.5 -11.5zM551 125q151 0 238 106q88 108 88 291v41h-233q-160 0 -242 -56q-43 -29 -62.5 -71.5t-19.5 -98.5q0 -52 16 -90.5t45 -65.5q29 -26 70.5 -41t99.5 -15z" />
<glyph unicode="&#x102;" d="M616 1589q-290 0 -313 242h119q12 -54 61.5 -82.5t134.5 -28.5q163 0 193 111h119q-11 -120 -90 -181t-224 -61zM494 1493h245l457 -1493h-209l-110 389h-523l-108 -389h-209zM829 551l-213 764l-213 -764h426z" />
<glyph unicode="&#x103;" d="M619 1296q-290 0 -313 287h119q11 -72 56.5 -111t136.5 -39q86 0 134 37t62 113h119q-23 -287 -314 -287zM513 -29q-174 0 -275 97q-48 46 -75 108.5t-27 150.5q0 185 126 283q124 97 368 97h247v29q0 64 -17 114t-51 81q-33 30 -87 45t-126 15q-95 0 -191 -27 q-97 -27 -187 -79v184q42 16 93 32t103 27q91 19 183 19q71 0 129 -10.5t108 -31.5q46 -20 87.5 -50.5t70.5 -70.5q21 -29 34 -61t20 -63q16 -73 16 -221v-229q2 -58 3 -102t6 -82q5 -42 11.5 -79t11.5 -56q7 -31 16 -58.5t11 -32.5h-185q-5 12 -12.5 35.5t-14.5 51.5 q-5 22 -9.5 44.5t-6.5 38.5q-29 -50 -74.5 -89t-89.5 -62q-48 -25 -101.5 -36.5t-114.5 -11.5zM551 125q151 0 238 106q88 108 88 291v41h-233q-160 0 -242 -56q-43 -29 -62.5 -71.5t-19.5 -98.5q0 -52 16 -90.5t45 -65.5q29 -26 70.5 -41t99.5 -15z" />
<glyph unicode="&#x104;" d="M1124 -272q31 0 54.5 7.5t54.5 22.5v-133q-22 -6 -38.5 -9.5t-30.5 -6t-27.5 -3.5t-30.5 -1q-113 0 -172 42.5t-59 130.5q0 25 5.5 49.5t18 51t33 56.5t51.5 65h4l-110 389h-523l-108 -389h-209l457 1493h245l457 -1493h-94q-48 -65 -68 -107.5t-20 -76.5q0 -42 28 -65 t82 -23zM829 551l-213 764l-213 -764h426z" />
<glyph unicode="&#x105;" d="M1078 -269q62 0 124 30v-133q-42 -11 -74 -15.5t-69 -4.5q-112 0 -171 42.5t-59 131.5q0 25 5.5 49t17.5 50.5t32.5 55.5t50.5 64q-5 13 -12 36t-14 50q-5 22 -9.5 44.5t-6.5 38.5q-29 -50 -74.5 -89t-89.5 -62q-48 -25 -101.5 -36.5t-114.5 -11.5q-174 0 -275 97 q-48 46 -75 108.5t-27 150.5q0 185 126 283q124 97 368 97h247v29q0 64 -17 114t-51 81q-33 30 -87 45t-126 15q-95 0 -191 -27q-97 -27 -187 -79v184q42 16 93 32t103 27q91 19 183 19q71 0 129 -10.5t108 -31.5q46 -20 87.5 -50.5t70.5 -70.5q21 -29 34 -61t20 -63 q16 -73 16 -221v-229q2 -58 3 -102t6 -82q5 -42 11.5 -79t11.5 -56q7 -31 16 -58.5t11 -32.5h-67q-47 -64 -66.5 -106t-19.5 -75q0 -42 28 -65t82 -23zM877 563h-233q-160 0 -242 -56q-43 -29 -62.5 -71.5t-19.5 -98.5q0 -52 16 -90.5t45 -65.5q29 -26 70.5 -41t99.5 -15 q151 0 238 106q88 108 88 291v41z" />
<glyph unicode="&#x106;" d="M762 1852h186l-229 -264h-154zM742 -29q-143 0 -255 51.5t-190 151.5q-79 102 -118.5 245.5t-39.5 324.5t39.5 325t119.5 247q78 100 189.5 152t254.5 52q45 0 89.5 -5t83.5 -15q38 -10 79 -26t79 -36v-207q-73 61 -159 93q-43 16 -85.5 24t-87.5 8q-97 0 -170.5 -38 t-122.5 -114q-98 -152 -98 -459q0 -306 98 -458q47 -72 119.5 -112t174.5 -40q89 0 174 32q83 31 157 93v-207q-78 -41 -158 -62q-39 -10 -83.5 -15t-89.5 -5z" />
<glyph unicode="&#x107;" d="M815 1673h198l-325 -376h-154zM712 -29q-125 0 -227.5 39.5t-174.5 116.5t-109 186t-37 246q0 143 38.5 251t108.5 182q74 78 175.5 116.5t226.5 38.5q46 0 85 -5t77 -16q76 -21 155 -65v-193q-37 32 -73 56t-73 38q-75 29 -166 29q-174 0 -267 -112q-93 -113 -93 -319 q0 -96 21.5 -178t71.5 -142q94 -113 270 -113q50 0 91.5 8t76.5 22q45 17 77.5 39.5t63.5 51.5v-191q-34 -20 -74 -37t-78 -28q-35 -10 -76.5 -15.5t-89.5 -5.5z" />
<glyph unicode="&#x10a;" d="M618 1647q-30 0 -30 30v145q0 30 30 30h145q30 0 30 -30v-145q0 -30 -30 -30h-145zM744 -29q-144 0 -256.5 52t-190 151t-118 242.5t-40.5 326.5q0 184 40.5 328t118.5 244t190.5 152.5t256.5 52.5q89 0 169.5 -20t158.5 -62v-207q-73 60 -156.5 92.5t-176.5 32.5 q-194 0 -292 -152t-98 -459q0 -610 390 -610q91 0 175.5 32t157.5 93v-207q-78 -42 -158.5 -62t-170.5 -20z" />
<glyph unicode="&#x10b;" d="M587 1348q-30 0 -30 30v144q0 30 30 30h145q30 0 30 -30v-144q0 -30 -30 -30h-145zM717 -29q-130 0 -232.5 40t-174 116t-109 185t-37.5 247t37.5 247t109 185t174 116t232.5 40q81 0 158 -20.5t155 -65.5v-193q-73 65 -146.5 94t-166.5 29q-174 0 -266.5 -111.5 t-92.5 -320.5q0 -208 93 -320t266 -112q97 0 172 29t141 92v-191q-149 -86 -313 -86z" />
<glyph unicode="&#x10c;" d="M401 1852h140l165 -178l166 178h140l-211 -266h-189zM742 -29q-143 0 -255 51.5t-190 151.5q-79 102 -118.5 245.5t-39.5 324.5t39.5 325t119.5 247q78 100 189.5 152t254.5 52q45 0 89.5 -5t83.5 -15q38 -10 79 -26t79 -36v-207q-73 61 -159 93q-43 16 -85.5 24t-87.5 8 q-97 0 -170.5 -38t-122.5 -114q-98 -152 -98 -459q0 -306 98 -458q47 -72 119.5 -112t174.5 -40q89 0 174 32q83 31 157 93v-207q-78 -41 -158 -62q-39 -10 -83.5 -15t-89.5 -5z" />
<glyph unicode="&#x10d;" d="M356 1673h139l180 -245l181 245h139l-246 -376h-147zM712 -29q-125 0 -227.5 39.5t-174.5 116.5t-109 186t-37 246q0 143 38.5 251t108.5 182q74 78 175.5 116.5t226.5 38.5q46 0 85 -5t77 -16q76 -21 155 -65v-193q-37 32 -73 56t-73 38q-75 29 -166 29 q-174 0 -267 -112q-93 -113 -93 -319q0 -96 21.5 -178t71.5 -142q94 -113 270 -113q50 0 91.5 8t76.5 22q45 17 77.5 39.5t63.5 51.5v-191q-34 -20 -74 -37t-78 -28q-35 -10 -76.5 -15.5t-89.5 -5.5z" />
<glyph unicode="&#x10e;" d="M233 1852h140l165 -178l166 178h140l-211 -266h-189zM137 1493h303q171 0 296.5 -45t207.5 -137t122 -232.5t40 -331.5q0 -192 -40 -332.5t-122 -232.5t-207.5 -137t-296.5 -45h-303v1493zM436 166q128 0 215.5 29t141 96.5t77 179t23.5 275.5q0 165 -23.5 276.5 t-77.5 179t-141.5 96.5t-214.5 29h-96v-1161h96z" />
<glyph unicode="&#x10f;" d="M1114 1557h198l-113 -376h-154zM526 -29q-100 0 -180 40.5t-136.5 117t-86.5 185.5t-30 247q0 137 30.5 246t86.5 184.5t136.5 115.5t180.5 40q104 0 180 -43t121 -127v579h184v-1556h-166l-18 141q-46 -84 -122.5 -127t-179.5 -43zM556 127q134 0 203 109t69 323 t-69 323t-203 109t-201.5 -108.5t-67.5 -323.5t67.5 -323.5t201.5 -108.5z" />
<glyph unicode="&#x110;" d="M133 709h-125v149h125v635h303q171 0 296 -45t207.5 -137t122.5 -232.5t40 -332.5q0 -191 -40 -331.5t-122 -232.5t-207.5 -137t-296.5 -45h-303v709zM436 166q128 0 215.5 29t141 96.5t77 179t23.5 275.5q0 165 -23.5 276.5t-77.5 179t-141.5 96.5t-214.5 29h-96v-469 h264v-149h-264v-543h96z" />
<glyph unicode="&#x111;" d="M559 -29q-106 0 -186 42t-134 116q-58 79 -87 188.5t-29 244.5q0 133 28.5 242.5t87.5 187.5t141 116.5t179 38.5q102 0 178 -43q77 -44 121 -127v309h-305v121h305v149h184v-149h191v-121h-191v-1286h-166l-18 141q-23 -40 -52 -71.5t-70 -54.5q-76 -44 -177 -44z M585 127q135 0 204 110q69 109 69 322t-69 323q-32 51 -82 80t-121 29q-134 0 -201 -109q-68 -110 -68 -323t68 -323q35 -57 86 -83t114 -26z" />
<glyph unicode="&#x112;" d="M335 1800h598v-148h-598v148zM197 1493h886v-170h-684v-442h654v-170h-654v-541h703v-170h-905v1493z" />
<glyph unicode="&#x113;" d="M353 1496h598v-148h-598v148zM677 -29q-130 0 -232.5 40.5t-174 116.5t-109 184t-37.5 243t37.5 244.5t106 187t164.5 119t213 41.5q111 0 198 -37.5t147 -107.5t91.5 -170t31.5 -226v-90h-797v-6q0 -92 24.5 -163t71 -120t114.5 -74.5t154 -25.5q90 0 185.5 28t204.5 85 v-183q-106 -43 -202.5 -64.5t-190.5 -21.5zM929 660q-3 157 -74.5 244t-207.5 87t-221.5 -86.5t-102.5 -245.5z" />
<glyph unicode="&#x116;" d="M561 1647q-30 0 -30 30v145q0 30 30 30h145q30 0 30 -30v-145q0 -30 -30 -30h-145zM197 1493h886v-170h-684v-442h654v-170h-654v-541h703v-170h-905v1493z" />
<glyph unicode="&#x117;" d="M558 1348q-30 0 -30 30v144q0 30 30 30h145q30 0 30 -30v-144q0 -30 -30 -30h-145zM677 -29q-130 0 -232.5 40.5t-174 116.5t-109 184t-37.5 243t37.5 244.5t106 187t164.5 119t213 41.5q111 0 198 -37.5t147 -107.5t91.5 -170t31.5 -226v-90h-797v-6q0 -92 24.5 -163 t71 -120t114.5 -74.5t154 -25.5q90 0 185.5 28t204.5 85v-183q-106 -43 -202.5 -64.5t-190.5 -21.5zM929 660q-3 157 -74.5 244t-207.5 87t-221.5 -86.5t-102.5 -245.5z" />
<glyph unicode="&#x118;" d="M952 0q-48 -65 -68 -107.5t-20 -76.5q0 -42 28 -65t82 -23q62 0 124 30v-133q-42 -11 -74 -15.5t-69 -4.5q-112 0 -171 42.5t-59 131.5q0 25 5.5 49.5t18 50.5t33 56t51.5 65h-636v1493h886v-170h-684v-442h654v-170h-654v-541h703v-170h-150z" />
<glyph unicode="&#x119;" d="M316 516v-6q0 -92 24.5 -163t71 -120t114.5 -74.5t154 -25.5q90 0 185.5 28t204.5 85v-183q-46 -19 -90 -33t-87 -25q-47 -65 -67 -107t-20 -76q0 -42 28 -65t82 -23q62 0 124 30v-133q-42 -11 -74 -15.5t-69 -4.5q-112 0 -171 42.5t-59 131.5q0 22 4.5 44.5t14.5 46 t26.5 49.5t41.5 56q-20 -2 -39 -3t-38 -1q-130 0 -232.5 40.5t-174 116.5t-109 184t-37.5 243t37.5 244.5t106 187t164.5 119t213 41.5q111 0 198 -37.5t147 -107.5t91.5 -170t31.5 -226v-90h-797zM647 991q-136 0 -221.5 -86.5t-102.5 -245.5l606 1q-3 157 -74.5 244 t-207.5 87z" />
<glyph unicode="&#x11a;" d="M347 1852h140l165 -178l166 178h140l-211 -266h-189zM197 1493h886v-170h-684v-442h654v-170h-654v-541h703v-170h-905v1493z" />
<glyph unicode="&#x11b;" d="M333 1673h139l180 -245l181 245h139l-246 -376h-147zM677 -29q-130 0 -232.5 40.5t-174 116.5t-109 184t-37.5 243t37.5 244.5t106 187t164.5 119t213 41.5q111 0 198 -37.5t147 -107.5t91.5 -170t31.5 -226v-90h-797v-6q0 -92 24.5 -163t71 -120t114.5 -74.5t154 -25.5 q90 0 185.5 28t204.5 85v-183q-106 -43 -202.5 -64.5t-190.5 -21.5zM929 660q-3 157 -74.5 244t-207.5 87t-221.5 -86.5t-102.5 -245.5z" />
<glyph unicode="&#x11e;" d="M656 1589q-290 0 -313 242h119q12 -54 61.5 -82.5t134.5 -28.5q163 0 193 111h119q-11 -120 -90 -181t-224 -61zM700 -29q-143 0 -253.5 52t-187.5 152q-78 102 -117.5 245t-39.5 324t39.5 325t119.5 247q76 97 187 150.5t254 53.5q47 0 94 -6t91 -20t87 -35t79 -46v-207 q-43 41 -85.5 69t-80.5 45q-44 19 -90 27.5t-91 8.5q-97 0 -170 -37t-124 -115q-50 -77 -74.5 -190.5t-24.5 -270.5q0 -158 24 -270.5t72 -187.5q50 -78 122.5 -114t171.5 -36q35 0 64 4t53 12t47 19.5t44 28.5v401h-217v166h410v-643q-81 -75 -182 -113q-102 -39 -222 -39z " />
<glyph unicode="&#x11f;" d="M644 1298q-144 0 -223 72t-90 215h119q10 -75 59 -113q47 -37 135 -37q86 0 133 37q49 38 62 113h119q-11 -143 -90 -215q-80 -72 -224 -72zM601 -440q-39 0 -78 3.5t-81 10.5q-41 7 -81.5 17t-84.5 24v182q49 -23 94.5 -40t83.5 -28q78 -22 151 -22q74 0 126 20t87 62 q33 40 50.5 101.5t17.5 154.5v133q-43 -93 -120 -140q-76 -46 -184 -46q-197 0 -314 157t-117 420t117 421q59 79 136.5 118t178.5 39q52 0 97.5 -10.5t83.5 -32.5q76 -44 122 -133l18 145h166v-1044q0 -251 -119 -382q-118 -130 -350 -130zM622 145q130 0 197 109t67 315 q0 208 -67 315q-35 57 -85.5 82t-112.5 25q-134 0 -205 -107t-71 -316q0 -205 72 -314t205 -109z" />
<glyph unicode="&#x120;" d="M618 1647q-30 0 -30 30v145q0 30 30 30h145q30 0 30 -30v-145q0 -30 -30 -30h-145zM700 -29q-141 0 -252 52t-188 151t-117.5 242.5t-40.5 326.5q0 184 41 328t118.5 244t189 152.5t252.5 52.5q99 0 184 -26.5t166 -80.5v-207q-81 78 -165.5 114t-180.5 36 q-200 0 -297 -152.5t-97 -464.5q0 -307 96 -455.5t296 -148.5q64 0 114 15.5t92 48.5v401h-217v166h410v-643q-81 -75 -182 -113.5t-222 -38.5z" />
<glyph unicode="&#x121;" d="M571 1348q-30 0 -30 30v144q0 30 30 30h145q30 0 30 -30v-144q0 -30 -30 -30h-145zM601 -440q-76 0 -158.5 14t-166.5 41v182q50 -23 94.5 -40t84.5 -28t77.5 -16.5t74.5 -5.5q145 0 212 82.5t67 255.5v133q-42 -91 -117 -138.5t-184 -47.5q-100 0 -180.5 41t-136.5 116 t-86.5 182t-30.5 239t30 238.5t86.5 181.5t137 116t181.5 41q103 0 178.5 -43.5t121.5 -132.5l18 145h166v-1044q0 -254 -118.5 -383t-350.5 -129zM620 145q132 0 199 108t67 316t-67 315t-200 107q-132 0 -203 -106.5t-71 -314.5q0 -209 71.5 -317t203.5 -108z" />
<glyph unicode="&#x122;" d="M700 -29q-141 0 -252 52t-188 151t-117.5 242.5t-40.5 326.5q0 184 41 328t118.5 244t189 152.5t252.5 52.5q99 0 184 -26.5t166 -80.5v-207q-81 78 -165.5 114t-180.5 36q-200 0 -297 -152.5t-97 -464.5q0 -307 96 -455.5t296 -148.5q64 0 114 15.5t92 48.5v401h-217 v166h410v-643q-81 -75 -182 -113.5t-222 -38.5zM630 -228h239l-187 -345h-146z" />
<glyph unicode="&#x123;" d="M701 1642h146l-94 -345h-239zM601 -440q-76 0 -158.5 14t-166.5 41v182q50 -23 94.5 -40t84.5 -28t77.5 -16.5t74.5 -5.5q145 0 212 82.5t67 255.5v133q-42 -91 -117 -138.5t-184 -47.5q-100 0 -180.5 41t-136.5 116t-86.5 182t-30.5 239t30 238.5t86.5 181.5t137 116 t181.5 41q103 0 178.5 -43.5t121.5 -132.5l18 145h166v-1044q0 -254 -118.5 -383t-350.5 -129zM620 145q132 0 199 108t67 316t-67 315t-200 107q-132 0 -203 -106.5t-71 -314.5q0 -209 71.5 -317t203.5 -108z" />
<glyph unicode="&#x126;" d="M137 1105h-134v164h134v224h202v-224h554v224h202v-224h135v-164h-135v-1105h-202v711h-554v-711h-202v1105zM893 881v224h-554v-224h554z" />
<glyph unicode="&#x127;" d="M195 1270h-125v164h125v122h184v-122h353v-164h-353v-318q49 97 133 146t199 49q172 0 256 -112t84 -341v-694h-185v694q0 151 -52.5 222t-165.5 71q-131 0 -200 -91t-69 -263v-633h-184v1270z" />
<glyph unicode="&#x128;" d="M287 1633q0 48 12 88t40 72q51 59 137 59q32 0 66 -8q15 -4 34 -12.5t45 -22.5l57 -30q21 -13 40 -19q16 -6 32 -6q31 0 51 26t20 66v6h125q-1 -99 -53 -159q-51 -60 -136 -60q-31 0 -63 8q-14 4 -32.5 11.5t-49.5 23.5l-57 33q-23 13 -41 20q-8 3 -16 4t-13 1 q-15 0 -29 -6t-24 -19q-20 -26 -20 -70v-6h-125zM201 170h313v1153h-313v170h829v-170h-313v-1153h313v-170h-829v170z" />
<glyph unicode="&#x129;" d="M268 1259q0 65 13 117.5t37.5 89t61 56t83.5 19.5q38 0 70 -14t69 -47l57 -55q24 -23 40 -31t30 -8q17 0 31 9t23 28q17 36 19 118h125q0 -65 -13 -117.5t-37.5 -89t-61 -56t-83.5 -19.5q-38 0 -70 14t-69 47l-57 55q-21 20 -37 29.5t-33 9.5t-31 -9t-23 -28 q-19 -39 -20 -118h-124zM859 -8q-80 0 -143.5 25t-111.5 81q-91 106 -91 300v578h-245v144h429v-722q0 -125 46 -187q24 -33 57.5 -48t76.5 -15h215v-156h-233z" />
<glyph unicode="&#x12a;" d="M335 1800h598v-148h-598v148zM201 170h313v1153h-313v170h829v-170h-313v-1153h313v-170h-829v170z" />
<glyph unicode="&#x12b;" d="M268 1468h598v-148h-598v148zM859 -8q-80 0 -143.5 25t-111.5 81q-91 106 -91 300v578h-245v144h429v-722q0 -125 46 -187q24 -33 57.5 -48t76.5 -15h215v-156h-233z" />
<glyph unicode="&#x12e;" d="M717 1323v-1153h313v-170h-313q-48 -65 -68 -107.5t-20 -76.5q0 -42 28 -65t82 -23q62 0 124 30v-133q-42 -11 -74 -15.5t-69 -4.5q-112 0 -171 42.5t-59 131.5q0 25 5.5 49.5t18 50.5t33 56t51.5 65h-397v170h313v1153h-313v170h829v-170h-313z" />
<glyph unicode="&#x12f;" d="M526 1323q-33 0 -33 30v173q0 30 33 30h138q33 0 33 -30v-173q0 -30 -33 -30h-138zM972 -261q62 0 124 30v-133q-42 -11 -74 -15.5t-69 -4.5q-112 0 -171 42.5t-59 131.5q0 23 4.5 46t15.5 47.5t29 51.5t44 59q-65 6 -118 31t-94 73q-91 106 -91 300v578h-245v144h429 v-722q0 -125 46 -187q24 -33 57.5 -48t76.5 -15h215v-156h-156q-40 -57 -57 -95t-17 -70q0 -42 28 -65t82 -23z" />
<glyph unicode="&#x130;" d="M543 1647q-30 0 -30 30v145q0 30 30 30h145q30 0 30 -30v-145q0 -30 -30 -30h-145zM201 170h313v1153h-313v170h829v-170h-313v-1153h313v-170h-829v170z" />
<glyph unicode="&#x131;" d="M859 -8q-80 0 -143.5 25t-111.5 81q-91 106 -91 300v578h-245v144h429v-722q0 -125 46 -187q24 -33 57.5 -48t76.5 -15h215v-156h-233v0z" />
<glyph unicode="&#x136;" d="M137 1493h203v-664l631 664h237l-581 -610l598 -883h-244l-487 748l-154 -164v-584h-203v1493zM608 -199h239l-187 -345h-146z" />
<glyph unicode="&#x137;" d="M226 1556h190v-901l483 465h224l-441 -422l510 -698h-225l-414 578l-137 -129v-449h-190v1556zM626 -199h239l-187 -345h-146z" />
<glyph unicode="&#x139;" d="M412 1856h186l-229 -264h-154zM215 1493h203v-1323h721v-170h-924v1493z" />
<glyph unicode="&#x13a;" d="M577 1880h186l-229 -264h-154zM801 -8q-166 0 -256 105.5t-90 300.5v1014h-295v144h479v-1158q0 -250 180 -250h215v-156h-233z" />
<glyph unicode="&#x13b;" d="M215 1493h203v-1323h721v-170h-924v1493zM604 -199h239l-187 -345h-146z" />
<glyph unicode="&#x13c;" d="M801 -8q-166 0 -256 105.5t-90 300.5v1014h-295v144h479v-1158q0 -250 180 -250h215v-156h-233zM497 -199h239l-187 -345h-146z" />
<glyph unicode="&#x13d;" d="M215 1493h203v-1323h721v-170h-924v1493zM718 1491h198l-113 -376h-154z" />
<glyph unicode="&#x13e;" d="M801 -8q-166 0 -256 105.5t-90 300.5v1014h-295v144h479v-1158q0 -250 180 -250h215v-156h-233zM959 1556h198l-113 -376h-154z" />
<glyph unicode="&#x141;" d="M215 571l-145 -106l-80 110l225 158v760h203v-616l315 219l78 -111l-393 -274v-541h721v-170h-924v571z" />
<glyph unicode="&#x142;" d="M801 -8q-80 0 -143.5 25t-111.5 81q-91 106 -91 300v292l-299 -209l-80 111l379 264v556h-295v144h479v-575l315 219l80 -110l-395 -275v-417q0 -125 46 -187q24 -33 57.5 -48t76.5 -15h215v-156h-233v0z" />
<glyph unicode="&#x143;" d="M731 1856h186l-229 -264h-154zM139 1493h256l504 -1229v1229h195v-1493h-256l-504 1229v-1229h-195v1493z" />
<glyph unicode="&#x144;" d="M776 1673h198l-325 -376h-154zM195 1120h166l18 -168q49 97 133 146t199 49q172 0 256 -112t84 -341v-694h-185v694q0 151 -52.5 222t-165.5 71q-131 0 -200 -91t-69 -263v-633h-184v1120z" />
<glyph unicode="&#x145;" d="M139 1493h256l504 -1229v1229h195v-1493h-256l-504 1229v-1229h-195v1493zM544 -199h239l-187 -345h-146z" />
<glyph unicode="&#x146;" d="M195 1120h166l18 -168q49 97 133 146t199 49q172 0 256 -112t84 -341v-694h-185v694q0 151 -52.5 222t-165.5 71q-131 0 -200 -91t-69 -263v-633h-184v1120zM550 -199h239l-187 -345h-146z" />
<glyph unicode="&#x147;" d="M347 1852h140l165 -178l166 178h140l-211 -266h-189zM139 1493h256l504 -1229v1229h195v-1493h-256l-504 1229v-1229h-195v1493z" />
<glyph unicode="&#x148;" d="M285 1673h139l180 -245l181 245h139l-246 -376h-147zM195 1120h166l18 -168q49 97 133 146t199 49q172 0 256 -112t84 -341v-694h-185v694q0 151 -52.5 222t-165.5 71q-131 0 -200 -91t-69 -263v-633h-184v1120z" />
<glyph unicode="&#x14a;" d="M536 -270h167q45 0 78.5 15t56 47t33.5 83.5t11 124.5v1009q0 180 -58 264.5t-182 84.5q-142 0 -217.5 -108.5t-75.5 -312.5v-937h-202v1493h184l18 -198q54 112 145.5 169.5t218.5 57.5q372 0 372 -523v-1019q0 -196 -89 -301t-255 -105h-205v156z" />
<glyph unicode="&#x14b;" d="M502 -270h185q179 0 179 250v714q0 151 -52.5 222t-165.5 71q-131 0 -200 -91t-69 -263v-633h-184v1120h166l18 -168q49 97 133 146t199 49q172 0 256 -112t84 -341v-714q0 -196 -89 -301t-255 -105h-205v156z" />
<glyph unicode="&#x14c;" d="M317 1800h598v-148h-598v148zM615 -29q-251 0 -374.5 190.5t-123.5 582.5t123.5 584t375.5 192q253 0 376.5 -192t123.5 -583q0 -390 -124 -582t-377 -192zM616 135q154 0 222 141q67 138 67 469q0 330 -67 470q-68 141 -222 141q-153 0 -220 -141q-68 -142 -68 -470 q0 -327 68 -469q67 -141 220 -141z" />
<glyph unicode="&#x14d;" d="M317 1495h598v-148h-598v148zM616 -29q-235 0 -357 149.5t-122 437.5q0 143 31 253t92 184.5t150 113t206 38.5t206.5 -38.5t150 -113t92 -184.5t31.5 -253q0 -286 -123 -436.5t-357 -150.5zM616 127q142 0 213.5 109t71.5 323q0 215 -71.5 323.5t-213.5 108.5 q-141 0 -212.5 -108.5t-71.5 -323.5q0 -214 71.5 -323t212.5 -109z" />
<glyph unicode="&#x150;" d="M541 1859h186l-229 -264h-154zM860 1859h186l-229 -264h-154zM615 -29q-251 0 -374.5 190.5t-123.5 582.5t123.5 584t375.5 192q253 0 376.5 -192t123.5 -583q0 -390 -124 -582t-377 -192zM616 135q154 0 222 141q67 138 67 469q0 330 -67 470q-68 141 -222 141 q-153 0 -220 -141q-68 -142 -68 -470q0 -327 68 -469q67 -141 220 -141z" />
<glyph unicode="&#x151;" d="M535 1673h170l-224 -376h-137zM868 1673h179l-248 -376h-135zM616 -29q-235 0 -357 149.5t-122 437.5q0 143 31 253t92 184.5t150 113t206 38.5t206.5 -38.5t150 -113t92 -184.5t31.5 -253q0 -286 -123 -436.5t-357 -150.5zM616 127q142 0 213.5 109t71.5 323 q0 215 -71.5 323.5t-213.5 108.5q-141 0 -212.5 -108.5t-71.5 -323.5q0 -214 71.5 -323t212.5 -109z" />
<glyph unicode="&#x152;" d="M612 0q-158 0 -257.5 43.5t-158.5 123.5q-64 87 -94 229t-30 351q0 111 8 200t24 160t38.5 125t52.5 95q60 82 161 124t256 42h594v-170h-358v-442h328v-170h-328v-541h369v-170h-605zM651 170v1153h-61q-177 0 -246 -115q-34 -57 -52 -168t-18 -295q0 -180 17.5 -291 t52.5 -169q69 -115 246 -115h61z" />
<glyph unicode="&#x153;" d="M369 -29q-99 0 -163.5 36t-105.5 102q-45 72 -65.5 181.5t-20.5 267.5q0 84 5.5 152.5t16.5 123.5t27 98t36 76q43 70 110 104.5t164 34.5q90 0 153 -31q64 -32 111 -96q17 29 43 53.5t59 41.5t72 24.5t82 7.5q173 0 245 -118q72 -119 72 -425v-90h-491v-84 q0 -162 50 -235q25 -36 64 -54t99 -18q37 0 74 6.5t70 20.5q66 26 112 77v-172q-30 -23 -62.5 -39.5t-58.5 -24.5q-27 -9 -63.5 -14.5t-76.5 -5.5q-51 0 -92 9t-76 25t-65.5 39.5t-56.5 59.5q-30 -38 -58 -61.5t-58 -38.5q-32 -17 -69 -25t-83 -8zM372 123q103 0 144 84 q10 21 17.5 50.5t13 71t8 96t2.5 125.5q0 138 -10 223.5t-31 133.5t-56.5 68t-86.5 20q-55 0 -89 -21.5t-53 -61.5q-10 -21 -17.5 -50t-13 -71t-8 -99.5t-2.5 -133.5q0 -74 2.5 -130t8 -98t13 -72t17.5 -51q22 -46 57.5 -65t83.5 -19zM1047 657v12.5t1 17.5t1 15v7 q0 152 -40 219t-126 67q-87 0 -125 -68q-39 -69 -39 -227v-43h328z" />
<glyph unicode="&#x154;" d="M631 1856h186l-229 -264h-154zM143 1493h416q123 0 217.5 -28.5t159 -83t98 -133.5t33.5 -179q0 -160 -81 -251t-226 -113q40 -11 72.5 -28t62.5 -49.5t62 -85.5t73 -134l203 -408h-217l-178 377q-39 82 -72.5 132t-68 77t-72.5 36t-86 9h-193v-631h-203v1493zM567 797 q287 0 287 259q0 136 -75.5 203.5t-219.5 67.5h-213v-530h221z" />
<glyph unicode="&#x155;" d="M822 1674h198l-325 -376h-154zM302 1120h167l18 -219q45 116 138.5 181t230.5 65q67 0 126 -17t113 -53v-188q-60 46 -120.5 67t-133.5 21q-173 0 -263.5 -107.5t-90.5 -312.5v-557h-185v1120z" />
<glyph unicode="&#x156;" d="M143 1493h416q123 0 217.5 -28.5t159 -83t98 -133.5t33.5 -179q0 -160 -81 -251t-226 -113q40 -11 72.5 -28t62.5 -49.5t62 -85.5t73 -134l203 -408h-217l-178 377q-39 82 -72.5 132t-68 77t-72.5 36t-86 9h-193v-631h-203v1493zM567 797q287 0 287 259 q0 136 -75.5 203.5t-219.5 67.5h-213v-530h221zM616 -199h239l-187 -345h-146z" />
<glyph unicode="&#x157;" d="M302 1120h167l18 -219q45 116 138.5 181t230.5 65q67 0 126 -17t113 -53v-188q-60 46 -120.5 67t-133.5 21q-173 0 -263.5 -107.5t-90.5 -312.5v-557h-185v1120zM322 -199h239l-187 -345h-146z" />
<glyph unicode="&#x158;" d="M257 1852h140l165 -178l166 178h140l-211 -266h-189zM143 1493h416q123 0 217.5 -28.5t159 -83t98 -133.5t33.5 -179q0 -160 -81 -251t-226 -113q40 -11 72.5 -28t62.5 -49.5t62 -85.5t73 -134l203 -408h-217l-178 377q-39 82 -72.5 132t-68 77t-72.5 36t-86 9h-193v-631 h-203v1493zM567 797q287 0 287 259q0 136 -75.5 203.5t-219.5 67.5h-213v-530h221z" />
<glyph unicode="&#x159;" d="M337 1673h139l180 -245l181 245h139l-246 -376h-147zM302 1120h167l18 -219q45 116 138.5 181t230.5 65q67 0 126 -17t113 -53v-188q-60 46 -120.5 67t-133.5 21q-173 0 -263.5 -107.5t-90.5 -312.5v-557h-185v1120z" />
<glyph unicode="&#x15a;" d="M701 1856h186l-229 -264h-154zM586 -29q-110 0 -215 22.5t-213 67.5v215q115 -73 217 -107t208 -34q153 0 237.5 67.5t84.5 202.5q0 50 -13.5 89.5t-44 70t-81 53t-123.5 39.5l-108 25q-105 24 -180 59.5t-123 84t-70.5 111t-22.5 140.5q0 101 35 183t99.5 139.5 t155.5 89t202 31.5q171 0 381 -78v-205q-185 119 -372 119q-71 0 -128 -17t-97 -49t-61.5 -80t-21.5 -109q0 -45 13 -80t43 -63t79.5 -49t122.5 -37l106 -24q106 -24 182 -62.5t125 -92.5t72 -124.5t23 -157.5q0 -215 -132 -327.5t-380 -112.5z" />
<glyph unicode="&#x15b;" d="M782 1673h198l-325 -376h-154zM587 -29q-87 0 -177.5 17.5t-196.5 52.5v190q205 -106 375 -106q61 0 108.5 13t80.5 37t50 57t17 73q0 34 -13.5 62t-42.5 50.5t-76 40.5t-113 32l-8 2l-69 14q-82 16 -140 42.5t-94.5 64t-53.5 86.5t-17 111q0 163 108 250t314 87 q173 0 334 -66v-180q-81 46 -159.5 69t-168.5 23q-242 0 -242 -165q0 -35 11.5 -64t34.5 -47q26 -20 83.5 -37.5t145.5 -34.5l74 -14q138 -26 208 -103.5t70 -203.5q0 -83 -30.5 -148.5t-87.5 -111t-139.5 -69.5t-185.5 -24z" />
<glyph unicode="&#x15e;" d="M1001 694q97 -104 97 -284q0 -114 -35 -194.5t-96 -132.5q-47 -40 -110 -65.5t-140 -37.5q22 -26 39 -50.5t27 -44.5q11 -23 18.5 -48.5t7.5 -55.5q0 -40 -15 -74t-45 -57q-29 -22 -73 -33.5t-106 -11.5q-44 0 -87 6q-46 6 -88 18v131q17 -8 35 -14.5t37 -10.5t40.5 -5.5 t38.5 -1.5q64 0 94 24t30 68q0 32 -22 75q-8 17 -20 35.5t-26 40.5h-18q-57 0 -111 5.5t-102 16.5q-53 11 -107.5 29t-105.5 39v215q58 -37 112 -63.5t106 -43.5q54 -18 105 -26t101 -8q75 0 135 17t103 51q40 32 62.5 79.5t22.5 116.5q0 57 -15.5 98t-42.5 69 q-31 32 -82.5 53.5t-121.5 37.5l-108 25q-101 23 -176.5 57t-125.5 85q-46 47 -70 109t-24 146q0 103 35.5 184t99.5 138t153.5 88t203.5 31q43 0 88 -4.5t93 -14.5q93 -19 200 -59v-205q-50 32 -96 53.5t-88 35.5q-93 30 -186 30q-75 0 -132.5 -17.5t-95.5 -48.5 q-40 -32 -61 -78.5t-21 -106.5q0 -41 11.5 -78t43.5 -67q29 -28 78 -49.5t125 -38.5l106 -24q97 -22 174.5 -59.5t130.5 -94.5z" />
<glyph unicode="&#x15f;" d="M960 527q70 -77 70 -204q0 -86 -30.5 -149.5t-87.5 -108.5q-80 -63 -196 -83q23 -26 39.5 -51.5t27.5 -45.5q11 -23 18.5 -48.5t7.5 -55.5q0 -40 -15 -74t-45 -57q-29 -22 -73 -33.5t-106 -11.5q-44 0 -87 6q-46 6 -88 18v131q17 -8 35 -14.5t37 -10.5t40.5 -5.5 t38.5 -1.5q64 0 94 24t30 68q0 32 -22 75q-8 17 -20 35.5t-26 40.5h-12q-44 0 -90.5 4.5t-89.5 12.5q-39 8 -91.5 22t-105.5 31v190q64 -32 109 -49.5t88 -29.5q46 -13 89 -20t89 -7q121 0 189 50q35 26 51 61t16 71q0 70 -59 113.5t-186 69.5l-8 2l-69 14q-75 15 -133.5 40 t-98.5 65q-73 73 -73 201q0 81 27.5 143t81.5 105q57 46 136 66.5t177 20.5q43 0 86 -4t85 -12q38 -8 79.5 -20.5t83.5 -29.5v-180q-80 46 -159 69q-40 11 -80.5 17t-86.5 6q-58 0 -104.5 -10t-77.5 -30q-62 -41 -62 -125q0 -35 11.5 -64t34.5 -47t76.5 -35.5t152.5 -36.5 l74 -14q72 -14 123 -40t85 -64z" />
<glyph unicode="&#x160;" d="M327 1852h140l165 -178l166 178h140l-211 -266h-189zM584 -29q-57 0 -111 5.5t-102 16.5q-53 11 -107.5 29t-105.5 39v215q58 -37 112 -63.5t106 -43.5q54 -18 105 -26t101 -8q75 0 135 17t103 51q40 32 62.5 79.5t22.5 116.5q0 57 -15.5 98t-42.5 69q-31 32 -82.5 53.5 t-121.5 37.5l-108 25q-101 23 -176.5 57t-125.5 85q-46 47 -70 109t-24 146q0 103 35.5 184t99.5 138t153.5 88t203.5 31q43 0 88 -4.5t93 -14.5q93 -19 200 -59v-205q-50 32 -96 53.5t-88 35.5q-93 30 -186 30q-75 0 -132.5 -17.5t-95.5 -48.5q-40 -32 -61 -78.5 t-21 -106.5q0 -41 11.5 -78t43.5 -67q29 -28 78 -49.5t125 -38.5l106 -24q97 -22 174.5 -59.5t130.5 -94.5q97 -104 97 -284q0 -114 -35 -194.5t-96 -132.5q-66 -57 -163.5 -84.5t-219.5 -27.5z" />
<glyph unicode="&#x161;" d="M297 1673h139l180 -245l181 245h139l-246 -376h-147zM590 -29q-44 0 -90.5 4.5t-89.5 12.5q-39 8 -91.5 22t-105.5 31v190q64 -32 109 -49.5t88 -29.5q46 -13 89 -20t89 -7q121 0 189 50q35 26 51 61t16 71q0 70 -59 113.5t-186 69.5l-8 2l-69 14q-75 15 -133.5 40 t-98.5 65q-73 73 -73 201q0 81 27.5 143t81.5 105q57 46 136 66.5t177 20.5q43 0 86 -4t85 -12q38 -8 79.5 -20.5t83.5 -29.5v-180q-80 46 -159 69q-40 11 -80.5 17t-86.5 6q-58 0 -104.5 -10t-77.5 -30q-62 -41 -62 -125q0 -35 11.5 -64t34.5 -47t76.5 -35.5t152.5 -36.5 l74 -14q72 -14 123 -40t85 -64q70 -77 70 -204q0 -86 -30.5 -149.5t-87.5 -108.5q-61 -48 -142.5 -71t-179.5 -23z" />
<glyph unicode="&#x164;" d="M317 1852h140l165 -178l166 178h140l-211 -266h-189zM516 1323h-469v170h1139v-170h-467v-1323h-203v1323z" />
<glyph unicode="&#x165;" d="M820 1682h198l-113 -376h-154zM807 -4q-206 0 -292 83q-85 82 -85 286v612h-299v143h299v293l184 80v-373h418v-143h-418v-612q0 -123 47 -173q46 -49 164 -49h207v-147h-225z" />
<glyph unicode="&#x166;" d="M516 577h-265v170h265v576h-469v170h1139v-170h-467v-576h265v-170h-265v-577h-203v577z" />
<glyph unicode="&#x167;" d="M807 -4q-104 0 -175.5 19.5t-116.5 63.5t-65 114t-20 172v237h-229v142h229v233h-299v143h299v303l184 70v-373h418v-143h-418v-233h229v-142h-229v-237q0 -62 11 -104.5t36 -68.5t65 -37.5t99 -11.5h207v-147h-225v0z" />
<glyph unicode="&#x168;" d="M287 1633q0 102 50.5 160.5t144.5 58.5q40 0 70.5 -11.5t68.5 -31.5l57 -30q43 -25 72 -25q31 0 51 25t20 67v6h125q-2 -49 -15 -89.5t-37 -69t-59.5 -44.5t-81.5 -16q-32 0 -63.5 9.5t-77.5 33.5l-57 33q-25 14 -40 19.5t-29 5.5q-34 0 -54 -25t-20 -70v-6h-125z M618 -29q-109 0 -196.5 31t-147.5 85q-36 33 -60 74t-38 89q-14 47 -21.5 123.5t-7.5 199.5v920h203v-1012q0 -109 6 -155q3 -21 10 -44t20.5 -44.5t33.5 -40.5t50 -33q29 -14 66.5 -21.5t79.5 -7.5q85 0 149 31t92 88q6 12 11.5 30t8.5 41q6 46 6 154v1014h202v-920 q0 -63 -1.5 -112t-5.5 -88t-9.5 -69.5t-12.5 -55.5q-16 -53 -42 -93t-59 -70t-71 -51t-77 -34q-87 -29 -189 -29z" />
<glyph unicode="&#x169;" d="M287 1257q0 65 13 117.5t37.5 89t61 56t83.5 19.5q38 0 70 -14t69 -47l57 -55q24 -23 40 -31t30 -8q17 0 31 9t23 28q17 36 19 118h125q0 -65 -13 -117.5t-37.5 -89t-61 -56t-83.5 -19.5q-38 0 -70 14t-69 47l-57 55q-21 20 -37 29.5t-33 9.5t-31 -9t-23 -28 q-19 -39 -20 -118h-124zM534 -29q-172 0 -255.5 112t-83.5 341v694h184v-694q0 -151 53.5 -222t165.5 -71q131 0 199.5 91t68.5 263v633h185v-1118h-167l-18 168q-49 -97 -133 -147t-199 -50z" />
<glyph unicode="&#x16a;" d="M317 1800h598v-148h-598v148zM618 -29q-109 0 -196.5 31t-147.5 85q-36 33 -60 74t-38 89q-14 47 -21.5 123.5t-7.5 199.5v920h203v-1012q0 -109 6 -155q3 -21 10 -44t20.5 -44.5t33.5 -40.5t50 -33q29 -14 66.5 -21.5t79.5 -7.5q85 0 149 31t92 88q6 12 11.5 30t8.5 41 q6 46 6 154v1014h202v-920q0 -63 -1.5 -112t-5.5 -88t-9.5 -69.5t-12.5 -55.5q-16 -53 -42 -93t-59 -70t-71 -51t-77 -34q-87 -29 -189 -29z" />
<glyph unicode="&#x16b;" d="M317 1466h598v-148h-598v148zM534 -29q-172 0 -255.5 112t-83.5 341v694h184v-694q0 -151 53.5 -222t165.5 -71q131 0 199.5 91t68.5 263v633h185v-1118h-167l-18 168q-49 -97 -133 -147t-199 -50z" />
<glyph unicode="&#x16e;" d="M627 1352q-58 0 -108 21.5t-87 58.5t-58.5 87.5t-21.5 107.5t21.5 107t58.5 87t87 58.5t108 21.5t108 -21.5t87 -58.5t58 -87t21 -107t-21 -107.5t-58 -87.5t-87 -58.5t-108 -21.5zM626 1475q32 0 59.5 12t48 32.5t32.5 48t12 59.5q0 31 -12 59t-32.5 48t-48 32t-59.5 12 t-59.5 -11.5t-48 -32t-32 -48t-11.5 -59.5t11.5 -60t32 -48.5t48 -32t59.5 -11.5zM618 -29q-109 0 -196.5 31t-147.5 85q-36 33 -60 74t-38 89q-14 47 -21.5 123.5t-7.5 199.5v920h203v-1012q0 -109 6 -155q3 -21 10 -44t20.5 -44.5t33.5 -40.5t50 -33q29 -14 66.5 -21.5 t79.5 -7.5q85 0 149 31t92 88q6 12 11.5 30t8.5 41q6 46 6 154v1014h202v-920q0 -63 -1.5 -112t-5.5 -88t-9.5 -69.5t-12.5 -55.5q-16 -53 -42 -93t-59 -70t-71 -51t-77 -34q-87 -29 -189 -29z" />
<glyph unicode="&#x16f;" d="M632 1204q-58 0 -108 21.5t-87 58.5t-58.5 87.5t-21.5 107.5t21.5 107t58.5 87t87 58.5t108 21.5t108 -21.5t87 -58.5t58 -87t21 -107t-21 -107.5t-58 -87.5t-87 -58.5t-108 -21.5zM631 1327q32 0 59.5 12t48 32.5t32.5 48t12 59.5q0 31 -12 59t-32.5 48t-48 32t-59.5 12 t-59.5 -11.5t-48 -32t-32 -48t-11.5 -59.5t11.5 -60t32 -48.5t48 -32t59.5 -11.5zM534 -29q-172 0 -255.5 112t-83.5 341v694h184v-694q0 -151 53.5 -222t165.5 -71q131 0 199.5 91t68.5 263v633h185v-1118h-167l-18 168q-49 -97 -133 -147t-199 -50z" />
<glyph unicode="&#x170;" d="M541 1852h186l-229 -264h-154zM860 1852h186l-229 -264h-154zM618 -29q-109 0 -196.5 31t-147.5 85q-36 33 -60 74t-38 89q-14 47 -21.5 123.5t-7.5 199.5v920h203v-1012q0 -109 6 -155q3 -21 10 -44t20.5 -44.5t33.5 -40.5t50 -33q29 -14 66.5 -21.5t79.5 -7.5 q85 0 149 31t92 88q6 12 11.5 30t8.5 41q6 46 6 154v1014h202v-920q0 -63 -1.5 -112t-5.5 -88t-9.5 -69.5t-12.5 -55.5q-16 -53 -42 -93t-59 -70t-71 -51t-77 -34q-87 -29 -189 -29z" />
<glyph unicode="&#x171;" d="M535 1644h170l-224 -376h-137zM868 1644h179l-248 -376h-135zM534 -29q-172 0 -255.5 112t-83.5 341v694h184v-694q0 -151 53.5 -222t165.5 -71q131 0 199.5 91t68.5 263v633h185v-1118h-167l-18 168q-49 -97 -133 -147t-199 -50z" />
<glyph unicode="&#x172;" d="M1085 1493v-920q0 -63 -1.5 -112t-5.5 -88t-9.5 -69.5t-12.5 -55.5q-16 -53 -42 -93t-59 -70t-71 -51t-77 -34q-32 -11 -67 -18t-73 -9q-44 -61 -62 -101t-18 -72q0 -42 28 -65t82 -23q62 0 124 30v-133q-42 -11 -74 -15.5t-69 -4.5q-112 0 -171 42.5t-59 131.5 q0 24 5 47.5t16.5 49t30.5 54t48 61.5q-86 8 -155 37.5t-119 74.5q-36 33 -60 74t-38 89q-14 47 -21.5 123.5t-7.5 199.5v920h203v-1012q0 -109 6 -155q3 -21 10 -44t20.5 -44.5t33.5 -40.5t50 -33q29 -14 66.5 -21.5t79.5 -7.5q85 0 149 31t92 88q6 12 11.5 30t8.5 41 q6 46 6 154v1014h202z" />
<glyph unicode="&#x173;" d="M1076 -272q62 0 124 30v-133q-42 -11 -74 -15.5t-69 -4.5q-112 0 -171 42.5t-59 131.5q0 25 5.5 49.5t18 50.5t33 56t51.5 65h-69v168q-49 -97 -133 -147t-199 -50q-172 0 -255.5 112t-83.5 341v694h184v-694q0 -151 53.5 -222t165.5 -71q131 0 199.5 91t68.5 263v633 h185v-1118h3q-48 -65 -68 -107.5t-20 -76.5q0 -42 28 -65t82 -23z" />
<glyph unicode="&#x174;" d="M522 1852h189l211 -266h-140l-166 178l-165 -178h-140zM0 1493h197l143 -1212l170 802h211l172 -804l143 1214h197l-223 -1493h-191l-203 887l-202 -887h-191z" />
<glyph unicode="&#x175;" d="M543 1647h147l246 -376h-139l-181 245l-180 -245h-139zM0 1120h182l195 -905l160 578h157l162 -578l195 905h182l-262 -1120h-176l-179 614l-178 -614h-176z" />
<glyph unicode="&#x176;" d="M522 1852h189l211 -266h-140l-166 178l-165 -178h-140zM514 670l-477 823h215l364 -659l363 659h217l-479 -823v-670h-203v670z" />
<glyph unicode="&#x177;" d="M555 1647h147l246 -376h-139l-181 245l-180 -245h-139zM184 -272h109q45 0 76 13.5t51 33.5q11 11 23.5 30t26.5 48.5t30.5 70t36.5 94.5l-433 1102h195l332 -876l327 876h195l-295 -760q-19 -48 -30.5 -78.5t-20 -51.5t-14 -37t-12.5 -34t-16 -43t-24 -64 q-26 -69 -46 -120.5t-35.5 -89.5t-28 -65t-24.5 -47q-44 -75 -109.5 -115.5t-165.5 -40.5h-148v154z" />
<glyph unicode="&#x178;" d="M349 1649q-30 0 -30 30v143q0 30 30 30h143q30 0 30 -30v-143q0 -30 -30 -30h-143zM741 1649q-30 0 -30 30v143q0 30 30 30h142q30 0 30 -30v-143q0 -30 -30 -30h-142zM514 670l-477 823h215l364 -659l363 659h217l-479 -823v-670h-203v670z" />
<glyph unicode="&#x179;" d="M653 1852h186l-229 -264h-154zM110 154l759 1169h-737v170h969v-154l-780 -1169h802v-170h-1013v154z" />
<glyph unicode="&#x17a;" d="M842 1649h198l-325 -376h-154zM203 170l643 805h-619v147h813v-168l-643 -804h643v-150h-837v170z" />
<glyph unicode="&#x17b;" d="M547 1647q-30 0 -30 30v145q0 30 30 30h145q30 0 30 -30v-145q0 -30 -30 -30h-145zM110 154l759 1169h-737v170h969v-154l-780 -1169h802v-170h-1013v154z" />
<glyph unicode="&#x17c;" d="M543 1322q-30 0 -30 30v144q0 30 30 30h145q30 0 30 -30v-144q0 -30 -30 -30h-145zM203 170l643 805h-619v147h813v-168l-643 -804h643v-150h-837v170z" />
<glyph unicode="&#x17d;" d="M265 1852h140l165 -178l166 178h140l-211 -266h-189zM110 154l759 1169h-737v170h969v-154l-780 -1169h802v-170h-1013v154z" />
<glyph unicode="&#x17e;" d="M297 1649h139l180 -245l181 245h139l-246 -376h-147zM203 170l643 805h-619v147h813v-168l-643 -804h643v-150h-837v170z" />
<glyph unicode="&#x192;" d="M203 -426q-26 0 -53 2.5t-53 7.5q-50 10 -97 33v164q27 -17 51 -28.5t48 -19.5q25 -8 49.5 -12t46.5 -4q53 0 91.5 20t67.5 55t50.5 90.5t35.5 135.5l117 687h-252v143h275l49 330q14 92 45 160t80 118q99 100 248 100q48 0 98 -9q48 -9 100 -27v-164q-15 12 -36 24 t-41 19q-17 6 -39.5 10t-48.5 4q-51 0 -89.5 -16.5t-66.5 -45.5q-30 -32 -48 -78t-28 -114l-45 -311h303v-143h-328l-100 -635q-20 -125 -55.5 -223t-86.5 -158q-98 -115 -288 -115z" />
<glyph unicode="&#x1a0;" d="M1171 1557q11 -42 15.5 -74t4.5 -69q0 -112 -42.5 -171t-131.5 -59q-36 0 -73 12q61 -176 61 -451q0 -390 -124 -582t-377 -192q-251 0 -374.5 190.5t-123.5 582.5t123.5 584t375.5 192q220 0 340 -144q45 -29 76.5 -41t58.5 -12q42 0 65 28t23 82q0 62 -30 124h133z M727 276q67 138 67 469q0 330 -67 470q-68 141 -222 141q-153 0 -220 -141q-68 -142 -68 -470q0 -327 68 -469q67 -141 220 -141q154 0 222 141z" />
<glyph unicode="&#x1a1;" d="M1182 1137q11 -42 15.5 -74t4.5 -69q0 -112 -42.5 -171t-131.5 -59q-15 0 -29.5 1.5t-28.5 6.5q21 -96 21 -214q0 -286 -123 -436.5t-357 -150.5q-235 0 -357 149.5t-122 437.5q0 143 31 253t92 184.5t150 113t206 38.5q143 0 244.5 -56.5t160.5 -168.5q42 -19 75 -19 q42 0 65 28t23 82q0 62 -30 124h133zM511 127q142 0 213.5 109t71.5 323q0 215 -71.5 323.5t-213.5 108.5q-141 0 -212.5 -108.5t-71.5 -323.5q0 -214 71.5 -323t212.5 -109z" />
<glyph unicode="&#x1af;" d="M1204 1561q11 -42 15.5 -74t4.5 -69q0 -112 -42.5 -171t-131.5 -59q-26 0 -51 5.5t-52 19.5v-640q0 -63 -1.5 -112t-5.5 -88t-9.5 -69.5t-12.5 -55.5q-16 -53 -42 -93t-59 -70t-71 -51t-77 -34q-87 -29 -189 -29q-109 0 -196.5 31t-147.5 85q-36 33 -60 74t-38 89 q-14 47 -21.5 123.5t-7.5 199.5v920h203v-1012q0 -109 6 -155q3 -21 10 -44t20.5 -44.5t33.5 -40.5t50 -33q29 -14 66.5 -21.5t79.5 -7.5q85 0 149 31t92 88q6 12 11.5 30t8.5 41q6 46 6 154v1014h202v-151q37 -15 66 -15q42 0 65 28t23 82q0 62 -30 124h133v0z" />
<glyph unicode="&#x1b0;" d="M1174 1137q11 -42 15.5 -74t4.5 -69q0 -112 -42.5 -171t-131.5 -59q-31 0 -60.5 8.5t-64.5 28.5v-801h-167l-18 168q-49 -97 -133 -147t-199 -50q-172 0 -255.5 112t-83.5 341v694h184v-694q0 -151 53.5 -222t165.5 -71q131 0 199.5 91t68.5 263v633h185v-189 q51 -26 88 -26q42 0 65 28t23 82q0 62 -30 124h133v0z" />
<glyph unicode="&#x1e6;" d="M401 1852h140l165 -178l166 178h140l-211 -266h-189zM700 -29q-141 0 -252 52t-188 151t-117.5 242.5t-40.5 326.5q0 184 41 328t118.5 244t189 152.5t252.5 52.5q99 0 184 -26.5t166 -80.5v-207q-81 78 -165.5 114t-180.5 36q-200 0 -297 -152.5t-97 -464.5 q0 -307 96 -455.5t296 -148.5q64 0 114 15.5t92 48.5v401h-217v166h410v-643q-81 -75 -182 -113.5t-222 -38.5z" />
<glyph unicode="&#x1e7;" d="M325 1673h139l180 -245l181 245h139l-246 -376h-147zM601 -440q-76 0 -158.5 14t-166.5 41v182q50 -23 94.5 -40t84.5 -28t77.5 -16.5t74.5 -5.5q145 0 212 82.5t67 255.5v133q-42 -91 -117 -138.5t-184 -47.5q-100 0 -180.5 41t-136.5 116t-86.5 182t-30.5 239t30 238.5 t86.5 181.5t137 116t181.5 41q103 0 178.5 -43.5t121.5 -132.5l18 145h166v-1044q0 -254 -118.5 -383t-350.5 -129zM620 145q132 0 199 108t67 316t-67 315t-200 107q-132 0 -203 -106.5t-71 -314.5q0 -209 71.5 -317t203.5 -108z" />
<glyph unicode="&#x1fe;" d="M691 1856h186l-229 -264h-154zM8 0l178 252q-16 36 -29 88t-22 116t-13.5 137t-4.5 151q0 391 123 583.5t374 192.5q232 0 347 -162l139 201l100 -74l-168 -238q42 -81 63 -209.5t21 -293.5q0 -390 -124 -581.5t-379 -191.5q-238 0 -359 162l-143 -203zM842 1190 q-24 78 -80 122t-147 44q-85 0 -136.5 -38t-83.5 -108q-37 -82 -52 -212t-15 -316q0 -76 2.5 -126.5t7.5 -84.5zM619 135q151 0 219 142q16 33 28.5 76.5t21 101t13 131.5t4.5 169q0 100 -5 168t-15 113l-514 -733q32 -81 96.5 -124.5t151.5 -43.5z" />
<glyph unicode="&#x1ff;" d="M756 1673h198l-325 -376h-154zM47 -20l170 200q-39 72 -59.5 168.5t-20.5 213.5q0 142 31 251t92 183t151 112.5t207 38.5q98 0 177 -27t139 -84l147 176l93 -77l-164 -195q42 -66 64 -162t22 -218q0 -290 -122.5 -439.5t-357.5 -149.5q-204 0 -317 119l-160 -186z M817 897q-36 50 -86.5 72t-111.5 22q-71 0 -125 -27.5t-91 -79.5t-56 -127.5t-19 -172.5q0 -57 7 -114.5t21 -129.5zM615 127q142 0 214 109.5t72 315.5q0 60 -6 115t-18 113l-463 -559q72 -94 201 -94z" />
<glyph unicode="&#x218;" d="M586 -29q-110 0 -215 22.5t-213 67.5v215q115 -73 217 -107t208 -34q153 0 237.5 67.5t84.5 202.5q0 50 -13.5 89.5t-44 70t-81 53t-123.5 39.5l-108 25q-105 24 -180 59.5t-123 84t-70.5 111t-22.5 140.5q0 101 35 183t99.5 139.5t155.5 89t202 31.5q171 0 381 -78v-205 q-185 119 -372 119q-71 0 -128 -17t-97 -49t-61.5 -80t-21.5 -109q0 -45 13 -80t43 -63t79.5 -49t122.5 -37l106 -24q106 -24 182 -62.5t125 -92.5t72 -124.5t23 -157.5q0 -215 -132 -327.5t-380 -112.5zM502 -197h239l-187 -345h-146z" />
<glyph unicode="&#x219;" d="M587 -29q-87 0 -177.5 17.5t-196.5 52.5v190q205 -106 375 -106q61 0 108.5 13t80.5 37t50 57t17 73q0 34 -13.5 62t-42.5 50.5t-76 40.5t-113 32l-8 2l-69 14q-82 16 -140 42.5t-94.5 64t-53.5 86.5t-17 111q0 163 108 250t314 87q173 0 334 -66v-180q-81 46 -159.5 69 t-168.5 23q-242 0 -242 -165q0 -35 11.5 -64t34.5 -47q26 -20 83.5 -37.5t145.5 -34.5l74 -14q138 -26 208 -103.5t70 -203.5q0 -83 -30.5 -148.5t-87.5 -111t-139.5 -69.5t-185.5 -24zM502 -197h239l-187 -345h-146z" />
<glyph unicode="&#x21a;" d="M719 0h-19q57 -63 83 -114t26 -106q0 -85 -60 -130t-180 -45q-86 0 -174 24v131q31 -17 70.5 -24.5t76.5 -7.5q66 0 97 23.5t31 66.5q0 31 -19.5 72.5t-68.5 109.5h-66v1323h-469v170h1139v-170h-467v-1323z" />
<glyph unicode="&#x21b;" d="M614 977v-612q0 -123 47 -173q46 -49 164 -49h207v-147h-194q48 -56 70 -102.5t22 -97.5q0 -85 -60 -130t-180 -45q-86 0 -174 24v131q31 -17 70.5 -24.5t76.5 -7.5q66 0 97 23.5t31 66.5q0 15 -4 31.5t-13 36.5t-24 44t-36 55q-134 15 -199 78q-85 82 -85 286v612h-299 v143h299v293l184 80v-373h418v-143h-418z" />
<glyph unicode="&#x2c6;" d="M936 1262h-139l-181 245l-180 -245h-139l246 376h147z" />
<glyph unicode="&#x2c7;" d="M436 1638l180 -245l181 245h139l-246 -376h-147l-246 376h139z" />
<glyph unicode="&#x2d8;" d="M422 1608q10 -75 59 -113q47 -37 135 -37q86 0 133 37q49 38 62 113h119q-11 -143 -90 -215q-80 -72 -224 -72t-223 72t-90 215h119v0z" />
<glyph unicode="&#x2d9;" d="M689 1552q30 0 30 -30v-144q0 -30 -30 -30h-145q-30 0 -30 30v144q0 30 30 30h145v0z" />
<glyph unicode="&#x2da;" d="M891 1524q0 -116 -79 -195q-80 -80 -196 -80q-114 0 -194 80t-80 195t80 195q79 79 194 79q117 0 196 -79t79 -195zM768 1524q0 63 -44 107t-109 44q-63 0 -106 -43q-44 -44 -44 -108t44 -108t107 -44q64 0 108 44t44 108z" />
<glyph unicode="&#x2db;" d="M647 0q-45 -62 -66 -105q-22 -43 -22 -75q0 -47 28 -69q28 -23 81 -23q34 0 63 7q16 4 31 9.5t31 13.5v-133q-38 -11 -72 -15q-17 -2 -33 -3.5t-31 -1.5q-123 0 -179 43q-58 43 -58 137q0 47 27 100q13 26 33 55t48 60h119v0z" />
<glyph unicode="&#x2dc;" d="M555 1425q-22 21 -37 30q-17 9 -31 9q-38 0 -56 -37q-19 -39 -20 -118h-124q2 135 52 208q51 74 142 74q38 0 71 -14q30 -13 69 -47l57 -55q22 -20 38 -29q16 -10 29 -10q39 0 57 37q17 36 19 118h125q-2 -135 -52 -208q-51 -74 -142 -74q-38 0 -71 14q-30 13 -69 47 l-57 55v0z" />
<glyph unicode="&#x2dd;" d="M481 1262h-137l191 376h170zM799 1262h-135l204 376h179z" />
<glyph unicode="&#x300;" horiz-adv-x="0" d="M-954 1638h198l281 -376h-154z" />
<glyph unicode="&#x301;" horiz-adv-x="0" d="M-758 1262l281 376h198l-325 -376h-154z" />
<glyph unicode="&#x303;" horiz-adv-x="0" d="M-621 1370l-57 55q-40 39 -68 39q-38 0 -56 -37q-19 -39 -20 -118h-124q1 135 52 208.5t142 73.5q39 0 71 -14t69 -47l57 -55q40 -39 67 -39q39 0 57 37q17 36 19 118h125q-1 -135 -52 -208.5t-142 -73.5q-39 0 -71 14t-69 47z" />
<glyph unicode="&#x309;" horiz-adv-x="0" d="M-647 1734q229 0 237 -170q1 -3 1 -10q0 -32 -10.5 -61t-28.5 -54.5t-41.5 -47t-49.5 -37.5v-88h-148v108q67 22 116 70q22 19 22 73q0 94 -120 94q-88 0 -154 -32v131q85 24 176 24z" />
<glyph unicode="&#x323;" horiz-adv-x="0" d="M-720 -413v204h205v-204h-205z" />
<glyph unicode="&#x384;" d="M756 1638h198l-325 -376h-154z" />
<glyph unicode="&#x385;" d="M766 1894h198l-325 -376h-154zM272 1326q-30 0 -30 30v142q0 30 30 30h143q30 0 30 -30v-142q0 -30 -30 -30h-143zM749 1326q-30 0 -30 30v142q0 30 30 30h142q30 0 30 -30v-142q0 -30 -30 -30h-142z" />
<glyph unicode="&#x386;" d="M-60 1117l281 376h198l-325 -376h-154zM37 0l457 1493h245l457 -1493h-209l-110 389h-523l-108 -389h-209zM829 551l-213 764l-213 -764h426z" />
<glyph unicode="&#x388;" d="M55 1493h198l-325 -376h-154zM328 1493h886v-170h-684v-442h654v-170h-654v-541h703v-170h-905v1493z" />
<glyph unicode="&#x389;" d="M-16 1493h198l-325 -376h-154zM257 1493h203v-612h553v612h203v-1493h-203v711h-553v-711h-203v1493z" />
<glyph unicode="&#x38a;" d="M58 1493h198l-325 -376h-154zM331 170h313v1153h-313v170h829v-170h-313v-1153h313v-170h-829v170z" />
<glyph unicode="&#x38c;" d="M676 -29q-253 0 -376 191t-123 583q0 391 123.5 583t375.5 192q253 0 376.5 -192t123.5 -583q0 -390 -123.5 -582t-376.5 -192zM103 1493h198l-325 -376h-154zM676 135q154 0 222 141q67 138 67 469q0 330 -67 470q-68 141 -222 141q-153 0 -220 -141q-68 -142 -68 -470 q0 -327 68 -469q67 -141 220 -141z" />
<glyph unicode="&#x38e;" d="M519 650q0 60 -8.5 126.5t-24 133t-36.5 128.5t-47 114t-56 90t-62 55q-13 7 -32 13.5t-40 11t-43.5 7.5t-42.5 3q-17 0 -37.5 -2t-40.5 -7v170q18 6 40 8.5t46 2.5q31 0 69.5 -3.5t71.5 -10.5q68 -14 123 -46.5t97.5 -86.5t73.5 -131.5t51 -181.5q60 204 146.5 312 t196.5 134q20 5 34.5 6t24.5 1q39 0 75.5 -12t64.5 -35t44.5 -56.5t16.5 -75.5q0 -17 -3.5 -43t-14.5 -51q-17 -38 -44.5 -52.5t-56.5 -14.5q-26 0 -50.5 9t-45 27t-35 44t-18.5 60q-38 -26 -70 -69t-58 -96.5t-45.5 -115t-33 -124.5t-20.5 -125t-7 -117v-650h-203v650z M-188 1493h198l-325 -376h-154z" />
<glyph unicode="&#x38f;" d="M90 1460h198l-325 -376h-154zM119 172h245q-60 65 -104 133t-72.5 141.5t-42.5 155.5t-14 176q0 158 37.5 284.5t106.5 215t167 135.5t218 47q121 0 219 -47.5t167 -136t106.5 -214.5t37.5 -284q0 -92 -13.5 -173t-42 -155.5t-73 -143t-105.5 -134.5h248v-172h-463v172 q58 36 105 97t80 141t51 176t18 202q0 121 -23.5 215.5t-67 159t-105 98t-138.5 33.5t-138.5 -33.5t-105 -98t-66.5 -158.5t-23 -215q0 -102 16.5 -196.5t49 -175.5t79.5 -144t109 -101v-172h-463v172z" />
<glyph unicode="&#x390;" d="M766 1892h198l-325 -376h-154zM272 1321q-30 0 -30 30v142q0 30 30 30h143q30 0 30 -30v-142q0 -30 -30 -30h-143zM749 1321q-30 0 -30 30v142q0 30 30 30h142q30 0 30 -30v-142q0 -30 -30 -30h-142zM864 -8q-180 0 -262 96q-82 99 -82 310v579h-210v143h398v-733 q0 -72 7.5 -118.5t27.5 -73.5t54.5 -37t88.5 -10h89v-156h-111z" />
<glyph unicode="&#x391;" d="M494 1493h245l457 -1493h-209l-110 389h-523l-108 -389h-209zM829 551l-213 764l-213 -764h426z" />
<glyph unicode="&#x392;" d="M166 1493h442q114 0 203 -25t150 -74t92.5 -120t31.5 -164q0 -134 -65.5 -212.5t-196.5 -98.5q73 -11 131 -42.5t98.5 -82t62.5 -118t22 -149.5q0 -201 -132 -304t-397 -103h-442v1493zM604 877q144 0 210.5 55.5t66.5 177.5q0 58 -15 99t-48.5 67.5t-86 38.5t-127.5 12 h-235v-450h235zM608 166q88 0 150 15t101 46.5t57 81.5t18 120q0 147 -78.5 215.5t-247.5 68.5h-239v-547h239z" />
<glyph unicode="&#x393;" d="M215 1493h924v-170h-721v-1323h-203v1493z" />
<glyph unicode="&#x394;" d="M494 1493h245l457 -1493h-1159zM938 170l-322 1145l-322 -1145h644z" />
<glyph unicode="&#x395;" d="M197 1493h886v-170h-684v-442h654v-170h-654v-541h703v-170h-905v1493z" />
<glyph unicode="&#x396;" d="M110 154l759 1169h-737v170h969v-154l-780 -1169h802v-170h-1013v154z" />
<glyph unicode="&#x397;" d="M137 1493h203v-612h553v612h203v-1493h-203v711h-553v-711h-203v1493z" />
<glyph unicode="&#x398;" d="M615 -29q-251 0 -374.5 190.5t-123.5 582.5t123.5 584t375.5 192q253 0 376.5 -192t123.5 -583q0 -390 -124 -582t-377 -192zM616 135q83 0 136.5 37t85.5 105q16 33 28.5 76.5t21 101t13 130t4.5 162.5t-4.5 161.5t-13.5 128.5t-21.5 100.5t-28.5 77.5 q-35 72 -88.5 106.5t-131.5 34.5q-79 0 -133 -35t-88 -107q-68 -143 -68 -469q0 -165 16.5 -280t51.5 -188q33 -70 86.5 -106t133.5 -36zM417 881h399v-170h-399v170z" />
<glyph unicode="&#x399;" d="M201 170h313v1153h-313v170h829v-170h-313v-1153h313v-170h-829v170z" />
<glyph unicode="&#x39a;" d="M137 1493h203v-664l631 664h237l-581 -610l598 -883h-244l-487 748l-154 -164v-584h-203v1493z" />
<glyph unicode="&#x39b;" d="M494 1493h245l457 -1493h-209l-371 1315l-370 -1315h-209z" />
<glyph unicode="&#x39c;" d="M87 1493h270l258 -760l260 760h271v-1493h-187v1319l-266 -787h-153l-267 787v-1319h-186v1493z" />
<glyph unicode="&#x39d;" d="M139 1493h256l504 -1229v1229h195v-1493h-256l-504 1229v-1229h-195v1493z" />
<glyph unicode="&#x39e;" d="M137 1493h959v-170h-959v170zM340 881h553v-170h-553v170zM137 170h959v-170h-959v170z" />
<glyph unicode="&#x39f;" d="M615 -29q-251 0 -374.5 190.5t-123.5 582.5t123.5 584t375.5 192q253 0 376.5 -192t123.5 -583q0 -390 -124 -582t-377 -192zM616 135q83 0 136.5 37t85.5 105q16 33 28.5 76.5t21 101t13 130t4.5 162.5t-4.5 161.5t-13.5 128.5t-21.5 100.5t-28.5 77.5 q-35 72 -88.5 106.5t-131.5 34.5q-79 0 -133 -35t-88 -107q-68 -143 -68 -469q0 -165 16.5 -280t51.5 -188q33 -70 86.5 -106t133.5 -36z" />
<glyph unicode="&#x3a0;" d="M137 1493h959v-1493h-203v1323h-553v-1323h-203v1493z" />
<glyph unicode="&#x3a1;" d="M172 1493h436q251 0 379.5 -112.5t128.5 -334.5q0 -221 -127.5 -333.5t-380.5 -112.5h-234v-600h-202v1493zM608 766q141 0 219 73.5t78 207.5t-77.5 207t-219.5 73h-234v-561h234z" />
<glyph unicode="&#x3a3;" d="M120 170l454 577l-454 576v170h1013v-170h-802l455 -576l-455 -577h802v-170h-1013v170z" />
<glyph unicode="&#x3a4;" d="M516 1323h-469v170h1139v-170h-467v-1323h-203v1323z" />
<glyph unicode="&#x3a5;" d="M504 650q0 60 -8.5 126.5t-24 133t-36.5 128.5t-47 114t-56 90t-62 55q-13 7 -32 13.5t-40 11t-43.5 7.5t-42.5 3q-17 0 -37.5 -2t-40.5 -7v170q18 6 40 8.5t46 2.5q31 0 69.5 -3.5t71.5 -10.5q68 -14 123 -46.5t97.5 -86.5t73.5 -131.5t51 -181.5q60 204 146.5 312 t196.5 134q20 5 34.5 6t24.5 1q39 0 75.5 -12t64.5 -35t44.5 -56.5t16.5 -75.5q0 -17 -3.5 -43t-14.5 -51q-17 -38 -44.5 -52.5t-56.5 -14.5q-26 0 -50.5 9t-45 27t-35 44t-18.5 60q-38 -26 -70 -69t-58 -96.5t-45.5 -115t-33 -124.5t-20.5 -125t-7 -117v-650h-203v650z" />
<glyph unicode="&#x3a6;" d="M368 170h147v116q-89 9 -162 38t-125 83.5t-81 137.5t-29 200t29 200t81.5 138t125.5 84t161 38v118h-147v170h497v-170h-147v-118q88 -9 161 -38t125.5 -84t81.5 -138t29 -200t-29 -200t-81 -137.5t-125.5 -83.5t-161.5 -38v-116h147v-170h-497v170zM515 1029 q-77 -17 -118 -58q-68 -68 -68 -226q0 -157 68 -225q41 -42 118 -58v567zM718 462q42 9 72 25t47 33q67 67 67 225q0 159 -67 226q-41 41 -119 58v-567z" />
<glyph unicode="&#x3a7;" d="M518 791l-432 702h217l328 -563l334 563h217l-447 -702l479 -791h-217l-366 643l-395 -643h-218z" />
<glyph unicode="&#x3a8;" d="M367 170h147v214q-177 32 -274 183q-123 190 -123 583v343h203v-343q0 -173 20 -286t56 -183q45 -87 118 -121v933h203v-933q73 33 119 121q75 145 75 469v343h203v-343q0 -393 -123 -583q-97 -151 -274 -183v-214h147v-170h-497v170z" />
<glyph unicode="&#x3a9;" d="M74 172h245q-122 132 -178 278q-55 143 -55 333q0 309 144 494q71 91 166.5 137t217.5 46q125 0 221 -47t166 -136q144 -183 144 -494q0 -190 -55 -333q-29 -75 -73.5 -143.5t-105.5 -134.5h248v-172h-463v172q120 76 187 241q33 81 50 176t17 201q0 116 -21.5 210 t-67.5 162q-43 63 -105 97.5t-140 34.5q-82 0 -142.5 -36t-101.5 -96q-44 -65 -66.5 -157t-22.5 -215q0 -106 17 -201t50 -176q35 -85 82 -144.5t105 -96.5v-172h-463v172z" />
<glyph unicode="&#x3aa;" d="M349 1649q-30 0 -30 30v143q0 30 30 30h143q30 0 30 -30v-143q0 -30 -30 -30h-143zM741 1649q-30 0 -30 30v143q0 30 30 30h142q30 0 30 -30v-143q0 -30 -30 -30h-142zM202 170h313v1153h-313v170h829v-170h-313v-1153h313v-170h-829v170z" />
<glyph unicode="&#x3ab;" d="M349 1649q-30 0 -30 30v143q0 30 30 30h143q30 0 30 -30v-143q0 -30 -30 -30h-143zM741 1649q-30 0 -30 30v143q0 30 30 30h142q30 0 30 -30v-143q0 -30 -30 -30h-142zM504 650q0 60 -8.5 126.5t-24 133t-36.5 128.5t-47 114t-56 90t-62 55q-13 7 -32 13.5t-40 11 t-43.5 7.5t-42.5 3q-17 0 -37.5 -2t-40.5 -7v170q18 6 40 8.5t46 2.5q31 0 69.5 -3.5t71.5 -10.5q68 -14 123 -46.5t97.5 -86.5t73.5 -131.5t51 -181.5q60 204 146.5 312t196.5 134q20 5 34.5 6t24.5 1q39 0 75.5 -12t64.5 -35t44.5 -56.5t16.5 -75.5q0 -17 -3.5 -43 t-14.5 -51q-17 -38 -44.5 -52.5t-56.5 -14.5q-26 0 -50.5 9t-45 27t-35 44t-18.5 60q-38 -26 -70 -69t-58 -96.5t-45.5 -115t-33 -124.5t-20.5 -125t-7 -117v-650h-203v650z" />
<glyph unicode="&#x3ac;" d="M756 1673h198l-325 -376h-154zM508 -25q-101 0 -182 39t-138 113t-87.5 181t-30.5 244q0 153 36.5 265t98.5 184.5t143.5 108t171.5 35.5q68 0 126 -20t103 -59.5t75.5 -99.5t44.5 -139l99 293h164l-205 -607l40 -219q4 -24 17 -49t30 -44.5t35.5 -32t34.5 -12.5h88v-156 h-110q-47 0 -86.5 17t-70 46t-50.5 68t-29 83q-23 -54 -50 -98t-64 -75.5t-87 -48.5t-117 -17zM504 127q63 0 114 53t87 160l61 181l-44 231q-12 65 -33.5 110.5t-49 74t-59.5 41.5t-65 13q-49 0 -94 -27.5t-80 -84.5q-38 -63 -57.5 -149t-19.5 -183q0 -104 21 -183 t55 -131.5t77 -79t87 -26.5z" />
<glyph unicode="&#x3ad;" d="M756 1675h198l-325 -376h-154zM693 -22q-125 0 -222 24t-164.5 68.5t-102.5 108t-35 142.5q0 59 19.5 107t56 84t88 59.5t116.5 35.5q-120 25 -184 89t-64 160q0 67 31.5 120.5t90.5 91.5t143 58.5t189 20.5q158 0 368 -48v-167q-105 27 -191 39.5t-158 12.5 q-142 0 -216 -42.5t-74 -111.5q0 -68 71.5 -111t207.5 -43h166v-144h-159q-75 0 -134 -14t-100 -40t-62.5 -62.5t-21.5 -81.5q0 -91 90 -143.5t265 -52.5q99 0 189 17.5t168 51.5v-173q-97 -28 -187 -42t-184 -14z" />
<glyph unicode="&#x3ae;" d="M756 1675h198l-325 -376h-154zM866 694q0 151 -52.5 222t-165.5 71q-131 0 -200 -91t-69 -263v-633h-184v1120h166l18 -168q49 97 133 146t199 49q172 0 256 -112t84 -341v-1120h-185v1120z" />
<glyph unicode="&#x3af;" d="M756 1648h198l-325 -376h-154zM864 -8q-94 0 -159 25.5t-103 70.5q-41 49 -61.5 128t-20.5 182v579h-210v143h398v-733q0 -72 7.5 -118.5t27.5 -73.5t54.5 -37t88.5 -10h89v-156h-111z" />
<glyph unicode="&#x3b0;" d="M766 1894h198l-325 -376h-154zM272 1326q-30 0 -30 30v142q0 30 30 30h143q30 0 30 -30v-142q0 -30 -30 -30h-143zM749 1326q-30 0 -30 30v142q0 30 30 30h142q30 0 30 -30v-142q0 -30 -30 -30h-142zM608 -6q-90 0 -155.5 23.5t-107.5 73t-62.5 126t-20.5 183.5l-1 571 h-210v143h399v-725q0 -72 7.5 -118.5t27.5 -73.5t54.5 -37t88.5 -10q75 0 130.5 40.5t94 108t60 155t29.5 180.5q1 14 1.5 27.5t0.5 27.5q0 47 -7.5 98t-25.5 104.5t-48.5 109.5t-76.5 113h186q70 -90 113.5 -209t43.5 -273q0 -75 -14.5 -151.5t-43.5 -147.5t-72 -132.5 t-101 -107.5t-130.5 -72.5t-159.5 -26.5z" />
<glyph unicode="&#x3b1;" d="M508 -25q-101 0 -182 39t-138 113t-87.5 181t-30.5 244q0 153 36.5 265t98.5 184.5t143.5 108t171.5 35.5q68 0 126 -20t103 -59.5t75.5 -99.5t44.5 -139l99 293h164l-205 -607l40 -219q4 -24 17 -49t30 -44.5t35.5 -32t34.5 -12.5h88v-156h-110q-47 0 -86.5 17t-70 46 t-50.5 68t-29 83q-23 -54 -50 -98t-64 -75.5t-87 -48.5t-117 -17zM504 127q63 0 114 53t87 160l61 181l-44 231q-12 65 -33.5 110.5t-49 74t-59.5 41.5t-65 13q-49 0 -94 -27.5t-80 -84.5q-38 -63 -57.5 -149t-19.5 -183q0 -104 21 -183t55 -131.5t77 -79t87 -26.5z" />
<glyph unicode="&#x3b2;" d="M152 1113q0 120 36 206.5t95 142.5t135 82.5t156 26.5q50 0 102 -10t100.5 -31.5t91.5 -54.5t75 -78.5t50.5 -103.5t18.5 -130q0 -53 -10.5 -106t-32 -100.5t-54 -85.5t-75.5 -61q65 -13 117.5 -50.5t89 -90.5t56.5 -118.5t20 -133.5q0 -94 -36.5 -174t-101 -138.5 t-153.5 -91.5t-194 -34q-37 0 -71.5 4.5t-70 15t-74.5 27.5t-85 43v-495h-185v1539zM337 342q20 -35 56 -65t81 -52t95.5 -34.5t100.5 -12.5q52 0 99.5 15t84 47t58 81.5t21.5 118.5q0 138 -96.5 205t-295.5 67q-21 0 -38 -0.5t-34 -1.5v170q88 -3 156 16t114 55.5 t69.5 88.5t23.5 114q0 65 -23.5 108.5t-59 70t-78.5 37.5t-82 11q-48 0 -93 -15.5t-80.5 -48.5t-57 -85t-21.5 -125v-765z" />
<glyph unicode="&#x3b3;" d="M556 0l-302 836q-45 126 -139 126h-49v158h70q194 0 259 -176l255 -685l326 861h191l-421 -1120v-426h-190v426z" />
<glyph unicode="&#x3b4;" d="M617 -29q-235 0 -357.5 149.5t-122.5 438.5q0 151 32.5 259t90.5 178q14 17 33 35.5t41 35.5q-8 3 -25 17.5t-34 31.5q-34 35 -48 72t-14 81q0 68 30 123.5t87.5 94.5t140 60.5t187.5 21.5q38 0 77 -3t64 -9l151 -36v-173q-66 24 -144 40t-159 14l-32 -1 q-35 -1 -67.5 -11t-65.5 -34l-39 -28q-27 -24 -27 -71q0 -32 15 -53.5t56 -42.5q18 -8 46 -10.5t83 -3.5q241 -7 360.5 -154t119.5 -432q0 -291 -122 -440.5t-357 -149.5zM616 127q142 0 213.5 109t71.5 323q0 215 -71.5 323.5t-213.5 108.5q-141 0 -212.5 -108.5 t-71.5 -323.5q0 -214 71.5 -323t212.5 -109z" />
<glyph unicode="&#x3b5;" d="M693 -22q-125 0 -222 24t-164.5 68.5t-102.5 108t-35 142.5q0 59 19.5 107t56 84t88 59.5t116.5 35.5q-120 25 -184 89t-64 160q0 67 31.5 120.5t90.5 91.5t143 58.5t189 20.5q158 0 368 -48v-167q-105 27 -191 39.5t-158 12.5q-142 0 -216 -42.5t-74 -111.5 q0 -68 71.5 -111t207.5 -43h166v-144h-159q-75 0 -134 -14t-100 -40t-62.5 -62.5t-21.5 -81.5q0 -91 90 -143.5t265 -52.5q99 0 189 17.5t168 51.5v-173q-97 -28 -187 -42t-184 -14z" />
<glyph unicode="&#x3b6;" d="M738 -279q26 -2 51.5 4.5t46 22t33 40t12.5 58.5q0 48 -29 81t-92 44q-30 6 -86.5 12t-124 23t-137.5 48.5t-127.5 88.5t-94 143t-36.5 212q0 117 35 234.5t106 230t178 216.5t251 192h-532v185h870v-185q-362 -195 -544.5 -390t-182.5 -396q0 -27 3 -51q10 -94 35 -160 t58.5 -110t74.5 -70t84.5 -40t87 -19t82.5 -8q141 -11 218 -79t77 -192q0 -59 -19 -111t-58 -91t-99 -61.5t-141 -22.5v151z" />
<glyph unicode="&#x3b7;" d="M866 694q0 151 -52.5 222t-165.5 71q-131 0 -200 -91t-69 -263v-633h-184v1120h166l18 -168q49 97 133 146t199 49q172 0 256 -112t84 -341v-1120h-185v1120z" />
<glyph unicode="&#x3b8;" d="M616 -29q-117 0 -206 49.5t-150 146t-92 239t-31 329.5q0 186 31 329t92 240t150 146.5t206 49.5t206.5 -49.5t150 -146.5t92 -240t31.5 -330q0 -372 -123 -567.5t-357 -195.5zM899 828q-3 113 -21.5 207.5t-53 162.5t-86.5 106t-122 38t-121.5 -38t-86 -106t-53 -162.5 t-21.5 -207.5h565zM616 129q70 0 122 38.5t87 107t53 163t21 206.5h-565q3 -112 21 -206.5t52.5 -163t86.5 -107t122 -38.5z" />
<glyph unicode="&#x3b9;" d="M864 -8q-94 0 -159 25.5t-103 70.5q-41 49 -61.5 128t-20.5 182v579h-210v143h398v-733q0 -72 7.5 -118.5t27.5 -73.5t54.5 -37t88.5 -10h89v-156h-111v0z" />
<glyph unicode="&#x3ba;" d="M186 1120h190v-465l483 465h224l-441 -422l510 -698h-225l-414 578l-137 -129v-449h-190v1120z" />
<glyph unicode="&#x3bb;" d="M559 1074l-74 198q-25 67 -75 96.5t-126 29.5h-49v158l70 -2q133 -4 219 -45t118 -128l516 -1381h-195l-314 828l-386 -828h-195z" />
<glyph unicode="&#x3bc;" d="M195 1120h184v-696q0 -143 59.5 -218t171.5 -75q128 0 192 84.5t64 251.5v653h185v-864q0 -60 16 -87.5t49 -27.5q7 0 24 5q13 4 42 18v-148q-38 -23 -72 -34t-68 -11q-125 0 -149 158q-46 -81 -112 -119.5t-156 -38.5q-93 0 -155.5 37.5t-107.5 118.5v-555h-167v1548z " />
<glyph unicode="&#x3bd;" d="M116 1120h198l289 -940q63 64 117.5 137t95 145.5t64 139t23.5 119.5q0 24 -5.5 64t-16.5 85q-8 29 -18.5 57.5t-26 59t-37.5 63.5t-52 70h186q33 -44 62 -96.5t50 -107.5t33 -109t12 -100q0 -61 -21 -126.5t-55.5 -131.5t-79.5 -130t-93.5 -122t-97 -108.5t-89.5 -88.5 h-196z" />
<glyph unicode="&#x3be;" d="M763 -279q31 -2 57.5 6t45.5 24.5t29.5 40t10.5 52.5q0 46 -29 82t-92 45q-28 4 -85 8t-126.5 15.5t-143 34.5t-133.5 65.5t-98.5 107t-38.5 160.5q0 71 23 137.5t66.5 123.5t105.5 101.5t140 71.5q-141 17 -210.5 93t-69.5 196q0 106 53.5 174.5t166.5 111.5h-208v185 h789v-185q-158 0 -275.5 -19t-196.5 -54.5t-118 -86.5t-39 -115q0 -56 30.5 -95t95 -65t164 -39.5t238.5 -16.5v-170q-147 -11 -254 -41t-176.5 -75t-103.5 -101t-34 -117q0 -53 22.5 -90.5t59 -63t83 -41.5t95 -26.5t95 -16.5t83.5 -11q82 -12 138.5 -34t91 -54.5t50 -76 t15.5 -99.5q0 -64 -19 -117.5t-58 -92.5t-99 -61t-141 -22v151z" />
<glyph unicode="&#x3bf;" d="M616 -29q-235 0 -357 149.5t-122 437.5q0 143 31 253t92 184.5t150 113t206 38.5t206.5 -38.5t150 -113t92 -184.5t31.5 -253q0 -286 -123 -436.5t-357 -150.5zM616 127q142 0 213.5 109t71.5 323q0 215 -71.5 323.5t-213.5 108.5q-141 0 -212.5 -108.5t-71.5 -323.5 q0 -214 71.5 -323t212.5 -109z" />
<glyph unicode="&#x3c0;" d="M1037 -39q-114 0 -160 66q-23 32 -34.5 90t-11.5 151v684h-428v-952h-180v952h-143v148h1073v-148h-141v-704q0 -35 5.5 -60.5t19.5 -42.5q12 -16 30 -24t45 -8q18 0 41 3q10 1 14.5 1.5t6.5 0.5h3.5t4.5 1v-133q-32 -13 -72 -19q-38 -6 -73 -6z" />
<glyph unicode="&#x3c1;" d="M180 540q0 158 31 272.5t89.5 189t142.5 110t190 35.5q116 0 203.5 -40.5t145.5 -116.5t87 -184t29 -244q0 -140 -30 -250t-86 -185.5t-136 -115.5t-180 -40q-105 0 -180.5 43t-120.5 127v-567h-185v966zM637 127q134 0 201 108.5t67 323.5t-67 323.5t-201 108.5 q-135 0 -203.5 -109t-68.5 -323t68.5 -323t203.5 -109z" />
<glyph unicode="&#x3c2;" d="M696 -279q31 -2 57 6t45 24t30 40t11 54q0 44 -27 79.5t-94 46.5q-27 4 -78.5 9.5t-113 22.5t-125.5 52t-116.5 97.5t-86 158.5t-33.5 236q0 143 37.5 255t108 188.5t171.5 116.5t229 40q88 0 164 -20.5t156 -65.5v-193q-69 62 -142 92.5t-166 30.5q-179 0 -271.5 -112.5 t-92.5 -321.5q0 -101 20 -172t52 -118.5t72 -74.5t80 -41t75.5 -18.5t59.5 -5.5q148 -10 221.5 -84t73.5 -189q0 -59 -19 -110.5t-58 -90t-99 -61t-141 -22.5v151z" />
<glyph unicode="&#x3c3;" d="M589 -29q-111 0 -198 38t-147.5 112t-92.5 182.5t-32 250.5q0 135 29.5 240.5t89.5 177.5t150 110t210 38h515v-184h-241q206 -162 206 -443q0 -114 -34 -210t-97 -165.5t-153.5 -108t-204.5 -38.5zM594 127q72 0 126 29t90.5 79t54.5 117.5t18 145.5q0 123 -43.5 215.5 t-128.5 156.5q-28 21 -59 38t-61 27q-68 0 -119.5 -19t-86.5 -62.5t-53 -115.5t-18 -178q0 -216 71.5 -324.5t208.5 -108.5z" />
<glyph unicode="&#x3c4;" d="M864 0q-90 0 -155 23.5t-107 73t-62 126.5t-20 183v530h-360v182h914v-182h-366v-541q0 -145 34 -191q36 -48 144 -48h89v-156h-111v0z" />
<glyph unicode="&#x3c5;" d="M595 0q-83 0 -145.5 23.5t-104 73t-62.5 126t-21 183.5l-1 571h-210v143h399v-725q0 -63 6.5 -108t23.5 -74.5t47 -43t77 -13.5q85 0 146.5 39.5t102 106.5t62 154.5t27.5 183.5q1 12 1.5 27t0.5 31q0 45 -7.5 95.5t-25.5 104t-48.5 109.5t-76.5 113h186 q73 -94 115 -214.5t42 -260.5q0 -77 -14 -154.5t-42 -149t-71.5 -134t-103 -108.5t-135 -72.5t-168.5 -26.5z" />
<glyph unicode="&#x3c6;" d="M525 -25q-99 0 -182 39t-142 114.5t-92 186.5t-33 255q0 142 31 242.5t84 166t122.5 101t146.5 48.5v-163q-64 -25 -114 -101q-38 -58 -57 -133.5t-19 -173.5q0 -107 21 -185.5t56 -130.5t81 -77t97 -25v687q0 152 62.5 227t175.5 75q74 0 144.5 -33.5t126 -102.5 t89.5 -175.5t34 -251.5q0 -144 -34 -254t-94 -184.5t-142.5 -112.5t-178.5 -38v-402h-183v401zM708 140q46 0 91.5 23.5t82 74.5t59 133t22.5 199q0 112 -21 186.5t-56 124.5q-31 44 -64 67t-55 23q-26 0 -42.5 -36.5t-16.5 -108.5v-686z" />
<glyph unicode="&#x3c7;" d="M524 351l-183 485q-47 126 -203 126h-49v158h70q126 0 207.5 -43t115.5 -133l143 -380l266 556h191l-373 -780l182 -482q46 -126 204 -126h49v-158h-70q-126 0 -208 43t-116 133l-142 378l-265 -554h-191z" />
<glyph unicode="&#x3c8;" d="M525 -25q-72 0 -142.5 37.5t-126.5 103.5t-90.5 157t-34.5 199v648h185v-641q0 -89 21.5 -149t62.5 -104q27 -29 59.5 -51.5t65.5 -34.5v980h183v-980q29 10 62.5 32t62.5 54q41 44 62.5 104t21.5 149v641h185v-648q0 -108 -34.5 -199t-90.5 -157t-126.5 -103.5 t-142.5 -37.5v-401h-183v401z" />
<glyph unicode="&#x3c9;" d="M369 -29q-83 0 -140.5 38.5t-92.5 111t-50.5 176t-15.5 234.5q0 87 7 161.5t22.5 144t40.5 138.5t61 145h190q-34 -77 -58 -147.5t-39 -142.5t-22 -149.5t-7 -168.5q0 -193 30 -289t95 -96q37 0 69.5 29.5t47.5 83.5q6 22 10.5 57.5t8 90.5t5 131.5t1.5 179.5h170 q0 -106 1.5 -181.5t4.5 -129t8 -88.5t12 -59q14 -53 42 -83.5t62 -30.5q22 0 41 12.5t34 32.5t26.5 45.5t18.5 52.5q3 14 6.5 33t5.5 48t3.5 71.5t1.5 103.5v32q0 287 -126 562h190q36 -76 61 -145t40.5 -138.5t22.5 -144t7 -161.5q0 -131 -15.5 -234.5t-51 -176t-92.5 -111 t-140 -38.5q-51 0 -92.5 14t-72 38.5t-51.5 57t-32 69.5q-11 -37 -32 -69.5t-52 -57t-72 -38.5t-92 -14z" />
<glyph unicode="&#x3ca;" d="M349 1321q-30 0 -30 30v142q0 30 30 30h143q30 0 30 -30v-142q0 -30 -30 -30h-143zM741 1321q-30 0 -30 30v142q0 30 30 30h142q30 0 30 -30v-142q0 -30 -30 -30h-142zM864 -8q-94 0 -159 25.5t-103 70.5q-41 49 -61.5 128t-20.5 182v579h-210v143h398v-733 q0 -72 7.5 -118.5t27.5 -73.5t54.5 -37t88.5 -10h89v-156h-111z" />
<glyph unicode="&#x3cb;" d="M349 1322q-30 0 -30 30v142q0 30 30 30h143q30 0 30 -30v-142q0 -30 -30 -30h-143zM741 1322q-30 0 -30 30v142q0 30 30 30h142q30 0 30 -30v-142q0 -30 -30 -30h-142zM595 0q-83 0 -145.5 23.5t-104 73t-62.5 126t-21 183.5l-1 571h-210v143h399v-725q0 -63 6.5 -108 t23.5 -74.5t47 -43t77 -13.5q85 0 146.5 39.5t102 106.5t62 154.5t27.5 183.5q1 12 1.5 27t0.5 31q0 45 -7.5 95.5t-25.5 104t-48.5 109.5t-76.5 113h186q73 -94 115 -214.5t42 -260.5q0 -77 -14 -154.5t-42 -149t-71.5 -134t-103 -108.5t-135 -72.5t-168.5 -26.5z" />
<glyph unicode="&#x3cc;" d="M756 1675h198l-325 -376h-154zM616 -29q-235 0 -357 149.5t-122 437.5q0 143 31 253t92 184.5t150 113t206 38.5t206.5 -38.5t150 -113t92 -184.5t31.5 -253q0 -286 -123 -436.5t-357 -150.5zM616 127q142 0 213.5 109t71.5 323q0 215 -71.5 323.5t-213.5 108.5 q-141 0 -212.5 -108.5t-71.5 -323.5q0 -214 71.5 -323t212.5 -109z" />
<glyph unicode="&#x3cd;" d="M756 1648h198l-325 -376h-154zM595 0q-83 0 -145.5 23.5t-104 73t-62.5 126t-21 183.5l-1 571h-210v143h399v-725q0 -63 6.5 -108t23.5 -74.5t47 -43t77 -13.5q85 0 146.5 39.5t102 106.5t62 154.5t27.5 183.5q1 12 1.5 27t0.5 31q0 45 -7.5 95.5t-25.5 104t-48.5 109.5 t-76.5 113h186q73 -94 115 -214.5t42 -260.5q0 -77 -14 -154.5t-42 -149t-71.5 -134t-103 -108.5t-135 -72.5t-168.5 -26.5z" />
<glyph unicode="&#x3ce;" d="M756 1648h198l-325 -376h-154zM369 -29q-83 0 -140.5 38.5t-92.5 111t-50.5 176t-15.5 234.5q0 87 7 161.5t22.5 144t40.5 138.5t61 145h190q-34 -77 -58 -147.5t-39 -142.5t-22 -149.5t-7 -168.5q0 -193 30 -289t95 -96q37 0 69.5 29.5t47.5 83.5q6 22 10.5 57.5t8 90.5 t5 131.5t1.5 179.5h170q0 -106 1.5 -181.5t4.5 -129t8 -88.5t12 -59q14 -53 42 -83.5t62 -30.5q22 0 41 12.5t34 32.5t26.5 45.5t18.5 52.5q3 14 6.5 33t5.5 48t3.5 71.5t1.5 103.5v32q0 287 -126 562h190q36 -76 61 -145t40.5 -138.5t22.5 -144t7 -161.5 q0 -131 -15.5 -234.5t-51 -176t-92.5 -111t-140 -38.5q-51 0 -92.5 14t-72 38.5t-51.5 57t-32 69.5q-11 -37 -32 -69.5t-52 -57t-72 -38.5t-92 -14z" />
<glyph unicode="&#x3f4;" d="M615 -29q-251 0 -374.5 190.5t-123.5 582.5t123.5 584t375.5 192q253 0 376.5 -192t123.5 -583q0 -390 -124 -582t-377 -192zM902 881q-6 111 -22.5 199.5t-49.5 149.5t-85 93.5t-129 32.5q-78 0 -130 -33.5t-84.5 -95t-48.5 -149.5t-22 -197h571zM617 135q76 0 130 33.5 t88.5 104t51 179.5t18.5 259h-577q1 -150 17.5 -258.5t51 -179t89 -104.5t131.5 -34z" />
<glyph unicode="&#x3f6;" d="M450 -29q-52 0 -107 5.5t-102 16.5l-79 18v167l74 -25q38 -13 90 -19.5t103 -6.5q98 0 171 24.5t122.5 70.5t78 113t38.5 152h-677v144h677q-9 84 -37.5 150.5t-78 113t-121 71.5t-165.5 25q-54 0 -106 -7.5t-95 -18.5q-15 -4 -35 -10t-39 -13v163q13 4 23 7t18.5 5 t17.5 4t20 4q57 11 108 16.5t100 5.5q136 0 244.5 -40t184 -116t115.5 -184.5t40 -246.5t-40.5 -247.5t-116 -185.5t-183.5 -116t-243 -40z" />
<glyph unicode="&#x400;" d="M377 1852h184l197 -264h-154zM197 1493h886v-170h-684v-442h654v-170h-654v-541h703v-170h-905v1493z" />
<glyph unicode="&#x401;" d="M405 1649q-30 0 -30 30v143q0 30 30 30h143q30 0 30 -30v-143q0 -30 -30 -30h-143zM797 1649q-30 0 -30 30v143q0 30 30 30h142q30 0 30 -30v-143q0 -30 -30 -30h-142zM197 1493h886v-170h-684v-442h654v-170h-654v-541h703v-170h-905v1493z" />
<glyph unicode="&#x402;" d="M658 -470h-24t-24.5 0.5t-20.5 1t-13 0.5l-3 181l78 -17q7 -1 14 -1.5t22 -0.5q67 0 114 17t76 57.5t42 108.5t13 169v416q0 154 -54 223.5t-172 69.5q-50 0 -96 -11t-90 -31q-23 -11 -38.5 -21.5t-29.5 -27.5q-33 -40 -51 -109.5t-18 -153.5v-401h-203v1325h-226v170 h874v-170h-445v-525q22 25 40.5 38.5t44.5 27.5q7 4 11.5 6t9 4.5t10.5 5.5t17 10q62 36 213 47q13 1 23.5 1.5t24.5 0.5q78 0 141.5 -21t106.5 -63q9 -8 16 -16.5t9 -12.5q85 -112 85 -340v-442q0 -143 -25.5 -241t-82.5 -159.5t-148 -88.5t-221 -27z" />
<glyph unicode="&#x403;" d="M744 1852h186l-229 -264h-154zM215 1493h924v-170h-721v-1323h-203v1493z" />
<glyph unicode="&#x404;" d="M733 -29q-144 0 -256 52t-189.5 151t-118 242.5t-40.5 326.5q0 184 41 328.5t118.5 244t189.5 152t255 52.5q176 0 330 -82v-207q-152 125 -339 125q-96 0 -163 -34t-111 -100t-68.5 -164t-36.5 -227h627v-170h-632q2 -113 26.5 -209.5t72.5 -167t120.5 -110t171.5 -39.5 q88 0 173 31.5t159 93.5v-207q-154 -82 -330 -82z" />
<glyph unicode="&#x405;" d="M586 -29q-110 0 -215 22.5t-213 67.5v215q115 -73 217 -107t208 -34q153 0 237.5 67.5t84.5 202.5q0 50 -13.5 89.5t-44 70t-81 53t-123.5 39.5l-108 25q-105 24 -180 59.5t-123 84t-70.5 111t-22.5 140.5q0 101 35 183t99.5 139.5t155.5 89t202 31.5q171 0 381 -78v-205 q-185 119 -372 119q-71 0 -128 -17t-97 -49t-61.5 -80t-21.5 -109q0 -45 13 -80t43 -63t79.5 -49t122.5 -37l106 -24q106 -24 182 -62.5t125 -92.5t72 -124.5t23 -157.5q0 -215 -132 -327.5t-380 -112.5z" />
<glyph unicode="&#x406;" d="M201 170h313v1153h-313v170h829v-170h-313v-1153h313v-170h-829v170z" />
<glyph unicode="&#x407;" d="M349 1649q-30 0 -30 30v143q0 30 30 30h143q30 0 30 -30v-143q0 -30 -30 -30h-143zM741 1649q-30 0 -30 30v143q0 30 30 30h142q30 0 30 -30v-143q0 -30 -30 -30h-142zM201 170h313v1153h-313v170h829v-170h-313v-1153h313v-170h-829v170z" />
<glyph unicode="&#x408;" d="M506 -29q-50 0 -97.5 5t-95.5 15.5t-98.5 28t-105.5 41.5v236q92 -81 187.5 -121.5t207.5 -40.5q69 0 117 17.5t77.5 58t42.5 108t13 168.5v836h-381v170h583v-1006q0 -139 -25 -237t-79.5 -160t-140 -90.5t-205.5 -28.5z" />
<glyph unicode="&#x409;" d="M0 164q71 0 117.5 16t75.5 56t43.5 108t20.5 172q3 46 4.5 109t3 136t2 151t0.5 155v426h544v-600h21q72 0 143.5 -28.5t129 -84.5t93 -139.5t35.5 -193.5t-36 -193.5t-93 -140t-128.5 -85t-143.5 -28.5h-207v1323h-172v-250v-160q0 -140 -3 -261.5t-16 -222.5 t-38 -179.5t-68 -130.5q-49 -59 -129.5 -89t-198.5 -30v164zM832 166q45 0 84 18t68.5 53t46 87t16.5 120q0 67 -16 119.5t-44.5 89t-68 55.5t-86.5 19h-21v-561h21z" />
<glyph unicode="&#x40a;" d="M44 1493h186v-612h395v612h186v-600h21q90 0 163.5 -27t126.5 -80.5t82 -133.5t29 -186q0 -121 -36 -209t-93 -145t-128.5 -84.5t-143.5 -27.5h-207v711h-395v-711h-186v1493zM832 166q45 0 84 17.5t68.5 52.5t46 87t16.5 121q0 66 -15.5 118.5t-44 89t-68 56t-87.5 19.5 h-21v-561h21z" />
<glyph unicode="&#x40b;" d="M180 1325h-216v170h864v-170h-445v-525q22 25 40.5 38.5t44.5 27.5q7 4 11.5 6t9 4.5t10.5 5.5t17 10q62 36 213 47q13 1 23.5 1.5t24.5 0.5q78 0 141.5 -21t106.5 -63q9 -8 16 -16.5t9 -12.5q85 -112 85 -340v-488h-203v462q0 154 -54 223.5t-172 69.5q-50 0 -96 -11 t-90 -31q-23 -11 -38.5 -21.5t-29.5 -27.5q-33 -40 -51 -109.5t-18 -153.5v-401h-203v1325z" />
<glyph unicode="&#x40c;" d="M699 1851h186l-229 -264h-154zM137 1493h203v-664l631 664h237l-581 -610l598 -883h-244l-487 748l-154 -164v-584h-203v1493z" />
<glyph unicode="&#x40d;" d="M377 1851h184l197 -264h-154zM139 1493h195v-1229l504 1229h256v-1493h-195v1229l-504 -1229h-256v1493z" />
<glyph unicode="&#x40e;" d="M636 1609q-290 0 -313 242h119q12 -54 61.5 -82.5t134.5 -28.5q163 0 193 111h119q-11 -120 -90 -181t-224 -61zM204 172h109q40 0 71.5 12t55.5 34.5t43 54t36 69.5q7 16 12.5 30.5l16.5 43.5l-424 1077h217l311 -830l308 830h213l-412 -1068q-30 -78 -62.5 -148 t-65.5 -121q-23 -35 -50.5 -63.5t-61.5 -49t-75.5 -32t-93.5 -11.5h-148v172z" />
<glyph unicode="&#x40f;" d="M531 0h-394v1493h203v-1323h553v1323h203v-1493h-394v-322h-171v322z" />
<glyph unicode="&#x410;" d="M494 1493h245l457 -1493h-209l-110 389h-523l-108 -389h-209zM829 551l-213 764l-213 -764h426z" />
<glyph unicode="&#x411;" d="M166 1493h902v-166h-699v-450h235q379 -15 480 -206q28 -53 40.5 -120t12.5 -132q0 -211 -130 -315t-399 -104h-442v1493zM608 166q88 0 150 15t101 46.5t57 81.5t18 120q0 147 -78.5 215.5t-247.5 68.5h-239v-547h239z" />
<glyph unicode="&#x412;" d="M166 1493h442q114 0 203 -25t150 -74t92.5 -120t31.5 -164q0 -134 -65.5 -212.5t-196.5 -98.5q73 -11 131 -42.5t98.5 -82t62.5 -118t22 -149.5q0 -201 -132 -304t-397 -103h-442v1493zM604 877q144 0 210.5 55.5t66.5 177.5q0 58 -15 99t-48.5 67.5t-86 38.5t-127.5 12 h-235v-450h235zM608 166q88 0 150 15t101 46.5t57 81.5t18 120q0 147 -78.5 215.5t-247.5 68.5h-239v-547h239z" />
<glyph unicode="&#x413;" d="M215 1493h924v-170h-721v-1323h-203v1493z" />
<glyph unicode="&#x414;" d="M33 170h77q16 0 31 38.5t28 104t23.5 151.5t18.5 181t12 193.5t4 188.5v466h852v-1323h121v-492h-170v322h-827v-322h-170v492zM876 170v1153h-446v-297q0 -75 -4 -163t-10 -176.5t-13.5 -171.5t-14 -148.5t-11.5 -106.5t-7 -46q-6 -14 -6 -22q0 -22 47 -22h465z" />
<glyph unicode="&#x415;" d="M197 1493h886v-170h-684v-442h654v-170h-654v-541h703v-170h-905v1493z" />
<glyph unicode="&#x416;" d="M319 891l-287 602h207l284 -595v595h187v-595l284 595h207l-287 -602l304 -891h-197l-222 650l-89 -186v-464h-187v464l-89 186l-222 -650h-197z" />
<glyph unicode="&#x417;" d="M553 -29q-99 0 -206 19t-210 55v201q103 -54 201 -79.5t194 -25.5q169 0 258 74.5t89 210.5q0 68 -23 122t-66 91t-104 56.5t-137 19.5h-154v166h154q140 0 217.5 60.5t77.5 176.5q0 111 -73 171.5t-214 60.5q-76 0 -171.5 -19t-203.5 -61v186q121 32 215 48t172 16 q106 0 194 -28.5t150 -81t96.5 -125.5t34.5 -163q0 -126 -68 -207.5t-200 -115.5q148 -39 225.5 -138t77.5 -251q0 -102 -35.5 -183.5t-103 -138.5t-165.5 -87t-222 -30z" />
<glyph unicode="&#x418;" d="M139 1493h195v-1229l504 1229h256v-1493h-195v1229l-504 -1229h-256v1493z" />
<glyph unicode="&#x419;" d="M616 1609q-290 0 -313 242h119q12 -54 62 -82.5t132 -28.5q165 0 195 111h119q-11 -120 -90 -181t-224 -61zM139 1493h195v-1229l504 1229h256v-1493h-195v1229l-504 -1229h-256v1493z" />
<glyph unicode="&#x41a;" d="M137 1493h203v-664l631 664h237l-581 -610l598 -883h-244l-487 748l-154 -164v-584h-203v1493z" />
<glyph unicode="&#x41b;" d="M14 164q71 0 119 16t79 56t46.5 108t21.5 172q3 46 4.5 109t3 136t2 151t0.5 155v426h814v-1493h-203v1323h-408v-250v-185q0 -128 -3 -245t-15.5 -217t-37.5 -178.5t-68 -128.5q-102 -119 -355 -119v164z" />
<glyph unicode="&#x41c;" d="M86 1493h270l258 -760l260 760h271v-1493h-187v1319l-266 -787h-153l-267 787v-1319h-186v1493z" />
<glyph unicode="&#x41d;" d="M137 1493h203v-612h553v612h203v-1493h-203v711h-553v-711h-203v1493z" />
<glyph unicode="&#x41e;" d="M615 -29q-251 0 -374.5 190.5t-123.5 582.5t123.5 584t375.5 192q253 0 376.5 -192t123.5 -583q0 -390 -124 -582t-377 -192zM616 135q154 0 222 141q67 138 67 469q0 330 -67 470q-68 141 -222 141q-153 0 -220 -141q-68 -142 -68 -470q0 -327 68 -469q67 -141 220 -141 z" />
<glyph unicode="&#x41f;" d="M137 1493h959v-1493h-203v1323h-553v-1323h-203v1493z" />
<glyph unicode="&#x420;" d="M197 1493h436q251 0 379.5 -112.5t128.5 -334.5q0 -221 -127.5 -333.5t-380.5 -112.5h-234v-600h-202v1493zM633 766q141 0 219 73.5t78 207.5t-77.5 207t-219.5 73h-234v-561h234z" />
<glyph unicode="&#x421;" d="M744 -29q-144 0 -256.5 52t-190 151t-118 242.5t-40.5 326.5q0 184 40.5 328t118.5 244t190.5 152.5t256.5 52.5q89 0 169.5 -20t158.5 -62v-207q-73 60 -156.5 92.5t-176.5 32.5q-194 0 -292 -152t-98 -459q0 -610 390 -610q91 0 175.5 32t157.5 93v-207 q-78 -42 -158.5 -62t-170.5 -20z" />
<glyph unicode="&#x422;" d="M516 1323h-469v170h1139v-170h-467v-1323h-203v1323z" />
<glyph unicode="&#x423;" d="M204 172h109q40 0 71.5 12t55.5 34.5t43 54t36 69.5q7 16 12.5 30.5l16.5 43.5l-424 1077h217l311 -830l308 830h213l-412 -1068q-30 -78 -62.5 -148t-65.5 -121q-23 -35 -50.5 -63.5t-61.5 -49t-75.5 -32t-93.5 -11.5h-148v172z" />
<glyph unicode="&#x424;" d="M515 152q-129 6 -215.5 55.5t-138.5 132t-73.5 193.5t-21.5 239q0 127 21.5 235t73 187.5t138 126t216.5 50.5v122h203v-122q135 -5 222 -53.5t137.5 -129.5t70 -190.5t19.5 -235.5q0 -134 -21 -244t-72.5 -189.5t-138 -125.5t-217.5 -51v-152h-203v152zM515 1207 q-83 -13 -130.5 -47t-71.5 -89.5t-30 -132.5t-6 -177t6 -177t30 -132t71.5 -89t130.5 -47v891zM718 316q82 13 129.5 47t71.5 89t30.5 132t6.5 177t-6.5 177t-30.5 132.5t-71.5 89.5t-129.5 47v-891z" />
<glyph unicode="&#x425;" d="M518 791l-432 702h217l328 -563l334 563h217l-447 -702l479 -791h-217l-366 643l-395 -643h-218z" />
<glyph unicode="&#x426;" d="M1023 0h-923v1493h203v-1323h553v1323h203v-1323h134v-492h-170v322z" />
<glyph unicode="&#x427;" d="M889 658q-52 -26 -95.5 -42t-84 -24.5t-80.5 -11.5t-85 -3q-55 0 -107 4.5t-97 19.5t-82.5 42t-64 71.5t-41.5 109.5t-15 156v513h203v-487q0 -84 14.5 -132.5t44.5 -73t76.5 -31t111.5 -6.5q46 0 82.5 3t71 13t70 29.5t78.5 52.5v632h203v-1493h-203v658z" />
<glyph unicode="&#x428;" d="M114 1493h186v-1323h224v1323h186v-1323h224v1323h186v-1493h-1006v1493z" />
<glyph unicode="&#x429;" d="M1063 0h-970v1493h186v-1323h224v1323h186v-1323h224v1323h186v-1323h134v-492h-170v322z" />
<glyph unicode="&#x42a;" d="M313 1323h-261v170h463v-600h138q253 0 380.5 -112.5t127.5 -333.5q0 -222 -128.5 -334.5t-379.5 -112.5h-340v1323zM653 166q142 0 219.5 73t77.5 207t-78 207.5t-219 73.5h-138v-561h138z" />
<glyph unicode="&#x42b;" d="M65 1493h202v-600h91q97 0 179.5 -28.5t143 -84.5t94.5 -139.5t34 -193.5t-34.5 -194t-95 -140t-143 -84.5t-178.5 -28.5h-293v1493zM931 1493h203v-1493h-203v1493zM358 166q51 0 95 15.5t76 49.5t50.5 87t18.5 128q0 134 -60 207.5t-180 73.5h-91v-561h91z" />
<glyph unicode="&#x42c;" d="M197 1493h202v-600h234q253 0 380.5 -112.5t127.5 -333.5q0 -222 -128.5 -334.5t-379.5 -112.5h-436v1493zM633 166q142 0 219.5 73t77.5 207t-78 207.5t-219 73.5h-234v-561h234z" />
<glyph unicode="&#x42d;" d="M499 -29q-176 0 -330 82v207q75 -63 161 -94t171 -31q98 0 170 38.5t120 108t73 166.5t28 213h-632v170h627q-15 138 -41 237.5t-69.5 163t-108.5 94t-158 30.5q-97 0 -181 -31t-160 -94v207q154 82 330 82q142 0 254.5 -52.5t190 -152t118.5 -244t41 -328.5 q0 -183 -40.5 -326.5t-118 -242.5t-189.5 -151t-256 -52z" />
<glyph unicode="&#x42e;" d="M792 -29q-100 0 -172.5 45.5t-121 133.5t-74 217.5t-30.5 298.5h-111v-666h-203v1493h203v-657h111q5 162 30 289t73.5 214.5t121.5 134t174 46.5q202 0 301 -192t99 -583t-99.5 -582.5t-301.5 -191.5zM794 135q55 0 92 35t61 106q24 70 36 184t12 285t-12 285t-36 185 q-23 69 -60 105t-94 36q-107 0 -154 -141q-48 -141 -48 -470q0 -328 48 -469q47 -141 155 -141z" />
<glyph unicode="&#x42f;" d="M415 666q-54 20 -105.5 50.5t-91.5 77.5t-64.5 113.5t-24.5 157.5q0 103 33 182.5t97.5 134t159.5 83t218 28.5h466v-1493h-203v631h-290l-350 -631h-214zM900 797v530h-263q-144 0 -219.5 -67.5t-75.5 -203.5q0 -259 287 -259h271z" />
<glyph unicode="&#x430;" d="M513 -29q-174 0 -275 97q-48 46 -75 108.5t-27 150.5q0 185 126 283q124 97 368 97h247v29q0 64 -17 114t-51 81q-33 30 -87 45t-126 15q-95 0 -191 -27q-97 -27 -187 -79v184q42 16 93 32t103 27q91 19 183 19q71 0 129 -10.5t108 -31.5q46 -20 87.5 -50.5t70.5 -70.5 q21 -29 34 -61t20 -63q16 -73 16 -221v-229q2 -58 3 -102t6 -82q5 -42 11.5 -79t11.5 -56q7 -31 16 -58.5t11 -32.5h-185q-5 12 -12.5 35.5t-14.5 51.5q-5 22 -9.5 44.5t-6.5 38.5q-29 -50 -74.5 -89t-89.5 -62q-48 -25 -101.5 -36.5t-114.5 -11.5zM551 125q151 0 238 106 q88 108 88 291v41h-233q-160 0 -242 -56q-43 -29 -62.5 -71.5t-19.5 -98.5q0 -52 16 -90.5t45 -65.5q29 -26 70.5 -41t99.5 -15z" />
<glyph unicode="&#x431;" d="M617 -29q-116 0 -205.5 37.5t-150.5 109.5t-92.5 176.5t-31.5 237.5q0 28 0.5 39.5t0.5 22.5v11.5t-1 15.5l-7 167q-2 56 -3.5 100.5t-1.5 65.5q0 14 0.5 28t1.5 22q8 71 29 143.5t58 137.5t92.5 120t133.5 92q86 41 189 54.5t224 21.5q26 2 44 4.5t42 13.5l70 -142 q-19 -8 -40.5 -12t-45.5 -6l-240 -24q-44 -5 -86 -17t-86 -35q-45 -24 -83 -56t-66.5 -68t-46 -73.5t-22.5 -73.5l-8 -60q63 65 150.5 94t184.5 29q115 0 203.5 -38t149 -112.5t92 -184.5t31.5 -254q0 -143 -31.5 -252.5t-92 -184t-150 -112.5t-205.5 -38zM618 127 q283 0 283 432t-284 432q-285 0 -285 -430q0 -215 71 -324.5t215 -109.5z" />
<glyph unicode="&#x432;" d="M239 1120h397q76 0 143.5 -17t118 -52.5t79.5 -88.5t29 -125q0 -44 -12 -84.5t-36 -72.5t-60.5 -53t-85.5 -27q67 -12 113 -35.5t74.5 -58t41.5 -79t13 -98.5q0 -162 -103.5 -245.5t-298.5 -83.5h-413v1120zM651 665q85 0 127 42.5t42 109.5t-42 110t-128 43h-227v-305 h228zM662 150q48 0 84.5 14.5t61 41t37.5 62.5t13 79q0 37 -10.5 68t-33 53.5t-59.5 34.5t-89 12h-243v-365h239z" />
<glyph unicode="&#x433;" d="M307 1120h752v-150h-568v-970h-184v1120z" />
<glyph unicode="&#x434;" d="M105 150h67q18 0 31.5 32t23.5 82.5t16 113t9.5 124t5 115.5t1.5 87v416h748v-970h121v-436h-150v286h-723v-286h-150v436zM822 150v820h-380v-270q0 -30 -4.5 -119.5t-14.5 -227.5q-5 -73 -8.5 -111.5t-7.5 -48.5q-7 -18 -7 -27q0 -8 6 -12t28 -4h388z" />
<glyph unicode="&#x435;" d="M677 -29q-130 0 -232.5 40.5t-174 116.5t-109 184t-37.5 243t37.5 244.5t106 187t164.5 119t213 41.5q111 0 198 -37.5t147 -107.5t91.5 -170t31.5 -226v-90h-797v-6q0 -92 24.5 -163t71 -120t114.5 -74.5t154 -25.5q90 0 185.5 28t204.5 85v-183q-106 -43 -202.5 -64.5 t-190.5 -21.5zM929 660q-3 157 -74.5 244t-207.5 87t-221.5 -86.5t-102.5 -245.5z" />
<glyph unicode="&#x436;" d="M318 716l-239 404h199l255 -432v432h168v-432l255 432h199l-239 -404l259 -716h-179l-191 528l-104 -177v-351h-168v351l-104 177l-191 -528h-179z" />
<glyph unicode="&#x437;" d="M539 -22q-90 0 -178.5 13.5t-191.5 42.5v173q76 -34 167 -51.5t190 -17.5q175 0 265 52.5t90 143.5q0 45 -22 81.5t-63 62.5t-100 40t-134 14h-158v144h165q137 0 208.5 43t71.5 111q0 69 -74.5 111.5t-216.5 42.5q-71 0 -157 -12.5t-191 -39.5v167q210 48 367 48 q105 0 189 -20.5t143.5 -58.5t91 -91.5t31.5 -120.5q0 -96 -64.5 -160t-184.5 -89q64 -12 116 -35.5t89 -59.5t56.5 -84t19.5 -107q0 -79 -35.5 -142.5t-102.5 -108t-165 -68.5t-222 -24z" />
<glyph unicode="&#x438;" d="M195 1120h184v-809l487 809h184v-1120h-184v809l-487 -809h-184v1120z" />
<glyph unicode="&#x439;" d="M616 1272q-290 0 -313 287h119q11 -72 56.5 -111t136.5 -39q86 0 134 37t62 113h119q-23 -287 -314 -287zM195 1120h184v-809l487 809h184v-1120h-184v809l-487 -809h-184v1120z" />
<glyph unicode="&#x43a;" d="M236 1120h190v-465l483 465h224l-441 -422l510 -698h-225l-414 578l-137 -129v-449h-190v1120z" />
<glyph unicode="&#x43b;" d="M50 150h35q45 0 78 14.5t56 46t36.5 80.5t19.5 117q2 26 4 61.5t3.5 77t2 86.5t0.5 89v398h785v-1120h-184v970h-417v-245q0 -80 -1.5 -164.5t-11 -165t-30.5 -152.5t-59 -126q-41 -58 -102.5 -87.5t-159.5 -29.5h-55v150z" />
<glyph unicode="&#x43c;" d="M61 1120h184l375 -691l375 691h184v-1120h-184v741l-283 -481h-184l-283 481v-741h-184v1120z" />
<glyph unicode="&#x43d;" d="M189 1120h184v-455h487v455h184v-1120h-184v515h-487v-515h-184v1120z" />
<glyph unicode="&#x43e;" d="M616 -29q-235 0 -357 149.5t-122 437.5q0 143 31 253t92 184.5t150 113t206 38.5t206.5 -38.5t150 -113t92 -184.5t31.5 -253q0 -286 -123 -436.5t-357 -150.5zM616 127q142 0 213.5 109t71.5 323q0 215 -71.5 323.5t-213.5 108.5q-141 0 -212.5 -108.5t-71.5 -323.5 q0 -214 71.5 -323t212.5 -109z" />
<glyph unicode="&#x43f;" d="M189 1120h855v-1120h-184v970h-487v-970h-184v1120z" />
<glyph unicode="&#x440;" d="M190 1120h167l18 -143q48 86 124.5 128t177.5 42q100 0 179.5 -40.5t135.5 -116.5t86 -185t30 -247t-30 -246.5t-86 -184.5t-136 -116t-180 -40q-105 0 -180.5 43t-120.5 127v-567h-185v1546zM647 127q134 0 201 108.5t67 323.5t-67 323.5t-201 108.5q-135 0 -203.5 -109 t-68.5 -323t68.5 -323t203.5 -109z" />
<glyph unicode="&#x441;" d="M701 -29q-126 0 -227 40t-172 116t-109 185t-38 247t38 247t109 185t172 116t228 40q84 0 160 -20t159 -66v-193q-71 64 -145 93.5t-163 29.5q-179 0 -271.5 -112t-92.5 -319q0 -209 93 -321t272 -112q88 0 164.5 29t142.5 92v-191q-81 -46 -158 -66t-162 -20z" />
<glyph unicode="&#x442;" d="M525 970h-311v150h806v-150h-311v-970h-184v970z" />
<glyph unicode="&#x443;" d="M194 -272h109q45 0 76 13.5t51 33.5q11 11 23.5 30t26.5 48.5t30.5 70t36.5 94.5l-433 1102h195l332 -876l327 876h195l-295 -760q-19 -48 -30.5 -78.5t-20 -51.5t-14 -37t-12.5 -34t-16 -43t-24 -64q-26 -69 -46 -120.5t-35.5 -89.5t-28 -65t-24.5 -47 q-44 -75 -109.5 -115.5t-165.5 -40.5h-148v154z" />
<glyph unicode="&#x444;" d="M525 -29q-110 11 -189.5 48t-131 107t-76 177t-24.5 257q0 149 24 255t75.5 176.5t131 107.5t190.5 48v409h184v-409q111 -11 190.5 -48t131 -107.5t75.5 -176.5t24 -255q0 -150 -24.5 -257t-76 -177t-131 -107t-189.5 -48v-397h-184v397zM525 982q-60 -12 -103 -34 t-70 -67.5t-40 -122t-13 -199.5t13 -201t40 -125.5t70 -70.5t103 -35v855zM709 127q60 12 103 35t70 70.5t40 125.5t13 201t-13 199.5t-40 122t-70 67.5t-103 34v-855z" />
<glyph unicode="&#x445;" d="M516 584l-401 536h204l297 -405l295 405h207l-401 -536l440 -584h-213l-328 449l-327 -449h-213z" />
<glyph unicode="&#x446;" d="M1028 0h-844v1120h184v-970h486v970h184v-970h140v-436h-150v286z" />
<glyph unicode="&#x447;" d="M837 466q-8 -3 -33 -13.5t-64.5 -21.5t-92.5 -20t-116 -9q-84 0 -152 19.5t-115.5 62t-73 109.5t-25.5 162v367h184v-367q0 -65 19.5 -103t53 -58t77 -26t91.5 -6q69 0 127 11.5t120 47.5v501h184v-1122h-184v466z" />
<glyph unicode="&#x448;" d="M125 1120h168v-970h240v970h168v-970h240v970h168v-1120h-984v1120z" />
<glyph unicode="&#x449;" d="M1083 0h-978v1120h168v-970h240v970h168v-970h240v970h168v-970h144v-436h-150v286z" />
<glyph unicode="&#x44a;" d="M308 970h-248v150h432v-453h256q105 0 187.5 -20.5t140 -62.5t88 -105t30.5 -148q0 -167 -116 -249t-330 -82h-440v970zM740 156q124 0 191 43.5t67 133.5q0 91 -68 136t-190 45h-248v-358h248z" />
<glyph unicode="&#x44b;" d="M104 1120h182v-453h91q105 0 187.5 -20.5t140 -62.5t88 -105t30.5 -148q0 -167 -116 -249t-330 -82h-273v1120zM945 1120h184v-1120h-184v1120zM369 154q124 0 191 44t67 135q0 92 -68 137.5t-190 45.5h-83v-362h83z" />
<glyph unicode="&#x44c;" d="M225 1120h184v-453h256q104 0 186.5 -20.5t140 -62.5t88 -105.5t30.5 -148.5q0 -166 -115.5 -248t-329.5 -82h-440v1120zM657 153q257 0 257 180q0 94 -64.5 137.5t-192.5 43.5h-248v-361h248z" />
<glyph unicode="&#x44d;" d="M545 -29q-85 0 -162 20t-158 66v191q62 -60 138 -90.5t170 -30.5q90 0 156 28t110.5 79t68 123t28.5 159h-542v144h537q-9 66 -32 126t-65 105.5t-106 72.5t-154 27q-91 0 -165 -30t-144 -93v193q82 46 158.5 66t160.5 20q127 0 228 -40t172 -116t109 -185t38 -247 t-38 -247t-109 -185t-172 -116t-227 -40z" />
<glyph unicode="&#x44e;" d="M828 -29q-78 0 -145 35.5t-117 101.5t-82 161t-40 215h-142v-484h-184v1120h184v-486h142q8 127 40 223t82 160.5t115.5 97t142.5 32.5q80 0 150 -36t122 -109t82 -184t30 -260q0 -153 -31 -263.5t-83.5 -182.5t-121.5 -106.5t-144 -34.5zM689 243q27 -59 62.5 -88 t73.5 -29q39 0 75.5 31.5t62.5 94.5q23 57 36.5 139t13.5 183q0 198 -56 308q-26 53 -60 80.5t-70 27.5q-38 0 -72.5 -30.5t-62.5 -91.5q-27 -60 -41.5 -139.5t-14.5 -177.5t14 -176t39 -132z" />
<glyph unicode="&#x44f;" d="M450 479q-25 10 -63 30t-73.5 56t-61 91.5t-25.5 138.5q0 86 29.5 147.5t80.5 101t118 58t142 18.5h397v-1120h-184v455h-193l-258 -455h-181zM810 605v365h-227q-28 0 -58 -10.5t-55 -32.5t-41 -57t-16 -83t16 -82.5t41 -56.5t55 -32.5t57 -10.5h228z" />
<glyph unicode="&#x450;" d="M250 1673h198l281 -376h-154zM677 -29q-130 0 -232.5 40.5t-174 116.5t-109 184t-37.5 243t37.5 244.5t106 187t164.5 119t213 41.5q111 0 198 -37.5t147 -107.5t91.5 -170t31.5 -226v-90h-797v-6q0 -92 24.5 -163t71 -120t114.5 -74.5t154 -25.5q90 0 185.5 28t204.5 85 v-183q-106 -43 -202.5 -64.5t-190.5 -21.5zM929 660q-3 157 -74.5 244t-207.5 87t-221.5 -86.5t-102.5 -245.5z" />
<glyph unicode="&#x451;" d="M385 1347q-30 0 -30 30v142q0 30 30 30h143q30 0 30 -30v-142q0 -30 -30 -30h-143zM777 1347q-30 0 -30 30v142q0 30 30 30h142q30 0 30 -30v-142q0 -30 -30 -30h-142zM677 -29q-130 0 -232.5 40.5t-174 116.5t-109 184t-37.5 243t37.5 244.5t106 187t164.5 119t213 41.5 q111 0 198 -37.5t147 -107.5t91.5 -170t31.5 -226v-90h-797v-6q0 -92 24.5 -163t71 -120t114.5 -74.5t154 -25.5q90 0 185.5 28t204.5 85v-183q-106 -43 -202.5 -64.5t-190.5 -21.5zM929 660q-3 157 -74.5 244t-207.5 87t-221.5 -86.5t-102.5 -245.5z" />
<glyph unicode="&#x452;" d="M661 -261q60 11 113.5 53t93.5 113.5t63.5 171.5t23.5 227q0 76 -10.5 134t-36 97.5t-68.5 59.5t-109 20q-144 0 -213 -91t-69 -263v-261h-184v977h-190v143h190v436h184v-436h448v-143h-448v-397q49 97 133 146t206 49q186 0 273 -119t87 -360q0 -146 -31 -269 t-92 -216.5t-152 -154t-212 -82.5v165z" />
<glyph unicode="&#x453;" d="M887 1645h198l-325 -376h-154zM307 1120h752v-150h-568v-970h-184v1120z" />
<glyph unicode="&#x454;" d="M711 -29q-126 0 -227 40t-172 116t-109 185t-38 247t38 247t109 185t172 116t228 40q84 0 160 -20t159 -66v-193q-68 61 -141 92t-168 31q-91 0 -154.5 -27t-105.5 -72.5t-65 -105.5t-32 -127l537 1v-144h-542q5 -87 28.5 -159t68 -123t110.5 -79t156 -28q94 0 170 30.5 t138 90.5v-191q-81 -46 -158 -66t-162 -20z" />
<glyph unicode="&#x455;" d="M587 -29q-87 0 -177.5 17.5t-196.5 52.5v190q205 -106 375 -106q61 0 108.5 13t80.5 37t50 57t17 73q0 34 -13.5 62t-42.5 50.5t-76 40.5t-113 32l-8 2l-69 14q-82 16 -140 42.5t-94.5 64t-53.5 86.5t-17 111q0 163 108 250t314 87q173 0 334 -66v-180q-81 46 -159.5 69 t-168.5 23q-242 0 -242 -165q0 -35 11.5 -64t34.5 -47q26 -20 83.5 -37.5t145.5 -34.5l74 -14q138 -26 208 -103.5t70 -203.5q0 -83 -30.5 -148.5t-87.5 -111t-139.5 -69.5t-185.5 -24z" />
<glyph unicode="&#x456;" d="M495 1323q-32 0 -32 30v173q0 30 32 30h130q32 0 32 -30v-173q0 -30 -32 -30h-130zM657 398q0 -125 46 -187q24 -33 57.5 -48t76.5 -15h215v-156h-233q-80 0 -143.5 25t-111.5 81q-91 106 -91 300v578h-245v144h429v-722z" />
<glyph unicode="&#x457;" d="M258 1321q-30 0 -30 30v142q0 30 30 30h143q30 0 30 -30v-142q0 -30 -30 -30h-143zM650 1321q-30 0 -30 30v142q0 30 30 30h142q30 0 30 -30v-142q0 -30 -30 -30h-142zM657 398q0 -125 46 -187q24 -33 57.5 -48t76.5 -15h215v-156h-233q-80 0 -143.5 25t-111.5 81 q-91 106 -91 300v578h-245v144h429v-722z" />
<glyph unicode="&#x458;" d="M674 1323q-32 0 -32 30v173q0 30 32 30h130q32 0 32 -30v-173q0 -30 -32 -30h-130zM238 -270h234q180 0 180 250v997h-317v143h501v-1140q0 -196 -89 -301t-255 -105h-254v156z" />
<glyph unicode="&#x459;" d="M16 150h35q45 0 78 14.5t56 46t36.5 80.5t19.5 117q2 26 4 61.5t3.5 77t2 86.5t0.5 89v398h565v-453h21q79 0 151 -20.5t126.5 -62.5t86.5 -105t32 -148q0 -83 -31 -145.5t-85 -103.5t-126 -61.5t-154 -20.5h-189v970h-229v-245v-69q0 -59 -2.5 -132.5t-13.5 -149 t-33 -146.5t-60 -123q-17 -23 -38 -42t-51 -33t-70.5 -22t-95.5 -8h-39v150zM829 153q208 0 208 181q0 180 -208 180h-13v-361h13z" />
<glyph unicode="&#x45a;" d="M106 1120h168v-455h364v455h168v-453h21q79 0 151 -20.5t126.5 -62.5t86.5 -105t32 -148q0 -83 -31 -145.5t-85 -103.5t-126 -61.5t-154 -20.5h-189v515h-364v-515h-168v1120zM819 153q208 0 208 181q0 180 -208 180h-13v-361h13z" />
<glyph unicode="&#x45b;" d="M255 977h-190v143h190v436h184v-436h448v-143h-448v-397q49 97 133 146t199 49q172 0 256 -112t84 -341v-322h-185v322q0 151 -52.5 222t-165.5 71q-131 0 -200 -91t-69 -263v-261h-184v977z" />
<glyph unicode="&#x45c;" d="M804 1647h198l-325 -376h-154zM236 1120h190v-465l483 465h224l-441 -422l510 -698h-225l-414 578l-137 -129v-449h-190v1120z" />
<glyph unicode="&#x45d;" d="M343 1647h198l281 -376h-154zM195 1120h184v-809l487 809h184v-1120h-184v809l-487 -809h-184v1120z" />
<glyph unicode="&#x45e;" d="M626 1270q-290 0 -313 287h119q11 -72 56.5 -111t136.5 -39q86 0 134 37t62 113h119q-23 -287 -314 -287zM194 -272h109q45 0 76 13.5t51 33.5q11 11 23.5 30t26.5 48.5t30.5 70t36.5 94.5l-433 1102h195l332 -876l327 876h195l-295 -760q-19 -48 -30.5 -78.5t-20 -51.5 t-14 -37t-12.5 -34t-16 -43t-24 -64q-26 -69 -46 -120.5t-35.5 -89.5t-28 -65t-24.5 -47q-44 -75 -109.5 -115.5t-165.5 -40.5h-148v154z" />
<glyph unicode="&#x45f;" d="M541 0h-352v1120h184v-970h487v970h184v-1120h-352v-286h-151v286z" />
<glyph unicode="&#x462;" d="M293 1105h-261v164h261v224h202v-224h369v-164h-369v-212h138q253 0 380.5 -112.5t127.5 -333.5q0 -222 -128.5 -334.5t-379.5 -112.5h-340v1105zM633 166q142 0 219.5 73t77.5 207t-78 207.5t-219 73.5h-138v-561h138z" />
<glyph unicode="&#x463;" d="M298 973h-248v147h248v436h184v-436h425v-147h-425v-306h256q105 0 187.5 -20.5t140 -62.5t88 -105t30.5 -148q0 -167 -116 -249t-330 -82h-440v973zM730 156q124 0 191 43.5t67 133.5q0 91 -68 136t-190 45h-248v-358h248z" />
<glyph unicode="&#x472;" d="M615 -29q-251 0 -374.5 190.5t-123.5 582.5t123.5 584t375.5 192q253 0 376.5 -192t123.5 -583q0 -390 -124 -582t-377 -192zM904 828q-4 132 -21 231t-50.5 165t-86.5 99t-130 33t-129.5 -33t-86.5 -99t-50.5 -165t-20.5 -231h575zM617 135q75 0 127.5 31.5t86.5 95.5 t50.5 159t21.5 223h-573q4 -122 20.5 -217t49.5 -160t86 -98.5t131 -33.5z" />
<glyph unicode="&#x473;" d="M616 -29q-233 0 -356 150.5t-123 438.5q0 284 123 436q60 73 147 112t208 39q235 0 358 -151t123 -437q0 -288 -122.5 -438t-357.5 -150zM900 611q-4 88 -22.5 158.5t-53 119.5t-86.5 75.5t-122 26.5t-121.5 -26.5t-86 -75.5t-53 -119.5t-22.5 -158.5h567zM616 127 q70 0 120 25t83 68.5t51 102t25 124.5h-557q7 -66 25 -124.5t51 -102t82.5 -68.5t119.5 -25z" />
<glyph unicode="&#x490;" d="M215 1493h754l3 306h167v-476h-721v-1323h-203v1493z" />
<glyph unicode="&#x491;" d="M317 1120h568v314h185l-1 -498h-568v-936h-184v1120z" />
<glyph unicode="&#x492;" d="M225 830h-130v170h130v493h924v-170h-721v-323h547v-170h-547v-830h-203v830z" />
<glyph unicode="&#x493;" d="M317 500h-130v170h130v450h752v-184h-568v-266h416v-170h-416v-500h-184v500z" />
<glyph unicode="&#x494;" d="M589 -240h62q67 0 113.5 17.5t76 57.5t42.5 106t13 163v290q0 317 -248 317h-270v-711h-203v1493h924v-170h-721v-442h311q188 0 299 -119q57 -61 84 -146.5t27 -205.5v-306q0 -134 -25 -231t-78 -160t-135 -93t-196 -30h-76v170z" />
<glyph unicode="&#x495;" d="M539 -270h172q55 0 90 11.5t55.5 40t28 76.5t7.5 122v264q0 85 -9.5 133.5t-34 73t-67.5 30.5t-110 6h-260v-487h-184v1120h752v-184h-568v-305h250q130 0 211.5 -16.5t126.5 -59.5t61 -117t16 -188v-270q0 -107 -20 -183.5t-62 -126t-107 -73t-155 -23.5h-193v156z" />
<glyph unicode="&#x496;" d="M1048 0h-27l-222 650l-89 -186v-464h-187v464l-89 186l-222 -650h-197l304 891l-287 602h207l284 -595v595h187v-595l284 595h207l-287 -602l246 -721h58v-492h-170v322z" />
<glyph unicode="&#x497;" d="M1048 0h-52l-191 528l-104 -177v-351h-168v351l-104 177l-191 -528h-179l259 716l-239 404h199l255 -432v432h168v-432l255 432h199l-239 -404l205 -566h77v-436h-150v286z" />
<glyph unicode="&#x498;" d="M1079 410q0 -92 -29 -167.5t-84 -131t-135 -90t-183 -45.5q45 -54 66.5 -100t21.5 -96q0 -85 -60 -130t-180 -45q-86 0 -174 24v131q31 -17 70.5 -24.5t76.5 -7.5q66 0 97 23.5t31 66.5q0 28 -15 63t-53 90q-94 2 -194.5 21t-197.5 53v201q103 -54 201 -79.5t194 -25.5 q169 0 258 74.5t89 210.5q0 68 -23 122t-66 91t-104 56.5t-137 19.5h-154v166h154q140 0 217.5 60.5t77.5 176.5q0 111 -73 171.5t-214 60.5q-76 0 -171.5 -19t-203.5 -61v186q121 32 215 48t172 16q106 0 194 -28.5t150 -81t96.5 -125.5t34.5 -163q0 -126 -68 -207.5 t-200 -115.5q148 -39 225.5 -138t77.5 -251z" />
<glyph unicode="&#x499;" d="M1064 321q0 -70 -27.5 -127.5t-81 -101t-131 -71.5t-176.5 -38q48 -57 71 -104.5t23 -98.5q0 -85 -60 -130t-180 -45q-86 0 -174 24v131q31 -17 70.5 -24.5t76.5 -7.5q66 0 97 23.5t31 66.5q0 29 -15.5 65.5t-56.5 94.5q-87 1 -174.5 14t-187.5 42v173q76 -34 167 -51.5 t190 -17.5q175 0 265 52.5t90 143.5q0 45 -22 81.5t-63 62.5t-100 40t-134 14h-158v144h165q137 0 208.5 43t71.5 111q0 69 -74.5 111.5t-216.5 42.5q-71 0 -157 -12.5t-191 -39.5v167q210 48 367 48q105 0 189 -20.5t143.5 -58.5t91 -91.5t31.5 -120.5q0 -96 -64.5 -160 t-184.5 -89q64 -12 116 -35.5t89 -59.5t56.5 -84t19.5 -107z" />
<glyph unicode="&#x49a;" d="M1012 0h-31l-487 748l-154 -164v-584h-203v1493h203v-664l631 664h237l-581 -610l483 -713h114v-492h-212v322z" />
<glyph unicode="&#x49b;" d="M986 0h-29l-414 578l-137 -129v-449h-190v1120h190v-465l483 465h224l-441 -422l376 -514h134v-470h-196v286z" />
<glyph unicode="&#x4a2;" d="M1020 0h-203v711h-553v-711h-203v1493h203v-612h553v612h203v-1323h213v-492h-213v322z" />
<glyph unicode="&#x4a3;" d="M1038 0h-184v505h-487v-505h-184v1120h184v-445h487v445h184v-936h195v-470h-195v286z" />
<glyph unicode="&#x4a4;" d="M213 1493h186v-612h364v612h470v-170h-284v-1323h-186v711h-364v-711h-186v1493z" />
<glyph unicode="&#x4a5;" d="M185 1120h168v-455h410v455h470v-150h-302v-970h-168v515h-410v-515h-168v1120z" />
<glyph unicode="&#x4aa;" d="M740 1356q-194 0 -292 -152t-98 -459q0 -610 390 -610q91 0 175.5 32t157.5 93v-207q-120 -65 -251 -78q45 -54 66 -99.5t21 -95.5q0 -85 -60 -130t-180 -45q-86 0 -174 24v131q31 -17 70.5 -24.5t76.5 -7.5q66 0 97 23.5t31 66.5q0 29 -15 64t-53 90q-134 7 -239 62.5 t-177 154t-109.5 238t-37.5 316.5q0 184 40.5 328t118.5 244t190.5 152.5t256.5 52.5q89 0 169.5 -20t158.5 -62v-207q-73 60 -156.5 92.5t-176.5 32.5z" />
<glyph unicode="&#x4ab;" d="M723 991q-179 0 -271.5 -112t-92.5 -319q0 -209 93 -321t272 -112q88 0 164.5 29t142.5 92v-191q-60 -35 -118 -54t-118 -27q45 -54 66.5 -100t21.5 -96q0 -85 -60 -130t-180 -45q-86 0 -174 24v131q31 -17 70.5 -24.5t76.5 -7.5q66 0 97 23.5t31 66.5q0 28 -15 63 t-53 91q-119 6 -213.5 48.5t-160.5 117.5t-101.5 181.5t-35.5 239.5q0 138 38 247t109 185t172 116t228 40q84 0 160 -20t159 -66v-193q-71 64 -145 93.5t-163 29.5z" />
<glyph unicode="&#x4ac;" d="M719 0h-203v1323h-469v170h1139v-170h-467v-1153h213v-492h-213v322z" />
<glyph unicode="&#x4ad;" d="M709 0h-184v942h-311v178h806v-178h-311v-758h195v-470h-195v286z" />
<glyph unicode="&#x4ae;" d="M514 670l-477 823h215l364 -659l363 659h217l-479 -823v-670h-203v670z" />
<glyph unicode="&#x4af;" d="M520 18l-428 1102h195l329 -876l329 876h195l-428 -1102v-444h-192v444z" />
<glyph unicode="&#x4b0;" d="M514 420h-264v170h264v80l-477 823h215l364 -659l363 659h217l-479 -823v-80h266v-170h-266v-420h-203v420z" />
<glyph unicode="&#x4b1;" d="M520 -185h-200v150h200v53l-428 1102h195l329 -876l329 876h195l-428 -1102v-53h200v-150h-200v-241h-192v241z" />
<glyph unicode="&#x4b2;" d="M1002 0h-5l-366 643l-395 -643h-218l500 791l-432 702h217l328 -563l334 563h217l-447 -702l377 -621h102v-492h-212v322z" />
<glyph unicode="&#x4b3;" d="M982 0h-18l-328 449l-327 -449h-213l440 584l-401 536h204l297 -405l295 405h207l-401 -536l301 -400h140v-470h-196v286z" />
<glyph unicode="&#x4ba;" d="M160 1495h203v-683q34 38 85 66l48 26q19 10 44.5 18.5t54 14.5t58 9.5t56.5 4.5l48 2q85 0 146 -22.5t102 -61.5q9 -8 16 -16.5t9 -12.5q85 -112 85 -340v-500h-203v474q0 154 -54 223.5t-172 69.5q-50 0 -96 -11t-90 -31q-23 -11 -38.5 -21.5t-29.5 -27.5 q-33 -40 -51 -109.5t-18 -153.5v-413h-203v1495z" />
<glyph unicode="&#x4bb;" d="M195 1556h184v-604q49 97 133 146t199 49q172 0 256 -112t84 -341v-694h-185v694q0 151 -52.5 222t-165.5 71q-131 0 -200 -91t-69 -263v-633h-184v1556z" />
<glyph unicode="&#x4c0;" d="M201 170h313v1153h-313v170h829v-170h-313v-1153h313v-170h-829v170z" />
<glyph unicode="&#x4c1;" d="M616 1609q-290 0 -313 242h119q12 -54 62 -82.5t132 -28.5q165 0 195 111h119q-11 -120 -90 -181t-224 -61zM319 891l-287 602h207l284 -595v595h187v-595l284 595h207l-287 -602l304 -891h-197l-222 650l-89 -186v-464h-187v464l-89 186l-222 -650h-197z" />
<glyph unicode="&#x4c2;" d="M616 1321q-290 0 -313 287h119q22 -150 194 -150q167 0 195 150h119q-23 -287 -314 -287zM318 716l-239 404h199l255 -432v432h168v-432l255 432h199l-239 -404l259 -716h-179l-191 528l-104 -177v-351h-168v351l-104 177l-191 -528h-179z" />
<glyph unicode="&#x4c3;" d="M551 -240h62q67 0 113.5 17.5t76 57.5t42.5 106t13 163v290q0 317 -248 317h-151l-119 -127v-584h-203v1493h203v-664l631 664h237l-581 -612h24q91 0 166.5 -29t129.5 -87.5t84 -147t30 -207.5v-306q0 -134 -25 -231t-78 -160t-135 -93t-196 -30h-76v170z" />
<glyph unicode="&#x4c4;" d="M534 -270h172q55 0 90 11.5t55.5 40t28 76.5t7.5 122v264q0 85 -9.5 133.5t-34 73t-67.5 30.5t-110 6h-221l-39 -38v-449h-190v1120h190v-465l483 465h224l-515 -489h58q130 0 211.5 -16.5t126.5 -59.5t61 -117t16 -188v-270q0 -107 -20 -183.5t-62 -126t-107 -73 t-155 -23.5h-193v156z" />
<glyph unicode="&#x4c7;" d="M586 -240h62q67 0 113.5 17.5t76 57.5t42.5 106t13 163v607h-553v-711h-203v1493h203v-612h553v612h203v-1389q0 -135 -25 -232t-78 -160t-135 -92.5t-196 -29.5h-76v170z" />
<glyph unicode="&#x4c8;" d="M523 -270h172q55 0 90 11.5t55.5 40t28 76.5t7.5 122v525h-487v-505h-184v1120h184v-445h487v445h184v-1140q0 -107 -20 -183.5t-62 -126t-107 -73t-155 -23.5h-193v156z" />
<glyph unicode="&#x4cb;" d="M669 170h213v548q-17 -20 -37 -35t-49 -31l-47 -26q-18 -10 -43.5 -18.5t-54 -14.5t-58.5 -9.5t-57 -4.5l-48 -2q-160 0 -248 84q-8 8 -15 16t-11 13q-40 54 -62 136.5t-22 203.5v465h203v-439q0 -153 53 -223t168 -70q44 0 95 10t96 31q25 12 40.5 24t26.5 26 q31 37 50.5 104t19.5 159v378h203v-1495h-203v-322h-213v492z" />
<glyph unicode="&#x4cc;" d="M652 184h195v382q-27 -51 -87 -87q1 1 -7 -4t-39 -23q-43 -25 -91.5 -37.5t-106.5 -12.5q-173 0 -257 112t-84 341v267h185v-267q0 -151 52.5 -222t165.5 -71q131 0 200 91t69 263v206h184v-1122h-184v-286h-195v470z" />
<glyph unicode="&#x4cf;" d="M455 1567h184v-1567h-184v1567z" />
<glyph unicode="&#x4d0;" d="M616 1609q-290 0 -313 242h119q12 -54 61.5 -82.5t134.5 -28.5q163 0 193 111h119q-11 -120 -90 -181t-224 -61zM494 1493h245l457 -1493h-209l-110 389h-523l-108 -389h-209zM829 551l-213 764l-213 -764h426z" />
<glyph unicode="&#x4d1;" d="M616 1298q-290 0 -313 287h119q11 -72 56.5 -111t136.5 -39q86 0 134 37t62 113h119q-23 -287 -314 -287zM520 -29q-174 0 -275 97q-48 46 -75 108.5t-27 150.5q0 185 126 283q124 97 368 97h247v29q0 64 -17 114t-51 81q-33 30 -87 45t-126 15q-95 0 -191 -27 q-97 -27 -187 -79v184q42 16 93 32t103 27q91 19 183 19q71 0 129 -10.5t108 -31.5q46 -20 87.5 -50.5t70.5 -70.5q21 -29 34 -61t20 -63q16 -73 16 -221v-229q2 -58 3 -102t6 -82q5 -42 11.5 -79t11.5 -56q7 -31 16 -58.5t11 -32.5h-185q-5 12 -12.5 35.5t-14.5 51.5 q-5 22 -9.5 44.5t-6.5 38.5q-29 -50 -74.5 -89t-89.5 -62q-48 -25 -101.5 -36.5t-114.5 -11.5zM558 125q151 0 238 106q88 108 88 291v41h-233q-160 0 -242 -56q-43 -29 -62.5 -71.5t-19.5 -98.5q0 -52 16 -90.5t45 -65.5q29 -26 70.5 -41t99.5 -15z" />
<glyph unicode="&#x4d2;" d="M349 1649q-30 0 -30 30v143q0 30 30 30h143q30 0 30 -30v-143q0 -30 -30 -30h-143zM741 1649q-30 0 -30 30v143q0 30 30 30h142q30 0 30 -30v-143q0 -30 -30 -30h-142zM494 1493h245l457 -1493h-209l-110 389h-523l-108 -389h-209zM829 551l-213 764l-213 -764h426z" />
<glyph unicode="&#x4d3;" d="M349 1350q-30 0 -30 30v142q0 30 30 30h143q30 0 30 -30v-142q0 -30 -30 -30h-143zM741 1350q-30 0 -30 30v142q0 30 30 30h142q30 0 30 -30v-142q0 -30 -30 -30h-142zM520 -29q-174 0 -275 97q-48 46 -75 108.5t-27 150.5q0 185 126 283q124 97 368 97h247v29 q0 64 -17 114t-51 81q-33 30 -87 45t-126 15q-95 0 -191 -27q-97 -27 -187 -79v184q42 16 93 32t103 27q91 19 183 19q71 0 129 -10.5t108 -31.5q46 -20 87.5 -50.5t70.5 -70.5q21 -29 34 -61t20 -63q16 -73 16 -221v-229q2 -58 3 -102t6 -82q5 -42 11.5 -79t11.5 -56 q7 -31 16 -58.5t11 -32.5h-185q-5 12 -12.5 35.5t-14.5 51.5q-5 22 -9.5 44.5t-6.5 38.5q-29 -50 -74.5 -89t-89.5 -62q-48 -25 -101.5 -36.5t-114.5 -11.5zM558 125q151 0 238 106q88 108 88 291v41h-233q-160 0 -242 -56q-43 -29 -62.5 -71.5t-19.5 -98.5q0 -52 16 -90.5 t45 -65.5q29 -26 70.5 -41t99.5 -15z" />
<glyph unicode="&#x4d4;" d="M410 1493h751v-170h-338v-442h307v-170h-307v-541h357v-170h-543v383h-352l-101 -383h-184zM637 551v772h-107l-202 -772h309z" />
<glyph unicode="&#x4d5;" d="M357 -29q-155 0 -235.5 86.5t-80.5 245.5q0 177 99.5 265.5t291.5 88.5h117v88q0 121 -49.5 184.5t-144.5 63.5q-56 0 -121 -21.5t-128 -60.5v168q78 35 143 51.5t128 16.5q177 0 250 -127q32 57 94.5 92t165.5 35q85 0 144.5 -28t97 -92t54.5 -168t17 -255v-90h-491 q-1 -15 -1.5 -33t-0.5 -40q0 -85 11.5 -145t37.5 -98t67.5 -55.5t100.5 -17.5q75 0 140 25.5t114 76.5v-172q-113 -84 -262 -84q-109 0 -182.5 42t-104.5 118q-41 -83 -107 -121.5t-165 -38.5zM1036 657v52q0 75 -9.5 129t-29 88.5t-51 50.5t-74.5 16q-44 0 -74.5 -16.5 t-50.5 -51.5t-29 -91t-9 -134v-43h327zM375 125q94 0 131 67q17 32 27 90t10 160v72h-49q-82 0 -137.5 -10.5t-89 -33.5t-48 -60t-14.5 -90q0 -100 44 -147.5t126 -47.5z" />
<glyph unicode="&#x4d6;" d="M634 1609q-290 0 -313 242h119q12 -54 61.5 -82.5t134.5 -28.5q163 0 193 111h119q-11 -120 -90 -181t-224 -61zM197 1493h886v-170h-684v-442h654v-170h-654v-541h703v-170h-905v1493z" />
<glyph unicode="&#x4d7;" d="M631 1298q-290 0 -313 287h119q11 -72 56.5 -111t136.5 -39q86 0 134 37t62 113h119q-23 -287 -314 -287zM677 -29q-130 0 -232.5 40.5t-174 116.5t-109 184t-37.5 243t37.5 244.5t106 187t164.5 119t213 41.5q111 0 198 -37.5t147 -107.5t91.5 -170t31.5 -226v-90h-797 v-6q0 -92 24.5 -163t71 -120t114.5 -74.5t154 -25.5q90 0 185.5 28t204.5 85v-183q-106 -43 -202.5 -64.5t-190.5 -21.5zM929 660q-3 157 -74.5 244t-207.5 87t-221.5 -86.5t-102.5 -245.5z" />
<glyph unicode="&#x4d8;" d="M615 -29q-252 0 -375 191t-123 583v83h787v8q0 121 -16.5 217t-52 163.5t-92 103.5t-136.5 36q-38 0 -79.5 -8.5t-83.5 -24.5t-82 -39t-76 -53v207q78 42 160 62t165 20q256 0 380.5 -191t124.5 -583q0 -391 -123.5 -583t-377.5 -192zM621 135q73 0 124.5 32t85 95.5 t50.5 159t22 222.5h-571q0 -249 70 -379t219 -130z" />
<glyph unicode="&#x4d9;" d="M610 -29q-111 0 -198 37.5t-147 107.5t-91.5 170t-31.5 226v90h797v6q0 91 -24.5 162.5t-71 120.5t-114.5 74.5t-154 25.5q-90 0 -185.5 -28t-204.5 -85v183q106 43 202.5 64.5t190.5 21.5q130 0 232.5 -40.5t173.5 -116.5t109 -184t38 -243t-37.5 -244.5t-106 -187 t-164.5 -119t-213 -41.5zM608 127q136 0 221.5 86.5t102.5 245.5h-606q0 -163 75 -247.5t207 -84.5z" />
<glyph unicode="&#x4da;" d="M349 1649q-30 0 -30 30v143q0 30 30 30h143q30 0 30 -30v-143q0 -30 -30 -30h-143zM741 1649q-30 0 -30 30v143q0 30 30 30h142q30 0 30 -30v-143q0 -30 -30 -30h-142zM615 -29q-252 0 -375 191t-123 583v83h787v8q0 121 -16.5 217t-52 163.5t-92 103.5t-136.5 36 q-38 0 -79.5 -8.5t-83.5 -24.5t-82 -39t-76 -53v207q78 42 160 62t165 20q256 0 380.5 -191t124.5 -583q0 -391 -123.5 -583t-377.5 -192zM621 135q73 0 124.5 32t85 95.5t50.5 159t22 222.5h-571q0 -249 70 -379t219 -130z" />
<glyph unicode="&#x4db;" d="M369 1350q-30 0 -30 30v142q0 30 30 30h143q30 0 30 -30v-142q0 -30 -30 -30h-143zM761 1350q-30 0 -30 30v142q0 30 30 30h142q30 0 30 -30v-142q0 -30 -30 -30h-142zM610 -29q-111 0 -198 37.5t-147 107.5t-91.5 170t-31.5 226v90h797v6q0 91 -24.5 162.5t-71 120.5 t-114.5 74.5t-154 25.5q-90 0 -185.5 -28t-204.5 -85v183q106 43 202.5 64.5t190.5 21.5q130 0 232.5 -40.5t173.5 -116.5t109 -184t38 -243t-37.5 -244.5t-106 -187t-164.5 -119t-213 -41.5zM608 127q136 0 221.5 86.5t102.5 245.5h-606q0 -163 75 -247.5t207 -84.5z" />
<glyph unicode="&#x4dc;" d="M349 1649q-30 0 -30 30v143q0 30 30 30h143q30 0 30 -30v-143q0 -30 -30 -30h-143zM741 1649q-30 0 -30 30v143q0 30 30 30h142q30 0 30 -30v-143q0 -30 -30 -30h-142zM319 891l-287 602h207l284 -595v595h187v-595l284 595h207l-287 -602l304 -891h-197l-222 650 l-89 -186v-464h-187v464l-89 186l-222 -650h-197z" />
<glyph unicode="&#x4dd;" d="M349 1321q-30 0 -30 30v142q0 30 30 30h143q30 0 30 -30v-142q0 -30 -30 -30h-143zM741 1321q-30 0 -30 30v142q0 30 30 30h142q30 0 30 -30v-142q0 -30 -30 -30h-142zM318 716l-239 404h199l255 -432v432h168v-432l255 432h199l-239 -404l259 -716h-179l-191 528 l-104 -177v-351h-168v351l-104 177l-191 -528h-179z" />
<glyph unicode="&#x4de;" d="M332 1649q-30 0 -30 30v143q0 30 30 30h143q30 0 30 -30v-143q0 -30 -30 -30h-143zM724 1649q-30 0 -30 30v143q0 30 30 30h142q30 0 30 -30v-143q0 -30 -30 -30h-142zM553 -29q-99 0 -206 19t-210 55v201q103 -54 201 -79.5t194 -25.5q169 0 258 74.5t89 210.5 q0 68 -23 122t-66 91t-104 56.5t-137 19.5h-154v166h154q140 0 217.5 60.5t77.5 176.5q0 111 -73 171.5t-214 60.5q-76 0 -171.5 -19t-203.5 -61v186q121 32 215 48t172 16q106 0 194 -28.5t150 -81t96.5 -125.5t34.5 -163q0 -126 -68 -207.5t-200 -115.5 q148 -39 225.5 -138t77.5 -251q0 -102 -35.5 -183.5t-103 -138.5t-165.5 -87t-222 -30z" />
<glyph unicode="&#x4df;" d="M334 1350q-30 0 -30 30v142q0 30 30 30h143q30 0 30 -30v-142q0 -30 -30 -30h-143zM726 1350q-30 0 -30 30v142q0 30 30 30h142q30 0 30 -30v-142q0 -30 -30 -30h-142zM539 -22q-90 0 -178.5 13.5t-191.5 42.5v173q76 -34 167 -51.5t190 -17.5q175 0 265 52.5t90 143.5 q0 45 -22 81.5t-63 62.5t-100 40t-134 14h-158v144h165q137 0 208.5 43t71.5 111q0 69 -74.5 111.5t-216.5 42.5q-71 0 -157 -12.5t-191 -39.5v167q210 48 367 48q105 0 189 -20.5t143.5 -58.5t91 -91.5t31.5 -120.5q0 -96 -64.5 -160t-184.5 -89q64 -12 116 -35.5t89 -59.5 t56.5 -84t19.5 -107q0 -79 -35.5 -142.5t-102.5 -108t-165 -68.5t-222 -24z" />
<glyph unicode="&#x4e0;" d="M615 -28q-142 0 -252 31t-185 90t-113.5 145t-38.5 197h202q0 -144 99 -218.5t289 -74.5q191 0 290.5 74.5t99.5 215.5q0 69 -24 122t-69 89t-110 54.5t-147 18.5h-174v166l370 441h-738v170h970v-168l-376 -441q52 0 109.5 -13t113 -39t106 -65t89.5 -90 q43 -57 61.5 -116.5t18.5 -131.5q0 -108 -39 -193t-114 -143.5t-185 -89.5t-253 -31z" />
<glyph unicode="&#x4e1;" d="M551 -436q-49 0 -97 4t-98 13t-102 23t-109 34v195q85 -49 184.5 -74t208.5 -25q191 0 290 75t99 215q0 68 -24 121t-69 89t-110 55t-147 19h-174v166l430 499h-667v147h874v-168l-411 -476q48 0 103.5 -11.5t111 -36t108 -64t95.5 -95.5q42 -55 61.5 -114t19.5 -133 q0 -109 -39.5 -194t-114 -143.5t-181.5 -89.5t-242 -31z" />
<glyph unicode="&#x4e2;" d="M317 1852h598v-148h-598v148zM139 1493h195v-1229l504 1229h256v-1493h-195v1229l-504 -1229h-256v1493z" />
<glyph unicode="&#x4e3;" d="M317 1468h598v-148h-598v148zM195 1120h184v-809l487 809h184v-1120h-184v809l-487 -809h-184v1120z" />
<glyph unicode="&#x4e4;" d="M349 1649q-30 0 -30 30v143q0 30 30 30h143q30 0 30 -30v-143q0 -30 -30 -30h-143zM741 1649q-30 0 -30 30v143q0 30 30 30h142q30 0 30 -30v-143q0 -30 -30 -30h-142zM139 1493h195v-1229l504 1229h256v-1493h-195v1229l-504 -1229h-256v1493z" />
<glyph unicode="&#x4e5;" d="M349 1322q-30 0 -30 30v142q0 30 30 30h143q30 0 30 -30v-142q0 -30 -30 -30h-143zM741 1322q-30 0 -30 30v142q0 30 30 30h142q30 0 30 -30v-142q0 -30 -30 -30h-142zM195 1120h184v-809l487 809h184v-1120h-184v809l-487 -809h-184v1120z" />
<glyph unicode="&#x4e6;" d="M349 1649q-30 0 -30 30v143q0 30 30 30h143q30 0 30 -30v-143q0 -30 -30 -30h-143zM741 1649q-30 0 -30 30v143q0 30 30 30h142q30 0 30 -30v-143q0 -30 -30 -30h-142zM615 -29q-251 0 -374.5 190.5t-123.5 582.5t123.5 584t375.5 192q253 0 376.5 -192t123.5 -583 q0 -390 -124 -582t-377 -192zM616 135q154 0 222 141q67 138 67 469q0 330 -67 470q-68 141 -222 141q-153 0 -220 -141q-68 -142 -68 -470q0 -327 68 -469q67 -141 220 -141z" />
<glyph unicode="&#x4e7;" d="M349 1350q-30 0 -30 30v142q0 30 30 30h143q30 0 30 -30v-142q0 -30 -30 -30h-143zM741 1350q-30 0 -30 30v142q0 30 30 30h142q30 0 30 -30v-142q0 -30 -30 -30h-142zM616 -29q-235 0 -357 149.5t-122 437.5q0 143 31 253t92 184.5t150 113t206 38.5t206.5 -38.5 t150 -113t92 -184.5t31.5 -253q0 -286 -123 -436.5t-357 -150.5zM616 127q142 0 213.5 109t71.5 323q0 215 -71.5 323.5t-213.5 108.5q-141 0 -212.5 -108.5t-71.5 -323.5q0 -214 71.5 -323t212.5 -109z" />
<glyph unicode="&#x4e8;" d="M615 -29q-251 0 -374.5 190.5t-123.5 582.5t123.5 584t375.5 192q253 0 376.5 -192t123.5 -583q0 -390 -124 -582t-377 -192zM902 881q-6 111 -22.5 199.5t-49.5 149.5t-85 93.5t-129 32.5q-78 0 -130 -33.5t-84.5 -95t-48.5 -149.5t-22 -197h571zM617 135q76 0 130 33.5 t88.5 104t51 179.5t18.5 259h-577q1 -150 17.5 -258.5t51 -179t89 -104.5t131.5 -34z" />
<glyph unicode="&#x4e9;" d="M616 -29q-233 0 -356 150.5t-123 438.5q0 284 123 436q60 73 147 112t208 39q235 0 358 -151t123 -437q0 -288 -122.5 -438t-357.5 -150zM900 611q-4 88 -22.5 158.5t-53 119.5t-86.5 75.5t-122 26.5t-121.5 -26.5t-86 -75.5t-53 -119.5t-22.5 -158.5h567zM616 127 q70 0 120 25t83 68.5t51 102t25 124.5h-557q7 -66 25 -124.5t51 -102t82.5 -68.5t119.5 -25z" />
<glyph unicode="&#x4ea;" d="M349 1649q-30 0 -30 30v143q0 30 30 30h143q30 0 30 -30v-143q0 -30 -30 -30h-143zM741 1649q-30 0 -30 30v143q0 30 30 30h142q30 0 30 -30v-143q0 -30 -30 -30h-142zM615 -29q-251 0 -374.5 190.5t-123.5 582.5t123.5 584t375.5 192q253 0 376.5 -192t123.5 -583 q0 -390 -124 -582t-377 -192zM902 881q-6 111 -22.5 199.5t-49.5 149.5t-85 93.5t-129 32.5q-78 0 -130 -33.5t-84.5 -95t-48.5 -149.5t-22 -197h571zM617 135q76 0 130 33.5t88.5 104t51 179.5t18.5 259h-577q1 -150 17.5 -258.5t51 -179t89 -104.5t131.5 -34z" />
<glyph unicode="&#x4eb;" d="M349 1350q-30 0 -30 30v142q0 30 30 30h143q30 0 30 -30v-142q0 -30 -30 -30h-143zM741 1350q-30 0 -30 30v142q0 30 30 30h142q30 0 30 -30v-142q0 -30 -30 -30h-142zM616 -29q-233 0 -356 150.5t-123 438.5q0 284 123 436q60 73 147 112t208 39q235 0 358 -151 t123 -437q0 -288 -122.5 -438t-357.5 -150zM900 611q-4 88 -22.5 158.5t-53 119.5t-86.5 75.5t-122 26.5t-121.5 -26.5t-86 -75.5t-53 -119.5t-22.5 -158.5h567zM616 127q70 0 120 25t83 68.5t51 102t25 124.5h-557q7 -66 25 -124.5t51 -102t82.5 -68.5t119.5 -25z" />
<glyph unicode="&#x4ec;" d="M336 1649q-30 0 -30 30v143q0 30 30 30h143q30 0 30 -30v-143q0 -30 -30 -30h-143zM728 1649q-30 0 -30 30v143q0 30 30 30h142q30 0 30 -30v-143q0 -30 -30 -30h-142zM509 -29q-176 0 -330 82v207q75 -63 161 -94t171 -31q98 0 170 38.5t120 108t73 166.5t28 213h-632 v170h627q-15 138 -41 237.5t-69.5 163t-108.5 94t-158 30.5q-97 0 -181 -31t-160 -94v207q154 82 330 82q142 0 254.5 -52.5t190 -152t118.5 -244t41 -328.5q0 -183 -40.5 -326.5t-118 -242.5t-189.5 -151t-256 -52z" />
<glyph unicode="&#x4ed;" d="M329 1350q-30 0 -30 30v142q0 30 30 30h143q30 0 30 -30v-142q0 -30 -30 -30h-143zM721 1350q-30 0 -30 30v142q0 30 30 30h142q30 0 30 -30v-142q0 -30 -30 -30h-142zM535 -29q-85 0 -162 20t-158 66v191q62 -60 138 -90.5t170 -30.5q90 0 156 28t110.5 79t68 123 t28.5 159h-542v144h537q-9 66 -32 126t-65 105.5t-106 72.5t-154 27q-91 0 -165 -30t-144 -93v193q82 46 158.5 66t160.5 20q127 0 228 -40t172 -116t109 -185t38 -247t-38 -247t-109 -185t-172 -116t-227 -40z" />
<glyph unicode="&#x4ee;" d="M337 1852h598v-148h-598v148zM204 172h109q40 0 71.5 12t55.5 34.5t43 54t36 69.5q7 16 12.5 30.5l16.5 43.5l-424 1077h217l311 -830l308 830h213l-412 -1068q-30 -78 -62.5 -148t-65.5 -121q-23 -35 -50.5 -63.5t-61.5 -49t-75.5 -32t-93.5 -11.5h-148v172z" />
<glyph unicode="&#x4ef;" d="M317 1468h598v-148h-598v148zM184 -272h109q45 0 76 13.5t51 33.5q11 11 23.5 30t26.5 48.5t30.5 70t36.5 94.5l-433 1102h195l332 -876l327 876h195l-295 -760q-19 -48 -30.5 -78.5t-20 -51.5t-14 -37t-12.5 -34t-16 -43t-24 -64q-26 -69 -46 -120.5t-35.5 -89.5 t-28 -65t-24.5 -47q-44 -75 -109.5 -115.5t-165.5 -40.5h-148v154z" />
<glyph unicode="&#x4f0;" d="M369 1649q-30 0 -30 30v143q0 30 30 30h143q30 0 30 -30v-143q0 -30 -30 -30h-143zM761 1649q-30 0 -30 30v143q0 30 30 30h142q30 0 30 -30v-143q0 -30 -30 -30h-142zM204 172h109q40 0 71.5 12t55.5 34.5t43 54t36 69.5q7 16 12.5 30.5l16.5 43.5l-424 1077h217 l311 -830l308 830h213l-412 -1068q-30 -78 -62.5 -148t-65.5 -121q-23 -35 -50.5 -63.5t-61.5 -49t-75.5 -32t-93.5 -11.5h-148v172z" />
<glyph unicode="&#x4f1;" d="M349 1312q-30 0 -30 30v142q0 30 30 30h143q30 0 30 -30v-142q0 -30 -30 -30h-143zM741 1312q-30 0 -30 30v142q0 30 30 30h142q30 0 30 -30v-142q0 -30 -30 -30h-142zM184 -272h109q45 0 76 13.5t51 33.5q11 11 23.5 30t26.5 48.5t30.5 70t36.5 94.5l-433 1102h195 l332 -876l327 876h195l-295 -760q-19 -48 -30.5 -78.5t-20 -51.5t-14 -37t-12.5 -34t-16 -43t-24 -64q-26 -69 -46 -120.5t-35.5 -89.5t-28 -65t-24.5 -47q-44 -75 -109.5 -115.5t-165.5 -40.5h-148v154z" />
<glyph unicode="&#x4f2;" d="M561 1852h186l-229 -264h-154zM880 1852h186l-229 -264h-154zM204 172h109q40 0 71.5 12t55.5 34.5t43 54t36 69.5q7 16 12.5 30.5l16.5 43.5l-424 1077h217l311 -830l308 830h213l-412 -1068q-30 -78 -62.5 -148t-65.5 -121q-23 -35 -50.5 -63.5t-61.5 -49t-75.5 -32 t-93.5 -11.5h-148v172z" />
<glyph unicode="&#x4f3;" d="M535 1648h170l-224 -376h-137zM868 1648h179l-248 -376h-135zM184 -272h109q45 0 76 13.5t51 33.5q11 11 23.5 30t26.5 48.5t30.5 70t36.5 94.5l-433 1102h195l332 -876l327 876h195l-295 -760q-19 -48 -30.5 -78.5t-20 -51.5t-14 -37t-12.5 -34t-16 -43t-24 -64 q-26 -69 -46 -120.5t-35.5 -89.5t-28 -65t-24.5 -47q-44 -75 -109.5 -115.5t-165.5 -40.5h-148v154z" />
<glyph unicode="&#x4f4;" d="M339 1649q-30 0 -30 30v143q0 30 30 30h143q30 0 30 -30v-143q0 -30 -30 -30h-143zM731 1649q-30 0 -30 30v143q0 30 30 30h142q30 0 30 -30v-143q0 -30 -30 -30h-142zM879 658q-52 -26 -95.5 -42t-84 -24.5t-80.5 -11.5t-85 -3q-55 0 -107 4.5t-97 19.5t-82.5 42 t-64 71.5t-41.5 109.5t-15 156v513h203v-487q0 -84 14.5 -132.5t44.5 -73t76.5 -31t111.5 -6.5q46 0 82.5 3t71 13t70 29.5t78.5 52.5v632h203v-1493h-203v658z" />
<glyph unicode="&#x4f5;" d="M359 1323q-30 0 -30 30v142q0 30 30 30h143q30 0 30 -30v-142q0 -30 -30 -30h-143zM751 1323q-30 0 -30 30v142q0 30 30 30h142q30 0 30 -30v-142q0 -30 -30 -30h-142zM837 466q-8 -3 -33 -13.5t-64.5 -21.5t-92.5 -20t-116 -9q-84 0 -152 19.5t-115.5 62t-73 109.5 t-25.5 162v367h184v-367q0 -64 19 -102t52 -58.5t77 -26.5t93 -6q37 0 69 2.5t61.5 9.5t58 18.5t58.5 28.5v501h184v-1122h-184v466z" />
<glyph unicode="&#x4f6;" d="M418 0h-203v1493h924v-170h-721v-1153h213v-492h-213v322z" />
<glyph unicode="&#x4f7;" d="M476 0h-184v1120h752v-184h-568v-752h195v-470h-195v286z" />
<glyph unicode="&#x4f8;" d="M366 1649q-30 0 -30 30v143q0 30 30 30h143q30 0 30 -30v-143q0 -30 -30 -30h-143zM758 1649q-30 0 -30 30v143q0 30 30 30h142q30 0 30 -30v-143q0 -30 -30 -30h-142zM82 1493h202v-600h91q97 0 179.5 -28.5t143 -84.5t94.5 -139.5t34 -193.5t-34.5 -194t-95 -140 t-143 -84.5t-178.5 -28.5h-293v1493zM948 1493h203v-1493h-203v1493zM375 166q51 0 95 15.5t76 49.5t50.5 87t18.5 128q0 134 -60 207.5t-180 73.5h-91v-561h91z" />
<glyph unicode="&#x4f9;" d="M349 1321q-30 0 -30 30v142q0 30 30 30h143q30 0 30 -30v-142q0 -30 -30 -30h-143zM741 1321q-30 0 -30 30v142q0 30 30 30h142q30 0 30 -30v-142q0 -30 -30 -30h-142zM104 1120h182v-453h91q105 0 187.5 -20.5t140 -62.5t88 -105t30.5 -148q0 -167 -116 -249t-330 -82 h-273v1120zM945 1120h184v-1120h-184v1120zM369 154q124 0 191 44t67 135q0 92 -68 137.5t-190 45.5h-83v-362h83z" />
<glyph unicode="&#x510;" d="M663 -29q-125 0 -222.5 30t-165 87t-103 138.5t-35.5 183.5q0 152 77.5 251t225.5 138q-132 34 -200 114.5t-68 206.5q0 90 34.5 163.5t96.5 126t149.5 81.5t194.5 29q78 0 172 -16t215 -48v-186q-108 42 -203.5 61t-171.5 19q-141 0 -214 -60.5t-73 -171.5 q0 -116 77.5 -176.5t217.5 -60.5h154v-166h-154q-76 0 -137 -19.5t-104 -56.5t-66 -91t-23 -122q0 -136 89 -210.5t258 -74.5q96 0 194 25.5t201 79.5v-201q-103 -36 -210 -55t-206 -19z" />
<glyph unicode="&#x511;" d="M693 -22q-125 0 -222 24t-164.5 68.5t-102.5 108t-35 142.5q0 59 19.5 107t56 84t88 59.5t116.5 35.5q-120 25 -184 89t-64 160q0 67 31.5 120.5t90.5 91.5t143 58.5t189 20.5q158 0 368 -48v-167q-105 27 -191 39.5t-158 12.5q-142 0 -216 -42.5t-74 -111.5 q0 -68 71.5 -111t207.5 -43h166v-144h-159q-75 0 -134 -14t-100 -40t-62.5 -62.5t-21.5 -81.5q0 -91 90 -143.5t265 -52.5q99 0 189 17.5t168 51.5v-173q-97 -28 -187 -42t-184 -14z" />
<glyph unicode="&#x51a;" d="M655 -27h-8.5t-11.5 -1t-10 -1h-5q-254 0 -378.5 193t-124.5 583q0 388 123.5 580.5t376.5 192.5q252 0 375.5 -192.5t123.5 -583.5q0 -293 -68.5 -472.5t-207.5 -251.5l200 -190l-151 -100zM616 135q83 0 136.5 37t85.5 105q16 33 28.5 76.5t21 101t13 130t4.5 162.5 t-4.5 161.5t-13.5 128.5t-21.5 100.5t-28.5 77.5q-35 72 -88.5 106.5t-131.5 34.5q-79 0 -133 -35t-88 -107q-68 -143 -68 -469q0 -165 16.5 -280t51.5 -188q33 -70 86.5 -106t133.5 -36z" />
<glyph unicode="&#x51b;" d="M865 139q-46 -85 -121.5 -128.5t-180.5 -43.5q-99 0 -179 40t-136 116t-86 184.5t-30 246.5q0 137 30 246.5t86 185.5t136 116.5t179 40.5q103 0 179.5 -43t122.5 -127l18 143h167v-1546h-185v569zM595 123q134 0 202 109t68 323t-68 323t-202 109t-201 -108.5 t-67 -323.5t67 -323.5t201 -108.5z" />
<glyph unicode="&#x51c;" d="M0 1493h197l143 -1212l170 802h211l172 -804l143 1214h197l-223 -1493h-191l-203 887l-202 -887h-191z" />
<glyph unicode="&#x51d;" d="M0 1120h182l195 -905l160 578h157l162 -578l195 905h182l-262 -1120h-176l-179 614l-178 -614h-176z" />
<glyph unicode="&#x531;" d="M1044 -60q-45 20 -88 45t-88 54q-113 -68 -281 -68q-110 0 -196.5 29.5t-146.5 89.5q-61 60 -93 151t-32 216v1036h202v-1098q0 -45 9.5 -90.5t38.5 -83.5t81 -62t138 -24q74 0 128 20q-61 54 -108.5 107t-75.5 104l137 92q28 -51 69 -98t95 -92q13 31 17.5 63t4.5 64 v1098h202v-1036q0 -93 -17.5 -165.5t-51.5 -129.5q31 -18 62.5 -34t63.5 -30l-70 -158v0z" />
<glyph unicode="&#x532;" d="M128 1036q0 125 32 215.5t93 150.5q60 59 144.5 88.5t198.5 29.5q112 0 198.5 -29t147.5 -89q60 -60 92 -150.5t32 -215.5v-161h-202v223q0 45 -9.5 90t-38.5 83t-81.5 61.5t-138.5 23.5t-137.5 -23.5t-80.5 -61.5t-38.5 -83t-9.5 -90v-477h774v-170h-774v-451h-202v1036 z" />
<glyph unicode="&#x533;" d="M821 451h-269q-221 0 -340 128q-61 66 -94 166t-33 246q0 140 31.5 241t91.5 165t146 93.5t198 29.5q111 0 198 -29.5t148 -93.5q60 -64 92.5 -164.5t32.5 -244.5v-367h125v-170h-125v-451h-202v451zM821 621v437q0 55 -10 108.5t-39 95.5t-82 68t-139 26t-137.5 -27 t-79.5 -76t-37.5 -116.5t-9.5 -148.5t9.5 -148.5t37.5 -115.5q28 -49 79.5 -76t138.5 -27h269z" />
<glyph unicode="&#x534;" d="M790 1098q0 45 -9.5 90t-38.5 83t-81.5 61.5t-138.5 23.5t-137.5 -23.5t-80.5 -61.5t-38.5 -83t-9.5 -90v-223h-202v161q0 125 32 215.5t93 150.5q60 59 144.5 88.5t198.5 29.5q112 0 198.5 -29t147.5 -89q60 -60 92 -150.5t32 -215.5v-415h187v-170h-187v-451h-202v1098 z" />
<glyph unicode="&#x535;" d="M596 -29q-110 0 -196.5 29.5t-146.5 89.5q-61 60 -93 151t-32 216v1036h202v-373h774v-170h-774v-555q0 -45 9.5 -90.5t38.5 -83.5t80.5 -62t137.5 -24t138.5 24t81.5 62t38.5 83.5t9.5 90.5v223h202v-161q0 -125 -32 -216t-92 -151q-61 -61 -149 -90t-197 -29z" />
<glyph unicode="&#x536;" d="M140 331h203v-161h51q52 0 109.5 24.5t116.5 70.5q61 48 116.5 112.5t97.5 144.5q48 90 70 187t22 213q0 96 -17 182.5t-59 147.5q-38 54 -94 79t-142 25q-83 0 -141.5 -24t-97.5 -79t-57.5 -142.5t-18.5 -215.5v-20h-203v20q0 173 40 291.5t109 193.5t162.5 107.5 t204.5 32.5q114 0 206 -33.5t163 -107.5q78 -81 117 -199.5t39 -268.5q0 -105 -18.5 -193t-52.5 -167q-31 -72 -72.5 -137t-87.5 -116q-45 -51 -88.5 -83t-79.5 -45h359v-170h-957v331z" />
<glyph unicode="&#x537;" d="M120 1493h203v-373h790v-170h-790v-780h651v-170h-854v1493z" />
<glyph unicode="&#x538;" d="M128 1036q0 125 32 216t93 151q60 60 146.5 89.5t196.5 29.5q109 0 197 -29t149 -90q60 -60 92 -151t32 -216v-161h-202v223q0 45 -9.5 90.5t-38.5 83.5t-81.5 62t-138.5 24t-137.5 -24t-80.5 -62t-38.5 -83.5t-9.5 -90.5v-928h774v-170h-976v1036z" />
<glyph unicode="&#x539;" d="M750 -29q-70 0 -129.5 25.5t-104.5 79.5t-70 137.5t-25 201.5t25 204t70 143t105.5 85t132.5 28h138v24q0 128 -14 212t-48 139q-35 56 -95 81q-59 25 -153 25q-92 0 -152 -24t-96 -78t-50.5 -139t-14.5 -206v-909h-196v934q0 290 135 440q66 73 160 109.5t213 36.5 q122 0 216 -38t158 -111q65 -74 99.5 -184.5t34.5 -259.5v-52h131v-175h-131v-285q0 -108 -24.5 -189.5t-69.5 -138.5q-47 -60 -109 -88t-136 -28zM752 135q35 0 61.5 13.5t44.5 47.5q17 32 25.5 85t8.5 134v285h-138q-36 0 -61 -13t-42 -45t-24 -87q-4 -28 -6 -62.5 t-2 -79.5q0 -82 8 -136t25 -86q18 -34 44.5 -45t55.5 -11z" />
<glyph unicode="&#x53a;" d="M542 -29q-118 0 -203.5 36t-145.5 108t-91.5 176.5t-31.5 247.5q0 147 33.5 254.5t93.5 179.5q61 72 147.5 109.5t192.5 37.5h269v373h202v-373h125v-170h-125v-446q0 -140 -31.5 -241.5t-93.5 -167.5q-61 -65 -148.5 -94.5t-192.5 -29.5zM541 135q81 0 134 26t82 68 t39 95.5t10 108.5v517h-269q-87 0 -138.5 -32.5t-79.5 -89.5q-26 -54 -36.5 -126t-10.5 -160q0 -81 9.5 -154t37.5 -130t79.5 -90t142.5 -33z" />
<glyph unicode="&#x53b;" d="M187 1493h202v-432q60 42 126.5 61t147.5 19q103 0 190 -29.5t148 -89.5q60 -60 92 -151t32 -216v-161h-202v223q0 45 -9.5 90.5t-38.5 83.5t-81.5 62t-138.5 24t-137.5 -24t-80.5 -62t-38.5 -83.5t-9.5 -90.5v-717h-202v1493z" />
<glyph unicode="&#x53c;" d="M184 1493h203v-1323h721v-170h-924v1493z" />
<glyph unicode="&#x53d;" d="M806 -29q-111 0 -175 28t-101 81q-39 56 -53.5 140.5t-14.5 204.5v520h-183v-945h-186v1493h186v-373h369v-719q0 -75 6.5 -126t24.5 -82t48.5 -44.5t78.5 -13.5q49 0 78 14t44 44q15 31 20.5 82t5.5 126v719h186v-695q0 -120 -13 -204.5t-49 -140.5 q-37 -56 -101.5 -82.5t-170.5 -26.5z" />
<glyph unicode="&#x53e;" d="M626 -29q-79 0 -143 13t-116 37.5t-91.5 59t-69.5 78.5q-60 88 -83 204.5t-23 247.5q0 139 23 252.5t69 217.5h-138v412h183v-245h52q96 128 229 200q66 35 141 53.5t170 18.5q47 0 94 -4.5t88 -13.5q42 -9 81.5 -23t81.5 -31v-215q-108 70 -200 97t-174 27 q-94 0 -167.5 -29t-130.5 -81q168 -4 292 -47.5t207 -120.5q85 -79 131 -198t46 -288q0 -82 -11.5 -158.5t-36.5 -143.5q-26 -72 -68.5 -130.5t-101.5 -99.5q-63 -44 -145.5 -67t-188.5 -23zM632 135q83 0 140 17.5t95 49.5t58.5 75t30.5 95q5 25 7.5 53.5t4 56.5t2 53.5 t0.5 45.5q0 70 -5 136.5t-25 122.5q-20 54 -56.5 97.5t-99.5 75.5q-64 32 -157.5 50t-227.5 18h-12q-43 -97 -61.5 -214t-18.5 -246v-36q0 -54 1.5 -104.5t9.5 -97.5q9 -57 27.5 -101.5t53.5 -76.5q36 -33 92 -51.5t141 -18.5z" />
<glyph unicode="&#x53f;" d="M883 431q-54 -36 -119 -57.5t-157 -21.5q-106 0 -191 30.5t-144 88.5q-61 60 -93 151t-32 216v655h202v-717q0 -45 9.5 -90.5t38.5 -83.5t80.5 -62t137.5 -24t138.5 24t81.5 62t38.5 83.5t9.5 90.5v344h202v-1120h-202v431z" />
<glyph unicode="&#x540;" d="M320 266q-60 24 -102 47t-74 49q-34 28 -53.5 59.5t-19.5 72.5q0 61 52.5 140.5t173.5 181.5q52 44 115 90.5t133.5 93t146 91.5t153.5 87l-181 315h238l217 -375q-111 -53 -212 -109.5t-188 -110.5q-89 -56 -166.5 -111t-131.5 -103q-29 -26 -49.5 -46.5t-36.5 -39.5 q-31 -38 -31 -64q0 -14 7.5 -25t20.5 -22q15 -12 39 -25t48 -23l703 -289v-204z" />
<glyph unicode="&#x541;" d="M982 -48q-35 54 -71 102.5t-72 93.5q-88 -84 -190 -130.5t-216 -46.5q-69 0 -128.5 18.5t-104.5 56.5q-43 37 -66.5 92t-23.5 127t23.5 128.5t66.5 96.5q42 39 102 59.5t133 20.5q103 0 198.5 -38.5t183.5 -104.5q55 107 81.5 221.5t26.5 252.5q0 115 -18.5 205.5 t-56.5 145.5q-40 58 -102 81t-137 23q-80 0 -139 -24t-98 -79t-57.5 -142.5t-18.5 -215.5v-22h-203v22q0 173 40 291.5t109 193.5q69 74 163 107t202 33q110 0 206 -33t166 -105q72 -74 113.5 -193.5t41.5 -287.5q0 -180 -47.5 -331.5t-127.5 -274.5q51 -55 95 -115t82 -126 zM438 133q68 0 140 37t137 109q-69 62 -139.5 95.5t-135.5 33.5q-68 0 -104 -36.5t-36 -102.5q0 -65 35 -100.5t103 -35.5z" />
<glyph unicode="&#x542;" d="M790 1098q0 45 -9.5 90t-38.5 83t-81.5 61.5t-138.5 23.5t-137.5 -23.5t-80.5 -61.5t-38.5 -83t-9.5 -90v-223h-202v161q0 125 32 215.5t93 150.5q60 59 144.5 88.5t198.5 29.5q112 0 198.5 -29t147.5 -89q60 -60 92 -150.5t32 -215.5v-866h187v-170h-389v1098z" />
<glyph unicode="&#x543;" d="M363 0q-56 0 -107 12t-91 42q-37 28 -58 72t-21 112q0 43 9.5 89.5t30 100.5t52.5 118t77 141q46 79 95 156t93 140l-293 510h228l194 -338q141 175 281 270t293 95v-175q-109 0 -228 -91t-250 -266l473 -824v-164h-778zM909 175l-365 633q-29 -45 -57.5 -92t-57.5 -98 q-66 -115 -96.5 -192.5t-30.5 -130.5q0 -69 49 -94.5t140 -25.5h418z" />
<glyph unicode="&#x544;" d="M554 -29q-110 0 -196.5 29.5t-146.5 89.5q-61 60 -93 151t-32 216v1036h202v-1098q0 -45 9.5 -90.5t38.5 -83.5t80.5 -62t137.5 -24t138.5 24t81.5 62t38.5 83.5t9.5 90.5v1098h389v-170h-187v-866q0 -125 -32 -216t-92 -151q-61 -61 -149 -90t-197 -29z" />
<glyph unicode="&#x545;" d="M656 -29q-135 0 -230 38.5t-158 104.5t-92 151t-29 182h210q0 -66 16.5 -122t52.5 -98q35 -41 90.5 -66.5t140.5 -25.5q80 0 137 23t94 64q35 38 53 91.5t18 116.5q0 130 -78 202q-39 35 -95.5 54t-129.5 19h-592v170h592q66 0 112.5 21t76.5 57q29 35 42 79.5t13 95.5 q0 116 -62.5 172t-182.5 56q-117 0 -177.5 -56.5t-60.5 -179.5h-210q0 91 32 165t92 127t142 80.5t182 27.5q102 0 185 -28t143 -79q57 -49 92 -121t35 -166q0 -60 -14.5 -111t-40.5 -93q-55 -86 -148 -117q69 -17 118 -52.5t81 -83.5t47.5 -105t15.5 -123q0 -88 -28.5 -174 t-93.5 -154q-63 -66 -159.5 -104t-231.5 -38z" />
<glyph unicode="&#x546;" d="M709 -29q-110 0 -196.5 29.5t-146.5 89.5q-61 60 -93 151t-32 216v866h-187v170h389v-1098q0 -45 9.5 -90.5t38.5 -83.5t80.5 -62t137.5 -24t138.5 24t81.5 62t38.5 83.5t9.5 90.5v223h202v-161q0 -125 -32 -216t-92 -151q-61 -61 -149 -90t-197 -29z" />
<glyph unicode="&#x547;" d="M625 -29q-111 0 -206 34.5t-167 109.5t-114 193.5t-42 288.5q0 165 37.5 285.5t96.5 199.5q57 76 126 116t136 42l-90 40q-57 25 -111.5 34t-91.5 9h-45v170h123q51 0 114 -13t135 -43l507 -213v-212l-244 103q-13 6 -32.5 11.5t-42.5 10.5t-46.5 7.5t-43.5 2.5 q-145 0 -231 -150q-23 -39 -38 -82t-26 -91q-22 -100 -22 -230q0 -246 77 -354q39 -55 98.5 -80t141.5 -25t140 24.5t96 78.5q38 55 56 142t18 216v22h203v-22q0 -174 -40 -292t-109 -193q-69 -74 -163 -107t-200 -33z" />
<glyph unicode="&#x548;" d="M147 1036q0 125 32 216t93 151q60 60 146.5 89.5t196.5 29.5q109 0 197 -29t149 -90q60 -60 92 -151t32 -216v-1036h-202v1098q0 45 -9.5 90.5t-38.5 83.5t-81.5 62t-138.5 24t-137.5 -24t-80.5 -62t-38.5 -83.5t-9.5 -90.5v-1098h-202v1036z" />
<glyph unicode="&#x549;" d="M200 267v212l238 -101q16 -7 36 -13t42 -10.5t44.5 -7.5t43.5 -3q78 0 137.5 39.5t99.5 110.5q20 35 36 79.5t27 94.5q22 98 22 229q0 246 -77 354q-39 55 -98 80t-142 25q-80 0 -138.5 -24t-96.5 -79q-39 -55 -57 -142.5t-18 -215.5v-22h-203v22q0 173 40 291.5 t109 193.5q69 74 163 107t200 33q111 0 206.5 -34.5t167.5 -109.5q71 -75 113 -193.5t42 -288.5q0 -112 -18 -203t-49 -163t-70.5 -124t-84.5 -86t-89.5 -50.5t-84.5 -16.5l232 -99v-210z" />
<glyph unicode="&#x54a;" d="M958 917q0 79 -8.5 153t-37.5 134q-29 59 -81.5 98.5t-139.5 48.5v-876h-190v876q-87 -12 -138.5 -48t-80.5 -93t-38 -131t-9 -162v-42h-190v57q0 131 31 238.5t98 185.5t170.5 121t256.5 43q152 0 257.5 -43t170.5 -121t92 -185.5t27 -238.5v-932h-190v917z" />
<glyph unicode="&#x54b;" d="M139 332h203v-162h40q60 0 120.5 23t117.5 66q12 52 19 99t7 89q0 51 -11 91.5t-35 69.5q-17 20 -37.5 31.5t-41.5 17.5t-41.5 7.5t-37.5 2.5q-61 2 -124 10.5t-118 43.5q-38 24 -59 56t-32 70q-9 32 -11 62t-2 51q0 75 10.5 139.5t34.5 124.5q25 62 64 115t95 93 q57 41 132.5 64.5t178.5 23.5q150 0 249 -51t160 -136q31 -44 53.5 -94.5t36 -105t20 -110.5t6.5 -111q0 -140 -34.5 -255.5t-88.5 -208.5q-56 -95 -128.5 -168.5t-147.5 -109.5h359v-170h-957v332zM776 423q35 52 63 106.5t47 114.5t29 127t10 145q0 40 -3 82.5t-10 83 t-18.5 77.5t-28.5 67q-35 63 -97.5 96.5t-153.5 33.5q-66 0 -112.5 -16t-79.5 -42q-37 -29 -59.5 -65t-35.5 -72q-26 -73 -26 -164q0 -34 5.5 -64.5t24.5 -50.5q24 -27 63.5 -33t88.5 -7q23 -1 51.5 -4t58 -13t59.5 -29t56 -51q37 -46 55.5 -107t18.5 -133q0 -40 -6 -82z " />
<glyph unicode="&#x54c;" d="M98 1036q0 125 32 215.5t93 150.5q60 59 144.5 88.5t198.5 29.5q112 0 198.5 -29t147.5 -89q60 -60 92 -150.5t32 -215.5v-415h187v-170h-187v-451h-202v1098q0 45 -9.5 90t-38.5 83t-81.5 61.5t-138.5 23.5t-137.5 -23.5t-80.5 -61.5t-38.5 -83t-9.5 -90v-1098h-202 v1036z" />
<glyph unicode="&#x54d;" d="M615 -29q-110 0 -196.5 29.5t-146.5 89.5q-61 60 -93 151t-32 216v1036h202v-1098q0 -45 9.5 -90.5t38.5 -83.5t80.5 -62t137.5 -24t138.5 24t81.5 62t38.5 83.5t9.5 90.5v1098h202v-1036q0 -125 -32 -216t-92 -151q-61 -61 -149 -90t-197 -29z" />
<glyph unicode="&#x54e;" d="M769 431q-54 -36 -119 -57.5t-157 -21.5q-106 0 -191 30.5t-144 88.5q-61 60 -93 151t-32 216v282h202v-344q0 -45 9.5 -90.5t38.5 -83.5t80.5 -62t137.5 -24t138.5 24t81.5 62t38.5 83.5t9.5 90.5v717h202v-1323h228v-170h-430v431z" />
<glyph unicode="&#x54f;" d="M631 -29q-122 0 -219.5 34.5t-166.5 97.5t-104.5 149.5t-35.5 194.5h210q0 -146 91 -231q87 -81 225 -81q134 0 214 75q38 35 60.5 87t22.5 118q0 74 -30.5 123t-88.5 84q-54 33 -122.5 56t-140.5 47q-78 26 -142.5 54t-119.5 73q-54 45 -87 108t-33 160q0 81 26.5 153.5 t82.5 127.5t139 87t199 32t202 -32t143 -87t84.5 -127.5t27.5 -153.5h-210q0 52 -14 95.5t-44 74.5t-76 48t-112 17q-64 0 -110.5 -16.5t-76.5 -45.5q-32 -32 -46.5 -74t-14.5 -85q0 -58 22 -96t57 -64q38 -29 87.5 -49t102.5 -38q37 -13 54 -18.5t25 -8.5t13.5 -4.5 t20.5 -6.5q53 -17 110.5 -42.5t104.5 -57.5q48 -33 86 -77.5t59 -107.5q21 -62 21 -141q0 -99 -32.5 -181t-95.5 -142q-63 -61 -155 -95t-213 -34z" />
<glyph unicode="&#x550;" d="M147 1036q0 125 32 216t93 151q60 60 146.5 89.5t196.5 29.5q109 0 197 -29t149 -90q60 -60 92 -151t32 -216v-161h-202v223q0 45 -9.5 90.5t-38.5 83.5t-81.5 62t-138.5 24t-137.5 -24t-80.5 -62t-38.5 -83.5t-9.5 -90.5v-1098h-202v1036z" />
<glyph unicode="&#x551;" d="M656 -29q-131 0 -226 37t-161 106t-94 154t-28 179h210q0 -65 15.5 -120.5t52.5 -99.5t93.5 -68t137.5 -24q86 0 143.5 26t92.5 68q35 43 51 99.5t16 112.5q0 65 -20 112t-58 81t-94 52.5t-129 18.5h-594v170h273q-32 17 -56 45.5t-41 62.5t-25.5 69.5t-8.5 77.5 q0 78 30.5 151.5t89.5 127.5q55 51 137 81t194 30q107 0 191 -28.5t143 -81.5t89 -127t30 -162q0 -61 -14.5 -111t-40.5 -91q-55 -83 -148 -114q69 -17 118 -53.5t81 -85.5t47.5 -105t15.5 -121q0 -89 -29 -174t-92 -151q-64 -68 -161 -106t-231 -38zM656 875q69 0 115 20.5 t75 54.5t41.5 77t12.5 94q0 44 -10.5 88.5t-38.5 76.5q-14 16 -33.5 29.5t-40.5 21.5q-23 9 -51 14t-66 5q-75 0 -121.5 -19t-73.5 -51q-26 -32 -37.5 -74t-11.5 -93q0 -47 10.5 -91.5t37.5 -77.5q27 -34 74.5 -54.5t117.5 -20.5z" />
<glyph unicode="&#x552;" d="M155 1493h203v-373h760v-175h-760v-945h-203v1493z" />
<glyph unicode="&#x553;" d="M518 158q-132 6 -219 48t-140 123q-48 74 -68.5 179t-20.5 255q0 142 19.5 251.5t70.5 187.5q51 79 137 121.5t221 47.5v122h193v-122q135 -5 222 -48t138 -121t71 -187.5t20 -249.5t-20 -250t-71 -188t-138 -121.5t-222 -48.5v-157h-193v158zM518 1203 q-73 -3 -121.5 -26.5t-77.5 -74.5q-30 -52 -42 -134.5t-12 -201.5q0 -120 12 -203.5t43 -139.5q29 -54 76.5 -79t121.5 -28v887zM711 316q73 3 122 28.5t78 79.5t41 137t12 204t-12 203t-41 134q-29 51 -78 74.5t-122 26.5v-887z" />
<glyph unicode="&#x554;" d="M227 244h-191v175h191v661q0 96 27.5 175.5t85.5 139.5q60 61 148 93t208 32q126 0 214 -33.5t145 -93.5t84 -140t27 -177t-27 -176t-85 -139q-56 -57 -140.5 -92t-197.5 -35q-45 0 -84.5 6.5t-77.5 20.5q-84 32 -125 84v-326h724v-175h-724v-244h-202v244zM706 798 q78 0 127 20.5t77 54.5q29 36 41 88t12 116t-12 114.5t-42 87.5q-30 38 -81 57q-54 20 -130 20q-78 0 -129.5 -20t-82.5 -56t-43.5 -86.5t-12.5 -110.5q0 -66 14.5 -116.5t46.5 -88.5t84.5 -59t130.5 -21z" />
<glyph unicode="&#x555;" d="M615 -29q-251 0 -374.5 190.5t-123.5 582.5t123.5 584t375.5 192q253 0 376.5 -192t123.5 -583q0 -390 -124 -582t-377 -192zM616 135q83 0 136.5 37t85.5 105q16 33 28.5 76.5t21 101t13 130t4.5 162.5t-4.5 161.5t-13.5 128.5t-21.5 100.5t-28.5 77.5 q-35 72 -88.5 106.5t-131.5 34.5q-79 0 -133 -35t-88 -107q-68 -143 -68 -469q0 -165 16.5 -280t51.5 -188q33 -70 86.5 -106t133.5 -36z" />
<glyph unicode="&#x556;" d="M628 -29q-122 0 -205.5 12t-143.5 41q-67 32 -108 84.5t-63 120.5t-29.5 145.5t-7.5 162.5v19h194v-19q0 -54 2 -97.5t6.5 -79.5t12.5 -65t21 -54q26 -51 75.5 -79.5t135.5 -28.5v819q-197 0 -287 66t-90 205q0 69 21.5 120t69.5 85q93 65 297 65h182v-373 q69 -3 123 -13.5t96.5 -28.5t74.5 -42.5t57 -56.5q57 -74 78.5 -184.5t21.5 -254.5q0 -88 -8.5 -166t-31.5 -145q-23 -65 -63.5 -118.5t-103.5 -86.5q-59 -31 -141 -43q-42 -6 -91 -8t-95 -2zM518 1329q-48 0 -81 -3.5t-54 -14.5t-31 -32t-10 -56t10 -55t31 -31t54 -14 t81 -3v209zM711 133q82 0 132 26.5t77 77.5t35.5 125.5t8.5 179.5q0 104 -8.5 181.5t-35.5 128.5t-77 74t-132 23v-816z" />
<glyph unicode="&#x559;" d="M754 1007q-58 0 -108 21.5t-87 58.5t-58 87.5t-21 107.5t21 107t58 87t87 58.5t108 21.5v-123q-32 0 -59.5 -12t-48 -32t-32.5 -48t-12 -59q0 -32 12 -59.5t32.5 -48t48 -32.5t59.5 -12v-123z" />
<glyph unicode="&#x55a;" d="M552 1341v152h211v-152l-164 -319h-129z" />
<glyph unicode="&#x55b;" d="M659 1645h198l-325 -376h-154z" />
<glyph unicode="&#x55c;" d="M225 1265q0 60 20.5 114t57.5 98q42 49 93.5 77.5t107.5 42.5q6 2 30.5 7.5t80.5 18.5q28 6 56.5 15.5t55 22.5t49.5 29t41 36q17 19 27 42.5t11 60.5h152q0 -57 -19 -110.5t-55 -98.5q-38 -48 -86.5 -75.5t-99.5 -43.5q-29 -9 -66.5 -17.5t-66.5 -14.5t-59 -14 t-57 -19.5t-49.5 -26t-38.5 -34.5q-14 -18 -23.5 -44.5t-9.5 -65.5h-152v0z" />
<glyph unicode="&#x55d;" d="M377 1638h198l281 -376h-154z" />
<glyph unicode="&#x55e;" d="M792 1256q-42 0 -82 10t-77 35q-34 23 -61 59.5t-41 93.5h165q5 -29 30.5 -45t60.5 -16q26 0 45.5 8.5t31.5 22.5q21 25 21 73q0 40 -15 71.5t-41 52.5q-53 42 -139 42q-23 0 -48 -3t-49 -10l-2 -1q-130 -32 -192.5 -129.5t-62.5 -254.5h-158q0 120 27.5 207t78.5 153 q54 69 124.5 111t151.5 62q61 15 127 15q69 0 133 -17.5t117 -56.5q52 -38 84.5 -97t32.5 -138q0 -59 -18 -103t-49 -74q-34 -33 -83 -52t-112 -19z" />
<glyph unicode="&#x55f;" d="M188 1556h140v-169h716v-122h-856v291z" />
<glyph unicode="&#x561;" d="M344 -27q-62 0 -108 22t-77 81q-14 27 -24.5 63t-17.5 83.5t-10.5 109t-3.5 139.5v649h168v-641q0 -119 6 -192q3 -37 8 -66.5t17.5 -50.5t34 -32t57.5 -11q45 0 69.5 16t38.5 45q16 32 23.5 100t7.5 191v641h168v-641q0 -74 2 -124.5t6 -84.5t9.5 -54t11.5 -33 q13 -26 37.5 -41t64.5 -15q43 0 65.5 17t34.5 44q17 37 23.5 108t6.5 183v641h167v-1120h-167v96q-68 -123 -198 -123q-68 0 -120.5 33.5t-81.5 107.5q-35 -72 -85.5 -106.5t-132.5 -34.5z" />
<glyph unicode="&#x562;" d="M193 1120h184v-168q49 97 133 146t199 49q173 0 256.5 -111.5t83.5 -341.5v-244h-185v244q0 151 -52.5 222t-165.5 71q-131 0 -200 -90t-69 -264v-490h682v-143h-682v-426h-184v1546z" />
<glyph unicode="&#x563;" d="M806 139q-45 -85 -120.5 -128.5t-179.5 -43.5q-100 0 -180 40.5t-137 116.5q-57 77 -86.5 184t-29.5 244q0 138 29.5 247t86.5 186t137 117.5t180 40.5q102 0 178 -42.5t122 -127.5l18 147h167v-977h168v-143h-168v-426h-185v565zM536 123q135 0 202.5 108.5t67.5 323.5 t-67.5 323.5t-202.5 108.5q-134 0 -201 -108q-67 -109 -67 -324q0 -432 268 -432z" />
<glyph unicode="&#x564;" d="M855 694q0 151 -52.5 222t-165.5 71q-131 0 -200 -90t-69 -264v-633h-184v1120h166l18 -168q49 97 133 146t199 49q173 0 256.5 -111.5t83.5 -341.5v-551h148v-143h-148v-426h-185v1120z" />
<glyph unicode="&#x565;" d="M522 -29q-173 0 -255.5 112t-82.5 341v1132h184v-436h721v-143h-721v-553q0 -151 53.5 -222t165.5 -71q132 0 200 90.5t68 263.5v235h185v-720h-185v168q-49 -97 -132.5 -147t-200.5 -50z" />
<glyph unicode="&#x566;" d="M836 139q-45 -85 -120.5 -128.5t-179.5 -43.5q-100 0 -180 40.5t-137 116.5q-57 77 -86.5 184t-29.5 244q0 138 29.5 247t86.5 186t137 117.5t180 40.5q102 0 178 -42.5t122 -127.5l18 147h167v-1401h168v-145h-353v565zM566 123q135 0 202.5 108.5t67.5 323.5 t-67.5 323.5t-202.5 108.5q-134 0 -201 -108q-67 -109 -67 -324q0 -432 268 -432z" />
<glyph unicode="&#x567;" d="M227 1556h184v-436h634v-143h-634v-829h549v-148h-733v1556z" />
<glyph unicode="&#x568;" d="M183 1120h166l18 -168q49 97 133 146t199 49q173 0 256.5 -111.5t83.5 -341.5v-694h-185v694q0 151 -52.5 222t-165.5 71q-131 0 -200 -90t-69 -264v-916h682v-143h-866v1546z" />
<glyph unicode="&#x569;" d="M106 1120h166l18 -170q34 58 70.5 96t79.5 61q77 40 190 40q117 0 200 -41.5t142 -117.5q61 -79 94.5 -187.5t38.5 -241.5h101v-143h-104q-11 -131 -46.5 -216.5t-86.5 -136.5t-111.5 -71.5t-126.5 -20.5q-69 0 -126 19.5t-99 56.5t-63.5 89t-21.5 119q0 77 26.5 134.5 t70.5 95.5t100 56t116 18h201q-2 109 -25.5 188t-62.5 132q-86 116 -256 116q-71 0 -128.5 -21t-95.5 -66t-57.5 -116t-19.5 -173v-1045h-184v1546zM731 107q40 0 72.5 16t58.5 53q26 38 43.5 96t24.5 144h-196q-26 0 -51 -10t-45 -30q-20 -21 -32.5 -51.5t-12.5 -70.5 q0 -30 8 -56.5t25 -46.5q16 -19 41 -31.5t64 -12.5z" />
<glyph unicode="&#x56a;" d="M551 -29q-123 0 -208.5 44t-141.5 123q-57 81 -82.5 188t-25.5 228q0 120 25 220t80 178q55 77 141.5 122.5t209.5 45.5h277v436h185v-436h168v-143h-168v-472q0 -115 -26.5 -212t-83.5 -169t-144.5 -112.5t-205.5 -40.5zM555 127q67 0 119 29t87 87q33 56 49 135t16 181 v418h-275q-60 0 -107.5 -29t-82.5 -83t-54 -131t-19 -182q0 -94 16 -173.5t49 -136.5q67 -115 202 -115z" />
<glyph unicode="&#x56b;" d="M188 1556h184v-604q49 97 133 146t199 49q173 0 256.5 -111.5t83.5 -341.5v-694h-185v694q0 151 -52.5 222t-165.5 71q-131 0 -200 -90t-69 -264v-1059h-184v1982z" />
<glyph unicode="&#x56c;" d="M407 1120h184v-1403h395v-143h-579v1546z" />
<glyph unicode="&#x56d;" d="M104 1556h167v-532q35 62 83.5 92.5t117.5 30.5q67 0 112.5 -28t71.5 -81q26 -54 35 -130.5t9 -176.5v-252q0 -74 2 -124.5t6 -84.5t9.5 -54t11.5 -33q13 -26 37.5 -41t64.5 -15q43 0 65.5 17t34.5 44q17 37 23.5 108t6.5 183v641h167v-1120h-167v96q-35 -62 -83.5 -92.5 t-117.5 -30.5q-67 0 -112 28t-71 81q-26 54 -35.5 130.5t-9.5 176.5v252q0 73 -2 124t-6 85t-9.5 54t-11.5 33q-13 26 -37.5 41t-64.5 15q-43 0 -65.5 -17t-34.5 -44q-17 -37 -23.5 -108t-6.5 -183v-1067h-167v1982z" />
<glyph unicode="&#x56e;" d="M615 -29q-126 0 -215 43.5t-147 117.5q-60 75 -88 177.5t-28 226.5q0 135 30.5 236t83.5 172t122 111.5t150 55.5l-271 179l207 289l148 -98l-106 -151l321 -210h271v-170h-90q32 -48 51.5 -105t28.5 -111q4 -27 7 -54t4 -51t1.5 -43t0.5 -30q0 -138 -27.5 -243.5 t-87.5 -180.5q-57 -72 -148 -116.5t-218 -44.5zM614 127q78 0 134 32t91 89q31 52 46.5 127t15.5 186q0 12 -0.5 33.5t-2.5 47t-5.5 54.5t-10.5 56q-13 53 -40 104.5t-73 93.5h-153q-78 0 -132.5 -32.5t-88.5 -89.5t-49.5 -132.5t-15.5 -160.5q0 -83 15 -157t49 -130 q35 -59 89.5 -90t130.5 -31z" />
<glyph unicode="&#x56f;" d="M859 168q-49 -97 -132.5 -147t-200.5 -50q-173 0 -255.5 112t-82.5 341v1132h184v-1132q0 -151 53.5 -222t165.5 -71q132 0 200 90.5t68 263.5v635h185v-1546h-185v594z" />
<glyph unicode="&#x570;" d="M189 1556h184v-604q49 97 133 146t199 49q172 0 256 -112t84 -341v-694h-185v694q0 151 -52.5 222t-165.5 71q-131 0 -200 -91t-69 -263v-633h-184v1556z" />
<glyph unicode="&#x571;" d="M540 -30q-89 0 -158 32.5t-117 92.5t-73.5 142t-25.5 182q0 196 97.5 371t280.5 331q-57 7 -99 29.5t-70 54.5t-41.5 70.5t-13.5 79.5q0 32 8.5 63t26.5 59l51 79h199l-57 -85q-32 -49 -32 -97q0 -55 38 -93q18 -18 43 -28.5t57 -10.5t65 11q27 18 55 36t57 35v-177 q-21 -13 -41.5 -26.5t-41.5 -27.5q90 -53 150 -116.5t95 -135.5q35 -73 49 -155t14 -173v-513h-184v172q-20 -45 -51.5 -81.5t-73.5 -63.5q-40 -26 -92 -41.5t-115 -15.5zM594 131q72 0 126 27.5t88 74.5q32 44 48 105t16 132v86q0 51 -10 111.5t-37 120.5t-74.5 113.5 t-122.5 92.5q-61 -57 -108.5 -116.5t-83.5 -127.5q-37 -69 -58 -143t-21 -159q0 -65 13.5 -123t42.5 -102q30 -46 74 -69t107 -23z" />
<glyph unicode="&#x572;" d="M865 694q0 151 -52.5 222t-165.5 71q-131 0 -200 -90t-69 -264v-633h-184v1120h166l18 -168q49 97 133 146t199 49q173 0 256.5 -111.5t83.5 -341.5v-977h149v-143h-334v1120z" />
<glyph unicode="&#x573;" d="M553 -29q-96 0 -162 32.5t-111 88.5q-46 57 -68.5 132.5t-22.5 185.5q0 61 7 131.5t21 144.5t34.5 148t47.5 143h-145v143h210q51 94 113 174t137 139t161.5 91t180.5 32q27 0 51 -3q11 -2 20 -3.5t17 -4.5v-151q-20 9 -48 14t-54 5q-57 0 -110.5 -22.5t-99.5 -57.5 q-49 -38 -96.5 -93.5t-86.5 -123.5q121 -10 216.5 -49.5t163.5 -106.5t104 -158t36 -206v-596h-166l-18 168q-24 -45 -55 -80.5t-72 -61.5t-91.5 -40.5t-113.5 -14.5zM614 131q78 0 129 30t83 79q32 48 45.5 108.5t13.5 121.5v139q0 76 -22.5 140.5t-71.5 112.5t-126 77 t-186 36q-26 -61 -45.5 -127.5t-32.5 -134.5t-20 -134.5t-7 -127.5q0 -53 5 -93t14.5 -70.5t23 -52.5t30.5 -40q63 -64 167 -64z" />
<glyph unicode="&#x574;" d="M482 -29q-173 0 -255.5 112t-82.5 341v696h184v-696q0 -151 53.5 -222t165.5 -71q132 0 200 90.5t68 263.5v1071h353v-143h-168v-1413h-167l-18 168q-49 -97 -132.5 -147t-200.5 -50z" />
<glyph unicode="&#x575;" d="M217 -270h234q180 0 180 250v1140h184v-1140q0 -197 -88.5 -301.5t-255.5 -104.5h-254v156z" />
<glyph unicode="&#x576;" d="M530 -29q-173 0 -255.5 112t-82.5 341v989h-168v143h352v-1132q0 -151 53.5 -222t165.5 -71q132 0 200 90.5t68 263.5v635h185v-1120h-167l-18 168q-49 -97 -132.5 -147t-200.5 -50z" />
<glyph unicode="&#x577;" d="M352 -426q-42 0 -76 13.5t-58 37.5q-24 23 -37 54.5t-13 65.5q0 54 31 109t79 110t111.5 117t129.5 125q69 66 130.5 130t111.5 131q51 68 80 134t29 139q0 51 -17 99t-59 85q-38 34 -92 52t-117 18q-47 0 -83 -10t-68 -27q-35 -19 -65.5 -46t-52.5 -61l-136 101 q72 92 172.5 144.5t241.5 52.5q97 0 183 -27t149 -81q64 -55 96 -130.5t32 -163.5q0 -85 -28 -158.5t-77 -147.5q-51 -76 -111 -143t-121 -129l-24.5 -24.5t-31.5 -31t-34.5 -33t-32.5 -30.5l-54 -52t-51.5 -50.5t-45 -47t-34.5 -41.5q-29 -39 -29 -65q0 -8 3.5 -21 t13.5 -25t26 -21t42 -9h539v-143h-652v0z" />
<glyph unicode="&#x578;" d="M189 1120h166l18 -168q49 97 133 146t199 49q172 0 256 -112t84 -341v-694h-185v694q0 151 -52.5 222t-165.5 71q-131 0 -200 -91t-69 -263v-633h-184v1120z" />
<glyph unicode="&#x579;" d="M412 -426q-34 0 -63.5 10t-55.5 33q-24 22 -37.5 53t-13.5 80q0 55 17 123t47 140t72 147.5t88 141.5q48 69 102 133.5t107 115.5q-45 0 -99.5 16t-102.5 51t-80.5 88.5t-32.5 129.5q0 60 24.5 121.5t79.5 116.5l95 96l123 -113l-31 -30q-47 -45 -76.5 -93t-29.5 -95 q0 -41 21.5 -68t52.5 -44q33 -19 73.5 -27.5t80.5 -8.5q35 0 65.5 5.5t53.5 14.5l63 -113q-112 -91 -206.5 -197.5t-163.5 -213.5q-35 -53 -62 -104t-45.5 -97.5t-28.5 -87t-10 -71.5q0 -46 24 -77q11 -15 27 -24t37 -9h463v-143h-578v0z" />
<glyph unicode="&#x57a;" d="M957 96q-68 -123 -198 -123q-68 0 -120.5 33.5t-81.5 107.5q-35 -72 -85.5 -106.5t-132.5 -34.5q-62 0 -108 22t-77 81q-14 27 -24.5 63t-17.5 83.5t-10.5 109t-3.5 139.5v649h168v-641q0 -119 6 -192q3 -37 8 -66.5t17.5 -50.5t34 -32t57.5 -11q45 0 69.5 16t38.5 45 q16 32 23.5 100t7.5 191v641h168v-641q0 -74 2 -124.5t6 -84.5t9.5 -54t11.5 -33q13 -26 37.5 -41t64.5 -15q43 0 65.5 17t34.5 44q17 37 23.5 108t6.5 183v641h167v-1546h-167v522z" />
</font>
</defs>
</svg>
