<?xml version="1.0" encoding="UTF-8"?>
<svg xmlns="http://www.w3.org/2000/svg" xmlns:xlink="http://www.w3.org/1999/xlink" version="1.2" >
<font id="Hack Bold Oblique">
<font-face  font-family="Hack" units-per-em="2048" ascent="1556" descent="-492" font-style="italic" font-weight="700" font-stretch="normal" slope="-10.75" cap-height="1493" x-height="1120" underline-position="-590" underline-thickness="246" />
<missing-glyph  horiz-adv-x="1233" d="M104 -362 L104 1444 L1128 1444 L1128 -362 L104 -362 L104 -362 Z M219 -248 L1014 -248 L1014 1329 L219 1329 L219 -248 L219 -248 Z " />
<glyph glyph-name="CR" unicode="&#xd;" horiz-adv-x="1233" d="" />
<glyph glyph-name="space" unicode="&#x20;" horiz-adv-x="1233" d="" />
<glyph glyph-name="exclam" unicode="&#x21;" horiz-adv-x="1233" d="M481 93 C481 166 528 234 596 259 C615 266 636 270 659 270 C709 270 737 250 755 230 C778 204 787 171 787 137 C787 112 782 89 775 72 C757 27 721 -11 673 -30 C653 -38 631 -42 609 -42 C564 -42 533 -25 514 -4 C489 24 481 63 481 93 L481 93 Z M708 1508 L994 1508 L922 1051 L763 476 L624 476 L637 1054 L708 1508 L708 1508 Z " />
<glyph glyph-name="quotedbl" unicode="&#x22;" horiz-adv-x="1233" d="M999 1493 L999 938 L743 938 L743 1493 L999 1493 L999 1493 Z M487 1493 L487 938 L231 938 L231 1493 L487 1493 L487 1493 Z " />
<glyph glyph-name="numbersign" unicode="&#x23;" horiz-adv-x="1233" d="M752 881 L549 881 L475 588 L678 588 L752 881 L752 881 Z M696 1470 L602 1096 L807 1096 L901 1470 L1122 1470 L1028 1096 L1268 1096 L1214 881 L973 881 L901 588 L1141 588 L1087 373 L846 373 L752 0 L530 0 L625 373 L420 373 L326 0 L104 0 L199 373 L-41 373 L12 588 L254 588 L326 881 L86 881 L139 1096 L381 1096 L475 1470 L696 1470 L696 1470 Z " />
<glyph glyph-name="dollar" unicode="&#x24;" horiz-adv-x="1233" d="M647 532 L588 227 C643 234 686 254 719 286 C750 316 768 352 768 401 C768 436 759 463 740 484 C721 505 690 521 647 532 L647 532 Z M561 821 L614 1099 C566 1093 528 1075 501 1045 C472 1013 459 975 459 935 C459 902 468 881 485 862 C503 842 528 829 561 821 L561 821 Z M485 -301 L344 -301 L401 0 C344 1 286 10 226 25 C159 42 105 63 39 92 L90 354 C149 313 209 282 268 260 C327 238 386 226 444 223 L512 569 C400 598 328 638 277 691 C225 746 199 812 199 900 C199 1013 242 1114 327 1193 C412 1272 522 1314 657 1319 L705 1556 L846 1556 L799 1319 C846 1316 901 1309 943 1301 C986 1293 1039 1280 1092 1262 L1042 1012 C999 1040 952 1060 911 1073 C863 1088 812 1097 758 1100 L694 782 C809 751 893 708 947 652 C1001 596 1028 527 1028 435 C1028 317 984 214 897 135 C807 53 688 10 543 0 L485 -301 L485 -301 Z " />
<glyph glyph-name="percent" unicode="&#x25;" horiz-adv-x="1293" d="M795 443 C762 412 745 374 745 326 C745 310 747 299 751 284 C755 269 759 258 767 245 C772 237 783 222 795 211 C812 195 830 185 851 177 C872 169 895 165 920 165 C969 165 1011 181 1044 212 C1077 243 1093 283 1093 325 C1093 369 1076 411 1044 442 C1017 468 974 489 919 489 C872 489 828 474 795 443 L795 443 Z M584 239 C577 266 573 296 573 327 C573 422 612 503 674 561 C737 620 823 654 921 654 C968 654 1010 646 1051 629 C1091 612 1135 583 1160 558 C1174 544 1175 542 1179 538 C1182 534 1193 521 1195 518 C1196 516 1196 516 1209 496 C1219 480 1221 477 1223 474 C1226 469 1232 455 1234 451 C1243 431 1250 408 1254 390 C1258 371 1260 346 1260 325 C1260 240 1226 156 1164 95 C1107 39 1021 0 918 0 C871 0 826 8 784 24 C747 38 709 59 672 94 C652 113 632 137 617 162 C600 190 590 215 584 239 L584 239 Z M1252 873 L42 431 L42 570 L1252 1018 L1252 873 L1252 873 Z M246 1220 C214 1190 198 1147 198 1104 C198 1060 214 1019 245 989 C274 961 319 943 371 943 C395 943 418 947 439 955 C458 962 476 971 496 990 C513 1006 526 1023 535 1042 C544 1061 548 1081 548 1103 C548 1149 531 1188 497 1219 C463 1250 418 1266 371 1266 C324 1266 278 1250 246 1220 L246 1220 Z M129 871 C72 926 33 1010 33 1105 C33 1198 70 1281 129 1339 C191 1400 277 1432 379 1432 C381 1432 394 1432 405 1431 C416 1430 428 1428 439 1426 C446 1425 455 1423 472 1418 C492 1412 501 1408 504 1407 C527 1398 542 1391 565 1377 C581 1367 600 1353 617 1337 C648 1308 674 1273 693 1231 C711 1191 720 1149 720 1103 C720 1059 712 1017 695 978 C678 939 652 904 619 873 C590 846 552 820 506 802 C464 786 419 778 373 778 C284 778 195 807 129 871 L129 871 Z " />
<glyph glyph-name="ampersand" unicode="&#x26;" horiz-adv-x="1233" d="M774 0 L739 72 C682 39 623 13 564 -4 C504 -21 446 -29 387 -29 C265 -29 157 5 80 77 C5 148 -33 246 -33 361 C-33 470 1 572 66 666 C133 763 226 843 350 913 C328 964 321 987 312 1021 C304 1053 299 1079 299 1118 C299 1234 343 1338 432 1411 C520 1483 645 1520 794 1520 C843 1520 888 1516 933 1509 C977 1502 1019 1492 1065 1477 L1016 1221 C980 1244 941 1262 898 1275 C855 1288 811 1294 769 1294 C706 1294 662 1281 633 1259 C602 1235 586 1200 586 1158 C586 1133 592 1104 605 1065 C618 1025 637 978 664 920 L885 440 C913 479 935 524 951 575 C967 626 976 683 979 745 L1214 745 C1207 640 1183 546 1143 463 C1103 379 1047 307 975 246 L1090 0 L774 0 L774 0 Z M653 262 L436 731 C376 696 330 654 299 605 C267 554 252 496 252 440 C252 375 273 317 315 273 C357 229 413 207 473 207 C502 207 532 212 562 221 C592 230 622 243 653 262 L653 262 Z " />
<glyph glyph-name="quotesingle" unicode="&#x27;" horiz-adv-x="1233" d="M743 1493 L743 938 L487 938 L487 1493 L743 1493 L743 1493 Z " />
<glyph glyph-name="parenleft" unicode="&#x28;" horiz-adv-x="1233" d="M784 1554 L1009 1554 C854 1346 737 1142 659 941 C581 740 542 542 542 346 C542 252 551 152 570 50 C590 -58 619 -165 655 -270 L430 -270 C378 -161 336 -48 308 67 C281 177 268 286 268 393 C268 590 312 781 398 974 C484 1167 608 1355 784 1554 L784 1554 Z " />
<glyph glyph-name="parenright" unicode="&#x29;" horiz-adv-x="1233" d="M478 -270 L253 -270 C408 -62 525 143 603 344 C681 545 720 743 720 939 C720 1033 711 1132 692 1235 C673 1337 645 1443 607 1554 L832 1554 C886 1440 927 1328 954 1218 C981 1108 994 998 994 892 C994 699 951 503 865 310 C780 119 649 -77 478 -270 L478 -270 Z " />
<glyph glyph-name="asterisk" unicode="&#x2a;" horiz-adv-x="1233" d="M347 478 L230 562 L470 930 L109 1087 L155 1217 L526 1095 L546 1515 L682 1515 L702 1095 L1073 1217 L1119 1087 L758 930 L998 562 L881 478 L614 831 L347 478 L347 478 Z " />
<glyph glyph-name="plus" unicode="&#x2b;" horiz-adv-x="1233" d="M735 1192 L735 762 L1165 762 L1165 524 L735 524 L735 92 L498 92 L498 524 L66 524 L66 762 L498 762 L498 1192 L735 1192 L735 1192 Z " />
<glyph glyph-name="comma" unicode="&#x2c;" horiz-adv-x="1233" d="M438 -406 L380 -275 L394 -269 C529 -211 626 -105 636 34 C627 33 621 32 609 32 C566 32 524 46 492 75 C462 102 443 139 443 196 C443 215 445 229 449 244 C454 262 461 276 466 285 C471 294 481 308 494 319 C512 335 529 345 551 353 C571 360 592 364 618 364 C640 364 658 361 676 356 C693 351 710 343 726 331 C742 319 753 306 764 289 C781 265 793 237 801 204 C809 171 813 134 813 93 C813 34 805 -20 789 -71 C773 -122 747 -172 718 -211 C653 -300 564 -358 451 -401 L438 -406 L438 -406 Z " />
<glyph glyph-name="hyphen" unicode="&#x2d;" horiz-adv-x="1233" d="M259 745 L1048 745 L992 454 L204 454 L259 745 L259 745 Z " />
<glyph glyph-name="period" unicode="&#x2e;" horiz-adv-x="1233" d="M436 143 C436 196 453 240 487 275 C521 309 563 326 612 326 C661 326 705 309 739 275 C773 241 790 195 790 141 C790 87 773 44 739 9 C705 -25 663 -42 614 -42 C565 -42 521 -25 487 9 C455 41 436 86 436 143 L436 143 Z " />
<glyph glyph-name="slash" unicode="&#x2f;" horiz-adv-x="1233" d="M852 1493 L1075 1493 L221 -190 L0 -190 L852 1493 L852 1493 Z " />
<glyph glyph-name="zero" unicode="0" horiz-adv-x="1293" d="M1096 1394 C1162 1311 1195 1185 1195 1023 C1195 900 1176 750 1138 606 C1102 470 1049 340 994 250 C969 209 936 164 899 127 C866 94 826 63 785 40 C704 -6 610 -29 504 -29 C361 -29 261 13 195 98 C131 180 98 301 98 477 C98 552 104 611 113 675 C124 753 136 814 155 886 C192 1026 242 1150 299 1243 C320 1277 343 1308 361 1329 C383 1355 406 1378 431 1399 C456 1420 481 1437 508 1452 C589 1497 680 1520 786 1520 C935 1520 1032 1475 1096 1394 L1096 1394 Z M379 226 C412 185 463 165 529 165 C558 165 582 169 607 177 C628 184 655 196 678 212 C720 241 763 292 794 351 C803 368 816 394 829 423 C841 450 851 477 860 502 C874 540 879 555 889 589 C895 610 906 651 914 685 C928 744 934 775 941 816 C949 863 954 900 957 939 C960 978 962 1019 962 1051 C962 1073 961 1095 960 1111 C959 1127 958 1140 954 1160 C953 1167 948 1190 945 1201 C943 1209 936 1228 931 1237 C928 1243 923 1252 914 1264 C899 1284 879 1301 854 1311 C829 1321 796 1326 766 1326 C711 1326 658 1309 614 1279 C563 1244 525 1192 497 1142 C450 1058 406 935 376 807 C344 670 329 531 329 433 C329 332 345 268 379 226 L379 226 Z M523 721 C526 738 537 792 540 801 C552 841 552 843 553 845 C556 855 567 887 573 903 C581 925 596 959 603 973 C631 1031 678 1086 717 1086 L724 1086 C726 1086 728 1085 731 1085 C773 1076 794 1033 794 958 L794 957 C793 953 793 949 793 945 L793 932 L793 931 C793 910 790 876 783 829 C778 796 772 765 768 749 C757 703 725 610 699 549 C679 502 661 469 641 445 C619 419 598 408 577 408 L573 408 C572 408 570 409 569 409 L565 409 C526 418 506 461 506 539 L506 551 C506 555 507 559 507 564 L507 577 C507 580 507 582 508 591 C516 678 517 687 523 721 L523 721 Z " />
<glyph glyph-name="one" unicode="1" horiz-adv-x="1233" d="M94 260 L424 260 L612 1229 L291 1153 L342 1419 L668 1493 L950 1493 L711 260 L1020 260 L969 0 L43 0 L94 260 L94 260 Z " />
<glyph glyph-name="two" unicode="2" horiz-adv-x="1233" d="M354 260 L971 260 L920 0 L-29 0 L20 252 L297 500 C427 616 385 577 442 628 C728 882 844 1035 844 1139 C844 1181 825 1221 788 1248 C751 1275 698 1288 635 1288 C580 1288 514 1278 447 1259 C387 1242 308 1212 225 1171 L276 1438 C349 1465 425 1486 492 1499 C563 1513 636 1520 697 1520 C824 1520 933 1489 1014 1426 C1088 1368 1135 1283 1135 1186 C1135 1012 982 798 681 542 L641 508 L354 260 L354 260 Z " />
<glyph glyph-name="three" unicode="3" horiz-adv-x="1233" d="M514 668 L356 668 L408 928 L565 928 C648 928 715 947 767 984 C820 1022 844 1070 844 1124 C844 1171 825 1207 787 1232 C752 1255 699 1270 622 1270 C569 1270 507 1263 441 1249 C374 1235 304 1215 231 1188 L285 1456 C357 1478 422 1493 486 1504 C550 1515 614 1520 667 1520 C807 1520 921 1485 998 1424 C1080 1359 1120 1266 1120 1164 C1120 1077 1091 998 1026 931 C961 864 871 823 764 805 C853 781 920 742 964 687 C1008 632 1030 563 1030 470 C1030 324 975 196 867 106 C759 16 606 -29 421 -29 C353 -29 284 -23 206 -10 C123 4 48 22 -31 45 L23 315 C89 283 158 260 223 245 C292 229 365 221 430 221 C546 221 619 247 669 290 C719 333 750 398 750 477 C750 542 729 588 686 620 C643 652 581 668 514 668 L514 668 Z " />
<glyph glyph-name="four" unicode="4" horiz-adv-x="1233" d="M772 1153 L289 575 L662 575 L772 1153 L772 1153 Z M811 1493 L1120 1493 L942 575 L1106 575 L1057 322 L893 322 L831 0 L549 0 L612 322 L18 322 L76 608 L811 1493 L811 1493 Z " />
<glyph glyph-name="five" unicode="5" horiz-adv-x="1233" d="M340 1493 L1151 1493 L1100 1233 L528 1233 L475 956 C497 965 520 971 544 975 C568 979 593 981 622 981 C753 981 863 938 936 865 C1010 791 1051 683 1051 545 C1051 377 991 231 873 127 C756 24 590 -29 387 -29 C325 -29 260 -24 197 -13 C133 -2 69 14 6 35 L57 301 C104 274 156 254 213 240 C270 226 331 219 391 219 C510 219 600 246 665 298 C731 351 764 424 764 509 C764 581 740 637 693 677 C646 717 582 737 498 737 C449 737 395 730 340 717 C286 704 233 685 178 659 L340 1493 L340 1493 Z " />
<glyph glyph-name="six" unicode="6" horiz-adv-x="1233" d="M803 550 C803 614 790 661 758 697 C727 731 685 748 636 748 C562 748 499 708 456 648 C408 581 383 492 383 408 C383 342 398 295 428 260 C456 228 497 207 551 207 C620 207 683 242 730 306 C776 369 803 458 803 550 L803 550 Z M1169 1458 L1118 1190 C1068 1226 1030 1243 988 1257 C941 1272 895 1280 846 1280 C742 1280 654 1244 583 1172 C512 1100 460 990 430 854 C470 897 515 930 566 952 C617 974 672 985 732 985 C842 985 930 948 995 874 C1058 802 1092 703 1092 565 C1092 391 1038 251 938 139 C837 26 712 -33 544 -33 C402 -33 287 9 210 93 C134 176 96 297 96 480 C96 612 116 752 157 891 C197 1027 254 1149 326 1247 C391 1336 465 1404 563 1451 C657 1496 766 1518 881 1518 C936 1518 977 1513 1024 1503 C1070 1493 1118 1478 1169 1458 L1169 1458 Z " />
<glyph glyph-name="seven" unicode="7" horiz-adv-x="1233" d="M262 1493 L1225 1493 L1184 1284 L428 0 L109 0 L844 1233 L211 1233 L262 1493 L262 1493 Z " />
<glyph glyph-name="eight" unicode="8" horiz-adv-x="1233" d="M778 474 C778 539 758 585 725 617 C693 648 645 668 579 668 C505 668 444 643 397 593 C351 544 326 475 326 405 C326 347 343 296 382 260 C419 226 470 209 528 209 C599 209 663 235 709 285 C754 334 778 402 778 474 L778 474 Z M434 799 C366 817 314 848 277 897 C243 942 223 1000 223 1075 C223 1191 271 1304 370 1391 C461 1471 586 1520 730 1520 C849 1520 950 1487 1025 1422 C1096 1360 1137 1272 1137 1161 C1137 1066 1107 981 1048 913 C989 845 909 803 809 786 C882 767 938 729 979 673 C1019 618 1040 551 1040 461 C1040 323 991 199 892 107 C801 23 669 -29 502 -29 C362 -29 252 7 178 71 C102 137 63 232 63 352 C63 465 98 562 162 639 C226 716 318 772 434 799 L434 799 Z M485 1070 C485 1023 500 981 530 950 C562 917 604 903 653 903 C711 903 770 923 813 963 C856 1003 877 1054 877 1116 C877 1169 862 1210 831 1240 C800 1269 757 1284 705 1284 C643 1284 589 1263 548 1223 C510 1186 485 1132 485 1070 L485 1070 Z " />
<glyph glyph-name="nine" unicode="9" horiz-adv-x="1233" d="M55 29 L106 297 C146 269 189 245 237 230 C284 215 330 207 379 207 C482 207 570 243 641 316 C718 395 765 504 795 633 C754 590 709 557 658 535 C607 513 554 502 494 502 C372 502 287 549 232 612 C163 691 135 800 135 919 C135 1092 194 1246 286 1350 C386 1463 526 1520 685 1520 C829 1520 943 1473 1015 1394 C1091 1311 1128 1185 1128 1008 C1128 877 1108 732 1068 596 C1028 460 971 337 899 238 C830 143 757 81 663 36 C566 -10 459 -31 345 -31 C290 -31 248 -26 201 -16 C160 -7 110 7 55 29 L55 29 Z M424 935 C424 864 439 824 469 790 C496 760 532 739 589 739 C660 739 719 772 768 839 C816 905 842 989 842 1078 C842 1141 829 1190 797 1227 C766 1263 724 1280 675 1280 C604 1280 543 1245 496 1179 C448 1112 424 1024 424 935 L424 935 Z " />
<glyph glyph-name="colon" unicode="&#x3a;" horiz-adv-x="1233" d="M581 854 C581 938 631 1020 716 1052 C738 1060 762 1065 788 1065 C837 1065 877 1048 903 1019 C931 988 941 943 941 904 C941 874 935 852 927 832 C904 775 861 733 806 711 C784 702 761 697 734 697 C681 697 644 716 620 743 C597 769 581 807 581 854 L581 854 Z M467 142 C467 226 517 308 602 340 C624 348 648 353 674 353 C723 353 763 336 789 307 C817 276 827 231 827 192 C827 162 821 140 813 120 C790 63 747 21 692 -1 C670 -10 647 -15 620 -15 C567 -15 530 4 506 31 C483 57 467 95 467 142 L467 142 Z " />
<glyph glyph-name="semicolon" unicode="&#x3b;" horiz-adv-x="1233" d="M720 679 C672 679 628 696 600 730 C576 759 567 797 567 836 C567 838 567 842 568 848 C570 864 569 859 570 867 C575 892 581 914 595 939 C607 961 621 979 641 996 C677 1027 720 1047 773 1047 C821 1047 863 1030 892 996 C915 969 927 935 927 891 C927 889 927 885 926 879 L924 861 C917 824 910 809 898 787 C885 764 872 747 852 730 C830 711 812 701 790 692 C768 683 744 679 720 679 L720 679 Z M373 -443 L335 -311 L347 -306 C510 -238 607 -132 639 -4 C632 -5 625 -5 620 -5 C571 -5 530 11 503 39 C481 62 470 91 470 128 C469 139 470 150 472 163 C480 212 504 254 541 283 C554 293 567 301 581 307 C593 313 608 319 624 322 C639 325 654 327 671 327 C732 327 779 303 807 251 C825 217 833 176 833 140 C833 118 830 82 826 54 C810 -59 760 -165 684 -249 C645 -292 601 -327 551 -359 C488 -399 435 -422 388 -438 L373 -443 L373 -443 Z " />
<glyph glyph-name="less" unicode="&#x3c;" horiz-adv-x="1233" d="M1145 926 L350 641 L1145 358 L1145 109 L88 524 L88 760 L1145 1176 L1145 926 L1145 926 Z " />
<glyph glyph-name="equal" unicode="&#x3d;" horiz-adv-x="1233" d="M88 532 L1145 532 L1145 295 L88 295 L88 532 L88 532 Z M88 987 L1145 987 L1145 752 L88 752 L88 987 L88 987 Z " />
<glyph glyph-name="greater" unicode="&#x3e;" horiz-adv-x="1233" d="M88 926 L88 1176 L1145 760 L1145 524 L88 109 L88 358 L883 641 L88 926 L88 926 Z " />
<glyph glyph-name="question" unicode="&#x3f;" horiz-adv-x="1233" d="M406 83 L406 94 L406 113 C406 126 413 148 421 164 C431 185 450 216 480 240 C510 264 548 279 593 279 C655 279 703 251 724 192 C730 175 733 157 733 136 C733 73 707 28 673 -3 C638 -35 592 -55 542 -55 C495 -55 464 -38 442 -13 C421 11 406 46 406 83 L406 83 Z M732 457 L512 457 L531 585 C539 639 557 690 586 737 C618 789 661 834 728 891 L832 980 C880 1021 915 1056 932 1081 C951 1108 963 1137 968 1167 C969 1170 969 1173 969 1176 C970 1179 970 1181 970 1184 C970 1187 970 1189 971 1192 L971 1199 C971 1237 957 1273 930 1298 C912 1315 890 1327 864 1336 C838 1345 806 1349 775 1349 C718 1349 660 1335 606 1315 C541 1291 475 1256 406 1214 L378 1197 L414 1425 L421 1428 C438 1438 473 1455 490 1463 C511 1473 538 1484 559 1492 C582 1501 597 1506 627 1514 C691 1531 754 1543 833 1543 C972 1543 1062 1506 1127 1443 C1148 1423 1160 1406 1171 1385 C1183 1364 1192 1342 1198 1317 C1204 1293 1207 1265 1207 1247 C1207 1228 1204 1196 1201 1173 C1194 1122 1175 1074 1142 1025 C1123 997 1106 978 1081 951 C1050 918 1025 896 988 865 L886 779 C873 768 838 736 820 718 C806 704 791 685 784 674 C768 650 758 621 754 597 L746 550 L732 457 L732 457 Z " />
<glyph glyph-name="at" unicode="&#x40;" horiz-adv-x="1233" d="M724 301 C792 301 854 335 898 392 C945 453 969 536 969 616 C969 675 956 713 929 742 C902 771 863 786 817 786 C750 786 688 755 642 697 C595 637 571 558 571 481 C571 431 581 381 611 347 C634 321 672 301 724 301 L724 301 Z M1067 135 L870 135 L887 217 C860 186 826 160 788 142 C741 120 700 115 664 115 C576 115 503 146 451 203 C395 264 371 348 371 448 C371 593 421 728 498 821 C584 925 699 973 810 973 C856 973 899 965 933 949 C969 932 997 905 1014 877 C1020 900 1025 923 1028 945 C1031 967 1032 990 1032 1004 C1032 1070 1009 1120 971 1153 C933 1186 874 1206 798 1206 C721 1206 641 1185 566 1143 C491 1101 423 1038 365 961 C299 873 255 779 226 690 C194 591 178 489 178 388 C178 231 217 102 295 9 C372 -82 482 -131 614 -131 C667 -131 720 -123 774 -107 C828 -91 882 -67 936 -35 L999 -209 C928 -247 860 -275 797 -293 C740 -309 671 -319 599 -319 C414 -319 263 -252 154 -128 C42 -1 -14 172 -14 386 C-14 497 1 604 30 709 C60 817 105 919 158 1004 C235 1128 330 1224 442 1293 C550 1359 670 1395 800 1395 C927 1395 1032 1361 1111 1293 C1193 1222 1229 1127 1229 1023 C1229 1006 1228 978 1226 960 C1225 950 1222 932 1214 892 L1067 135 L1067 135 Z " />
<glyph glyph-name="A" unicode="A" horiz-adv-x="1233" d="M717 1219 L453 612 L737 612 L717 1219 L717 1219 Z M582 1493 L942 1493 L1055 0 L762 0 L748 369 L348 369 L186 0 L-113 0 L582 1493 L582 1493 Z " />
<glyph glyph-name="B" unicode="B" horiz-adv-x="1233" d="M397 678 L311 236 L508 236 C612 236 689 258 738 303 C787 348 811 419 811 501 C811 572 793 610 758 637 C723 664 668 678 594 678 L397 678 L397 678 Z M510 1260 L442 913 L639 913 C720 913 781 931 822 968 C860 1002 883 1054 883 1123 C883 1176 869 1207 840 1228 C811 1249 767 1260 707 1260 L510 1260 L510 1260 Z M270 1495 L752 1495 C893 1495 999 1467 1071 1412 C1142 1357 1178 1275 1178 1164 C1178 1059 1146 971 1083 905 C1020 839 930 799 813 786 C901 779 978 748 1029 696 C1081 643 1106 568 1106 480 C1106 416 1093 346 1068 284 C1044 224 1008 169 961 127 C911 82 848 50 771 30 C694 10 591 0 461 0 L-20 0 L270 1495 L270 1495 Z " />
<glyph glyph-name="C" unicode="C" horiz-adv-x="1233" d="M1010 371 L946 43 C893 18 838 0 789 -11 C735 -23 679 -29 624 -29 C477 -29 345 13 257 108 C168 204 131 346 131 517 C131 652 154 803 202 948 C248 1087 312 1205 393 1296 C456 1367 531 1424 620 1463 C707 1501 802 1520 903 1520 C959 1520 1011 1514 1064 1502 C1107 1492 1165 1474 1219 1448 L1155 1120 C1122 1165 1081 1200 1033 1223 C984 1246 927 1257 879 1257 C825 1257 768 1243 715 1210 C659 1175 616 1123 584 1074 C537 1002 501 918 473 819 C443 712 430 617 430 537 C430 443 448 363 493 308 C535 257 596 231 677 231 C729 231 781 242 836 265 C893 289 949 324 1010 371 L1010 371 Z " />
<glyph glyph-name="D" unicode="D" horiz-adv-x="1233" d="M524 1227 L338 266 L434 266 C509 266 572 281 623 310 C678 341 714 385 743 442 C775 505 807 600 828 695 C850 795 860 893 860 960 C860 1057 839 1121 798 1163 C756 1206 692 1227 606 1227 L524 1227 L524 1227 Z M283 1493 L598 1493 C782 1493 930 1453 1025 1370 C1118 1289 1165 1162 1165 996 C1165 948 1161 876 1152 814 C1145 765 1129 677 1111 602 C1085 496 1048 402 1021 347 C982 267 935 208 897 171 C840 115 759 67 671 40 C585 13 470 0 322 0 L-8 0 L283 1493 L283 1493 Z " />
<glyph glyph-name="E" unicode="E" horiz-adv-x="1233" d="M958 0 L29 0 L317 1493 L1249 1493 L1198 1233 L563 1233 L500 911 L1075 911 L1026 651 L451 651 L375 260 L1010 260 L958 0 L958 0 Z " />
<glyph glyph-name="F" unicode="F" horiz-adv-x="1233" d="M1217 1233 L582 1233 L520 911 L1098 911 L1047 651 L469 651 L342 0 L47 0 L338 1493 L1268 1493 L1217 1233 L1217 1233 Z " />
<glyph glyph-name="G" unicode="G" horiz-adv-x="1233" d="M1130 803 L991 94 C944 55 888 24 823 3 C758 -18 687 -29 611 -29 C442 -29 318 25 235 115 C142 216 102 360 102 528 C102 655 125 806 174 949 C217 1074 284 1200 367 1294 C426 1361 502 1422 595 1463 C682 1501 777 1520 876 1520 C932 1520 984 1514 1037 1502 C1080 1492 1138 1474 1192 1448 L1126 1120 C1092 1165 1052 1199 1006 1222 C960 1245 909 1257 857 1257 C805 1257 759 1245 721 1228 C681 1210 643 1183 605 1141 C575 1108 551 1072 529 1031 C510 996 488 949 469 891 C450 834 432 766 420 702 C409 641 403 584 403 533 C403 424 431 353 467 309 C510 257 572 231 647 231 C673 231 692 234 715 240 C731 244 750 250 770 264 L827 555 L621 555 L670 803 L1130 803 L1130 803 Z " />
<glyph glyph-name="H" unicode="H" horiz-adv-x="1233" d="M283 1493 L578 1493 L467 924 L836 924 L946 1493 L1241 1493 L950 0 L655 0 L784 664 L416 664 L287 0 L-8 0 L283 1493 L283 1493 Z " />
<glyph glyph-name="I" unicode="I" horiz-adv-x="1233" d="M266 1233 L317 1493 L1206 1493 L1155 1233 L858 1233 L670 260 L967 260 L915 0 L27 0 L78 260 L375 260 L563 1233 L266 1233 L266 1233 Z " />
<glyph glyph-name="J" unicode="J" horiz-adv-x="1233" d="M-20 78 L45 422 C97 358 153 310 212 279 C271 247 334 231 406 231 C481 231 536 248 575 285 C613 321 640 382 659 479 L807 1233 L446 1233 L498 1493 L1153 1493 L954 479 C931 362 907 280 880 223 C854 168 819 121 772 82 C726 44 672 17 614 -1 C553 -20 484 -29 411 -29 C338 -29 261 -20 192 -3 C131 12 56 39 -20 78 L-20 78 Z " />
<glyph glyph-name="K" unicode="K" horiz-adv-x="1233" d="M270 1493 L565 1493 L457 936 L1020 1493 L1368 1493 L762 889 L1100 0 L797 0 L543 670 L371 500 L276 0 L-18 0 L270 1493 L270 1493 Z " />
<glyph glyph-name="L" unicode="L" horiz-adv-x="1233" d="M80 0 L371 1493 L666 1493 L426 260 L1057 260 L1006 0 L80 0 L80 0 Z " />
<glyph glyph-name="M" unicode="M" horiz-adv-x="1233" d="M231 1493 L584 1493 L633 838 L930 1493 L1290 1493 L1001 0 L748 0 L985 1198 L692 543 L473 543 L426 1198 L195 0 L-57 0 L231 1493 L231 1493 Z " />
<glyph glyph-name="N" unicode="N" horiz-adv-x="1233" d="M266 1493 L569 1493 L784 408 L995 1493 L1255 1493 L967 0 L674 0 L449 1085 L238 0 L-25 0 L266 1493 L266 1493 Z " />
<glyph glyph-name="O" unicode="O" horiz-adv-x="1233" d="M868 1020 C868 1100 855 1160 828 1200 C801 1240 760 1260 708 1260 C663 1260 626 1245 598 1225 C566 1202 536 1165 512 1121 C494 1088 482 1056 469 1017 C450 960 442 932 424 860 C403 775 390 711 380 646 C370 579 365 521 365 471 C365 391 378 331 405 292 C433 251 475 233 525 233 C565 233 602 245 635 269 C667 292 696 326 721 373 C736 401 753 442 767 483 C781 523 795 572 809 630 C830 716 843 782 853 846 C863 912 868 970 868 1020 L868 1020 Z M61 476 C61 592 78 733 111 870 C145 1010 193 1135 246 1229 C296 1317 360 1392 447 1445 C533 1497 632 1520 732 1520 C868 1520 982 1478 1058 1395 C1143 1302 1171 1167 1171 1015 C1171 903 1156 766 1122 622 C1091 491 1047 367 988 264 C932 166 869 96 786 46 C701 -5 603 -29 500 -29 C365 -29 250 12 173 98 C95 185 61 313 61 476 L61 476 Z " />
<glyph glyph-name="P" unicode="P" horiz-adv-x="1233" d="M553 1245 L469 807 L612 807 C712 807 785 832 831 875 C879 920 903 990 903 1071 C903 1138 887 1181 851 1207 C816 1232 757 1245 674 1245 L553 1245 L553 1245 Z M307 1493 L727 1493 C884 1493 1004 1463 1087 1402 C1171 1340 1210 1251 1210 1129 C1210 1062 1198 984 1174 909 C1149 831 1117 776 1079 731 C1027 670 962 627 885 600 C808 573 707 559 584 559 L420 559 L311 0 L16 0 L307 1493 L307 1493 Z " />
<glyph glyph-name="Q" unicode="Q" horiz-adv-x="1233" d="M535 -29 L508 -29 C363 -29 252 14 176 95 C96 181 61 306 61 474 C61 591 78 732 111 870 C144 1008 191 1133 244 1226 C294 1314 358 1391 448 1445 C528 1493 623 1520 732 1520 C873 1520 983 1475 1057 1397 C1139 1310 1171 1191 1171 1024 C1171 914 1157 777 1122 627 C1091 494 1046 361 990 262 C962 213 933 174 902 141 C867 104 825 70 776 39 L924 -147 L713 -281 L535 -29 L535 -29 Z M868 1020 C868 1100 855 1160 828 1200 C801 1240 760 1260 708 1260 C663 1260 626 1245 598 1225 C566 1202 536 1165 512 1121 C494 1088 482 1056 469 1017 C450 960 442 932 424 860 C403 775 390 711 380 646 C370 579 365 521 365 471 C365 391 378 331 405 292 C433 251 475 233 525 233 C565 233 602 245 635 269 C667 292 696 326 721 373 C736 401 753 442 767 483 C781 523 795 572 809 630 C830 716 843 782 853 846 C863 912 868 970 868 1020 L868 1020 Z " />
<glyph glyph-name="R" unicode="R" horiz-adv-x="1233" d="M788 705 C829 699 860 684 883 660 C906 636 928 591 944 537 L1108 0 L807 0 L701 376 C696 393 696 392 693 403 C654 530 609 590 535 590 L418 590 L303 0 L8 0 L299 1493 L709 1493 C864 1493 978 1464 1053 1406 C1125 1350 1165 1264 1165 1133 C1165 1014 1132 913 1067 838 C1002 763 909 718 788 705 L788 705 Z M547 1245 L467 838 L590 838 C683 838 751 861 795 902 C841 945 864 1010 864 1084 C864 1142 850 1181 818 1207 C787 1232 741 1245 680 1245 L547 1245 L547 1245 Z " />
<glyph glyph-name="S" unicode="S" horiz-adv-x="1233" d="M625 614 L506 664 C375 719 297 765 252 820 C214 866 190 927 190 1021 C190 1176 256 1299 351 1381 C454 1470 600 1520 770 1520 C834 1520 909 1513 971 1500 C1037 1486 1102 1463 1159 1438 L1102 1153 C1057 1194 1004 1226 943 1247 C882 1268 811 1278 748 1278 C656 1278 594 1257 549 1222 C500 1184 475 1131 475 1087 C475 1018 538 962 659 910 L666 907 L782 856 C882 812 952 759 996 700 C1041 639 1063 566 1063 472 C1063 326 1009 199 903 108 C800 20 650 -29 469 -29 C392 -29 319 -20 243 -3 C163 15 87 41 4 76 L63 381 C128 327 191 288 266 258 C336 230 403 215 479 215 C568 215 637 235 688 274 C739 313 764 366 764 429 C764 475 751 511 729 540 C706 570 671 595 625 614 L625 614 Z " />
<glyph glyph-name="T" unicode="T" horiz-adv-x="1233" d="M618 0 L324 0 L563 1235 L180 1235 L229 1493 L1288 1493 L1237 1235 L858 1235 L618 0 L618 0 Z " />
<glyph glyph-name="U" unicode="U" horiz-adv-x="1233" d="M68 551 L252 1493 L547 1493 L348 477 C348 476 348 474 347 471 C342 440 340 418 340 400 C340 349 355 306 386 276 C417 246 459 231 518 231 C587 231 646 251 689 292 C732 333 761 394 778 477 L977 1493 L1272 1493 L1087 551 C1063 428 1042 349 1012 279 C984 214 951 165 908 123 C859 75 803 38 729 10 C660 -16 585 -29 497 -29 C356 -29 242 4 163 70 C81 138 45 233 45 354 C45 382 47 408 51 444 C56 491 58 502 68 551 L68 551 Z " />
<glyph glyph-name="V" unicode="V" horiz-adv-x="1233" d="M518 242 L1024 1493 L1325 1493 L680 0 L268 0 L203 1493 L494 1493 L518 242 L518 242 Z " />
<glyph glyph-name="W" unicode="W" horiz-adv-x="1233" d="M143 1493 L397 1493 L289 397 L561 1106 L799 1106 L811 397 L1108 1493 L1370 1493 L909 0 L639 0 L627 784 L309 0 L41 0 L143 1493 L143 1493 Z " />
<glyph glyph-name="X" unicode="X" horiz-adv-x="1233" d="M1071 0 L780 0 L580 512 L180 0 L-143 0 L471 782 L184 1493 L475 1493 L662 1030 L1022 1493 L1343 1493 L770 756 L1071 0 L1071 0 Z " />
<glyph glyph-name="Y" unicode="Y" horiz-adv-x="1233" d="M145 1493 L438 1493 L625 844 L1036 1493 L1358 1493 L725 588 L610 0 L317 0 L432 588 L145 1493 L145 1493 Z " />
<glyph glyph-name="Z" unicode="Z" horiz-adv-x="1233" d="M281 1493 L1290 1493 L1241 1249 L365 260 L1065 260 L1014 0 L-33 0 L14 244 L872 1233 L229 1233 L281 1493 L281 1493 Z " />
<glyph glyph-name="bracketleft" unicode="&#x5b;" horiz-adv-x="1233" d="M709 1651 L1164 1651 L1136 1478 L896 1478 L645 -112 L885 -112 L857 -285 L402 -285 L709 1651 L709 1651 Z " />
<glyph glyph-name="backslash" unicode="&#x5c;" horiz-adv-x="1233" d="M543 1493 L741 -190 L539 -190 L340 1493 L543 1493 L543 1493 Z " />
<glyph glyph-name="bracketright" unicode="&#x5d;" horiz-adv-x="1233" d="M1047 1650 L740 -285 L285 -285 L313 -112 L553 -112 L804 1477 L564 1477 L592 1650 L1047 1650 L1047 1650 Z " />
<glyph glyph-name="asciicircum" unicode="&#x5e;" horiz-adv-x="1233" d="M739 1493 L1176 936 L934 936 L616 1237 L299 936 L57 936 L494 1493 L739 1493 L739 1493 Z " />
<glyph glyph-name="underscore" unicode="&#x5f;" horiz-adv-x="1233" d="M1233 -293 L1233 -483 L0 -483 L0 -293 L1233 -293 L1233 -293 Z " />
<glyph glyph-name="grave" unicode="&#x60;" horiz-adv-x="1233" d="M655 1638 L864 1262 L666 1262 L371 1638 L655 1638 L655 1638 Z " />
<glyph glyph-name="a" unicode="a" horiz-adv-x="1233" d="M803 530 L690 530 C575 530 490 513 435 478 C380 443 352 388 352 321 C352 273 366 240 393 213 C420 186 452 172 501 172 C573 172 641 203 694 265 C744 323 784 412 803 530 L803 530 Z M1114 639 L991 0 L700 0 L725 125 C678 72 627 34 572 10 C514 -16 446 -29 379 -29 C280 -29 195 -1 135 58 C73 119 47 205 47 300 C47 435 99 548 203 624 C306 699 456 737 651 737 L844 737 L852 786 C853 791 854 796 854 798 L854 815 C854 853 837 882 803 902 C769 922 719 932 657 932 C599 932 539 923 470 904 C404 886 334 859 248 819 L295 1069 C370 1095 442 1115 509 1128 C576 1141 637 1147 705 1147 C843 1147 954 1122 1029 1071 C1108 1018 1141 942 1141 845 C1141 821 1139 793 1134 756 C1129 718 1124 690 1114 639 L1114 639 Z " />
<glyph glyph-name="b" unicode="b" horiz-adv-x="1233" d="M599 209 C675 209 743 262 792 351 C842 442 870 564 870 682 C870 762 857 814 829 851 C801 888 761 907 714 907 C644 907 572 864 516 769 C464 680 434 558 434 444 C434 360 450 306 478 269 C507 231 550 209 599 209 L599 209 Z M381 207 L340 0 L47 0 L350 1556 L643 1556 L524 952 C566 1016 615 1065 670 1098 C725 1131 786 1147 848 1147 C942 1147 1024 1111 1081 1038 C1140 962 1165 855 1165 732 C1165 655 1155 565 1135 479 C1118 407 1089 319 1049 244 C1004 160 944 90 876 43 C808 -4 729 -29 651 -29 C574 -29 515 -5 470 34 C425 73 393 127 381 207 L381 207 Z " />
<glyph glyph-name="c" unicode="c" horiz-adv-x="1233" d="M1012 313 L956 37 C905 15 852 -2 798 -13 C743 -24 688 -29 636 -29 C497 -29 369 7 278 94 C186 182 150 306 150 448 C150 637 214 821 333 950 C452 1079 621 1147 812 1147 C878 1147 946 1139 996 1127 C1050 1114 1106 1092 1157 1063 L1104 795 C1063 834 1020 862 975 881 C930 900 881 909 829 909 C711 909 618 862 553 786 C482 703 446 589 446 466 C446 375 466 314 507 272 C548 230 611 209 690 209 C741 209 789 218 842 235 C891 251 946 275 1012 313 L1012 313 Z " />
<glyph glyph-name="d" unicode="d" horiz-adv-x="1233" d="M634 909 C560 909 495 863 442 768 C389 673 362 553 362 436 C362 351 376 304 404 267 C432 230 468 211 517 211 C593 211 661 257 716 350 C771 443 799 558 799 674 C799 762 783 812 754 850 C724 889 683 909 634 909 L634 909 Z M854 911 L979 1556 L1272 1556 L969 0 L678 0 L709 166 C665 102 616 54 561 21 C506 -12 447 -29 382 -29 C287 -29 209 8 152 81 C95 154 66 252 66 386 C66 465 76 553 97 639 C118 725 151 812 184 874 C227 955 286 1026 358 1076 C428 1125 502 1149 581 1149 C655 1149 717 1128 766 1086 C811 1047 844 988 854 911 L854 911 Z " />
<glyph glyph-name="e" unicode="e" horiz-adv-x="1233" d="M1044 324 L993 55 C930 27 864 6 795 -8 C726 -22 654 -29 583 -29 C416 -29 291 10 205 89 C117 170 76 288 76 438 C76 529 91 621 120 709 C150 799 191 873 244 938 C301 1007 370 1060 444 1095 C521 1131 605 1149 693 1149 C827 1149 948 1108 1030 1030 C1106 958 1155 845 1155 713 C1155 686 1153 642 1149 607 C1147 590 1137 519 1128 465 L369 465 C367 454 366 443 365 433 L362 403 C362 330 388 285 429 254 C474 220 539 203 629 203 C698 203 771 213 843 234 C915 255 982 285 1044 324 L1044 324 Z M410 684 L876 684 C879 693 881 703 882 712 C883 721 883 729 883 737 C883 794 866 838 832 871 C798 904 751 920 692 920 C625 920 568 900 521 861 C474 822 437 763 410 684 L410 684 Z " />
<glyph glyph-name="f" unicode="f" horiz-adv-x="1233" d="M856 1196 L840 1120 L1184 1120 L1141 895 L797 895 L623 0 L330 0 L504 895 L231 895 L274 1120 L547 1120 L563 1198 C594 1349 639 1437 697 1483 C758 1531 864 1556 1028 1556 L1268 1556 L1225 1331 L995 1331 C952 1331 920 1322 901 1304 C882 1286 867 1248 856 1196 L856 1196 Z " />
<glyph glyph-name="g" unicode="g" horiz-adv-x="1233" d="M521 246 C594 246 665 291 720 379 C775 468 803 581 803 689 C803 757 792 815 762 855 C733 893 693 909 649 909 C573 909 502 860 450 777 C395 689 367 573 367 465 C367 398 378 340 407 301 C434 265 473 246 521 246 L521 246 Z M1190 1120 L987 84 C952 -95 893 -228 796 -309 C704 -386 567 -424 386 -424 C320 -424 257 -419 196 -409 C135 -399 76 -384 18 -365 L72 -100 C122 -130 175 -153 230 -168 C285 -183 342 -190 396 -190 C484 -190 548 -171 595 -132 C647 -89 672 -29 688 51 L715 184 C679 129 635 87 584 59 C532 30 475 16 409 16 C308 16 226 48 161 121 C98 192 68 282 68 407 C68 493 82 589 110 683 C140 784 180 866 225 932 C273 1002 330 1055 396 1093 C463 1132 531 1151 602 1151 C671 1151 729 1133 774 1096 C819 1059 848 1007 862 938 L897 1120 L1190 1120 L1190 1120 Z " />
<glyph glyph-name="h" unicode="h" horiz-adv-x="1233" d="M1102 728 L961 0 L668 0 L801 682 C806 709 808 729 809 735 C810 752 811 770 811 783 C811 821 803 855 782 877 C763 897 735 907 699 907 C640 907 593 880 557 836 C517 787 490 717 473 629 L352 0 L59 0 L362 1556 L653 1556 L537 952 C570 1015 617 1064 669 1096 C724 1130 787 1147 857 1147 C938 1147 1005 1124 1051 1078 C1095 1034 1120 969 1120 880 C1120 862 1119 838 1116 813 C1114 797 1108 758 1102 728 L1102 728 Z " />
<glyph glyph-name="i" unicode="i" horiz-adv-x="1233" d="M634 1665 L927 1665 L860 1323 L567 1323 L634 1665 L634 1665 Z M816 1121 L650 365 C643 333 646 340 644 329 C642 318 641 311 641 303 C641 280 649 258 672 244 C693 231 729 225 781 225 L1059 225 L1014 0 L717 0 C575 0 484 19 427 57 C365 98 342 160 342 237 C342 259 344 277 347 300 C350 324 354 350 361 379 L481 896 L175 896 L218 1121 L816 1121 L816 1121 Z " />
<glyph glyph-name="j" unicode="j" horiz-adv-x="1233" d="M942 1120 L733 43 C708 -85 688 -152 669 -196 C649 -243 622 -284 592 -314 C555 -351 507 -380 451 -398 C398 -415 331 -424 244 -424 L-63 -424 L-18 -199 L213 -199 C280 -199 330 -181 364 -146 C402 -106 424 -38 440 43 L606 895 L309 895 L352 1120 L942 1120 L942 1120 Z M983 1323 L690 1323 L756 1665 L1049 1665 L983 1323 L983 1323 Z " />
<glyph glyph-name="k" unicode="k" horiz-adv-x="1233" d="M383 1556 L676 1556 L524 774 L928 1120 L1298 1120 L793 702 L1106 0 L795 0 L573 524 L457 428 L375 0 L82 0 L383 1556 L383 1556 Z " />
<glyph glyph-name="l" unicode="l" horiz-adv-x="1233" d="M874 1556 L625 365 C618 333 621 340 619 329 C617 318 616 311 616 303 C616 280 624 258 647 244 C668 231 704 225 756 225 L1034 225 L989 0 L692 0 C550 0 459 19 402 57 C348 93 317 149 317 238 C317 261 319 277 322 300 C326 326 330 350 336 379 L539 1331 L233 1331 L276 1556 L874 1556 L874 1556 Z " />
<glyph glyph-name="m" unicode="m" horiz-adv-x="1233" d="M770 1008 C791 1051 823 1085 866 1110 C909 1135 956 1147 1004 1147 C1067 1147 1117 1127 1152 1092 C1191 1052 1206 995 1206 931 C1206 908 1204 875 1201 843 C1197 807 1187 755 1180 719 L1040 0 L801 0 L940 719 C946 750 950 771 954 801 C957 821 958 837 958 848 C958 878 950 896 941 907 C929 921 912 928 889 928 C857 928 832 913 813 883 C793 851 777 797 762 719 L623 0 L383 0 L524 719 C527 735 534 773 537 794 C540 816 541 833 541 845 C541 873 535 893 523 907 C511 921 494 928 471 928 C440 928 415 914 397 885 C376 852 361 798 346 719 L207 0 L-33 0 L184 1120 L397 1120 L375 1004 C402 1049 436 1085 477 1110 C517 1135 560 1147 606 1147 C652 1147 690 1135 719 1110 C748 1085 765 1051 770 1008 L770 1008 Z " />
<glyph glyph-name="n" unicode="n" horiz-adv-x="1233" d="M1102 728 L961 0 L668 0 L801 682 C806 709 808 729 809 735 C810 752 811 770 811 783 C811 821 803 855 782 877 C763 897 735 907 699 907 C643 907 597 883 558 835 C519 787 490 718 473 629 L352 0 L59 0 L276 1120 L569 1120 L537 952 C570 1015 617 1064 669 1096 C724 1130 787 1147 857 1147 C938 1147 1005 1124 1051 1078 C1095 1034 1120 969 1120 880 C1120 862 1119 838 1116 813 C1114 797 1108 758 1102 728 L1102 728 Z " />
<glyph glyph-name="o" unicode="o" horiz-adv-x="1233" d="M850 672 C850 763 833 817 804 853 C771 893 724 911 673 911 C591 911 520 865 466 776 C411 684 383 561 383 449 C383 378 394 312 431 267 C459 233 504 207 563 207 C640 207 712 252 767 343 C817 426 850 545 850 672 L850 672 Z M88 442 C88 630 144 815 254 949 C360 1078 510 1149 689 1149 C822 1149 943 1110 1025 1030 C1109 948 1145 827 1145 676 C1145 485 1088 303 980 171 C868 35 714 -29 543 -29 C392 -29 279 21 208 91 C123 174 88 294 88 442 L88 442 Z " />
<glyph glyph-name="p" unicode="p" horiz-adv-x="1233" d="M379 207 L256 -426 L-37 -426 L264 1120 L557 1120 L524 952 C571 1017 622 1066 677 1099 C729 1130 789 1147 854 1147 C949 1147 1027 1111 1084 1038 C1141 965 1169 867 1169 734 C1169 655 1159 567 1138 480 C1117 393 1086 310 1051 244 C1005 158 947 91 877 43 C807 -5 733 -29 654 -29 C580 -29 519 -8 471 33 C423 74 392 132 379 207 L379 207 Z M601 209 C681 209 747 266 794 350 C845 441 874 565 874 683 C874 762 861 814 833 851 C805 888 765 907 718 907 C644 907 573 860 519 769 C466 679 436 559 436 444 C436 371 448 311 480 269 C508 232 551 209 601 209 L601 209 Z " />
<glyph glyph-name="q" unicode="q" horiz-adv-x="1233" d="M854 911 L893 1120 L1186 1120 L885 -426 L594 -426 L709 166 C667 103 618 54 563 21 C508 -12 448 -29 385 -29 C292 -29 210 8 153 81 C96 154 68 259 68 387 C68 464 78 553 99 639 C120 726 149 803 187 874 C233 959 288 1027 359 1077 C427 1124 503 1149 580 1149 C656 1149 720 1125 764 1087 C808 1049 842 989 854 911 L854 911 Z M634 909 C560 909 495 863 442 768 C389 673 362 553 362 436 C362 351 376 305 404 268 C432 231 469 211 519 211 C596 211 662 257 717 350 C771 442 799 555 799 674 C799 752 787 807 754 850 C724 889 683 909 634 909 L634 909 Z " />
<glyph glyph-name="r" unicode="r" horiz-adv-x="1233" d="M1227 1090 L1174 815 C1140 846 1101 867 1067 879 C1027 893 978 899 930 899 C827 899 741 872 679 811 C621 754 576 657 549 516 L449 0 L154 0 L373 1120 L666 1120 L631 946 C672 1010 726 1060 792 1095 C858 1130 931 1147 1009 1147 C1051 1147 1091 1142 1128 1132 C1165 1122 1198 1108 1227 1090 L1227 1090 Z " />
<glyph glyph-name="s" unicode="s" horiz-adv-x="1233" d="M1094 1085 L1044 831 C994 866 940 893 882 911 C824 929 763 938 705 938 C638 938 590 926 553 903 C515 879 498 847 498 810 C498 779 510 755 535 737 C561 718 612 697 700 672 L774 651 C862 626 924 588 961 544 C999 499 1020 438 1020 359 C1020 239 971 141 884 75 C791 5 656 -29 501 -29 C431 -29 352 -22 293 -12 C229 -1 156 18 90 41 L141 297 C205 256 258 232 322 212 C383 193 443 182 510 182 C583 182 641 195 682 220 C723 245 743 279 743 326 C743 362 731 380 712 395 C685 416 630 439 549 461 L461 485 C388 505 325 540 282 592 C246 636 225 691 225 767 C225 884 274 980 360 1045 C446 1110 573 1147 725 1147 C786 1147 856 1141 909 1132 C962 1123 1037 1105 1094 1085 L1094 1085 Z " />
<glyph glyph-name="t" unicode="t" horiz-adv-x="1233" d="M848 1438 L786 1120 L1169 1120 L1126 895 L743 895 L639 365 C638 358 635 349 633 330 C632 320 631 313 631 305 C631 278 641 256 661 244 C681 231 717 225 770 225 L995 225 L952 0 L707 0 C566 0 475 19 418 57 C357 97 332 158 332 234 C332 256 334 272 337 295 C339 311 344 347 350 379 L451 895 L164 895 L207 1120 L494 1120 L555 1438 L848 1438 L848 1438 Z " />
<glyph glyph-name="u" unicode="u" horiz-adv-x="1233" d="M123 391 L266 1120 L557 1120 L426 436 C423 419 421 405 419 383 C417 362 416 351 416 336 C416 289 426 264 445 243 C462 225 486 211 529 211 C587 211 632 236 668 282 C706 330 735 401 752 489 L874 1120 L1165 1120 L948 0 L655 0 L688 166 C656 100 612 57 559 24 C498 -14 438 -29 372 -29 C288 -29 221 -5 175 42 C129 89 106 155 106 244 C106 262 107 284 110 308 C111 312 115 352 123 391 L123 391 Z " />
<glyph glyph-name="v" unicode="v" horiz-adv-x="1233" d="M1231 1120 L680 0 L311 0 L172 1120 L455 1120 L535 242 L924 1120 L1231 1120 L1231 1120 Z " />
<glyph glyph-name="w" unicode="w" horiz-adv-x="1233" d="M96 1120 L336 1120 L303 262 L530 827 L760 827 L782 262 L1073 1120 L1325 1120 L907 0 L627 0 L608 590 L369 0 L90 0 L96 1120 L96 1120 Z " />
<glyph glyph-name="x" unicode="x" horiz-adv-x="1233" d="M1227 1120 L750 567 L1028 0 L729 0 L559 356 L256 0 L-76 0 L436 594 L178 1120 L479 1120 L627 803 L895 1120 L1227 1120 L1227 1120 Z " />
<glyph glyph-name="y" unicode="y" horiz-adv-x="1233" d="M1257 1120 L551 -121 C477 -251 415 -334 358 -372 C307 -406 233 -424 150 -424 L-90 -424 L-45 -201 L72 -201 C131 -201 179 -190 209 -171 C241 -151 279 -105 319 -29 L358 45 L141 1120 L438 1120 L565 420 L948 1120 L1257 1120 L1257 1120 Z " />
<glyph glyph-name="z" unicode="z" horiz-adv-x="1233" d="M293 1120 L1188 1120 L1143 891 L436 219 L1012 219 L969 0 L49 0 L94 229 L801 901 L250 901 L293 1120 L293 1120 Z " />
<glyph glyph-name="braceleft" unicode="&#x7b;" horiz-adv-x="1233" d="M879 -143 L842 -334 L694 -334 C563 -334 470 -316 414 -280 C360 -245 330 -187 330 -102 C330 -87 331 -68 334 -49 C336 -38 340 -4 348 35 L391 250 C393 260 401 304 404 328 C407 350 408 365 408 377 C408 433 387 465 345 486 C309 504 247 516 163 516 L101 516 L138 707 L229 707 C324 707 393 725 436 762 C479 799 510 869 530 973 L571 1188 C600 1340 647 1437 708 1484 C770 1532 888 1556 1061 1556 L1210 1556 L1174 1366 L1051 1366 C981 1366 931 1352 902 1323 C873 1295 849 1239 831 1139 L793 930 C774 826 742 744 698 696 C656 650 592 623 506 612 C569 598 615 577 643 548 C669 521 684 483 684 426 C684 411 683 387 680 364 C678 347 675 326 668 291 L627 86 C619 48 618 42 614 12 C611 -11 610 -19 610 -32 C610 -75 621 -101 644 -118 C667 -135 705 -143 758 -143 L879 -143 L879 -143 Z " />
<glyph glyph-name="bar" unicode="&#x7c;" horiz-adv-x="1233" d="M729 1565 L729 -483 L502 -483 L502 1565 L729 1565 L729 1565 Z " />
<glyph glyph-name="braceright" unicode="&#x7d;" horiz-adv-x="1233" d="M6 -143 L129 -143 C193 -143 247 -128 276 -100 C306 -71 330 -9 348 86 L387 291 C407 396 438 476 482 524 C524 570 588 599 674 612 C611 623 566 642 538 670 C510 698 496 737 496 792 C496 807 497 828 500 852 C501 860 508 911 512 930 L553 1139 C558 1158 562 1182 566 1214 C571 1248 570 1246 569 1257 C569 1294 559 1325 536 1342 C514 1358 476 1366 422 1366 L301 1366 L338 1556 L485 1556 C622 1556 717 1540 772 1508 C827 1476 854 1419 854 1351 C854 1317 847 1267 834 1202 L831 1187 L790 972 C786 951 782 927 780 911 C777 890 776 877 776 864 C776 796 802 763 839 742 C880 719 940 707 1017 707 L1079 707 L1042 516 L950 516 C857 516 788 497 744 458 C700 419 668 350 649 250 L608 35 C580 -112 533 -211 466 -260 C400 -309 284 -334 119 -334 L-31 -334 L6 -143 L6 -143 Z " />
<glyph glyph-name="asciitilde" unicode="&#x7e;" horiz-adv-x="1233" d="M1145 811 L1145 578 C1095 538 1048 510 999 491 C951 472 900 463 850 463 C775 463 718 483 645 514 C615 527 616 526 612 528 C561 551 518 566 484 574 C449 582 415 586 381 586 C329 586 280 576 233 557 C194 541 142 512 88 465 L88 694 C140 735 190 764 239 782 C288 800 342 809 394 809 C429 809 467 805 498 798 C529 791 580 775 622 756 L655 741 C736 704 796 686 863 686 C915 686 958 697 1003 717 C1048 737 1094 766 1145 811 L1145 811 Z " />
<glyph glyph-name="nonbreakingspace" unicode="&#xa0;" horiz-adv-x="1233" d="" />
<glyph glyph-name="exclamdown" unicode="&#xa1;" horiz-adv-x="1233" d="M840 1210 L573 1210 L629 1493 L895 1493 L840 1210 L840 1210 Z M604 0 L338 0 L465 655 L567 1012 L766 1012 L731 655 L604 0 L604 0 Z " />
<glyph glyph-name="cent" unicode="&#xa2;" horiz-adv-x="1233" d="M1102 1077 L1049 813 C1019 840 984 862 949 877 C916 891 873 902 830 907 L695 215 C738 218 781 228 824 243 C869 259 909 280 952 307 L901 43 C860 22 818 6 776 -5 C734 -16 689 -23 647 -25 L592 -313 L451 -313 L506 -25 C377 -10 277 37 208 116 C139 195 104 299 104 438 C104 540 123 636 159 727 C197 823 253 908 315 971 C364 1021 425 1067 503 1099 C571 1127 649 1144 733 1145 L788 1432 L930 1432 L875 1145 C911 1143 951 1135 985 1125 C1023 1114 1062 1098 1102 1077 L1102 1077 Z M552 215 L688 907 C597 897 521 849 459 762 C398 677 365 575 365 463 C365 383 382 329 417 285 C450 243 493 217 552 215 L552 215 Z " />
<glyph glyph-name="sterling" unicode="&#xa3;" horiz-adv-x="1233" d="M1245 1456 L1192 1190 C1154 1216 1108 1240 1073 1252 C1039 1264 993 1272 952 1272 C882 1272 826 1250 784 1205 C743 1161 711 1093 692 995 L659 819 L995 819 L952 594 L614 594 L551 260 L1032 260 L981 0 L-23 0 L29 260 L264 260 L328 594 L129 594 L174 819 L373 819 L410 1016 C444 1197 506 1325 589 1402 C674 1481 799 1520 952 1520 C1007 1520 1054 1515 1102 1504 C1150 1493 1198 1477 1245 1456 L1245 1456 Z " />
<glyph glyph-name="currency" unicode="&#xa4;" horiz-adv-x="1233" d="M827 642 C827 690 809 735 778 766 C746 798 700 815 653 815 C607 815 563 799 530 767 C500 738 479 694 479 643 C479 597 496 552 529 518 C560 486 604 467 654 467 C701 467 744 484 777 518 C810 552 827 595 827 642 L827 642 Z M819 938 L991 1108 L1118 979 L948 809 C963 782 975 754 982 727 C989 699 993 670 993 641 C993 613 989 579 982 554 C976 533 963 502 946 477 L1118 307 L987 176 L817 348 C788 329 769 321 741 313 C716 306 689 301 656 301 C626 301 600 305 572 312 C544 319 515 329 485 344 L315 176 L186 305 L356 475 C341 503 331 528 323 559 C316 585 311 607 311 642 C311 677 316 704 323 729 C329 751 338 776 358 807 L186 977 L317 1108 L483 936 C510 952 541 965 566 972 C593 979 623 983 652 983 C680 983 706 979 733 972 C760 965 788 953 819 938 L819 938 Z " />
<glyph glyph-name="yen" unicode="&#xa5;" horiz-adv-x="1233" d="M127 1493 L444 1493 L618 893 L1026 1493 L1343 1493 L969 965 L1192 965 L1155 778 L834 778 L719 627 L1126 627 L1090 438 L678 438 L592 0 L299 0 L383 438 L-29 438 L8 627 L416 627 L358 778 L37 778 L74 965 L297 965 L127 1493 L127 1493 Z " />
<glyph glyph-name="brokenbar" unicode="&#xa6;" horiz-adv-x="1233" d="M729 408 L729 -350 L502 -350 L502 408 L729 408 L729 408 Z M729 1432 L729 674 L502 674 L502 1432 L729 1432 L729 1432 Z " />
<glyph glyph-name="section" unicode="&#xa7;" horiz-adv-x="1233" d="M729 741 L649 795 C646 795 635 805 608 823 C555 859 598 830 530 877 C492 849 461 817 441 789 C418 757 410 731 410 704 C410 681 416 659 428 639 C440 619 458 601 483 584 L561 530 C573 522 566 527 612 496 C637 479 655 468 682 451 C720 477 749 505 770 534 C793 566 801 593 801 619 C801 641 795 664 782 685 C770 705 752 725 729 741 L729 741 Z M1059 1460 L1014 1231 C969 1254 921 1272 881 1282 C837 1293 793 1298 753 1298 C694 1298 651 1287 620 1264 C589 1241 573 1208 573 1169 C573 1139 583 1114 604 1090 C630 1060 674 1029 743 985 L848 918 C912 877 961 833 990 791 C1020 748 1032 704 1032 656 C1032 598 1014 546 977 496 C940 446 883 399 807 354 C839 323 861 291 874 260 C888 227 895 190 895 149 C895 47 853 -40 776 -101 C700 -161 591 -195 458 -195 C407 -195 350 -190 291 -180 C232 -170 169 -155 104 -135 L150 94 C197 73 246 56 303 44 C356 33 408 27 453 27 C515 27 559 38 590 61 C621 84 637 119 637 151 C637 203 596 254 485 328 L467 340 L367 408 C298 455 250 492 218 538 C194 573 178 613 178 669 C178 732 198 789 239 840 C279 890 338 934 414 967 C380 994 355 1024 339 1057 C323 1090 315 1126 315 1172 C315 1273 354 1358 433 1423 C507 1484 606 1520 739 1520 C789 1520 839 1515 892 1505 C945 1495 1001 1480 1059 1460 L1059 1460 Z " />
<glyph glyph-name="dieresis" unicode="&#xa8;" horiz-adv-x="1233" d="M858 1585 L1096 1585 L1047 1339 L811 1339 L858 1585 L858 1585 Z M463 1585 L700 1585 L651 1339 L416 1339 L463 1585 L463 1585 Z " />
<glyph glyph-name="copyright" unicode="&#xa9;" horiz-adv-x="1233" d="M616 1358 C701 1358 779 1343 852 1313 C927 1282 995 1235 1051 1178 C1113 1115 1158 1045 1187 977 C1218 904 1233 825 1233 742 C1233 658 1218 579 1188 508 C1158 437 1111 366 1052 307 C997 252 927 203 851 171 C778 140 700 125 616 125 C528 125 454 141 382 171 C309 202 239 249 181 307 C125 363 76 434 45 508 C15 579 0 657 0 741 C0 824 15 904 46 977 C76 1048 121 1116 182 1178 C244 1241 311 1284 381 1313 C454 1343 532 1358 616 1358 L616 1358 Z M617 1229 C539 1229 484 1215 432 1193 C380 1171 324 1137 274 1086 C227 1038 190 982 167 928 C143 871 131 808 131 742 C131 676 143 615 167 558 C192 499 228 448 274 401 C323 351 374 317 431 293 C492 267 550 256 616 256 C683 256 741 267 802 293 C855 316 908 350 958 400 C1002 444 1042 501 1066 558 C1090 615 1102 675 1102 743 C1102 814 1089 872 1066 927 C1040 989 1005 1038 959 1085 C913 1132 860 1169 802 1193 C738 1220 680 1229 617 1229 L617 1229 Z M848 1049 L848 881 C813 902 781 917 751 926 C720 935 690 940 655 940 C590 940 542 922 507 888 C471 853 453 804 453 741 C453 678 471 629 506 595 C541 560 592 543 658 543 C697 543 728 549 758 558 C788 567 814 578 848 602 L848 434 C811 423 775 414 740 408 C705 402 671 399 637 399 C529 399 435 429 367 492 C299 555 266 643 266 741 C266 850 306 935 367 991 C429 1048 522 1083 636 1083 C670 1083 713 1080 745 1075 C776 1070 817 1059 848 1049 L848 1049 Z " />
<glyph glyph-name="ordfeminine" unicode="&#xaa;" horiz-adv-x="1233" d="M1032 1165 L944 717 L737 717 L756 805 C723 767 691 743 649 725 C607 707 561 698 511 698 C436 698 380 718 338 759 C295 800 274 854 274 926 C274 1020 309 1098 386 1153 C460 1206 566 1233 705 1233 L840 1233 L846 1268 C847 1270 848 1273 848 1275 L848 1286 C848 1313 836 1333 812 1347 C787 1361 750 1368 708 1368 C665 1368 624 1361 575 1348 C527 1335 480 1318 418 1290 L451 1464 C504 1483 555 1497 603 1506 C650 1515 695 1520 743 1520 C832 1520 914 1503 969 1469 C1027 1433 1051 1379 1051 1317 C1051 1304 1050 1278 1047 1255 C1044 1230 1037 1191 1032 1165 L1032 1165 Z M811 1087 L731 1087 C650 1087 590 1075 551 1051 C512 1027 492 989 492 943 C492 910 502 886 521 867 C540 848 563 838 598 838 C649 838 698 860 735 903 C769 942 798 1004 811 1087 L811 1087 Z M246 598 L934 598 L899 428 L211 428 L246 598 L246 598 Z " />
<glyph glyph-name="guillemotleft" unicode="&#xab;" horiz-adv-x="1233" d="M1102 1059 L1057 821 L737 600 L971 379 L926 141 L532 535 L557 666 L1102 1059 L1102 1059 Z M649 1059 L602 821 L283 600 L516 379 L471 141 L78 535 L102 666 L649 1059 L649 1059 Z " />
<glyph glyph-name="logicalnot" unicode="&#xac;" horiz-adv-x="1233" d="M88 899 L1145 899 L1145 362 L907 362 L907 662 L88 662 L88 899 L88 899 Z " />
<glyph glyph-name="sfthyphen" unicode="&#xad;" horiz-adv-x="1233" d="M299 735 L928 735 L872 444 L244 444 L299 735 L299 735 Z " />
<glyph glyph-name="registered" unicode="&#xae;" horiz-adv-x="1233" d="M616 1358 C701 1358 779 1343 852 1313 C927 1282 995 1235 1051 1178 C1113 1115 1158 1045 1187 977 C1218 904 1233 825 1233 742 C1233 658 1218 579 1188 508 C1158 437 1111 366 1052 307 C997 252 927 203 851 171 C778 140 700 125 616 125 C528 125 454 141 382 171 C311 201 241 247 181 307 C123 365 77 434 46 507 C16 579 0 653 0 741 C0 825 15 904 46 977 C77 1050 123 1118 182 1178 C241 1238 308 1283 381 1313 C454 1343 532 1358 616 1358 L616 1358 Z M617 1229 C539 1229 484 1215 432 1193 C385 1173 328 1141 273 1085 C224 1035 191 983 167 927 C140 863 131 801 131 742 C131 674 143 615 167 558 C192 499 225 450 274 400 C323 351 373 317 432 292 C489 268 550 256 616 256 C682 256 744 268 801 292 C858 316 911 352 958 399 C1000 441 1040 496 1066 558 C1090 615 1102 674 1102 742 C1102 808 1091 867 1066 927 C1040 989 1005 1038 959 1085 C913 1132 860 1169 802 1193 C738 1220 680 1229 617 1229 L617 1229 Z M588 944 L524 944 L524 780 L588 780 C626 780 655 787 674 800 C693 813 702 833 702 861 C702 889 693 910 674 924 C655 937 627 944 588 944 L588 944 Z M360 1055 L606 1055 C695 1055 761 1040 804 1011 C847 982 868 936 868 878 C868 833 855 798 829 770 C805 744 772 724 719 715 C750 704 772 686 785 673 C801 657 821 628 836 596 L915 430 L743 430 L680 563 C663 599 645 629 625 645 C609 658 584 669 555 670 L524 670 L524 430 L360 430 L360 1055 L360 1055 Z " />
<glyph glyph-name="macron" unicode="&#xaf;" horiz-adv-x="1233" d="M459 1556 L1090 1556 L1053 1368 L422 1368 L459 1556 L459 1556 Z " />
<glyph glyph-name="degree" unicode="&#xb0;" horiz-adv-x="1233" d="M616 1520 C661 1520 703 1512 744 1495 C782 1479 821 1453 852 1422 C882 1392 909 1350 924 1313 C940 1274 948 1233 948 1188 C948 1142 940 1100 923 1059 C906 1018 883 983 852 952 C823 923 786 898 743 880 C702 863 660 854 613 854 C519 854 436 890 378 948 C316 1010 283 1093 283 1185 C283 1276 315 1360 378 1424 C441 1487 524 1520 616 1520 L616 1520 Z M616 1358 C568 1358 527 1341 494 1308 C461 1275 444 1234 444 1185 C444 1138 460 1098 493 1065 C526 1032 566 1016 614 1016 C662 1016 703 1033 736 1066 C769 1099 786 1138 786 1187 C786 1234 770 1275 737 1308 C704 1341 663 1358 616 1358 L616 1358 Z " />
<glyph glyph-name="plusminus" unicode="&#xb1;" horiz-adv-x="1233" d="M735 1284 L735 930 L1145 930 L1145 694 L735 694 L735 340 L498 340 L498 694 L88 694 L88 930 L498 930 L498 1284 L735 1284 L735 1284 Z M88 238 L1145 238 L1145 0 L88 0 L88 238 L88 238 Z " />
<glyph glyph-name="twosuperior" unicode="&#xb2;" horiz-adv-x="1233" d="M514 813 L952 813 L924 668 L260 668 L289 809 C380 876 367 865 431 911 C717 1116 831 1228 831 1294 C831 1315 819 1341 795 1358 C772 1374 737 1382 691 1382 C651 1382 604 1376 555 1364 C501 1351 452 1333 403 1311 L434 1473 C485 1488 534 1500 583 1508 C632 1516 681 1520 727 1520 C821 1520 899 1503 951 1466 C1004 1428 1028 1371 1028 1325 C1028 1219 899 1081 618 886 C586 864 573 855 514 813 L514 813 Z " />
<glyph glyph-name="threesuperior" unicode="&#xb3;" horiz-adv-x="1233" d="M639 1042 L528 1042 L557 1188 L666 1188 C725 1188 770 1197 801 1216 C831 1234 848 1259 848 1293 C848 1322 835 1342 808 1357 C781 1372 745 1380 699 1380 C666 1380 627 1376 581 1368 C536 1360 488 1349 432 1333 L461 1485 C510 1496 558 1505 605 1511 C652 1517 698 1520 739 1520 C836 1520 908 1503 961 1469 C1014 1435 1040 1389 1040 1326 C1040 1270 1020 1221 980 1184 C941 1148 882 1124 807 1116 C862 1110 907 1091 940 1058 C973 1025 989 985 989 930 C989 847 953 776 880 727 C807 678 701 653 569 653 C516 653 468 657 419 664 C371 671 326 680 276 694 L307 848 C353 828 394 816 442 807 C491 798 544 793 588 793 C661 793 709 807 746 834 C785 863 801 901 801 939 C801 975 787 999 758 1016 C729 1033 689 1042 639 1042 L639 1042 Z " />
<glyph glyph-name="acute" unicode="&#xb4;" horiz-adv-x="1233" d="M887 1638 L1208 1638 L766 1262 L569 1262 L887 1638 L887 1638 Z " />
<glyph glyph-name="mu" unicode="&#xb5;" horiz-adv-x="1233" d="M-55 -428 L246 1120 L535 1120 L403 440 C398 415 396 406 394 388 C392 372 391 358 391 346 C391 304 402 271 425 248 C448 225 478 213 521 213 C574 213 619 232 653 269 C687 306 712 363 727 440 L858 1120 L1147 1120 L997 344 C991 298 990 296 990 293 C988 282 987 272 987 264 C987 249 991 236 998 227 C1005 218 1015 213 1028 213 C1036 213 1045 215 1055 219 C1062 222 1076 229 1090 238 L1047 16 C1010 -2 987 -11 961 -18 C934 -25 910 -29 883 -29 C833 -29 799 -15 775 9 C750 34 733 74 725 129 C690 76 652 37 611 11 C572 -14 531 -29 479 -29 C440 -29 408 -21 383 -5 C358 11 340 35 330 66 L233 -428 L-55 -428 L-55 -428 Z " />
<glyph glyph-name="paragraph" unicode="&#xb6;" horiz-adv-x="1233" d="M672 1493 L1190 1493 L862 -197 L672 -197 L973 1346 L782 1346 L483 -197 L293 -197 L457 649 C343 661 255 696 194 753 C133 810 102 883 102 986 C102 1123 156 1247 265 1346 C373 1444 509 1493 672 1493 L672 1493 Z " />
<glyph glyph-name="glyph121" unicode="&#xb7;" horiz-adv-x="1233" d="M479 895 L813 895 L741 530 L408 530 L479 895 L479 895 Z " />
<glyph glyph-name="cedilla" unicode="&#xb8;" horiz-adv-x="1233" d="M422 0 L563 0 C587 -32 605 -63 617 -94 C629 -125 635 -154 635 -185 C635 -247 610 -303 560 -342 C511 -380 438 -401 349 -401 C315 -401 271 -398 249 -395 C234 -393 169 -382 150 -375 L178 -219 C207 -230 235 -239 262 -245 C289 -251 314 -254 339 -254 C384 -254 420 -244 443 -227 C467 -209 479 -183 479 -151 C479 -133 475 -113 466 -90 C458 -69 443 -37 422 0 L422 0 Z " />
<glyph glyph-name="onesuperior" unicode="&#xb9;" horiz-adv-x="1233" d="M315 813 L551 813 L657 1356 L428 1313 L457 1462 L686 1503 L883 1503 L748 813 L975 813 L946 668 L289 668 L315 813 L315 813 Z " />
<glyph glyph-name="ordmasculine" unicode="&#xba;" horiz-adv-x="1233" d="M307 1027 C307 1163 348 1287 427 1380 C506 1473 609 1520 740 1520 C841 1520 923 1492 981 1436 C1038 1381 1067 1306 1067 1191 C1067 1058 1028 933 948 838 C866 741 760 698 634 698 C531 698 452 727 394 782 C335 838 307 914 307 1027 L307 1027 Z M856 1188 C856 1239 848 1284 822 1315 C799 1342 765 1356 728 1356 C667 1356 616 1319 580 1261 C538 1193 520 1105 520 1032 C520 970 533 931 554 905 C576 878 609 862 649 862 C706 862 757 895 796 957 C836 1022 856 1108 856 1188 L856 1188 Z M254 598 L942 598 L909 428 L221 428 L254 598 L254 598 Z " />
<glyph glyph-name="guillemotright" unicode="&#xbb;" horiz-adv-x="1233" d="M260 1059 L653 666 L627 535 L82 141 L127 379 L449 600 L215 821 L260 1059 L260 1059 Z M715 1059 L1108 666 L1081 535 L537 141 L582 379 L903 600 L670 821 L715 1059 L715 1059 Z " />
<glyph glyph-name="onequarter" unicode="&#xbc;" horiz-adv-x="1233" d="M57 969 L293 969 L399 1512 L170 1469 L199 1618 L428 1659 L625 1659 L490 969 L717 969 L688 824 L31 824 L57 969 L57 969 Z M84 500 L47 618 L1106 879 L1143 762 L84 500 L84 500 Z M887 383 L573 53 L823 53 L887 383 L887 383 Z M905 565 L1110 565 L1009 53 L1118 53 L1091 -90 L983 -90 L948 -270 L760 -270 L796 -90 L407 -90 L438 72 L905 565 L905 565 Z " />
<glyph glyph-name="onehalf" unicode="&#xbd;" horiz-adv-x="1233" d="M57 969 L293 969 L399 1512 L170 1469 L199 1618 L428 1659 L625 1659 L490 969 L717 969 L688 824 L31 824 L57 969 L57 969 Z M84 500 L47 618 L1106 879 L1143 762 L84 500 L84 500 Z M668 -125 L1106 -125 L1078 -270 L414 -270 L443 -129 C534 -62 521 -73 585 -27 C871 178 985 290 985 356 C985 377 973 403 949 420 C926 436 891 444 845 444 C805 444 758 438 709 426 C655 413 606 395 557 373 L588 535 C639 550 688 562 737 570 C786 578 835 582 881 582 C975 582 1053 565 1105 528 C1158 490 1182 433 1182 387 C1182 281 1053 143 772 -52 C740 -74 727 -83 668 -125 L668 -125 Z " />
<glyph glyph-name="threequarters" unicode="&#xbe;" horiz-adv-x="1233" d="M412 1198 L301 1198 L330 1344 L439 1344 C498 1344 543 1353 574 1372 C604 1390 621 1415 621 1449 C621 1478 608 1498 581 1513 C554 1528 518 1536 472 1536 C439 1536 400 1532 354 1524 C309 1516 261 1505 205 1489 L234 1641 C283 1652 331 1661 378 1667 C425 1673 471 1676 512 1676 C609 1676 681 1659 734 1625 C787 1591 813 1545 813 1482 C813 1426 793 1377 753 1340 C714 1304 655 1280 580 1272 C635 1266 680 1247 713 1214 C746 1181 762 1141 762 1086 C762 1003 726 932 653 883 C580 834 474 809 342 809 C289 809 241 813 192 820 C144 827 99 836 49 850 L80 1004 C126 984 167 972 215 963 C264 954 317 949 361 949 C434 949 482 963 519 990 C558 1019 574 1057 574 1095 C574 1131 560 1155 531 1172 C502 1189 462 1198 412 1198 L412 1198 Z M84 500 L47 618 L1106 879 L1143 762 L84 500 L84 500 Z M887 383 L573 53 L823 53 L887 383 L887 383 Z M905 565 L1110 565 L1009 53 L1118 53 L1091 -90 L983 -90 L948 -270 L760 -270 L796 -90 L407 -90 L438 72 L905 565 L905 565 Z " />
<glyph glyph-name="questiondown" unicode="&#xbf;" horiz-adv-x="1233" d="M594 1092 L860 1092 L831 938 C819 873 800 820 770 772 C735 716 689 672 631 621 L526 528 L511 515 C421 437 371 376 371 321 C371 294 383 261 408 240 C433 219 466 209 517 209 C578 209 641 223 706 246 C771 269 844 304 924 354 L872 86 C805 49 735 21 664 2 C593 -17 521 -27 454 -27 C342 -27 255 1 189 56 C123 111 90 183 90 272 C90 335 106 395 139 450 C172 505 231 570 305 631 L410 717 L418 724 C506 801 553 874 571 969 L594 1092 L594 1092 Z M885 1210 L618 1210 L672 1493 L940 1493 L885 1210 L885 1210 Z " />
<glyph glyph-name="Agrave" unicode="&#xc0;" horiz-adv-x="1233" d="M717 1219 L453 612 L737 612 L717 1219 L717 1219 Z M582 1493 L942 1493 L1055 0 L762 0 L748 369 L348 369 L186 0 L-113 0 L582 1493 L582 1493 Z M764 1899 L907 1635 L729 1635 L500 1899 L764 1899 L764 1899 Z " />
<glyph glyph-name="Aacute" unicode="&#xc1;" horiz-adv-x="1233" d="M717 1219 L453 612 L737 612 L717 1219 L717 1219 Z M582 1493 L942 1493 L1055 0 L762 0 L748 369 L348 369 L186 0 L-113 0 L582 1493 L582 1493 Z M862 1899 L1143 1899 L823 1635 L616 1635 L862 1899 L862 1899 Z " />
<glyph glyph-name="Acircumflex" unicode="&#xc2;" horiz-adv-x="1233" d="M717 1219 L453 612 L737 612 L717 1219 L717 1219 Z M582 1493 L942 1493 L1055 0 L762 0 L748 369 L348 369 L186 0 L-113 0 L582 1493 L582 1493 Z M639 1899 L987 1899 L1138 1635 L969 1635 L805 1796 L575 1635 L395 1635 L639 1899 L639 1899 Z " />
<glyph glyph-name="Atilde" unicode="&#xc3;" horiz-adv-x="1233" d="M717 1219 L453 612 L737 612 L717 1219 L717 1219 Z M582 1493 L942 1493 L1055 0 L762 0 L748 369 L348 369 L186 0 L-113 0 L582 1493 L582 1493 Z M782 1686 L733 1723 C716 1736 703 1744 692 1749 C681 1753 669 1755 657 1755 C634 1755 613 1744 596 1723 C578 1702 566 1672 559 1635 L422 1635 C439 1720 469 1786 513 1832 C556 1878 610 1901 674 1901 C699 1901 722 1897 744 1889 C765 1881 788 1868 811 1850 L864 1809 C874 1800 885 1794 898 1789 C910 1784 921 1782 932 1782 C958 1782 980 1792 997 1813 C1014 1833 1027 1862 1034 1901 L1171 1901 C1154 1816 1123 1750 1080 1704 C1037 1658 984 1635 921 1635 C896 1635 873 1639 852 1646 C831 1653 807 1667 782 1686 L782 1686 Z " />
<glyph glyph-name="Adieresis" unicode="&#xc4;" horiz-adv-x="1233" d="M717 1219 L453 612 L737 612 L717 1219 L717 1219 Z M582 1493 L942 1493 L1055 0 L762 0 L748 369 L348 369 L186 0 L-113 0 L582 1493 L582 1493 Z M899 1899 L1134 1899 L1087 1653 L850 1653 L899 1899 L899 1899 Z M504 1899 L739 1899 L690 1653 L454 1653 L504 1899 L504 1899 Z " />
<glyph glyph-name="Aring" unicode="&#xc5;" horiz-adv-x="1233" d="M623 1616 C623 1578 639 1546 661 1524 C686 1499 718 1485 754 1485 C789 1485 821 1498 847 1524 C872 1549 885 1580 885 1616 C885 1652 872 1683 846 1709 C820 1734 789 1747 754 1747 C718 1747 687 1734 662 1709 C636 1683 623 1651 623 1616 L623 1616 Z M948 1409 L1055 0 L760 0 L739 369 L344 369 L182 0 L-113 0 L547 1421 C523 1445 504 1475 490 1510 C476 1545 469 1580 469 1618 C469 1693 497 1761 553 1817 C606 1870 670 1901 753 1901 C832 1901 898 1873 954 1817 C1010 1761 1038 1693 1038 1618 C1038 1576 1029 1535 1015 1503 C999 1466 974 1433 948 1409 L948 1409 Z M709 1223 L451 612 L729 612 L709 1223 L709 1223 Z " />
<glyph glyph-name="AE" unicode="&#xc6;" horiz-adv-x="1233" d="M1311 1493 L1260 1233 L969 1233 L909 922 L1169 922 L1118 662 L858 662 L780 260 L1090 260 L1038 0 L475 0 L547 362 L264 362 L109 0 L-150 0 L502 1493 L1311 1493 L1311 1493 Z M637 1233 L365 598 L592 598 L717 1233 L637 1233 L637 1233 Z " />
<glyph glyph-name="Ccedilla" unicode="&#xc7;" horiz-adv-x="1233" d="M557.214 -25.967 C437.361 -14.796 331.439 27.6401 257 108 C168 204 131 346 131 517 C131 652 154 803 202 948 C248 1087 312 1205 393 1296 C456 1367 531 1424 620 1463 C707 1501 802 1520 903 1520 C959 1520 1011 1514 1064 1502 C1107 1492 1165 1474 1219 1448 L1155 1120 C1122 1165 1081 1200 1033 1223 C984 1246 927 1257 879 1257 C825 1257 768 1243 715 1210 C659 1175 616 1123 584 1074 C537 1002 501 918 473 819 C443 712 430 617 430 537 C430 443 448 363 493 308 C535 257 596 231 677 231 C729 231 781 242 836 265 C893 289 949 324 1010 371 L946 43 C893 18 838 0 789 -11 C760.309 -17.3758 731.053 -22.0578 701.683 -25.046 C717.049 -48.2977 729.154 -71.1489 738 -94 C750 -125 756 -154 756 -185 C756 -247 731 -303 681 -342 C632 -380 559 -401 470 -401 C436 -401 392 -398 370 -395 C355 -393 290 -382 271 -375 L299 -219 C328 -230 356 -239 383 -245 C410 -251 435 -254 460 -254 C505 -254 541 -244 564 -227 C588 -209 600 -183 600 -151 C600 -133 596 -113 587 -90 C580.941 -74.0961 570.868 -51.8828 557.214 -25.967 L557.214 -25.967 Z " />
<glyph glyph-name="Egrave" unicode="&#xc8;" horiz-adv-x="1233" d="M958 0 L29 0 L317 1493 L1249 1493 L1198 1233 L563 1233 L500 911 L1075 911 L1026 651 L451 651 L375 260 L1010 260 L958 0 L958 0 Z M801 1899 L944 1635 L766 1635 L537 1899 L801 1899 L801 1899 Z " />
<glyph glyph-name="Eacute" unicode="&#xc9;" horiz-adv-x="1233" d="M958 0 L29 0 L317 1493 L1249 1493 L1198 1233 L563 1233 L500 911 L1075 911 L1026 651 L451 651 L375 260 L1010 260 L958 0 L958 0 Z M899 1899 L1180 1899 L860 1635 L653 1635 L899 1899 L899 1899 Z " />
<glyph glyph-name="Ecircumflex" unicode="&#xca;" horiz-adv-x="1233" d="M958 0 L29 0 L317 1493 L1249 1493 L1198 1233 L563 1233 L500 911 L1075 911 L1026 651 L451 651 L375 260 L1010 260 L958 0 L958 0 Z M676 1899 L1024 1899 L1175 1635 L1006 1635 L842 1796 L612 1635 L432 1635 L676 1899 L676 1899 Z " />
<glyph glyph-name="Edieresis" unicode="&#xcb;" horiz-adv-x="1233" d="M958 0 L29 0 L317 1493 L1249 1493 L1198 1233 L563 1233 L500 911 L1075 911 L1026 651 L451 651 L375 260 L1010 260 L958 0 L958 0 Z M936 1899 L1171 1899 L1124 1653 L887 1653 L936 1899 L936 1899 Z M541 1899 L776 1899 L727 1653 L491 1653 L541 1899 L541 1899 Z " />
<glyph glyph-name="Igrave" unicode="&#xcc;" horiz-adv-x="1233" d="M266 1233 L317 1493 L1206 1493 L1155 1233 L858 1233 L670 260 L967 260 L915 0 L27 0 L78 260 L375 260 L563 1233 L266 1233 L266 1233 Z M760 1899 L903 1635 L725 1635 L496 1899 L760 1899 L760 1899 Z " />
<glyph glyph-name="Iacute" unicode="&#xcd;" horiz-adv-x="1233" d="M266 1233 L317 1493 L1206 1493 L1155 1233 L858 1233 L670 260 L967 260 L915 0 L27 0 L78 260 L375 260 L563 1233 L266 1233 L266 1233 Z M858 1899 L1139 1899 L819 1635 L612 1635 L858 1899 L858 1899 Z " />
<glyph glyph-name="Icircumflex" unicode="&#xce;" horiz-adv-x="1233" d="M266 1233 L317 1493 L1206 1493 L1155 1233 L858 1233 L670 260 L967 260 L915 0 L27 0 L78 260 L375 260 L563 1233 L266 1233 L266 1233 Z M635 1899 L983 1899 L1134 1635 L965 1635 L801 1796 L571 1635 L391 1635 L635 1899 L635 1899 Z " />
<glyph glyph-name="Idieresis" unicode="&#xcf;" horiz-adv-x="1233" d="M266 1233 L317 1493 L1206 1493 L1155 1233 L858 1233 L670 260 L967 260 L915 0 L27 0 L78 260 L375 260 L563 1233 L266 1233 L266 1233 Z M895 1899 L1130 1899 L1083 1653 L846 1653 L895 1899 L895 1899 Z M500 1899 L735 1899 L686 1653 L450 1653 L500 1899 L500 1899 Z " />
<glyph glyph-name="Eth" unicode="&#xd0;" horiz-adv-x="1233" d="M283 1493 L598 1493 C782 1493 930 1453 1025 1370 C1118 1289 1165 1162 1165 996 C1165 948 1161 876 1152 814 C1145 765 1129 677 1111 602 C1085 496 1048 402 1021 347 C982 267 935 208 897 171 C840 115 759 67 671 40 C585 13 470 0 322 0 L-8 0 L121 664 L-16 664 L31 901 L166 901 L283 1493 L283 1493 Z M524 1227 L461 901 L672 901 L627 664 L416 664 L338 266 L434 266 C509 266 572 281 623 310 C678 341 714 385 743 442 C775 505 807 600 828 695 C850 795 860 893 860 960 C860 1057 839 1121 798 1163 C756 1206 692 1227 606 1227 L524 1227 L524 1227 Z " />
<glyph glyph-name="Ntilde" unicode="&#xd1;" horiz-adv-x="1233" d="M266 1493 L569 1493 L784 408 L995 1493 L1255 1493 L967 0 L674 0 L449 1085 L238 0 L-25 0 L266 1493 L266 1493 Z M782 1686 L733 1723 C716 1736 700 1746 692 1749 C682 1753 668 1755 658 1755 C630 1755 611 1741 596 1723 C576 1699 566 1671 559 1635 L422 1635 C439 1720 469 1786 513 1832 C556 1877 608 1901 673 1901 C700 1901 722 1897 744 1889 C763 1882 785 1870 811 1850 L864 1809 C874 1800 885 1794 898 1789 C910 1784 921 1782 932 1782 C958 1782 980 1792 997 1813 C1014 1833 1027 1862 1034 1901 L1171 1901 C1154 1816 1123 1750 1080 1704 C1037 1658 983 1635 921 1635 C895 1635 873 1639 852 1646 C831 1653 808 1666 782 1686 L782 1686 Z " />
<glyph glyph-name="Ograve" unicode="&#xd2;" horiz-adv-x="1233" d="M868 1020 C868 1100 855 1160 828 1200 C801 1240 760 1260 708 1260 C663 1260 626 1245 598 1225 C566 1202 536 1165 512 1121 C494 1088 482 1056 469 1017 C450 960 442 932 424 860 C403 775 390 711 380 646 C370 579 365 521 365 471 C365 391 378 331 405 292 C433 251 475 233 525 233 C565 233 602 245 635 269 C667 292 696 326 721 373 C736 401 753 442 767 483 C781 523 795 572 809 630 C830 716 843 782 853 846 C863 912 868 970 868 1020 L868 1020 Z M61 476 C61 592 78 733 111 870 C145 1010 193 1135 246 1229 C296 1317 360 1392 447 1445 C533 1497 632 1520 732 1520 C868 1520 982 1478 1058 1395 C1143 1302 1171 1167 1171 1015 C1171 903 1156 766 1122 622 C1091 491 1047 367 988 264 C932 166 869 96 786 46 C701 -5 603 -29 500 -29 C365 -29 250 12 173 98 C95 185 61 313 61 476 L61 476 Z M764 1899 L907 1635 L729 1635 L500 1899 L764 1899 L764 1899 Z " />
<glyph glyph-name="Oacute" unicode="&#xd3;" horiz-adv-x="1233" d="M868 1020 C868 1100 855 1160 828 1200 C801 1240 760 1260 708 1260 C663 1260 626 1245 598 1225 C566 1202 536 1165 512 1121 C494 1088 482 1056 469 1017 C450 960 442 932 424 860 C403 775 390 711 380 646 C370 579 365 521 365 471 C365 391 378 331 405 292 C433 251 475 233 525 233 C565 233 602 245 635 269 C667 292 696 326 721 373 C736 401 753 442 767 483 C781 523 795 572 809 630 C830 716 843 782 853 846 C863 912 868 970 868 1020 L868 1020 Z M61 476 C61 592 78 733 111 870 C145 1010 193 1135 246 1229 C296 1317 360 1392 447 1445 C533 1497 632 1520 732 1520 C868 1520 982 1478 1058 1395 C1143 1302 1171 1167 1171 1015 C1171 903 1156 766 1122 622 C1091 491 1047 367 988 264 C932 166 869 96 786 46 C701 -5 603 -29 500 -29 C365 -29 250 12 173 98 C95 185 61 313 61 476 L61 476 Z M862 1899 L1143 1899 L823 1635 L616 1635 L862 1899 L862 1899 Z " />
<glyph glyph-name="Ocircumflex" unicode="&#xd4;" horiz-adv-x="1233" d="M868 1020 C868 1100 855 1160 828 1200 C801 1240 760 1260 708 1260 C663 1260 626 1245 598 1225 C566 1202 536 1165 512 1121 C494 1088 482 1056 469 1017 C450 960 442 932 424 860 C403 775 390 711 380 646 C370 579 365 521 365 471 C365 391 378 331 405 292 C433 251 475 233 525 233 C565 233 602 245 635 269 C667 292 696 326 721 373 C736 401 753 442 767 483 C781 523 795 572 809 630 C830 716 843 782 853 846 C863 912 868 970 868 1020 L868 1020 Z M61 476 C61 592 78 733 111 870 C145 1010 193 1135 246 1229 C296 1317 360 1392 447 1445 C533 1497 632 1520 732 1520 C868 1520 982 1478 1058 1395 C1143 1302 1171 1167 1171 1015 C1171 903 1156 766 1122 622 C1091 491 1047 367 988 264 C932 166 869 96 786 46 C701 -5 603 -29 500 -29 C365 -29 250 12 173 98 C95 185 61 313 61 476 L61 476 Z M639 1899 L987 1899 L1138 1635 L969 1635 L805 1796 L575 1635 L395 1635 L639 1899 L639 1899 Z " />
<glyph glyph-name="Otilde" unicode="&#xd5;" horiz-adv-x="1233" d="M868 1020 C868 1100 855 1160 828 1200 C801 1240 760 1260 708 1260 C663 1260 626 1245 598 1225 C566 1202 536 1165 512 1121 C494 1088 482 1056 469 1017 C450 960 442 932 424 860 C403 775 390 711 380 646 C370 579 365 521 365 471 C365 391 378 331 405 292 C433 251 475 233 525 233 C565 233 602 245 635 269 C667 292 696 326 721 373 C736 401 753 442 767 483 C781 523 795 572 809 630 C830 716 843 782 853 846 C863 912 868 970 868 1020 L868 1020 Z M61 476 C61 592 78 733 111 870 C145 1010 193 1135 246 1229 C296 1317 360 1392 447 1445 C533 1497 632 1520 732 1520 C868 1520 982 1478 1058 1395 C1143 1302 1171 1167 1171 1015 C1171 903 1156 766 1122 622 C1091 491 1047 367 988 264 C932 166 869 96 786 46 C701 -5 603 -29 500 -29 C365 -29 250 12 173 98 C95 185 61 313 61 476 L61 476 Z M782 1686 L733 1723 C716 1736 700 1746 692 1749 C682 1753 668 1755 658 1755 C630 1755 611 1741 596 1723 C576 1699 566 1671 559 1635 L422 1635 C439 1720 469 1786 513 1832 C556 1877 608 1901 673 1901 C700 1901 722 1897 744 1889 C763 1882 785 1870 811 1850 L864 1809 C874 1800 885 1794 898 1789 C910 1784 921 1782 932 1782 C958 1782 980 1792 997 1813 C1014 1833 1027 1862 1034 1901 L1171 1901 C1154 1816 1123 1750 1080 1704 C1037 1658 983 1635 921 1635 C895 1635 873 1639 852 1646 C831 1653 808 1666 782 1686 L782 1686 Z " />
<glyph glyph-name="Odieresis" unicode="&#xd6;" horiz-adv-x="1233" d="M868 1020 C868 1100 855 1160 828 1200 C801 1240 760 1260 708 1260 C663 1260 626 1245 598 1225 C566 1202 536 1165 512 1121 C494 1088 482 1056 469 1017 C450 960 442 932 424 860 C403 775 390 711 380 646 C370 579 365 521 365 471 C365 391 378 331 405 292 C433 251 475 233 525 233 C565 233 602 245 635 269 C667 292 696 326 721 373 C736 401 753 442 767 483 C781 523 795 572 809 630 C830 716 843 782 853 846 C863 912 868 970 868 1020 L868 1020 Z M61 476 C61 592 78 733 111 870 C145 1010 193 1135 246 1229 C296 1317 360 1392 447 1445 C533 1497 632 1520 732 1520 C868 1520 982 1478 1058 1395 C1143 1302 1171 1167 1171 1015 C1171 903 1156 766 1122 622 C1091 491 1047 367 988 264 C932 166 869 96 786 46 C701 -5 603 -29 500 -29 C365 -29 250 12 173 98 C95 185 61 313 61 476 L61 476 Z M899 1899 L1134 1899 L1087 1653 L850 1653 L899 1899 L899 1899 Z M504 1899 L739 1899 L690 1653 L454 1653 L504 1899 L504 1899 Z " />
<glyph glyph-name="multiply" unicode="&#xd7;" horiz-adv-x="1233" d="M1112 971 L782 643 L1112 313 L944 147 L614 475 L287 147 L119 313 L449 643 L119 971 L287 1139 L614 811 L944 1139 L1112 971 L1112 971 Z " />
<glyph glyph-name="Oslash" unicode="&#xd8;" horiz-adv-x="1233" d="M858 889 L375 354 C387 314 405 285 432 264 C456 245 484 233 525 233 C608 233 677 283 729 386 C780 487 824 661 858 889 L858 889 Z M-141 51 L78 295 C72 323 69 342 66 366 C63 391 61 410 61 454 C61 579 77 726 110 865 C141 997 187 1126 244 1227 C292 1312 358 1392 447 1445 C532 1496 632 1520 732 1520 C800 1520 864 1509 919 1487 C974 1465 1022 1432 1063 1389 L1217 1559 L1356 1444 L1151 1217 C1160 1169 1163 1142 1166 1113 C1169 1080 1171 1053 1171 1018 C1171 983 1169 934 1164 887 C1160 848 1150 776 1143 737 C1129 656 1103 552 1080 480 C1057 408 1027 333 989 265 C934 167 863 92 786 46 C703 -4 604 -29 500 -29 C425 -29 360 -16 304 8 C246 33 198 69 160 117 L0 -63 L-141 51 L-141 51 Z M379 629 L852 1153 C840 1189 819 1217 797 1233 C770 1253 737 1260 706 1260 C620 1260 558 1205 510 1113 C459 1016 416 860 379 629 L379 629 Z " />
<glyph glyph-name="Ugrave" unicode="&#xd9;" horiz-adv-x="1233" d="M68 551 L252 1493 L547 1493 L348 477 C348 476 348 474 347 471 C342 440 340 418 340 400 C340 349 355 306 386 276 C417 246 459 231 518 231 C587 231 646 251 689 292 C732 333 761 394 778 477 L977 1493 L1272 1493 L1087 551 C1063 428 1042 349 1012 279 C984 214 951 165 908 123 C859 75 803 38 729 10 C660 -16 585 -29 497 -29 C356 -29 242 4 163 70 C81 138 45 233 45 354 C45 382 47 408 51 444 C56 491 58 502 68 551 L68 551 Z M770 1899 L913 1635 L735 1635 L506 1899 L770 1899 L770 1899 Z " />
<glyph glyph-name="Uacute" unicode="&#xda;" horiz-adv-x="1233" d="M68 551 L252 1493 L547 1493 L348 477 C348 476 348 474 347 471 C342 440 340 418 340 400 C340 349 355 306 386 276 C417 246 459 231 518 231 C587 231 646 251 689 292 C732 333 761 394 778 477 L977 1493 L1272 1493 L1087 551 C1063 428 1042 349 1012 279 C984 214 951 165 908 123 C859 75 803 38 729 10 C660 -16 585 -29 497 -29 C356 -29 242 4 163 70 C81 138 45 233 45 354 C45 382 47 408 51 444 C56 491 58 502 68 551 L68 551 Z M868 1899 L1149 1899 L829 1635 L622 1635 L868 1899 L868 1899 Z " />
<glyph glyph-name="Ucircumflex" unicode="&#xdb;" horiz-adv-x="1233" d="M68 551 L252 1493 L547 1493 L348 477 C348 476 348 474 347 471 C342 440 340 418 340 400 C340 349 355 306 386 276 C417 246 459 231 518 231 C587 231 646 251 689 292 C732 333 761 394 778 477 L977 1493 L1272 1493 L1087 551 C1063 428 1042 349 1012 279 C984 214 951 165 908 123 C859 75 803 38 729 10 C660 -16 585 -29 497 -29 C356 -29 242 4 163 70 C81 138 45 233 45 354 C45 382 47 408 51 444 C56 491 58 502 68 551 L68 551 Z M645 1899 L993 1899 L1144 1635 L975 1635 L811 1796 L581 1635 L401 1635 L645 1899 L645 1899 Z " />
<glyph glyph-name="Udieresis" unicode="&#xdc;" horiz-adv-x="1233" d="M68 551 L252 1493 L547 1493 L348 477 C348 476 348 474 347 471 C342 440 340 418 340 400 C340 349 355 306 386 276 C417 246 459 231 518 231 C587 231 646 251 689 292 C732 333 761 394 778 477 L977 1493 L1272 1493 L1087 551 C1063 428 1042 349 1012 279 C984 214 951 165 908 123 C859 75 803 38 729 10 C660 -16 585 -29 497 -29 C356 -29 242 4 163 70 C81 138 45 233 45 354 C45 382 47 408 51 444 C56 491 58 502 68 551 L68 551 Z M905 1899 L1140 1899 L1093 1653 L856 1653 L905 1899 L905 1899 Z M510 1899 L745 1899 L696 1653 L460 1653 L510 1899 L510 1899 Z " />
<glyph glyph-name="Yacute" unicode="&#xdd;" horiz-adv-x="1233" d="M145 1493 L438 1493 L625 844 L1036 1493 L1358 1493 L725 588 L610 0 L317 0 L432 588 L145 1493 L145 1493 Z M858 1899 L1139 1899 L819 1635 L612 1635 L858 1899 L858 1899 Z " />
<glyph glyph-name="Thorn" unicode="&#xde;" horiz-adv-x="1233" d="M375 332 L311 0 L16 0 L307 1493 L602 1493 L555 1266 L682 1266 C839 1266 959 1235 1042 1174 C1126 1112 1165 1023 1165 902 C1165 835 1153 757 1129 683 C1104 606 1072 551 1034 506 C976 437 913 400 840 374 C762 346 670 332 539 332 L375 332 L375 332 Z M510 1018 L424 580 L569 580 C668 580 739 602 786 647 C834 692 858 759 858 843 C858 916 840 956 806 980 C772 1005 716 1018 631 1018 L510 1018 L510 1018 Z " />
<glyph glyph-name="germandbls" unicode="&#xdf;" horiz-adv-x="1233" d="M1146 1065 L1145 1059 C1048 1054 974 1032 926 1001 C878 970 848 924 848 875 C848 831 873 786 944 715 L950 709 L1026 633 C1065 594 1095 553 1114 512 C1132 473 1143 431 1143 374 C1143 260 1100 156 1015 82 C931 9 814 -29 666 -29 C613 -29 576 -24 535 -16 C483 -6 450 4 406 20 L455 270 C494 249 531 234 567 223 C602 212 634 207 669 207 C725 207 773 220 808 247 C842 273 860 310 860 347 C860 401 823 457 749 531 L743 537 L674 608 C645 638 623 670 609 705 C595 739 588 775 588 817 C588 904 619 981 680 1044 C741 1106 827 1149 940 1174 L940 1190 C940 1229 927 1265 895 1290 C865 1313 823 1325 770 1325 C706 1325 656 1308 618 1274 C580 1240 554 1189 541 1122 L322 0 L29 0 L248 1126 C276 1270 334 1376 421 1449 C508 1522 622 1559 767 1559 C895 1559 995 1530 1060 1472 C1125 1414 1157 1324 1157 1215 C1157 1176 1153 1132 1146 1065 L1146 1065 Z " />
<glyph glyph-name="agrave" unicode="&#xe0;" horiz-adv-x="1233" d="M803 530 L690 530 C575 530 490 513 435 478 C380 443 352 388 352 321 C352 273 366 240 393 213 C420 186 452 172 501 172 C573 172 641 203 694 265 C744 323 784 412 803 530 L803 530 Z M1114 639 L991 0 L700 0 L725 125 C678 72 627 34 572 10 C514 -16 446 -29 379 -29 C280 -29 195 -1 135 58 C73 119 47 205 47 300 C47 435 99 548 203 624 C306 699 456 737 651 737 L844 737 L852 786 C853 791 854 796 854 798 L854 815 C854 853 837 882 803 902 C769 922 719 932 657 932 C599 932 539 923 470 904 C404 886 334 859 248 819 L295 1069 C370 1095 442 1115 509 1128 C576 1141 637 1147 705 1147 C843 1147 954 1122 1029 1071 C1108 1018 1141 942 1141 845 C1141 821 1139 793 1134 756 C1129 718 1124 690 1114 639 L1114 639 Z M686 1638 L895 1262 L697 1262 L402 1638 L686 1638 L686 1638 Z " />
<glyph glyph-name="aacute" unicode="&#xe1;" horiz-adv-x="1233" d="M803 530 L690 530 C575 530 490 513 435 478 C380 443 352 388 352 321 C352 273 366 240 393 213 C420 186 452 172 501 172 C573 172 641 203 694 265 C744 323 784 412 803 530 L803 530 Z M1114 639 L991 0 L700 0 L725 125 C678 72 627 34 572 10 C514 -16 446 -29 379 -29 C280 -29 195 -1 135 58 C73 119 47 205 47 300 C47 435 99 548 203 624 C306 699 456 737 651 737 L844 737 L852 786 C853 791 854 796 854 798 L854 815 C854 853 837 882 803 902 C769 922 719 932 657 932 C599 932 539 923 470 904 C404 886 334 859 248 819 L295 1069 C370 1095 442 1115 509 1128 C576 1141 637 1147 705 1147 C843 1147 954 1122 1029 1071 C1108 1018 1141 942 1141 845 C1141 821 1139 793 1134 756 C1129 718 1124 690 1114 639 L1114 639 Z M918 1638 L1239 1638 L797 1262 L600 1262 L918 1638 L918 1638 Z " />
<glyph glyph-name="acircumflex" unicode="&#xe2;" horiz-adv-x="1233" d="M803 530 L690 530 C575 530 490 513 435 478 C380 443 352 388 352 321 C352 273 366 240 393 213 C420 186 452 172 501 172 C573 172 641 203 694 265 C744 323 784 412 803 530 L803 530 Z M1114 639 L991 0 L700 0 L725 125 C678 72 627 34 572 10 C514 -16 446 -29 379 -29 C280 -29 195 -1 135 58 C73 119 47 205 47 300 C47 435 99 548 203 624 C306 699 456 737 651 737 L844 737 L852 786 C853 791 854 796 854 798 L854 815 C854 853 837 882 803 902 C769 922 719 932 657 932 C599 932 539 923 470 904 C404 886 334 859 248 819 L295 1069 C370 1095 442 1115 509 1128 C576 1141 637 1147 705 1147 C843 1147 954 1122 1029 1071 C1108 1018 1141 942 1141 845 C1141 821 1139 793 1134 756 C1129 718 1124 690 1114 639 L1114 639 Z M699 1638 L942 1638 L1125 1262 L949 1262 L797 1487 L557 1262 L367 1262 L699 1638 L699 1638 Z " />
<glyph glyph-name="atilde" unicode="&#xe3;" horiz-adv-x="1233" d="M803 530 L690 530 C575 530 490 513 435 478 C380 443 352 388 352 321 C352 273 366 240 393 213 C420 186 452 172 501 172 C573 172 641 203 694 265 C744 323 784 412 803 530 L803 530 Z M1114 639 L991 0 L700 0 L725 125 C678 72 627 34 572 10 C514 -16 446 -29 379 -29 C280 -29 195 -1 135 58 C73 119 47 205 47 300 C47 435 99 548 203 624 C306 699 456 737 651 737 L844 737 L852 786 C853 791 854 796 854 798 L854 815 C854 853 837 882 803 902 C769 922 719 932 657 932 C599 932 539 923 470 904 C404 886 334 859 248 819 L295 1069 C370 1095 442 1115 509 1128 C576 1141 637 1147 705 1147 C843 1147 954 1122 1029 1071 C1108 1018 1141 942 1141 846 C1141 822 1139 793 1134 756 C1129 718 1124 690 1114 639 L1114 639 Z M770 1364 L721 1401 C719.517 1402.48 719.271 1402.73 719.243 1402.71 C719.195 1402.67 719.776 1401.85 716 1405 C693 1422 670 1438 643 1438 C620 1438 600 1427 583 1404 C566 1381 554 1349 547 1309 L408 1309 C421 1396 450 1465 495 1516 C540 1567 596 1593 656 1593 C679 1593 704 1589 723 1581 C742 1573 769 1555 799 1532 L850 1493 C863 1483 875 1475 887 1470 C899 1465 909 1462 921 1462 C947 1462 968 1475 984 1496 C1001 1518 1013 1550 1020 1591 L1159 1591 C1144 1497 1115 1426 1074 1379 C1032 1331 976 1307 911 1307 C885 1307 865 1311 843 1320 C821 1329 797 1343 770 1364 L770 1364 Z " />
<glyph glyph-name="adieresis" unicode="&#xe4;" horiz-adv-x="1233" d="M803 530 L690 530 C575 530 490 513 435 478 C380 443 352 388 352 321 C352 273 366 240 393 213 C420 186 452 172 501 172 C573 172 641 203 694 265 C744 323 784 412 803 530 L803 530 Z M1114 639 L991 0 L700 0 L725 125 C678 72 627 34 572 10 C514 -16 446 -29 379 -29 C280 -29 195 -1 135 58 C73 119 47 205 47 300 C47 435 99 548 203 624 C306 699 456 737 651 737 L844 737 L852 786 C853 791 854 796 854 798 L854 815 C854 853 837 882 803 902 C769 922 719 932 657 932 C599 932 539 923 470 904 C404 886 334 859 248 819 L295 1069 C370 1095 442 1115 509 1128 C576 1141 637 1147 705 1147 C843 1147 954 1122 1029 1071 C1108 1018 1141 942 1141 845 C1141 821 1139 793 1134 756 C1129 718 1124 690 1114 639 L1114 639 Z M889 1585 L1127 1585 L1078 1339 L842 1339 L889 1585 L889 1585 Z M494 1585 L731 1585 L682 1339 L447 1339 L494 1585 L494 1585 Z " />
<glyph glyph-name="aring" unicode="&#xe5;" horiz-adv-x="1233" d="M803 530 L690 530 C575 530 490 513 435 478 C380 443 352 388 352 321 C352 273 366 240 393 213 C420 186 452 172 501 172 C573 172 641 203 694 265 C744 323 784 412 803 530 L803 530 Z M1114 639 L991 0 L700 0 L725 125 C678 72 627 34 572 10 C514 -16 446 -29 379 -29 C280 -29 195 -1 135 58 C73 119 47 205 47 300 C47 435 99 548 203 624 C306 699 456 737 651 737 L844 737 L852 786 C853 791 854 796 854 798 L854 815 C854 853 837 882 803 902 C769 922 719 932 657 932 C599 932 539 923 470 904 C404 886 334 859 248 819 L295 1069 C370 1095 442 1115 509 1128 C576 1141 637 1147 705 1147 C843 1147 954 1122 1029 1071 C1108 1018 1141 942 1141 845 C1141 821 1139 793 1134 756 C1129 718 1124 690 1114 639 L1114 639 Z M494 1533 C494 1618 529 1689 577 1737 C626 1786 697 1819 779 1819 C854 1819 926 1791 980 1737 C1026 1691 1063 1620 1063 1535 C1063 1452 1028 1379 981 1332 C927 1278 854 1249 778 1249 C703 1249 632 1277 576 1333 C522 1388 494 1458 494 1533 L494 1533 Z M647 1534 C647 1498 661 1465 685 1441 C707 1419 741 1403 780 1403 C815 1403 846 1416 872 1442 C897 1467 910 1498 910 1534 C910 1570 897 1601 871 1627 C845 1652 815 1665 779 1665 C743 1665 711 1652 686 1627 C660 1601 647 1570 647 1534 L647 1534 Z " />
<glyph glyph-name="ae" unicode="&#xe6;" horiz-adv-x="1233" d="M463 401 L477 479 L403 479 C338 479 286 462 247 428 C207 393 188 344 188 293 C188 256 198 230 217 210 C236 190 262 180 296 180 C340 180 375 197 402 232 C429 267 449 323 463 401 L463 401 Z M991 688 L1003 755 C1006 766 1008 778 1009 789 C1010 800 1010 815 1010 834 C1010 868 1003 893 990 909 C977 924 955 932 926 932 C889 932 858 918 835 890 C810 860 790 811 780 760 L766 688 L991 688 L991 688 Z M1176 477 L725 477 C716 417 716 418 714 402 C712 384 711 370 711 356 C711 301 728 256 754 227 C782 196 821 180 867 180 C903 180 945 190 991 209 C1032 226 1080 253 1124 289 L1077 51 C1039 24 997 4 952 -9 C907 -22 855 -29 806 -29 C737 -29 688 -15 642 14 C595 44 564 82 543 135 C502 80 458 39 409 12 C357 -17 305 -29 246 -29 C161 -29 94 -3 44 50 C-6 103 -31 171 -31 267 C-31 389 10 494 91 573 C172 651 280 690 416 690 L524 690 L535 748 C536 756 539 765 540 778 C541 788 541 797 541 799 C541 851 530 879 507 900 C484 921 451 932 409 932 C373 932 333 924 287 907 C238 889 188 864 131 831 L178 1069 C231 1095 281 1115 330 1128 C378 1141 427 1147 469 1147 C525 1147 571 1136 611 1112 C651 1088 677 1056 694 1014 C729 1057 769 1090 816 1113 C862 1136 913 1147 970 1147 C1053 1147 1118 1124 1163 1077 C1208 1030 1231 964 1231 876 C1231 844 1228 806 1223 761 C1216 700 1208 662 1198 606 L1176 477 L1176 477 Z " />
<glyph glyph-name="ccedilla" unicode="&#xe7;" horiz-adv-x="1233" d="M581.809 -27.099 C463.985 -18.6529 357.037 18.4373 278 94 C186 182 150 306 150 448 C150 637 214 821 333 950 C452 1079 621 1147 812 1147 C878 1147 946 1139 996 1127 C1050 1114 1106 1092 1157 1063 L1104 795 C1063 834 1020 862 975 881 C930 900 881 909 829 909 C711 909 618 862 553 786 C482 703 446 589 446 466 C446 375 466 314 507 272 C548 230 611 209 690 209 C741 209 789 218 842 235 C891 251 946 275 1012 313 L956 37 C905 15 852 -2 798 -13 C773.616 -17.8769 749.232 -21.5747 725.109 -24.18 C740.748 -47.7305 753.045 -70.8651 762 -94 C774 -125 780 -154 780 -185 C780 -247 755 -303 705 -342 C656 -380 583 -401 494 -401 C460 -401 416 -398 394 -395 C379 -393 314 -382 295 -375 L323 -219 C352 -230 380 -239 407 -245 C434 -251 459 -254 484 -254 C529 -254 565 -244 588 -227 C612 -209 624 -183 624 -151 C624 -133 620 -113 611 -90 C605.03 -74.3281 595.161 -52.5296 581.809 -27.099 L581.809 -27.099 Z " />
<glyph glyph-name="egrave" unicode="&#xe8;" horiz-adv-x="1233" d="M1044 324 L993 55 C930 27 864 6 795 -8 C726 -22 654 -29 583 -29 C416 -29 291 10 205 89 C117 170 76 288 76 438 C76 529 91 621 120 709 C150 799 191 873 244 938 C301 1007 370 1060 444 1095 C521 1131 605 1149 693 1149 C827 1149 948 1108 1030 1030 C1106 958 1155 845 1155 713 C1155 686 1153 642 1149 607 C1147 590 1137 519 1128 465 L369 465 C367 454 366 443 365 433 L362 403 C362 330 388 285 429 254 C474 220 539 203 629 203 C698 203 771 213 843 234 C915 255 982 285 1044 324 L1044 324 Z M410 684 L876 684 C879 693 881 703 882 712 C883 721 883 729 883 737 C883 794 866 838 832 871 C798 904 751 920 692 920 C625 920 568 900 521 861 C474 822 437 763 410 684 L410 684 Z M655 1638 L864 1262 L666 1262 L371 1638 L655 1638 L655 1638 Z " />
<glyph glyph-name="eacute" unicode="&#xe9;" horiz-adv-x="1233" d="M1044 324 L993 55 C930 27 864 6 795 -8 C726 -22 654 -29 583 -29 C416 -29 291 10 205 89 C117 170 76 288 76 438 C76 529 91 621 120 709 C150 799 191 873 244 938 C301 1007 370 1060 444 1095 C521 1131 605 1149 693 1149 C827 1149 948 1108 1030 1030 C1106 958 1155 845 1155 713 C1155 686 1153 642 1149 607 C1147 590 1137 519 1128 465 L369 465 C367 454 366 443 365 433 L362 403 C362 330 388 285 429 254 C474 220 539 203 629 203 C698 203 771 213 843 234 C915 255 982 285 1044 324 L1044 324 Z M410 684 L876 684 C879 693 881 703 882 712 C883 721 883 729 883 737 C883 794 866 838 832 871 C798 904 751 920 692 920 C625 920 568 900 521 861 C474 822 437 763 410 684 L410 684 Z M887 1638 L1208 1638 L766 1262 L569 1262 L887 1638 L887 1638 Z " />
<glyph glyph-name="ecircumflex" unicode="&#xea;" horiz-adv-x="1233" d="M1044 324 L993 55 C930 27 864 6 795 -8 C726 -22 654 -29 583 -29 C416 -29 291 10 205 89 C117 170 76 288 76 438 C76 529 91 621 120 709 C150 799 191 873 244 938 C301 1007 370 1060 444 1095 C521 1131 605 1149 693 1149 C827 1149 948 1108 1030 1030 C1106 958 1155 845 1155 713 C1155 686 1153 642 1149 607 C1147 590 1137 519 1128 465 L369 465 C367 454 366 443 365 433 L362 403 C362 330 388 285 429 254 C474 220 539 203 629 203 C698 203 771 213 843 234 C915 255 982 285 1044 324 L1044 324 Z M410 684 L876 684 C879 693 881 703 882 712 C883 721 883 729 883 737 C883 794 866 838 832 871 C798 904 751 920 692 920 C625 920 568 900 521 861 C474 822 437 763 410 684 L410 684 Z M668 1638 L911 1638 L1094 1262 L918 1262 L766 1487 L526 1262 L336 1262 L668 1638 L668 1638 Z " />
<glyph glyph-name="edieresis" unicode="&#xeb;" horiz-adv-x="1233" d="M1044 324 L993 55 C930 27 864 6 795 -8 C726 -22 654 -29 583 -29 C416 -29 291 10 205 89 C117 170 76 288 76 438 C76 529 91 621 120 709 C150 799 191 873 244 938 C301 1007 370 1060 444 1095 C521 1131 605 1149 693 1149 C827 1149 948 1108 1030 1030 C1106 958 1155 845 1155 713 C1155 686 1153 642 1149 607 C1147 590 1137 519 1128 465 L369 465 C367 454 366 443 365 433 L362 403 C362 330 388 285 429 254 C474 220 539 203 629 203 C698 203 771 213 843 234 C915 255 982 285 1044 324 L1044 324 Z M410 684 L876 684 C879 693 881 703 882 712 C883 721 883 729 883 737 C883 794 866 838 832 871 C798 904 751 920 692 920 C625 920 568 900 521 861 C474 822 437 763 410 684 L410 684 Z M858 1585 L1096 1585 L1047 1339 L811 1339 L858 1585 L858 1585 Z M463 1585 L700 1585 L651 1339 L416 1339 L463 1585 L463 1585 Z " />
<glyph glyph-name="igrave" unicode="&#xec;" horiz-adv-x="1233" d="M309 1120 L889 1120 L715 225 L1079 225 L1036 0 L14 0 L57 225 L422 225 L553 895 L266 895 L309 1120 L309 1120 Z M610 1638 L819 1262 L621 1262 L326 1638 L610 1638 L610 1638 Z " />
<glyph glyph-name="iacute" unicode="&#xed;" horiz-adv-x="1233" d="M309 1120 L889 1120 L715 225 L1079 225 L1036 0 L14 0 L57 225 L422 225 L553 895 L266 895 L309 1120 L309 1120 Z M842 1638 L1163 1638 L721 1262 L524 1262 L842 1638 L842 1638 Z " />
<glyph glyph-name="icircumflex" unicode="&#xee;" horiz-adv-x="1233" d="M309 1120 L889 1120 L715 225 L1079 225 L1036 0 L14 0 L57 225 L422 225 L553 895 L266 895 L309 1120 L309 1120 Z M623 1638 L866 1638 L1049 1262 L873 1262 L721 1487 L481 1262 L291 1262 L623 1638 L623 1638 Z " />
<glyph glyph-name="idieresis" unicode="&#xef;" horiz-adv-x="1233" d="M309 1120 L889 1120 L715 225 L1079 225 L1036 0 L14 0 L57 225 L422 225 L553 895 L266 895 L309 1120 L309 1120 Z M813 1585 L1051 1585 L1002 1339 L766 1339 L813 1585 L813 1585 Z M418 1585 L655 1585 L606 1339 L371 1339 L418 1585 L418 1585 Z " />
<glyph glyph-name="eth" unicode="&#xf0;" horiz-adv-x="1233" d="M838 778 C813 792 783 803 759 809 C732 816 700 819 676 819 C586 819 512 778 460 710 C403 635 375 534 375 437 C375 358 394 303 424 267 C453 232 499 207 560 207 C639 207 713 249 767 332 C821 416 848 529 848 649 C848 672 847 704 846 718 C845 729 841 758 838 778 L838 778 Z M1206 1442 L903 1329 C983 1208 1043 1091 1082 980 C1120 872 1141 764 1141 646 C1141 455 1086 283 977 158 C873 39 725 -29 538 -29 C389 -29 278 14 202 86 C119 165 82 278 82 420 C82 591 135 753 241 873 C339 984 478 1053 651 1053 C680 1053 704 1051 726 1047 C748 1043 769 1037 788 1028 C771 1067 769 1076 733 1145 C698 1212 692 1222 678 1243 L348 1120 L307 1235 L614 1350 L489 1556 L768 1556 L842 1436 L1165 1554 L1206 1442 L1206 1442 Z " />
<glyph glyph-name="ntilde" unicode="&#xf1;" horiz-adv-x="1233" d="M1102 728 L961 0 L668 0 L801 682 C806 709 808 729 809 735 C810 752 811 770 811 783 C811 821 803 855 782 877 C763 897 735 907 699 907 C643 907 597 883 558 835 C519 787 490 718 473 629 L352 0 L59 0 L276 1120 L569 1120 L537 952 C570 1015 617 1064 669 1096 C724 1130 787 1147 857 1147 C938 1147 1005 1124 1051 1078 C1095 1034 1120 969 1120 880 C1120 862 1119 838 1116 813 C1114 797 1108 758 1102 728 L1102 728 Z M739 1364 L690 1401 C688.517 1402.48 688.271 1402.73 688.243 1402.71 C688.195 1402.67 688.776 1401.85 685 1405 C662 1422 639 1438 612 1438 C589 1438 569 1427 552 1404 C535 1381 523 1349 516 1309 L377 1309 C390 1396 419 1465 464 1516 C509 1567 565 1593 625 1593 C648 1593 673 1589 692 1581 C711 1573 738 1555 768 1532 L819 1493 C832 1483 844 1475 856 1470 C868 1465 878 1462 890 1462 C916 1462 937 1475 953 1496 C970 1518 982 1550 989 1591 L1128 1591 C1113 1497 1084 1426 1043 1379 C1001 1331 945 1307 880 1307 C854 1307 834 1311 812 1320 C790 1329 766 1343 739 1364 L739 1364 Z " />
<glyph glyph-name="ograve" unicode="&#xf2;" horiz-adv-x="1233" d="M850 672 C850 763 833 817 804 853 C771 893 724 911 673 911 C591 911 520 865 466 776 C411 684 383 561 383 449 C383 378 394 312 431 267 C459 233 504 207 563 207 C640 207 712 252 767 343 C817 426 850 545 850 672 L850 672 Z M88 442 C88 630 144 815 254 949 C360 1078 510 1149 689 1149 C822 1149 943 1110 1025 1030 C1109 948 1145 827 1145 676 C1145 485 1088 303 980 171 C868 35 714 -29 543 -29 C392 -29 279 21 208 91 C123 174 88 294 88 442 L88 442 Z M655 1638 L864 1262 L666 1262 L371 1638 L655 1638 L655 1638 Z " />
<glyph glyph-name="oacute" unicode="&#xf3;" horiz-adv-x="1233" d="M850 672 C850 763 833 817 804 853 C771 893 724 911 673 911 C591 911 520 865 466 776 C411 684 383 561 383 449 C383 378 394 312 431 267 C459 233 504 207 563 207 C640 207 712 252 767 343 C817 426 850 545 850 672 L850 672 Z M88 442 C88 630 144 815 254 949 C360 1078 510 1149 689 1149 C822 1149 943 1110 1025 1030 C1109 948 1145 827 1145 676 C1145 485 1088 303 980 171 C868 35 714 -29 543 -29 C392 -29 279 21 208 91 C123 174 88 294 88 442 L88 442 Z M887 1638 L1208 1638 L766 1262 L569 1262 L887 1638 L887 1638 Z " />
<glyph glyph-name="ocircumflex" unicode="&#xf4;" horiz-adv-x="1233" d="M850 672 C850 763 833 817 804 853 C771 893 724 911 673 911 C591 911 520 865 466 776 C411 684 383 561 383 449 C383 378 394 312 431 267 C459 233 504 207 563 207 C640 207 712 252 767 343 C817 426 850 545 850 672 L850 672 Z M88 442 C88 630 144 815 254 949 C360 1078 510 1149 689 1149 C822 1149 943 1110 1025 1030 C1109 948 1145 827 1145 676 C1145 485 1088 303 980 171 C868 35 714 -29 543 -29 C392 -29 279 21 208 91 C123 174 88 294 88 442 L88 442 Z M668 1638 L911 1638 L1094 1262 L918 1262 L766 1487 L526 1262 L336 1262 L668 1638 L668 1638 Z " />
<glyph glyph-name="otilde" unicode="&#xf5;" horiz-adv-x="1233" d="M850 672 C850 763 833 817 804 853 C771 893 724 911 673 911 C591 911 520 865 466 776 C411 684 383 561 383 449 C383 378 394 312 431 267 C459 233 504 207 563 207 C640 207 712 252 767 343 C817 426 850 545 850 672 L850 672 Z M88 442 C88 630 144 815 254 949 C360 1078 510 1149 689 1149 C822 1149 943 1110 1025 1030 C1109 948 1145 827 1145 676 C1145 485 1088 303 980 171 C868 35 714 -29 543 -29 C392 -29 279 21 208 91 C123 174 88 294 88 442 L88 442 Z M739 1364 L690 1401 C688.517 1402.48 688.271 1402.73 688.243 1402.71 C688.195 1402.67 688.776 1401.85 685 1405 C662 1422 639 1438 612 1438 C589 1438 569 1427 552 1404 C535 1381 523 1349 516 1309 L377 1309 C390 1396 419 1465 464 1516 C509 1567 565 1593 625 1593 C648 1593 673 1589 692 1581 C711 1573 738 1555 768 1532 L819 1493 C832 1483 844 1475 856 1470 C868 1465 878 1462 890 1462 C916 1462 937 1475 953 1496 C970 1518 982 1550 989 1591 L1128 1591 C1113 1497 1084 1426 1043 1379 C1001 1331 945 1307 880 1307 C854 1307 834 1311 812 1320 C790 1329 766 1343 739 1364 L739 1364 Z " />
<glyph glyph-name="odieresis" unicode="&#xf6;" horiz-adv-x="1233" d="M850 672 C850 763 833 817 804 853 C771 893 724 911 673 911 C591 911 520 865 466 776 C411 684 383 561 383 449 C383 378 394 312 431 267 C459 233 504 207 563 207 C640 207 712 252 767 343 C817 426 850 545 850 672 L850 672 Z M88 442 C88 630 144 815 254 949 C360 1078 510 1149 689 1149 C822 1149 943 1110 1025 1030 C1109 948 1145 827 1145 676 C1145 485 1088 303 980 171 C868 35 714 -29 543 -29 C392 -29 279 21 208 91 C123 174 88 294 88 442 L88 442 Z M858 1585 L1096 1585 L1047 1339 L811 1339 L858 1585 L858 1585 Z M463 1585 L700 1585 L651 1339 L416 1339 L463 1585 L463 1585 Z " />
<glyph glyph-name="divide" unicode="&#xf7;" horiz-adv-x="1233" d="M461 1198 L770 1198 L770 889 L461 889 L461 1198 L461 1198 Z M461 395 L770 395 L770 86 L461 86 L461 395 L461 395 Z M66 762 L1165 762 L1165 524 L66 524 L66 762 L66 762 Z " />
<glyph glyph-name="oslash" unicode="&#xf8;" horiz-adv-x="1233" d="M850 670 L434 266 C452 244 468 232 490 222 C511 212 534 207 562 207 C642 207 707 247 758 328 C810 411 839 524 850 670 L850 670 Z M-82 2 L129 209 C116 240 106 273 99 308 C92 343 88 376 88 430 C88 633 145 819 253 950 C363 1083 517 1149 688 1149 C748 1149 806 1141 858 1124 C907 1108 957 1082 1001 1049 L1194 1235 L1311 1114 L1104 913 C1117 880 1128 846 1135 810 C1142 773 1145 739 1145 692 C1145 487 1089 302 980 170 C875 43 724 -29 541 -29 C480 -29 420 -21 370 -4 C319 13 274 38 233 72 L35 -117 L-82 2 L-82 2 Z M383 453 L801 856 C784 875 766 889 745 898 C724 907 700 911 674 911 C591 911 528 871 478 793 C426 712 396 600 383 453 L383 453 Z " />
<glyph glyph-name="ugrave" unicode="&#xf9;" horiz-adv-x="1233" d="M123 391 L266 1120 L557 1120 L426 436 C423 419 421 405 419 383 C417 362 416 351 416 336 C416 289 426 264 445 243 C462 225 486 211 529 211 C587 211 632 236 668 282 C706 330 735 401 752 489 L874 1120 L1165 1120 L948 0 L655 0 L688 166 C656 100 612 57 559 24 C498 -14 438 -29 372 -29 C288 -29 221 -5 175 42 C129 89 106 155 106 244 C106 262 107 284 110 308 C111 312 115 352 123 391 L123 391 Z M655 1638 L864 1262 L666 1262 L371 1638 L655 1638 L655 1638 Z " />
<glyph glyph-name="uacute" unicode="&#xfa;" horiz-adv-x="1233" d="M123 391 L266 1120 L557 1120 L426 436 C423 419 421 405 419 383 C417 362 416 351 416 336 C416 289 426 264 445 243 C462 225 486 211 529 211 C587 211 632 236 668 282 C706 330 735 401 752 489 L874 1120 L1165 1120 L948 0 L655 0 L688 166 C656 100 612 57 559 24 C498 -14 438 -29 372 -29 C288 -29 221 -5 175 42 C129 89 106 155 106 244 C106 262 107 284 110 308 C111 312 115 352 123 391 L123 391 Z M887 1638 L1208 1638 L766 1262 L569 1262 L887 1638 L887 1638 Z " />
<glyph glyph-name="ucircumflex" unicode="&#xfb;" horiz-adv-x="1233" d="M123 391 L266 1120 L557 1120 L426 436 C423 419 421 405 419 383 C417 362 416 351 416 336 C416 289 426 264 445 243 C462 225 486 211 529 211 C587 211 632 236 668 282 C706 330 735 401 752 489 L874 1120 L1165 1120 L948 0 L655 0 L688 166 C656 100 612 57 559 24 C498 -14 438 -29 372 -29 C288 -29 221 -5 175 42 C129 89 106 155 106 244 C106 262 107 284 110 308 C111 312 115 352 123 391 L123 391 Z M668 1638 L911 1638 L1094 1262 L918 1262 L766 1487 L526 1262 L336 1262 L668 1638 L668 1638 Z " />
<glyph glyph-name="udieresis" unicode="&#xfc;" horiz-adv-x="1233" d="M123 391 L266 1120 L557 1120 L426 436 C423 419 421 405 419 383 C417 362 416 351 416 336 C416 289 426 264 445 243 C462 225 486 211 529 211 C587 211 632 236 668 282 C706 330 735 401 752 489 L874 1120 L1165 1120 L948 0 L655 0 L688 166 C656 100 612 57 559 24 C498 -14 438 -29 372 -29 C288 -29 221 -5 175 42 C129 89 106 155 106 244 C106 262 107 284 110 308 C111 312 115 352 123 391 L123 391 Z M858 1585 L1096 1585 L1047 1339 L811 1339 L858 1585 L858 1585 Z M463 1585 L700 1585 L651 1339 L416 1339 L463 1585 L463 1585 Z " />
<glyph glyph-name="yacute" unicode="&#xfd;" horiz-adv-x="1233" d="M1257 1120 L551 -121 C477 -251 415 -334 358 -372 C307 -406 233 -424 150 -424 L-90 -424 L-45 -201 L72 -201 C131 -201 179 -190 209 -171 C241 -151 279 -105 319 -29 L358 45 L141 1120 L438 1120 L565 420 L948 1120 L1257 1120 L1257 1120 Z M887 1638 L1208 1638 L766 1262 L569 1262 L887 1638 L887 1638 Z " />
<glyph glyph-name="thorn" unicode="&#xfe;" horiz-adv-x="1233" d="M601 209 C681 209 747 266 794 350 C845 441 874 565 874 683 C874 762 861 814 833 851 C805 888 765 907 718 907 C644 907 573 860 519 769 C466 679 436 559 436 444 C436 371 448 311 480 269 C508 232 551 209 601 209 L601 209 Z M379 207 L256 -426 L-37 -426 L348 1556 L641 1556 L524 952 C571 1017 622 1066 677 1099 C729 1130 789 1147 854 1147 C949 1147 1027 1111 1084 1038 C1141 965 1169 867 1169 734 C1169 655 1159 567 1138 480 C1117 393 1086 310 1051 244 C1005 158 947 91 877 43 C807 -5 733 -29 654 -29 C580 -29 519 -8 471 33 C423 74 392 132 379 207 L379 207 Z " />
<glyph glyph-name="ydieresis" unicode="&#xff;" horiz-adv-x="1233" d="M1257 1120 L551 -121 C477 -251 415 -334 358 -372 C307 -406 233 -424 150 -424 L-90 -424 L-45 -201 L72 -201 C131 -201 179 -190 209 -171 C241 -151 279 -105 319 -29 L358 45 L141 1120 L438 1120 L565 420 L948 1120 L1257 1120 L1257 1120 Z M858 1585 L1096 1585 L1047 1339 L811 1339 L858 1585 L858 1585 Z M463 1585 L700 1585 L651 1339 L416 1339 L463 1585 L463 1585 Z " />
<glyph glyph-name="Cacute" unicode="&#x106;" horiz-adv-x="1233" d="M1010 371 L946 43 C893 18 838 0 789 -11 C735 -23 679 -29 624 -29 C477 -29 345 13 257 108 C168 204 131 346 131 517 C131 652 154 803 202 948 C248 1087 312 1205 393 1296 C456 1367 531 1424 620 1463 C707 1501 802 1520 903 1520 C959 1520 1011 1514 1064 1502 C1107 1492 1165 1474 1219 1448 L1155 1120 C1122 1165 1081 1200 1033 1223 C984 1246 927 1257 879 1257 C825 1257 768 1243 715 1210 C659 1175 616 1123 584 1074 C537 1002 501 918 473 819 C443 712 430 617 430 537 C430 443 448 363 493 308 C535 257 596 231 677 231 C729 231 781 242 836 265 C893 289 949 324 1010 371 L1010 371 Z M1004 1899 L1285 1899 L965 1635 L758 1635 L1004 1899 L1004 1899 Z " />
<glyph glyph-name="cacute" unicode="&#x107;" horiz-adv-x="1233" d="M1012 313 L956 37 C905 15 852 -2 798 -13 C743 -24 688 -29 636 -29 C497 -29 369 7 278 94 C186 182 150 306 150 448 C150 637 214 821 333 950 C452 1079 621 1147 812 1147 C878 1147 946 1139 996 1127 C1050 1114 1106 1092 1157 1063 L1104 795 C1063 834 1020 862 975 881 C930 900 881 909 829 909 C711 909 618 862 553 786 C482 703 446 589 446 466 C446 375 466 314 507 272 C548 230 611 209 690 209 C741 209 789 218 842 235 C891 251 946 275 1012 313 L1012 313 Z M973 1638 L1294 1638 L852 1262 L655 1262 L973 1638 L973 1638 Z " />
<glyph glyph-name="Ccaron" unicode="&#x10c;" horiz-adv-x="1233" d="M1010 371 L946 43 C893 18 838 0 789 -11 C735 -23 679 -29 624 -29 C477 -29 345 13 257 108 C168 204 131 346 131 517 C131 652 154 803 202 948 C248 1087 312 1205 393 1296 C456 1367 531 1424 620 1463 C707 1501 802 1520 903 1520 C959 1520 1011 1514 1064 1502 C1107 1492 1165 1474 1219 1448 L1155 1120 C1122 1165 1081 1200 1033 1223 C984 1246 927 1257 879 1257 C825 1257 768 1243 715 1210 C659 1175 616 1123 584 1074 C537 1002 501 918 473 819 C443 712 430 617 430 537 C430 443 448 363 493 308 C535 257 596 231 677 231 C729 231 781 242 836 265 C893 289 949 324 1010 371 L1010 371 Z M1088 1635 L740 1635 L603 1899 L773 1899 L922 1737 L1151 1899 L1332 1899 L1088 1635 L1088 1635 Z " />
<glyph glyph-name="ccaron" unicode="&#x10d;" horiz-adv-x="1233" d="M1012 313 L956 37 C905 15 852 -2 798 -13 C743 -24 688 -29 636 -29 C497 -29 369 7 278 94 C186 182 150 306 150 448 C150 637 214 821 333 950 C452 1079 621 1147 812 1147 C878 1147 946 1139 996 1127 C1050 1114 1106 1092 1157 1063 L1104 795 C1063 834 1020 862 975 881 C930 900 881 909 829 909 C711 909 618 862 553 786 C482 703 446 589 446 466 C446 375 466 314 507 272 C548 230 611 209 690 209 C741 209 789 218 842 235 C891 251 946 275 1012 313 L1012 313 Z M924 1262 L682 1262 L500 1638 L674 1638 L827 1411 L1065 1638 L1255 1638 L924 1262 L924 1262 Z " />
<glyph glyph-name="dcroat" unicode="&#x111;" horiz-adv-x="1233" d="M854 911 L920 1251 L616 1251 L653 1440 L956 1440 L979 1556 L1272 1556 L1249 1440 L1395 1440 L1358 1251 L1212 1251 L969 0 L678 0 L709 166 C665 102 616 54 561 21 C506 -12 447 -29 382 -29 C287 -29 209 8 152 81 C95 154 66 252 66 386 C66 465 76 553 97 639 C118 725 151 812 184 874 C227 955 286 1026 358 1076 C428 1125 502 1149 581 1149 C655 1149 717 1128 766 1086 C811 1047 844 988 854 911 L854 911 Z M634 909 C560 909 495 863 442 768 C389 673 362 553 362 436 C362 351 376 304 404 267 C432 230 468 211 517 211 C593 211 661 257 716 350 C771 443 799 558 799 674 C799 762 783 812 754 850 C724 889 683 909 634 909 L634 909 Z " />
<glyph glyph-name="Gbreve" unicode="&#x11e;" horiz-adv-x="1233" d="M1130 803 L991 94 C944 55 888 24 823 3 C758 -18 687 -29 611 -29 C442 -29 318 25 235 115 C142 216 102 360 102 528 C102 655 125 806 174 949 C217 1074 284 1200 367 1294 C426 1361 502 1422 595 1463 C682 1501 777 1520 876 1520 C932 1520 984 1514 1037 1502 C1080 1492 1138 1474 1192 1448 L1126 1120 C1092 1165 1052 1199 1006 1222 C960 1245 909 1257 857 1257 C805 1257 759 1245 721 1228 C681 1210 643 1183 605 1141 C575 1108 551 1072 529 1031 C510 996 488 949 469 891 C450 834 432 766 420 702 C409 641 403 584 403 533 C403 424 431 353 467 309 C510 257 572 231 647 231 C673 231 692 234 715 240 C731 244 750 250 770 264 L827 555 L621 555 L670 803 L1130 803 L1130 803 Z M481 1899 L624 1899 C631 1859 648 1830 675 1812 C703 1793 742 1784 792 1784 C845 1784 883 1794 919 1815 C955 1836 980 1863 995 1899 L1149 1899 C1122 1813 1076 1748 1010 1703 C944 1658 861 1635 767 1635 C672 1635 604 1658 555 1703 C506 1748 481 1812 481 1895 L481 1899 L481 1899 Z " />
<glyph glyph-name="gbreve" unicode="&#x11f;" horiz-adv-x="1233" d="M521 246 C594 246 665 291 720 379 C775 468 803 581 803 689 C803 757 792 815 762 855 C733 893 693 909 649 909 C573 909 502 860 450 777 C395 689 367 573 367 465 C367 398 378 340 407 301 C434 265 473 246 521 246 L521 246 Z M1190 1120 L987 84 C952 -95 893 -228 796 -309 C704 -386 567 -424 386 -424 C320 -424 257 -419 196 -409 C135 -399 76 -384 18 -365 L72 -100 C122 -130 175 -153 230 -168 C285 -183 342 -190 396 -190 C484 -190 548 -171 595 -132 C647 -89 672 -29 688 51 L715 184 C679 129 635 87 584 59 C532 30 475 16 409 16 C308 16 226 48 161 121 C98 192 68 282 68 407 C68 493 82 589 110 683 C140 784 180 866 225 932 C273 1002 330 1055 396 1093 C463 1132 531 1151 602 1151 C671 1151 729 1133 774 1096 C819 1059 848 1007 862 938 L897 1120 L1190 1120 L1190 1120 Z M446 1606 L590 1606 L590 1593 C590 1552 605 1520 634 1496 C663 1472 703 1460 754 1460 C808 1460 855 1473 894 1499 C932 1524 959 1557 977 1606 L1120 1606 C1101 1512 1060 1440 992 1387 C926 1335 843 1309 739 1309 C643 1309 569 1331 520 1375 C474 1416 446 1478 446 1573 L446 1606 L446 1606 Z " />
<glyph glyph-name="Idotaccent" unicode="&#x130;" horiz-adv-x="1233" d="M266 1233 L317 1493 L1206 1493 L1155 1233 L858 1233 L670 260 L967 260 L915 0 L27 0 L78 260 L375 260 L563 1233 L266 1233 L266 1233 Z M678 1899 L952 1899 L905 1653 L631 1653 L678 1899 L678 1899 Z " />
<glyph glyph-name="dotlessi" unicode="&#x131;" horiz-adv-x="1233" d="M309 1120 L889 1120 L715 225 L1079 225 L1036 0 L14 0 L57 225 L422 225 L553 895 L266 895 L309 1120 L309 1120 Z " />
<glyph glyph-name="Lslash" unicode="&#x141;" horiz-adv-x="1233" d="M80 0 L176 502 L45 403 L-70 557 L229 768 L371 1493 L666 1493 L571 1012 L821 1186 L936 1032 L518 737 L426 260 L1057 260 L1006 0 L80 0 L80 0 Z " />
<glyph glyph-name="lslash" unicode="&#x142;" horiz-adv-x="1233" d="M745 866 L639 364 C635 347 634 341 633 329 C632 321 631 308 631 300 C631 273 644 255 662 244 C680 233 709 225 770 225 L1049 225 L1004 0 L707 0 C570 0 473 19 417 56 C360 93 332 157 332 237 C332 259 334 277 337 300 C340 323 344 350 350 379 L403 639 L127 444 L37 590 L455 874 L553 1331 L248 1331 L291 1556 L889 1556 L795 1102 L1085 1305 L1188 1167 L745 866 L745 866 Z " />
<glyph glyph-name="OE" unicode="&#x152;" horiz-adv-x="1233" d="M1122 260 L1071 0 L494 0 C317 0 206 33 137 91 C66 151 31 246 31 402 C31 490 42 599 65 724 C88 849 121 978 158 1083 C205 1216 263 1324 353 1395 C443 1466 554 1493 666 1493 L1352 1493 L1300 1233 L969 1233 L909 922 L1210 922 L1159 662 L858 662 L780 260 L1122 260 L1122 260 Z M715 1233 L664 1233 C600 1233 555 1214 521 1186 C481 1153 454 1105 430 1039 C402 961 367 825 347 717 C327 611 315 507 315 440 C315 371 328 330 354 302 C378 276 415 260 475 260 L526 260 L715 1233 L715 1233 Z " />
<glyph glyph-name="oe" unicode="&#x153;" horiz-adv-x="1233" d="M1022 690 L1032 756 C1035 769 1037 783 1038 796 C1039 809 1040 821 1040 834 C1040 869 1033 894 1020 910 C1007 926 985 934 957 934 C919 934 889 920 866 892 C843 864 822 815 811 760 L797 690 L1022 690 L1022 690 Z M1206 479 L756 479 C750 444 746 417 744 400 C742 383 741 369 741 356 C741 305 756 260 784 230 C811 201 852 184 901 184 C939 184 980 194 1024 212 C1068 230 1108 253 1155 289 L1108 51 C1070 24 1028 4 982 -9 C936 -22 884 -29 835 -29 C766 -29 715 -15 671 12 C625 40 597 75 584 121 C551 71 510 34 463 9 C415 -16 362 -29 296 -29 C201 -29 117 -1 62 54 C9 107 -20 187 -20 309 C-20 384 -9 490 12 595 C34 706 64 803 99 881 C138 968 185 1034 254 1080 C320 1124 402 1147 486 1147 C541 1147 588 1137 628 1117 C669 1096 702 1063 725 1026 C757 1065 796 1095 842 1116 C888 1137 938 1147 993 1147 C1082 1147 1149 1122 1193 1078 C1239 1032 1262 962 1262 878 C1262 843 1258 794 1254 761 C1250 729 1239 660 1229 606 L1206 479 L1206 479 Z M319 184 C355 184 382 195 405 216 C431 240 448 274 465 322 C471 337 479 364 488 403 C497 442 507 494 520 559 C532 619 543 679 548 709 C553 739 557 775 557 804 C557 845 549 880 531 902 C514 923 489 934 451 934 C413 934 386 923 363 902 C336 878 324 853 304 797 C292 763 286 742 274 694 C259 634 255 615 244 559 C233 503 227 472 220 417 C214 373 211 350 211 322 C211 273 220 238 237 217 C254 195 282 184 319 184 L319 184 Z " />
<glyph glyph-name="Scedilla" unicode="&#x15e;" horiz-adv-x="1233" d="M437.541 -28.495 C371.929 -26.3819 308.581 -17.6695 243 -3 C163 15 87 41 4 76 L63 381 C128 327 191 288 266 258 C336 230 403 215 479 215 C568 215 637 235 688 274 C739 313 764 366 764 429 C764 475 751 511 729 540 C706 570 671 595 625 614 L506 664 C375 719 297 765 252 820 C214 866 190 927 190 1021 C190 1176 256 1299 351 1381 C454 1470 600 1520 770 1520 C834 1520 909 1513 971 1500 C1037 1486 1102 1463 1159 1438 L1102 1153 C1057 1194 1004 1226 943 1247 C882 1268 811 1278 748 1278 C656 1278 594 1257 549 1222 C500 1184 475 1131 475 1087 C475 1018 538 962 659 910 L666 907 L782 856 C882 812 952 759 996 700 C1041 639 1063 566 1063 472 C1063 326 1009 199 903 108 C821.683 38.5256 711.073 -6.64123 579.041 -22.579 C595.189 -46.6825 607.842 -70.341 617 -94 C629 -125 635 -154 635 -185 C635 -247 610 -303 560 -342 C511 -380 438 -401 349 -401 C315 -401 271 -398 249 -395 C234 -393 169 -382 150 -375 L178 -219 C207 -230 235 -239 262 -245 C289 -251 314 -254 339 -254 C384 -254 420 -244 443 -227 C467 -209 479 -183 479 -151 C479 -133 475 -113 466 -90 C460.139 -74.6156 450.522 -53.3275 437.541 -28.495 L437.541 -28.495 Z " />
<glyph glyph-name="scedilla" unicode="&#x15f;" horiz-adv-x="1233" d="M436.975 -27.251 C385.816 -24.5753 334.468 -19.0285 293 -12 C229 -1 156 18 90 41 L141 297 C205 256 258 232 322 212 C383 193 443 182 510 182 C583 182 641 195 682 220 C723 245 743 279 743 326 C743 362 731 380 712 395 C684 417 626 440 549 461 L461 485 C385 506 323 542 282 592 C246 636 225 691 225 767 C225 884 274 980 360 1045 C446 1110 573 1147 725 1147 C786 1147 856 1141 909 1132 C962 1123 1037 1105 1094 1085 L1044 831 C994 866 940 893 882 911 C824 929 763 938 705 938 C638 938 590 926 553 903 C515 879 498 847 498 810 C498 779 510 755 535 737 C561 718 612 697 700 672 L774 651 C862 626 924 588 961 544 C1000 497 1020 437 1020 360 C1020 239 971 141 884 75 C807.435 17.3708 702.404 -15.858 581.182 -25.803 C596.311 -48.7936 608.25 -71.397 617 -94 C629 -125 635 -154 635 -185 C635 -247 610 -303 560 -342 C511 -380 438 -401 349 -401 C315 -401 271 -398 249 -395 C234 -393 169 -382 150 -375 L178 -219 C207 -230 235 -239 262 -245 C289 -251 314 -254 339 -254 C384 -254 420 -244 443 -227 C467 -209 479 -182 479 -150 C479 -132 475 -113 466 -89 C460.054 -73.3929 450.243 -52.2628 436.975 -27.251 L436.975 -27.251 Z " />
<glyph glyph-name="Scaron" unicode="&#x160;" horiz-adv-x="1233" d="M625 614 L506 664 C375 719 297 765 252 820 C214 866 190 927 190 1021 C190 1176 256 1299 351 1381 C454 1470 600 1520 770 1520 C834 1520 909 1513 971 1500 C1037 1486 1102 1463 1159 1438 L1102 1153 C1057 1194 1004 1226 943 1247 C882 1268 811 1278 748 1278 C656 1278 594 1257 549 1222 C500 1184 475 1131 475 1087 C475 1018 538 962 659 910 L666 907 L782 856 C882 812 952 759 996 700 C1041 639 1063 566 1063 472 C1063 326 1009 199 903 108 C800 20 650 -29 469 -29 C392 -29 319 -20 243 -3 C163 15 87 41 4 76 L63 381 C128 327 191 288 266 258 C336 230 403 215 479 215 C568 215 637 235 688 274 C739 313 764 366 764 429 C764 475 751 511 729 540 C706 570 671 595 625 614 L625 614 Z M942 1635 L594 1635 L457 1899 L627 1899 L776 1737 L1005 1899 L1186 1899 L942 1635 L942 1635 Z " />
<glyph glyph-name="scaron" unicode="&#x161;" horiz-adv-x="1233" d="M1094 1085 L1044 831 C994 866 940 893 882 911 C824 929 763 938 705 938 C638 938 590 926 553 903 C515 879 498 847 498 810 C498 779 510 755 535 737 C561 718 612 697 700 672 L774 651 C862 626 924 588 961 544 C1000 497 1020 437 1020 360 C1020 239 971 141 884 75 C791 5 656 -29 501 -29 C431 -29 352 -22 293 -12 C229 -1 156 18 90 41 L141 297 C205 256 258 232 322 212 C383 193 443 182 510 182 C583 182 641 195 682 220 C723 245 743 279 743 326 C743 362 731 380 712 395 C684 417 626 440 549 461 L461 485 C385 506 323 542 282 592 C246 636 225 691 225 767 C225 884 274 980 360 1045 C446 1110 573 1147 725 1147 C786 1147 856 1141 909 1132 C962 1123 1037 1105 1094 1085 L1094 1085 Z M838 1262 L596 1262 L414 1638 L588 1638 L741 1411 L979 1638 L1169 1638 L838 1262 L838 1262 Z " />
<glyph glyph-name="Ydieresis" unicode="&#x178;" horiz-adv-x="1233" d="M145 1493 L438 1493 L625 844 L1036 1493 L1358 1493 L725 588 L610 0 L317 0 L432 588 L145 1493 L145 1493 Z M895 1899 L1130 1899 L1083 1653 L846 1653 L895 1899 L895 1899 Z M500 1899 L735 1899 L686 1653 L450 1653 L500 1899 L500 1899 Z " />
<glyph glyph-name="Zcaron" unicode="&#x17d;" horiz-adv-x="1233" d="M281 1493 L1290 1493 L1241 1249 L365 260 L1065 260 L1014 0 L-33 0 L14 244 L872 1233 L229 1233 L281 1493 L281 1493 Z M942 1635 L594 1635 L457 1899 L627 1899 L776 1737 L1005 1899 L1186 1899 L942 1635 L942 1635 Z " />
<glyph glyph-name="zcaron" unicode="&#x17e;" horiz-adv-x="1233" d="M293 1120 L1188 1120 L1143 891 L436 219 L1012 219 L969 0 L49 0 L94 229 L801 901 L250 901 L293 1120 L293 1120 Z M838 1262 L596 1262 L414 1638 L588 1638 L741 1411 L979 1638 L1169 1638 L838 1262 L838 1262 Z " />
<glyph glyph-name="florin" unicode="&#x192;" horiz-adv-x="1233" d="M1153 1505 L1153 1274 C1123 1293 1094 1304 1071 1312 C1044 1321 1019 1325 992 1325 C931 1325 882 1305 848 1265 C812 1223 789 1158 778 1075 L754 885 L1014 885 L1014 666 L725 666 L631 -47 C616 -160 574 -259 505 -327 C438 -393 350 -426 240 -426 C202 -426 163 -422 125 -414 C93 -407 51 -393 12 -375 L12 -141 C41 -159 68 -173 95 -182 C122 -191 147 -195 175 -195 C236 -195 287 -175 322 -135 C356 -96 380 -31 391 55 L471 666 L219 666 L219 885 L500 885 L539 1178 C555 1300 601 1396 665 1458 C732 1523 822 1556 926 1556 C963 1556 1007 1552 1042 1544 C1073 1537 1119 1521 1153 1505 L1153 1505 Z " />
<glyph glyph-name="circumflex" unicode="&#x2c6;" horiz-adv-x="1233" d="M668 1638 L911 1638 L1094 1262 L918 1262 L766 1487 L526 1262 L336 1262 L668 1638 L668 1638 Z " />
<glyph glyph-name="caron" unicode="&#x2c7;" horiz-adv-x="1233" d="M838 1262 L596 1262 L414 1638 L588 1638 L741 1411 L979 1638 L1169 1638 L838 1262 L838 1262 Z " />
<glyph glyph-name="breve" unicode="&#x2d8;" horiz-adv-x="1233" d="M446 1606 L590 1606 L590 1593 C590 1552 605 1520 634 1496 C663 1472 703 1460 754 1460 C808 1460 855 1473 894 1499 C932 1524 959 1557 977 1606 L1120 1606 C1101 1512 1060 1440 992 1387 C926 1335 843 1309 739 1309 C643 1309 569 1331 520 1375 C474 1416 446 1478 446 1573 L446 1606 L446 1606 Z " />
<glyph glyph-name="dotaccent" unicode="&#x2d9;" horiz-adv-x="1233" d="M643 1585 L915 1585 L868 1339 L594 1339 L643 1585 L643 1585 Z " />
<glyph glyph-name="ring" unicode="&#x2da;" horiz-adv-x="1233" d="M463 1533 C463 1618 498 1689 546 1737 C595 1786 666 1819 748 1819 C823 1819 895 1791 949 1737 C995 1691 1032 1620 1032 1535 C1032 1452 997 1379 950 1332 C896 1278 823 1249 747 1249 C672 1249 601 1277 545 1333 C491 1388 463 1458 463 1533 L463 1533 Z M616 1534 C616 1498 630 1465 654 1441 C676 1419 710 1403 749 1403 C784 1403 815 1416 841 1442 C866 1467 879 1498 879 1534 C879 1570 866 1601 840 1627 C814 1652 784 1665 748 1665 C712 1665 680 1652 655 1627 C629 1601 616 1570 616 1534 L616 1534 Z " />
<glyph glyph-name="ogonek" unicode="&#x2db;" horiz-adv-x="1233" d="M412 0 L553 0 C503 -53 470 -92 454 -117 C439 -140 430 -162 430 -182 C430 -201 439 -220 456 -234 C472 -247 495 -254 529 -254 C547 -254 574 -252 601 -247 C628 -242 656 -234 686 -223 L655 -379 C631 -384 580 -394 560 -396 C533 -399 496 -401 471 -401 C409 -401 354 -389 314 -363 C277 -339 256 -304 256 -256 C256 -219 269 -177 295 -134 C321 -91 360 -46 412 0 L412 0 Z " />
<glyph glyph-name="tilde" unicode="&#x2dc;" horiz-adv-x="1233" d="M739 1364 L690 1401 C688.517 1402.48 688.271 1402.73 688.243 1402.71 C688.195 1402.67 688.776 1401.85 685 1405 C662 1422 639 1438 612 1438 C589 1438 569 1427 552 1404 C535 1381 523 1349 516 1309 L377 1309 C390 1396 419 1465 464 1516 C509 1567 565 1593 625 1593 C648 1593 673 1589 692 1581 C711 1573 738 1555 768 1532 L819 1493 C832 1483 844 1475 856 1470 C868 1465 878 1462 890 1462 C916 1462 937 1475 953 1496 C970 1518 982 1550 989 1591 L1128 1591 C1113 1497 1084 1426 1043 1379 C1001 1331 945 1307 880 1307 C854 1307 834 1311 812 1320 C790 1329 766 1343 739 1364 L739 1364 Z " />
<glyph glyph-name="hungarumlaut" unicode="&#x2dd;" horiz-adv-x="1233" d="M1008 1638 L1268 1638 L922 1262 L750 1262 L1008 1638 L1008 1638 Z M612 1638 L858 1638 L537 1262 L373 1262 L612 1638 L612 1638 Z " />
<glyph glyph-name="Omega" unicode="&#x3a9;" horiz-adv-x="1233" d="M90 211 L328 211 C248 284 190 365 154 456 C118 546 100 656 100 781 C100 989 150 1161 239 1278 C325 1391 453 1460 615 1460 C775 1460 904 1393 993 1277 C1083 1160 1133 992 1133 782 C1133 656 1115 546 1079 456 C1043 365 985 284 905 211 L1143 211 L1143 0 L672 0 L672 268 C726 321 766 386 792 464 C818 542 831 636 831 751 C831 890 812 1001 775 1078 C738 1155 685 1194 616 1194 C548 1194 496 1156 458 1078 C420 1000 401 891 401 751 C401 636 414 543 441 464 C466 391 504 323 563 268 L563 0 L90 0 L90 211 L90 211 Z " />
<glyph glyph-name="pi" unicode="&#x3c0;" horiz-adv-x="1233" d="M1182 1100 L1182 891 L1020 891 L1020 362 C1020 264 1030 222 1045 202 C1061 181 1092 170 1139 170 C1156 170 1170 170 1181 171 L1214 174 L1214 -14 C1185 -23 1154 -29 1121 -33 C1088 -37 1051 -39 1018 -39 C961 -39 918 -33 880 -22 C836 -9 812 8 793 27 C771 49 757 75 749 102 C740 131 735 174 735 233 L735 268 L735 891 L461 891 L461 0 L176 0 L176 891 L14 891 L14 1100 L1182 1100 L1182 1100 Z " />
<glyph glyph-name="endash" unicode="&#x2013;" horiz-adv-x="1233" d="M-10 690 L1223 690 L1174 444 L-59 444 L-10 690 L-10 690 Z " />
<glyph glyph-name="emdash" unicode="&#x2014;" horiz-adv-x="1233" d="M-10 690 L1223 690 L1174 444 L-59 444 L-10 690 L-10 690 Z " />
<glyph glyph-name="quoteleft" unicode="&#x2018;" horiz-adv-x="1233" d="M733 903 L420 903 L473 1174 L743 1556 L958 1556 L786 1174 L733 903 L733 903 Z " />
<glyph glyph-name="quoteright" unicode="&#x2019;" horiz-adv-x="1233" d="M645 1556 L958 1556 L905 1286 L635 903 L420 903 L592 1286 L645 1556 L645 1556 Z " />
<glyph glyph-name="quotesinglbase" unicode="&#x201a;" horiz-adv-x="1233" d="M397 367 L711 367 L657 96 L387 -287 L172 -287 L344 96 L397 367 L397 367 Z " />
<glyph glyph-name="quotedblleft" unicode="&#x201c;" horiz-adv-x="1233" d="M508 903 L195 903 L248 1174 L518 1556 L733 1556 L561 1174 L508 903 L508 903 Z M1028 903 L715 903 L768 1174 L1038 1556 L1253 1556 L1081 1174 L1028 903 L1028 903 Z " />
<glyph glyph-name="quotedblright" unicode="&#x201d;" horiz-adv-x="1233" d="M893 1556 L1206 1556 L1153 1286 L883 903 L668 903 L840 1286 L893 1556 L893 1556 Z M373 1556 L686 1556 L633 1286 L362 903 L147 903 L319 1286 L373 1556 L373 1556 Z " />
<glyph glyph-name="quotedblbase" unicode="&#x201e;" horiz-adv-x="1233" d="M666 367 L979 367 L928 96 L655 -287 L442 -287 L614 96 L666 367 L666 367 Z M145 367 L459 367 L408 96 L135 -287 L-78 -287 L94 96 L145 367 L145 367 Z " />
<glyph glyph-name="dagger" unicode="&#x2020;" horiz-adv-x="1233" d="M633 1493 L889 1493 L813 1106 L1145 1106 L1102 883 L770 883 L561 -197 L305 -197 L514 883 L182 883 L225 1106 L557 1106 L633 1493 L633 1493 Z " />
<glyph glyph-name="daggerdbl" unicode="&#x2021;" horiz-adv-x="1233" d="M633 1493 L889 1493 L813 1106 L1147 1106 L1102 883 L770 883 L680 414 L1012 414 L969 190 L635 190 L561 -197 L305 -197 L379 190 L49 190 L92 414 L424 414 L514 883 L182 883 L227 1106 L557 1106 L633 1493 L633 1493 Z " />
<glyph glyph-name="bullet" unicode="&#x2022;" horiz-adv-x="1233" d="M256 762 C256 810 265 857 284 902 C302 944 330 985 362 1016 C395 1048 439 1077 480 1094 C519 1110 567 1120 617 1120 C665 1120 711 1111 755 1093 C798 1075 838 1048 870 1016 C903 983 932 942 950 899 C968 856 977 810 977 762 C977 713 968 667 950 624 C935 588 909 545 870 506 C835 471 799 446 754 427 C716 411 668 399 614 399 C566 399 521 408 476 427 C441 442 395 470 360 506 C327 540 300 582 283 623 C265 666 256 714 256 762 L256 762 Z " />
<glyph glyph-name="ellipsis" unicode="&#x2026;" horiz-adv-x="1233" d="M786 367 L1100 367 L1030 0 L715 0 L786 367 L786 367 Z M395 367 L690 367 L621 0 L324 0 L395 367 L395 367 Z M-16 367 L299 367 L227 0 L-86 0 L-16 367 L-16 367 Z " />
<glyph glyph-name="perthousand" unicode="&#x2030;" horiz-adv-x="1233" d="M662 285 L662 289 C662 366 690 437 744 492 C798 546 869 575 946 575 C1026 575 1099 543 1150 492 C1205 437 1233 364 1233 288 C1233 212 1205 141 1150 85 C1098 32 1027 0 946 0 C871 0 801 28 746 82 C690 138 662 208 662 285 L662 285 Z M946 414 C916 414 884 402 860 378 C839 357 823 324 823 288 C823 256 836 223 859 199 C878 179 911 162 946 162 C978 162 1011 176 1035 200 C1055 220 1071 253 1071 291 C1071 323 1059 351 1034 376 C1009 400 980 413 946 414 L946 414 Z M0 1144 C0 1227 33 1300 82 1349 C135 1402 209 1432 287 1432 C368 1432 438 1400 489 1348 C539 1297 571 1226 571 1144 C571 1068 543 997 489 941 C433 883 361 856 287 856 C205 856 134 889 84 939 C29 994 0 1066 0 1144 L0 1144 Z M284 1270 C250 1270 221 1258 198 1235 C174 1211 162 1182 162 1147 C162 1112 174 1081 198 1056 C222 1031 251 1018 285 1018 C319 1018 348 1031 373 1057 C400 1085 410 1114 410 1146 C410 1181 398 1208 373 1233 C348 1258 318 1270 284 1270 L284 1270 Z M45 290 C45 373 74 438 128 492 C183 547 250 575 329 575 C408 575 478 547 533 492 C586 439 616 370 616 288 C616 211 590 144 532 85 C476 28 409 0 330 0 C251 0 183 28 128 84 C73 140 45 208 45 290 L45 290 Z M330 414 C296 414 267 402 243 378 C219 354 207 325 207 291 C207 256 219 225 243 200 C267 175 296 162 330 162 C364 162 393 175 418 201 C445 229 455 258 455 290 C455 325 443 352 418 377 C393 402 363 414 330 414 L330 414 Z M35 664 L1079 1079 L1118 985 L72 565 L35 664 L35 664 Z " />
<glyph glyph-name="guilsinglleft" unicode="&#x2039;" horiz-adv-x="1233" d="M877 1059 L827 807 L510 580 L739 354 L698 141 L305 535 L330 666 L877 1059 L877 1059 Z " />
<glyph glyph-name="guilsinglright" unicode="&#x203a;" horiz-adv-x="1233" d="M496 1059 L887 666 L862 535 L317 141 L362 379 L684 600 L449 821 L496 1059 L496 1059 Z " />
<glyph glyph-name="Euro" unicode="&#x20ac;" horiz-adv-x="1233" d="M113 1010 L260 1010 C322 1175 410 1302 524 1389 C638 1476 773 1520 924 1520 C980 1520 1032 1514 1084 1502 C1136 1490 1186 1472 1235 1448 L1171 1120 C1132 1173 1086 1212 1046 1234 C999 1260 946 1272 896 1272 C828 1272 763 1250 706 1205 C650 1161 602 1097 563 1010 L965 1010 L883 821 L498 821 C494 804 485 759 482 745 L467 670 L813 670 L731 483 L453 483 C458 400 481 336 524 289 C567 242 622 219 694 219 C742 219 793 229 842 250 C888 270 948 307 1030 371 L967 43 C916 19 865 1 813 -11 C760 -23 706 -29 651 -29 C493 -29 374 21 294 105 C210 194 168 321 168 477 L168 483 L-33 483 L51 670 L178 670 C181 699 185 726 190 751 C193 768 200 799 205 821 L29 821 L113 1010 L113 1010 Z " />
<glyph glyph-name="trademark" unicode="&#x2122;" horiz-adv-x="1233" d="M729 1493 L829 1266 L918 1493 L1126 1493 L1126 915 L973 915 L973 1352 L866 1096 L791 1096 L674 1352 L674 915 L522 915 L522 1493 L729 1493 L729 1493 Z M438 1493 L438 1360 L297 1360 L297 915 L141 915 L141 1360 L0 1360 L0 1493 L438 1493 L438 1493 Z " />
<glyph glyph-name="partialdiff" unicode="&#x2202;" horiz-adv-x="1233" d="M831 662 C846 738 854 802 860 851 C867 910 870 964 870 1006 C870 1074 862 1126 845 1164 C827 1204 802 1221 775 1221 C735 1221 682 1185 629 1148 C564 1103 515 1075 469 1075 C441 1075 417 1085 398 1105 C379 1125 369 1150 369 1176 C369 1218 395 1259 455 1296 C512 1331 581 1350 661 1350 C798 1350 899 1294 975 1189 C1053 1081 1092 940 1092 750 C1092 538 1043 348 935 196 C832 51 700 -25 538 -25 C419 -25 328 16 256 90 C182 166 145 261 145 384 C145 511 184 623 262 711 C339 798 434 842 550 842 C616 842 674 828 719 799 C764 770 801 724 831 662 L831 662 Z M770 507 C770 588 760 652 732 696 C706 737 669 758 622 758 C554 758 498 713 454 624 C411 537 387 424 387 294 C387 199 400 146 425 106 C451 65 488 45 535 45 C602 45 659 87 704 179 C748 268 770 387 770 507 L770 507 Z " />
<glyph glyph-name="Delta" unicode="&#x2206;" horiz-adv-x="1233" d="M891 221 L616 1042 L342 221 L891 221 L891 221 Z M487 1423 L745 1423 L1241 0 L-6 0 L487 1423 L487 1423 Z " />
<glyph glyph-name="product" unicode="&#x220f;" horiz-adv-x="1233" d="M1081 1518 L1081 -436 L825 -436 L825 1311 L408 1311 L408 -436 L152 -436 L152 1518 L1081 1518 L1081 1518 Z " />
<glyph glyph-name="summation" unicode="&#x2211;" horiz-adv-x="1233" d="M621 569 L127 1378 L127 1518 L1087 1518 L1087 1305 L440 1305 L889 569 L438 -225 L1104 -225 L1104 -436 L127 -436 L127 -301 L621 569 L621 569 Z " />
<glyph glyph-name="minus" unicode="&#x2212;" horiz-adv-x="1233" d="M66 762 L1165 762 L1165 524 L66 524 L66 762 L66 762 Z " />
<glyph glyph-name="fraction" unicode="&#x2215;" horiz-adv-x="1233" d="M852 1493 L1075 1493 L221 -190 L0 -190 L852 1493 L852 1493 Z " />
<glyph glyph-name="periodcentered" unicode="&#x2219;" horiz-adv-x="1233" d="M479 895 L813 895 L741 530 L408 530 L479 895 L479 895 Z " />
<glyph glyph-name="radical" unicode="&#x221a;" horiz-adv-x="1233" d="M113 670 L49 868 L401 991 L571 410 L958 1726 L1174 1726 L1174 1518 L1122 1518 L662 -39 L475 -39 L256 721 L113 670 L113 670 Z " />
<glyph glyph-name="infinity" unicode="&#x221e;" horiz-adv-x="1233" d="M725 629 C760 545 786 499 813 468 C840 437 870 422 903 422 C941 422 975 443 999 480 C1024 519 1036 573 1036 635 C1036 695 1025 747 1003 785 C982 821 951 842 912 842 C876 842 841 824 808 787 C775 750 748 698 725 629 L725 629 Z M506 635 C470 718 440 773 415 801 C389 830 359 842 329 842 C289 842 255 819 233 785 C209 748 195 693 195 628 C195 571 206 517 229 478 C251 441 281 422 319 422 C354 422 388 439 419 474 C450 509 479 562 506 635 L506 635 Z M616 831 C646 902 684 955 731 989 C778 1023 834 1040 901 1040 C998 1040 1076 1003 1134 928 C1192 853 1221 753 1221 633 C1221 511 1191 415 1131 338 C1071 261 995 223 904 223 C845 223 793 239 748 272 C704 304 659 357 616 428 C579 359 537 308 490 274 C443 240 391 223 331 223 C241 223 164 262 103 339 C42 416 12 511 12 634 C12 754 41 855 99 929 C159 1006 237 1040 328 1040 C392 1040 446 1023 494 988 C542 953 583 901 616 831 L616 831 Z " />
<glyph glyph-name="integral" unicode="&#x222b;" horiz-adv-x="1233" d="M365 -252 C434 -252 472 -44 485 387 C489 522 487 447 492 599 C504 947 543 1178 616 1330 C685 1474 788 1554 941 1554 C1009 1554 1060 1538 1100 1505 C1136 1475 1159 1431 1159 1378 C1159 1334 1143 1300 1121 1279 C1096 1255 1059 1243 1021 1243 C990 1243 966 1251 945 1267 C924 1283 910 1306 903 1336 C898 1356 898 1368 896 1390 C894 1410 890 1436 867 1436 C799 1436 761 1217 747 802 C745 749 746 742 741 624 C731 377 726 295 710 181 C697 90 681 7 652 -70 C614 -171 561 -246 502 -296 C442 -347 370 -373 290 -373 C222 -373 167 -354 131 -324 C97 -296 72 -252 72 -196 C72 -156 85 -123 111 -98 C137 -73 171 -61 210 -61 C247 -61 278 -72 301 -92 C326 -114 335 -141 336 -164 C337 -224 338 -229 342 -237 C346 -246 353 -252 365 -252 L365 -252 Z " />
<glyph glyph-name="approxequal" unicode="&#x2248;" horiz-adv-x="1233" d="M1145 602 L1145 369 C1095 329 1048 301 999 282 C951 263 900 254 850 254 C775 254 718 274 645 305 C615 318 616 317 612 319 C561 342 518 357 484 365 C449 373 415 377 381 377 C329 377 280 367 233 348 C194 332 142 303 88 256 L88 485 C140 526 190 555 239 573 C288 591 342 600 391 600 C461 600 534 582 621 545 L622 545 C627 543 638 538 653 531 C727 497 796 477 864 477 C915 477 958 488 1003 508 C1053 530 1096 559 1145 602 L1145 602 Z M1145 1020 L1145 786 C1095 747 1048 719 999 700 C951 681 900 672 850 672 C775 672 718 692 645 723 C615 736 616 735 612 737 C561 760 518 775 484 783 C449 791 415 795 381 795 C329 795 280 785 233 766 C194 750 142 721 88 674 L88 903 C141 944 194 974 239 991 C287 1009 343 1018 392 1018 C461 1018 534 1000 621 963 L622 963 C629 960 639 955 652 949 C730 913 801 895 864 895 C911 895 958 905 1003 925 C1048 945 1096 977 1145 1020 L1145 1020 Z " />
<glyph glyph-name="notequal" unicode="&#x2260;" horiz-adv-x="1233" d="M78 987 L737 987 L989 1292 L1139 1167 L993 987 L1155 987 L1155 752 L840 752 L666 532 L1155 532 L1155 295 L496 295 L244 -10 L94 117 L240 295 L78 295 L78 532 L399 532 L575 752 L78 752 L78 987 L78 987 Z " />
<glyph glyph-name="lessequal" unicode="&#x2264;" horiz-adv-x="1233" d="M1145 948 L406 739 L1145 530 L1145 287 L88 623 L88 858 L1145 1192 L1145 948 L1145 948 Z M1145 238 L1145 0 L88 0 L88 238 L1145 238 L1145 238 Z " />
<glyph glyph-name="greaterequal" unicode="&#x2265;" horiz-adv-x="1233" d="M88 948 L88 1192 L1145 858 L1145 623 L88 287 L88 530 L827 739 L88 948 L88 948 Z M88 238 L1145 238 L1145 0 L88 0 L88 238 L88 238 Z " />
<glyph glyph-name="lozenge" unicode="&#x25ca;" horiz-adv-x="1233" d="M616 1409 L231 592 L616 -233 L1001 592 L616 1409 L616 1409 Z M616 1653 L1116 592 L616 -477 L117 592 L616 1653 L616 1653 Z " />
<glyph glyph-name="fi" unicode="&#xfb01;" horiz-adv-x="1233" d="M987 1556 L1280 1556 L1223 1264 L932 1264 L987 1556 L987 1556 Z M612 1219 L594 1120 L1196 1120 L979 0 L686 0 L860 895 L549 895 L375 0 L82 0 L256 895 L66 895 L111 1120 L301 1120 L315 1198 C338 1326 388 1426 453 1478 C519 1530 628 1556 780 1556 L860 1556 L817 1331 L750 1331 C706 1331 674 1323 655 1307 C637 1292 621 1261 612 1219 L612 1219 Z " />
<glyph glyph-name="fl" unicode="&#xfb02;" horiz-adv-x="1233" d="M612 1219 L594 1120 L780 1120 L737 895 L549 895 L375 0 L82 0 L256 895 L66 895 L111 1120 L301 1120 L315 1198 C338 1326 388 1426 453 1478 C519 1530 628 1556 780 1556 L1280 1556 L979 0 L686 0 L944 1331 L750 1331 C706 1331 674 1323 655 1307 C637 1292 621 1261 612 1219 L612 1219 Z " />
</font>
</svg>
