<?xml version="1.0" encoding="UTF-8"?>
<svg xmlns="http://www.w3.org/2000/svg" xmlns:xlink="http://www.w3.org/1999/xlink" version="1.2" >
<font id="Hack Bold">
<font-face  font-family="Hack" units-per-em="2048" ascent="1556" descent="-492" font-style="normal" font-weight="700" font-stretch="normal" cap-height="1493" x-height="1120" underline-position="-344" underline-thickness="246" />
<missing-glyph  horiz-adv-x="1233" d="M104 -362 L104 1444 L1128 1444 L1128 -362 L104 -362 L104 -362 Z M219 -248 L1014 -248 L1014 1329 L219 1329 L219 -248 L219 -248 Z " />
<glyph glyph-name="CR" unicode="&#xd;" horiz-adv-x="1233" d="" />
<glyph glyph-name="space" unicode="&#x20;" horiz-adv-x="1233" d="" />
<glyph glyph-name="exclam" unicode="&#x21;" horiz-adv-x="1233" d="M464 113 C464 160 478 198 507 227 C520 240 521 240 525 244 C531 249 538 253 545 256 C549 258 561 263 567 265 C570 266 582 269 590 270 C597 271 607 272 617 272 C658 272 694 257 723 228 C752 199 766 161 766 111 C766 98 765 82 762 69 C759 55 754 42 747 30 C740 17 736 11 723 -3 C709 -18 694 -29 674 -37 C654 -45 634 -48 615 -48 C571 -48 533 -31 507 -4 C478 26 464 65 464 113 L464 113 Z M470 1508 L755 1508 L755 1052 L687 476 L548 476 L470 1052 L470 1508 L470 1508 Z " />
<glyph glyph-name="quotedbl" unicode="&#x22;" horiz-adv-x="1233" d="M999 1493 L999 938 L743 938 L743 1493 L999 1493 L999 1493 Z M487 1493 L487 938 L231 938 L231 1493 L487 1493 L487 1493 Z " />
<glyph glyph-name="numbersign" unicode="&#x23;" horiz-adv-x="1233" d="M707 1470 L612 1096 L815 1096 L909 1470 L1133 1470 L1036 1096 L1229 1096 L1229 881 L983 881 L909 588 L1114 588 L1114 373 L856 373 L762 0 L541 0 L635 373 L430 373 L336 0 L115 0 L209 373 L2 373 L2 588 L262 588 L336 881 L117 881 L117 1096 L391 1096 L485 1470 L707 1470 L707 1470 Z M762 881 L557 881 L483 588 L688 588 L762 881 L762 881 Z " />
<glyph glyph-name="dollar" unicode="&#x24;" horiz-adv-x="1233" d="M694 528 L694 226 C742 233 771 251 792 275 C815 301 827 334 827 376 C827 416 816 450 793 477 C772 501 741 519 694 528 L694 528 Z M553 817 L553 1100 C512 1095 481 1081 460 1059 C442 1040 428 1010 428 967 C428 929 439 897 460 872 C481 847 512 828 553 817 L553 817 Z M694 -301 L553 -301 L552 0 C494 2 433 11 370 26 C307 41 241 63 172 92 L172 354 C241 313 307 282 372 260 C440 237 497 227 553 226 L553 555 C422 581 324 626 260 690 C196 753 164 837 164 943 C164 1053 198 1142 266 1208 C334 1274 430 1311 553 1319 L553 1556 L694 1556 L695 1319 C742 1316 792 1310 843 1301 C888 1293 940 1281 999 1262 L999 1006 C955 1035 906 1056 861 1070 C809 1086 755 1096 694 1100 L694 793 C825 772 925 728 992 659 C1059 590 1092 496 1092 386 C1092 272 1056 184 984 114 C908 41 810 6 695 0 L694 -301 L694 -301 Z " />
<glyph glyph-name="percent" unicode="&#x25;" horiz-adv-x="1233" d="M33 1112 C33 1201 64 1277 126 1339 C188 1401 263 1432 352 1432 C444 1432 520 1398 579 1339 C638 1280 672 1204 672 1112 C672 1023 641 948 579 886 C520 827 444 793 352 793 C263 793 188 824 126 886 C66 946 33 1019 33 1112 L33 1112 Z M352 1249 C314 1249 282 1236 255 1210 C228 1183 215 1151 215 1112 C215 1068 231 1039 255 1015 C282 988 314 975 352 975 C391 975 423 988 450 1015 C476 1041 489 1073 489 1112 C489 1150 476 1182 449 1209 C422 1236 390 1249 352 1249 L352 1249 Z M48 561 L1191 997 L1191 883 L52 451 L48 561 L48 561 Z M580 319 C580 408 611 484 673 546 C735 608 809 639 898 639 C991 639 1066 605 1125 546 C1188 483 1219 408 1219 319 C1219 227 1186 155 1125 94 C1062 31 987 0 898 0 C806 0 733 33 673 93 C608 158 580 233 580 319 L580 319 Z M898 457 C861 457 828 444 801 417 C775 390 762 355 762 319 C762 279 778 244 801 221 C827 195 861 182 898 182 C935 182 969 195 996 222 C1023 249 1036 281 1036 319 C1036 357 1022 390 995 417 C968 444 934 457 898 457 L898 457 Z " />
<glyph glyph-name="ampersand" unicode="&#x26;" horiz-adv-x="1233" d="M918 0 L870 72 C818 38 769 15 711 -3 C656 -20 603 -29 537 -29 C391 -29 269 15 176 102 C83 189 37 303 37 442 C37 545 62 629 108 706 C156 786 224 854 317 913 C281 970 257 1018 243 1058 C227 1102 219 1142 219 1189 C219 1290 255 1375 328 1433 C401 1491 507 1520 643 1520 C693 1520 739 1516 786 1509 C839 1501 878 1491 924 1477 L924 1221 C887 1242 834 1265 795 1276 C757 1287 708 1294 663 1294 C612 1294 570 1285 543 1266 C516 1247 502 1219 502 1186 C502 1159 511 1130 533 1085 C558 1034 584 992 631 920 L944 440 C959 467 969 494 976 527 C983 560 987 596 987 633 C987 651 986 675 985 692 C984 714 982 728 979 745 L1214 745 L1214 694 C1214 597 1203 513 1180 441 C1157 368 1122 303 1073 246 L1235 0 L918 0 L918 0 Z M748 262 L440 731 C396 702 363 668 341 629 C318 589 307 545 307 494 C307 407 340 339 385 291 C438 235 504 207 580 207 C600 207 614 209 636 214 C654 218 669 222 693 232 L701 236 C729 250 731 251 748 262 L748 262 Z " />
<glyph glyph-name="quotesingle" unicode="&#x27;" horiz-adv-x="1233" d="M743 1493 L743 938 L487 938 L487 1493 L743 1493 L743 1493 Z " />
<glyph glyph-name="parenleft" unicode="&#x28;" horiz-adv-x="1233" d="M586 1554 L814 1554 C729 1400 662 1244 618 1091 C575 942 554 792 554 643 C554 495 575 346 618 196 C661 45 726 -110 814 -270 L586 -270 C484 -122 403 30 350 186 C299 335 273 488 273 643 C273 798 299 950 351 1101 C401 1247 475 1393 586 1554 L586 1554 Z " />
<glyph glyph-name="parenright" unicode="&#x29;" horiz-adv-x="1233" d="M419 1554 L647 1554 C753 1401 835 1242 883 1101 C935 950 960 791 960 641 C960 489 934 335 883 186 C830 31 752 -117 647 -270 L419 -270 C507 -110 572 45 615 196 C658 346 679 495 679 643 C679 792 658 942 615 1091 C573 1237 508 1393 419 1554 L419 1554 Z " />
<glyph glyph-name="asterisk" unicode="&#x2a;" horiz-adv-x="1233" d="M349 465 L216 560 L455 926 L97 1081 L148 1229 L517 1109 L536 1525 L692 1525 L711 1109 L1080 1229 L1131 1081 L773 926 L1012 560 L879 465 L614 815 L349 465 L349 465 Z " />
<glyph glyph-name="plus" unicode="&#x2b;" horiz-adv-x="1233" d="M735 1192 L735 762 L1165 762 L1165 524 L735 524 L735 92 L498 92 L498 524 L66 524 L66 762 L498 762 L498 1192 L735 1192 L735 1192 Z " />
<glyph glyph-name="comma" unicode="&#x2c;" horiz-adv-x="1233" d="M438 -406 L380 -275 L394 -269 C529 -211 626 -105 636 34 C627 33 621 32 609 32 C566 32 524 46 492 75 C462 102 443 139 443 196 C443 215 445 229 449 244 C454 262 461 276 466 285 C471 294 481 308 494 319 C512 335 529 345 551 353 C571 360 592 364 618 364 C640 364 658 361 676 356 C693 351 710 343 726 331 C742 319 753 306 764 289 C781 265 793 237 801 204 C809 171 813 134 813 93 C813 34 805 -20 789 -71 C773 -122 747 -172 718 -211 C653 -300 564 -358 451 -401 L438 -406 L438 -406 Z " />
<glyph glyph-name="hyphen" unicode="&#x2d;" horiz-adv-x="1233" d="M221 746 L1012 746 L1012 455 L221 455 L221 746 L221 746 Z " />
<glyph glyph-name="period" unicode="&#x2e;" horiz-adv-x="1233" d="M436 141 C436 196 453 240 488 275 C522 309 564 326 613 326 C661 326 705 309 739 275 C772 242 790 196 790 141 C790 88 773 44 739 10 C704 -25 662 -42 612 -42 C560 -42 521 -23 488 10 C452 46 436 88 436 141 L436 141 Z " />
<glyph glyph-name="slash" unicode="&#x2f;" horiz-adv-x="1233" d="M899 1493 L1120 1493 L334 -190 L113 -190 L899 1493 L899 1493 Z " />
<glyph glyph-name="zero" unicode="0" horiz-adv-x="1233" d="M616 1270 C548 1270 498 1228 467 1145 C436 1062 420 928 420 745 C420 562 436 429 467 346 C498 263 548 221 616 221 C685 221 735 263 766 346 C797 429 813 562 813 745 C813 928 797 1062 766 1145 C735 1228 685 1270 616 1270 L616 1270 Z M123 745 C123 1004 164 1198 246 1327 C328 1456 451 1520 616 1520 C781 1520 905 1456 987 1327 C1069 1198 1110 1004 1110 745 C1110 486 1069 293 987 164 C905 35 781 -29 617 -29 C451 -29 328 36 246 165 C164 294 123 487 123 745 L123 745 Z M532 744 C532 772 538 852 548 911 C560 981 577 1022 616 1022 C654 1022 675 982 688 915 C699 858 706 782 706 753 C706 720 697 639 688 589 C674 512 654 472 616 472 C576 472 559 517 548 583 C539 637 532 713 532 744 L532 744 Z " />
<glyph glyph-name="one" unicode="1" horiz-adv-x="1233" d="M188 260 L518 260 L518 1229 L211 1153 L211 1419 L520 1493 L805 1493 L805 260 L1135 260 L1135 0 L188 0 L188 260 L188 260 Z " />
<glyph glyph-name="two" unicode="2" horiz-adv-x="1233" d="M434 260 L1063 260 L1063 0 L115 0 L115 252 L275 422 C514 676 566 733 621 796 C679 863 707 902 729 947 C751 992 762 1037 762 1082 C762 1142 743 1197 702 1234 C661 1271 600 1288 530 1288 C477 1288 418 1278 353 1257 C287 1236 218 1205 147 1165 L147 1440 C218 1466 292 1487 357 1500 C423 1513 491 1520 557 1520 C701 1520 832 1486 926 1410 C1011 1341 1061 1242 1061 1104 C1061 1046 1052 997 1031 943 C1009 887 974 827 930 772 C882 712 799 627 639 466 C509 335 486 313 434 260 L434 260 Z " />
<glyph glyph-name="three" unicode="3" horiz-adv-x="1233" d="M549 668 L391 668 L391 928 L549 928 C622 928 679 943 720 972 C762 1002 780 1044 780 1095 C780 1149 760 1193 720 1224 C681 1254 625 1270 547 1270 C495 1270 433 1263 369 1249 C309 1236 239 1215 170 1188 L170 1456 C239 1477 306 1493 373 1504 C440 1515 504 1520 564 1520 C722 1520 845 1486 933 1417 C1021 1348 1065 1254 1065 1133 C1065 1048 1043 976 989 916 C938 859 866 822 772 805 C879 786 960 744 1016 678 C1071 613 1100 526 1100 414 C1100 274 1054 161 962 85 C870 9 732 -29 555 -29 C485 -29 408 -23 335 -10 C267 2 195 20 125 45 L125 319 C186 289 254 264 328 248 C404 231 480 223 541 223 C628 223 699 239 748 278 C796 316 817 371 817 435 C817 502 794 564 747 606 C703 645 637 668 549 668 L549 668 Z " />
<glyph glyph-name="four" unicode="4" horiz-adv-x="1233" d="M694 1165 L317 575 L694 575 L694 1165 L694 1165 Z M668 1493 L977 1493 L977 575 L1141 575 L1141 322 L977 322 L977 0 L694 0 L694 322 L102 322 L102 608 L668 1493 L668 1493 Z " />
<glyph glyph-name="five" unicode="5" horiz-adv-x="1233" d="M193 1493 L1004 1493 L1004 1233 L432 1233 L432 956 C445 961 479 972 509 977 C533 981 570 983 598 983 C739 983 868 934 957 844 C1043 757 1094 629 1094 477 C1094 319 1039 193 945 107 C851 21 714 -29 533 -29 C476 -29 408 -24 343 -13 C277 -2 208 15 143 35 L143 301 C215 266 260 253 314 240 C374 226 428 219 488 219 C594 219 672 241 726 286 C780 331 807 395 807 475 C807 562 775 626 727 668 C679 710 606 737 508 737 C462 737 407 731 354 718 C297 704 243 683 193 659 L193 1493 L193 1493 Z " />
<glyph glyph-name="six" unicode="6" horiz-adv-x="1233" d="M642 748 C576 748 529 723 497 679 C463 632 446 565 446 478 C446 387 465 320 497 276 C532 228 583 207 643 207 C703 207 755 228 791 277 C825 323 842 390 842 477 C842 564 825 631 791 678 C759 722 710 748 642 748 L642 748 Z M1030 1458 L1030 1190 C977 1220 927 1243 879 1258 C830 1273 785 1280 738 1280 C633 1280 551 1244 496 1173 C440 1101 411 995 408 855 C439 898 482 933 528 953 C571 972 629 985 702 985 C833 985 940 942 1012 859 C1083 777 1122 653 1122 495 C1122 334 1081 198 999 106 C916 13 795 -31 644 -31 C470 -31 341 27 256 153 C169 282 131 478 131 724 C131 986 174 1190 282 1326 C383 1453 537 1518 731 1518 C785 1518 830 1513 880 1503 C929 1493 979 1478 1030 1458 L1030 1458 Z " />
<glyph glyph-name="seven" unicode="7" horiz-adv-x="1233" d="M135 1493 L1079 1493 L1079 1284 L573 0 L272 0 L758 1233 L135 1233 L135 1493 L135 1493 Z " />
<glyph glyph-name="eight" unicode="8" horiz-adv-x="1233" d="M616 666 C550 666 497 645 456 604 C415 562 395 506 395 439 C395 372 415 313 456 271 C492 234 548 209 616 209 C679 209 736 230 777 272 C815 311 838 370 838 440 C838 506 818 562 777 604 C736 645 683 666 616 666 L616 666 Z M397 791 C322 817 265 857 225 914 C186 969 166 1036 166 1121 C166 1241 206 1340 287 1412 C368 1484 477 1520 616 1520 C755 1520 865 1484 946 1412 C1027 1340 1067 1241 1067 1120 C1067 1037 1048 970 1009 915 C970 859 914 818 840 791 C923 766 987 720 1034 655 C1081 590 1104 514 1104 414 C1104 280 1062 166 977 88 C892 10 772 -29 617 -29 C454 -29 336 14 256 88 C171 166 129 280 129 414 C129 515 153 591 200 656 C248 722 313 766 397 791 L397 791 Z M428 1093 C428 1034 445 990 479 955 C515 918 560 903 616 903 C675 903 721 920 755 955 C788 989 805 1035 805 1093 C805 1151 788 1199 755 1232 C724 1263 677 1282 616 1282 C559 1282 513 1265 479 1231 C445 1197 428 1152 428 1093 L428 1093 Z " />
<glyph glyph-name="nine" unicode="9" horiz-adv-x="1233" d="M203 20 L203 289 C256 258 306 236 355 221 C403 206 449 199 495 199 C596 199 680 233 737 306 C790 374 822 479 825 624 C792 579 755 549 705 527 C655 505 600 494 533 494 C401 494 293 537 220 622 C149 705 111 828 111 983 C111 1145 152 1279 233 1370 C313 1460 432 1507 590 1507 C775 1507 897 1442 977 1324 C1067 1191 1102 992 1102 756 C1102 463 1048 277 952 155 C848 23 690 -39 502 -39 C449 -39 403 -34 354 -24 C304 -14 254 1 203 20 L203 20 Z M589 741 C653 741 702 764 736 811 C769 857 786 924 786 1011 C786 1103 767 1170 736 1213 C702 1260 651 1282 589 1282 C522 1282 475 1256 443 1213 C408 1166 391 1099 391 1012 C391 925 408 858 443 811 C477 765 524 741 589 741 L589 741 Z " />
<glyph glyph-name="colon" unicode="&#x3a;" horiz-adv-x="1233" d="M443 885 C443 940 460 983 495 1018 C529 1052 571 1069 620 1069 C668 1069 712 1052 746 1018 C777 987 797 943 797 885 C797 832 780 787 746 753 C711 718 669 701 619 701 C567 701 528 720 495 753 C460 788 443 830 443 885 L443 885 Z M443 169 C443 223 460 267 495 302 C529 336 571 353 620 353 C668 353 712 336 746 302 C777 271 797 226 797 169 C797 113 778 68 746 36 C712 2 668 -15 620 -15 C571 -15 529 2 495 36 C460 71 443 115 443 169 L443 169 Z " />
<glyph glyph-name="semicolon" unicode="&#x3b;" horiz-adv-x="1233" d="M609 679 C557 679 514 701 485 730 C449 766 433 813 433 863 C433 920 454 966 484 996 C518 1030 564 1047 611 1047 C658 1047 702 1030 736 996 C767 965 787 920 787 864 C787 808 767 761 736 730 C705 699 659 679 609 679 L609 679 Z M442 -443 L384 -312 L398 -306 C468 -276 532 -230 572 -180 C609 -134 635 -72 640 -3 C635 -4 630 -5 628 -5 L618 -5 C573 -5 527 9 495 38 C464 67 447 107 447 160 C447 212 464 252 498 282 C515 297 534 308 555 316 C572 322 596 327 623 327 C652 327 681 321 706 308 C731 295 751 277 768 252 C786 226 797 200 805 167 C813 134 817 96 817 56 C817 -62 783 -166 723 -248 C663 -330 573 -393 455 -438 L442 -443 L442 -443 Z " />
<glyph glyph-name="less" unicode="&#x3c;" horiz-adv-x="1233" d="M1145 926 L350 641 L1145 358 L1145 109 L88 524 L88 760 L1145 1176 L1145 926 L1145 926 Z " />
<glyph glyph-name="equal" unicode="&#x3d;" horiz-adv-x="1233" d="M88 532 L1145 532 L1145 295 L88 295 L88 532 L88 532 Z M88 987 L1145 987 L1145 752 L88 752 L88 987 L88 987 Z " />
<glyph glyph-name="greater" unicode="&#x3e;" horiz-adv-x="1233" d="M88 926 L88 1176 L1145 760 L1145 524 L88 109 L88 358 L883 641 L88 926 L88 926 Z " />
<glyph glyph-name="question" unicode="&#x3f;" horiz-adv-x="1233" d="M431 118 C431 167 447 207 478 238 C510 270 549 284 592 284 C603 284 614 283 625 281 C630 280 643 277 654 272 C663 268 676 261 681 258 C686 255 695 248 706 237 C722 221 734 202 741 184 C749 164 753 142 753 118 C753 69 737 28 706 -3 C675 -34 637 -50 592 -50 C547 -50 509 -34 478 -3 C447 28 431 69 431 118 L431 118 Z M699 457 L479 457 L479 583 C479 637 489 688 510 735 C532 784 569 833 628 891 L718 980 C734 996 755 1018 769 1035 C785 1054 795 1068 801 1079 C807 1090 814 1106 818 1121 C820 1129 823 1148 823 1165 C823 1175 822 1194 820 1205 C819 1210 814 1229 809 1240 C804 1252 798 1260 790 1270 C782 1280 775 1288 763 1298 C745 1313 732 1320 718 1326 C704 1332 683 1339 663 1343 C643 1347 620 1349 599 1349 C585 1349 561 1348 547 1346 C539 1345 512 1340 493 1335 C474 1330 452 1322 436 1316 C384 1296 317 1260 253 1215 L229 1198 L229 1423 L236 1428 C300 1467 365 1496 430 1515 C495 1534 563 1543 632 1543 C697 1543 754 1535 805 1518 C856 1501 901 1476 940 1443 C976 1412 1006 1373 1026 1326 C1045 1281 1055 1229 1055 1177 C1055 1121 1043 1072 1019 1026 C997 984 960 935 889 865 L802 779 C772 750 765 742 747 720 C730 699 723 689 717 676 C706 653 699 625 699 599 L699 457 L699 457 Z " />
<glyph glyph-name="at" unicode="&#x40;" horiz-adv-x="1233" d="M973 545 C973 620 956 679 922 722 C888 765 841 786 782 786 C716 786 674 761 643 722 C609 679 592 620 592 545 C592 469 609 410 643 367 C674 328 716 303 782 303 C841 303 888 324 922 367 C956 410 973 469 973 545 L973 545 Z M1159 135 L963 135 L963 217 C934 177 905 155 874 140 C839 123 798 115 749 115 C641 115 553 154 486 233 C419 312 385 416 385 546 C385 677 420 780 485 856 C552 934 641 973 748 973 C793 973 838 966 875 949 C910 933 942 906 963 877 L963 918 C963 1009 938 1079 889 1128 C839 1177 767 1202 679 1202 C536 1202 418 1135 336 1020 C255 907 205 742 205 544 C205 330 264 164 356 54 C459 -69 604 -127 757 -127 C810 -127 866 -120 917 -104 C965 -89 1015 -64 1061 -33 L1153 -209 C1098 -247 1032 -276 977 -292 C919 -309 848 -319 767 -319 C541 -319 353 -241 214 -86 C75 69 6 278 6 546 C6 800 68 1008 193 1163 C318 1318 485 1395 683 1395 C840 1395 953 1347 1033 1264 C1117 1176 1159 1056 1159 905 L1159 135 L1159 135 Z " />
<glyph glyph-name="A" unicode="A" horiz-adv-x="1233" d="M616 1223 L477 612 L756 612 L616 1223 L616 1223 Z M436 1493 L797 1493 L1200 0 L905 0 L813 369 L418 369 L328 0 L33 0 L436 1493 L436 1493 Z " />
<glyph glyph-name="B" unicode="B" horiz-adv-x="1233" d="M410 678 L410 236 L606 236 C700 236 766 252 804 284 C841 316 860 372 860 451 C860 532 840 590 801 625 C762 660 697 678 606 678 L410 678 L410 678 Z M410 1260 L410 913 L606 913 C685 913 734 926 766 954 C796 980 813 1019 813 1085 C813 1143 800 1188 765 1218 C737 1242 692 1260 606 1260 L410 1260 L410 1260 Z M125 1495 L606 1495 C772 1495 897 1464 981 1401 C1064 1338 1106 1243 1106 1118 C1106 1022 1081 947 1032 893 C983 839 910 808 815 799 C931 788 1017 747 1073 684 C1130 619 1159 527 1159 409 C1159 266 1116 162 1029 97 C942 32 801 0 606 0 L125 0 L125 1495 L125 1495 Z " />
<glyph glyph-name="C" unicode="C" horiz-adv-x="1233" d="M1081 371 L1081 43 C1034 19 985 1 934 -11 C883 -23 830 -29 770 -29 C572 -29 417 37 311 170 C205 303 152 494 152 745 C152 996 205 1188 311 1321 C417 1454 572 1520 770 1520 C830 1520 883 1514 935 1502 C987 1490 1036 1472 1081 1448 L1081 1120 C1021 1175 975 1204 933 1223 C882 1246 834 1255 785 1255 C678 1255 597 1212 542 1127 C487 1041 459 914 459 745 C459 577 487 450 542 365 C597 279 679 236 785 236 C838 236 886 247 934 269 C980 290 1024 319 1081 371 L1081 371 Z " />
<glyph glyph-name="D" unicode="D" horiz-adv-x="1233" d="M432 1227 L432 266 L512 266 C628 266 711 303 760 376 C809 449 834 573 834 748 C834 922 809 1045 760 1118 C711 1191 628 1227 512 1227 L432 1227 L432 1227 Z M137 1493 L453 1493 C697 1493 873 1435 980 1319 C1085 1205 1141 1016 1141 747 C1141 483 1087 293 980 176 C873 59 697 0 453 0 L137 0 L137 1493 L137 1493 Z " />
<glyph glyph-name="E" unicode="E" horiz-adv-x="1233" d="M1098 0 L168 0 L168 1493 L1098 1493 L1098 1233 L463 1233 L463 911 L1038 911 L1038 651 L463 651 L463 260 L1098 260 L1098 0 L1098 0 Z " />
<glyph glyph-name="F" unicode="F" horiz-adv-x="1233" d="M1112 1233 L477 1233 L477 911 L1055 911 L1055 651 L477 651 L477 0 L182 0 L182 1493 L1112 1493 L1112 1233 L1112 1233 Z " />
<glyph glyph-name="G" unicode="G" horiz-adv-x="1233" d="M872 270 L872 555 L670 555 L670 803 L1130 803 L1130 119 C1073 70 1011 34 943 9 C874 -16 803 -29 720 -29 C530 -29 379 40 275 172 C175 299 117 489 117 747 C117 994 170 1188 277 1321 C383 1453 536 1520 732 1520 C800 1520 856 1512 914 1495 C972 1478 1026 1453 1077 1421 L1077 1094 C1036 1147 988 1188 935 1215 C881 1242 822 1255 759 1255 C646 1255 562 1213 507 1129 C452 1044 424 916 424 747 C424 582 451 452 504 365 C554 283 630 236 738 236 C765 236 794 239 817 245 C846 252 857 259 872 270 L872 270 Z " />
<glyph glyph-name="H" unicode="H" horiz-adv-x="1233" d="M137 1493 L432 1493 L432 924 L801 924 L801 1493 L1096 1493 L1096 0 L801 0 L801 664 L432 664 L432 0 L137 0 L137 1493 L137 1493 Z " />
<glyph glyph-name="I" unicode="I" horiz-adv-x="1233" d="M172 1233 L172 1493 L1061 1493 L1061 1233 L764 1233 L764 260 L1061 260 L1061 0 L172 0 L172 260 L469 260 L469 1233 L172 1233 L172 1233 Z " />
<glyph glyph-name="J" unicode="J" horiz-adv-x="1233" d="M109 74 L109 416 C166 357 228 313 293 282 C358 251 423 236 490 236 C566 236 623 255 659 294 C695 333 713 394 713 479 L713 1233 L352 1233 L352 1493 L1008 1493 L1008 479 C1008 297 970 167 894 89 C817 10 685 -29 524 -29 C447 -29 387 -20 318 -3 C250 14 183 38 109 74 L109 74 Z " />
<glyph glyph-name="K" unicode="K" horiz-adv-x="1233" d="M117 1493 L412 1493 L412 903 L874 1493 L1208 1493 L737 905 L1225 0 L897 0 L543 672 L412 506 L412 0 L117 0 L117 1493 L117 1493 Z " />
<glyph glyph-name="L" unicode="L" horiz-adv-x="1233" d="M225 0 L225 1493 L520 1493 L520 260 L1151 260 L1151 0 L225 0 L225 0 Z " />
<glyph glyph-name="M" unicode="M" horiz-adv-x="1233" d="M86 1493 L438 1493 L616 838 L793 1493 L1147 1493 L1147 0 L893 0 L893 1196 L735 543 L500 543 L340 1196 L340 0 L86 0 L86 1493 L86 1493 Z " />
<glyph glyph-name="N" unicode="N" horiz-adv-x="1233" d="M119 1493 L436 1493 L852 408 L852 1493 L1112 1493 L1112 0 L797 0 L379 1085 L379 0 L119 0 L119 1493 L119 1493 Z " />
<glyph glyph-name="O" unicode="O" horiz-adv-x="1233" d="M616 1255 C538 1255 485 1213 451 1134 C416 1054 399 926 399 746 C399 566 416 437 451 357 C486 276 541 236 616 236 C692 236 747 276 782 357 C817 437 834 566 834 746 C834 926 817 1054 782 1134 C747 1215 693 1255 616 1255 L616 1255 Z M92 745 C92 998 136 1193 225 1325 C317 1461 453 1520 616 1520 C790 1520 922 1453 1009 1324 C1097 1193 1141 1000 1141 745 C1141 490 1097 298 1009 167 C924 41 794 -29 616 -29 C437 -29 309 42 225 166 C136 298 92 492 92 745 L92 745 Z " />
<glyph glyph-name="P" unicode="P" horiz-adv-x="1233" d="M457 1245 L457 807 L578 807 C675 807 743 823 782 856 C821 889 840 945 840 1026 C840 1107 821 1163 782 1196 C743 1229 675 1245 578 1245 L457 1245 L457 1245 Z M162 1493 L567 1493 C773 1493 921 1456 1012 1383 C1102 1310 1147 1191 1147 1026 C1147 861 1102 742 1012 669 C921 596 773 559 567 559 L457 559 L457 0 L162 0 L162 1493 L162 1493 Z " />
<glyph glyph-name="Q" unicode="Q" horiz-adv-x="1233" d="M879 -281 L656 -23 C647 -25 639 -27 633 -28 C626 -29 624 -29 622 -29 C441 -29 311 41 225 167 C136 298 92 490 92 744 C92 998 136 1193 225 1325 C318 1462 454 1520 616 1520 C790 1520 922 1453 1009 1324 C1097 1193 1141 1000 1141 745 C1141 570 1120 423 1078 305 C1036 186 975 102 895 51 L1081 -131 L879 -281 L879 -281 Z M616 1255 C538 1255 485 1213 451 1134 C416 1054 399 926 399 746 C399 566 416 437 451 357 C486 276 541 236 616 236 C692 236 747 276 782 357 C817 437 834 566 834 746 C834 926 817 1054 782 1134 C747 1215 693 1255 616 1255 L616 1255 Z " />
<glyph glyph-name="R" unicode="R" horiz-adv-x="1233" d="M807 705 C837 699 866 682 884 664 C904 644 930 603 963 537 L1233 0 L909 0 L729 377 C710 417 716 404 708 421 C652 535 596 590 522 590 L428 590 L428 0 L133 0 L133 1493 L559 1493 C751 1493 889 1459 973 1391 C1056 1323 1098 1209 1098 1064 C1098 953 1073 875 1023 814 C975 756 907 718 807 705 L807 705 Z M428 1245 L428 838 L567 838 C648 838 706 854 741 886 C773 915 793 962 793 1042 C793 1115 776 1167 741 1198 C706 1229 648 1245 567 1245 L428 1245 L428 1245 Z " />
<glyph glyph-name="S" unicode="S" horiz-adv-x="1233" d="M655 600 L510 655 C357 713 260 773 208 834 C155 896 129 980 129 1085 C129 1220 172 1327 259 1404 C346 1481 466 1520 615 1520 C686 1520 760 1511 822 1497 C884 1483 957 1459 1026 1427 L1026 1139 C963 1184 898 1218 833 1241 C768 1264 703 1276 638 1276 C568 1276 513 1262 475 1233 C437 1204 418 1162 418 1111 C418 1068 432 1035 460 1008 C487 982 535 955 633 918 L760 870 C882 824 968 768 1025 696 C1082 623 1110 531 1110 415 C1110 267 1065 157 976 83 C887 9 756 -29 582 -29 C502 -29 427 -21 351 -3 C276 15 204 41 135 76 L135 381 C217 323 289 284 364 256 C437 229 511 215 580 215 C656 215 711 232 751 265 C791 298 811 345 811 403 C811 449 798 487 771 521 C743 556 703 582 655 600 L655 600 Z " />
<glyph glyph-name="T" unicode="T" horiz-adv-x="1233" d="M764 0 L469 0 L469 1235 L90 1235 L90 1493 L1143 1493 L1143 1235 L764 1235 L764 0 L764 0 Z " />
<glyph glyph-name="U" unicode="U" horiz-adv-x="1233" d="M106 551 L106 1493 L401 1493 L401 477 C401 401 422 341 458 301 C496 259 552 238 616 238 C680 238 736 259 774 301 C810 341 831 401 831 477 L831 1493 L1126 1493 L1126 551 C1126 348 1086 201 1005 109 C924 17 795 -29 616 -29 C438 -29 309 17 228 109 C147 201 106 348 106 551 L106 551 Z " />
<glyph glyph-name="V" unicode="V" horiz-adv-x="1233" d="M616 246 L879 1493 L1176 1493 L821 0 L412 0 L57 1493 L354 1493 L616 246 L616 246 Z " />
<glyph glyph-name="W" unicode="W" horiz-adv-x="1233" d="M0 1493 L258 1493 L365 397 L494 1106 L739 1106 L889 397 L973 1493 L1233 1493 L1061 0 L786 0 L616 784 L457 0 L184 0 L0 1493 L0 1493 Z " />
<glyph glyph-name="X" unicode="X" horiz-adv-x="1233" d="M1206 0 L901 0 L616 494 L332 0 L27 0 L465 758 L39 1493 L344 1493 L616 1018 L889 1493 L1194 1493 L770 758 L1206 0 L1206 0 Z " />
<glyph glyph-name="Y" unicode="Y" horiz-adv-x="1233" d="M8 1493 L326 1493 L616 893 L907 1493 L1225 1493 L764 588 L764 0 L469 0 L469 588 L8 1493 L8 1493 Z " />
<glyph glyph-name="Z" unicode="Z" horiz-adv-x="1233" d="M137 1493 L1147 1493 L1147 1249 L455 260 L1161 260 L1161 0 L115 0 L115 244 L786 1233 L137 1233 L137 1493 L137 1493 Z " />
<glyph glyph-name="bracketleft" unicode="&#x5b;" horiz-adv-x="1233" d="M424 1636 L927 1636 L927 1446 L689 1446 L689 -85 L927 -85 L927 -270 L424 -270 L424 1636 L424 1636 Z " />
<glyph glyph-name="backslash" unicode="&#x5c;" horiz-adv-x="1233" d="M334 1493 L1120 -190 L897 -190 L111 1493 L334 1493 L334 1493 Z " />
<glyph glyph-name="bracketright" unicode="&#x5d;" horiz-adv-x="1233" d="M809 1635 L809 -270 L304 -270 L304 -83 L547 -83 L547 1445 L304 1445 L304 1635 L809 1635 L809 1635 Z " />
<glyph glyph-name="asciicircum" unicode="&#x5e;" horiz-adv-x="1233" d="M739 1493 L1176 936 L934 936 L616 1237 L299 936 L57 936 L494 1493 L739 1493 L739 1493 Z " />
<glyph glyph-name="underscore" unicode="&#x5f;" horiz-adv-x="1233" d="M1233 -293 L1233 -483 L0 -483 L0 -293 L1233 -293 L1233 -293 Z " />
<glyph glyph-name="grave" unicode="&#x60;" horiz-adv-x="1233" d="M481 1638 L764 1262 L567 1262 L199 1638 L481 1638 L481 1638 Z " />
<glyph glyph-name="a" unicode="a" horiz-adv-x="1233" d="M817 526 L700 526 C591 526 514 512 471 484 C428 456 406 407 406 342 C406 288 421 249 451 219 C481 189 521 174 575 174 C649 174 710 203 753 262 C796 320 817 401 817 506 L817 526 L817 526 Z M1108 639 L1108 0 L817 0 L817 125 C782 76 736 38 681 11 C626 -16 567 -29 493 -29 C373 -29 272 5 201 72 C130 139 94 233 94 354 C94 481 134 580 221 644 C306 706 437 737 614 737 L817 737 L817 786 C817 835 798 871 766 894 C731 919 678 930 609 930 C546 930 476 921 411 904 C348 887 276 858 205 819 L205 1069 C263 1093 333 1115 402 1128 C469 1141 539 1147 615 1147 C810 1147 926 1107 997 1035 C1067 964 1108 848 1108 639 L1108 639 Z " />
<glyph glyph-name="b" unicode="b" horiz-adv-x="1233" d="M850 557 C850 665 832 750 796 811 C760 872 710 903 647 903 C584 903 534 872 497 811 C460 750 442 665 442 557 C442 449 460 364 497 303 C534 242 584 211 647 211 C710 211 760 242 796 303 C832 364 850 449 850 557 L850 557 Z M442 1556 L442 961 C478 1023 520 1070 568 1101 C615 1132 667 1147 735 1147 C862 1147 966 1094 1036 995 C1104 899 1143 754 1143 560 C1143 378 1109 228 1037 124 C966 22 864 -29 740 -29 C671 -29 613 -13 563 20 C513 53 473 101 442 166 L442 0 L150 0 L150 1556 L442 1556 L442 1556 Z " />
<glyph glyph-name="c" unicode="c" horiz-adv-x="1233" d="M1061 326 L1061 57 C1008 26 958 7 902 -7 C846 -21 791 -29 722 -29 C545 -29 411 23 314 127 C217 231 168 375 168 559 C168 744 217 888 315 993 C413 1097 549 1149 719 1149 C782 1149 839 1142 895 1128 C950 1114 1006 1092 1061 1063 L1061 795 C1018 832 968 862 921 880 C874 898 818 909 761 909 C662 909 591 876 542 818 C491 757 465 671 465 559 C465 447 491 361 542 301 C593 241 666 211 762 211 C818 211 872 221 921 240 C963 256 1014 284 1061 326 L1061 326 Z " />
<glyph glyph-name="d" unicode="d" horiz-adv-x="1233" d="M791 961 L791 1556 L1083 1556 L1083 0 L791 0 L791 166 C760 101 718 52 670 20 C620 -13 562 -29 492 -29 C369 -29 267 22 196 124 C126 225 90 373 90 560 C90 747 126 894 198 995 C266 1091 367 1147 498 1147 C561 1147 616 1134 666 1101 C713 1070 755 1023 791 961 L791 961 Z M383 557 C383 449 401 364 437 303 C473 242 523 211 586 211 C649 211 699 242 736 303 C773 364 791 449 791 557 C791 665 773 750 736 811 C699 872 649 903 586 903 C523 903 473 872 437 811 C401 750 383 665 383 557 L383 557 Z " />
<glyph glyph-name="e" unicode="e" horiz-adv-x="1233" d="M1102 324 L1102 55 C1034 27 965 6 894 -8 C823 -22 747 -29 675 -29 C481 -29 340 21 241 122 C141 224 92 367 92 554 C92 739 140 882 235 988 C330 1094 459 1147 627 1147 C784 1147 918 1101 1012 1000 C1106 899 1149 755 1149 584 L1149 465 L390 465 C391 377 417 311 468 268 C519 225 596 203 697 203 C765 203 832 213 897 232 C958 250 1026 279 1102 324 L1102 324 Z M393 684 L854 685 C853 762 832 823 795 861 C759 898 701 920 627 920 C557 920 504 900 464 859 C424 818 400 759 393 684 L393 684 Z " />
<glyph glyph-name="f" unicode="f" horiz-adv-x="1233" d="M739 1218 L739 1120 L1083 1120 L1083 895 L739 895 L739 0 L446 0 L446 895 L174 895 L174 1120 L446 1120 L446 1198 C446 1333 474 1426 530 1478 C586 1530 690 1556 842 1556 L1083 1556 L1083 1331 L854 1331 C810 1331 780 1323 765 1307 C749 1291 739 1257 739 1218 L739 1218 Z " />
<glyph glyph-name="g" unicode="g" horiz-adv-x="1233" d="M803 577 C803 675 785 757 746 819 C708 879 658 909 596 909 C533 909 485 878 448 819 C410 759 391 679 391 578 C391 477 410 396 448 336 C485 277 533 246 596 246 C658 246 708 276 746 337 C783 396 803 474 803 577 L803 577 Z M1096 1120 L1096 84 C1096 -95 1056 -225 975 -305 C894 -384 763 -424 578 -424 C520 -424 458 -420 398 -411 C338 -402 277 -388 215 -369 L215 -100 C270 -131 330 -154 384 -168 C441 -183 502 -190 556 -190 C646 -190 705 -171 744 -132 C783 -93 803 -32 803 51 L803 172 C774 119 736 79 689 53 C642 27 583 14 517 14 C387 14 286 64 211 164 C136 264 98 399 98 573 C98 747 136 889 211 993 C286 1097 388 1149 512 1149 C579 1149 635 1134 685 1104 C735 1074 774 1032 803 977 L803 1120 L1096 1120 L1096 1120 Z " />
<glyph glyph-name="h" unicode="h" horiz-adv-x="1233" d="M1071 727 L1071 0 L780 0 L780 682 C780 763 769 820 746 855 C723 890 684 907 635 907 C579 907 538 884 508 837 C478 790 463 724 463 641 L463 0 L172 0 L172 1556 L463 1556 L463 952 C484 1014 519 1062 569 1096 C619 1130 678 1147 751 1147 C855 1147 936 1112 990 1042 C1044 971 1071 866 1071 727 L1071 727 Z " />
<glyph glyph-name="i" unicode="i" horiz-adv-x="1233" d="M411 1665 L704 1665 L704 1323 L411 1323 L411 1665 L411 1665 Z M411 467 L411 891 L114 891 L114 1116 L704 1116 L704 467 C704 379 718 317 745 280 C772 243 819 225 884 225 L1118 225 L1118 0 L802 0 C663 0 563 36 502 108 C441 180 411 300 411 467 L411 467 Z " />
<glyph glyph-name="j" unicode="j" horiz-adv-x="1233" d="M850 1120 L850 43 C850 -125 820 -245 760 -317 C702 -386 601 -424 459 -424 L143 -424 L143 -199 L377 -199 C442 -199 489 -181 516 -144 C543 -107 557 -45 557 43 L557 895 L260 895 L260 1120 L850 1120 L850 1120 Z M850 1323 L557 1323 L557 1665 L850 1665 L850 1323 L850 1323 Z " />
<glyph glyph-name="k" unicode="k" horiz-adv-x="1233" d="M174 1556 L467 1556 L467 739 L819 1120 L1174 1120 L750 702 L1198 0 L874 0 L567 524 L467 428 L467 0 L174 0 L174 1556 L174 1556 Z " />
<glyph glyph-name="l" unicode="l" horiz-adv-x="1233" d="M387 467 L387 1331 L90 1331 L90 1556 L680 1556 L680 467 C680 379 694 317 721 280 C748 243 795 225 860 225 L1094 225 L1094 0 L778 0 C639 0 539 36 478 108 C417 180 387 300 387 467 L387 467 Z " />
<glyph glyph-name="m" unicode="m" horiz-adv-x="1233" d="M690 1008 C712 1055 740 1090 774 1113 C808 1136 849 1147 902 1147 C999 1147 1066 1110 1100 1047 C1138 977 1155 838 1155 631 L1155 0 L915 0 L915 719 C915 807 909 856 896 885 C883 914 861 928 827 928 C789 928 769 911 757 884 C744 856 737 803 737 719 L737 0 L500 0 L500 719 C500 801 493 856 480 885 C467 914 443 928 410 928 C377 928 354 914 341 886 C328 858 322 802 322 719 L322 0 L82 0 L82 1120 L295 1120 L295 1004 C312 1048 338 1083 375 1109 C408 1132 451 1147 499 1147 C543 1147 585 1134 622 1107 C659 1080 682 1047 690 1008 L690 1008 Z " />
<glyph glyph-name="n" unicode="n" horiz-adv-x="1233" d="M1071 727 L1071 0 L780 0 L780 682 C780 763 769 822 746 857 C723 892 684 909 636 909 C579 909 539 885 509 838 C480 793 463 732 463 641 L463 0 L172 0 L172 1120 L463 1120 L463 952 C484 1014 519 1062 569 1096 C619 1130 678 1147 751 1147 C855 1147 936 1112 990 1042 C1044 971 1071 866 1071 727 L1071 727 Z " />
<glyph glyph-name="o" unicode="o" horiz-adv-x="1233" d="M616 909 C542 909 488 874 451 817 C411 755 391 669 391 560 C391 451 411 363 451 301 C490 241 547 209 616 209 C685 209 742 240 782 301 C822 363 842 451 842 560 C842 669 822 755 782 817 C741 880 684 909 616 909 L616 909 Z M98 560 C98 737 146 885 238 989 C330 1093 460 1147 616 1147 C779 1147 908 1088 995 990 C1082 892 1135 747 1135 559 C1135 381 1088 235 996 130 C908 30 779 -29 617 -29 C448 -29 321 35 238 129 C145 234 98 385 98 560 L98 560 Z " />
<glyph glyph-name="p" unicode="p" horiz-adv-x="1233" d="M442 158 L442 -426 L150 -426 L150 1120 L442 1120 L442 952 C473 1017 513 1065 563 1098 C613 1131 671 1147 740 1147 C864 1147 966 1096 1037 994 C1109 890 1143 740 1143 558 C1143 364 1104 219 1036 123 C963 20 856 -29 735 -29 C673 -29 618 -16 567 18 C525 46 477 95 442 158 L442 158 Z M850 561 C850 669 832 754 796 815 C760 876 710 907 647 907 C584 907 534 876 497 815 C460 754 442 669 442 561 C442 453 460 368 497 307 C534 246 584 215 647 215 C710 215 760 246 796 307 C832 368 850 453 850 561 L850 561 Z " />
<glyph glyph-name="q" unicode="q" horiz-adv-x="1233" d="M383 561 C383 453 401 368 437 307 C473 246 523 215 586 215 C649 215 699 246 736 307 C773 368 791 453 791 561 C791 669 773 754 736 815 C699 876 649 907 586 907 C523 907 473 876 437 815 C401 754 383 669 383 561 L383 561 Z M791 -426 L791 158 C755 95 713 49 666 18 C618 -14 567 -29 499 -29 C376 -29 272 19 198 123 C126 224 90 371 90 558 C90 745 126 893 196 994 C267 1096 369 1147 492 1147 C562 1147 620 1131 670 1098 C718 1066 760 1017 791 952 L791 1120 L1083 1120 L1083 -426 L791 -426 L791 -426 Z " />
<glyph glyph-name="r" unicode="r" horiz-adv-x="1233" d="M1151 1090 L1151 811 C1119 840 1082 862 1039 877 C996 892 948 899 898 899 C836 899 780 888 735 867 C690 846 652 813 627 773 C614 752 601 721 594 680 C587 641 584 594 584 516 L584 0 L291 0 L291 1120 L584 1120 L584 946 C613 1010 657 1060 716 1095 C775 1130 847 1147 921 1147 C961 1147 1006 1142 1042 1133 C1081 1123 1122 1106 1151 1090 L1151 1090 Z " />
<glyph glyph-name="s" unicode="s" horiz-adv-x="1233" d="M991 1085 L991 829 C937 864 876 892 823 908 C770 924 708 934 643 934 C584 934 535 926 500 906 C466 887 449 857 449 826 C449 766 515 726 663 691 L674 688 L758 668 C863 643 943 603 993 546 C1043 489 1067 409 1067 317 C1067 202 1029 115 954 58 C878 0 762 -29 616 -29 C549 -29 472 -23 405 -12 C338 -1 263 18 190 41 L190 297 C257 259 321 232 388 213 C455 194 518 184 585 184 C651 184 702 194 738 214 C773 234 791 260 791 307 C791 337 784 362 752 386 C720 410 665 431 575 451 L494 469 C382 494 300 534 249 588 C198 642 172 714 172 803 C172 913 211 997 289 1057 C367 1117 477 1147 619 1147 C683 1147 754 1141 808 1132 C862 1123 936 1105 991 1085 L991 1085 Z " />
<glyph glyph-name="t" unicode="t" horiz-adv-x="1233" d="M690 1438 L690 1120 L1073 1120 L1073 895 L690 895 L690 365 C690 315 701 281 727 258 C754 234 795 225 848 225 L1073 225 L1073 0 L827 0 C659 0 545 27 486 81 C427 134 397 234 397 379 L397 895 L111 895 L111 1120 L397 1120 L397 1438 L690 1438 L690 1438 Z " />
<glyph glyph-name="u" unicode="u" horiz-adv-x="1233" d="M160 391 L160 1120 L453 1120 L453 436 C453 355 464 298 487 263 C510 228 549 211 598 211 C649 211 692 230 724 281 C753 328 768 393 768 477 L768 1120 L1061 1120 L1061 0 L768 0 L768 166 C747 104 712 56 663 22 C613 -12 554 -29 481 -29 C381 -29 299 3 242 77 C187 148 160 252 160 391 L160 391 Z " />
<glyph glyph-name="v" unicode="v" horiz-adv-x="1233" d="M1153 1120 L797 0 L436 0 L80 1120 L377 1120 L616 246 L856 1120 L1153 1120 L1153 1120 Z " />
<glyph glyph-name="w" unicode="w" horiz-adv-x="1233" d="M0 1120 L244 1120 L377 262 L498 827 L735 827 L854 262 L989 1120 L1233 1120 L1030 0 L752 0 L616 582 L481 0 L203 0 L0 1120 L0 1120 Z " />
<glyph glyph-name="x" unicode="x" horiz-adv-x="1233" d="M1145 1120 L768 584 L1178 0 L836 0 L616 377 L397 0 L55 0 L469 584 L88 1120 L430 1120 L616 786 L803 1120 L1145 1120 L1145 1120 Z " />
<glyph glyph-name="y" unicode="y" horiz-adv-x="1233" d="M1176 1120 L711 -121 C669 -233 621 -307 570 -352 C519 -397 452 -424 369 -424 L127 -424 L127 -201 L246 -201 C301 -201 350 -192 378 -171 C408 -148 441 -89 463 -29 L485 31 L59 1120 L367 1120 L623 393 L868 1120 L1176 1120 L1176 1120 Z " />
<glyph glyph-name="z" unicode="z" horiz-adv-x="1233" d="M186 1120 L1081 1120 L1081 891 L492 219 L1081 219 L1081 0 L162 0 L162 229 L752 901 L186 901 L186 1120 L186 1120 Z " />
<glyph glyph-name="braceleft" unicode="&#x7b;" horiz-adv-x="1233" d="M1053 -143 L1053 -334 L903 -334 C737 -334 626 -309 570 -260 C513 -211 485 -112 485 35 L485 250 C485 343 469 419 432 459 C396 498 327 516 238 516 L146 516 L146 707 L238 707 C331 707 396 726 432 764 C467 802 485 872 485 973 L485 1188 C485 1335 513 1434 570 1483 C626 1532 737 1556 903 1556 L1053 1556 L1053 1366 L930 1366 C861 1366 814 1352 791 1324 C768 1296 756 1234 756 1139 L756 930 C756 820 740 743 707 698 C674 653 616 625 532 612 C616 598 674 568 707 523 C740 478 756 400 756 291 L756 86 C756 -10 768 -72 791 -101 C814 -129 861 -143 930 -143 L1053 -143 L1053 -143 Z " />
<glyph glyph-name="bar" unicode="&#x7c;" horiz-adv-x="1233" d="M729 1565 L729 -483 L502 -483 L502 1565 L729 1565 L729 1565 Z " />
<glyph glyph-name="braceright" unicode="&#x7d;" horiz-adv-x="1233" d="M180 -143 L301 -143 C370 -143 417 -129 441 -100 C465 -71 477 -9 477 86 L477 291 C477 400 493 478 526 523 C560 570 622 599 700 612 C616 625 558 653 526 698 C493 743 477 820 477 930 L477 1139 C477 1233 465 1294 442 1323 C417 1354 365 1366 301 1366 L180 1366 L180 1556 L330 1556 C495 1556 606 1532 662 1483 C717 1434 745 1335 745 1188 L745 973 C745 865 765 802 800 765 C835 728 895 707 995 707 L1087 707 L1087 516 L995 516 C901 516 836 497 800 458 C763 419 745 350 745 250 L745 35 C745 -112 717 -211 662 -260 C606 -309 495 -334 330 -334 L180 -334 L180 -143 L180 -143 Z " />
<glyph glyph-name="asciitilde" unicode="&#x7e;" horiz-adv-x="1233" d="M1145 811 L1145 578 C1095 538 1048 510 999 491 C951 472 900 463 850 463 C775 463 718 483 645 514 C615 527 616 526 612 528 C561 551 518 566 484 574 C449 582 415 586 381 586 C329 586 280 576 233 557 C194 541 142 512 88 465 L88 694 C140 735 190 764 239 782 C288 800 342 809 394 809 C429 809 467 805 498 798 C529 791 580 775 622 756 L655 741 C736 704 796 686 863 686 C915 686 958 697 1003 717 C1048 737 1094 766 1145 811 L1145 811 Z " />
<glyph glyph-name="nonbreakingspace" unicode="&#xa0;" horiz-adv-x="1233" d="" />
<glyph glyph-name="exclamdown" unicode="&#xa1;" horiz-adv-x="1233" d="M750 1210 L483 1210 L483 1493 L750 1493 L750 1210 L750 1210 Z M750 0 L483 0 L483 655 L516 1012 L715 1012 L750 655 L750 0 L750 0 Z " />
<glyph glyph-name="cent" unicode="&#xa2;" horiz-adv-x="1233" d="M1036 1077 L1036 809 C998 838 952 863 920 876 C886 890 840 902 797 907 L797 215 C841 218 884 229 921 244 C960 260 999 282 1036 311 L1036 43 C999 23 964 8 924 -3 C889 -13 843 -22 797 -25 L797 -313 L655 -313 L655 -25 C498 -10 375 49 284 154 C193 259 147 394 147 562 C147 734 195 871 284 973 C374 1076 497 1134 655 1145 L655 1432 L797 1432 L797 1145 C838 1142 878 1135 917 1124 C963 1111 998 1095 1036 1077 L1036 1077 Z M655 215 L655 907 C579 898 521 863 480 804 C440 746 418 665 418 560 C418 460 438 377 481 314 C523 252 581 219 655 215 L655 215 Z " />
<glyph glyph-name="sterling" unicode="&#xa3;" horiz-adv-x="1233" d="M1102 1462 L1102 1188 C1062 1217 1013 1240 980 1251 C938 1265 890 1272 848 1272 C774 1272 724 1250 691 1206 C658 1161 641 1091 641 995 L641 819 L977 819 L977 594 L641 594 L641 260 L1122 260 L1122 0 L119 0 L119 260 L354 260 L354 594 L156 594 L156 819 L354 819 L354 1016 C354 1187 392 1313 467 1396 C542 1479 657 1520 810 1520 C868 1520 926 1514 965 1506 C1004 1498 1056 1482 1102 1462 L1102 1462 Z " />
<glyph glyph-name="currency" unicode="&#xa4;" horiz-adv-x="1233" d="M827 642 C827 690 809 735 778 766 C746 798 700 815 653 815 C607 815 563 799 530 767 C500 738 479 694 479 643 C479 597 496 552 529 518 C560 486 604 467 654 467 C701 467 744 484 777 518 C810 552 827 595 827 642 L827 642 Z M819 938 L991 1108 L1118 979 L948 809 C963 782 975 754 982 727 C989 699 993 670 993 641 C993 613 989 579 982 554 C976 533 963 502 946 477 L1118 307 L987 176 L817 348 C788 329 769 321 741 313 C716 306 689 301 656 301 C626 301 600 305 572 312 C544 319 515 329 485 344 L315 176 L186 305 L356 475 C341 503 331 528 323 559 C316 585 311 607 311 642 C311 677 316 704 323 729 C329 751 338 776 358 807 L186 977 L317 1108 L483 936 C510 952 541 965 566 972 C593 979 623 983 652 983 C680 983 706 979 733 972 C760 965 788 953 819 938 L819 938 Z " />
<glyph glyph-name="yen" unicode="&#xa5;" horiz-adv-x="1233" d="M8 1493 L326 1493 L616 893 L907 1493 L1225 1493 L952 965 L1176 965 L1176 778 L854 778 L768 627 L1176 627 L1176 438 L764 438 L764 0 L469 0 L469 438 L57 438 L57 627 L465 627 L379 778 L57 778 L57 965 L281 965 L8 1493 L8 1493 Z " />
<glyph glyph-name="brokenbar" unicode="&#xa6;" horiz-adv-x="1233" d="M729 408 L729 -350 L502 -350 L502 408 L729 408 L729 408 Z M729 1432 L729 674 L502 674 L502 1432 L729 1432 L729 1432 Z " />
<glyph glyph-name="section" unicode="&#xa7;" horiz-adv-x="1233" d="M550 840 L518 856 C481 832 456 810 439 786 C422 762 414 739 414 712 C414 674 430 642 463 613 C495 585 560 546 711 473 C747 496 777 524 791 544 C807 567 815 595 815 613 C815 674 724 753 550 840 L550 840 Z M930 1460 L930 1235 C873 1255 823 1270 779 1280 C738 1289 691 1294 657 1294 C609 1294 569 1284 541 1265 C510 1244 498 1215 498 1189 C498 1128 565 1077 701 1004 C705 1002 727 990 729 989 C873 912 955 866 1002 809 C1041 762 1061 704 1061 638 C1061 579 1045 526 1014 484 C983 442 932 404 864 373 C911 340 945 303 967 262 C988 222 999 172 999 118 C999 24 965 -56 895 -112 C829 -165 731 -195 602 -195 C550 -195 483 -190 429 -181 C375 -172 312 -155 258 -137 L258 92 C321 70 367 58 424 47 C476 37 524 31 571 31 C632 31 670 41 696 60 C722 79 737 107 737 134 C737 189 677 242 523 326 L512 332 L486 346 C265 465 170 574 170 696 C170 747 187 805 222 852 C254 895 305 932 371 954 C324 987 289 1024 268 1064 C247 1104 236 1151 236 1205 C236 1301 271 1377 340 1434 C409 1491 501 1520 617 1520 C665 1520 716 1515 769 1505 C826 1494 877 1479 930 1460 L930 1460 Z " />
<glyph glyph-name="dieresis" unicode="&#xa8;" horiz-adv-x="1233" d="M696 1585 L932 1585 L932 1339 L696 1339 L696 1585 L696 1585 Z M301 1585 L537 1585 L537 1339 L301 1339 L301 1585 L301 1585 Z " />
<glyph glyph-name="copyright" unicode="&#xa9;" horiz-adv-x="1233" d="M616 1358 C701 1358 779 1343 852 1313 C927 1282 995 1235 1051 1178 C1113 1115 1158 1045 1187 977 C1218 904 1233 825 1233 742 C1233 658 1218 579 1188 508 C1158 437 1111 366 1052 307 C997 252 927 203 851 171 C778 140 700 125 616 125 C528 125 454 141 382 171 C309 202 239 249 181 307 C125 363 76 434 45 508 C15 579 0 657 0 741 C0 824 15 904 46 977 C76 1048 121 1116 182 1178 C244 1241 311 1284 381 1313 C454 1343 532 1358 616 1358 L616 1358 Z M617 1229 C539 1229 484 1215 432 1193 C380 1171 324 1137 274 1086 C227 1038 190 982 167 928 C143 871 131 808 131 742 C131 676 143 615 167 558 C192 499 228 448 274 401 C323 351 374 317 431 293 C492 267 550 256 616 256 C683 256 741 267 802 293 C855 316 908 350 958 400 C1002 444 1042 501 1066 558 C1090 615 1102 675 1102 743 C1102 814 1089 872 1066 927 C1040 989 1005 1038 959 1085 C913 1132 860 1169 802 1193 C738 1220 680 1229 617 1229 L617 1229 Z M848 1049 L848 881 C813 902 781 917 751 926 C720 935 690 940 655 940 C590 940 542 922 507 888 C471 853 453 804 453 741 C453 678 471 629 506 595 C541 560 592 543 658 543 C697 543 728 549 758 558 C788 567 814 578 848 602 L848 434 C811 423 775 414 740 408 C705 402 671 399 637 399 C529 399 435 429 367 492 C299 555 266 643 266 741 C266 850 306 935 367 991 C429 1048 522 1083 636 1083 C670 1083 713 1080 745 1075 C776 1070 817 1059 848 1049 L848 1049 Z " />
<glyph glyph-name="ordfeminine" unicode="&#xaa;" horiz-adv-x="1233" d="M786 1049 L786 1079 L684 1079 C611 1079 558 1070 525 1053 C492 1036 475 1008 475 970 C475 941 485 913 505 894 C523 877 552 866 593 866 C649 866 699 887 732 918 C768 952 786 999 786 1049 L786 1049 Z M786 717 L786 809 C753 771 716 743 676 725 C635 707 590 698 537 698 C452 698 383 721 332 766 C282 811 256 874 256 953 C256 1042 289 1110 349 1153 C410 1197 504 1219 629 1219 L786 1219 L786 1245 C786 1281 767 1305 741 1319 C713 1334 669 1343 601 1343 C551 1343 498 1338 451 1327 C403 1316 358 1299 315 1276 L315 1464 C351 1478 406 1496 462 1506 C511 1515 561 1520 613 1520 C738 1520 831 1491 890 1434 C949 1377 979 1287 979 1165 L979 717 L786 717 L786 717 Z M293 598 L981 598 L981 428 L293 428 L293 598 L293 598 Z " />
<glyph glyph-name="guillemotleft" unicode="&#xab;" horiz-adv-x="1233" d="M1042 1059 L1042 821 L766 600 L1042 379 L1042 141 L573 535 L573 666 L1042 1059 L1042 1059 Z M588 1059 L588 821 L311 600 L588 379 L588 141 L119 535 L119 666 L588 1059 L588 1059 Z " />
<glyph glyph-name="logicalnot" unicode="&#xac;" horiz-adv-x="1233" d="M88 899 L1145 899 L1145 362 L907 362 L907 662 L88 662 L88 899 L88 899 Z " />
<glyph glyph-name="sfthyphen" unicode="&#xad;" horiz-adv-x="1233" d="M301 735 L932 735 L932 444 L301 444 L301 735 L301 735 Z " />
<glyph glyph-name="registered" unicode="&#xae;" horiz-adv-x="1233" d="M616 1358 C701 1358 779 1343 852 1313 C927 1282 995 1235 1051 1178 C1113 1115 1158 1045 1187 977 C1218 904 1233 825 1233 742 C1233 658 1218 579 1188 508 C1158 437 1111 366 1052 307 C997 252 927 203 851 171 C778 140 700 125 616 125 C528 125 454 141 382 171 C311 201 241 247 181 307 C123 365 77 434 46 507 C16 579 0 653 0 741 C0 825 15 904 46 977 C77 1050 123 1118 182 1178 C241 1238 308 1283 381 1313 C454 1343 532 1358 616 1358 L616 1358 Z M617 1229 C539 1229 484 1215 432 1193 C385 1173 328 1141 273 1085 C224 1035 191 983 167 927 C140 863 131 801 131 742 C131 674 143 615 167 558 C192 499 225 450 274 400 C323 351 373 317 432 292 C489 268 550 256 616 256 C682 256 744 268 801 292 C858 316 911 352 958 399 C1000 441 1040 496 1066 558 C1090 615 1102 674 1102 742 C1102 808 1091 867 1066 927 C1040 989 1005 1038 959 1085 C913 1132 860 1169 802 1193 C738 1220 680 1229 617 1229 L617 1229 Z M588 944 L524 944 L524 780 L588 780 C626 780 655 787 674 800 C693 813 702 833 702 861 C702 889 693 910 674 924 C655 937 627 944 588 944 L588 944 Z M360 1055 L606 1055 C695 1055 761 1040 804 1011 C847 982 868 936 868 878 C868 833 855 798 829 770 C805 744 772 724 719 715 C750 704 772 686 785 673 C801 657 821 628 836 596 L915 430 L743 430 L680 563 C663 599 645 629 625 645 C609 658 584 669 555 670 L524 670 L524 430 L360 430 L360 1055 L360 1055 Z " />
<glyph glyph-name="macron" unicode="&#xaf;" horiz-adv-x="1233" d="M301 1556 L932 1556 L932 1368 L301 1368 L301 1556 L301 1556 Z " />
<glyph glyph-name="degree" unicode="&#xb0;" horiz-adv-x="1233" d="M616 1520 C661 1520 703 1512 744 1495 C782 1479 821 1453 852 1422 C882 1392 909 1350 924 1313 C940 1274 948 1233 948 1188 C948 1142 940 1100 923 1059 C906 1018 883 983 852 952 C823 923 786 898 743 880 C702 863 660 854 613 854 C519 854 436 890 378 948 C316 1010 283 1093 283 1185 C283 1276 315 1360 378 1424 C441 1487 524 1520 616 1520 L616 1520 Z M616 1358 C568 1358 527 1341 494 1308 C461 1275 444 1234 444 1185 C444 1138 460 1098 493 1065 C526 1032 566 1016 614 1016 C662 1016 703 1033 736 1066 C769 1099 786 1138 786 1187 C786 1234 770 1275 737 1308 C704 1341 663 1358 616 1358 L616 1358 Z " />
<glyph glyph-name="plusminus" unicode="&#xb1;" horiz-adv-x="1233" d="M735 1284 L735 930 L1145 930 L1145 694 L735 694 L735 340 L498 340 L498 694 L88 694 L88 930 L498 930 L498 1284 L735 1284 L735 1284 Z M88 238 L1145 238 L1145 0 L88 0 L88 238 L88 238 Z " />
<glyph glyph-name="twosuperior" unicode="&#xb2;" horiz-adv-x="1233" d="M500 813 L940 813 L940 668 L274 668 L274 809 C308 838 355 877 415 927 C627 1104 729 1212 729 1275 C729 1298 716 1329 686 1350 C657 1370 616 1380 569 1380 C529 1380 483 1373 444 1363 C405 1353 347 1333 299 1311 L299 1475 C342 1488 406 1503 445 1509 C482 1515 535 1520 587 1520 C694 1520 784 1499 845 1457 C907 1415 938 1354 938 1300 C938 1201 835 1075 583 878 C546 849 556 857 500 813 L500 813 Z " />
<glyph glyph-name="threesuperior" unicode="&#xb3;" horiz-adv-x="1233" d="M582 1042 L471 1042 L471 1188 L582 1188 C631 1188 670 1196 699 1213 C726 1229 741 1252 741 1283 C741 1308 731 1334 702 1353 C676 1370 640 1378 586 1378 C548 1378 500 1374 454 1367 C408 1360 362 1348 317 1333 L317 1485 C350 1493 406 1505 456 1511 C502 1517 548 1520 592 1520 C701 1520 785 1501 846 1462 C907 1423 938 1370 938 1303 C938 1254 921 1214 886 1183 C851 1152 800 1131 735 1120 C809 1110 866 1086 905 1049 C944 1012 963 962 963 900 C963 820 931 759 867 717 C802 674 708 653 588 653 C535 653 486 657 436 664 C386 671 336 681 287 694 L287 848 C327 832 374 817 430 807 C481 798 536 793 580 793 C646 793 687 804 719 825 C750 846 766 875 766 914 C766 953 750 985 717 1008 C684 1031 639 1042 582 1042 L582 1042 Z " />
<glyph glyph-name="acute" unicode="&#xb4;" horiz-adv-x="1233" d="M752 1638 L1034 1638 L666 1262 L469 1262 L752 1638 L752 1638 Z " />
<glyph glyph-name="mu" unicode="&#xb5;" horiz-adv-x="1233" d="M174 -428 L174 1120 L461 1120 L461 440 C461 364 475 307 502 269 C528 232 567 211 624 211 C679 211 719 230 746 268 C773 306 786 363 786 440 L786 1120 L1075 1120 L1075 344 C1075 297 1080 263 1089 242 C1098 221 1112 211 1133 211 C1143 211 1150 213 1160 217 C1168 220 1174 223 1188 233 L1188 16 C1155 -1 1135 -10 1108 -18 C1083 -25 1061 -29 1034 -29 C982 -29 947 -14 919 9 C885 37 864 75 846 129 C821 77 791 38 754 11 C717 -16 676 -29 628 -29 C590 -29 556 -21 529 -6 C502 9 478 34 461 66 L463 -428 L174 -428 L174 -428 Z " />
<glyph glyph-name="paragraph" unicode="&#xb6;" horiz-adv-x="1233" d="M545 1493 L1065 1493 L1065 -197 L874 -197 L874 1346 L684 1346 L684 -197 L496 -197 L496 649 C354 667 254 712 181 784 C107 857 70 952 70 1070 C70 1198 113 1300 200 1377 C287 1454 402 1493 545 1493 L545 1493 Z " />
<glyph glyph-name="cedilla" unicode="&#xb8;" horiz-adv-x="1233" d="M567 0 L707 0 C747 -43 776 -85 792 -115 C810 -149 819 -183 819 -221 C819 -282 796 -327 757 -356 C722 -382 667 -401 573 -401 C542 -401 501 -399 471 -395 C422 -389 401 -382 367 -375 L367 -219 C397 -230 426 -239 454 -245 C482 -251 508 -254 532 -254 C571 -254 601 -246 623 -231 C644 -216 655 -194 655 -170 C655 -150 648 -128 634 -101 C620 -74 598 -40 567 0 L567 0 Z " />
<glyph glyph-name="onesuperior" unicode="&#xb9;" horiz-adv-x="1233" d="M313 813 L539 813 L539 1356 L319 1313 L319 1462 L541 1503 L735 1503 L735 813 L961 813 L961 668 L313 668 L313 813 L313 813 Z " />
<glyph glyph-name="ordmasculine" unicode="&#xba;" horiz-adv-x="1233" d="M293 598 L981 598 L981 428 L293 428 L293 598 L293 598 Z M274 1107 C274 1234 307 1334 373 1409 C438 1483 526 1520 637 1520 C748 1520 836 1483 901 1409 C966 1335 999 1235 999 1107 C999 983 968 884 902 809 C837 735 748 698 637 698 C522 698 437 737 373 809 C309 881 274 977 274 1107 L274 1107 Z M637 1343 C583 1343 546 1316 522 1281 C493 1238 479 1179 479 1108 C479 1036 494 977 521 937 C546 900 585 874 637 874 C683 874 724 894 753 937 C781 978 795 1035 795 1108 C795 1181 781 1238 753 1280 C726 1320 687 1343 637 1343 L637 1343 Z " />
<glyph glyph-name="guillemotright" unicode="&#xbb;" horiz-adv-x="1233" d="M193 1059 L662 666 L662 535 L193 141 L193 379 L469 600 L193 821 L193 1059 L193 1059 Z M647 1059 L1116 666 L1116 535 L647 141 L647 379 L924 600 L647 821 L647 1059 L647 1059 Z " />
<glyph glyph-name="onequarter" unicode="&#xbc;" horiz-adv-x="1233" d="M55 969 L281 969 L281 1512 L61 1469 L61 1618 L283 1659 L477 1659 L477 969 L703 969 L703 824 L55 824 L55 969 L55 969 Z M84 500 L47 618 L1106 881 L1143 762 L84 500 L84 500 Z M823 383 L573 53 L823 53 L823 383 L823 383 Z M805 565 L1009 565 L1009 53 L1118 53 L1118 -90 L1009 -90 L1009 -270 L823 -270 L823 -90 L430 -90 L430 72 L805 565 L805 565 Z " />
<glyph glyph-name="onehalf" unicode="&#xbd;" horiz-adv-x="1233" d="M55 969 L281 969 L281 1512 L61 1469 L61 1618 L283 1659 L477 1659 L477 969 L703 969 L703 824 L55 824 L55 969 L55 969 Z M84 500 L47 618 L1106 881 L1143 762 L84 500 L84 500 Z M701 -125 L1141 -125 L1141 -270 L475 -270 L475 -129 C509 -100 556 -61 616 -11 C828 166 930 274 930 337 C930 360 917 391 887 412 C858 432 817 442 770 442 C730 442 684 435 645 425 C606 415 548 395 500 373 L500 537 C543 550 607 565 646 571 C683 577 736 582 788 582 C895 582 985 561 1046 519 C1108 477 1139 416 1139 362 C1139 263 1036 137 784 -60 C747 -89 757 -81 701 -125 L701 -125 Z " />
<glyph glyph-name="threequarters" unicode="&#xbe;" horiz-adv-x="1233" d="M355 1198 L244 1198 L244 1344 L355 1344 C404 1344 443 1352 472 1369 C499 1385 514 1408 514 1439 C514 1464 504 1490 475 1509 C449 1526 413 1534 359 1534 C321 1534 273 1530 227 1523 C181 1516 135 1504 90 1489 L90 1641 C123 1649 179 1661 229 1667 C275 1673 321 1676 365 1676 C474 1676 558 1657 619 1618 C680 1579 711 1526 711 1459 C711 1410 694 1370 659 1339 C624 1308 573 1287 508 1276 C582 1266 639 1242 678 1205 C717 1168 736 1118 736 1056 C736 976 704 915 640 873 C575 830 481 809 361 809 C308 809 259 813 209 820 C159 827 109 837 60 850 L60 1004 C100 988 147 973 203 963 C254 954 309 949 353 949 C419 949 460 960 492 981 C523 1002 539 1031 539 1070 C539 1109 523 1141 490 1164 C457 1187 412 1198 355 1198 L355 1198 Z M84 500 L47 618 L1106 881 L1143 762 L84 500 L84 500 Z M823 383 L573 53 L823 53 L823 383 L823 383 Z M805 565 L1009 565 L1009 53 L1118 53 L1118 -90 L1009 -90 L1009 -270 L823 -270 L823 -90 L430 -90 L430 72 L805 565 L805 565 Z " />
<glyph glyph-name="questiondown" unicode="&#xbf;" horiz-adv-x="1233" d="M799 1210 L532 1210 L532 1493 L799 1493 L799 1210 L799 1210 Z M532 1092 L799 1092 L799 938 C799 872 789 816 768 769 C746 719 709 672 657 621 L567 532 C513 479 498 458 484 433 C469 406 461 378 461 347 C461 304 476 270 507 247 C538 224 585 213 642 213 C701 213 758 225 819 249 C883 274 939 306 1006 354 L1006 86 C941 49 878 22 808 2 C742 -17 680 -27 606 -27 C475 -27 366 4 290 67 C214 130 176 220 176 323 C176 379 187 424 210 468 C232 510 274 563 338 625 L426 711 C470 754 498 789 511 817 C524 845 530 880 530 922 C530 923 530 925 531 928 C532 942 532 956 532 969 L532 1092 L532 1092 Z " />
<glyph glyph-name="Agrave" unicode="&#xc0;" horiz-adv-x="1233" d="M616 1223 L477 612 L756 612 L616 1223 L616 1223 Z M436 1493 L797 1493 L1200 0 L905 0 L813 369 L418 369 L328 0 L33 0 L436 1493 L436 1493 Z M567 1899 L766 1635 L569 1635 L283 1899 L567 1899 L567 1899 Z " />
<glyph glyph-name="Aacute" unicode="&#xc1;" horiz-adv-x="1233" d="M616 1223 L477 612 L756 612 L616 1223 L616 1223 Z M436 1493 L797 1493 L1200 0 L905 0 L813 369 L418 369 L328 0 L33 0 L436 1493 L436 1493 Z M668 1899 L952 1899 L666 1635 L469 1635 L668 1899 L668 1899 Z " />
<glyph glyph-name="Acircumflex" unicode="&#xc2;" horiz-adv-x="1233" d="M616 1223 L477 612 L756 612 L616 1223 L616 1223 Z M436 1493 L797 1493 L1200 0 L905 0 L813 369 L418 369 L328 0 L33 0 L436 1493 L436 1493 Z M461 1899 L770 1899 L993 1635 L815 1635 L616 1796 L418 1635 L240 1635 L461 1899 L461 1899 Z " />
<glyph glyph-name="Atilde" unicode="&#xc3;" horiz-adv-x="1233" d="M616 1223 L477 612 L756 612 L616 1223 L616 1223 Z M436 1493 L797 1493 L1200 0 L905 0 L813 369 L418 369 L328 0 L33 0 L436 1493 L436 1493 Z M618 1684 L564 1718 C561 1720 557 1722 552 1725 C522 1742 498 1751 479 1751 C458 1751 441 1741 428 1721 C415 1701 408 1674 408 1641 L408 1635 L268 1635 L268 1665 C268 1736 286 1793 323 1836 C359 1879 406 1901 465 1901 C489 1901 514 1897 539 1889 C564 1880 589 1868 614 1852 L674 1813 C688 1804 702 1797 715 1792 C728 1787 739 1784 750 1784 C774 1784 793 1794 806 1814 C819 1834 825 1863 825 1901 L965 1901 C965 1898 965 1893 964 1886 C963 1879 963 1874 963 1870 C963 1799 945 1743 910 1700 C874 1657 827 1635 768 1635 C743 1635 719 1639 696 1646 C672 1653 646 1666 618 1684 L618 1684 Z " />
<glyph glyph-name="Adieresis" unicode="&#xc4;" horiz-adv-x="1233" d="M616 1223 L477 612 L756 612 L616 1223 L616 1223 Z M436 1493 L797 1493 L1200 0 L905 0 L813 369 L418 369 L328 0 L33 0 L436 1493 L436 1493 Z M696 1899 L932 1899 L932 1653 L696 1653 L696 1899 L696 1899 Z M301 1899 L537 1899 L537 1653 L301 1653 L301 1899 L301 1899 Z " />
<glyph glyph-name="Aring" unicode="&#xc5;" horiz-adv-x="1233" d="M815 1421 L1200 0 L905 0 L813 369 L418 369 L328 0 L33 0 L418 1421 C389 1446 367 1474 353 1507 C339 1539 332 1577 332 1614 C332 1697 366 1769 415 1818 C462 1865 533 1901 617 1901 C691 1901 763 1873 819 1817 C867 1769 901 1699 901 1615 C901 1577 894 1538 880 1507 C866 1475 844 1446 815 1421 L815 1421 Z M485 1616 C485 1578 501 1546 523 1524 C549 1498 584 1485 618 1485 C652 1485 684 1498 710 1524 C735 1549 748 1580 748 1616 C748 1652 735 1683 709 1709 C683 1734 652 1747 616 1747 C581 1747 550 1734 524 1709 C498 1683 485 1651 485 1616 L485 1616 Z M616 1223 L477 612 L756 612 L616 1223 L616 1223 Z " />
<glyph glyph-name="AE" unicode="&#xc6;" horiz-adv-x="1233" d="M1161 1493 L1161 1233 L870 1233 L870 922 L1130 922 L1130 662 L870 662 L870 260 L1180 260 L1180 0 L616 0 L616 362 L334 362 L248 0 L0 0 L358 1493 L1161 1493 L1161 1493 Z M537 1233 L389 598 L616 598 L616 1233 L537 1233 L537 1233 Z " />
<glyph glyph-name="Ccedilla" unicode="&#xc7;" horiz-adv-x="1233" d="M703.813 -26.413 C537.214 -13.0406 404.887 52.199 311 170 C205 303 152 494 152 745 C152 996 205 1188 311 1321 C417 1454 572 1520 770 1520 C830 1520 883 1514 935 1502 C987 1490 1036 1472 1081 1448 L1081 1120 C1021 1175 975 1204 933 1223 C882 1246 834 1255 785 1255 C678 1255 597 1212 542 1127 C487 1041 459 914 459 745 C459 577 487 450 542 365 C597 279 679 236 785 236 C838 236 886 247 934 269 C980 290 1024 319 1081 371 L1081 43 C1034 19 985 1 934 -11 C905.738 -17.6499 876.862 -22.4572 846.521 -25.422 C875.009 -59.2135 896.178 -90.9597 909 -115 C927 -149 936 -183 936 -221 C936 -282 913 -327 874 -356 C839 -382 784 -401 690 -401 C659 -401 618 -399 588 -395 C539 -389 518 -382 484 -375 L484 -219 C514 -230 543 -239 571 -245 C599 -251 625 -254 649 -254 C688 -254 718 -246 740 -231 C761 -216 772 -194 772 -170 C772 -150 765 -128 751 -101 C740.192 -80.1561 724.617 -55.1406 703.813 -26.413 L703.813 -26.413 Z " />
<glyph glyph-name="Egrave" unicode="&#xc8;" horiz-adv-x="1233" d="M1098 0 L168 0 L168 1493 L1098 1493 L1098 1233 L463 1233 L463 911 L1038 911 L1038 651 L463 651 L463 260 L1098 260 L1098 0 L1098 0 Z M598 1899 L797 1635 L600 1635 L314 1899 L598 1899 L598 1899 Z " />
<glyph glyph-name="Eacute" unicode="&#xc9;" horiz-adv-x="1233" d="M1098 0 L168 0 L168 1493 L1098 1493 L1098 1233 L463 1233 L463 911 L1038 911 L1038 651 L463 651 L463 260 L1098 260 L1098 0 L1098 0 Z M699 1899 L983 1899 L697 1635 L500 1635 L699 1899 L699 1899 Z " />
<glyph glyph-name="Ecircumflex" unicode="&#xca;" horiz-adv-x="1233" d="M1098 0 L168 0 L168 1493 L1098 1493 L1098 1233 L463 1233 L463 911 L1038 911 L1038 651 L463 651 L463 260 L1098 260 L1098 0 L1098 0 Z M492 1899 L801 1899 L1024 1635 L846 1635 L647 1796 L449 1635 L271 1635 L492 1899 L492 1899 Z " />
<glyph glyph-name="Edieresis" unicode="&#xcb;" horiz-adv-x="1233" d="M1098 0 L168 0 L168 1493 L1098 1493 L1098 1233 L463 1233 L463 911 L1038 911 L1038 651 L463 651 L463 260 L1098 260 L1098 0 L1098 0 Z M727 1899 L963 1899 L963 1653 L727 1653 L727 1899 L727 1899 Z M332 1899 L568 1899 L568 1653 L332 1653 L332 1899 L332 1899 Z " />
<glyph glyph-name="Igrave" unicode="&#xcc;" horiz-adv-x="1233" d="M172 1233 L172 1493 L1061 1493 L1061 1233 L764 1233 L764 260 L1061 260 L1061 0 L172 0 L172 260 L469 260 L469 1233 L172 1233 L172 1233 Z M567 1899 L766 1635 L569 1635 L283 1899 L567 1899 L567 1899 Z " />
<glyph glyph-name="Iacute" unicode="&#xcd;" horiz-adv-x="1233" d="M172 1233 L172 1493 L1061 1493 L1061 1233 L764 1233 L764 260 L1061 260 L1061 0 L172 0 L172 260 L469 260 L469 1233 L172 1233 L172 1233 Z M668 1899 L952 1899 L666 1635 L469 1635 L668 1899 L668 1899 Z " />
<glyph glyph-name="Icircumflex" unicode="&#xce;" horiz-adv-x="1233" d="M172 1233 L172 1493 L1061 1493 L1061 1233 L764 1233 L764 260 L1061 260 L1061 0 L172 0 L172 260 L469 260 L469 1233 L172 1233 L172 1233 Z M461 1899 L770 1899 L993 1635 L815 1635 L616 1796 L418 1635 L240 1635 L461 1899 L461 1899 Z " />
<glyph glyph-name="Idieresis" unicode="&#xcf;" horiz-adv-x="1233" d="M172 1233 L172 1493 L1061 1493 L1061 1233 L764 1233 L764 260 L1061 260 L1061 0 L172 0 L172 260 L469 260 L469 1233 L172 1233 L172 1233 Z M696 1899 L932 1899 L932 1653 L696 1653 L696 1899 L696 1899 Z M301 1899 L537 1899 L537 1653 L301 1653 L301 1899 L301 1899 Z " />
<glyph glyph-name="Eth" unicode="&#xd0;" horiz-adv-x="1233" d="M432 1227 L432 901 L643 901 L643 664 L432 664 L432 266 L512 266 C628 266 711 303 760 376 C809 449 834 573 834 748 C834 922 809 1045 760 1118 C711 1191 628 1227 512 1227 L432 1227 L432 1227 Z M137 1493 L453 1493 C697 1493 873 1435 980 1319 C1085 1205 1141 1016 1141 747 C1141 483 1087 293 980 176 C873 59 697 0 453 0 L137 0 L137 664 L0 664 L0 901 L137 901 L137 1493 L137 1493 Z " />
<glyph glyph-name="Ntilde" unicode="&#xd1;" horiz-adv-x="1233" d="M119 1493 L436 1493 L852 408 L852 1493 L1112 1493 L1112 0 L797 0 L379 1085 L379 0 L119 0 L119 1493 L119 1493 Z M618 1684 L564 1718 C554 1724 560 1720 552 1725 C524 1740 502 1751 479 1751 C458 1751 441 1741 428 1721 C415 1701 408 1674 408 1641 L408 1635 L268 1635 L268 1665 C268 1738 289 1797 322 1836 C359 1880 412 1901 466 1901 C490 1901 514 1897 539 1889 C560 1882 591 1867 614 1852 L674 1813 C688 1804 698 1799 715 1792 C728 1787 738 1784 750 1784 C773 1784 793 1794 806 1814 C819 1834 825 1863 825 1901 L965 1901 C965 1898 965 1893 964 1886 C963 1879 963 1875 963 1873 C963 1799 945 1743 910 1700 C872 1654 822 1635 768 1635 C743 1635 719 1639 696 1646 C670 1654 646 1666 618 1684 L618 1684 Z " />
<glyph glyph-name="Ograve" unicode="&#xd2;" horiz-adv-x="1233" d="M616 1255 C538 1255 485 1213 451 1134 C416 1054 399 926 399 746 C399 566 416 437 451 357 C486 276 541 236 616 236 C692 236 747 276 782 357 C817 437 834 566 834 746 C834 926 817 1054 782 1134 C747 1215 693 1255 616 1255 L616 1255 Z M92 745 C92 998 136 1193 225 1325 C317 1461 453 1520 616 1520 C790 1520 922 1453 1009 1324 C1097 1193 1141 1000 1141 745 C1141 490 1097 298 1009 167 C924 41 794 -29 616 -29 C437 -29 309 42 225 166 C136 298 92 492 92 745 L92 745 Z M567 1899 L766 1635 L569 1635 L283 1899 L567 1899 L567 1899 Z " />
<glyph glyph-name="Oacute" unicode="&#xd3;" horiz-adv-x="1233" d="M616 1255 C538 1255 485 1213 451 1134 C416 1054 399 926 399 746 C399 566 416 437 451 357 C486 276 541 236 616 236 C692 236 747 276 782 357 C817 437 834 566 834 746 C834 926 817 1054 782 1134 C747 1215 693 1255 616 1255 L616 1255 Z M92 745 C92 998 136 1193 225 1325 C317 1461 453 1520 616 1520 C790 1520 922 1453 1009 1324 C1097 1193 1141 1000 1141 745 C1141 490 1097 298 1009 167 C924 41 794 -29 616 -29 C437 -29 309 42 225 166 C136 298 92 492 92 745 L92 745 Z M668 1899 L952 1899 L666 1635 L469 1635 L668 1899 L668 1899 Z " />
<glyph glyph-name="Ocircumflex" unicode="&#xd4;" horiz-adv-x="1233" d="M616 1255 C538 1255 485 1213 451 1134 C416 1054 399 926 399 746 C399 566 416 437 451 357 C486 276 541 236 616 236 C692 236 747 276 782 357 C817 437 834 566 834 746 C834 926 817 1054 782 1134 C747 1215 693 1255 616 1255 L616 1255 Z M92 745 C92 998 136 1193 225 1325 C317 1461 453 1520 616 1520 C790 1520 922 1453 1009 1324 C1097 1193 1141 1000 1141 745 C1141 490 1097 298 1009 167 C924 41 794 -29 616 -29 C437 -29 309 42 225 166 C136 298 92 492 92 745 L92 745 Z M461 1899 L770 1899 L993 1635 L815 1635 L616 1796 L418 1635 L240 1635 L461 1899 L461 1899 Z " />
<glyph glyph-name="Otilde" unicode="&#xd5;" horiz-adv-x="1233" d="M616 1255 C538 1255 485 1213 451 1134 C416 1054 399 926 399 746 C399 566 416 437 451 357 C486 276 541 236 616 236 C692 236 747 276 782 357 C817 437 834 566 834 746 C834 926 817 1054 782 1134 C747 1215 693 1255 616 1255 L616 1255 Z M92 745 C92 998 136 1193 225 1325 C317 1461 453 1520 616 1520 C790 1520 922 1453 1009 1324 C1097 1193 1141 1000 1141 745 C1141 490 1097 298 1009 167 C924 41 794 -29 616 -29 C437 -29 309 42 225 166 C136 298 92 492 92 745 L92 745 Z M618 1684 L564 1718 C554 1724 560 1720 552 1725 C524 1740 502 1751 479 1751 C458 1751 441 1741 428 1721 C415 1701 408 1674 408 1641 L408 1635 L268 1635 L268 1665 C268 1738 289 1797 322 1836 C359 1880 412 1901 466 1901 C490 1901 514 1897 539 1889 C560 1882 591 1867 614 1852 L674 1813 C688 1804 698 1799 715 1792 C728 1787 738 1784 750 1784 C773 1784 793 1794 806 1814 C819 1834 825 1863 825 1901 L965 1901 C965 1898 965 1893 964 1886 C963 1879 963 1875 963 1873 C963 1799 945 1743 910 1700 C872 1654 822 1635 768 1635 C743 1635 719 1639 696 1646 C670 1654 646 1666 618 1684 L618 1684 Z " />
<glyph glyph-name="Odieresis" unicode="&#xd6;" horiz-adv-x="1233" d="M616 1255 C538 1255 485 1213 451 1134 C416 1054 399 926 399 746 C399 566 416 437 451 357 C486 276 541 236 616 236 C692 236 747 276 782 357 C817 437 834 566 834 746 C834 926 817 1054 782 1134 C747 1215 693 1255 616 1255 L616 1255 Z M92 745 C92 998 136 1193 225 1325 C317 1461 453 1520 616 1520 C790 1520 922 1453 1009 1324 C1097 1193 1141 1000 1141 745 C1141 490 1097 298 1009 167 C924 41 794 -29 616 -29 C437 -29 309 42 225 166 C136 298 92 492 92 745 L92 745 Z M696 1899 L932 1899 L932 1653 L696 1653 L696 1899 L696 1899 Z M301 1899 L537 1899 L537 1653 L301 1653 L301 1899 L301 1899 Z " />
<glyph glyph-name="multiply" unicode="&#xd7;" horiz-adv-x="1233" d="M1112 971 L782 643 L1112 313 L944 147 L614 475 L287 147 L119 313 L449 643 L119 971 L287 1139 L614 811 L944 1139 L1112 971 L1112 971 Z " />
<glyph glyph-name="Oslash" unicode="&#xd8;" horiz-adv-x="1233" d="M829 888 L451 354 C466 317 491 286 517 267 C546 246 580 236 617 236 C694 236 748 279 782 357 C817 437 834 561 834 762 C834 764 834 783 833 804 C832 836 831 850 829 888 L829 888 Z M399 629 L772 1153 C755 1187 733 1213 707 1230 C681 1247 651 1255 617 1255 C539 1255 486 1213 452 1135 C417 1055 399 929 399 756 L399 629 L399 629 Z M-6 51 L162 289 C137 354 122 412 110 491 C99 563 92 640 92 743 C92 1001 136 1193 225 1324 C313 1454 440 1520 616 1520 C685 1520 747 1510 802 1489 C860 1467 908 1435 946 1397 L1059 1559 L1221 1444 L1063 1221 C1089 1158 1109 1087 1122 1008 C1135 928 1141 840 1141 745 C1141 490 1097 298 1009 167 C918 32 783 -29 615 -29 C540 -29 481 -17 425 5 C369 27 322 57 276 104 L156 -63 L-6 51 L-6 51 Z " />
<glyph glyph-name="Ugrave" unicode="&#xd9;" horiz-adv-x="1233" d="M106 551 L106 1493 L401 1493 L401 477 C401 401 422 341 458 301 C496 259 552 238 616 238 C680 238 736 259 774 301 C810 341 831 401 831 477 L831 1493 L1126 1493 L1126 551 C1126 348 1086 201 1005 109 C924 17 795 -29 616 -29 C438 -29 309 17 228 109 C147 201 106 348 106 551 L106 551 Z M567 1899 L766 1635 L569 1635 L283 1899 L567 1899 L567 1899 Z " />
<glyph glyph-name="Uacute" unicode="&#xda;" horiz-adv-x="1233" d="M106 551 L106 1493 L401 1493 L401 477 C401 401 422 341 458 301 C496 259 552 238 616 238 C680 238 736 259 774 301 C810 341 831 401 831 477 L831 1493 L1126 1493 L1126 551 C1126 348 1086 201 1005 109 C924 17 795 -29 616 -29 C438 -29 309 17 228 109 C147 201 106 348 106 551 L106 551 Z M668 1899 L952 1899 L666 1635 L469 1635 L668 1899 L668 1899 Z " />
<glyph glyph-name="Ucircumflex" unicode="&#xdb;" horiz-adv-x="1233" d="M106 551 L106 1493 L401 1493 L401 477 C401 401 422 341 458 301 C496 259 552 238 616 238 C680 238 736 259 774 301 C810 341 831 401 831 477 L831 1493 L1126 1493 L1126 551 C1126 348 1086 201 1005 109 C924 17 795 -29 616 -29 C438 -29 309 17 228 109 C147 201 106 348 106 551 L106 551 Z M461 1899 L770 1899 L993 1635 L815 1635 L616 1796 L418 1635 L240 1635 L461 1899 L461 1899 Z " />
<glyph glyph-name="Udieresis" unicode="&#xdc;" horiz-adv-x="1233" d="M106 551 L106 1493 L401 1493 L401 477 C401 401 422 341 458 301 C496 259 552 238 616 238 C680 238 736 259 774 301 C810 341 831 401 831 477 L831 1493 L1126 1493 L1126 551 C1126 348 1086 201 1005 109 C924 17 795 -29 616 -29 C438 -29 309 17 228 109 C147 201 106 348 106 551 L106 551 Z M696 1899 L932 1899 L932 1653 L696 1653 L696 1899 L696 1899 Z M301 1899 L537 1899 L537 1653 L301 1653 L301 1899 L301 1899 Z " />
<glyph glyph-name="Yacute" unicode="&#xdd;" horiz-adv-x="1233" d="M8 1493 L326 1493 L616 893 L907 1493 L1225 1493 L764 588 L764 0 L469 0 L469 588 L8 1493 L8 1493 Z M668 1899 L952 1899 L666 1635 L469 1635 L668 1899 L668 1899 Z " />
<glyph glyph-name="Thorn" unicode="&#xde;" horiz-adv-x="1233" d="M457 1014 L457 575 L578 575 C675 575 743 591 782 624 C821 657 840 713 840 793 C840 874 821 931 782 964 C743 997 675 1014 578 1014 L457 1014 L457 1014 Z M162 1493 L457 1493 L457 1255 L567 1255 C773 1255 921 1219 1012 1146 C1102 1073 1147 952 1147 791 C1147 628 1101 513 1010 441 C917 367 769 332 567 332 L457 332 L457 0 L162 0 L162 1493 L162 1493 Z " />
<glyph glyph-name="germandbls" unicode="&#xdf;" horiz-adv-x="1233" d="M1034 1073 L1034 1059 C939 1054 884 1035 846 1008 C804 978 780 936 780 889 C780 832 815 793 896 728 C908 719 911 716 915 713 L1012 639 C1071 594 1107 552 1134 501 C1159 453 1174 398 1174 330 C1174 225 1139 132 1063 67 C988 3 880 -29 759 -29 C716 -29 672 -25 633 -17 C599 -10 549 4 504 20 L504 270 C543 249 581 234 620 223 C656 213 691 207 729 207 C785 207 821 220 847 241 C873 262 889 292 889 329 C889 385 851 431 774 492 C747 513 735 520 729 526 L643 594 C604 625 574 664 554 706 C534 748 524 795 524 847 C524 930 549 1001 598 1058 C650 1118 720 1153 809 1174 C803 1226 780 1264 751 1285 C718 1309 670 1321 614 1321 C553 1321 502 1307 468 1271 C436 1237 420 1187 420 1122 L420 0 L127 0 L127 1126 C127 1267 167 1374 248 1447 C331 1522 450 1556 594 1556 C749 1556 857 1517 928 1438 C999 1359 1034 1237 1034 1073 L1034 1073 Z " />
<glyph glyph-name="agrave" unicode="&#xe0;" horiz-adv-x="1233" d="M817 526 L700 526 C591 526 514 512 471 484 C428 456 406 407 406 342 C406 288 421 249 451 219 C481 189 521 174 575 174 C649 174 710 203 753 262 C796 320 817 401 817 506 L817 526 L817 526 Z M1108 639 L1108 0 L817 0 L817 125 C782 76 736 38 681 11 C626 -16 567 -29 493 -29 C373 -29 272 5 201 72 C130 139 94 233 94 354 C94 481 134 580 221 644 C306 706 437 737 614 737 L817 737 L817 786 C817 835 798 871 766 894 C731 919 678 930 609 930 C546 930 476 921 411 904 C348 887 276 858 205 819 L205 1069 C263 1093 333 1115 402 1128 C469 1141 539 1147 615 1147 C810 1147 926 1107 997 1035 C1067 964 1108 848 1108 639 L1108 639 Z M481 1638 L764 1262 L567 1262 L199 1638 L481 1638 L481 1638 Z " />
<glyph glyph-name="aacute" unicode="&#xe1;" horiz-adv-x="1233" d="M817 526 L700 526 C591 526 514 512 471 484 C428 456 406 407 406 342 C406 288 421 249 451 219 C481 189 521 174 575 174 C649 174 710 203 753 262 C796 320 817 401 817 506 L817 526 L817 526 Z M1108 639 L1108 0 L817 0 L817 125 C782 76 736 38 681 11 C626 -16 567 -29 493 -29 C373 -29 272 5 201 72 C130 139 94 233 94 354 C94 481 134 580 221 644 C306 706 437 737 614 737 L817 737 L817 786 C817 835 798 871 766 894 C731 919 678 930 609 930 C546 930 476 921 411 904 C348 887 276 858 205 819 L205 1069 C263 1093 333 1115 402 1128 C469 1141 539 1147 615 1147 C810 1147 926 1107 997 1035 C1067 964 1108 848 1108 639 L1108 639 Z M752 1638 L1034 1638 L666 1262 L469 1262 L752 1638 L752 1638 Z " />
<glyph glyph-name="acircumflex" unicode="&#xe2;" horiz-adv-x="1233" d="M817 526 L700 526 C591 526 514 512 471 484 C428 456 406 407 406 342 C406 288 421 249 451 219 C481 189 521 174 575 174 C649 174 710 203 753 262 C796 320 817 401 817 506 L817 526 L817 526 Z M1108 639 L1108 0 L817 0 L817 125 C782 76 736 38 681 11 C626 -16 567 -29 493 -29 C373 -29 272 5 201 72 C130 139 94 233 94 354 C94 481 134 580 221 644 C306 706 437 737 614 737 L817 737 L817 786 C817 835 798 871 766 894 C731 919 678 930 609 930 C546 930 476 921 411 904 C348 887 276 858 205 819 L205 1069 C263 1093 333 1115 402 1128 C469 1141 539 1147 615 1147 C810 1147 926 1107 997 1035 C1067 964 1108 848 1108 639 L1108 639 Z M496 1638 L737 1638 L993 1262 L815 1262 L616 1487 L418 1262 L240 1262 L496 1638 L496 1638 Z " />
<glyph glyph-name="atilde" unicode="&#xe3;" horiz-adv-x="1233" d="M817 526 L700 526 C591 526 514 512 471 484 C428 456 406 407 406 342 C406 288 421 249 451 219 C481 189 521 174 575 174 C649 174 710 203 753 262 C796 320 817 401 817 506 L817 526 L817 526 Z M1108 639 L1108 0 L817 0 L817 125 C782 76 736 38 681 11 C626 -16 567 -29 493 -29 C373 -29 272 5 201 72 C130 139 94 233 94 354 C94 481 134 580 221 644 C306 706 437 737 614 737 L817 737 L817 786 C817 835 798 871 766 894 C731 919 678 930 609 930 C546 930 476 921 411 904 C348 887 276 858 205 819 L205 1069 C263 1093 333 1115 402 1128 C469 1141 539 1147 615 1147 C810 1147 926 1107 997 1035 C1067 964 1108 848 1108 639 L1108 639 Z M618 1364 L563 1401 L551 1409 C522 1428 500 1438 479 1438 C454 1438 438 1425 427 1407 C414 1386 408 1356 408 1317 L408 1309 L268 1309 C268 1403 287 1473 320 1520 C351 1564 399 1593 465 1593 C489 1593 513 1589 537 1580 C564 1570 586 1556 614 1536 L676 1493 C693 1481 701 1476 716 1470 C728 1465 739 1462 751 1462 C774 1462 793 1473 806 1494 C819 1515 825 1544 825 1583 L825 1591 L965 1591 C965 1500 948 1430 914 1381 C882 1335 833 1307 768 1307 C744 1307 721 1311 699 1319 C677 1327 650 1342 618 1364 L618 1364 Z " />
<glyph glyph-name="adieresis" unicode="&#xe4;" horiz-adv-x="1233" d="M817 526 L700 526 C591 526 514 512 471 484 C428 456 406 407 406 342 C406 288 421 249 451 219 C481 189 521 174 575 174 C649 174 710 203 753 262 C796 320 817 401 817 506 L817 526 L817 526 Z M1108 639 L1108 0 L817 0 L817 125 C782 76 736 38 681 11 C626 -16 567 -29 493 -29 C373 -29 272 5 201 72 C130 139 94 233 94 354 C94 481 134 580 221 644 C306 706 437 737 614 737 L817 737 L817 786 C817 835 798 871 766 894 C731 919 678 930 609 930 C546 930 476 921 411 904 C348 887 276 858 205 819 L205 1069 C263 1093 333 1115 402 1128 C469 1141 539 1147 615 1147 C810 1147 926 1107 997 1035 C1067 964 1108 848 1108 639 L1108 639 Z M696 1585 L932 1585 L932 1339 L696 1339 L696 1585 L696 1585 Z M301 1585 L537 1585 L537 1339 L301 1339 L301 1585 L301 1585 Z " />
<glyph glyph-name="aring" unicode="&#xe5;" horiz-adv-x="1233" d="M817 526 L700 526 C591 526 514 512 471 484 C428 456 406 407 406 342 C406 288 421 249 451 219 C481 189 521 174 575 174 C649 174 710 203 753 262 C796 320 817 401 817 506 L817 526 L817 526 Z M1108 639 L1108 0 L817 0 L817 125 C782 76 736 38 681 11 C626 -16 567 -29 493 -29 C373 -29 272 5 201 72 C130 139 94 233 94 354 C94 481 134 580 221 644 C306 706 437 737 614 737 L817 737 L817 786 C817 835 798 871 766 894 C731 919 678 930 609 930 C546 930 476 921 411 904 C348 887 276 858 205 819 L205 1069 C263 1093 333 1115 402 1128 C469 1141 539 1147 615 1147 C810 1147 926 1107 997 1035 C1067 964 1108 848 1108 639 L1108 639 Z M332 1535 C332 1620 369 1691 415 1737 C469 1791 541 1819 616 1819 C698 1819 769 1786 818 1737 C866 1689 901 1618 901 1533 C901 1458 873 1388 819 1333 C763 1277 692 1249 617 1249 C541 1249 468 1278 414 1332 C367 1379 332 1452 332 1535 L332 1535 Z M485 1534 C485 1498 499 1465 523 1441 C544 1420 577 1403 617 1403 C652 1403 684 1416 710 1442 C735 1467 748 1498 748 1534 C748 1570 735 1601 709 1627 C683 1652 652 1665 616 1665 C580 1665 549 1652 524 1627 C498 1601 485 1570 485 1534 L485 1534 Z " />
<glyph glyph-name="ae" unicode="&#xe6;" horiz-adv-x="1233" d="M489 401 L489 483 L416 483 C359 483 316 471 285 444 C255 418 240 381 240 329 C240 284 251 247 272 222 C293 197 324 184 365 184 C407 184 438 198 459 227 C479 256 489 299 489 358 L489 401 L489 401 Z M963 690 L963 713 C963 796 955 854 938 885 C921 916 892 932 850 932 C808 932 779 916 762 885 C745 854 737 796 737 713 L737 690 L963 690 L963 690 Z M1188 479 L737 479 C737 383 754 310 787 260 C818 213 863 184 932 184 C977 184 1015 196 1052 214 C1087 231 1126 256 1171 301 L1171 57 C1138 28 1100 6 1059 -8 C1017 -22 967 -29 916 -29 C843 -29 785 -15 735 13 C685 41 646 82 618 135 C591 79 554 37 512 11 C468 -16 414 -29 346 -29 C242 -29 159 2 101 63 C43 125 14 213 14 326 C14 449 48 542 115 603 C182 664 284 694 420 694 L496 694 L496 745 C496 807 483 854 457 885 C431 916 393 932 343 932 C301 932 257 921 218 905 C179 889 128 861 76 823 L76 1069 C125 1095 173 1115 220 1128 C267 1141 310 1147 357 1147 C418 1147 473 1137 515 1116 C555 1096 589 1063 612 1020 C631 1061 663 1092 707 1114 C750 1136 803 1147 866 1147 C985 1147 1065 1107 1114 1028 C1161 952 1188 828 1188 606 L1188 479 L1188 479 Z " />
<glyph glyph-name="ccedilla" unicode="&#xe7;" horiz-adv-x="1233" d="M658.997 -26.668 C512.787 -15.5075 399.141 35.715 314 127 C217 231 168 375 168 559 C168 744 217 888 315 993 C413 1097 549 1149 719 1149 C782 1149 839 1142 895 1128 C950 1114 1006 1092 1061 1063 L1061 795 C1018 832 968 862 921 880 C874 898 818 909 761 909 C662 909 591 876 542 818 C491 757 465 671 465 559 C465 447 491 361 542 301 C593 241 666 211 762 211 C818 211 872 221 921 240 C963 256 1014 284 1061 326 L1061 57 C1008 26 958 7 902 -7 C869.077 -15.2308 836.499 -21.3873 801.219 -25.064 C829.86 -58.9891 851.133 -90.8749 864 -115 C882 -149 891 -183 891 -221 C891 -282 868 -327 829 -356 C794 -382 739 -401 645 -401 C614 -401 573 -399 543 -395 C494 -389 473 -382 439 -375 L439 -219 C469 -230 498 -239 526 -245 C554 -251 580 -254 604 -254 C643 -254 673 -246 695 -231 C716 -216 727 -194 727 -170 C727 -150 720 -128 706 -101 C695.224 -80.2179 679.708 -55.2884 658.997 -26.668 L658.997 -26.668 Z " />
<glyph glyph-name="egrave" unicode="&#xe8;" horiz-adv-x="1233" d="M1102 324 L1102 55 C1034 27 965 6 894 -8 C823 -22 747 -29 675 -29 C481 -29 340 21 241 122 C141 224 92 367 92 554 C92 739 140 882 235 988 C330 1094 459 1147 627 1147 C784 1147 918 1101 1012 1000 C1106 899 1149 755 1149 584 L1149 465 L390 465 C391 377 417 311 468 268 C519 225 596 203 697 203 C765 203 832 213 897 232 C958 250 1026 279 1102 324 L1102 324 Z M393 684 L854 685 C853 762 832 823 795 861 C759 898 701 920 627 920 C557 920 504 900 464 859 C424 818 400 759 393 684 L393 684 Z M520 1638 L803 1262 L606 1262 L238 1638 L520 1638 L520 1638 Z " />
<glyph glyph-name="eacute" unicode="&#xe9;" horiz-adv-x="1233" d="M1102 324 L1102 55 C1034 27 965 6 894 -8 C823 -22 747 -29 675 -29 C481 -29 340 21 241 122 C141 224 92 367 92 554 C92 739 140 882 235 988 C330 1094 459 1147 627 1147 C784 1147 918 1101 1012 1000 C1106 899 1149 755 1149 584 L1149 465 L390 465 C391 377 417 311 468 268 C519 225 596 203 697 203 C765 203 832 213 897 232 C958 250 1026 279 1102 324 L1102 324 Z M393 684 L854 685 C853 762 832 823 795 861 C759 898 701 920 627 920 C557 920 504 900 464 859 C424 818 400 759 393 684 L393 684 Z M791 1638 L1073 1638 L705 1262 L508 1262 L791 1638 L791 1638 Z " />
<glyph glyph-name="ecircumflex" unicode="&#xea;" horiz-adv-x="1233" d="M1102 324 L1102 55 C1034 27 965 6 894 -8 C823 -22 747 -29 675 -29 C481 -29 340 21 241 122 C141 224 92 367 92 554 C92 739 140 882 235 988 C330 1094 459 1147 627 1147 C784 1147 918 1101 1012 1000 C1106 899 1149 755 1149 584 L1149 465 L390 465 C391 377 417 311 468 268 C519 225 596 203 697 203 C765 203 832 213 897 232 C958 250 1026 279 1102 324 L1102 324 Z M393 684 L854 685 C853 762 832 823 795 861 C759 898 701 920 627 920 C557 920 504 900 464 859 C424 818 400 759 393 684 L393 684 Z M535 1638 L776 1638 L1032 1262 L854 1262 L655 1487 L457 1262 L279 1262 L535 1638 L535 1638 Z " />
<glyph glyph-name="edieresis" unicode="&#xeb;" horiz-adv-x="1233" d="M1102 324 L1102 55 C1034 27 965 6 894 -8 C823 -22 747 -29 675 -29 C481 -29 340 21 241 122 C141 224 92 367 92 554 C92 739 140 882 235 988 C330 1094 459 1147 627 1147 C784 1147 918 1101 1012 1000 C1106 899 1149 755 1149 584 L1149 465 L390 465 C391 377 417 311 468 268 C519 225 596 203 697 203 C765 203 832 213 897 232 C958 250 1026 279 1102 324 L1102 324 Z M393 684 L854 685 C853 762 832 823 795 861 C759 898 701 920 627 920 C557 920 504 900 464 859 C424 818 400 759 393 684 L393 684 Z M735 1585 L971 1585 L971 1339 L735 1339 L735 1585 L735 1585 Z M340 1585 L576 1585 L576 1339 L340 1339 L340 1585 L340 1585 Z " />
<glyph glyph-name="igrave" unicode="&#xec;" horiz-adv-x="1233" d="M221 1120 L801 1120 L801 225 L1165 225 L1165 0 L143 0 L143 225 L508 225 L508 895 L221 895 L221 1120 L221 1120 Z M481 1638 L764 1262 L567 1262 L199 1638 L481 1638 L481 1638 Z " />
<glyph glyph-name="iacute" unicode="&#xed;" horiz-adv-x="1233" d="M221 1120 L801 1120 L801 225 L1165 225 L1165 0 L143 0 L143 225 L508 225 L508 895 L221 895 L221 1120 L221 1120 Z M752 1638 L1034 1638 L666 1262 L469 1262 L752 1638 L752 1638 Z " />
<glyph glyph-name="icircumflex" unicode="&#xee;" horiz-adv-x="1233" d="M221 1120 L801 1120 L801 225 L1165 225 L1165 0 L143 0 L143 225 L508 225 L508 895 L221 895 L221 1120 L221 1120 Z M496 1638 L737 1638 L993 1262 L815 1262 L616 1487 L418 1262 L240 1262 L496 1638 L496 1638 Z " />
<glyph glyph-name="idieresis" unicode="&#xef;" horiz-adv-x="1233" d="M221 1120 L801 1120 L801 225 L1165 225 L1165 0 L143 0 L143 225 L508 225 L508 895 L221 895 L221 1120 L221 1120 Z M696 1585 L932 1585 L932 1339 L696 1339 L696 1585 L696 1585 Z M301 1585 L537 1585 L537 1339 L301 1339 L301 1585 L301 1585 Z " />
<glyph glyph-name="eth" unicode="&#xf0;" horiz-adv-x="1233" d="M811 760 C767 784 741 793 713 801 C680 810 648 815 617 815 C548 815 489 790 449 743 C410 697 389 629 389 535 C389 439 411 355 449 298 C488 239 543 209 613 209 C689 209 744 244 779 300 C817 360 836 451 836 556 C836 590 834 628 830 657 C826 687 819 723 811 760 L811 760 Z M774 1327 L940 1100 C1008 1007 1054 921 1083 837 C1112 752 1126 660 1126 559 C1126 377 1080 229 991 127 C902 25 772 -29 613 -29 C447 -29 321 30 236 124 C144 226 98 369 98 534 C98 693 141 820 227 913 C308 1000 426 1053 574 1053 C603 1053 626 1051 647 1047 C668 1043 687 1037 705 1028 L545 1247 L233 1128 L178 1245 L461 1354 L303 1556 L596 1556 L688 1440 L985 1567 L1051 1444 L774 1327 L774 1327 Z " />
<glyph glyph-name="ntilde" unicode="&#xf1;" horiz-adv-x="1233" d="M1071 727 L1071 0 L780 0 L780 682 C780 763 769 822 746 857 C723 892 684 909 636 909 C579 909 539 885 509 838 C480 793 463 732 463 641 L463 0 L172 0 L172 1120 L463 1120 L463 952 C484 1014 519 1062 569 1096 C619 1130 678 1147 751 1147 C855 1147 936 1112 990 1042 C1044 971 1071 866 1071 727 L1071 727 Z M618 1364 L563 1401 L551 1409 C522 1428 500 1438 479 1438 C454 1438 438 1425 427 1407 C414 1386 408 1356 408 1317 L408 1309 L268 1309 C268 1403 287 1473 320 1520 C351 1564 399 1593 465 1593 C489 1593 513 1589 537 1580 C564 1570 586 1556 614 1536 L676 1493 C693 1481 701 1476 716 1470 C728 1465 739 1462 751 1462 C774 1462 793 1473 806 1494 C819 1515 825 1544 825 1583 L825 1591 L965 1591 C965 1500 948 1430 914 1381 C882 1335 833 1307 768 1307 C744 1307 721 1311 699 1319 C677 1327 650 1342 618 1364 L618 1364 Z " />
<glyph glyph-name="ograve" unicode="&#xf2;" horiz-adv-x="1233" d="M481 1561 L764 1262 L567 1262 L199 1561 L481 1561 L481 1561 Z M616 909 C542 909 488 874 451 817 C411 755 391 669 391 560 C391 451 411 363 451 301 C490 241 547 209 616 209 C685 209 742 240 782 301 C822 363 842 451 842 560 C842 669 822 755 782 817 C741 880 684 909 616 909 L616 909 Z M98 560 C98 737 146 885 238 989 C330 1093 460 1147 616 1147 C779 1147 908 1088 995 990 C1082 892 1135 747 1135 559 C1135 381 1088 235 996 130 C908 30 779 -29 617 -29 C448 -29 321 35 238 129 C145 234 98 385 98 560 L98 560 Z " />
<glyph glyph-name="oacute" unicode="&#xf3;" horiz-adv-x="1233" d="M752 1561 L1034 1561 L666 1262 L469 1262 L752 1561 L752 1561 Z M616 909 C542 909 488 874 451 817 C411 755 391 669 391 560 C391 451 411 363 451 301 C490 241 547 209 616 209 C685 209 742 240 782 301 C822 363 842 451 842 560 C842 669 822 755 782 817 C741 880 684 909 616 909 L616 909 Z M98 560 C98 737 146 885 238 989 C330 1093 460 1147 616 1147 C779 1147 908 1088 995 990 C1082 892 1135 747 1135 559 C1135 381 1088 235 996 130 C908 30 779 -29 617 -29 C448 -29 321 35 238 129 C145 234 98 385 98 560 L98 560 Z " />
<glyph glyph-name="ocircumflex" unicode="&#xf4;" horiz-adv-x="1233" d="M496 1561 L737 1561 L993 1262 L815 1262 L616 1409 L418 1262 L240 1262 L496 1561 L496 1561 Z M616 909 C542 909 488 874 451 817 C411 755 391 669 391 560 C391 451 411 363 451 301 C490 241 547 209 616 209 C685 209 742 240 782 301 C822 363 842 451 842 560 C842 669 822 755 782 817 C741 880 684 909 616 909 L616 909 Z M98 560 C98 737 146 885 238 989 C330 1093 460 1147 616 1147 C779 1147 908 1088 995 990 C1082 892 1135 747 1135 559 C1135 381 1088 235 996 130 C908 30 779 -29 617 -29 C448 -29 321 35 238 129 C145 234 98 385 98 560 L98 560 Z " />
<glyph glyph-name="otilde" unicode="&#xf5;" horiz-adv-x="1233" d="M618 1331 L563 1368 L551 1376 C521 1396 498 1405 479 1405 C459 1405 441 1394 428 1373 C415 1352 408 1322 408 1284 L408 1276 L268 1276 L268 1309 C268 1385 287 1447 322 1492 C358 1538 406 1561 465 1561 C489 1561 513 1557 537 1548 C564 1538 586 1523 614 1503 L676 1460 C692 1449 705 1442 716 1438 C728 1433 739 1430 751 1430 C774 1430 793 1440 806 1461 C819 1482 825 1511 825 1550 L825 1559 L965 1559 C965 1554 965 1549 964 1542 C963 1535 963 1530 963 1528 C963 1449 945 1388 910 1343 C876 1299 829 1274 768 1274 C740 1274 721 1279 701 1286 C670 1297 652 1308 618 1331 L618 1331 Z M616 909 C542 909 488 874 451 817 C411 755 391 669 391 560 C391 451 411 363 451 301 C490 241 547 209 616 209 C685 209 742 240 782 301 C822 363 842 451 842 560 C842 669 822 755 782 817 C741 880 684 909 616 909 L616 909 Z M98 560 C98 737 146 885 238 989 C330 1093 460 1147 616 1147 C779 1147 908 1088 995 990 C1082 892 1135 747 1135 559 C1135 381 1088 235 996 130 C908 30 779 -29 617 -29 C448 -29 321 35 238 129 C145 234 98 385 98 560 L98 560 Z " />
<glyph glyph-name="odieresis" unicode="&#xf6;" horiz-adv-x="1233" d="M301 1561 L537 1561 L537 1315 L301 1315 L301 1561 L301 1561 Z M696 1561 L932 1561 L932 1315 L696 1315 L696 1561 L696 1561 Z M616 909 C542 909 488 874 451 817 C411 755 391 669 391 560 C391 451 411 363 451 301 C490 241 547 209 616 209 C685 209 742 240 782 301 C822 363 842 451 842 560 C842 669 822 755 782 817 C741 880 684 909 616 909 L616 909 Z M98 560 C98 737 146 885 238 989 C330 1093 460 1147 616 1147 C779 1147 908 1088 995 990 C1082 892 1135 747 1135 559 C1135 381 1088 235 996 130 C908 30 779 -29 617 -29 C448 -29 321 35 238 129 C145 234 98 385 98 560 L98 560 Z " />
<glyph glyph-name="divide" unicode="&#xf7;" horiz-adv-x="1233" d="M461 1198 L770 1198 L770 889 L461 889 L461 1198 L461 1198 Z M461 395 L770 395 L770 86 L461 86 L461 395 L461 395 Z M66 762 L1165 762 L1165 524 L66 524 L66 762 L66 762 Z " />
<glyph glyph-name="oslash" unicode="&#xf8;" horiz-adv-x="1233" d="M831 675 L483 262 C504 244 525 231 547 222 C569 213 593 209 617 209 C686 209 743 241 782 302 C822 365 842 456 842 553 C842 575 841 603 840 617 C839 629 835 656 831 675 L831 675 Z M399 449 L745 860 C728 877 709 889 688 897 C667 905 644 909 618 909 C547 909 492 878 452 817 C411 755 391 668 391 559 C391 535 392 516 393 499 C394 478 396 465 399 449 L399 449 Z M25 2 L188 199 C158 248 136 302 121 361 C106 420 98 486 98 560 C98 740 145 883 239 989 C332 1094 459 1147 614 1147 C671 1147 728 1140 775 1126 C816 1114 869 1090 915 1059 L1063 1235 L1202 1114 L1042 926 C1075 872 1099 809 1112 758 C1126 703 1135 633 1135 557 C1135 383 1088 235 996 130 C908 30 779 -29 620 -29 C561 -29 508 -21 458 -6 C407 9 364 29 315 61 L164 -117 L25 2 L25 2 Z " />
<glyph glyph-name="ugrave" unicode="&#xf9;" horiz-adv-x="1233" d="M160 391 L160 1120 L453 1120 L453 436 C453 355 464 298 487 263 C510 228 549 211 598 211 C649 211 692 230 724 281 C753 328 768 393 768 477 L768 1120 L1061 1120 L1061 0 L768 0 L768 166 C747 104 712 56 663 22 C613 -12 554 -29 481 -29 C381 -29 299 3 242 77 C187 148 160 252 160 391 L160 391 Z M481 1638 L764 1262 L567 1262 L199 1638 L481 1638 L481 1638 Z " />
<glyph glyph-name="uacute" unicode="&#xfa;" horiz-adv-x="1233" d="M160 391 L160 1120 L453 1120 L453 436 C453 355 464 298 487 263 C510 228 549 211 598 211 C649 211 692 230 724 281 C753 328 768 393 768 477 L768 1120 L1061 1120 L1061 0 L768 0 L768 166 C747 104 712 56 663 22 C613 -12 554 -29 481 -29 C381 -29 299 3 242 77 C187 148 160 252 160 391 L160 391 Z M752 1638 L1034 1638 L666 1262 L469 1262 L752 1638 L752 1638 Z " />
<glyph glyph-name="ucircumflex" unicode="&#xfb;" horiz-adv-x="1233" d="M160 391 L160 1120 L453 1120 L453 436 C453 355 464 298 487 263 C510 228 549 211 598 211 C649 211 692 230 724 281 C753 328 768 393 768 477 L768 1120 L1061 1120 L1061 0 L768 0 L768 166 C747 104 712 56 663 22 C613 -12 554 -29 481 -29 C381 -29 299 3 242 77 C187 148 160 252 160 391 L160 391 Z M496 1638 L737 1638 L993 1262 L815 1262 L616 1487 L418 1262 L240 1262 L496 1638 L496 1638 Z " />
<glyph glyph-name="udieresis" unicode="&#xfc;" horiz-adv-x="1233" d="M160 391 L160 1120 L453 1120 L453 436 C453 355 464 298 487 263 C510 228 549 211 598 211 C649 211 692 230 724 281 C753 328 768 393 768 477 L768 1120 L1061 1120 L1061 0 L768 0 L768 166 C747 104 712 56 663 22 C613 -12 554 -29 481 -29 C381 -29 299 3 242 77 C187 148 160 252 160 391 L160 391 Z M696 1585 L932 1585 L932 1339 L696 1339 L696 1585 L696 1585 Z M301 1585 L537 1585 L537 1339 L301 1339 L301 1585 L301 1585 Z " />
<glyph glyph-name="yacute" unicode="&#xfd;" horiz-adv-x="1233" d="M1176 1120 L711 -121 C669 -233 621 -307 570 -352 C519 -397 452 -424 369 -424 L127 -424 L127 -201 L246 -201 C301 -201 350 -192 378 -171 C408 -148 441 -89 463 -29 L485 31 L59 1120 L367 1120 L623 393 L868 1120 L1176 1120 L1176 1120 Z M752 1638 L1034 1638 L666 1262 L469 1262 L752 1638 L752 1638 Z " />
<glyph glyph-name="thorn" unicode="&#xfe;" horiz-adv-x="1233" d="M442 158 L442 -426 L150 -426 L150 1556 L442 1556 L442 952 C473 1017 513 1065 563 1098 C613 1131 671 1147 740 1147 C864 1147 966 1096 1037 994 C1109 890 1143 740 1143 558 C1143 364 1104 219 1036 123 C963 20 856 -29 735 -29 C673 -29 618 -16 567 18 C525 46 477 95 442 158 L442 158 Z M850 561 C850 669 832 754 796 815 C760 876 710 907 647 907 C584 907 534 876 497 815 C460 754 442 669 442 561 C442 453 460 368 497 307 C534 246 584 215 647 215 C710 215 760 246 796 307 C832 368 850 453 850 561 L850 561 Z " />
<glyph glyph-name="ydieresis" unicode="&#xff;" horiz-adv-x="1233" d="M1176 1120 L711 -121 C669 -233 621 -307 570 -352 C519 -397 452 -424 369 -424 L127 -424 L127 -201 L246 -201 C301 -201 350 -192 378 -171 C408 -148 441 -89 463 -29 L485 31 L59 1120 L367 1120 L623 393 L868 1120 L1176 1120 L1176 1120 Z M696 1585 L932 1585 L932 1339 L696 1339 L696 1585 L696 1585 Z M301 1585 L537 1585 L537 1339 L301 1339 L301 1585 L301 1585 Z " />
<glyph glyph-name="Cacute" unicode="&#x106;" horiz-adv-x="1233" d="M1081 371 L1081 43 C1034 19 985 1 934 -11 C883 -23 830 -29 770 -29 C572 -29 417 37 311 170 C205 303 152 494 152 745 C152 996 205 1188 311 1321 C417 1454 572 1520 770 1520 C830 1520 883 1514 935 1502 C987 1490 1036 1472 1081 1448 L1081 1120 C1021 1175 975 1204 933 1223 C882 1246 834 1255 785 1255 C678 1255 597 1212 542 1127 C487 1041 459 914 459 745 C459 577 487 450 542 365 C597 279 679 236 785 236 C838 236 886 247 934 269 C980 290 1024 319 1081 371 L1081 371 Z M805 1899 L1089 1899 L803 1635 L606 1635 L805 1899 L805 1899 Z " />
<glyph glyph-name="cacute" unicode="&#x107;" horiz-adv-x="1233" d="M1061 326 L1061 57 C1008 26 958 7 902 -7 C846 -21 791 -29 722 -29 C545 -29 411 23 314 127 C217 231 168 375 168 559 C168 744 217 888 315 993 C413 1097 549 1149 719 1149 C782 1149 839 1142 895 1128 C950 1114 1006 1092 1061 1063 L1061 795 C1018 832 968 862 921 880 C874 898 818 909 761 909 C662 909 591 876 542 818 C491 757 465 671 465 559 C465 447 491 361 542 301 C593 241 666 211 762 211 C818 211 872 221 921 240 C963 256 1014 284 1061 326 L1061 326 Z M854 1638 L1136 1638 L768 1262 L571 1262 L854 1638 L854 1638 Z " />
<glyph glyph-name="Ccaron" unicode="&#x10c;" horiz-adv-x="1233" d="M1081 371 L1081 43 C1034 19 985 1 934 -11 C883 -23 830 -29 770 -29 C572 -29 417 37 311 170 C205 303 152 494 152 745 C152 996 205 1188 311 1321 C417 1454 572 1520 770 1520 C830 1520 883 1514 935 1502 C987 1490 1036 1472 1081 1448 L1081 1120 C1021 1175 975 1204 933 1223 C882 1246 834 1255 785 1255 C678 1255 597 1212 542 1127 C487 1041 459 914 459 745 C459 577 487 450 542 365 C597 279 679 236 785 236 C838 236 886 247 934 269 C980 290 1024 319 1081 371 L1081 371 Z M598 1635 L377 1899 L555 1899 L753 1737 L952 1899 L1130 1899 L907 1635 L598 1635 L598 1635 Z " />
<glyph glyph-name="ccaron" unicode="&#x10d;" horiz-adv-x="1233" d="M1061 326 L1061 57 C1008 26 958 7 902 -7 C846 -21 791 -29 722 -29 C545 -29 411 23 314 127 C217 231 168 375 168 559 C168 744 217 888 315 993 C413 1097 549 1149 719 1149 C782 1149 839 1142 895 1128 C950 1114 1006 1092 1061 1063 L1061 795 C1018 832 968 862 921 880 C874 898 818 909 761 909 C662 909 591 876 542 818 C491 757 465 671 465 559 C465 447 491 361 542 301 C593 241 666 211 762 211 C818 211 872 221 921 240 C963 256 1014 284 1061 326 L1061 326 Z M598 1262 L342 1638 L520 1638 L718 1411 L917 1638 L1095 1638 L839 1262 L598 1262 L598 1262 Z " />
<glyph glyph-name="dcroat" unicode="&#x111;" horiz-adv-x="1233" d="M791 961 L791 1251 L485 1251 L485 1440 L791 1440 L791 1556 L1083 1556 L1083 1440 L1229 1440 L1229 1251 L1083 1251 L1083 0 L791 0 L791 166 C760 101 718 52 670 20 C620 -13 562 -29 492 -29 C369 -29 267 22 196 124 C126 225 90 373 90 560 C90 747 126 894 198 995 C266 1091 367 1147 498 1147 C561 1147 616 1134 666 1101 C713 1070 755 1023 791 961 L791 961 Z M383 557 C383 449 401 364 437 303 C473 242 523 211 586 211 C649 211 699 242 736 303 C773 364 791 449 791 557 C791 665 773 750 736 811 C699 872 649 903 586 903 C523 903 473 872 437 811 C401 750 383 665 383 557 L383 557 Z " />
<glyph glyph-name="Gbreve" unicode="&#x11e;" horiz-adv-x="1233" d="M872 270 L872 555 L670 555 L670 803 L1130 803 L1130 119 C1073 70 1011 34 943 9 C874 -16 803 -29 720 -29 C530 -29 379 40 275 172 C175 299 117 489 117 747 C117 994 170 1188 277 1321 C383 1453 536 1520 732 1520 C800 1520 856 1512 914 1495 C972 1478 1026 1453 1077 1421 L1077 1094 C1036 1147 988 1188 935 1215 C881 1242 822 1255 759 1255 C646 1255 562 1213 507 1129 C452 1044 424 916 424 747 C424 582 451 452 504 365 C554 283 630 236 738 236 C765 236 794 239 817 245 C846 252 857 259 872 270 L872 270 Z M281 1899 L422 1899 C435 1859 457 1830 491 1809 C524 1788 565 1778 616 1778 C667 1778 709 1788 741 1808 C773 1828 796 1858 809 1899 L952 1899 C942 1813 908 1748 851 1703 C791 1656 710 1635 616 1635 C518 1635 440 1658 383 1703 C328 1746 292 1807 281 1899 L281 1899 Z " />
<glyph glyph-name="gbreve" unicode="&#x11f;" horiz-adv-x="1233" d="M803 577 C803 675 785 757 746 819 C708 879 658 909 596 909 C533 909 485 878 448 819 C410 759 391 679 391 578 C391 477 410 396 448 336 C485 277 533 246 596 246 C658 246 708 276 746 337 C783 396 803 474 803 577 L803 577 Z M1096 1120 L1096 84 C1096 -95 1056 -225 975 -305 C894 -384 763 -424 578 -424 C520 -424 458 -420 398 -411 C338 -402 277 -388 215 -369 L215 -100 C270 -131 330 -154 384 -168 C441 -183 502 -190 556 -190 C646 -190 705 -171 744 -132 C783 -93 803 -32 803 51 L803 172 C774 119 736 79 689 53 C642 27 583 14 517 14 C387 14 286 64 211 164 C136 264 98 399 98 573 C98 747 136 889 211 993 C286 1097 388 1149 512 1149 C579 1149 635 1134 685 1104 C735 1074 774 1032 803 977 L803 1120 L1096 1120 L1096 1120 Z M281 1606 L422 1606 C429 1560 450 1525 483 1500 C516 1475 561 1462 617 1462 C671 1462 716 1474 749 1499 C781 1523 802 1558 809 1606 L952 1606 C948 1510 917 1437 860 1386 C802 1335 721 1309 616 1309 C515 1309 434 1333 374 1386 C313 1440 285 1514 281 1606 L281 1606 Z " />
<glyph glyph-name="Idotaccent" unicode="&#x130;" horiz-adv-x="1233" d="M172 1233 L172 1493 L1061 1493 L1061 1233 L764 1233 L764 260 L1061 260 L1061 0 L172 0 L172 260 L469 260 L469 1233 L172 1233 L172 1233 Z M479 1899 L754 1899 L754 1653 L479 1653 L479 1899 L479 1899 Z " />
<glyph glyph-name="dotlessi" unicode="&#x131;" horiz-adv-x="1233" d="M221 1120 L801 1120 L801 225 L1165 225 L1165 0 L143 0 L143 225 L508 225 L508 895 L221 895 L221 1120 L221 1120 Z " />
<glyph glyph-name="Lslash" unicode="&#x141;" horiz-adv-x="1233" d="M225 0 L225 537 L74 426 L-39 580 L225 768 L225 1493 L520 1493 L520 973 L795 1167 L907 1014 L520 741 L520 260 L1151 260 L1151 0 L225 0 L225 0 Z " />
<glyph glyph-name="lslash" unicode="&#x142;" horiz-adv-x="1233" d="M410 467 L410 633 L137 438 L37 600 L410 864 L410 1331 L115 1331 L115 1556 L702 1556 L702 1071 L997 1280 L1100 1120 L702 840 L702 467 C702 379 716 317 744 280 C771 244 815 225 883 225 L1116 225 L1116 0 L801 0 C662 0 562 36 501 108 C440 180 410 300 410 467 L410 467 Z " />
<glyph glyph-name="OE" unicode="&#x152;" horiz-adv-x="1233" d="M1217 260 L1217 0 L633 0 C417 0 269 52 189 156 C107 262 68 457 68 745 C68 1036 108 1233 189 1337 C271 1443 423 1493 633 1493 L1206 1493 L1206 1233 L874 1233 L874 922 L1176 922 L1176 662 L874 662 L874 260 L1217 260 L1217 260 Z M621 1233 L569 1233 C485 1233 428 1200 400 1144 C370 1084 354 963 354 745 C354 527 370 406 400 347 C431 286 491 260 569 260 L621 260 L621 1233 L621 1233 Z " />
<glyph glyph-name="oe" unicode="&#x153;" horiz-adv-x="1233" d="M1210 479 L760 479 C760 383 777 310 810 260 C843 209 891 184 955 184 C999 184 1037 196 1074 214 C1113 233 1151 259 1194 301 L1194 57 C1161 28 1124 6 1083 -8 C1042 -22 992 -29 939 -29 C870 -29 814 -17 767 8 C721 32 680 70 649 119 C621 70 587 32 540 7 C495 -17 440 -29 374 -29 C240 -29 153 21 99 109 C40 205 14 357 14 560 C14 767 41 917 99 1011 C155 1102 244 1147 377 1147 C439 1147 493 1137 533 1118 C576 1098 609 1067 637 1022 C656 1062 687 1093 730 1115 C772 1136 827 1147 888 1147 C1002 1147 1088 1108 1137 1028 C1186 949 1210 808 1210 606 L1210 479 L1210 479 Z M985 690 L985 725 C985 801 978 854 960 887 C943 919 915 934 873 934 C828 934 801 917 785 886 C770 857 760 811 760 713 L760 690 L985 690 L985 690 Z M520 558 C520 747 508 825 490 868 C471 913 438 934 384 934 C333 934 299 915 279 868 C257 818 248 725 248 559 C248 368 260 296 279 251 C297 209 326 184 384 184 C444 184 473 210 490 251 C510 299 520 385 520 558 L520 558 Z " />
<glyph glyph-name="Scedilla" unicode="&#x15e;" horiz-adv-x="1233" d="M588.666 -28.981 C586.451 -28.9935 584.229 -29 582 -29 C502 -29 427 -21 351 -3 C276 15 204 41 135 76 L135 381 C217 323 289 284 364 256 C437 229 511 215 580 215 C656 215 711 232 751 265 C791 298 811 345 811 403 C811 449 798 487 771 521 C743 556 703 582 655 600 L510 655 C357 713 260 773 208 834 C155 896 129 980 129 1085 C129 1220 172 1327 259 1404 C346 1481 466 1520 615 1520 C686 1520 760 1511 822 1497 C884 1483 957 1459 1026 1427 L1026 1139 C963 1184 898 1218 833 1241 C768 1264 703 1276 638 1276 C568 1276 513 1262 475 1233 C437 1204 418 1162 418 1111 C418 1068 432 1035 460 1008 C487 982 535 955 633 918 L760 870 C882 824 968 768 1025 696 C1082 623 1110 531 1110 415 C1110 267 1065 157 976 83 C913.142 30.7363 829.334 -3.57046 724.224 -19.215 C755.394 -55.311 778.396 -89.4928 792 -115 C810 -149 819 -183 819 -221 C819 -282 796 -327 757 -356 C722 -382 667 -401 573 -401 C542 -401 501 -399 471 -395 C422 -389 401 -382 367 -375 L367 -219 C397 -230 426 -239 454 -245 C482 -251 508 -254 532 -254 C571 -254 601 -246 623 -231 C644 -216 655 -194 655 -170 C655 -150 648 -128 634 -101 C623.515 -80.7797 608.544 -56.6332 588.666 -28.981 L588.666 -28.981 Z " />
<glyph glyph-name="scedilla" unicode="&#x15f;" horiz-adv-x="1233" d="M588.446 -28.676 C528.449 -27.2937 462.98 -21.5192 405 -12 C338 -1 263 18 190 41 L190 297 C257 259 321 232 388 213 C455 194 518 184 585 184 C651 184 702 194 738 214 C773 234 791 260 791 307 C791 337 784 362 752 386 C720 410 665 431 575 451 L494 469 C382 494 300 534 249 588 C198 642 172 714 172 803 C172 913 211 997 289 1057 C367 1117 477 1147 619 1147 C683 1147 754 1141 808 1132 C862 1123 936 1105 991 1085 L991 829 C937 864 876 892 823 908 C770 924 708 934 643 934 C584 934 535 926 500 906 C466 887 449 857 449 826 C449 766 515 726 663 691 L674 688 L758 668 C863 643 943 603 993 546 C1043 489 1067 409 1067 317 C1067 202 1029 115 954 58 C898.462 15.616 821.564 -11.2815 727.208 -22.693 C756.865 -57.5013 778.834 -90.3136 792 -115 C810 -149 819 -183 819 -221 C819 -282 796 -327 757 -356 C722 -382 667 -401 573 -401 C542 -401 501 -399 471 -395 C422 -389 401 -382 367 -375 L367 -219 C397 -230 426 -239 454 -245 C482 -251 508 -254 532 -254 C571 -254 601 -246 623 -231 C644 -216 655 -194 655 -170 C655 -150 648 -128 634 -101 C623.477 -80.7054 608.433 -56.4557 588.446 -28.676 L588.446 -28.676 Z " />
<glyph glyph-name="Scaron" unicode="&#x160;" horiz-adv-x="1233" d="M655 600 L510 655 C357 713 260 773 208 834 C155 896 129 980 129 1085 C129 1220 172 1327 259 1404 C346 1481 466 1520 615 1520 C686 1520 760 1511 822 1497 C884 1483 957 1459 1026 1427 L1026 1139 C963 1184 898 1218 833 1241 C768 1264 703 1276 638 1276 C568 1276 513 1262 475 1233 C437 1204 418 1162 418 1111 C418 1068 432 1035 460 1008 C487 982 535 955 633 918 L760 870 C882 824 968 768 1025 696 C1082 623 1110 531 1110 415 C1110 267 1065 157 976 83 C887 9 756 -29 582 -29 C502 -29 427 -21 351 -3 C276 15 204 41 135 76 L135 381 C217 323 289 284 364 256 C437 229 511 215 580 215 C656 215 711 232 751 265 C791 298 811 345 811 403 C811 449 798 487 771 521 C743 556 703 582 655 600 L655 600 Z M461 1635 L240 1899 L418 1899 L616 1737 L815 1899 L993 1899 L770 1635 L461 1635 L461 1635 Z " />
<glyph glyph-name="scaron" unicode="&#x161;" horiz-adv-x="1233" d="M991 1085 L991 829 C937 864 876 892 823 908 C770 924 708 934 643 934 C584 934 535 926 500 906 C466 887 449 857 449 826 C449 766 515 726 663 691 L674 688 L758 668 C863 643 943 603 993 546 C1043 489 1067 409 1067 317 C1067 202 1029 115 954 58 C878 0 762 -29 616 -29 C549 -29 472 -23 405 -12 C338 -1 263 18 190 41 L190 297 C257 259 321 232 388 213 C455 194 518 184 585 184 C651 184 702 194 738 214 C773 234 791 260 791 307 C791 337 784 362 752 386 C720 410 665 431 575 451 L494 469 C382 494 300 534 249 588 C198 642 172 714 172 803 C172 913 211 997 289 1057 C367 1117 477 1147 619 1147 C683 1147 754 1141 808 1132 C862 1123 936 1105 991 1085 L991 1085 Z M496 1262 L240 1638 L418 1638 L616 1411 L815 1638 L993 1638 L737 1262 L496 1262 L496 1262 Z " />
<glyph glyph-name="Ydieresis" unicode="&#x178;" horiz-adv-x="1233" d="M8 1493 L326 1493 L616 893 L907 1493 L1225 1493 L764 588 L764 0 L469 0 L469 588 L8 1493 L8 1493 Z M696 1899 L932 1899 L932 1653 L696 1653 L696 1899 L696 1899 Z M301 1899 L537 1899 L537 1653 L301 1653 L301 1899 L301 1899 Z " />
<glyph glyph-name="Zcaron" unicode="&#x17d;" horiz-adv-x="1233" d="M137 1493 L1147 1493 L1147 1249 L455 260 L1161 260 L1161 0 L115 0 L115 244 L786 1233 L137 1233 L137 1493 L137 1493 Z M461 1635 L240 1899 L418 1899 L616 1737 L815 1899 L993 1899 L770 1635 L461 1635 L461 1635 Z " />
<glyph glyph-name="zcaron" unicode="&#x17e;" horiz-adv-x="1233" d="M186 1120 L1081 1120 L1081 891 L492 219 L1081 219 L1081 0 L162 0 L162 229 L752 901 L186 901 L186 1120 L186 1120 Z M496 1262 L240 1638 L418 1638 L616 1411 L815 1638 L993 1638 L737 1262 L496 1262 L496 1262 Z " />
<glyph glyph-name="florin" unicode="&#x192;" horiz-adv-x="1233" d="M1153 1505 L1153 1274 C1123 1293 1094 1304 1071 1312 C1044 1321 1019 1325 992 1325 C931 1325 882 1305 848 1265 C812 1223 789 1158 778 1075 L754 885 L1014 885 L1014 666 L725 666 L631 -47 C616 -160 574 -259 505 -327 C438 -393 350 -426 240 -426 C202 -426 163 -422 125 -414 C93 -407 51 -393 12 -375 L12 -141 C41 -159 68 -173 95 -182 C122 -191 147 -195 175 -195 C236 -195 287 -175 322 -135 C356 -96 380 -31 391 55 L471 666 L219 666 L219 885 L500 885 L539 1178 C555 1300 601 1396 665 1458 C732 1523 822 1556 926 1556 C963 1556 1007 1552 1042 1544 C1073 1537 1119 1521 1153 1505 L1153 1505 Z " />
<glyph glyph-name="circumflex" unicode="&#x2c6;" horiz-adv-x="1233" d="M496 1638 L737 1638 L993 1262 L815 1262 L616 1487 L418 1262 L240 1262 L496 1638 L496 1638 Z " />
<glyph glyph-name="caron" unicode="&#x2c7;" horiz-adv-x="1233" d="M496 1262 L240 1638 L418 1638 L616 1411 L815 1638 L993 1638 L737 1262 L496 1262 L496 1262 Z " />
<glyph glyph-name="breve" unicode="&#x2d8;" horiz-adv-x="1233" d="M281 1606 L422 1606 C429 1560 450 1525 483 1500 C516 1475 561 1462 616 1462 C671 1462 716 1474 749 1499 C782 1524 802 1559 809 1606 L952 1606 C948 1510 917 1437 860 1386 C802 1335 721 1309 616 1309 C512 1309 431 1335 374 1386 C316 1437 285 1510 281 1606 L281 1606 Z " />
<glyph glyph-name="dotaccent" unicode="&#x2d9;" horiz-adv-x="1233" d="M479 1585 L754 1585 L754 1339 L479 1339 L479 1585 L479 1585 Z " />
<glyph glyph-name="ring" unicode="&#x2da;" horiz-adv-x="1233" d="M332 1535 C332 1620 369 1691 415 1737 C469 1791 541 1819 616 1819 C698 1819 769 1786 818 1737 C866 1689 901 1618 901 1533 C901 1458 873 1388 819 1333 C763 1277 692 1249 617 1249 C541 1249 468 1278 414 1332 C367 1379 332 1452 332 1535 L332 1535 Z M485 1534 C485 1498 499 1465 523 1441 C544 1420 577 1403 617 1403 C652 1403 684 1416 710 1442 C735 1467 748 1498 748 1534 C748 1570 735 1601 709 1627 C683 1652 652 1665 616 1665 C580 1665 549 1652 524 1627 C498 1601 485 1570 485 1534 L485 1534 Z " />
<glyph glyph-name="ogonek" unicode="&#x2db;" horiz-adv-x="1233" d="M557 0 L698 0 C652 -62 638 -86 627 -106 C614 -130 608 -148 608 -166 C608 -194 622 -217 638 -230 C659 -247 690 -254 724 -254 C742 -254 770 -252 796 -247 C816 -243 845 -235 874 -223 L874 -379 C849 -384 799 -393 773 -396 C756 -398 713 -401 681 -401 C610 -401 549 -386 508 -355 C467 -324 446 -280 446 -223 C446 -182 457 -150 474 -116 C494 -76 520 -41 557 0 L557 0 Z " />
<glyph glyph-name="tilde" unicode="&#x2dc;" horiz-adv-x="1233" d="M618 1364 L563 1401 L551 1409 C522 1428 500 1438 479 1438 C454 1438 438 1425 427 1407 C414 1386 408 1356 408 1317 L408 1309 L268 1309 C268 1403 287 1473 320 1520 C351 1564 399 1593 465 1593 C489 1593 513 1589 537 1580 C564 1570 586 1556 614 1536 L676 1493 C693 1481 701 1476 716 1470 C728 1465 739 1462 751 1462 C774 1462 793 1473 806 1494 C819 1515 825 1544 825 1583 L825 1591 L965 1591 C965 1500 948 1430 914 1381 C882 1335 833 1307 768 1307 C744 1307 721 1311 699 1319 C677 1327 650 1342 618 1364 L618 1364 Z " />
<glyph glyph-name="hungarumlaut" unicode="&#x2dd;" horiz-adv-x="1233" d="M854 1638 L1085 1638 L813 1262 L639 1262 L854 1638 L854 1638 Z M492 1638 L709 1638 L461 1262 L297 1262 L492 1638 L492 1638 Z " />
<glyph glyph-name="Omega" unicode="&#x3a9;" horiz-adv-x="1233" d="M90 211 L328 211 C248 284 190 365 154 456 C118 546 100 656 100 781 C100 989 150 1161 239 1278 C325 1391 453 1460 615 1460 C775 1460 904 1393 993 1277 C1083 1160 1133 992 1133 782 C1133 656 1115 546 1079 456 C1043 365 985 284 905 211 L1143 211 L1143 0 L672 0 L672 268 C726 321 766 386 792 464 C818 542 831 636 831 751 C831 890 812 1001 775 1078 C738 1155 685 1194 616 1194 C548 1194 496 1156 458 1078 C420 1000 401 891 401 751 C401 636 414 543 441 464 C466 391 504 323 563 268 L563 0 L90 0 L90 211 L90 211 Z " />
<glyph glyph-name="pi" unicode="&#x3c0;" horiz-adv-x="1233" d="M1182 1100 L1182 891 L1020 891 L1020 362 C1020 264 1030 222 1045 202 C1061 181 1092 170 1139 170 C1156 170 1170 170 1181 171 L1214 174 L1214 -14 C1185 -23 1154 -29 1121 -33 C1088 -37 1051 -39 1018 -39 C961 -39 918 -33 880 -22 C836 -9 812 8 793 27 C771 49 757 75 749 102 C740 131 735 174 735 233 L735 268 L735 891 L461 891 L461 0 L176 0 L176 891 L14 891 L14 1100 L1182 1100 L1182 1100 Z " />
<glyph glyph-name="endash" unicode="&#x2013;" horiz-adv-x="1233" d="M0 690 L1233 690 L1233 444 L0 444 L0 690 L0 690 Z " />
<glyph glyph-name="emdash" unicode="&#x2014;" horiz-adv-x="1233" d="M0 690 L1233 690 L1233 444 L0 444 L0 690 L0 690 Z " />
<glyph glyph-name="quoteleft" unicode="&#x2018;" horiz-adv-x="1233" d="M745 903 L432 903 L432 1174 L629 1556 L844 1556 L745 1174 L745 903 L745 903 Z " />
<glyph glyph-name="quoteright" unicode="&#x2019;" horiz-adv-x="1233" d="M530 1556 L844 1556 L844 1286 L647 903 L432 903 L530 1286 L530 1556 L530 1556 Z " />
<glyph glyph-name="quotesinglbase" unicode="&#x201a;" horiz-adv-x="1233" d="M461 367 L774 367 L774 96 L578 -287 L362 -287 L461 96 L461 367 L461 367 Z " />
<glyph glyph-name="quotedblleft" unicode="&#x201c;" horiz-adv-x="1233" d="M465 903 L152 903 L152 1174 L348 1556 L563 1556 L465 1174 L465 903 L465 903 Z M985 903 L672 903 L672 1174 L868 1556 L1081 1556 L985 1174 L985 903 L985 903 Z " />
<glyph glyph-name="quotedblright" unicode="&#x201d;" horiz-adv-x="1233" d="M768 1556 L1081 1556 L1081 1286 L885 903 L670 903 L768 1286 L768 1556 L768 1556 Z M248 1556 L561 1556 L561 1286 L365 903 L150 903 L248 1286 L248 1556 L248 1556 Z " />
<glyph glyph-name="quotedblbase" unicode="&#x201e;" horiz-adv-x="1233" d="M768 367 L1081 367 L1081 96 L885 -287 L670 -287 L768 96 L768 367 L768 367 Z M248 367 L561 367 L561 96 L365 -287 L150 -287 L248 96 L248 367 L248 367 Z " />
<glyph glyph-name="dagger" unicode="&#x2020;" horiz-adv-x="1233" d="M487 1493 L743 1493 L743 1106 L1075 1106 L1075 883 L743 883 L743 -197 L487 -197 L487 883 L156 883 L156 1106 L487 1106 L487 1493 L487 1493 Z " />
<glyph glyph-name="daggerdbl" unicode="&#x2021;" horiz-adv-x="1233" d="M487 1493 L743 1493 L743 1106 L1075 1106 L1075 883 L743 883 L743 414 L1075 414 L1075 190 L743 190 L743 -197 L487 -197 L487 190 L156 190 L156 414 L487 414 L487 883 L156 883 L156 1106 L487 1106 L487 1493 L487 1493 Z " />
<glyph glyph-name="bullet" unicode="&#x2022;" horiz-adv-x="1233" d="M256 762 C256 810 265 857 284 902 C302 944 330 985 362 1016 C395 1048 439 1077 480 1094 C519 1110 567 1120 617 1120 C665 1120 711 1111 755 1093 C798 1075 838 1048 870 1016 C903 983 932 942 950 899 C968 856 977 810 977 762 C977 713 968 667 950 624 C935 588 909 545 870 506 C835 471 799 446 754 427 C716 411 668 399 614 399 C566 399 521 408 476 427 C441 442 395 470 360 506 C327 540 300 582 283 623 C265 666 256 714 256 762 L256 762 Z " />
<glyph glyph-name="ellipsis" unicode="&#x2026;" horiz-adv-x="1233" d="M881 367 L1176 367 L1176 0 L881 0 L881 367 L881 367 Z M469 367 L764 367 L764 0 L469 0 L469 367 L469 367 Z M57 367 L352 367 L352 0 L57 0 L57 367 L57 367 Z " />
<glyph glyph-name="perthousand" unicode="&#x2030;" horiz-adv-x="1233" d="M662 285 L662 289 C662 366 690 437 744 492 C798 546 869 575 946 575 C1026 575 1099 543 1150 492 C1205 437 1233 364 1233 288 C1233 212 1205 141 1150 85 C1098 32 1027 0 946 0 C871 0 801 28 746 82 C690 138 662 208 662 285 L662 285 Z M946 414 C916 414 884 402 860 378 C839 357 823 324 823 288 C823 256 836 223 859 199 C878 179 911 162 946 162 C978 162 1011 176 1035 200 C1055 220 1071 253 1071 291 C1071 323 1059 351 1034 376 C1009 400 980 413 946 414 L946 414 Z M0 1144 C0 1227 33 1300 82 1349 C135 1402 209 1432 287 1432 C368 1432 438 1400 489 1348 C539 1297 571 1226 571 1144 C571 1068 543 997 489 941 C433 883 361 856 287 856 C205 856 134 889 84 939 C29 994 0 1066 0 1144 L0 1144 Z M284 1270 C250 1270 221 1258 198 1235 C174 1211 162 1182 162 1147 C162 1112 174 1081 198 1056 C222 1031 251 1018 285 1018 C319 1018 348 1031 373 1057 C400 1085 410 1114 410 1146 C410 1181 398 1208 373 1233 C348 1258 318 1270 284 1270 L284 1270 Z M45 290 C45 373 74 438 128 492 C183 547 250 575 329 575 C408 575 478 547 533 492 C586 439 616 370 616 288 C616 211 590 144 532 85 C476 28 409 0 330 0 C251 0 183 28 128 84 C73 140 45 208 45 290 L45 290 Z M330 414 C296 414 267 402 243 378 C219 354 207 325 207 291 C207 256 219 225 243 200 C267 175 296 162 330 162 C364 162 393 175 418 201 C445 229 455 258 455 290 C455 325 443 352 418 377 C393 402 363 414 330 414 L330 414 Z M35 664 L1079 1079 L1118 985 L72 565 L35 664 L35 664 Z " />
<glyph glyph-name="guilsinglleft" unicode="&#x2039;" horiz-adv-x="1233" d="M815 1059 L815 821 L539 600 L815 379 L815 141 L346 535 L346 666 L815 1059 L815 1059 Z " />
<glyph glyph-name="guilsinglright" unicode="&#x203a;" horiz-adv-x="1233" d="M420 1059 L889 666 L889 535 L420 141 L420 379 L698 600 L420 821 L420 1059 L420 1059 Z " />
<glyph glyph-name="Euro" unicode="&#x20ac;" horiz-adv-x="1233" d="M90 1010 L209 1010 C238 1177 302 1303 399 1390 C496 1477 624 1520 778 1520 C836 1520 887 1514 936 1502 C985 1490 1032 1472 1077 1448 L1077 1120 C1028 1172 980 1210 933 1234 C886 1258 837 1270 786 1270 C710 1270 651 1244 609 1205 C566 1165 530 1101 508 1010 L950 1010 L866 821 L484 821 C483 810 482 799 482 787 C482 782 481 780 481 744 C481 707 482 707 482 703 C482 692 482 681 483 670 L799 670 L715 483 L508 483 C524 398 556 334 604 289 C654 242 713 221 783 221 C836 221 886 233 933 257 C980 281 1028 319 1077 371 L1077 43 C1033 19 987 1 938 -11 C889 -23 836 -29 779 -29 C623 -29 496 15 399 102 C302 189 238 316 209 483 L6 483 L90 670 L186 670 C185 679 185 689 185 700 C185 703 184 704 184 745 C184 786 185 786 185 790 C185 801 185 811 186 821 L6 821 L90 1010 L90 1010 Z " />
<glyph glyph-name="trademark" unicode="&#x2122;" horiz-adv-x="1233" d="M729 1493 L829 1266 L918 1493 L1126 1493 L1126 915 L973 915 L973 1352 L866 1096 L791 1096 L674 1352 L674 915 L522 915 L522 1493 L729 1493 L729 1493 Z M438 1493 L438 1360 L297 1360 L297 915 L141 915 L141 1360 L0 1360 L0 1493 L438 1493 L438 1493 Z " />
<glyph glyph-name="partialdiff" unicode="&#x2202;" horiz-adv-x="1233" d="M831 662 C846 738 854 802 860 851 C867 910 870 964 870 1006 C870 1074 862 1126 845 1164 C827 1204 802 1221 775 1221 C735 1221 682 1185 629 1148 C564 1103 515 1075 469 1075 C441 1075 417 1085 398 1105 C379 1125 369 1150 369 1176 C369 1218 395 1259 455 1296 C512 1331 581 1350 661 1350 C798 1350 899 1294 975 1189 C1053 1081 1092 940 1092 750 C1092 538 1043 348 935 196 C832 51 700 -25 538 -25 C419 -25 328 16 256 90 C182 166 145 261 145 384 C145 511 184 623 262 711 C339 798 434 842 550 842 C616 842 674 828 719 799 C764 770 801 724 831 662 L831 662 Z M770 507 C770 588 760 652 732 696 C706 737 669 758 622 758 C554 758 498 713 454 624 C411 537 387 424 387 294 C387 199 400 146 425 106 C451 65 488 45 535 45 C602 45 659 87 704 179 C748 268 770 387 770 507 L770 507 Z " />
<glyph glyph-name="Delta" unicode="&#x2206;" horiz-adv-x="1233" d="M891 221 L616 1042 L342 221 L891 221 L891 221 Z M487 1423 L745 1423 L1241 0 L-6 0 L487 1423 L487 1423 Z " />
<glyph glyph-name="product" unicode="&#x220f;" horiz-adv-x="1233" d="M1081 1518 L1081 -436 L825 -436 L825 1311 L408 1311 L408 -436 L152 -436 L152 1518 L1081 1518 L1081 1518 Z " />
<glyph glyph-name="summation" unicode="&#x2211;" horiz-adv-x="1233" d="M621 569 L127 1378 L127 1518 L1087 1518 L1087 1305 L440 1305 L889 569 L438 -225 L1104 -225 L1104 -436 L127 -436 L127 -301 L621 569 L621 569 Z " />
<glyph glyph-name="minus" unicode="&#x2212;" horiz-adv-x="1233" d="M66 762 L1165 762 L1165 524 L66 524 L66 762 L66 762 Z " />
<glyph glyph-name="fraction" unicode="&#x2215;" horiz-adv-x="1233" d="M899 1493 L1120 1493 L334 -190 L113 -190 L899 1493 L899 1493 Z " />
<glyph glyph-name="periodcentered" unicode="&#x2219;" horiz-adv-x="1233" d="M449 895 L782 895 L782 530 L449 530 L449 895 L449 895 Z " />
<glyph glyph-name="radical" unicode="&#x221a;" horiz-adv-x="1233" d="M113 670 L49 868 L401 991 L571 410 L958 1726 L1174 1726 L1174 1518 L1122 1518 L662 -39 L475 -39 L256 721 L113 670 L113 670 Z " />
<glyph glyph-name="infinity" unicode="&#x221e;" horiz-adv-x="1233" d="M725 629 C760 545 786 499 813 468 C840 437 870 422 903 422 C941 422 975 443 999 480 C1024 519 1036 573 1036 635 C1036 695 1025 747 1003 785 C982 821 951 842 912 842 C876 842 841 824 808 787 C775 750 748 698 725 629 L725 629 Z M506 635 C470 718 440 773 415 801 C389 830 359 842 329 842 C289 842 255 819 233 785 C209 748 195 693 195 628 C195 571 206 517 229 478 C251 441 281 422 319 422 C354 422 388 439 419 474 C450 509 479 562 506 635 L506 635 Z M616 831 C646 902 684 955 731 989 C778 1023 834 1040 901 1040 C998 1040 1076 1003 1134 928 C1192 853 1221 753 1221 633 C1221 511 1191 415 1131 338 C1071 261 995 223 904 223 C845 223 793 239 748 272 C704 304 659 357 616 428 C579 359 537 308 490 274 C443 240 391 223 331 223 C241 223 164 262 103 339 C42 416 12 511 12 634 C12 754 41 855 99 929 C159 1006 237 1040 328 1040 C392 1040 446 1023 494 988 C542 953 583 901 616 831 L616 831 Z " />
<glyph glyph-name="integral" unicode="&#x222b;" horiz-adv-x="1233" d="M365 -252 C434 -252 472 -44 485 387 C489 522 487 447 492 599 C504 947 543 1178 616 1330 C685 1474 788 1554 941 1554 C1009 1554 1060 1538 1100 1505 C1136 1475 1159 1431 1159 1378 C1159 1334 1143 1300 1121 1279 C1096 1255 1059 1243 1021 1243 C990 1243 966 1251 945 1267 C924 1283 910 1306 903 1336 C898 1356 898 1368 896 1390 C894 1410 890 1436 867 1436 C799 1436 761 1217 747 802 C745 749 746 742 741 624 C731 377 726 295 710 181 C697 90 681 7 652 -70 C614 -171 561 -246 502 -296 C442 -347 370 -373 290 -373 C222 -373 167 -354 131 -324 C97 -296 72 -252 72 -196 C72 -156 85 -123 111 -98 C137 -73 171 -61 210 -61 C247 -61 278 -72 301 -92 C326 -114 335 -141 336 -164 C337 -224 338 -229 342 -237 C346 -246 353 -252 365 -252 L365 -252 Z " />
<glyph glyph-name="approxequal" unicode="&#x2248;" horiz-adv-x="1233" d="M1145 602 L1145 369 C1095 329 1048 301 999 282 C951 263 900 254 850 254 C775 254 718 274 645 305 C615 318 616 317 612 319 C561 342 518 357 484 365 C449 373 415 377 381 377 C329 377 280 367 233 348 C194 332 142 303 88 256 L88 485 C140 526 190 555 239 573 C288 591 342 600 391 600 C461 600 534 582 621 545 L622 545 C627 543 638 538 653 531 C727 497 796 477 864 477 C915 477 958 488 1003 508 C1053 530 1096 559 1145 602 L1145 602 Z M1145 1020 L1145 786 C1095 747 1048 719 999 700 C951 681 900 672 850 672 C775 672 718 692 645 723 C615 736 616 735 612 737 C561 760 518 775 484 783 C449 791 415 795 381 795 C329 795 280 785 233 766 C194 750 142 721 88 674 L88 903 C141 944 194 974 239 991 C287 1009 343 1018 392 1018 C461 1018 534 1000 621 963 L622 963 C629 960 639 955 652 949 C730 913 801 895 864 895 C911 895 958 905 1003 925 C1048 945 1096 977 1145 1020 L1145 1020 Z " />
<glyph glyph-name="notequal" unicode="&#x2260;" horiz-adv-x="1233" d="M78 987 L737 987 L989 1292 L1139 1167 L993 987 L1155 987 L1155 752 L840 752 L666 532 L1155 532 L1155 295 L496 295 L244 -10 L94 117 L240 295 L78 295 L78 532 L399 532 L575 752 L78 752 L78 987 L78 987 Z " />
<glyph glyph-name="lessequal" unicode="&#x2264;" horiz-adv-x="1233" d="M1145 948 L406 739 L1145 530 L1145 287 L88 623 L88 858 L1145 1192 L1145 948 L1145 948 Z M1145 238 L1145 0 L88 0 L88 238 L1145 238 L1145 238 Z " />
<glyph glyph-name="greaterequal" unicode="&#x2265;" horiz-adv-x="1233" d="M88 948 L88 1192 L1145 858 L1145 623 L88 287 L88 530 L827 739 L88 948 L88 948 Z M88 238 L1145 238 L1145 0 L88 0 L88 238 L88 238 Z " />
<glyph glyph-name="lozenge" unicode="&#x25ca;" horiz-adv-x="1233" d="M616 1409 L231 592 L616 -233 L1001 592 L616 1409 L616 1409 Z M616 1653 L1116 592 L616 -477 L117 592 L616 1653 L616 1653 Z " />
<glyph glyph-name="fi" unicode="&#xfb01;" horiz-adv-x="1233" d="M805 1556 L1098 1556 L1098 1264 L805 1264 L805 1556 L805 1556 Z M494 1219 L494 1120 L1098 1120 L1098 0 L805 0 L805 895 L494 895 L494 0 L201 0 L201 895 L12 895 L12 1120 L201 1120 L201 1198 C201 1333 229 1426 285 1478 C337 1526 431 1556 596 1556 L676 1556 L676 1331 L608 1331 C564 1331 534 1323 519 1307 C503 1291 494 1257 494 1219 L494 1219 Z " />
<glyph glyph-name="fl" unicode="&#xfb02;" horiz-adv-x="1233" d="M494 1219 L494 1120 L682 1120 L682 895 L494 895 L494 0 L201 0 L201 895 L12 895 L12 1120 L201 1120 L201 1198 C201 1333 229 1426 285 1478 C337 1526 431 1556 596 1556 L1098 1556 L1098 0 L805 0 L805 1331 L608 1331 C564 1331 534 1323 519 1307 C503 1291 494 1257 494 1219 L494 1219 Z " />
</font>
</svg>
