<?xml version="1.0" standalone="no"?>
<!DOCTYPE svg PUBLIC "-//W3C//DTD SVG 1.1//EN" "http://www.w3.org/Graphics/SVG/1.1/DTD/svg11.dtd" >
<svg xmlns="http://www.w3.org/2000/svg" xmlns:xlink="http://www.w3.org/1999/xlink" version="1.1">
<metadata></metadata>
<defs>
<font id="hackbold" horiz-adv-x="1233" >
<font-face units-per-em="2048" ascent="1638" descent="-410" />
<missing-glyph horiz-adv-x="500" />
<glyph unicode="&#xd;" />
<glyph horiz-adv-x="0" />
<glyph horiz-adv-x="0" />
<glyph unicode=" " />
<glyph unicode="!" d="M470 1052v456h285v-456l-68 -576h-139zM615 -72q-38 0 -69.5 14t-54.5 37q-50 50 -50 134q0 82 50 131q11 11 14 13.5t7 6.5q4 3 10 7t13 7q2 1 10.5 4.5t14.5 5.5l26 6q6 1 14.5 1.5t16.5 0.5q34 0 66.5 -13t56.5 -38q25 -25 37 -58.5t12 -74.5q0 -24 -5 -49 q-2 -13 -5.5 -22t-11.5 -23q-6 -11 -11 -18t-17 -20q-14 -15 -26.5 -23.5t-29.5 -15.5q-17 -8 -34 -10.5t-34 -2.5z" />
<glyph unicode="&#x22;" d="M231 1493h256v-555h-256v555zM743 1493h256v-555h-256v555z" />
<glyph unicode="#" d="M209 373h-207v215h260l74 293h-219v215h274l94 374h222l-95 -374h203l94 374h224l-97 -374h193v-215h-246l-74 -293h205v-215h-258l-94 -373h-221l94 373h-205l-94 -373h-221zM688 588l74 293h-205l-74 -293h205z" />
<glyph unicode="$" d="M552 0q-85 3 -182 26q-95 22 -198 66v262q103 -61 200 -94q51 -17 95 -25t86 -9v329q-197 39 -293 135q-96 94 -96 253q0 166 102 265t287 111v237h141l1 -237q72 -5 148 -18q34 -6 72.5 -15.5t83.5 -23.5v-256q-33 22 -68.5 37.5t-69.5 26.5q-39 12 -80 19.5t-87 10.5 v-307q199 -32 298 -134q51 -52 75.5 -121t24.5 -152q0 -86 -27 -152.5t-81 -119.5q-61 -59 -134.5 -84t-154.5 -30l-1 -301h-141zM553 1100q-61 -7 -93 -41q-14 -14 -23 -37t-9 -55q0 -57 32 -95q33 -39 93 -55v283zM694 226q36 5 59 18t39 31q35 40 35 101t-34 101 q-16 18 -40 31t-59 20v-302z" />
<glyph unicode="%" d="M352 793q-133 0 -226 93q-45 45 -69 100.5t-24 125.5q0 134 93 227t226 93q69 0 125.5 -24t101.5 -69t69 -101.5t24 -125.5q0 -133 -93 -226q-45 -45 -101.5 -69t-125.5 -24zM352 975q58 0 98 40q39 39 39 97q0 57 -40 97t-97 40t-97 -39q-40 -40 -40 -98q0 -33 11 -56 t29 -41q40 -40 97 -40zM48 561l1143 436v-114l-1139 -432zM898 0q-71 0 -129 26.5t-97 65.5q-48 48 -70 107.5t-22 121.5q0 63 23 120.5t69 104.5q43 44 100.5 68.5t125.5 24.5t125 -24t102 -68q43 -42 68.5 -100t25.5 -127q0 -65 -24 -123.5t-69 -103.5q-42 -42 -101 -67.5 t-127 -25.5zM898 182q58 0 98 40t40 97t-41 98q-20 20 -45 30t-52 10q-57 0 -97 -40q-20 -20 -29.5 -45.5t-9.5 -52.5q0 -30 11 -55.5t28 -42.5q39 -39 97 -39z" />
<glyph unicode="&#x26;" d="M537 -29q-221 0 -361 131q-139 130 -139 340q0 78 18 142t53 122q36 60 87.5 111t121.5 96q-27 43 -45 79t-29 66q-12 33 -18 64.5t-6 66.5q0 76 27 138t82 106q109 87 315 87q38 0 73 -3t70 -8q40 -6 71.5 -13.5t66.5 -18.5v-256q-28 16 -64 31.5t-65 23.5t-63.5 13 t-68.5 5q-38 0 -69 -7t-51 -21q-41 -29 -41 -80q0 -20 7 -43.5t24 -57.5q16 -32 39 -71t59 -94l313 -480q22 39 32 87q11 52 11 106q0 14 -0.5 30t-1.5 29q-1 15 -2 25.5t-4 27.5h235v-51q0 -147 -34 -253q-35 -111 -107 -195l162 -246h-317l-48 72q-39 -26 -77 -43.5 t-82 -31.5q-42 -13 -83 -19.5t-91 -6.5zM580 207q15 0 27 1.5t29 5.5q14 3 26.5 6.5t30.5 11.5l8 4q10 5 16.5 8.5t11 6l9 5t10.5 6.5l-308 469q-66 -44 -99 -102q-34 -59 -34 -135q0 -66 22 -116.5t56 -86.5q79 -84 195 -84z" />
<glyph unicode="'" d="M487 1493h256v-555h-256v555z" />
<glyph unicode="(" d="M596 -270q-74 107 -134 220.5t-102 235.5q-77 225 -77 457q0 231 78 458q38 110 94.5 221t140.5 232h228q-64 -116 -113.5 -232t-82.5 -231q-64 -222 -64 -448q0 -224 64 -447q65 -227 196 -466h-228v0z" />
<glyph unicode=")" d="M409 -270q131 239 196 466q64 223 64 447q0 226 -64 448q-32 110 -80.5 226t-115.5 237h228q159 -229 236 -453q39 -114 58 -230.5t19 -229.5q0 -230 -77 -455q-40 -117 -98.5 -229t-137.5 -227h-228v0z" />
<glyph unicode="*" d="M216 560l239 366l-358 155l51 148l369 -120l19 416h156l19 -416l369 120l51 -148l-358 -155l239 -366l-133 -95l-265 350l-265 -350z" />
<glyph unicode="+" d="M498 524h-432v238h432v430h237v-430h430v-238h-430v-432h-237v432z" />
<glyph unicode="," d="M380 -275l14 6q102 44 168 121t74 182q-7 -1 -12.5 -1.5t-14.5 -0.5q-32 0 -62.5 10.5t-54.5 32.5q-23 20 -36 49t-13 72q0 14 1.5 25.5t4.5 22.5q4 14 8.5 24t8.5 17t11 16.5t17 17.5q14 12 27 20t30 14q15 5 31 8t36 3q17 0 30.5 -2t27.5 -6q27 -8 50 -25q12 -9 21 -19 t17 -23q25 -35 37 -85t12 -111q0 -88 -24 -164q-11 -35 -28 -70t-43 -70q-49 -67 -115.5 -112.5t-151.5 -77.5l-13 -5z" />
<glyph unicode="-" d="M221 746h791v-291h-791v291z" />
<glyph unicode="." d="M612 -42q-39 0 -69 13.5t-55 38.5q-52 52 -52 131q0 82 52 134q51 51 125 51q36 0 68 -12.5t58 -38.5q51 -51 51 -134q0 -80 -51 -131q-52 -52 -127 -52z" />
<glyph unicode="/" d="M899 1493h221l-786 -1683h-221z" />
<glyph unicode="0" d="M617 -29q-248 0 -371 194q-123 193 -123 580q0 388 123 582q123 193 370 193q248 0 371 -193q123 -194 123 -582t-123 -581t-370 -193zM616 221q103 0 150 125q47 126 47 399q0 274 -47 400q-47 125 -150 125q-102 0 -149 -125q-47 -126 -47 -400q0 -273 47 -399 q47 -125 149 -125zM617 460q-8 0 -14.5 10t-11.5 26.5t-8.5 37.5t-6.5 44q-2 19 -4.5 43t-4 48t-2.5 45t-1 35q0 10 0.5 28.5t2 41.5t3 48t4.5 48q13 117 41 117q15 0 26 -33.5t17 -85.5q2 -21 4 -45t3.5 -47t2.5 -44t1 -34q0 -9 -0.5 -26t-1.5 -39.5t-2.5 -48t-4.5 -50.5 q-7 -60 -18 -89.5t-25 -29.5z" />
<glyph unicode="1" d="M188 260h330v969l-307 -76v266l309 74h285v-1233h330v-260h-947v260z" />
<glyph unicode="2" d="M115 216q0 19 6 33.5t19 28.5l135 144q84 90 140 149.5t94.5 101t63.5 69.5t48 54q37 43 64 78.5t44 72.5q33 67 33 135q0 45 -14.5 84.5t-45.5 67.5t-75 41t-97 13q-81 0 -177 -31q-98 -31 -206 -92v275q60 22 114 37t96 23q50 10 100 15t100 5q109 0 203.5 -26.5 t165.5 -83.5q64 -52 99.5 -127t35.5 -179q0 -44 -7 -82t-23 -79q-17 -42 -42.5 -85.5t-58.5 -85.5q-18 -22 -42.5 -49.5t-59.5 -64t-81.5 -84t-107.5 -108.5q-55 -56 -91.5 -87.5t-62 -51t-44 -33.5t-37.5 -34h659v-260h-948v216z" />
<glyph unicode="3" d="M555 -29q-53 0 -109 4.5t-111 14.5q-51 9 -104 22.5t-106 32.5v274q46 -23 96.5 -41t106.5 -30q57 -13 112 -19t101 -6q66 0 118 13t89 42q36 29 52.5 69t16.5 88q0 51 -17.5 95t-52.5 76q-33 29 -82.5 45.5t-115.5 16.5h-158v260h158q109 0 171 44q32 23 46 54t14 69 q0 82 -60 129q-29 23 -71.5 34.5t-101.5 11.5q-39 0 -84.5 -5t-93.5 -16q-45 -10 -96 -25.5t-103 -35.5v268q105 32 203 48q51 8 98.5 12t92.5 4q238 0 369 -103q132 -104 132 -284q0 -64 -17.5 -118t-58.5 -99q-77 -86 -217 -111q160 -28 244 -127q42 -49 63 -114t21 -150 q0 -106 -34.5 -189t-103.5 -140t-171 -85.5t-236 -28.5z" />
<glyph unicode="4" d="M694 322h-592v286l566 885h309v-918h164v-253h-164v-322h-283v322zM694 575v590l-377 -590h377z" />
<glyph unicode="5" d="M533 -29q-43 0 -92 4t-98 12q-50 8 -100.5 20.5t-99.5 27.5v266q45 -22 85 -36t86 -25q45 -11 87 -16t87 -5q158 0 238 67q81 67 81 189q0 66 -22 113.5t-58 79.5t-90.5 50.5t-128.5 18.5q-35 0 -74.5 -4.5t-79.5 -14.5q-41 -10 -83.5 -26t-77.5 -33v834h811v-260h-572 v-277q10 4 32 10.5t45 10.5q18 3 43 4.5t46 1.5q106 0 199 -35.5t160 -103.5q65 -66 101 -159t36 -208q0 -119 -39 -212t-110 -158t-173 -100.5t-239 -35.5z" />
<glyph unicode="6" d="M644 -31q-131 0 -227.5 44.5t-160.5 139.5q-66 97 -95.5 241t-29.5 330q0 198 35 348.5t116 253.5q76 96 189.5 144t259.5 48q41 0 76 -3.5t73 -11.5q73 -15 150 -45v-268q-40 23 -77.5 40t-73.5 28q-72 22 -141 22q-159 0 -242 -107t-88 -318q23 32 54 57.5t66 40.5 q32 14 75.5 23t98.5 9q99 0 177.5 -31.5t132.5 -94.5q54 -62 82 -153.5t28 -210.5q0 -121 -30.5 -220.5t-92.5 -168.5q-63 -70 -152 -103.5t-203 -33.5zM643 207q45 0 83 16.5t65 53.5q51 69 51 200q0 130 -51 201q-24 33 -61 51.5t-88 18.5q-50 0 -85.5 -18t-59.5 -51 q-51 -71 -51 -201q0 -69 13.5 -119t37.5 -83q26 -36 63.5 -52.5t82.5 -16.5z" />
<glyph unicode="7" d="M758 1233h-623v260h944v-209l-506 -1284h-301z" />
<glyph unicode="8" d="M617 -29q-123 0 -212 30.5t-149 86.5q-64 59 -95.5 142t-31.5 184q0 76 18 134.5t53 107.5q71 97 197 135q-113 39 -172 123q-29 42 -44 92.5t-15 114.5q0 91 30 164t91 127q121 108 329 108t330 -108q121 -108 121 -292q0 -123 -58 -205q-58 -84 -169 -124 q122 -37 194 -136q35 -49 52.5 -107.5t17.5 -133.5q0 -101 -31.5 -184t-95.5 -142q-128 -117 -360 -117zM616 903q88 0 139 52q50 52 50 138q0 89 -50 139q-23 23 -58 36.5t-81 13.5q-86 0 -137 -51t-51 -138q0 -86 51 -138q27 -28 61 -40t76 -12zM616 209q48 0 89 15.5 t72 47.5q29 29 45 72t16 96q0 50 -15 91t-46 73q-28 29 -68 45.5t-93 16.5q-48 0 -88.5 -15t-71.5 -47q-61 -62 -61 -165q0 -51 15 -93.5t46 -74.5q27 -28 68 -45t92 -17z" />
<glyph unicode="9" d="M502 -39q-40 0 -75.5 3.5t-72.5 11.5q-38 8 -75.5 19t-75.5 25v269q40 -23 77.5 -40t74.5 -28q70 -22 140 -22q76 0 137.5 26t104.5 81q40 51 63 130t25 188q-25 -34 -53.5 -57t-66.5 -40t-79.5 -25t-92.5 -8q-100 0 -179 32t-134 96q-54 63 -81.5 153.5t-27.5 207.5 q0 122 30.5 220t91.5 167q122 137 357 137q139 0 233 -47.5t154 -135.5q68 -100 96.5 -245t28.5 -323q0 -110 -10 -200.5t-29 -164t-47 -132t-64 -104.5q-78 -100 -193 -147t-257 -47zM589 741q96 0 147 70q50 70 50 200q0 69 -13.5 119.5t-36.5 82.5q-26 35 -63 52t-84 17 q-51 0 -86.5 -18.5t-59.5 -50.5q-52 -70 -52 -201t52 -201q26 -35 61.5 -52.5t84.5 -17.5z" />
<glyph unicode=":" d="M619 701q-39 0 -70.5 14.5t-53.5 36.5q-27 27 -39.5 61t-12.5 72q0 43 14 76.5t37 56.5q26 26 59 38.5t68 12.5t67 -12.5t58 -38.5q23 -23 37 -56.5t14 -75.5t-14 -76.5t-37 -57.5t-56 -37t-71 -14zM620 -15q-74 0 -125 51q-52 52 -52 133t52 133q51 51 125 51 q36 0 68 -12.5t58 -38.5q23 -23 37 -56.5t14 -76.5q0 -42 -13.5 -75.5t-37.5 -57.5q-26 -26 -58 -38.5t-68 -12.5z" />
<glyph unicode=";" d="M609 695q-41 0 -74 15t-56 38q-29 29 -41.5 65t-12.5 75q0 45 15 80.5t38 59.5q27 26 61.5 39.5t72.5 13.5q76 0 131 -53q24 -25 38.5 -59.5t14.5 -79.5t-14.5 -80.5t-38.5 -60.5q-25 -24 -59.5 -38.5t-74.5 -14.5zM373 -346l15 7q55 23 103 57.5t80 74.5q29 36 48 83.5 t23 102.5q-10 -2 -13 -2h-10q-35 0 -69.5 11t-59.5 34q-26 23 -38.5 55.5t-12.5 72.5q0 81 54 128q14 12 28.5 20.5t31.5 15.5q14 5 32 8t39 3q23 0 45 -4.5t42 -15.5q40 -19 65 -58q14 -21 23.5 -42.5t15.5 -47.5q7 -26 10 -55t3 -61q0 -94 -25.5 -174t-73.5 -145 q-93 -129 -281 -200l-14 -5z" />
<glyph unicode="&#x3c;" d="M88 524v236l1057 416v-250l-795 -285l795 -283v-249z" />
<glyph unicode="=" d="M88 987h1057v-235h-1057v235zM88 532h1057v-237h-1057v237z" />
<glyph unicode="&#x3e;" d="M88 358l795 283l-795 285v250l1057 -416v-236l-1057 -415v249z" />
<glyph unicode="?" d="M479 583q0 83 31 152q17 37 45 74.5t73 81.5l90 89q11 11 25.5 26t25.5 29q23 27 32 44q5 8 9.5 19.5t7.5 22.5q2 6 3.5 18.5t1.5 25.5q0 8 -0.5 20t-2.5 20q-1 4 -4 15.5t-7 19.5q-4 9 -8.5 15.5t-10.5 14.5t-12 14t-15 14q-14 11 -25 17.5t-20 10.5q-5 2 -21.5 8 t-33.5 9q-30 6 -64 6q-11 0 -26 -0.5t-26 -2.5t-25 -4.5t-29 -6.5q-14 -4 -30.5 -9.5t-26.5 -9.5q-39 -15 -87 -41t-96 -60l-24 -17v225l7 5q96 58 194 87q96 28 202 28q98 0 173 -25q76 -26 135 -75q27 -23 49 -52.5t37 -64.5q29 -69 29 -149q0 -82 -36 -151 q-17 -32 -46.5 -70t-83.5 -91l-87 -86q-22 -21 -32.5 -32.5t-22.5 -25.5q-10 -12 -17.5 -24.5t-12.5 -20.5q-8 -16 -13 -38t-5 -39v-142h-220v126zM592 -50q-67 0 -114 47t-47 120q0 37 12 68t35 54q24 23 54 34t60 11q16 0 33 -3q4 -1 12.5 -3t16.5 -6q7 -3 15 -7.5 t12 -6.5t10.5 -7.5t14.5 -13.5q10 -10 19 -23t16 -30q12 -30 12 -66q0 -74 -47 -121t-114 -47z" />
<glyph unicode="@" d="M767 -319q-171 0 -309.5 58t-243.5 175q-208 232 -208 632q0 192 46.5 346t140.5 271t217.5 174.5t272.5 57.5q118 0 204 -34t146 -97q126 -132 126 -359v-770h-196v82q-22 -30 -44 -48t-45 -29q-51 -25 -125 -25q-163 0 -263 118q-101 119 -101 313q0 99 25.5 176 t74.5 134q100 117 263 117q34 0 66.5 -5.5t60.5 -18.5q26 -12 49 -31t39 -41v41q0 136 -74 210q-76 74 -210 74q-108 0 -194.5 -47.5t-148.5 -134.5q-61 -85 -96 -206t-35 -270q0 -161 41 -284t110 -206q78 -93 182 -137t219 -44q40 0 81 5.5t79 17.5q36 11 72.5 29.5 t71.5 41.5l92 -176q-42 -29 -88 -50t-88 -33q-44 -13 -96.5 -20t-113.5 -7zM782 303q89 0 140 64t51 178q0 112 -51 177q-51 64 -140 64q-50 0 -83 -17.5t-56 -46.5q-51 -65 -51 -177q0 -114 51 -178q23 -29 56 -46.5t83 -17.5z" />
<glyph unicode="A" d="M436 1493h361l403 -1493h-295l-92 369h-395l-90 -369h-295zM756 612l-140 611l-139 -611h279z" />
<glyph unicode="B" d="M125 1495h481q250 0 375 -94q125 -95 125 -283q0 -143 -74 -225q-73 -80 -217 -94q88 -8 152 -37.5t106 -77.5q86 -98 86 -275q0 -215 -130 -312t-423 -97h-481v1495zM606 913q60 0 98 10t62 31q23 20 35 50.5t12 80.5q0 44 -11 77t-37 56q-21 18 -57.5 30t-101.5 12 h-196v-347h196zM606 236q141 0 198 48q56 48 56 167q0 121 -59 174t-195 53h-196v-442h196z" />
<glyph unicode="C" d="M759 -29q-149 0 -264 49.5t-195 149.5q-159 199 -159 575t159 576q80 100 195 149.5t264 49.5q45 0 85.5 -4.5t79.5 -13.5q79 -18 146 -54v-328q-45 42 -80.5 65.5t-67.5 37.5q-38 17 -74.5 24.5t-73.5 7.5q-160 0 -243 -128q-83 -130 -83 -382t83 -380q82 -129 243 -129 q77 0 149 33q35 16 69.5 39.5t77.5 62.5v-328q-71 -36 -147 -54q-38 -9 -78.5 -13.5t-85.5 -4.5z" />
<glyph unicode="D" d="M137 1493h316q366 0 527 -174q79 -86 120 -227.5t41 -344.5q0 -395 -161 -571t-527 -176h-316v1493zM512 266q174 0 248 110t74 372q0 260 -74 370q-73 109 -248 109h-80v-961h80z" />
<glyph unicode="E" d="M168 1493h930v-260h-635v-322h575v-260h-575v-391h635v-260h-930v1493z" />
<glyph unicode="F" d="M182 1493h930v-260h-635v-332h578v-260h-578v-641h-295v1493z" />
<glyph unicode="G" d="M720 -29q-143 0 -255 50.5t-190 150.5q-75 96 -116.5 238t-41.5 337q0 186 39.5 330t120.5 244q160 199 455 199q51 0 94.5 -6t87.5 -19q85 -25 163 -74v-327q-62 80 -142 121q-80 40 -176 40q-170 0 -252 -126q-83 -128 -83 -382q0 -125 20 -220.5t60 -161.5 q38 -62 95.5 -95.5t138.5 -33.5q20 0 41 2t38 7q22 5 33 11t22 14v285h-202v248h460v-684q-84 -72 -187 -110q-52 -19 -106 -28.5t-117 -9.5z" />
<glyph unicode="H" d="M137 1493h295v-569h369v569h295v-1493h-295v664h-369v-664h-295v1493z" />
<glyph unicode="I" d="M172 260h297v973h-297v260h889v-260h-297v-973h297v-260h-889v260z" />
<glyph unicode="J" d="M524 -29q-58 0 -106 6.5t-100 19.5q-51 13 -102 31.5t-107 45.5v342q43 -45 89 -78t95 -56q96 -46 197 -46q115 0 169 58t54 185v754h-361v260h656v-1014q0 -273 -114 -390q-58 -60 -153.5 -89t-216.5 -29z" />
<glyph unicode="K" d="M117 1493h295v-590l462 590h334l-471 -588l488 -905h-328l-354 672l-131 -166v-506h-295v1493z" />
<glyph unicode="L" d="M225 1493h295v-1233h631v-260h-926v1493z" />
<glyph unicode="M" d="M86 1493h352l178 -655l177 655h354v-1493h-254v1196l-158 -653h-235l-160 653v-1196h-254v1493z" />
<glyph unicode="N" d="M119 1493h317l416 -1085v1085h260v-1493h-315l-418 1085v-1085h-260v1493z" />
<glyph unicode="O" d="M616 -29q-135 0 -231.5 50.5t-159.5 144.5q-133 197 -133 579q0 191 33 335.5t100 244.5q69 102 169 148.5t222 46.5q131 0 229 -49.5t164 -146.5q132 -197 132 -579t-132 -578q-64 -95 -161.5 -145.5t-231.5 -50.5zM616 236q114 0 166 121q52 119 52 389q0 269 -52 388 q-52 121 -166 121q-59 0 -99 -30.5t-66 -90.5q-52 -119 -52 -388q0 -270 52 -389q52 -121 165 -121z" />
<glyph unicode="P" d="M166 1493h405q308 0 445 -110q135 -110 135 -357q0 -248 -135 -357q-137 -110 -445 -110h-110v-559h-295v1493zM582 807q146 0 204 49t58 170t-58 170t-204 49h-121v-438h121z" />
<glyph unicode="Q" d="M656 -23l-23 -5q-5 -1 -7 -1h-4q-137 0 -234.5 50.5t-162.5 145.5q-133 196 -133 577q0 192 33 336.5t100 244.5q70 103 169.5 149t221.5 46q131 0 229 -49.5t164 -146.5q132 -197 132 -579q0 -263 -63 -440t-183 -254l286 -332h-342zM616 236q114 0 166 121 q52 119 52 389q0 269 -52 388q-52 121 -166 121q-59 0 -99 -30.5t-66 -90.5q-52 -119 -52 -388q0 -270 52 -389q52 -121 165 -121z" />
<glyph unicode="R" d="M133 1493h426q288 0 414 -102q63 -51 94 -134.5t31 -192.5q0 -84 -18.5 -144t-56.5 -106q-36 -44 -88.5 -71.5t-127.5 -37.5q23 -5 43 -16t34 -25q15 -15 34.5 -46t44.5 -81l270 -537h-324l-180 377l-21 44q-42 86 -86 127.5t-100 41.5h-94v-590h-295v1493zM567 838 q121 0 174 48q24 22 38 59t14 97q0 110 -52 156q-53 47 -174 47h-139v-407h139z" />
<glyph unicode="S" d="M582 -29q-60 0 -117 6t-114 20q-114 27 -216 79v305q62 -44 117 -74t112 -51q111 -41 216 -41q57 0 99 12.5t72 37.5q60 49 60 138q0 68 -40 118q-21 26 -50.5 45.5t-65.5 33.5l-145 55q-115 44 -189 88.5t-113 90.5q-79 92 -79 251q0 204 130 319q131 116 356 116 q54 0 107 -6t100 -17t99.5 -28.5t104.5 -41.5v-288q-94 67 -193 102t-195 35q-107 0 -163 -43q-57 -44 -57 -122q0 -63 42 -103q20 -20 59.5 -41t113.5 -49l127 -48q181 -68 265 -174q85 -109 85 -281q0 -221 -134 -332q-135 -112 -394 -112z" />
<glyph unicode="T" d="M469 1235h-379v258h1053v-258h-379v-1235h-295v1235z" />
<glyph unicode="U" d="M616 -29q-267 0 -388 138q-122 139 -122 442v942h295v-1016q0 -57 15 -101.5t42 -74.5q29 -32 69.5 -47.5t88.5 -15.5t88.5 15.5t69.5 47.5q27 30 42 74.5t15 101.5v1016h295v-942q0 -305 -121 -442q-122 -138 -389 -138z" />
<glyph unicode="V" d="M57 1493h297l262 -1247l263 1247h297l-355 -1493h-409z" />
<glyph unicode="W" d="M0 1493h258l107 -1096l129 709h245l150 -709l84 1096h260l-172 -1493h-275l-170 784l-159 -784h-273z" />
<glyph unicode="X" d="M465 758l-426 735h305l272 -475l273 475h305l-424 -735l436 -758h-305l-285 494l-284 -494h-305z" />
<glyph unicode="Y" d="M469 588l-461 905h318l290 -600l291 600h318l-461 -905v-588h-295v588z" />
<glyph unicode="Z" d="M94 244l671 989h-649v260h1010v-244l-692 -989h706v-260h-1046v244z" />
<glyph unicode="[" d="M384 1636h503v-190h-238v-1531h238v-185h-503v1906z" />
<glyph unicode="\" d="M111 1493h223l786 -1683h-223z" />
<glyph unicode="]" d="M344 -83h243v1528h-243v190h505v-1905h-505v187z" />
<glyph unicode="^" d="M494 1493h245l437 -557h-242l-318 301l-317 -301h-242z" />
<glyph unicode="_" d="M0 -293h1233v-190h-1233v190z" />
<glyph unicode="`" d="M199 1638h282l283 -376h-197z" />
<glyph unicode="a" d="M494 -29q-91 0 -164.5 25t-127.5 76q-107 101 -107 282q0 96 30.5 169t96.5 121q127 93 393 93h203v49q0 37 -13.5 64t-37.5 44q-26 19 -65.5 27.5t-91.5 8.5q-48 0 -98.5 -6.5t-99.5 -19.5q-48 -13 -100 -34.5t-106 -50.5v250q42 17 94.5 33.5t102.5 25.5q41 8 100 14 t125 6q70 0 126.5 -8t102 -23t80 -36t60.5 -46q27 -27 48 -62t35.5 -82.5t21.5 -108t7 -138.5q0 -19 -0.5 -50t-1 -68t-1 -76.5t-1 -74.5t-1 -62t-0.5 -39q0 -21 0.5 -42t1.5 -35q2 -20 3.5 -39.5t3.5 -32.5q3 -20 7 -38.5t7 -28.5q5 -15 12.5 -31t15.5 -27h-290 q-9 15 -16.5 31t-11.5 27q-3 10 -7 28.5t-6 38.5q-55 -73 -142 -114q-42 -20 -86.5 -30t-101.5 -10zM576 174q56 0 101 21.5t77 66.5q64 86 64 244v20h-117q-165 0 -229 -42q-65 -42 -65 -142q0 -41 11 -70.5t34 -52.5q45 -45 124 -45z" />
<glyph unicode="b" d="M740 -29q-103 0 -177 49q-75 49 -121 146l-29 -166h-263v1556h292v-595q54 94 126 140q35 23 75.5 34.5t91.5 11.5q96 0 172 -38.5t129 -113.5q51 -72 79 -180.5t28 -254.5q0 -137 -26 -247.5t-80 -188.5q-54 -77 -128.5 -115t-168.5 -38zM647 211q95 0 149 92 q54 91 54 254q0 162 -54 254t-149 92q-94 0 -150 -92q-55 -91 -55 -254t55 -254q56 -92 150 -92z" />
<glyph unicode="c" d="M702 -29q-263 0 -408 156q-146 157 -146 432q0 276 147 434q147 156 404 156q92 0 176 -21q83 -21 166 -65v-268q-32 28 -68.5 49.5t-71.5 35.5t-76 21.5t-84 7.5q-75 0 -128.5 -23.5t-90.5 -67.5q-77 -92 -77 -259t77 -258q76 -90 220 -90q84 0 159 29q32 12 68.5 33 t71.5 53v-269q-40 -23 -78.5 -38t-80.5 -26t-85 -16.5t-95 -5.5z" />
<glyph unicode="d" d="M492 -29q-93 0 -167.5 38t-128.5 115q-106 153 -106 436t108 435q51 72 126 112t174 40q48 0 89 -10.5t79 -35.5q71 -47 125 -140v595h292v-1556h-263l-29 166q-23 -49 -54 -85.5t-67 -60.5q-74 -49 -178 -49zM586 211q94 0 150 92q55 91 55 254t-55 254q-56 92 -150 92 q-95 0 -149 -92t-54 -254q0 -163 54 -254q54 -92 149 -92z" />
<glyph unicode="e" d="M665 -29q-146 0 -252.5 37.5t-181.5 113.5q-149 152 -149 432q0 140 35.5 247t107.5 187q142 159 392 159q118 0 216 -35.5t169 -111.5t104 -181.5t33 -234.5v-119h-759q2 -133 78 -197q77 -65 229 -65q101 0 200 29q46 14 97 36t108 56v-269q-102 -42 -208 -63 q-54 -11 -109.5 -16t-109.5 -5zM844 685q-2 117 -59 176q-27 28 -69.5 43.5t-98.5 15.5q-103 0 -163 -61q-60 -62 -71 -175z" />
<glyph unicode="f" d="M426 895h-272v225h272v78q0 202 84 280t312 78h241v-225h-229q-67 0 -89 -24q-12 -12 -19 -36t-7 -53v-98h344v-225h-344v-895h-293v895z" />
<glyph unicode="g" d="M578 -424q-44 0 -89.5 3t-90.5 10q-90 13 -183 42v269q42 -23 85 -40t84 -28q43 -11 87 -16.5t85 -5.5q68 0 113.5 14.5t74.5 43.5q59 59 59 183v121q-44 -80 -114 -119q-71 -39 -172 -39q-194 0 -306 150q-57 75 -85 176.5t-28 232.5q0 263 113 420q57 78 132 117 t169 39q98 0 173 -45t118 -127l29 143h264v-1036q0 -269 -121 -389q-122 -119 -397 -119zM596 246q93 0 150 91q28 45 42.5 103.5t14.5 136.5q0 74 -14 134.5t-43 107.5q-57 90 -150 90q-92 0 -148 -90q-57 -90 -57 -241q0 -152 57 -242q56 -90 148 -90z" />
<glyph unicode="h" d="M172 1556h291v-604q32 93 106 144q75 51 182 51q158 0 239 -105q81 -107 81 -315v-727h-291v682q0 121 -34 173q-17 26 -45.5 39t-65.5 13q-82 0 -127 -70q-45 -71 -45 -196v-641h-291v1556z" />
<glyph unicode="i" d="M451 1253q-30 0 -30 30v282q0 30 30 30h233q30 0 30 -30v-282q0 -30 -30 -30h-233zM812 -12q-209 0 -300 108q-91 107 -91 359v440h-237v225h530v-665q0 -131 41 -187q40 -55 139 -55h234v-225h-316z" />
<glyph unicode="j" d="M614 1253q-30 0 -30 30v282q0 30 30 30h233q30 0 30 -30v-282q0 -30 -30 -30h-233zM170 -199h234q99 0 139 55q41 56 41 187v852h-297v225h590v-1077q0 -252 -90 -360q-44 -52 -119 -79.5t-182 -27.5h-316v225z" />
<glyph unicode="k" d="M174 1556h293v-817l352 381h355l-424 -418l448 -702h-324l-307 524l-100 -96v-428h-293v1556z" />
<glyph unicode="l" d="M788 -8q-209 0 -300 108q-91 107 -91 359v872h-297v225h590v-1097q0 -131 41 -187q40 -55 139 -55h234v-225h-316v0z" />
<glyph unicode="m" d="M82 1120h184l29 -116q26 67 80 105q25 17 56.5 27.5t67.5 10.5q68 0 123 -40q56 -41 68 -99q33 70 84 105q50 34 128 34q73 0 122.5 -26t75.5 -74q29 -53 42 -156.5t13 -259.5v-631h-240v719q0 66 -4.5 105t-14.5 61q-19 43 -69 43q-29 0 -45 -12t-25 -32 q-10 -21 -15 -61.5t-5 -103.5v-719h-237v719q0 121 -20 166q-19 43 -70 43q-50 0 -69 -42q-19 -41 -19 -167v-719h-240v1120z" />
<glyph unicode="n" d="M172 1120h262l29 -168q32 93 106 144q75 51 182 51q158 0 239 -105q81 -107 81 -315v-727h-291v682q0 123 -34 175q-17 26 -45.5 39t-64.5 13q-43 0 -73.5 -18t-53.5 -53q-22 -34 -34 -81t-12 -116v-641h-291v1120z" />
<glyph unicode="o" d="M617 -29q-128 0 -222 43.5t-157 114.5q-70 79 -105 189t-35 242q0 134 35.5 242.5t104.5 186.5t164.5 118t213.5 40q123 0 218 -41.5t161 -115.5t103 -181.5t37 -249.5q0 -134 -35 -242t-104 -187q-66 -75 -161.5 -117t-217.5 -42zM616 209q106 0 166 92q60 93 60 259 q0 164 -60 257q-31 48 -73 70t-93 22q-56 0 -96.5 -24.5t-68.5 -67.5q-60 -93 -60 -257q0 -166 60 -259q60 -92 165 -92z" />
<glyph unicode="p" d="M150 1120h263l29 -168q46 97 121 146q74 49 177 49q94 0 168.5 -38t128.5 -115q54 -78 80 -188.5t26 -247.5q0 -146 -28 -254.5t-79 -180.5q-55 -78 -132.5 -115t-168.5 -37q-47 0 -88.5 10.5t-79.5 36.5q-32 21 -65.5 56.5t-59.5 83.5v-584h-292v1546zM647 215 q95 0 149 92q54 91 54 254q0 162 -54 254t-149 92q-94 0 -150 -92q-55 -91 -55 -254t55 -254q56 -92 150 -92z" />
<glyph unicode="q" d="M791 158q-53 -92 -125 -140q-36 -24 -76 -35.5t-91 -11.5q-93 0 -169 37t-132 115q-54 76 -81 185t-27 250q0 283 106 436q54 77 128.5 115t167.5 38q104 0 178 -49q36 -24 67 -60.5t54 -85.5l29 168h263v-1546h-292v584zM586 215q94 0 150 92q55 91 55 254t-55 254 q-56 92 -150 92q-95 0 -149 -92t-54 -254q0 -163 54 -254q54 -92 149 -92z" />
<glyph unicode="r" d="M241 1120h264l29 -174q44 97 132 149q45 26 97 39t108 13q30 0 62 -3.5t59 -10.5q29 -8 58 -19.5t51 -23.5v-279q-48 44 -112 66q-32 11 -67.5 16.5t-73.5 5.5q-94 0 -163 -32q-70 -32 -108 -94q-10 -16 -19 -39t-14 -54q-5 -29 -7.5 -67t-2.5 -97v-516h-293v1120z" />
<glyph unicode="s" d="M616 -29q-51 0 -105.5 4.5t-105.5 12.5t-105.5 22t-109.5 31v256q98 -56 198 -84q51 -14 98.5 -21.5t98.5 -7.5q99 0 153 30q26 15 39.5 36.5t13.5 56.5q0 23 -7.5 42t-31.5 37t-66.5 34t-110.5 31l-81 18q-168 38 -245 119q-77 82 -77 215q0 164 117 254t330 90 q48 0 98 -4t91 -11t91 -19.5t92 -27.5v-256q-41 26 -84.5 46.5t-83.5 32.5t-85.5 19t-94.5 7q-45 0 -81 -6.5t-62 -21.5q-26 -14 -38.5 -35.5t-12.5 -44.5q0 -45 51 -77t163 -58l11 -3l84 -20q79 -19 138 -49t97 -73t56 -101.5t18 -127.5q0 -173 -113 -259 q-57 -44 -142.5 -65.5t-195.5 -21.5z" />
<glyph unicode="t" d="M827 -4q-253 0 -341 81q-89 80 -89 298v520h-286v225h286v306l293 130v-436h383v-225h-383v-534q0 -74 37 -107q20 -18 50.5 -25.5t70.5 -7.5h225v-225h-246v0z" />
<glyph unicode="u" d="M481 -29q-75 0 -135.5 25t-103.5 81q-82 106 -82 314v729h293v-684q0 -121 34 -173q17 -26 45.5 -39t65.5 -13q38 0 70 16t56 54q44 71 44 196v643h293v-1120h-264l-29 166q-32 -93 -105 -144q-75 -51 -182 -51z" />
<glyph unicode="v" d="M80 1120h297l239 -874l240 874h297l-356 -1120h-361z" />
<glyph unicode="w" d="M0 1120h244l133 -858l121 565h237l119 -565l135 858h244l-203 -1120h-278l-136 582l-135 -582h-278z" />
<glyph unicode="x" d="M469 584l-381 536h342l186 -334l187 334h342l-377 -536l410 -584h-342l-220 377l-219 -377h-342z" />
<glyph unicode="y" d="M137 -201h119q42 0 76.5 7t55.5 23q23 17 45.5 57t39.5 85l22 60l-426 1089h308l256 -727l245 727h308l-465 -1241q-32 -85 -67.5 -141t-73.5 -90t-88 -53t-113 -19h-242v223z" />
<glyph unicode="z" d="M162 229l590 672h-566v219h895v-229l-589 -672h589v-219h-919v229z" />
<glyph unicode="{" d="M853 -334q-248 0 -333 74q-85 73 -85 295v215q0 70 -12.5 124.5t-40.5 84.5q-27 29 -77 43t-117 14h-92v191h92q140 0 194 57q53 58 53 209v215q0 222 85 295q83 73 333 73h150v-190h-123q-105 0 -139 -42q-35 -43 -35 -185v-209q0 -165 -49 -232q-49 -66 -175 -86 q125 -21 175 -89q49 -67 49 -232v-205q0 -143 35 -187q34 -42 139 -42h123v-191h-150v0z" />
<glyph unicode="|" d="M502 1565h227v-2048h-227v2048z" />
<glyph unicode="}" d="M230 -143h121q104 0 140 43t36 186v205q0 165 49 232q26 35 70.5 57t103.5 32q-127 20 -174 86q-49 67 -49 232v209q0 140 -35 184q-19 23 -56 33t-85 10h-121v190h150q249 0 332 -73q83 -74 83 -295v-215q0 -81 14.5 -130.5t40.5 -77.5t73 -43t122 -15h92v-191h-92 q-141 0 -195 -58q-55 -58 -55 -208v-215q0 -221 -83 -295q-85 -74 -332 -74h-150v191z" />
<glyph unicode="~" d="M850 463q-30 0 -56 4t-50.5 10.5t-48.5 16t-50 20.5q-11 4 -17.5 7t-9.5 4.5l-4 2t-2 0.5q-38 17 -70 28.5t-58 17.5q-53 12 -103 12q-76 0 -148 -29q-29 -12 -66.5 -34.5t-78.5 -57.5v229q77 61 151 88q37 14 76.5 20.5t78.5 6.5q55 0 104 -11q23 -5 57.5 -16.5 t66.5 -25.5l33 -15q61 -28 109 -41.5t99 -13.5q39 0 72.5 8t67.5 23t69 37.5t73 56.5v-233q-74 -59 -146 -87q-33 -13 -69.5 -20.5t-79.5 -7.5z" />
<glyph unicode="&#xa0;" />
<glyph unicode="&#xa1;" d="M615 1508q17 0 34 -2.5t34 -10.5q17 -7 29.5 -15.5t26.5 -23.5q12 -13 17 -20t11 -18q8 -14 11.5 -23t5.5 -22q5 -25 5 -49q0 -41 -12 -74.5t-37 -58.5q-24 -25 -56.5 -38t-66.5 -13q-8 0 -16.5 0.5t-14.5 1.5l-26 6q-6 2 -14.5 5.5t-10.5 4.5q-7 3 -13 7t-10 7 q-4 4 -7 6.5t-14 13.5q-50 49 -50 131q0 84 50 134q23 23 54.5 37t69.5 14zM687 960l68 -576v-456h-285v456l78 576h139z" />
<glyph unicode="&#xa2;" d="M655 -25q-235 22 -371 179q-137 158 -137 408q0 130 35 232t102 179q136 156 371 172v287h142v-287q61 -5 120 -21q35 -10 62.5 -21.5t56.5 -25.5v-268q-29 22 -60.5 39.5t-55.5 27.5q-26 11 -58.5 19t-64.5 12v-692q33 2 64.5 10t59.5 19q29 12 58 28.5t57 38.5v-268 q-29 -16 -55.5 -27t-56.5 -19q-63 -18 -127 -22v-288h-142v288zM655 907q-113 -13 -175 -103q-30 -44 -46 -104.5t-16 -139.5q0 -75 15.5 -136.5t47.5 -109.5q63 -93 174 -99v692z" />
<glyph unicode="&#xa3;" d="M119 260h235v334h-198v225h198v197q0 255 113 380q112 124 343 124q44 0 85 -4t70 -10t65.5 -17.5t71.5 -26.5v-274q-30 22 -63.5 38.5t-58.5 24.5q-32 11 -66 16t-66 5q-56 0 -94 -16.5t-63 -49.5q-50 -68 -50 -211v-176h336v-225h-336v-334h481v-260h-1003v260z" />
<glyph unicode="&#xa4;" d="M186 305l170 170q-14 27 -20 43.5t-13 40.5q-5 20 -8.5 38.5t-3.5 44.5t3.5 47t8.5 40q5 17 12.5 36t22.5 42l-172 170l131 131l166 -172q20 12 42 21.5t41 14.5q42 11 86 11q21 0 41 -3t40 -8t41.5 -14t44.5 -20l172 170l127 -129l-170 -170q11 -20 20 -41t14 -41 q11 -44 11 -86q0 -21 -3 -44.5t-8 -42.5q-5 -16 -14 -37t-22 -40l172 -170l-131 -131l-170 172q-22 -14 -38.5 -21.5t-37.5 -13.5q-19 -5 -39.5 -8.5t-45.5 -3.5q-23 0 -43 3t-41 8t-42.5 13t-44.5 19l-170 -168zM654 467q73 0 123 51q50 52 50 124q0 36 -13 68.5t-36 55.5 q-24 24 -57 36.5t-68 12.5t-66.5 -12t-56.5 -36q-23 -22 -37 -54t-14 -70q0 -35 12.5 -67t37.5 -58q23 -24 55 -37.5t70 -13.5z" />
<glyph unicode="&#xa5;" d="M469 438h-412v189h408l-86 151h-322v187h224l-273 528h318l290 -600l291 600h318l-273 -528h224v-187h-322l-86 -151h408v-189h-412v-438h-295v438z" />
<glyph unicode="&#xa6;" d="M502 1432h227v-758h-227v758zM502 408h227v-758h-227v758z" />
<glyph unicode="&#xa7;" d="M602 -195q-39 0 -85.5 3.5t-87.5 10.5t-85.5 18.5t-85.5 25.5v229q45 -16 85 -26.5t81 -18.5q39 -8 75.5 -12t71.5 -4q46 0 75.5 7.5t49.5 21.5t30.5 34t10.5 40q0 21 -12 41.5t-37.5 43.5t-66 49t-98.5 58l-37 20q-83 45 -142.5 88t-98 86t-57 86.5t-18.5 89.5 q0 38 13 79.5t39 76.5q24 32 61.5 58.5t87.5 43.5q-72 50 -103 110q-32 61 -32 141q0 143 104 229t277 86q72 0 152 -15q43 -8 82 -19.5t79 -25.5v-225q-86 30 -151 45q-31 7 -63.5 10.5t-58.5 3.5q-73 0 -116 -29q-23 -16 -33 -36.5t-10 -40.5q0 -23 12.5 -44t37.5 -42.5 t63 -45.5t90 -52q9 -5 13 -7l6 -3l3 -1.5t6 -3.5q57 -31 100 -55t75.5 -44.5t56 -40t41.5 -40.5q59 -71 59 -171q0 -90 -47 -154t-150 -111q70 -49 103 -111q32 -61 32 -144q0 -71 -25.5 -129.5t-78.5 -100.5q-50 -40 -123 -61.5t-170 -21.5zM711 473q27 17 48 36.5t32 34.5 q12 17 18 36t6 33q0 46 -67 103.5t-198 123.5l-32 16q-54 -35 -79 -70t-25 -74q0 -56 49 -99q12 -11 31 -23.5t48.5 -29.5t70.5 -38.5t98 -48.5z" />
<glyph unicode="&#xa8;" d="M331 1339q-30 0 -30 30v186q0 30 30 30h176q30 0 30 -30v-186q0 -30 -30 -30h-176zM726 1339q-30 0 -30 30v186q0 30 30 30h176q30 0 30 -30v-186q0 -30 -30 -30h-176z" />
<glyph unicode="&#xa9;" d="M616 125q-66 0 -123 11.5t-111 34.5q-55 23 -106 57.5t-95 78.5q-42 42 -77.5 93.5t-58.5 107.5q-45 106 -45 233q0 63 11.5 122t34.5 114q23 54 56.5 104t79.5 97q47 48 97 81t102 54q109 45 235 45t236 -45q57 -23 107 -57.5t92 -77.5q49 -50 82.5 -101.5t53.5 -99.5 q46 -108 46 -235q0 -128 -45 -234q-22 -52 -56.5 -104t-79.5 -97q-42 -42 -93 -77t-108 -59q-108 -46 -235 -46zM616 256q51 0 95.5 8.5t90.5 28.5q38 17 78 43t78 64q34 34 62 74.5t46 83.5q36 85 36 185q0 54 -9.5 98t-26.5 86q-19 45 -46.5 85t-60.5 74t-74 62t-83 45 q-48 20 -92.5 28t-90.5 8q-56 0 -101.5 -9.5t-86.5 -26.5q-42 -18 -82 -45t-75 -62t-62.5 -77t-44.5 -82q-36 -84 -36 -185q0 -99 36 -184q19 -45 45.5 -83.5t61.5 -73.5q38 -38 76.5 -64.5t80.5 -43.5q46 -20 90.5 -28.5t94.5 -8.5zM637 399q-81 0 -150 22.5t-120 70.5 t-76 111.5t-25 137.5q0 82 27.5 145t73.5 105q47 43 115 67.5t154 24.5q26 0 55.5 -2t53.5 -6q23 -4 51.5 -11t51.5 -15v-168q-53 32 -97 45q-23 7 -46.5 10.5t-49.5 3.5q-49 0 -85.5 -13t-62.5 -39q-54 -53 -54 -147q0 -95 53 -146q52 -52 152 -52q29 0 53 4t47 11 t43.5 16.5t46.5 27.5v-168q-28 -8 -55 -14.5t-53 -11.5q-53 -9 -103 -9z" />
<glyph unicode="&#xaa;" d="M537 698q-128 0 -205 68q-76 68 -76 187q0 67 24 117.5t69 82.5q91 66 280 66h157v26q0 27 -12.5 45t-32.5 29q-21 11 -55 17.5t-85 6.5q-38 0 -76.5 -4t-73.5 -12q-71 -16 -136 -51v188q27 11 66 22.5t81 19.5q37 7 74.5 10.5t76.5 3.5q188 0 277 -86t89 -269v-448h-174 l-19 92q-49 -57 -110 -84q-62 -27 -139 -27zM593 866q42 0 78 14.5t61 37.5q27 26 40.5 59.5t13.5 71.5v30h-102q-109 0 -159 -26t-50 -83q0 -22 7.5 -42t22.5 -34q14 -13 35.5 -20.5t52.5 -7.5zM293 598h688v-170h-688v170z" />
<glyph unicode="&#xab;" d="M59 535v131l469 393v-238l-277 -221l277 -221v-238zM513 535v131l469 393v-238l-276 -221l276 -221v-238z" />
<glyph unicode="&#xac;" d="M907 662h-819v237h1057v-537h-238v300z" />
<glyph unicode="&#xad;" d="M301 735h631v-291h-631v291z" />
<glyph unicode="&#xae;" d="M616 125q-66 0 -123 11.5t-111 34.5t-105 57t-96 79q-44 44 -78 94.5t-57 105.5q-23 54 -34.5 111t-11.5 123q0 128 46 236q23 54 57 104.5t79 96.5q43 44 92.5 78t106.5 57q109 45 235 45t236 -45q57 -23 107 -57.5t92 -77.5q49 -50 82.5 -101.5t53.5 -99.5 q46 -108 46 -235q0 -128 -45 -234q-22 -52 -56.5 -104t-79.5 -97q-42 -42 -93 -77t-108 -59q-108 -46 -235 -46zM616 256q99 0 185 36t157 107q32 32 60 72t48 87q18 43 27 88t9 96q0 50 -8.5 95t-27.5 90t-46.5 85t-60.5 74q-32 33 -73 61t-84 46q-48 20 -92.5 28t-92.5 8 q-59 0 -102.5 -9.5t-82.5 -26.5q-35 -15 -76 -40.5t-83 -67.5q-37 -38 -63 -78.5t-43 -79.5q-20 -48 -28 -94t-8 -91q0 -51 9 -96t27 -88q16 -38 42 -78.5t65 -79.5q71 -71 158 -108q85 -36 184 -36zM360 1055h246q133 0 198 -44q32 -22 48 -55.5t16 -77.5q0 -66 -39 -108 q-18 -20 -44 -34t-66 -21q23 -8 39.5 -20t26.5 -22q11 -11 24.5 -30.5t26.5 -46.5l79 -166h-172l-63 133q-13 27 -26.5 48.5t-28.5 33.5q-12 10 -30 17t-40 8h-31v-240h-164v625zM588 780q57 0 86 20q28 19 28 61t-28 63q-29 20 -86 20h-64v-164h64z" />
<glyph unicode="&#xaf;" d="M301 1556h631v-188h-631v188z" />
<glyph unicode="&#xb0;" d="M613 854q-71 0 -131 25t-104 69q-47 47 -71 107.5t-24 129.5t23.5 130t71.5 109t108.5 72t129.5 24q68 0 128 -25q29 -12 57 -31t51 -42t42 -52t30 -57q24 -59 24 -125q0 -69 -25 -129q-12 -29 -29.5 -56t-41.5 -51q-23 -23 -51.5 -41.5t-57.5 -30.5q-31 -13 -63 -19.5 t-67 -6.5zM614 1016q72 0 122 50t50 121q0 72 -49 121q-50 50 -121 50q-72 0 -122 -50t-50 -123q0 -71 49 -120t121 -49z" />
<glyph unicode="&#xb1;" d="M498 694h-410v236h410v354h237v-354h410v-236h-410v-354h-237v354zM88 238h1057v-238h-1057v238z" />
<glyph unicode="&#xb2;" d="M274 1261q26 22 61 51t80 67q159 133 236.5 217t77.5 131q0 17 -10 38t-33 37q-44 30 -117 30q-30 0 -63 -4.5t-62 -12.5t-69 -21.5t-76 -30.5v164q32 10 72.5 19.5t73.5 14.5q28 5 65.5 8t76.5 3q81 0 146.5 -15.5t111.5 -47.5q47 -32 70 -74t23 -82q0 -36 -20 -79 t-62.5 -95t-110 -113.5t-162.5 -135.5q-28 -22 -36.5 -28.5t-11.5 -8.5t-8 -6.5t-27 -21.5h440v-145h-666v141z" />
<glyph unicode="&#xb3;" d="M588 1113q-40 0 -77 3t-75 8q-76 11 -149 30v154q30 -12 65.5 -22.5t77.5 -18.5q38 -7 77.5 -10.5t72.5 -3.5q50 0 82.5 8t56.5 24q47 32 47 89q0 60 -49 94t-135 34h-111v146h111q74 0 117 25q42 25 42 70q0 19 -8.5 37.5t-30.5 32.5q-20 13 -47.5 19t-68.5 6 q-29 0 -63 -3t-69 -8t-69 -14t-68 -20v152q32 8 67 14.5t72 11.5q35 5 69 7t66 2q76 0 142 -13.5t114 -44.5q45 -29 68 -69t23 -91q0 -73 -52 -119t-151 -63q111 -15 170 -71q58 -55 58 -149q0 -120 -96 -183q-97 -64 -279 -64z" />
<glyph unicode="&#xb4;" d="M752 1638h282l-368 -376h-197z" />
<glyph unicode="&#xb5;" d="M154 1120h287v-680q0 -113 41 -171q20 -28 49.5 -43t72.5 -15q81 0 122 57q40 56 40 172v680h289v-776q0 -69 14 -102q13 -31 44 -31q8 0 13.5 1.5t13.5 4.5q9 4 13.5 6.5t14.5 9.5v-217q-25 -13 -42.5 -20.5t-37.5 -13.5q-19 -5 -36.5 -8t-37.5 -3q-39 0 -66.5 10.5 t-48.5 27.5q-26 21 -42.5 50t-30.5 70q-38 -78 -92 -118q-55 -40 -126 -40q-58 0 -99 23q-42 23 -68 72l2 -494h-289v1548z" />
<glyph unicode="&#xb6;" d="M496 649q-107 14 -183.5 47.5t-131.5 87.5q-111 109 -111 286q0 192 130 307q131 116 345 116h520v-1690h-191v1543h-190v-1543h-188v846z" />
<glyph unicode="&#xb7;" d="M614 344q-73 0 -138.5 28t-115.5 79q-51 51 -77.5 116.5t-26.5 138.5q0 75 27.5 139.5t78.5 115.5q50 49 116 76.5t139 27.5q72 0 137 -27t116 -76q54 -53 80.5 -118.5t26.5 -135.5q0 -72 -28 -139.5t-79 -118.5q-50 -50 -116.5 -78t-139.5 -28z" />
<glyph unicode="&#xb8;" d="M573 -401q-23 0 -51 1.5t-51 4.5q-18 2 -32 4.5t-25.5 5t-22.5 5t-24 5.5v156q23 -8 44.5 -14.5t42.5 -11.5q42 -9 78 -9q57 0 91 23q32 23 32 61q0 28 -21 69q-11 20 -27.5 45.5t-39.5 55.5h140q30 -32 51.5 -62t33.5 -53q27 -51 27 -106q0 -46 -16.5 -79.5t-45.5 -55.5 q-26 -20 -69.5 -32.5t-114.5 -12.5z" />
<glyph unicode="&#xb9;" d="M313 1265h226v543l-220 -43v149l222 41h194v-690h226v-145h-648v145z" />
<glyph unicode="&#xba;" d="M637 698q-87 0 -151.5 28.5t-112.5 82.5t-73.5 127t-25.5 171q0 189 99 302q97 111 264 111q166 0 264 -111q98 -112 98 -302q0 -94 -23.5 -167.5t-73.5 -130.5q-98 -111 -265 -111zM637 874q35 0 64.5 15.5t51.5 47.5q42 61 42 171q0 109 -42 172q-20 30 -49 46.5 t-67 16.5q-41 0 -69 -18t-46 -44q-43 -64 -43 -173t42 -171q19 -28 48 -45.5t68 -17.5zM293 598h688v-170h-688v170z" />
<glyph unicode="&#xbb;" d="M253 379l276 221l-276 221v238l469 -393v-131l-469 -394v238zM707 379l277 221l-277 221v238l469 -393v-131l-469 -394v238z" />
<glyph unicode="&#xbc;" d="M55 969h226v543l-220 -43v149l222 41h194v-690h226v-145h-648v145zM47 618l1059 263l37 -119l-1059 -262zM823 -90h-393v162l375 493h204v-512h109v-143h-109v-180h-186v180zM823 53v330l-250 -330h250z" />
<glyph unicode="&#xbd;" d="M55 969h226v543l-220 -43v149l222 41h194v-690h226v-145h-648v145zM47 618l1059 263l37 -119l-1059 -262zM475 -129q26 22 61 51t80 67q159 133 236.5 217t77.5 131q0 17 -10 38t-33 37q-44 30 -117 30q-30 0 -63 -4.5t-62 -12.5t-69 -21.5t-76 -30.5v164 q32 10 72.5 19.5t73.5 14.5q28 5 65.5 8t76.5 3q81 0 146.5 -15.5t111.5 -47.5q47 -32 70 -74t23 -82q0 -36 -20 -79t-62.5 -95t-110 -113.5t-162.5 -135.5q-28 -22 -36.5 -28.5t-11.5 -8.5t-8 -6.5t-27 -21.5h440v-145h-666v141z" />
<glyph unicode="&#xbe;" d="M361 809q-40 0 -77 3t-75 8q-76 11 -149 30v154q30 -12 65.5 -22.5t77.5 -18.5q38 -7 77.5 -10.5t72.5 -3.5q50 0 82.5 8t56.5 24q47 32 47 89q0 60 -49 94t-135 34h-111v146h111q74 0 117 25q42 25 42 70q0 19 -8.5 37.5t-30.5 32.5q-20 13 -47.5 19t-68.5 6 q-29 0 -63 -3t-69 -8t-69 -14t-68 -20v152q32 8 67 14.5t72 11.5q35 5 69 7t66 2q76 0 142 -13.5t114 -44.5q45 -29 68 -69t23 -91q0 -73 -52 -119t-151 -63q111 -15 170 -71q58 -55 58 -149q0 -120 -96 -183q-97 -64 -279 -64zM47 618l1059 263l37 -119l-1059 -262z M823 -90h-393v162l375 493h204v-512h109v-143h-109v-180h-186v180zM823 53v330l-250 -330h250z" />
<glyph unicode="&#xbf;" d="M667 1222q-67 0 -114 47t-47 120q0 37 12 68t35 54q24 23 54 34t60 11q16 0 33 -3q4 -1 12.5 -3t16.5 -6q7 -3 15 -7.5t12 -6.5t10.5 -7.5t14.5 -13.5q10 -10 19 -23t16 -30q12 -30 12 -66q0 -74 -47 -121t-114 -47zM606 -27q-99 0 -179 23t-137 71t-85.5 113t-28.5 143 q0 42 8.5 77t25.5 68q17 32 47.5 70.5t80.5 86.5l88 86q66 64 85 106q19 41 19 105q0 3 1 6q1 11 1 21v20v123h267v-154q0 -100 -31 -169q-17 -38 -44.5 -74t-66.5 -74l-90 -89q-20 -20 -33.5 -34.5t-23 -25.5t-15.5 -20t-11 -18q-23 -43 -23 -87q0 -32 11.5 -57.5 t34.5 -42.5t57.5 -25.5t77.5 -8.5q45 0 88 9t89 27q48 19 92 44t95 61v-268q-49 -28 -97 -48.5t-101 -35.5q-50 -14 -98 -21.5t-104 -7.5z" />
<glyph unicode="&#xc0;" d="M283 1852h284l199 -264h-197zM436 1493h361l403 -1493h-295l-92 369h-395l-90 -369h-295zM756 612l-140 611l-139 -611h279z" />
<glyph unicode="&#xc1;" d="M668 1852h284l-286 -264h-197zM436 1493h361l403 -1493h-295l-92 369h-395l-90 -369h-295zM756 612l-140 611l-139 -611h279z" />
<glyph unicode="&#xc2;" d="M461 1852h309l223 -264h-178l-199 161l-198 -161h-178zM436 1493h361l403 -1493h-295l-92 369h-395l-90 -369h-295zM756 612l-140 611l-139 -611h279z" />
<glyph unicode="&#xc3;" d="M268 1618q0 55 14.5 98.5t39.5 72.5q28 33 65.5 49t78.5 16q37 0 73 -12q14 -5 35.5 -15t39.5 -22l60 -39q6 -4 16 -9.5t25 -11.5q10 -4 18 -6t17 -2q36 0 56 30q19 29 19 87h140v-6t-1 -9t-1 -8v-5q0 -108 -53 -173q-29 -35 -65 -50t-77 -15q-36 0 -72 11 q-20 6 -38.5 15t-39.5 23l-54 34q-2 1 -4.5 3t-7.5 4q-21 11 -38.5 18.5t-34.5 7.5q-32 0 -51 -30q-20 -31 -20 -80v-6h-140v30zM436 1493h361l403 -1493h-295l-92 369h-395l-90 -369h-295zM756 612l-140 611l-139 -611h279z" />
<glyph unicode="&#xc4;" d="M331 1606q-30 0 -30 30v186q0 30 30 30h176q30 0 30 -30v-186q0 -30 -30 -30h-176zM726 1606q-30 0 -30 30v186q0 30 30 30h176q30 0 30 -30v-186q0 -30 -30 -30h-176zM436 1493h361l403 -1493h-295l-92 369h-395l-90 -369h-295zM756 612l-140 611l-139 -611h279z" />
<glyph unicode="&#xc5;" d="M418 1421q-45 39 -65 86q-11 24 -16 51.5t-5 55.5q0 63 23 115t60 89q35 35 87 59t115 24q56 0 108 -21t94 -63q36 -36 59 -87.5t23 -114.5q0 -29 -5 -57t-16 -51q-21 -48 -65 -86l385 -1421h-295l-92 369h-395l-90 -369h-295zM618 1485q53 0 92 39q38 38 38 92t-39 93 q-40 38 -92 38q-29 0 -52.5 -10.5t-40.5 -27.5q-39 -39 -39 -93q0 -29 10.5 -52t27.5 -40q20 -20 44.5 -29.5t50.5 -9.5zM756 612l-140 611l-139 -611h279z" />
<glyph unicode="&#xc6;" d="M358 1493h803v-260h-291v-311h260v-260h-260v-402h310v-260h-564v362h-282l-86 -362h-248zM616 598v635h-79l-148 -635h227z" />
<glyph unicode="&#xc7;" d="M774 1255q-160 0 -243 -128q-83 -130 -83 -382t83 -380q82 -129 243 -129q77 0 149 33q35 16 69.5 39.5t77.5 62.5v-328q-71 -36 -147 -54q-21 -5 -42.5 -8.5t-44.5 -5.5q21 -26 36.5 -49t25.5 -41q27 -51 27 -106q0 -46 -16.5 -79.5t-45.5 -55.5q-26 -20 -69.5 -32.5 t-116.5 -12.5q-24 0 -49.5 1.5t-50.5 4.5q-38 5 -59.5 10t-44.5 10v156q23 -8 44.5 -14.5t42.5 -11.5q42 -9 78 -9q57 0 91 23q32 23 32 61q0 28 -21 69q-8 16 -19.5 34.5t-27.5 40.5q-253 20 -393 196q-159 199 -159 575t159 576q80 100 195 149.5t264 49.5q45 0 85.5 -4.5 t79.5 -13.5q79 -18 146 -54v-328q-45 42 -80.5 65.5t-67.5 37.5q-38 17 -74.5 24.5t-73.5 7.5z" />
<glyph unicode="&#xc8;" d="M314 1842h284l199 -264h-197zM168 1493h930v-260h-635v-322h575v-260h-575v-391h635v-260h-930v1493z" />
<glyph unicode="&#xc9;" d="M699 1841h284l-286 -264h-197zM168 1493h930v-260h-635v-322h575v-260h-575v-391h635v-260h-930v1493z" />
<glyph unicode="&#xca;" d="M492 1852h309l223 -264h-178l-199 161l-198 -161h-178zM168 1493h930v-260h-635v-322h575v-260h-575v-391h635v-260h-930v1493z" />
<glyph unicode="&#xcb;" d="M362 1606q-30 0 -30 30v186q0 30 30 30h176q30 0 30 -30v-186q0 -30 -30 -30h-176zM757 1606q-30 0 -30 30v186q0 30 30 30h176q30 0 30 -30v-186q0 -30 -30 -30h-176zM168 1493h930v-260h-635v-322h575v-260h-575v-391h635v-260h-930v1493z" />
<glyph unicode="&#xcc;" d="M283 1852h284l199 -264h-197zM172 260h297v973h-297v260h889v-260h-297v-973h297v-260h-889v260z" />
<glyph unicode="&#xcd;" d="M668 1852h284l-286 -264h-197zM172 260h297v973h-297v260h889v-260h-297v-973h297v-260h-889v260z" />
<glyph unicode="&#xce;" d="M461 1852h309l223 -264h-178l-199 161l-198 -161h-178zM172 260h297v973h-297v260h889v-260h-297v-973h297v-260h-889v260z" />
<glyph unicode="&#xcf;" d="M331 1606q-30 0 -30 30v186q0 30 30 30h176q30 0 30 -30v-186q0 -30 -30 -30h-176zM726 1606q-30 0 -30 30v186q0 30 30 30h176q30 0 30 -30v-186q0 -30 -30 -30h-176zM172 260h297v973h-297v260h889v-260h-297v-973h297v-260h-889v260z" />
<glyph unicode="&#xd0;" d="M137 664h-137v237h137v592h316q366 0 527 -174q79 -86 120 -227.5t41 -344.5q0 -395 -161 -571t-527 -176h-316v664zM512 266q174 0 248 110t74 372q0 260 -74 370q-73 109 -248 109h-80v-326h211v-237h-211v-398h80z" />
<glyph unicode="&#xd1;" d="M268 1618q0 55 14.5 98.5t39.5 72.5q28 33 65.5 49t78.5 16q37 0 73 -12q17 -6 36.5 -15.5t38.5 -21.5l60 -39q8 -5 19 -10.5t22 -10.5q10 -4 18 -6t17 -2q36 0 56 30q19 29 19 87h140v-6t-1 -9q0 -2 -0.5 -3.5t-0.5 -13.5q0 -50 -13.5 -93.5t-39.5 -75.5 q-29 -35 -65 -50t-77 -15q-36 0 -72 11q-20 6 -38.5 15t-39.5 23l-54 34l-8 5l-4 2q-22 12 -39.5 19t-33.5 7q-32 0 -51 -30q-20 -31 -20 -80v-6h-140v30zM119 1493h317l416 -1085v1085h260v-1493h-315l-418 1085v-1085h-260v1493z" />
<glyph unicode="&#xd2;" d="M283 1852h284l199 -264h-197zM616 -29q-135 0 -231.5 50.5t-159.5 144.5q-133 197 -133 579q0 191 33 335.5t100 244.5q69 102 169 148.5t222 46.5q131 0 229 -49.5t164 -146.5q132 -197 132 -579t-132 -578q-64 -95 -161.5 -145.5t-231.5 -50.5zM616 236q114 0 166 121 q52 119 52 389q0 269 -52 388q-52 121 -166 121q-59 0 -99 -30.5t-66 -90.5t-39 -153.5t-13 -233.5q0 -271 52 -390q52 -121 165 -121z" />
<glyph unicode="&#xd3;" d="M668 1852h284l-286 -264h-197zM616 -29q-135 0 -231.5 50.5t-159.5 144.5q-133 197 -133 579q0 191 33 335.5t100 244.5q69 102 169 148.5t222 46.5q131 0 229 -49.5t164 -146.5q132 -197 132 -579t-132 -578q-64 -95 -161.5 -145.5t-231.5 -50.5zM616 236q114 0 166 121 q52 119 52 389q0 269 -52 388q-52 121 -166 121q-59 0 -99 -30.5t-66 -90.5t-39 -153.5t-13 -233.5q0 -271 52 -390q52 -121 165 -121z" />
<glyph unicode="&#xd4;" d="M461 1852h309l223 -264h-178l-199 161l-198 -161h-178zM616 -29q-135 0 -231.5 50.5t-159.5 144.5q-133 197 -133 579q0 191 33 335.5t100 244.5q69 102 169 148.5t222 46.5q131 0 229 -49.5t164 -146.5q132 -197 132 -579t-132 -578q-64 -95 -161.5 -145.5t-231.5 -50.5 zM616 236q114 0 166 121q52 119 52 389q0 269 -52 388q-52 121 -166 121q-59 0 -99 -30.5t-66 -90.5t-39 -153.5t-13 -233.5q0 -271 52 -390q52 -121 165 -121z" />
<glyph unicode="&#xd5;" d="M268 1618q0 55 14.5 98.5t39.5 72.5q28 33 65.5 49t78.5 16q37 0 73 -12q15 -5 34.5 -14t40.5 -23l60 -39q8 -5 17.5 -10t23.5 -11q10 -4 18 -6t17 -2q36 0 56 30q19 29 19 87h140v-6t-1 -9q-1 -4 -1 -7v-5q0 -109 -53 -174q-29 -35 -65 -50t-77 -15q-36 0 -72 11 q-20 6 -38.5 15t-39.5 23l-54 34l-12 7q-21 11 -38.5 18.5t-34.5 7.5q-32 0 -51 -30q-20 -31 -20 -80v-6h-140v30zM616 -29q-135 0 -231.5 50.5t-159.5 144.5q-133 197 -133 579q0 191 33 335.5t100 244.5q69 102 169 148.5t222 46.5q131 0 229 -49.5t164 -146.5 q132 -197 132 -579t-132 -578q-64 -95 -161.5 -145.5t-231.5 -50.5zM616 236q114 0 166 121q52 119 52 389q0 269 -52 388q-52 121 -166 121q-59 0 -99 -30.5t-66 -90.5t-39 -153.5t-13 -233.5q0 -271 52 -390q52 -121 165 -121z" />
<glyph unicode="&#xd6;" d="M331 1606q-30 0 -30 30v186q0 30 30 30h176q30 0 30 -30v-186q0 -30 -30 -30h-176zM726 1606q-30 0 -30 30v186q0 30 30 30h176q30 0 30 -30v-186q0 -30 -30 -30h-176zM616 -29q-135 0 -231.5 50.5t-159.5 144.5q-133 197 -133 579q0 191 33 335.5t100 244.5 q69 102 169 148.5t222 46.5q131 0 229 -49.5t164 -146.5q132 -197 132 -579t-132 -578q-64 -95 -161.5 -145.5t-231.5 -50.5zM616 236q114 0 166 121q52 119 52 389q0 269 -52 388q-52 121 -166 121q-59 0 -99 -30.5t-66 -90.5t-39 -153.5t-13 -233.5q0 -271 52 -390 q52 -121 165 -121z" />
<glyph unicode="&#xd7;" d="M119 313l330 330l-330 328l168 168l327 -328l330 328l168 -168l-330 -328l330 -330l-168 -166l-330 328l-327 -328z" />
<glyph unicode="&#xd8;" d="M-6 51l168 238q-19 49 -31 95.5t-21 106.5q-8 54 -13 114t-5 138q0 385 133 581q66 98 162 147t229 49q105 0 186 -31q44 -17 79.5 -40t64.5 -52l113 162l162 -115l-158 -223q40 -97 59 -213q10 -60 14.5 -125.5t4.5 -137.5q0 -382 -132 -578q-69 -102 -168 -149 t-226 -47q-57 0 -102.5 8.5t-87.5 25.5t-78 40.5t-71 58.5l-120 -167zM772 1153q-26 51 -65 77q-38 25 -90 25q-59 0 -99 -30.5t-66 -89.5q-53 -121 -53 -379v-127zM618 236q60 0 99 31.5t64 89.5q13 30 22.5 68.5t16.5 90t10.5 117t3.5 148.5l-1 23q-1 14 -1 20.5 t-0.5 13.5t-1 17.5t-1.5 32.5l-378 -534q11 -28 28.5 -50.5t37.5 -36.5q43 -31 101 -31z" />
<glyph unicode="&#xd9;" d="M283 1852h284l199 -264h-197zM616 -29q-267 0 -388 138q-122 139 -122 442v942h295v-1016q0 -57 15 -101.5t42 -74.5q29 -32 69.5 -47.5t88.5 -15.5t88.5 15.5t69.5 47.5q27 30 42 74.5t15 101.5v1016h295v-942q0 -305 -121 -442q-122 -138 -389 -138z" />
<glyph unicode="&#xda;" d="M668 1852h284l-286 -264h-197zM616 -29q-267 0 -388 138q-122 139 -122 442v942h295v-1016q0 -57 15 -101.5t42 -74.5q29 -32 69.5 -47.5t88.5 -15.5t88.5 15.5t69.5 47.5q27 30 42 74.5t15 101.5v1016h295v-942q0 -305 -121 -442q-122 -138 -389 -138z" />
<glyph unicode="&#xdb;" d="M461 1852h309l223 -264h-178l-199 161l-198 -161h-178zM616 -29q-267 0 -388 138q-122 139 -122 442v942h295v-1016q0 -57 15 -101.5t42 -74.5q29 -32 69.5 -47.5t88.5 -15.5t88.5 15.5t69.5 47.5q27 30 42 74.5t15 101.5v1016h295v-942q0 -305 -121 -442 q-122 -138 -389 -138z" />
<glyph unicode="&#xdc;" d="M331 1606q-30 0 -30 30v186q0 30 30 30h176q30 0 30 -30v-186q0 -30 -30 -30h-176zM726 1606q-30 0 -30 30v186q0 30 30 30h176q30 0 30 -30v-186q0 -30 -30 -30h-176zM616 -29q-267 0 -388 138q-122 139 -122 442v942h295v-1016q0 -57 15 -101.5t42 -74.5 q29 -32 69.5 -47.5t88.5 -15.5t88.5 15.5t69.5 47.5q27 30 42 74.5t15 101.5v1016h295v-942q0 -305 -121 -442q-122 -138 -389 -138z" />
<glyph unicode="&#xdd;" d="M668 1852h284l-286 -264h-197zM469 588l-461 905h318l290 -600l291 600h318l-461 -905v-588h-295v588z" />
<glyph unicode="&#xde;" d="M162 1493h295v-238h110q309 0 445 -109q68 -55 101.5 -144.5t33.5 -210.5q0 -242 -137 -350q-70 -56 -180.5 -82.5t-262.5 -26.5h-110v-332h-295v1493zM578 575q146 0 204 49t58 169q0 122 -58 171q-59 50 -204 50h-121v-439h121z" />
<glyph unicode="&#xdf;" d="M759 -29q-32 0 -64.5 3t-61.5 9q-26 5 -60.5 15t-68.5 22v250q29 -16 58 -27.5t58 -19.5q27 -8 53.5 -12t55.5 -4q42 0 70 9t48 25t31 38t11 49q0 42 -29 80.5t-86 83.5q-8 6 -11 8t-6 4.5t-8.5 6.5t-19.5 15l-86 68q-29 23 -51.5 51.5t-37.5 60.5q-30 63 -30 141 q0 125 74 211q39 45 91.5 72.5t119.5 43.5q-5 39 -20.5 67t-37.5 44q-25 18 -60 27t-77 9q-46 0 -83 -11.5t-63 -38.5q-48 -51 -48 -149v-1122h-293v1126q0 212 121 321q63 57 150 83t196 26q117 0 198.5 -29t135.5 -89q106 -118 106 -365v-14q-72 -4 -115.5 -17.5 t-72.5 -33.5q-32 -23 -49 -53.5t-17 -65.5q0 -21 6.5 -40t21 -37.5t36.5 -39t52 -44.5q13 -11 15.5 -12.5t3.5 -2.5l97 -74q45 -34 73.5 -67t48.5 -71q19 -36 29.5 -78t10.5 -93q0 -79 -27 -146.5t-84 -116.5q-57 -48 -135 -72t-169 -24z" />
<glyph unicode="&#xe0;" d="M199 1673h282l283 -376h-197zM494 -29q-91 0 -164.5 25t-127.5 76q-107 101 -107 282q0 96 30.5 169t96.5 121q127 93 393 93h203v49q0 37 -13.5 64t-37.5 44q-26 19 -65.5 27.5t-91.5 8.5q-48 0 -98.5 -6.5t-99.5 -19.5q-48 -13 -100 -34.5t-106 -50.5v250 q42 17 94.5 33.5t102.5 25.5q41 8 100 14t125 6q70 0 126.5 -8t102 -23t80 -36t60.5 -46q27 -27 48 -62t35.5 -82.5t21.5 -108t7 -138.5q0 -19 -0.5 -50t-1 -68t-1 -76.5t-1 -74.5t-1 -62t-0.5 -39q0 -21 0.5 -42t1.5 -35q2 -20 3.5 -39.5t3.5 -32.5q3 -20 7 -38.5t7 -28.5 q5 -15 12.5 -31t15.5 -27h-290q-9 15 -16.5 31t-11.5 27q-3 10 -7 28.5t-6 38.5q-55 -73 -142 -114q-42 -20 -86.5 -30t-101.5 -10zM576 174q56 0 101 21.5t77 66.5q64 86 64 244v20h-117q-165 0 -229 -42q-65 -42 -65 -142q0 -41 11 -70.5t34 -52.5q45 -45 124 -45z" />
<glyph unicode="&#xe1;" d="M752 1673h282l-368 -376h-197zM494 -29q-91 0 -164.5 25t-127.5 76q-107 101 -107 282q0 96 30.5 169t96.5 121q127 93 393 93h203v49q0 37 -13.5 64t-37.5 44q-26 19 -65.5 27.5t-91.5 8.5q-48 0 -98.5 -6.5t-99.5 -19.5q-48 -13 -100 -34.5t-106 -50.5v250 q42 17 94.5 33.5t102.5 25.5q41 8 100 14t125 6q70 0 126.5 -8t102 -23t80 -36t60.5 -46q27 -27 48 -62t35.5 -82.5t21.5 -108t7 -138.5q0 -19 -0.5 -50t-1 -68t-1 -76.5t-1 -74.5t-1 -62t-0.5 -39q0 -21 0.5 -42t1.5 -35q2 -20 3.5 -39.5t3.5 -32.5q3 -20 7 -38.5t7 -28.5 q5 -15 12.5 -31t15.5 -27h-290q-9 15 -16.5 31t-11.5 27q-3 10 -7 28.5t-6 38.5q-55 -73 -142 -114q-42 -20 -86.5 -30t-101.5 -10zM576 174q56 0 101 21.5t77 66.5q64 86 64 244v20h-117q-165 0 -229 -42q-65 -42 -65 -142q0 -41 11 -70.5t34 -52.5q45 -45 124 -45z" />
<glyph unicode="&#xe2;" d="M496 1672h241l256 -376h-178l-199 225l-198 -225h-178zM494 -29q-91 0 -164.5 25t-127.5 76q-107 101 -107 282q0 96 30.5 169t96.5 121q127 93 393 93h203v49q0 37 -13.5 64t-37.5 44q-26 19 -65.5 27.5t-91.5 8.5q-48 0 -98.5 -6.5t-99.5 -19.5q-48 -13 -100 -34.5 t-106 -50.5v250q42 17 94.5 33.5t102.5 25.5q41 8 100 14t125 6q70 0 126.5 -8t102 -23t80 -36t60.5 -46q27 -27 48 -62t35.5 -82.5t21.5 -108t7 -138.5q0 -19 -0.5 -50t-1 -68t-1 -76.5t-1 -74.5t-1 -62t-0.5 -39q0 -21 0.5 -42t1.5 -35q2 -20 3.5 -39.5t3.5 -32.5 q3 -20 7 -38.5t7 -28.5q5 -15 12.5 -31t15.5 -27h-290q-9 15 -16.5 31t-11.5 27q-3 10 -7 28.5t-6 38.5q-55 -73 -142 -114q-42 -20 -86.5 -30t-101.5 -10zM576 174q56 0 101 21.5t77 66.5q64 86 64 244v20h-117q-165 0 -229 -42q-65 -42 -65 -142q0 -41 11 -70.5t34 -52.5 q45 -45 124 -45z" />
<glyph unicode="&#xe3;" d="M768 1317q-36 0 -69 12t-81 45l-67 45q-22 14 -39 21.5t-33 7.5q-19 0 -31.5 -8.5t-20.5 -22.5q-19 -31 -19 -90v-8h-140q0 71 13.5 123.5t38.5 87.5q23 33 59 53t86 20q37 0 72 -13q20 -8 38 -18.5t39 -25.5l62 -43q13 -9 21 -13.5t19 -9.5q19 -8 35 -8q35 0 55 32 q19 31 19 89v8h140q0 -137 -51 -210q-24 -35 -60.5 -54.5t-85.5 -19.5zM494 -29q-91 0 -164.5 25t-127.5 76q-107 101 -107 282q0 96 30.5 169t96.5 121q127 93 393 93h203v49q0 37 -13.5 64t-37.5 44q-26 19 -65.5 27.5t-91.5 8.5q-48 0 -98.5 -6.5t-99.5 -19.5 q-48 -13 -100 -34.5t-106 -50.5v250q42 17 94.5 33.5t102.5 25.5q41 8 100 14t125 6q70 0 126.5 -8t102 -23t80 -36t60.5 -46q27 -27 48 -62t35.5 -82.5t21.5 -108t7 -138.5q0 -19 -0.5 -50t-1 -68t-1 -76.5t-1 -74.5t-1 -62t-0.5 -39q0 -21 0.5 -42t1.5 -35 q2 -20 3.5 -39.5t3.5 -32.5q3 -20 7 -38.5t7 -28.5q5 -15 12.5 -31t15.5 -27h-290q-9 15 -16.5 31t-11.5 27q-3 10 -7 28.5t-6 38.5q-55 -73 -142 -114q-42 -20 -86.5 -30t-101.5 -10zM576 174q56 0 101 21.5t77 66.5q64 86 64 244v20h-117q-165 0 -229 -42 q-65 -42 -65 -142q0 -41 11 -70.5t34 -52.5q45 -45 124 -45z" />
<glyph unicode="&#xe4;" d="M331 1359q-30 0 -30 30v186q0 30 30 30h176q30 0 30 -30v-186q0 -30 -30 -30h-176zM726 1359q-30 0 -30 30v186q0 30 30 30h176q30 0 30 -30v-186q0 -30 -30 -30h-176zM494 -29q-91 0 -164.5 25t-127.5 76q-107 101 -107 282q0 96 30.5 169t96.5 121q127 93 393 93h203 v49q0 37 -13.5 64t-37.5 44q-26 19 -65.5 27.5t-91.5 8.5q-48 0 -98.5 -6.5t-99.5 -19.5q-48 -13 -100 -34.5t-106 -50.5v250q42 17 94.5 33.5t102.5 25.5q41 8 100 14t125 6q70 0 126.5 -8t102 -23t80 -36t60.5 -46q27 -27 48 -62t35.5 -82.5t21.5 -108t7 -138.5 q0 -19 -0.5 -50t-1 -68t-1 -76.5t-1 -74.5t-1 -62t-0.5 -39q0 -21 0.5 -42t1.5 -35q2 -20 3.5 -39.5t3.5 -32.5q3 -20 7 -38.5t7 -28.5q5 -15 12.5 -31t15.5 -27h-290q-9 15 -16.5 31t-11.5 27q-3 10 -7 28.5t-6 38.5q-55 -73 -142 -114q-42 -20 -86.5 -30t-101.5 -10z M576 174q56 0 101 21.5t77 66.5q64 86 64 244v20h-117q-165 0 -229 -42q-65 -42 -65 -142q0 -41 11 -70.5t34 -52.5q45 -45 124 -45z" />
<glyph unicode="&#xe5;" d="M617 1249q-57 0 -109.5 21t-93.5 62q-35 35 -58.5 87.5t-23.5 115.5q0 64 24 115.5t59 86.5q41 41 92.5 61.5t108.5 20.5q62 0 113.5 -22.5t88.5 -59.5q36 -36 59.5 -88t23.5 -115q0 -57 -20.5 -108t-61.5 -93q-42 -42 -93.5 -63t-108.5 -21zM617 1403q54 0 93 39 q38 38 38 92t-39 93q-40 38 -93 38q-54 0 -92 -38q-39 -39 -39 -93q0 -55 38 -93q16 -16 40 -27t54 -11zM494 -29q-91 0 -164.5 25t-127.5 76q-107 101 -107 282q0 96 30.5 169t96.5 121q127 93 393 93h203v49q0 37 -13.5 64t-37.5 44q-26 19 -65.5 27.5t-91.5 8.5 q-48 0 -98.5 -6.5t-99.5 -19.5q-48 -13 -100 -34.5t-106 -50.5v250q42 17 94.5 33.5t102.5 25.5q41 8 100 14t125 6q70 0 126.5 -8t102 -23t80 -36t60.5 -46q27 -27 48 -62t35.5 -82.5t21.5 -108t7 -138.5q0 -19 -0.5 -50t-1 -68t-1 -76.5t-1 -74.5t-1 -62t-0.5 -39 q0 -21 0.5 -42t1.5 -35q2 -20 3.5 -39.5t3.5 -32.5q3 -20 7 -38.5t7 -28.5q5 -15 12.5 -31t15.5 -27h-290q-9 15 -16.5 31t-11.5 27q-3 10 -7 28.5t-6 38.5q-55 -73 -142 -114q-42 -20 -86.5 -30t-101.5 -10zM576 174q56 0 101 21.5t77 66.5q64 86 64 244v20h-117 q-165 0 -229 -42q-65 -42 -65 -142q0 -41 11 -70.5t34 -52.5q45 -45 124 -45z" />
<glyph unicode="&#xe6;" d="M346 -29q-158 0 -245 92q-87 93 -87 263q0 185 101 277q100 91 305 91h76v51q0 93 -39 140t-114 47q-32 0 -64 -7.5t-61 -19.5t-66 -32.5t-76 -49.5v246q75 40 144 59t137 19q46 0 86 -7.5t72 -23.5q62 -31 97 -96q28 61 95 94q66 33 158 33q91 0 151.5 -29.5t97.5 -89.5 q18 -29 31.5 -67t23 -89t14.5 -117t5 -149v-127h-451q0 -143 50 -219q23 -35 58 -55.5t87 -20.5q34 0 63 8t57 22q26 13 55.5 33t63.5 54v-244q-50 -44 -112 -65q-32 -11 -68.5 -16t-74.5 -5q-55 0 -99 10.5t-82 31.5q-75 42 -117 122q-20 -42 -47 -73t-59 -51 q-65 -40 -166 -40zM963 690v23q0 126 -25 172q-26 47 -88 47t-88 -47q-25 -46 -25 -172v-23h226zM365 184q63 0 94 43q30 43 30 131v125h-73q-86 0 -131 -39t-45 -115q0 -69 32 -107t93 -38z" />
<glyph unicode="&#xe7;" d="M761 909q-75 0 -128.5 -23.5t-90.5 -67.5q-77 -92 -77 -259t77 -258q76 -90 220 -90q84 0 159 29q32 12 68.5 33t71.5 53v-269q-40 -23 -78.5 -38t-80.5 -26q-50 -12 -101 -18q22 -26 37.5 -49t25.5 -41q27 -51 27 -106q0 -46 -16.5 -79.5t-45.5 -55.5 q-26 -20 -69.5 -32.5t-116.5 -12.5q-24 0 -49.5 1.5t-50.5 4.5q-38 5 -59.5 10t-44.5 10v156q23 -8 44.5 -14.5t42.5 -11.5q42 -9 78 -9q57 0 91 23q32 23 32 61q0 28 -21 69q-8 16 -19.5 34.5t-27.5 39.5q-110 8 -195.5 46.5t-149.5 107.5q-146 157 -146 432q0 276 147 434 q147 156 404 156q92 0 176 -21q83 -21 166 -65v-268q-32 28 -68.5 49.5t-71.5 35.5t-76 21.5t-84 7.5z" />
<glyph unicode="&#xe8;" d="M238 1673h282l283 -376h-197zM675 -29q-146 0 -252.5 37.5t-181.5 113.5q-149 152 -149 432q0 140 35.5 247t107.5 187q142 159 392 159q118 0 216 -35.5t169 -111.5t104 -181.5t33 -234.5v-119h-759q2 -133 78 -197q77 -65 229 -65q101 0 200 29q46 14 97 36t108 56 v-269q-102 -42 -208 -63q-54 -11 -109.5 -16t-109.5 -5zM854 685q-2 117 -59 176q-27 28 -69.5 43.5t-98.5 15.5q-103 0 -163 -61q-60 -62 -71 -175z" />
<glyph unicode="&#xe9;" d="M781 1672h282l-368 -376h-197zM665 -29q-146 0 -252.5 37.5t-181.5 113.5q-149 152 -149 432q0 140 35.5 247t107.5 187q142 159 392 159q118 0 216 -35.5t169 -111.5t104 -181.5t33 -234.5v-119h-759q2 -133 78 -197q77 -65 229 -65q101 0 200 29q46 14 97 36t108 56 v-269q-102 -42 -208 -63q-54 -11 -109.5 -16t-109.5 -5zM844 685q-2 117 -59 176q-27 28 -69.5 43.5t-98.5 15.5q-103 0 -163 -61q-60 -62 -71 -175z" />
<glyph unicode="&#xea;" d="M525 1673h241l256 -376h-178l-199 225l-198 -225h-178zM665 -29q-146 0 -252.5 37.5t-181.5 113.5q-149 152 -149 432q0 140 35.5 247t107.5 187q142 159 392 159q118 0 216 -35.5t169 -111.5t104 -181.5t33 -234.5v-119h-759q2 -133 78 -197q77 -65 229 -65 q101 0 200 29q46 14 97 36t108 56v-269q-102 -42 -208 -63q-54 -11 -109.5 -16t-109.5 -5zM844 685q-2 117 -59 176q-27 28 -69.5 43.5t-98.5 15.5q-103 0 -163 -61q-60 -62 -71 -175z" />
<glyph unicode="&#xeb;" d="M360 1349q-30 0 -30 30v186q0 30 30 30h176q30 0 30 -30v-186q0 -30 -30 -30h-176zM755 1349q-30 0 -30 30v186q0 30 30 30h176q30 0 30 -30v-186q0 -30 -30 -30h-176zM665 -29q-146 0 -252.5 37.5t-181.5 113.5q-149 152 -149 432q0 140 35.5 247t107.5 187 q142 159 392 159q118 0 216 -35.5t169 -111.5t104 -181.5t33 -234.5v-119h-759q2 -133 78 -197q77 -65 229 -65q101 0 200 29q46 14 97 36t108 56v-269q-102 -42 -208 -63q-54 -11 -109.5 -16t-109.5 -5zM844 685q-2 117 -59 176q-27 28 -69.5 43.5t-98.5 15.5 q-103 0 -163 -61q-60 -62 -71 -175z" />
<glyph unicode="&#xec;" d="M159 1683h282l283 -376h-197zM822 -12q-209 0 -300 108q-91 107 -91 359v440h-247v225h540v-665q0 -131 41 -187q40 -55 139 -55h234v-225h-316z" />
<glyph unicode="&#xed;" d="M694 1673h282l-368 -376h-197zM802 -12q-209 0 -300 108q-91 107 -91 359v440h-227v225h520v-665q0 -131 41 -187q40 -55 139 -55h234v-225h-316z" />
<glyph unicode="&#xee;" d="M440 1673h241l256 -376h-178l-199 225l-198 -225h-178zM812 -12q-209 0 -300 108q-91 107 -91 359v440h-237v225h530v-665q0 -131 41 -187q40 -55 139 -55h234v-225h-316z" />
<glyph unicode="&#xef;" d="M261 1320q-30 0 -30 30v186q0 30 30 30h176q30 0 30 -30v-186q0 -30 -30 -30h-176zM656 1320q-30 0 -30 30v186q0 30 30 30h176q30 0 30 -30v-186q0 -30 -30 -30h-176zM812 -12q-209 0 -300 108q-91 107 -91 359v440h-237v225h530v-665q0 -131 41 -187q40 -55 139 -55 h234v-225h-316z" />
<glyph unicode="&#xf0;" d="M613 -29q-125 0 -219 41t-158 112q-69 77 -103.5 181t-34.5 229q0 239 129 379q61 66 148 103t199 37q41 0 73 -6t58 -19l-160 219l-312 -119l-55 117l283 109l-158 202h293l92 -116l297 127l66 -123l-277 -117l166 -227q51 -70 86 -135t57 -128q43 -126 43 -278 q0 -137 -34 -246t-101 -186t-162.5 -116.5t-215.5 -39.5zM613 209q57 0 98.5 24.5t67.5 66.5q29 45 43 111t14 145q0 26 -1.5 52.5t-4.5 48.5q-2 17 -7.5 46.5t-11.5 56.5q-33 18 -56 27t-42 14q-51 14 -96 14q-52 0 -95 -18.5t-73 -53.5q-29 -35 -44.5 -86t-15.5 -122 q0 -72 15.5 -133t44.5 -104q59 -89 164 -89z" />
<glyph unicode="&#xf1;" d="M768 1297q-36 0 -69 12t-81 45l-67 45q-22 14 -39 21.5t-33 7.5q-19 0 -31.5 -8.5t-20.5 -22.5q-19 -31 -19 -90v-8h-140q0 71 13.5 123.5t38.5 87.5q23 33 59 53t86 20q37 0 72 -13q20 -8 38 -18.5t39 -25.5l62 -43q13 -9 21 -13.5t19 -9.5q19 -8 35 -8q35 0 55 32 q19 31 19 89v8h140q0 -137 -51 -210q-24 -35 -60.5 -54.5t-85.5 -19.5zM172 1120h262l29 -168q32 93 106 144q75 51 182 51q158 0 239 -105q81 -107 81 -315v-727h-291v682q0 123 -34 175q-17 26 -45.5 39t-64.5 13q-43 0 -73.5 -18t-53.5 -53q-22 -34 -34 -81t-12 -116 v-641h-291v1120z" />
<glyph unicode="&#xf2;" d="M199 1596h282l283 -299h-197zM617 -29q-128 0 -222 43.5t-157 114.5q-70 79 -105 189t-35 242q0 134 35.5 242.5t104.5 186.5t164.5 118t213.5 40q123 0 218 -41.5t161 -115.5t103 -181.5t37 -249.5q0 -134 -35 -242t-104 -187q-66 -75 -161.5 -117t-217.5 -42zM616 209 q106 0 166 92q60 93 60 259q0 164 -60 257q-31 48 -73 70t-93 22q-56 0 -96.5 -24.5t-68.5 -67.5q-60 -93 -60 -257q0 -166 60 -259q60 -92 165 -92z" />
<glyph unicode="&#xf3;" d="M752 1596h282l-368 -299h-197zM617 -29q-128 0 -222 43.5t-157 114.5q-70 79 -105 189t-35 242q0 134 35.5 242.5t104.5 186.5t164.5 118t213.5 40q123 0 218 -41.5t161 -115.5t103 -181.5t37 -249.5q0 -134 -35 -242t-104 -187q-66 -75 -161.5 -117t-217.5 -42zM616 209 q106 0 166 92q60 93 60 259q0 164 -60 257q-31 48 -73 70t-93 22q-56 0 -96.5 -24.5t-68.5 -67.5q-60 -93 -60 -257q0 -166 60 -259q60 -92 165 -92z" />
<glyph unicode="&#xf4;" d="M496 1596h241l256 -299h-178l-199 147l-198 -147h-178zM617 -29q-128 0 -222 43.5t-157 114.5q-70 79 -105 189t-35 242q0 134 35.5 242.5t104.5 186.5t164.5 118t213.5 40q123 0 218 -41.5t161 -115.5t103 -181.5t37 -249.5q0 -134 -35 -242t-104 -187 q-66 -75 -161.5 -117t-217.5 -42zM616 209q106 0 166 92q60 93 60 259q0 164 -60 257q-31 48 -73 70t-93 22q-56 0 -96.5 -24.5t-68.5 -67.5q-60 -93 -60 -257q0 -166 60 -259q60 -92 165 -92z" />
<glyph unicode="&#xf5;" d="M768 1297q-21 0 -36.5 3.5t-30.5 8.5q-23 8 -40 18t-43 27l-67 45q-44 29 -72 29q-31 0 -51 -32t-20 -89v-8h-140v33q0 114 54 183t143 69q37 0 72 -13q20 -8 38 -19t39 -26l62 -43q14 -10 22.5 -14t17.5 -8q19 -8 35 -8q36 0 55 31t19 89v9h140v-8t-1 -9t-1 -8.5v-5.5 q0 -117 -53 -185q-26 -33 -61 -51t-81 -18zM617 -29q-128 0 -222 43.5t-157 114.5q-70 79 -105 189t-35 242q0 134 35.5 242.5t104.5 186.5t164.5 118t213.5 40q123 0 218 -41.5t161 -115.5t103 -181.5t37 -249.5q0 -134 -35 -242t-104 -187q-66 -75 -161.5 -117t-217.5 -42 zM616 209q106 0 166 92q60 93 60 259q0 164 -60 257q-31 48 -73 70t-93 22q-56 0 -96.5 -24.5t-68.5 -67.5q-60 -93 -60 -257q0 -166 60 -259q60 -92 165 -92z" />
<glyph unicode="&#xf6;" d="M331 1347q-30 0 -30 30v186q0 30 30 30h176q30 0 30 -30v-186q0 -30 -30 -30h-176zM726 1347q-30 0 -30 30v186q0 30 30 30h176q30 0 30 -30v-186q0 -30 -30 -30h-176zM617 -29q-128 0 -222 43.5t-157 114.5q-70 79 -105 189t-35 242q0 134 35.5 242.5t104.5 186.5 t164.5 118t213.5 40q123 0 218 -41.5t161 -115.5t103 -181.5t37 -249.5q0 -134 -35 -242t-104 -187q-66 -75 -161.5 -117t-217.5 -42zM616 209q106 0 166 92q60 93 60 259q0 164 -60 257q-31 48 -73 70t-93 22q-56 0 -96.5 -24.5t-68.5 -67.5q-60 -93 -60 -257 q0 -166 60 -259q60 -92 165 -92z" />
<glyph unicode="&#xf7;" d="M491 889q-30 0 -30 30v249q0 30 30 30h249q30 0 30 -30v-249q0 -30 -30 -30h-249zM66 762h1099v-238h-1099v238zM491 86q-30 0 -30 30v249q0 30 30 30h249q30 0 30 -30v-249q0 -30 -30 -30h-249z" />
<glyph unicode="&#xf8;" d="M25 2l163 197q-44 72 -67 162t-23 198q0 135 35.5 243.5t104.5 186.5q70 79 166 118.5t211 39.5q42 0 83.5 -5t76.5 -16q33 -10 69.5 -27t70.5 -40l148 176l139 -121l-160 -188q25 -41 42.5 -85.5t27.5 -82.5q11 -42 17 -93t6 -108q0 -131 -35 -239.5t-104 -187.5 q-66 -75 -161 -117t-215 -42q-45 0 -84.5 6t-77.5 17t-72 27t-71 40l-151 -178zM745 860q-25 25 -57 37t-70 12q-106 0 -166 -92q-61 -92 -61 -258q0 -18 0.5 -32.5t1.5 -27.5q1 -12 1.5 -21t4.5 -29zM617 209q106 0 165 93q30 48 45 113t15 138q0 17 -0.5 35t-1.5 29 q-1 9 -3.5 26.5t-5.5 31.5l-348 -413q31 -26 64 -40q32 -13 70 -13z" />
<glyph unicode="&#xf9;" d="M199 1646h282l283 -376h-197zM481 -29q-75 0 -135.5 25t-103.5 81q-82 106 -82 314v729h293v-684q0 -121 34 -173q17 -26 45.5 -39t65.5 -13q38 0 70 16t56 54q44 71 44 196v643h293v-1120h-264l-29 166q-32 -93 -105 -144q-75 -51 -182 -51z" />
<glyph unicode="&#xfa;" d="M752 1646h282l-368 -376h-197zM481 -29q-75 0 -135.5 25t-103.5 81q-82 106 -82 314v729h293v-684q0 -121 34 -173q17 -26 45.5 -39t65.5 -13q38 0 70 16t56 54q44 71 44 196v643h293v-1120h-264l-29 166q-32 -93 -105 -144q-75 -51 -182 -51z" />
<glyph unicode="&#xfb;" d="M496 1646h241l256 -376h-178l-199 225l-198 -225h-178zM481 -29q-75 0 -135.5 25t-103.5 81q-82 106 -82 314v729h293v-684q0 -121 34 -173q17 -26 45.5 -39t65.5 -13q38 0 70 16t56 54q44 71 44 196v643h293v-1120h-264l-29 166q-32 -93 -105 -144q-75 -51 -182 -51z " />
<glyph unicode="&#xfc;" d="M331 1320q-30 0 -30 30v186q0 30 30 30h176q30 0 30 -30v-186q0 -30 -30 -30h-176zM726 1320q-30 0 -30 30v186q0 30 30 30h176q30 0 30 -30v-186q0 -30 -30 -30h-176zM481 -29q-75 0 -135.5 25t-103.5 81q-82 106 -82 314v729h293v-684q0 -121 34 -173q17 -26 45.5 -39 t65.5 -13q38 0 70 16t56 54q44 71 44 196v643h293v-1120h-264l-29 166q-32 -93 -105 -144q-75 -51 -182 -51z" />
<glyph unicode="&#xfd;" d="M762 1646h282l-368 -376h-197zM137 -201h119q42 0 76.5 7t55.5 23q23 17 45.5 57t39.5 85l22 60l-426 1089h308l256 -727l245 727h308l-465 -1241q-32 -85 -67.5 -141t-73.5 -90t-88 -53t-113 -19h-242v223z" />
<glyph unicode="&#xfe;" d="M150 1556h292v-604q46 97 121 146q74 49 177 49q94 0 168.5 -38t128.5 -115q54 -78 80 -188.5t26 -247.5q0 -146 -28 -254.5t-79 -180.5q-55 -78 -132.5 -115t-168.5 -37q-47 0 -88.5 10.5t-79.5 36.5q-32 21 -65.5 56.5t-59.5 83.5v-584h-292v1982zM647 215q95 0 149 92 q54 91 54 254q0 162 -54 254t-149 92q-94 0 -150 -92q-55 -91 -55 -254t55 -254q56 -92 150 -92z" />
<glyph unicode="&#xff;" d="M341 1320q-30 0 -30 30v186q0 30 30 30h176q30 0 30 -30v-186q0 -30 -30 -30h-176zM736 1320q-30 0 -30 30v186q0 30 30 30h176q30 0 30 -30v-186q0 -30 -30 -30h-176zM137 -201h119q42 0 76.5 7t55.5 23q23 17 45.5 57t39.5 85l22 60l-426 1089h308l256 -727l245 727 h308l-465 -1241q-32 -85 -67.5 -141t-73.5 -90t-88 -53t-113 -19h-242v223z" />
<glyph unicode="&#x100;" d="M301 1823h631v-188h-631v188zM436 1493h361l403 -1493h-295l-92 369h-395l-90 -369h-295zM756 612l-140 611l-139 -611h279z" />
<glyph unicode="&#x101;" d="M301 1535h631v-188h-631v188zM494 -29q-91 0 -164.5 25t-127.5 76q-107 101 -107 282q0 96 30.5 169t96.5 121q127 93 393 93h203v49q0 37 -13.5 64t-37.5 44q-26 19 -65.5 27.5t-91.5 8.5q-48 0 -98.5 -6.5t-99.5 -19.5q-48 -13 -100 -34.5t-106 -50.5v250 q42 17 94.5 33.5t102.5 25.5q41 8 100 14t125 6q70 0 126.5 -8t102 -23t80 -36t60.5 -46q27 -27 48 -62t35.5 -82.5t21.5 -108t7 -138.5q0 -19 -0.5 -50t-1 -68t-1 -76.5t-1 -74.5t-1 -62t-0.5 -39q0 -21 0.5 -42t1.5 -35q2 -20 3.5 -39.5t3.5 -32.5q3 -20 7 -38.5t7 -28.5 q5 -15 12.5 -31t15.5 -27h-290q-9 15 -16.5 31t-11.5 27q-3 10 -7 28.5t-6 38.5q-55 -73 -142 -114q-42 -20 -86.5 -30t-101.5 -10zM576 174q56 0 101 21.5t77 66.5q64 86 64 244v20h-117q-165 0 -229 -42q-65 -42 -65 -142q0 -41 11 -70.5t34 -52.5q45 -45 124 -45z" />
<glyph unicode="&#x102;" d="M616 1588q-148 0 -234 67t-101 197h141q41 -121 196 -121q151 0 191 121h143q-15 -130 -101 -197t-235 -67zM436 1493h361l403 -1493h-295l-92 369h-395l-90 -369h-295zM756 612l-140 611l-139 -611h279z" />
<glyph unicode="&#x103;" d="M616 1297q-157 0 -243 76t-92 221h141q11 -69 60.5 -106.5t133.5 -37.5t133 37t60 107h143q-6 -145 -92 -221t-244 -76zM494 -29q-91 0 -164.5 25t-127.5 76q-107 101 -107 282q0 96 30.5 169t96.5 121q127 93 393 93h203v49q0 37 -13.5 64t-37.5 44q-26 19 -65.5 27.5 t-91.5 8.5q-48 0 -98.5 -6.5t-99.5 -19.5q-48 -13 -100 -34.5t-106 -50.5v250q42 17 94.5 33.5t102.5 25.5q41 8 100 14t125 6q70 0 126.5 -8t102 -23t80 -36t60.5 -46q27 -27 48 -62t35.5 -82.5t21.5 -108t7 -138.5q0 -19 -0.5 -50t-1 -68t-1 -76.5t-1 -74.5t-1 -62 t-0.5 -39q0 -21 0.5 -42t1.5 -35q2 -20 3.5 -39.5t3.5 -32.5q3 -20 7 -38.5t7 -28.5q5 -15 12.5 -31t15.5 -27h-290q-9 15 -16.5 31t-11.5 27q-3 10 -7 28.5t-6 38.5q-55 -73 -142 -114q-42 -20 -86.5 -30t-101.5 -10zM576 174q56 0 101 21.5t77 66.5q64 86 64 244v20h-117 q-165 0 -229 -42q-65 -42 -65 -142q0 -41 11 -70.5t34 -52.5q45 -45 124 -45z" />
<glyph unicode="&#x104;" d="M1081 -254q31 0 69.5 7.5t78.5 23.5v-156q-54 -11 -101.5 -16.5t-85.5 -5.5q-117 0 -179 45.5t-62 131.5q0 55 27 109t84 115h-7l-92 369h-395l-90 -369h-295l403 1493h361l403 -1493h-147q-17 -23 -29 -40t-20 -29t-13 -21t-9 -16q-10 -18 -14.5 -32t-4.5 -28 q0 -35 28 -61.5t90 -26.5zM756 612l-140 611l-139 -611h279z" />
<glyph unicode="&#x105;" d="M1036 -252q31 0 69.5 7.5t78.5 23.5v-156q-54 -11 -101.5 -16.5t-85.5 -5.5q-117 0 -179 45.5t-62 131.5q0 54 26.5 108t82.5 114q-9 15 -16.5 31t-11.5 27q-3 10 -7 28.5t-6 38.5q-55 -73 -142 -114q-42 -20 -86.5 -30t-101.5 -10q-91 0 -164.5 25t-127.5 76 q-107 101 -107 282q0 96 30.5 169t96.5 121q127 93 393 93h203v49q0 37 -13.5 64t-37.5 44q-26 19 -65.5 27.5t-91.5 8.5q-48 0 -98.5 -6.5t-99.5 -19.5q-48 -13 -100 -34.5t-106 -50.5v250q42 17 94.5 33.5t102.5 25.5q41 8 100 14t125 6q70 0 126.5 -8t102 -23t80 -36 t60.5 -46q27 -27 48 -62t35.5 -82.5t21.5 -108t7 -138.5q0 -19 -0.5 -50t-1 -68t-1 -76.5t-1 -74.5t-1 -62t-0.5 -39q0 -21 0.5 -42t1.5 -35q2 -20 3.5 -39.5t3.5 -32.5q3 -20 7 -38.5t7 -28.5q5 -15 12.5 -31t15.5 -27h-148q-17 -23 -28.5 -39t-19.5 -28t-13 -21t-9 -16 q-10 -18 -14.5 -32t-4.5 -28q0 -35 28 -61.5t90 -26.5zM818 526h-117q-165 0 -229 -42q-65 -42 -65 -142q0 -41 11 -70.5t34 -52.5q45 -45 124 -45q56 0 101 21.5t77 66.5q64 86 64 244v20z" />
<glyph unicode="&#x106;" d="M794 1852h284l-286 -264h-197zM759 -29q-149 0 -264 49.5t-195 149.5q-159 199 -159 575t159 576q80 100 195 149.5t264 49.5q45 0 85.5 -4.5t79.5 -13.5q79 -18 146 -54v-328q-45 42 -80.5 65.5t-67.5 37.5q-38 17 -74.5 24.5t-73.5 7.5q-160 0 -243 -128 q-83 -130 -83 -382t83 -380q82 -129 243 -129q77 0 149 33q35 16 69.5 39.5t77.5 62.5v-328q-71 -36 -147 -54q-38 -9 -78.5 -13.5t-85.5 -4.5z" />
<glyph unicode="&#x107;" d="M854 1672h282l-368 -376h-197zM722 -29q-263 0 -408 156q-146 157 -146 432q0 276 147 434q147 156 404 156q92 0 176 -21q83 -21 166 -65v-268q-32 28 -68.5 49.5t-71.5 35.5t-76 21.5t-84 7.5q-75 0 -128.5 -23.5t-90.5 -67.5q-77 -92 -77 -259t77 -258q76 -90 220 -90 q84 0 159 29q32 12 68.5 33t71.5 53v-269q-40 -23 -78.5 -38t-80.5 -26t-85 -16.5t-95 -5.5z" />
<glyph unicode="&#x10a;" d="M599 1596q-13 0 -22 9t-9 22v184q0 13 9 22t22 9h213q13 0 22 -9t9 -22v-184q0 -13 -9 -22t-22 -9h-213zM757 -29q-149 0 -264 50.5t-193 148.5t-118.5 242.5t-40.5 332.5q0 189 40.5 333.5t118.5 242.5t193 148.5t264 50.5q176 0 313 -72v-328q-76 70 -147.5 102.5 t-150.5 32.5q-160 0 -242 -128t-82 -382t82 -381.5t242 -127.5q79 0 150.5 32.5t147.5 102.5v-328q-70 -36 -147 -54t-166 -18z" />
<glyph unicode="&#x10b;" d="M584 1349q-30 0 -30 30v186q0 30 30 30h215q30 0 30 -30v-186q0 -30 -30 -30h-215zM722 -29q-131 0 -234 40t-174 116t-108.5 184.5t-37.5 246.5q0 139 38 248.5t109 185.5t174 116.5t232 40.5q91 0 173.5 -20.5t166.5 -65.5v-268q-64 55 -140.5 84.5t-158.5 29.5 q-144 0 -220.5 -90.5t-76.5 -260.5q0 -168 76.5 -257.5t223.5 -89.5q85 0 159 29.5t137 85.5v-269q-149 -86 -339 -86z" />
<glyph unicode="&#x10c;" d="M366 1852h178l198 -162l199 162h178l-223 -264h-309zM759 -29q-149 0 -264 49.5t-195 149.5q-159 199 -159 575t159 576q80 100 195 149.5t264 49.5q45 0 85.5 -4.5t79.5 -13.5q79 -18 146 -54v-328q-45 42 -80.5 65.5t-67.5 37.5q-38 17 -74.5 24.5t-73.5 7.5 q-160 0 -243 -128q-83 -130 -83 -382t83 -380q82 -129 243 -129q77 0 149 33q35 16 69.5 39.5t77.5 62.5v-328q-71 -36 -147 -54q-38 -9 -78.5 -13.5t-85.5 -4.5z" />
<glyph unicode="&#x10d;" d="M342 1675h178l198 -227l199 227h178l-256 -376h-241zM722 -29q-263 0 -408 156q-146 157 -146 432q0 276 147 434q147 156 404 156q92 0 176 -21q83 -21 166 -65v-268q-32 28 -68.5 49.5t-71.5 35.5t-76 21.5t-84 7.5q-75 0 -128.5 -23.5t-90.5 -67.5q-77 -92 -77 -259 t77 -258q76 -90 220 -90q84 0 159 29q32 12 68.5 33t71.5 53v-269q-40 -23 -78.5 -38t-80.5 -26t-85 -16.5t-95 -5.5z" />
<glyph unicode="&#x10e;" d="M227 1860h178l198 -162l199 162h178l-223 -264h-309zM137 1493h316q183 0 313.5 -42t213.5 -132.5t122 -231.5t39 -339t-39 -340t-122 -232.5t-213.5 -133t-313.5 -42.5h-316v1493zM512 266q87 0 148 26t100 83.5t56.5 149t17.5 222.5t-17.5 222.5t-56.5 148.5t-100 83 t-148 26h-80v-961h80z" />
<glyph unicode="&#x10f;" d="M491 -29q-95 0 -169 39.5t-126 114.5t-79 184.5t-27 249.5q0 142 28 251.5t80.5 184.5t127.5 113.5t169 38.5q98 0 168 -44t128 -142v595h292v-1556h-263l-29 166q-47 -95 -119.5 -145t-180.5 -50zM1168 1555h288l-164 -383h-202zM586 211q48 0 86 23.5t64.5 68.5 t40.5 109t14 145t-14 145t-40.5 109t-64.5 68.5t-86 23.5t-85.5 -23.5t-63.5 -68.5t-40 -109t-14 -145t14 -145t40 -109t63.5 -68.5t85.5 -23.5z" />
<glyph unicode="&#x110;" d="M137 664h-137v237h137v592h316q183 0 313.5 -42t213.5 -132.5t122 -231.5t39 -339t-39 -340t-122 -232.5t-213.5 -133t-313.5 -42.5h-316v664zM512 266q87 0 148 26t100 83.5t56.5 149t17.5 222.5t-17.5 222.5t-56.5 148.5t-100 83t-148 26h-80v-326h211v-237h-211v-398 h80z" />
<glyph unicode="&#x111;" d="M492 -29q-93 0 -167.5 38t-128.5 115q-106 153 -106 436t108 435q51 72 126 112t174 40q48 0 89 -10.5t79 -35.5q71 -47 125 -140v290h-306v189h306v116h292v-116h146v-189h-146v-1251h-263l-29 166q-23 -49 -54 -85.5t-67 -60.5q-74 -49 -178 -49zM586 211q94 0 150 92 q55 91 55 254t-55 254q-56 92 -150 92q-95 0 -149 -92t-54 -254q0 -163 54 -254q54 -92 149 -92z" />
<glyph unicode="&#x112;" d="M332 1820h631v-188h-631v188zM168 1493h930v-260h-635v-322h575v-260h-575v-391h635v-260h-930v1493z" />
<glyph unicode="&#x113;" d="M330 1535h631v-188h-631v188zM669 -29q-145 0 -254.5 38t-183.5 112t-111.5 181.5t-37.5 247.5q0 139 36.5 249.5t105.5 187.5t169 118.5t228 41.5q121 0 217 -38t163 -110t102.5 -176.5t35.5 -238.5v-119h-759q1 -262 308 -262q102 0 199 29t205 92v-269 q-100 -42 -207 -63t-216 -21zM844 685q-2 116 -60 175.5t-164 59.5q-108 0 -166.5 -60.5t-70.5 -175.5z" />
<glyph unicode="&#x116;" d="M541 1606q-13 0 -22 9t-9 22v184q0 13 9 22t22 9h213q13 0 22 -9t9 -22v-184q0 -13 -9 -22t-22 -9h-213zM168 1493h930v-260h-635v-322h575v-260h-575v-391h635v-260h-930v1493z" />
<glyph unicode="&#x117;" d="M538 1349q-30 0 -30 30v186q0 30 30 30h215q30 0 30 -30v-186q0 -30 -30 -30h-215zM669 -29q-145 0 -254.5 38t-183.5 112t-111.5 181.5t-37.5 247.5q0 139 36.5 249.5t105.5 187.5t169 118.5t228 41.5q121 0 217 -38t163 -110t102.5 -176.5t35.5 -238.5v-119h-759 q1 -262 308 -262q102 0 199 29t205 92v-269q-100 -42 -207 -63t-216 -21zM844 685q-2 116 -60 175.5t-164 59.5q-108 0 -166.5 -60.5t-70.5 -175.5z" />
<glyph unicode="&#x118;" d="M951 -254q31 0 69.5 7.5t78.5 23.5v-156q-54 -11 -101.5 -16.5t-85.5 -5.5q-117 0 -179 45.5t-62 131.5q0 55 27 109t84 115h-614v1493h930v-260h-635v-322h575v-260h-575v-391h635v-260h-175q-17 -23 -29 -40t-20 -29t-13 -21t-9 -16q-10 -18 -14.5 -32t-4.5 -28 q0 -35 28 -61.5t90 -26.5z" />
<glyph unicode="&#x119;" d="M1139 465h-759q1 -262 308 -262q102 0 199 29t205 92v-269q-42 -17 -85 -31t-88 -24q-17 -23 -29 -40t-20 -29t-13 -21t-9 -16q-10 -18 -14.5 -32t-4.5 -28q0 -35 28 -61.5t90 -26.5q31 0 69.5 7.5t78.5 23.5v-156q-54 -11 -101.5 -16.5t-85.5 -5.5q-117 0 -179 45.5 t-62 131.5q0 49 21.5 97t66.5 101q-42 -3 -86 -3q-145 0 -254.5 38t-183.5 112t-111.5 181.5t-37.5 247.5q0 139 36.5 249.5t105.5 187.5t169 118.5t228 41.5q121 0 217 -38t163 -110t102.5 -176.5t35.5 -238.5v-119zM844 685q-2 116 -60 175.5t-164 59.5 q-108 0 -166.5 -60.5t-70.5 -175.5z" />
<glyph unicode="&#x11a;" d="M293 1852h178l198 -162l199 162h178l-223 -264h-309zM168 1493h930v-260h-635v-322h575v-260h-575v-391h635v-260h-930v1493z" />
<glyph unicode="&#x11b;" d="M247 1678h178l198 -227l199 227h178l-256 -376h-241zM669 -29q-145 0 -254.5 38t-183.5 112t-111.5 181.5t-37.5 247.5q0 139 36.5 249.5t105.5 187.5t169 118.5t228 41.5q121 0 217 -38t163 -110t102.5 -176.5t35.5 -238.5v-119h-759q1 -262 308 -262q102 0 199 29 t205 92v-269q-100 -42 -207 -63t-216 -21zM844 685q-2 116 -60 175.5t-164 59.5q-108 0 -166.5 -60.5t-70.5 -175.5z" />
<glyph unicode="&#x11e;" d="M676 1588q-147 0 -233 68q-42 32 -68 79.5t-34 116.5h141q19 -59 69 -90q49 -31 125 -31q77 0 125 30q49 31 68 91h143q-15 -128 -101 -196q-45 -35 -104.5 -51.5t-130.5 -16.5zM720 -29q-143 0 -255 50.5t-190 150.5q-75 96 -116.5 238t-41.5 337q0 186 39.5 330 t120.5 244q160 199 455 199q51 0 94.5 -6t87.5 -19q85 -25 163 -74v-327q-62 80 -142 121q-80 40 -176 40q-170 0 -252 -126q-83 -128 -83 -382q0 -125 20 -220.5t60 -161.5q38 -62 95 -95.5t140 -33.5q40 0 78 9q22 5 33 11t22 14v285h-202v248h460v-684q-84 -72 -187 -110 q-52 -19 -106 -28.5t-117 -9.5z" />
<glyph unicode="&#x11f;" d="M616 1299q-76 0 -136.5 18.5t-105.5 58.5q-46 41 -68 96t-25 124h141q10 -68 61 -106q50 -38 134 -38q83 0 132 37q50 37 60 107h143q-6 -143 -92 -220q-88 -77 -244 -77zM578 -424q-44 0 -89.5 3t-90.5 10q-90 13 -183 42v269q42 -23 85 -40t84 -28q43 -11 87 -16.5 t85 -5.5q68 0 113.5 14.5t74.5 43.5q59 59 59 183v121q-44 -80 -114 -119q-71 -39 -172 -39q-194 0 -306 150q-57 75 -85 176.5t-28 232.5q0 263 113 420q57 78 132 117t169 39q98 0 173 -45t118 -127l29 143h264v-1036q0 -269 -121 -389q-122 -119 -397 -119zM596 246 q93 0 150 91q28 45 42.5 103.5t14.5 136.5q0 74 -14 134.5t-43 107.5q-57 90 -150 90q-92 0 -148 -90q-57 -90 -57 -241q0 -152 57 -242q56 -90 148 -90z" />
<glyph unicode="&#x120;" d="M580 1606q-13 0 -22 9t-9 22v184q0 13 9 22t22 9h213q13 0 22 -9t9 -22v-184q0 -13 -9 -22t-22 -9h-213zM719 -29q-143 0 -255 51.5t-189 150.5t-117.5 243.5t-40.5 330.5q0 188 41 332t119.5 242t192 148.5t257.5 50.5q101 0 185.5 -24.5t164.5 -74.5v-327 q-125 161 -319 161q-168 0 -251 -125t-83 -382q0 -252 79 -382t238 -130q34 0 63.5 5.5t48.5 16.5q9 5 14 12.5t5 22.5v232q0 30 -30 30h-172v248h460v-684q-173 -148 -411 -148z" />
<glyph unicode="&#x121;" d="M509 1349q-30 0 -30 30v186q0 30 30 30h215q30 0 30 -30v-186q0 -30 -30 -30h-215zM582 -424q-95 0 -184 13.5t-183 41.5v269q83 -46 170 -68t169 -22q129 0 189 57.5t60 183.5v121q-44 -83 -116.5 -120.5t-166.5 -37.5q-99 0 -177 39t-132.5 111.5t-83.5 176t-29 233.5 q0 132 29.5 238.5t84 181t130.5 115t169 40.5q100 0 174.5 -45t117.5 -127l29 143h264v-1036q0 -134 -29.5 -230.5t-92 -158t-159.5 -90.5t-233 -29zM596 246q46 0 84.5 23.5t65.5 67t42 105t15 136.5t-15 136t-42 104.5t-65.5 67t-84.5 23.5t-84 -23.5t-65 -67 t-41.5 -104.5t-14.5 -137t14.5 -137t41.5 -104t65 -66.5t84 -23.5z" />
<glyph unicode="&#x122;" d="M719 -29q-143 0 -255 51.5t-189 150.5t-117.5 243.5t-40.5 330.5q0 188 41 332t119.5 242t192 148.5t257.5 50.5q101 0 185.5 -24.5t164.5 -74.5v-327q-125 161 -319 161q-334 0 -334 -508q0 -252 79 -381.5t240 -129.5q40 0 74 8.5t55 25.5v285h-202v248h460v-684 q-173 -148 -411 -148zM627 -187h282l-177 -306h-194z" />
<glyph unicode="&#x123;" d="M632 1565h194l-89 -306h-282zM582 -424q-95 0 -184 13.5t-183 41.5v269q83 -46 170 -68t169 -22q129 0 189 57.5t60 183.5v121q-44 -83 -116.5 -120.5t-166.5 -37.5q-99 0 -177 39t-132.5 111.5t-83.5 176t-29 233.5q0 132 29.5 238.5t84 181t130.5 115t169 40.5 q100 0 174.5 -45t117.5 -127l29 143h264v-1036q0 -134 -29.5 -230.5t-92 -158t-159.5 -90.5t-233 -29zM596 246q46 0 84.5 23.5t65.5 67t42 105t15 136.5t-15 136t-42 104.5t-65.5 67t-84.5 23.5t-84 -23.5t-65 -67t-41.5 -104.5t-14.5 -137t14.5 -137t41.5 -104t65 -66.5 t84 -23.5z" />
<glyph unicode="&#x126;" d="M137 1105h-134v164h134v224h295v-224h369v224h294v-224h135v-164h-135v-1105h-294v664h-369v-664h-295v1105zM801 924v181h-369v-181h369z" />
<glyph unicode="&#x127;" d="M172 1270h-160v164h160v122h291v-122h277v-164h-277v-318q32 97 107.5 146t182.5 49q156 0 237 -104.5t81 -315.5v-727h-291v682q0 118 -33.5 171.5t-107.5 53.5q-88 0 -132 -69.5t-44 -196.5v-641h-291v1270z" />
<glyph unicode="&#x128;" d="M268 1618q0 53 14.5 96.5t40.5 74.5t61.5 48t78.5 17q38 0 76.5 -13t74.5 -36l60 -39q20 -13 38.5 -21t38.5 -8q35 0 54.5 30t19.5 87h140v-6t-1 -9t-1 -8v-5q0 -54 -14 -98t-39.5 -75t-62 -48t-82.5 -17q-35 0 -69.5 11t-77.5 38l-54 34l-12 7q-20 11 -37.5 18.5 t-34.5 7.5q-32 0 -52 -29.5t-20 -80.5v-6h-140v30zM172 260h297v973h-297v260h889v-260h-297v-973h297v-260h-889v260z" />
<glyph unicode="&#x129;" d="M714 1270q-16 0 -31 2.5t-32 9t-37.5 17.5t-45.5 28l-55 37l-12 8q-22 14 -39 21.5t-33 7.5q-34 0 -52.5 -31.5t-18.5 -89.5v-8h-140q0 137 51.5 210.5t145.5 73.5q38 0 72 -13.5t77 -43.5l62 -43q20 -14 38.5 -22.5t36.5 -8.5q35 0 54.5 32t19.5 89v8h140 q0 -137 -51.5 -210.5t-149.5 -73.5zM812 -12q-209 0 -300 108q-91 107 -91 359v440h-237v225h530v-665q0 -131 41 -187q40 -55 139 -55h234v-225h-316z" />
<glyph unicode="&#x12a;" d="M301 1820h631v-188h-631v188zM172 260h297v973h-297v260h889v-260h-297v-973h297v-260h-889v260z" />
<glyph unicode="&#x12b;" d="M230 1536h631v-188h-631v188zM812 -12q-209 0 -300 108q-91 107 -91 359v440h-237v225h530v-665q0 -131 41 -187q40 -55 139 -55h234v-225h-316z" />
<glyph unicode="&#x12e;" d="M764 1233v-973h297v-260h-297q-17 -23 -29 -40t-20 -29t-13 -21t-9 -16q-10 -18 -14.5 -32t-4.5 -28q0 -35 28 -61.5t90 -26.5q31 0 69.5 7.5t78.5 23.5v-156q-54 -11 -101.5 -16.5t-85.5 -5.5q-117 0 -179 45.5t-62 131.5q0 55 27 109t84 115h-451v260h297v973h-297v260 h889v-260h-297z" />
<glyph unicode="&#x12f;" d="M451 1323q-30 0 -30 30v282q0 30 30 30h233q30 0 30 -30v-282q0 -30 -30 -30h-233zM945 -12q-31 -41 -44 -61.5t-20 -34.5q-10 -18 -14.5 -32t-4.5 -28q0 -35 28 -61.5t90 -26.5q31 0 69.5 7.5t78.5 23.5v-156q-54 -11 -101.5 -16.5t-85.5 -5.5q-117 0 -179 45.5 t-62 131.5q0 53 25 104.5t77 109.5q-200 3 -290 108q-91 107 -91 359v440h-237v225h530v-665q0 -131 41 -187q40 -55 139 -55h234v-225h-183z" />
<glyph unicode="&#x130;" d="M509 1606q-30 0 -30 30v186q0 30 30 30h215q30 0 30 -30v-186q0 -30 -30 -30h-215zM172 260h297v973h-297v260h889v-260h-297v-973h297v-260h-889v260z" />
<glyph unicode="&#x131;" d="M812 -12q-209 0 -300 108q-91 107 -91 359v440h-237v225h530v-665q0 -131 41 -187q40 -55 139 -55h234v-225h-316v0z" />
<glyph unicode="&#x136;" d="M117 1493h295v-590l462 590h334l-471 -588l488 -905h-328l-354 672l-131 -166v-506h-295v1493zM575 -158h282l-177 -306h-194z" />
<glyph unicode="&#x137;" d="M174 1556h293v-817l352 381h355l-424 -418l448 -702h-324l-307 524l-100 -96v-428h-293v1556zM589 -158h282l-177 -306h-194z" />
<glyph unicode="&#x139;" d="M669 1853h284l-286 -264h-197zM225 1493h295v-1233h631v-260h-926v1493z" />
<glyph unicode="&#x13a;" d="M669 1900h284l-286 -264h-197zM778 -8q-105 0 -179 26t-121 82t-69 144.5t-22 214.5v872h-297v225h590v-1097q0 -66 9.5 -112t31 -75t56 -42t83.5 -13h234v-225h-316z" />
<glyph unicode="&#x13b;" d="M225 1493h295v-1233h631v-260h-926v1493zM591 -158h282l-177 -306h-194z" />
<glyph unicode="&#x13c;" d="M778 -8q-105 0 -179 26t-121 82t-69 144.5t-22 214.5v872h-297v225h590v-1097q0 -66 9.5 -112t31 -75t56 -42t83.5 -13h234v-225h-316zM465 -158h282l-177 -306h-194z" />
<glyph unicode="&#x13d;" d="M225 1493h295v-1233h631v-260h-926v1493zM869 1493h282l-161 -376h-197z" />
<glyph unicode="&#x13e;" d="M778 -8q-105 0 -179 26t-121 82t-69 144.5t-22 214.5v872h-297v225h590v-1097q0 -66 9.5 -112t31 -75t56 -42t83.5 -13h234v-225h-316zM908 1556h282l-161 -376h-197z" />
<glyph unicode="&#x141;" d="M225 537l-151 -111l-113 154l264 188v725h295v-520l275 194l112 -153l-387 -273v-481h631v-260h-926v537z" />
<glyph unicode="&#x142;" d="M801 -8q-209 0 -300 108q-91 107 -91 359v166l-273 -195l-100 162l373 264v475h-295v225h587v-493l295 209l103 -160l-398 -280v-373q0 -132 42 -187q20 -27 54 -41t85 -14h233v-225h-315v0z" />
<glyph unicode="&#x143;" d="M699 1853h284l-286 -264h-197zM119 1493h317l416 -1085v1085h260v-1493h-315l-418 1085v-1085h-260v1493z" />
<glyph unicode="&#x144;" d="M750 1690h282l-368 -376h-197zM172 1120h262l29 -168q32 97 107.5 146t182.5 49q156 0 237 -104.5t81 -315.5v-727h-291v682q0 118 -33.5 172.5t-106.5 54.5q-88 0 -132.5 -70.5t-44.5 -197.5v-641h-291v1120z" />
<glyph unicode="&#x145;" d="M119 1493h317l416 -1085v1085h260v-1493h-315l-418 1085v-1085h-260v1493zM519 -158h282l-177 -306h-194z" />
<glyph unicode="&#x146;" d="M172 1120h262l29 -168q32 97 107.5 146t182.5 49q156 0 237 -104.5t81 -315.5v-727h-291v682q0 118 -33.5 172.5t-106.5 54.5q-88 0 -132.5 -70.5t-44.5 -197.5v-641h-291v1120zM525 -158h282l-177 -306h-194z" />
<glyph unicode="&#x147;" d="M281 1852h178l198 -162l199 162h178l-223 -264h-309zM119 1493h317l416 -1085v1085h260v-1493h-315l-418 1085v-1085h-260v1493z" />
<glyph unicode="&#x148;" d="M276 1673h178l198 -227l199 227h178l-256 -376h-241zM172 1120h262l29 -168q32 97 107.5 146t182.5 49q156 0 237 -104.5t81 -315.5v-727h-291v682q0 118 -33.5 172.5t-106.5 54.5q-88 0 -132.5 -70.5t-44.5 -197.5v-641h-291v1120z" />
<glyph unicode="&#x14a;" d="M612 -199h37q50 0 84.5 13t56.5 42t31.5 75.5t9.5 112.5v971q0 125 -45.5 182.5t-144.5 57.5q-60 0 -105 -20t-75 -56.5t-45 -89t-15 -117.5v-972h-295v1493h266l29 -240q38 130 126.5 199.5t219.5 69.5q184 0 281 -145.5t97 -434.5v-884q0 -133 -22.5 -225.5t-70 -150 t-121.5 -83t-178 -25.5h-121v227z" />
<glyph unicode="&#x14b;" d="M559 -199h39q50 0 84.5 13t56.5 42t31.5 75t9.5 112v639q0 118 -33.5 172.5t-106.5 54.5q-88 0 -132.5 -70.5t-44.5 -197.5v-641h-291v1120h262l29 -168q32 97 107.5 146t182.5 49q156 0 237 -104.5t81 -315.5v-684q0 -126 -21.5 -214.5t-69 -145t-121.5 -82t-179 -25.5 h-121v225z" />
<glyph unicode="&#x14c;" d="M301 1830h631v-188h-631v188zM617 -29q-260 0 -392.5 196.5t-132.5 578.5t132.5 578t392.5 196q259 0 391.5 -195.5t132.5 -578.5t-132.5 -579t-391.5 -196zM616 236q114 0 166 121q52 119 52 389q0 269 -52 388q-52 121 -166 121q-59 0 -99 -30.5t-66 -90.5 q-52 -119 -52 -388q0 -270 52 -389q52 -121 165 -121z" />
<glyph unicode="&#x14d;" d="M301 1535h631v-188h-631v188zM616 -29q-119 0 -214.5 41t-163 117.5t-104 185.5t-36.5 244t36.5 244t104 185.5t163 117.5t214.5 41t215 -41t163.5 -117.5t104 -185.5t36.5 -244t-36.5 -244t-104 -185.5t-163.5 -117.5t-215 -41zM616 209q53 0 95 23.5t71 68.5t44.5 110 t15.5 148q0 82 -15.5 147t-44.5 110t-71 69t-95 24t-94.5 -24t-70.5 -69t-44.5 -110t-15.5 -147q0 -83 15.5 -148t44.5 -110t70.5 -68.5t94.5 -23.5z" />
<glyph unicode="&#x150;" d="M463 1852h284l-286 -264h-197zM838 1852h284l-286 -264h-197zM617 -29q-260 0 -392.5 196.5t-132.5 578.5t132.5 578t392.5 196q259 0 391.5 -195.5t132.5 -578.5t-132.5 -579t-391.5 -196zM616 236q114 0 166 121q52 119 52 389q0 269 -52 388q-52 121 -166 121 q-59 0 -99 -30.5t-66 -90.5q-52 -119 -52 -388q0 -270 52 -389q52 -121 165 -121z" />
<glyph unicode="&#x151;" d="M492 1673h217l-248 -376h-164zM854 1673h231l-272 -376h-174zM616 -29q-119 0 -214.5 41t-163 117.5t-104 185.5t-36.5 244t36.5 244t104 185.5t163 117.5t214.5 41t215 -41t163.5 -117.5t104 -185.5t36.5 -244t-36.5 -244t-104 -185.5t-163.5 -117.5t-215 -41zM616 209 q53 0 95 23.5t71 68.5t44.5 110t15.5 148q0 82 -15.5 147t-44.5 110t-71 69t-95 24t-94.5 -24t-70.5 -69t-44.5 -110t-15.5 -147q0 -83 15.5 -148t44.5 -110t70.5 -68.5t94.5 -23.5z" />
<glyph unicode="&#x152;" d="M633 0q-324 0 -444 156q-62 80 -91.5 226t-29.5 363q0 437 121 592q62 80 174 118t270 38h573v-260h-332v-311h302v-260h-302v-402h343v-260h-584zM621 260v973h-52q-63 0 -105.5 -23.5t-63.5 -65.5q-23 -45 -34.5 -140.5t-11.5 -258.5q0 -82 3 -146t9 -112.5t14.5 -83 t19.5 -56.5q23 -46 66.5 -66.5t102.5 -20.5h52z" />
<glyph unicode="&#x153;" d="M374 -29q-101 0 -167.5 36t-107.5 102q-45 72 -65 185t-20 266q0 156 20.5 268t64.5 183q42 69 110 102.5t168 33.5q95 0 156 -29q62 -29 104 -96q28 60 93 93q64 32 158 32q86 0 149 -29.5t100 -89.5q73 -118 73 -422v-127h-450q0 -143 50 -219q49 -76 145 -76 q33 0 62 8t57 22q29 14 58.5 34.5t61.5 52.5v-244q-50 -44 -111 -65q-62 -21 -144 -21q-102 0 -172 37q-71 37 -118 111q-21 -37 -47.5 -65t-61.5 -47q-68 -36 -166 -36zM385 184q45 0 68.5 18t36.5 49q7 18 13 44t9.5 62.5t5.5 86t2 114.5q0 71 -2 122t-6 87.5t-9.5 60.5 t-12.5 40q-14 34 -39.5 50t-66.5 16q-38 0 -64 -15.5t-41 -50.5q-17 -38 -24 -111.5t-7 -196.5q0 -68 2 -118.5t6 -87t9.5 -62t13.5 -42.5q14 -31 38 -48.5t68 -17.5zM985 690v35q0 57 -5.5 97t-19.5 65q-25 47 -87 47q-34 0 -55 -12.5t-33 -35.5q-11 -22 -18 -60.5 t-7 -112.5v-23h225z" />
<glyph unicode="&#x154;" d="M669 1853h284l-286 -264h-197zM133 1493h426q141 0 242.5 -24.5t167.5 -75.5t97.5 -130.5t31.5 -188.5q0 -171 -74 -260t-217 -109q22 -5 40.5 -14t36 -27.5t36.5 -49t43 -77.5l270 -537h-324l-180 377l-21 44q-42 86 -86 127.5t-100 41.5h-94v-590h-295v1493zM567 838 q60 0 103 11.5t70.5 36t40 63.5t12.5 94q0 54 -12.5 92.5t-39.5 62.5t-70 35.5t-104 11.5h-139v-407h139z" />
<glyph unicode="&#x155;" d="M865 1680h282l-368 -376h-197zM291 1120h264l29 -174q43 97 132 149t207 52q62 0 119 -14.5t109 -42.5v-279q-48 45 -112 66.5t-142 21.5q-98 0 -165 -33.5t-105 -93.5q-12 -19 -20 -41t-13.5 -51t-7.5 -69t-2 -95v-516h-293v1120z" />
<glyph unicode="&#x156;" d="M133 1493h426q141 0 242.5 -24.5t167.5 -75.5t97.5 -130.5t31.5 -188.5q0 -171 -74 -260t-217 -109q22 -5 40.5 -14t36 -27.5t36.5 -49t43 -77.5l270 -537h-324l-180 377l-21 44q-42 86 -86 127.5t-100 41.5h-94v-590h-295v1493zM567 838q60 0 103 11.5t70.5 36t40 63.5 t12.5 94q0 54 -12.5 92.5t-39.5 62.5t-70 35.5t-104 11.5h-139v-407h139zM587 -158h282l-177 -306h-194z" />
<glyph unicode="&#x157;" d="M291 1120h264l29 -174q43 97 132 149t207 52q62 0 119 -14.5t109 -42.5v-279q-48 45 -112 66.5t-142 21.5q-98 0 -165 -33.5t-105 -93.5q-12 -19 -20 -41t-13.5 -51t-7.5 -69t-2 -95v-516h-293v1120zM341 -158h282l-177 -306h-194z" />
<glyph unicode="&#x158;" d="M209 1852h178l198 -162l199 162h178l-223 -264h-309zM133 1493h426q141 0 242.5 -24.5t167.5 -75.5t97.5 -130.5t31.5 -188.5q0 -171 -74 -260t-217 -109q22 -5 40.5 -14t36 -27.5t36.5 -49t43 -77.5l270 -537h-324l-180 377l-21 44q-42 86 -86 127.5t-100 41.5h-94v-590 h-295v1493zM567 838q60 0 103 11.5t70.5 36t40 63.5t12.5 94q0 54 -12.5 92.5t-39.5 62.5t-70 35.5t-104 11.5h-139v-407h139z" />
<glyph unicode="&#x159;" d="M342 1683h178l198 -227l199 227h178l-256 -376h-241zM291 1120h264l29 -174q43 97 132 149t207 52q62 0 119 -14.5t109 -42.5v-279q-48 45 -112 66.5t-142 21.5q-98 0 -165 -33.5t-105 -93.5q-12 -19 -20 -41t-13.5 -51t-7.5 -69t-2 -95v-516h-293v1120z" />
<glyph unicode="&#x15a;" d="M699 1853h284l-286 -264h-197zM584 -29q-123 0 -231.5 25.5t-217.5 79.5v305q115 -83 226.5 -124.5t214.5 -41.5q115 0 175 48.5t60 135.5q0 72 -40.5 122t-115.5 79l-145 55q-109 41 -182 84t-117.5 92.5t-63 109t-18.5 134.5q0 107 33.5 190t96.5 139.5t153 86 t204 29.5q103 0 205.5 -23.5t204.5 -69.5v-288q-96 67 -193 102t-194 35q-108 0 -164.5 -43t-56.5 -121q0 -64 42 -104q20 -20 59.5 -41t113.5 -49l127 -48q93 -35 159 -78.5t108.5 -99t62.5 -123.5t20 -152q0 -224 -135 -335t-391 -111z" />
<glyph unicode="&#x15b;" d="M750 1673h282l-368 -376h-197zM613 -29q-103 0 -208.5 17.5t-214.5 52.5v256q97 -55 197 -84t201 -29q203 0 203 124q0 28 -9.5 45t-28.5 32q-23 18 -64.5 34t-113.5 32l-81 18q-161 36 -241.5 116t-80.5 216q0 168 117.5 257t333.5 89q91 0 184.5 -15.5t183.5 -46.5 v-256q-164 105 -346 105q-97 0 -146.5 -29t-49.5 -77q0 -47 50.5 -78.5t163.5 -58.5l11 -3l84 -20q158 -38 233.5 -121.5t75.5 -226.5q0 -349 -454 -349z" />
<glyph unicode="&#x15e;" d="M1025 696q85 -109 85 -281q0 -221 -134 -332q-48 -39 -110.5 -65t-141.5 -37q23 -27 40 -51.5t28 -44.5q27 -51 27 -106q0 -46 -16.5 -79.5t-45.5 -55.5q-26 -20 -69.5 -32.5t-116.5 -12.5q-24 0 -49.5 1.5t-50.5 4.5q-38 5 -59.5 10t-44.5 10v156q23 -8 44.5 -14.5 t42.5 -11.5q42 -9 78 -9q57 0 91 23q32 23 32 61q0 28 -21 69q-15 30 -45 72h-7q-60 0 -117 6t-114 20q-114 27 -216 79v305q65 -46 120 -75.5t109 -49.5q111 -41 216 -41q57 0 99 12.5t72 37.5q60 49 60 138q0 68 -40 118q-21 26 -50.5 45.5t-65.5 33.5l-145 55 q-115 44 -189 88.5t-113 90.5q-79 92 -79 251q0 204 130 319q131 116 356 116q54 0 107 -6t100 -17t99.5 -28.5t104.5 -41.5v-288q-94 67 -193 102t-195 35q-107 0 -163 -43q-57 -44 -57 -122q0 -63 42 -103q20 -20 59.5 -41t113.5 -49l127 -48q181 -68 265 -174z" />
<glyph unicode="&#x15f;" d="M993 546q38 -43 56 -101.5t18 -127.5q0 -173 -113 -259q-84 -63 -227 -81q23 -26 39 -49.5t26 -42.5q27 -51 27 -106q0 -46 -16.5 -79.5t-45.5 -55.5q-26 -20 -69.5 -32.5t-116.5 -12.5q-24 0 -49.5 1.5t-50.5 4.5q-38 5 -59.5 10t-44.5 10v156q23 -8 44.5 -14.5 t42.5 -11.5q42 -9 78 -9q57 0 91 23q32 23 32 61q0 28 -21 69q-8 15 -19.5 33.5t-26.5 38.5q-45 2 -92 5.5t-91 11.5q-51 8 -105.5 22t-109.5 31v256q98 -56 198 -84q51 -14 99 -21.5t96 -7.5q54 0 93 8t63 22q29 17 40.5 41t11.5 53q0 22 -7.5 41t-31.5 37t-66.5 34 t-110.5 31l-81 18q-168 38 -245 119q-77 82 -77 215q0 164 117 254t330 90q48 0 98 -4t91 -11t91 -19.5t92 -27.5v-256q-41 26 -84.5 46.5t-83.5 32.5t-85.5 19t-94.5 7q-45 0 -81 -6.5t-62 -21.5q-26 -14 -38.5 -35.5t-12.5 -44.5q0 -45 51 -77t163 -58l11 -3l84 -20 q79 -19 138 -49t97 -73z" />
<glyph unicode="&#x160;" d="M240 1852h178l198 -162l199 162h178l-223 -264h-309zM582 -29q-60 0 -117 6t-114 20q-114 27 -216 79v305q65 -46 120 -75.5t109 -49.5q111 -41 216 -41q57 0 99 12.5t72 37.5q60 49 60 138q0 68 -40 118q-21 26 -50.5 45.5t-65.5 33.5l-145 55q-115 44 -189 88.5 t-113 90.5q-79 92 -79 251q0 204 130 319q131 116 356 116q54 0 107 -6t100 -17t99.5 -28.5t104.5 -41.5v-288q-94 67 -193 102t-195 35q-107 0 -163 -43q-57 -44 -57 -122q0 -63 42 -103q20 -20 59.5 -41t113.5 -49l127 -48q181 -68 265 -174q85 -109 85 -281 q0 -221 -134 -332q-135 -112 -394 -112z" />
<glyph unicode="&#x161;" d="M240 1673h178l198 -227l199 227h178l-256 -376h-241zM616 -29q-51 0 -105.5 4.5t-105.5 12.5t-105.5 22t-109.5 31v256q98 -56 198 -84q51 -14 99 -21.5t96 -7.5q54 0 93 8t63 22q29 17 40.5 41t11.5 53q0 22 -7.5 41t-31.5 37t-66.5 34t-110.5 31l-81 18 q-168 38 -245 119q-77 82 -77 215q0 164 117 254t330 90q48 0 98 -4t91 -11t91 -19.5t92 -27.5v-256q-41 26 -84.5 46.5t-83.5 32.5t-85.5 19t-94.5 7q-45 0 -81 -6.5t-62 -21.5q-26 -14 -38.5 -35.5t-12.5 -44.5q0 -45 51 -77t163 -58l11 -3l84 -20q79 -19 138 -49t97 -73 t56 -101.5t18 -127.5q0 -173 -113 -259q-57 -44 -142.5 -65.5t-195.5 -21.5z" />
<glyph unicode="&#x164;" d="M233 1864h178l198 -162l199 162h178l-223 -264h-309zM469 1235h-379v258h1053v-258h-379v-1235h-295v1235z" />
<glyph unicode="&#x165;" d="M909 1687h282l-161 -376h-197zM827 -4q-253 0 -341 81q-89 80 -89 298v520h-286v225h286v306l293 130v-436h383v-225h-383v-534q0 -74 37 -107q20 -18 50.5 -25.5t70.5 -7.5h225v-225h-246z" />
<glyph unicode="&#x166;" d="M469 538h-247v192h247v505h-379v258h1053v-258h-379v-505h247v-192h-247v-538h-295v538z" />
<glyph unicode="&#x167;" d="M827 -4q-126 0 -209 18.5t-132 62t-69 116.5t-20 182v186h-178v192h178v142h-286v225h286v306l293 130v-436h383v-225h-383v-142h184v-192h-184v-200q0 -75 36.5 -107.5t121.5 -32.5h225v-225h-246v0z" />
<glyph unicode="&#x168;" d="M268 1618q0 53 14.5 96.5t40.5 74.5t61.5 48t78.5 17q38 0 76.5 -13t74.5 -36l60 -39q20 -13 38.5 -21t38.5 -8q35 0 54.5 30t19.5 87h140v-6t-1 -9t-1 -8v-5q0 -54 -14 -98t-39.5 -75t-62 -48t-82.5 -17q-35 0 -69.5 11t-77.5 38l-54 34l-12 7q-20 11 -37.5 18.5 t-34.5 7.5q-32 0 -52 -29.5t-20 -80.5v-6h-140v30zM616 -29q-134 0 -230 33.5t-158.5 104.5t-92 180.5t-29.5 261.5v942h295v-1016q0 -112 56.5 -175.5t158.5 -63.5t158.5 63.5t56.5 175.5v1016h295v-942q0 -152 -29.5 -261.5t-91.5 -180.5t-158.5 -104.5t-230.5 -33.5z" />
<glyph unicode="&#x169;" d="M764 1270q-16 0 -31 2.5t-32 9t-37.5 17.5t-45.5 28l-55 37l-12 8q-22 14 -39 21.5t-33 7.5q-34 0 -52.5 -31.5t-18.5 -89.5v-8h-140q0 137 51.5 210.5t145.5 73.5q38 0 72 -13.5t77 -43.5l62 -43q20 -14 38.5 -22.5t36.5 -8.5q35 0 54.5 32t19.5 89v8h140 q0 -137 -51.5 -210.5t-149.5 -73.5zM480 -29q-157 0 -238.5 105.5t-81.5 314.5v729h293v-684q0 -117 33 -171t107 -54q88 0 131.5 69.5t43.5 196.5v643h293v-1120h-264l-29 166q-31 -92 -103.5 -143.5t-184.5 -51.5z" />
<glyph unicode="&#x16a;" d="M301 1830h631v-188h-631v188zM616 -29q-134 0 -230 33.5t-158.5 104.5t-92 180.5t-29.5 261.5v942h295v-1016q0 -112 56.5 -175.5t158.5 -63.5t158.5 63.5t56.5 175.5v1016h295v-942q0 -152 -29.5 -261.5t-91.5 -180.5t-158.5 -104.5t-230.5 -33.5z" />
<glyph unicode="&#x16b;" d="M301 1508h631v-188h-631v188zM480 -29q-157 0 -238.5 105.5t-81.5 314.5v729h293v-684q0 -117 33 -171t107 -54q88 0 131.5 69.5t43.5 196.5v643h293v-1120h-264l-29 166q-31 -92 -103.5 -143.5t-184.5 -51.5z" />
<glyph unicode="&#x16e;" d="M1126 1493v-942q0 -152 -29.5 -261.5t-91.5 -180.5t-158.5 -104.5t-230.5 -33.5t-230 33.5t-158.5 104.5t-92 180.5t-29.5 261.5v942h259q-28 58 -28 123q0 59 22.5 111t61 90.5t90.5 61t111 22.5t111 -22.5t90.5 -61t60.5 -90.5t22 -111q0 -65 -28 -123h248zM621 1747 q-27 0 -51 -10.5t-41.5 -28t-28 -41.5t-10.5 -51t10.5 -51t28 -42t41.5 -28t51 -10t51 10.5t42 28t28.5 41.5t10.5 51t-10.5 51t-28.5 41.5t-42 28t-51 10.5zM616 238q102 0 158.5 63.5t56.5 175.5v946q-39 -43 -92.5 -67.5t-116.5 -24.5q-67 0 -124.5 28.5t-96.5 76.5v-959 q0 -112 56.5 -175.5t158.5 -63.5z" />
<glyph unicode="&#x16f;" d="M617 1249q-59 0 -111 22.5t-90.5 61t-61 90.5t-22.5 111t22.5 111t61 90.5t90.5 61t111 22.5t111 -22.5t90.5 -61t60.5 -90.5t22 -111t-22 -111t-60.5 -90.5t-90.5 -61t-111 -22.5zM616 1403q27 0 51 10.5t42 28t28.5 41.5t10.5 51t-10.5 51t-28.5 41.5t-42 28t-51 10.5 t-51 -10.5t-41.5 -28t-28 -41.5t-10.5 -51t10.5 -51t28 -42t41.5 -28t51 -10zM480 -29q-157 0 -238.5 105.5t-81.5 314.5v729h293v-684q0 -117 33 -171t107 -54q88 0 131.5 69.5t43.5 196.5v643h293v-1120h-264l-29 166q-31 -92 -103.5 -143.5t-184.5 -51.5z" />
<glyph unicode="&#x170;" d="M463 1852h284l-286 -264h-197zM838 1852h284l-286 -264h-197zM616 -29q-134 0 -230 33.5t-158.5 104.5t-92 180.5t-29.5 261.5v942h295v-1016q0 -112 56.5 -175.5t158.5 -63.5t158.5 63.5t56.5 175.5v1016h295v-942q0 -152 -29.5 -261.5t-91.5 -180.5t-158.5 -104.5 t-230.5 -33.5z" />
<glyph unicode="&#x171;" d="M492 1646h217l-248 -376h-164zM854 1646h231l-272 -376h-174zM480 -29q-157 0 -238.5 105.5t-81.5 314.5v729h293v-684q0 -117 33 -171t107 -54q88 0 131.5 69.5t43.5 196.5v643h293v-1120h-264l-29 166q-31 -92 -103.5 -143.5t-184.5 -51.5z" />
<glyph unicode="&#x172;" d="M1126 1493v-942q0 -143 -26 -248.5t-80.5 -176t-139.5 -108.5t-202 -45q-15 -20 -25.5 -35t-17.5 -26t-11.5 -19t-8.5 -15q-10 -18 -14.5 -32t-4.5 -28q0 -35 28 -61.5t90 -26.5q31 0 69.5 7.5t78.5 23.5v-156q-54 -11 -101.5 -16.5t-85.5 -5.5q-117 0 -179 45.5 t-62 131.5q0 53 25 104.5t77 109.5q-112 10 -193.5 49t-134 109.5t-77.5 174.5t-25 244v942h295v-1016q0 -112 56.5 -175.5t158.5 -63.5t158.5 63.5t56.5 175.5v1016h295z" />
<glyph unicode="&#x173;" d="M1080 -254q31 0 69.5 7.5t78.5 23.5v-156q-54 -11 -101.5 -16.5t-85.5 -5.5q-117 0 -179 45.5t-62 131.5q0 55 27 109t84 115h-143v166q-31 -92 -103.5 -143.5t-184.5 -51.5q-157 0 -238.5 105.5t-81.5 314.5v729h293v-684q0 -117 33 -171t107 -54q88 0 131.5 69.5 t43.5 196.5v643h293v-1120h-9q-17 -23 -29 -40t-20 -29t-13 -21t-9 -16q-10 -18 -14.5 -32t-4.5 -28q0 -35 28 -61.5t90 -26.5z" />
<glyph unicode="&#x174;" d="M461 1859h309l223 -264h-178l-199 161l-198 -161h-178zM0 1493h258l107 -1096l129 709h245l150 -709l84 1096h260l-172 -1493h-275l-170 784l-159 -784h-273z" />
<glyph unicode="&#x175;" d="M496 1646h241l256 -376h-178l-199 225l-198 -225h-178zM0 1120h244l133 -858l121 565h237l119 -565l135 858h244l-203 -1120h-278l-136 582l-135 -582h-278z" />
<glyph unicode="&#x176;" d="M461 1859h309l223 -264h-178l-199 161l-198 -161h-178zM469 588l-461 905h318l290 -600l291 600h318l-461 -905v-588h-295v588z" />
<glyph unicode="&#x177;" d="M507 1646h241l256 -376h-178l-199 225l-198 -225h-178zM137 -201h119q44 0 76 6.5t56.5 25t44.5 52t40 88.5l22 60l-426 1089h308l256 -727l245 727h308l-465 -1241q-59 -158 -141.5 -230.5t-200.5 -72.5h-242v223z" />
<glyph unicode="&#x178;" d="M331 1606q-30 0 -30 30v186q0 30 30 30h176q30 0 30 -30v-186q0 -30 -30 -30h-176zM726 1606q-30 0 -30 30v186q0 30 30 30h176q30 0 30 -30v-186q0 -30 -30 -30h-176zM469 588l-461 905h318l290 -600l291 600h318l-461 -905v-588h-295v588z" />
<glyph unicode="&#x179;" d="M699 1853h284l-286 -264h-197zM115 244l671 989h-649v260h1010v-244l-692 -989h706v-260h-1046v244z" />
<glyph unicode="&#x17a;" d="M750 1646h282l-368 -376h-197zM162 229l590 672h-566v219h895v-229l-589 -672h589v-219h-919v229z" />
<glyph unicode="&#x17b;" d="M559 1606q-30 0 -30 30v186q0 30 30 30h215q30 0 30 -30v-186q0 -30 -30 -30h-215zM115 244l671 989h-649v260h1010v-244l-692 -989h706v-260h-1046v244z" />
<glyph unicode="&#x17c;" d="M509 1320q-30 0 -30 30v186q0 30 30 30h215q30 0 30 -30v-186q0 -30 -30 -30h-215zM162 229l590 672h-566v219h895v-229l-589 -672h589v-219h-919v229z" />
<glyph unicode="&#x17d;" d="M240 1852h178l198 -162l199 162h178l-223 -264h-309zM115 244l671 989h-649v260h1010v-244l-692 -989h706v-260h-1046v244z" />
<glyph unicode="&#x17e;" d="M240 1645h178l198 -227l199 227h178l-256 -376h-241zM162 229l590 672h-566v219h895v-229l-589 -672h589v-219h-919v229z" />
<glyph unicode="&#x192;" d="M240 -426q-28 0 -58 3t-57 9t-56 16t-57 23v234q22 -14 42.5 -24t40.5 -17q39 -13 80 -13q94 0 147 60q52 60 69 190l80 611h-252v219h281l39 293q12 91 44.5 161.5t81.5 118.5q51 49 117 73.5t144 24.5q28 0 59 -3t57 -9q23 -5 54 -16t57 -23v-231q-23 14 -44 23t-38 15 q-39 13 -79 13q-93 0 -144 -60q-27 -32 -44.5 -79.5t-25.5 -110.5l-24 -190h260v-219h-289l-94 -713q-11 -85 -42.5 -157t-83.5 -123q-101 -99 -265 -99z" />
<glyph unicode="&#x1a0;" d="M1229 1367q0 -117 -45.5 -178.5t-131.5 -61.5q-11 0 -22.5 1t-22.5 4q46 -159 46 -386q0 -383 -132.5 -579t-391.5 -196q-260 0 -392.5 196.5t-132.5 578.5t132.5 578t392.5 196q267 0 400 -208l3 -2q35 -19 63 -19q36 0 61.5 27.5t25.5 87.5q0 30 -7.5 70t-23.5 79h156 q11 -55 16.5 -102t5.5 -86zM694 357q52 119 52 389q0 269 -52 388q-52 121 -166 121q-59 0 -99 -30.5t-66 -90.5q-52 -119 -52 -388q0 -270 52 -389q52 -121 165 -121q114 0 166 121z" />
<glyph unicode="&#x1a1;" d="M1202 1167q11 -55 16.5 -102t5.5 -86q0 -117 -45.5 -178.5t-131.5 -61.5h-10t-10 1q9 -42 14 -87t5 -94q0 -135 -36.5 -244t-104 -185.5t-163.5 -117.5t-215 -41t-214.5 41t-163 117.5t-104 185.5t-36.5 244t36.5 244t104 185.5t163 117.5t214.5 41q149 0 260 -62.5 t177 -177.5q12 -4 26 -4q36 0 61.5 27.5t25.5 87.5q0 30 -7.5 70t-23.5 79h156zM527 209q53 0 95 23.5t71 68.5t44.5 110t15.5 148q0 82 -15.5 147t-44.5 110t-71 69t-95 24t-94.5 -24t-70.5 -69t-44.5 -110t-15.5 -147q0 -83 15.5 -148t44.5 -110t70.5 -68.5t94.5 -23.5z " />
<glyph unicode="&#x1af;" d="M1206 1555q11 -55 16.5 -102t5.5 -86q0 -117 -45.5 -178.5t-131.5 -61.5h-13t-13 2v-578q0 -152 -29.5 -261.5t-91.5 -180.5t-158.5 -104.5t-230.5 -33.5t-230 33.5t-158.5 104.5t-92 180.5t-29.5 261.5v942h295v-1016q0 -112 56.5 -175.5t158.5 -63.5t158.5 63.5 t56.5 175.5v1016h295v-196q25 10 40.5 36.5t15.5 72.5q0 30 -7.5 70t-23.5 79h156v0z" />
<glyph unicode="&#x1b0;" d="M1203 1167q11 -55 16.5 -102t5.5 -86q0 -117 -45.5 -178.5t-131.5 -61.5q-69 0 -139 44v-783h-264l-29 166q-31 -92 -103.5 -143.5t-184.5 -51.5q-157 0 -238.5 105.5t-81.5 314.5v729h293v-684q0 -117 33 -171t107 -54q88 0 131.5 69.5t43.5 196.5v643h293v-187 q5 -3 9.5 -6t9.5 -5q35 -19 63 -19q36 0 61.5 27.5t25.5 87.5q0 30 -7.5 70t-23.5 79h156v0z" />
<glyph unicode="&#x1e6;" d="M337 1852h178l198 -162l199 162h178l-223 -264h-309zM719 -29q-143 0 -255 51.5t-189 150.5t-117.5 243.5t-40.5 330.5q0 188 41 332t119.5 242t192 148.5t257.5 50.5q101 0 185.5 -24.5t164.5 -74.5v-327q-125 161 -319 161q-334 0 -334 -508q0 -252 79 -381.5 t240 -129.5q40 0 74 8.5t55 25.5v285h-202v248h460v-684q-173 -148 -411 -148z" />
<glyph unicode="&#x1e7;" d="M220 1673h178l198 -227l199 227h178l-256 -376h-241zM580 -424q-93 0 -182 13.5t-183 41.5v269q84 -46 169.5 -68t176.5 -22q125 0 183.5 58t58.5 183v121q-43 -81 -113.5 -119.5t-173.5 -38.5q-96 0 -173.5 39t-131.5 111t-83.5 175t-29.5 232q0 133 29.5 240t83.5 182 t131 115.5t172 40.5q97 0 171.5 -45t117.5 -127l29 143h264v-1036q0 -135 -29.5 -231t-92 -157.5t-160.5 -90.5t-234 -29zM596 246q46 0 84.5 23.5t65.5 67t42 105t15 136.5t-15 136t-42 104.5t-65.5 67t-84.5 23.5t-84 -23.5t-65 -66.5t-41.5 -104.5t-14.5 -136.5 q0 -76 14.5 -137.5t41.5 -104.5t65 -66.5t84 -23.5z" />
<glyph unicode="&#x1fe;" d="M668 1852h284l-286 -264h-197zM-6 51l168 238q-35 88 -52.5 201t-17.5 252q0 386 132.5 582t391.5 196q207 0 330 -123l113 162l162 -115l-158 -223q78 -188 78 -478q0 -380 -132.5 -576t-391.5 -196q-213 0 -341 133l-120 -167zM772 1153q-53 102 -156 102 q-112 0 -164 -120q-53 -121 -53 -379v-127zM617 236q113 0 165 121q26 60 39 156.5t13 227.5q0 31 -1 62.5t-4 84.5l-378 -534q26 -60 68.5 -89t97.5 -29z" />
<glyph unicode="&#x1ff;" d="M754 1674h282l-368 -376h-197zM27 3l163 197q-90 145 -90 360q0 135 36.5 244t104 185.5t163 117.5t214.5 41q85 0 158.5 -21.5t140.5 -66.5l148 176l139 -121l-160 -188q46 -76 69.5 -167.5t23.5 -199.5q0 -135 -36.5 -244t-104 -185.5t-163.5 -117.5t-215 -41 q-168 0 -301 90l-151 -178zM747 861q-26 25 -57 37t-70 12q-53 0 -95 -24t-71.5 -69t-45 -110t-15.5 -147q0 -34 2 -60t6 -50zM620 210q52 0 93.5 24t70.5 69.5t44.5 110.5t15.5 146q0 29 -2.5 58t-8.5 58l-348 -413q60 -53 135 -53z" />
<glyph unicode="&#x218;" d="M584 -29q-123 0 -231.5 25.5t-217.5 79.5v305q115 -83 226.5 -124.5t214.5 -41.5q115 0 175 48.5t60 135.5q0 72 -40.5 122t-115.5 79l-145 55q-109 41 -182 84t-117.5 92.5t-63 109t-18.5 134.5q0 107 33.5 190t96.5 139.5t153 86t204 29.5q103 0 205.5 -23.5 t204.5 -69.5v-288q-96 67 -193 102t-194 35q-108 0 -164.5 -43t-56.5 -121q0 -64 42 -104q20 -20 59.5 -41t113.5 -49l127 -48q93 -35 159 -78.5t108.5 -99t62.5 -123.5t20 -152q0 -224 -135 -335t-391 -111zM461 -198h282l-177 -306h-194z" />
<glyph unicode="&#x219;" d="M613 -29q-103 0 -208.5 17.5t-214.5 52.5v256q97 -55 197 -84t201 -29q203 0 203 124q0 28 -9.5 45t-28.5 32q-23 18 -64.5 34t-113.5 32l-81 18q-161 36 -241.5 116t-80.5 216q0 168 117.5 257t333.5 89q91 0 184.5 -15.5t183.5 -46.5v-256q-164 105 -346 105 q-97 0 -146.5 -29t-49.5 -77q0 -47 50.5 -78.5t163.5 -58.5l11 -3l84 -20q158 -38 233.5 -121.5t75.5 -226.5q0 -349 -454 -349zM461 -198h282l-177 -306h-194z" />
<glyph unicode="&#x21a;" d="M764 0h-57q32 -36 53.5 -65.5t34.5 -56t18.5 -51t5.5 -49.5q0 -88 -61 -133.5t-189 -45.5q-48 0 -98 6.5t-104 19.5v156q91 -35 164 -35q59 0 91.5 23t32.5 61q0 29 -21 69.5t-67 100.5h-98v1235h-379v258h1053v-258h-379v-1235z" />
<glyph unicode="&#x21b;" d="M690 895v-534q0 -74 37 -107q20 -18 50.5 -25.5t70.5 -7.5h225v-225h-173q28 -33 47.5 -61t31 -53t16.5 -48t5 -47q0 -88 -61 -133.5t-189 -45.5q-48 0 -98 6.5t-104 19.5v156q91 -35 164 -35q59 0 91.5 23t32.5 61q0 27 -19 65t-61 94q-196 11 -270 79q-89 80 -89 298 v520h-286v225h286v306l293 130v-436h383v-225h-383z" />
<glyph unicode="&#x2b9;" d="M565 1638h221l-110 -498h-176z" />
<glyph unicode="&#x2bb;" d="M432 1174l197 382h215l-99 -382v-271h-313v271z" />
<glyph unicode="&#x2bc;" d="M530 1286v270h314v-270l-197 -383h-215z" />
<glyph unicode="&#x2bd;" d="M754 1218q-274 1 -274 265v246h274v-246h-122q2 -122 122 -122v-143v0z" />
<glyph unicode="&#x2be;" d="M474 1140q27 0 51 10.5t42 28t28 41.5t10 51t-10.5 51t-28 41.5t-41.5 28t-51 10.5v154q59 0 111 -22.5t90.5 -61t61 -90.5t22.5 -111t-22.5 -111t-61 -90.5t-90.5 -61t-111 -22.5v154z" />
<glyph unicode="&#x2bf;" d="M759 986q-59 0 -111 22.5t-90.5 61t-61 90.5t-22.5 111t22.5 111t61 90.5t90.5 61t111 22.5v-154q-27 0 -51 -10.5t-41.5 -28t-28 -41.5t-10.5 -51t10 -51t28 -41.5t42 -28t51 -10.5v-154v0z" />
<glyph unicode="&#x2c0;" d="M442 1080h54q125 0 174 64q33 43 33 82q0 53 -33 91q-57 64 -160 64q-92 0 -182 -48v167q22 9 43 16.5t47.5 12.5t62.5 7.5t89 2.5q69 0 130 -26.5t106.5 -70t72 -100t26.5 -116.5q0 -65 -20 -113.5t-54.5 -82.5t-81.5 -54.5t-101 -29.5v-278h-206v412z" />
<glyph unicode="&#x2c1;" d="M585 946q-54 9 -101 29.5t-81.5 54.5t-54.5 82.5t-20 113.5q0 60 26.5 116.5t72 100t106.5 70t130 26.5q52 0 88.5 -2.5t63 -7.5t47.5 -12.5t43 -16.5v-167q-90 48 -182 48q-103 0 -160 -64q-33 -38 -33 -91q0 -39 33 -82q49 -64 174 -64h54v-412h-206v278z" />
<glyph unicode="&#x2c6;" d="M496 1638h241l256 -376h-178l-199 225l-198 -225h-178z" />
<glyph unicode="&#x2c7;" d="M240 1638h178l198 -227l199 227h178l-256 -376h-241z" />
<glyph unicode="&#x2c8;" d="M522 1554h189v-555h-189v555z" />
<glyph unicode="&#x2c9;" d="M301 1556h631v-188h-631v188z" />
<glyph unicode="&#x2cc;" d="M522 390h189v-555h-189v555z" />
<glyph unicode="&#x2cd;" d="M301 -218h631v-188h-631v188z" />
<glyph unicode="&#x2ce;" d="M297 -208h282l283 -376h-197z" />
<glyph unicode="&#x2cf;" d="M654 -208h282l-368 -376h-197z" />
<glyph unicode="&#x2d0;" d="M411 1120h411l-206 -380zM617 380l205 -380h-411z" />
<glyph unicode="&#x2d1;" d="M411 1120h411l-206 -380z" />
<glyph unicode="&#x2d8;" d="M616 1309q-156 0 -242 77q-87 77 -93 220h141q10 -68 61 -106q50 -38 133 -38q84 0 133 37q50 38 60 107h143q-6 -143 -92 -220q-88 -77 -244 -77z" />
<glyph unicode="&#x2d9;" d="M509 1339q-30 0 -30 30v186q0 30 30 30h215q30 0 30 -30v-186q0 -30 -30 -30h-215v0z" />
<glyph unicode="&#x2da;" d="M617 1249q-57 0 -109.5 21t-93.5 62q-35 35 -58.5 87.5t-23.5 115.5q0 64 24 115.5t59 86.5q41 41 92.5 61.5t108.5 20.5q62 0 113.5 -22.5t88.5 -59.5q36 -36 59.5 -88t23.5 -116q0 -57 -20.5 -107.5t-61.5 -92.5q-42 -42 -93.5 -63t-108.5 -21zM617 1403q54 0 93 39 q38 38 38 92t-39 93q-40 38 -93 38q-54 0 -92 -38q-39 -39 -39 -93q0 -55 38 -93q16 -16 40 -27t54 -11z" />
<glyph unicode="&#x2db;" d="M681 -401q-54 0 -98 11.5t-75 34.5q-62 47 -62 132q0 31 7.5 56t20.5 51q15 30 35 57.5t48 58.5h141q-17 -23 -29 -40t-20 -29t-13 -21t-9 -16q-19 -35 -19 -60q0 -21 9 -37.5t21 -26.5q16 -13 38 -18.5t48 -5.5q14 0 33 1.5t39 5.5q15 3 35.5 9t42.5 15v-156 q-9 -2 -22.5 -4.5t-27.5 -5t-27.5 -4.5t-23.5 -3q-13 -2 -40.5 -3.5t-51.5 -1.5z" />
<glyph unicode="&#x2dc;" d="M768 1307q-36 0 -69 12t-81 45l-67 45q-22 14 -39 21.5t-33 7.5q-19 0 -31.5 -8.5t-20.5 -22.5q-19 -31 -19 -90v-8h-140q0 71 13.5 123.5t38.5 87.5q23 33 59 53t86 20q37 0 72 -13q20 -8 38 -18.5t39 -25.5l62 -43q13 -9 21 -13.5t19 -9.5q19 -8 35 -8q35 0 55 32 q19 31 19 89v8h140q0 -137 -51 -210q-24 -35 -60.5 -54.5t-85.5 -19.5z" />
<glyph unicode="&#x2dd;" d="M492 1638h217l-248 -376h-164zM854 1638h231l-272 -376h-174z" />
<glyph unicode="&#x300;" horiz-adv-x="0" d="M-1034 1638h282l283 -376h-197z" />
<glyph unicode="&#x301;" horiz-adv-x="0" d="M-481 1638h282l-368 -376h-197z" />
<glyph unicode="&#x302;" horiz-adv-x="0" d="M-737 1638h241l256 -376h-178l-199 225l-198 -225h-178z" />
<glyph unicode="&#x303;" horiz-adv-x="0" d="M-469 1307q-16 0 -31 2.5t-32 9t-37.5 17.5t-45.5 28l-55 37l-12 8q-22 14 -39 21.5t-33 7.5q-34 0 -52.5 -31.5t-18.5 -89.5v-8h-140q0 137 51.5 210.5t145.5 73.5q38 0 72 -13.5t77 -43.5l62 -43q20 -14 38.5 -22.5t36.5 -8.5q35 0 54.5 32t19.5 89v8h140 q0 -137 -51.5 -210.5t-149.5 -73.5z" />
<glyph unicode="&#x304;" horiz-adv-x="0" d="M-932 1556h631v-188h-631v188z" />
<glyph unicode="&#x305;" horiz-adv-x="0" d="M-1233 1547h1233v-190h-1233v190z" />
<glyph unicode="&#x306;" horiz-adv-x="0" d="M-617 1309q-157 0 -243 76t-92 221h141q11 -69 60.5 -106.5t133.5 -37.5t133 37t60 107h143q-6 -145 -92 -221t-244 -76z" />
<glyph unicode="&#x307;" horiz-adv-x="0" d="M-754 1585h275v-246h-275v246z" />
<glyph unicode="&#x308;" horiz-adv-x="0" d="M-932 1585h236v-246h-236v246zM-537 1585h236v-246h-236v246z" />
<glyph unicode="&#x309;" horiz-adv-x="0" d="M-685 1376q28 7 59.5 24.5t48.5 37.5q11 11 16.5 26t5.5 36q0 34 -13.5 53t-33 27.5t-40.5 10t-35 0.5h-50q-47 0 -116 -31v152q106 26 202 26q224 0 248 -145q1 -10 1.5 -20t0.5 -18q0 -49 -26 -100t-78 -109v-84h-190v114z" />
<glyph unicode="&#x30a;" horiz-adv-x="0" d="M-617 1249q-59 0 -110.5 22.5t-90 61t-61 90.5t-22.5 111t22.5 111t61 90.5t90 61t110.5 22.5q60 0 112 -22.5t90.5 -61t60.5 -90.5t22 -111t-22 -111t-60.5 -90.5t-90.5 -61t-112 -22.5zM-617 1403q27 0 51 10.5t42 28t28.5 41.5t10.5 51t-10.5 51t-28.5 41.5t-42 28 t-51 10.5t-51 -10.5t-41.5 -28t-28 -41.5t-10.5 -51t10.5 -51t28 -42t41.5 -28t51 -10z" />
<glyph unicode="&#x30b;" horiz-adv-x="0" d="M-741 1638h217l-248 -376h-164zM-379 1638h231l-272 -376h-174z" />
<glyph unicode="&#x30c;" horiz-adv-x="0" d="M-993 1638h178l198 -227l199 227h178l-256 -376h-241z" />
<glyph unicode="&#x30d;" horiz-adv-x="0" d="M-711 1706h190v-444h-190v444z" />
<glyph unicode="&#x30e;" horiz-adv-x="0" d="M-996 1706h190v-444h-190v444zM-426 1706h190v-444h-190v444z" />
<glyph unicode="&#x30f;" horiz-adv-x="0" d="M-1091 1638h231l215 -376h-174zM-714 1638h217l194 -376h-163z" />
<glyph unicode="&#x310;" horiz-adv-x="0" d="M-754 1801h275v-246h-275v246zM-617 1309q-157 0 -243 76t-92 221h141q11 -69 60.5 -106.5t133.5 -37.5t133 37t60 107h143q-6 -145 -92 -221t-244 -76z" />
<glyph unicode="&#x311;" horiz-adv-x="0" d="M-952 1309q6 145 92 221t243 76q158 0 244 -76t92 -221h-143q-11 70 -60 107t-133 37t-133.5 -37.5t-60.5 -106.5h-141v0z" />
<glyph unicode="&#x312;" horiz-adv-x="0" d="M-609 1209h194l-89 -306h-282z" />
<glyph unicode="&#x313;" horiz-adv-x="0" d="M-753 1361q120 0 120 122h-120v246h274v-246q0 -264 -274 -265v143z" />
<glyph unicode="&#x314;" horiz-adv-x="0" d="M-479 1218q-274 1 -274 265v246h274v-246h-122q2 -122 122 -122v-143v0z" />
<glyph unicode="&#x315;" horiz-adv-x="0" d="M-688 1638h282l-161 -376h-197z" />
<glyph unicode="&#x316;" horiz-adv-x="0" d="M-899 -217h282l283 -376h-197z" />
<glyph unicode="&#x317;" horiz-adv-x="0" d="M-616 -217h282l-368 -376h-197z" />
<glyph unicode="&#x318;" horiz-adv-x="0" d="M-683 -624h-182v189h182v183h190v-555h-190v183z" />
<glyph unicode="&#x319;" horiz-adv-x="0" d="M-760 -252h189v-183h183v-189h-183v-183h-189v555z" />
<glyph unicode="&#x31a;" horiz-adv-x="0" d="M-528 1713h-366v189h555v-555h-189v366z" />
<glyph unicode="&#x31b;" horiz-adv-x="0" d="M-594 739q-54 0 -108 27t-115 84v141q34 -25 59.5 -42t44.5 -27q35 -19 62 -19q39 0 63.5 29.5t24.5 78.5q0 78 -31 156h156q22 -107 22 -190q0 -115 -45.5 -176.5t-132.5 -61.5z" />
<glyph unicode="&#x31c;" horiz-adv-x="0" d="M-507 -502q-46 0 -86 17t-69.5 47t-46.5 70t-17 86t17 86t46.5 69.5t69.5 46.5t86 17v-132q-37 0 -62 -25t-25 -62q0 -38 25 -63t62 -25v-132v0z" />
<glyph unicode="&#x31d;" horiz-adv-x="0" d="M-890 -435h182v183h190v-183h183v-189h-555v189z" />
<glyph unicode="&#x31e;" horiz-adv-x="0" d="M-735 -624h-183v189h555v-189h-183v-183h-189v183z" />
<glyph unicode="&#x31f;" horiz-adv-x="0" d="M-698 -624h-182v189h182v183h190v-183h183v-189h-183v-183h-190v183z" />
<glyph unicode="&#x320;" horiz-adv-x="0" d="M-894 -252h555v-189h-555v189z" />
<glyph unicode="&#x321;" horiz-adv-x="0" d="M-674 -199h39q49 0 83.5 12.5t56.5 41t32 75t10 113.5v125h291v-125q0 -125 -21.5 -213.5t-69 -145t-121.5 -82.5t-179 -26h-121v225z" />
<glyph unicode="&#x322;" horiz-adv-x="0" d="M-675 -426q-105 0 -179 26t-121.5 82.5t-69 145t-21.5 213.5v125h291v-125q0 -67 10 -113.5t32 -75t56.5 -41t83.5 -12.5h39v-225h-121v0z" />
<glyph unicode="&#x323;" horiz-adv-x="0" d="M-754 -216h275v-246h-275v246z" />
<glyph unicode="&#x324;" horiz-adv-x="0" d="M-932 -216h236v-246h-236v246zM-537 -216h236v-246h-236v246z" />
<glyph unicode="&#x325;" horiz-adv-x="0" d="M-617 -502q-46 0 -86 17t-69.5 47t-46.5 70t-17 86t17 86t46.5 69.5t69.5 46.5t86 17t86.5 -17t70 -46.5t46.5 -69.5t17 -86t-17 -86t-46.5 -70t-70 -47t-86.5 -17zM-617 -370q37 0 62.5 25.5t25.5 62.5q0 36 -25.5 61.5t-62.5 25.5t-62 -25t-25 -62q0 -38 25 -63t62 -25 z" />
<glyph unicode="&#x326;" horiz-adv-x="0" d="M-772 -198h282l-177 -306h-194z" />
<glyph unicode="&#x327;" horiz-adv-x="0" d="M-664 -401q-48 0 -98 6.5t-104 19.5v156q91 -35 165 -35q58 0 90.5 23t32.5 63q0 26 -21 67t-67 101h140q57 -63 84.5 -115t27.5 -100q0 -96 -61 -141t-189 -45z" />
<glyph unicode="&#x328;" horiz-adv-x="0" d="M-593 -401q-115 0 -176.5 45.5t-61.5 132.5q0 54 27 108t84 115h141q-52 -70 -71 -106q-19 -34 -19 -60q0 -39 30 -63.5t81 -24.5q77 0 155 31v-156q-106 -22 -190 -22z" />
<glyph unicode="&#x329;" horiz-adv-x="0" d="M-711 -218h189v-444h-189v444z" />
<glyph unicode="&#x32a;" horiz-adv-x="0" d="M-931 -218h630v-374h-188v186h-254v-186h-188v374z" />
<glyph unicode="&#x32b;" horiz-adv-x="0" d="M-785 -489q-179 0 -226 191q-5 24 -8.5 50.5t-4.5 55.5h143q19 -137 96 -144q80 0 95 128q1 4 1 8t1 8h143q19 -137 96 -144q71 0 92 109q2 9 3 18t2 17h143q-6 -208 -127 -272q-47 -25 -112 -25q-108 0 -169 70q-61 -70 -168 -70z" />
<glyph unicode="&#x32c;" horiz-adv-x="0" d="M-993 -109h178l198 -227l199 227h178l-256 -376h-241z" />
<glyph unicode="&#x32d;" horiz-adv-x="0" d="M-737 -109h241l256 -376h-178l-199 225l-198 -225h-178z" />
<glyph unicode="&#x32e;" horiz-adv-x="0" d="M-617 -491q-157 0 -243 76t-92 221h141q11 -69 60.5 -106.5t133.5 -37.5t133 37t60 107h143q-6 -145 -92 -221t-244 -76z" />
<glyph unicode="&#x32f;" horiz-adv-x="0" d="M-952 -489q6 145 92 221t244 76q157 0 243 -76t92 -221h-141q-11 69 -60.5 106.5t-133.5 37.5t-133 -37t-60 -107h-143v0z" />
<glyph unicode="&#x330;" horiz-adv-x="0" d="M-465 -487q-36 0 -69 12t-81 45l-55 37l-12 8q-44 29 -70 29q-73 0 -73 -121v-8h-140q0 137 51.5 210.5t145.5 73.5q36 0 71.5 -13.5t77.5 -43.5l62 -43q43 -31 74 -31q36 0 55.5 31.5t19.5 89.5v8h140q0 -137 -51.5 -210.5t-145.5 -73.5z" />
<glyph unicode="&#x331;" horiz-adv-x="0" d="M-932 -218h631v-188h-631v188z" />
<glyph unicode="&#x332;" horiz-adv-x="0" d="M-1233 -293h1233v-190h-1233v190z" />
<glyph unicode="&#x333;" horiz-adv-x="0" d="M-1233 -18h1233v-190h-1233v190zM-1233 -293h1233v-190h-1233v190z" />
<glyph unicode="&#x334;" horiz-adv-x="0" d="M-385 463q-91 0 -203 51q-11 5 -19.5 8.5t-13.5 5.5q-39 17 -70 28t-58.5 18t-52.5 9.5t-50 2.5q-78 0 -148 -29t-145 -92v229q78 61 151 88t156 27q27 0 51.5 -2.5t51.5 -8.5t57 -16.5t67 -25.5l33 -15q114 -55 209 -55q70 0 139 30.5t142 94.5v-233 q-75 -60 -146.5 -87.5t-150.5 -27.5z" />
<glyph unicode="&#x335;" horiz-adv-x="0" d="M-1041 632h774v-194h-774v194z" />
<glyph unicode="&#x336;" horiz-adv-x="0" d="M-1233 632h1233v-194h-1233v194z" />
<glyph unicode="&#x337;" horiz-adv-x="0" d="M-1208 2l1038 1233l139 -121l-1038 -1231z" />
<glyph unicode="&#x338;" horiz-adv-x="0" d="M-1239 51l1065 1508l162 -115l-1065 -1507z" />
<glyph unicode="&#x339;" horiz-adv-x="0" d="M-726 -370q37 0 62 25t25 63q0 37 -25 62t-62 25v132q46 0 86 -17t69.5 -46.5t46.5 -69.5t17 -86t-17 -86t-46.5 -70t-69.5 -47t-86 -17v132z" />
<glyph unicode="&#x33a;" horiz-adv-x="0" d="M-931 -146h188v-186h254v186h188v-374h-630v374z" />
<glyph unicode="&#x33b;" horiz-adv-x="0" d="M-903 -218h573v-573h-573v573zM-501 -620v231h-231v-231h231z" />
<glyph unicode="&#x33c;" horiz-adv-x="0" d="M-1024 -489q6 208 127 272q47 25 112 25q107 0 168 -70q61 70 169 70q179 0 226 -191q5 -24 8.5 -50.5t4.5 -55.5h-143q-20 137 -97 144q-79 0 -94 -128q-1 -4 -1 -8t-1 -8h-143q-20 137 -97 144q-70 0 -91 -109q-2 -9 -3 -18t-2 -17h-143v0z" />
<glyph unicode="&#x33d;" horiz-adv-x="0" d="M-880 1326l129 129l-129 129l134 134l129 -129l130 129l134 -134l-129 -129l129 -129l-134 -134l-130 129l-129 -129z" />
<glyph unicode="&#x33e;" horiz-adv-x="0" d="M-757 1340h8q57 0 88.5 15t31.5 42q0 23 -30 55l-44 46q-31 33 -43.5 59t-12.5 53q0 82 73.5 123.5t210.5 41.5v-122h-8q-57 0 -90 -14q-32 -14 -32 -41q0 -19 32 -54q5 -5 6 -8l36 -41q18 -20 29.5 -34.5t17.5 -27.5t8.5 -25t2.5 -26q0 -82 -73.5 -123t-210.5 -41v122z " />
<glyph unicode="&#x33f;" horiz-adv-x="0" d="M0 1272v-190h-1233v190h1233z" />
<glyph unicode="&#x358;" horiz-adv-x="0" d="M-280 1585h275v-246h-275v246z" />
<glyph unicode="&#x361;" horiz-adv-x="0" d="M-1473 1506q-8 58 23.5 102t92 76t144.5 54t182 36t204.5 20.5t211.5 8.5q87 2 186.5 -3.5t197 -19.5t187 -37t156 -56.5t103 -78.5t28.5 -102h-143q-14 71 -211 107q-103 19 -228 28t-276 9q-304 0 -504 -37q-197 -36 -211 -107h-143v0z" />
<glyph unicode="&#x384;" d="M752 1638h282l-368 -376h-197z" />
<glyph unicode="&#x385;" d="M752 1891h282l-368 -376h-197zM211 1320q-30 0 -30 30v186q0 30 30 30h176q30 0 30 -30v-186q0 -30 -30 -30h-176zM816 1320q-30 0 -30 30v186q0 30 30 30h176q30 0 30 -30v-186q0 -30 -30 -30h-176z" />
<glyph unicode="&#x386;" d="M202 1638h282l-368 -376h-197zM436 1493h361l403 -1493h-295l-92 369h-395l-90 -369h-295zM756 612l-140 611l-139 -611h279z" />
<glyph unicode="&#x388;" d="M-68 1638h282l-368 -376h-197zM168 1493h930v-260h-635v-322h575v-260h-575v-391h635v-260h-930v1493z" />
<glyph unicode="&#x389;" d="M-108 1638h282l-368 -376h-197zM137 1493h295v-569h369v569h295v-1493h-295v664h-369v-664h-295v1493z" />
<glyph unicode="&#x38a;" d="M-48 1638h282l-368 -376h-197zM172 260h297v973h-297v260h889v-260h-297v-973h297v-260h-889v260z" />
<glyph unicode="&#x38c;" d="M112 1638h282l-368 -376h-197zM617 -29q-260 0 -392.5 196.5t-132.5 578.5t132.5 578t392.5 196q259 0 391.5 -195.5t132.5 -578.5t-132.5 -579t-391.5 -196zM616 236q114 0 166 121q52 119 52 389q0 269 -52 388q-52 121 -166 121q-59 0 -99 -30.5t-66 -90.5 q-52 -119 -52 -388q0 -270 52 -389q52 -121 165 -121z" />
<glyph unicode="&#x38e;" d="M-253 1608h282l-368 -376h-197zM469 534q0 117 -16.5 227.5t-44 201t-63.5 154t-75 86.5q-17 10 -44.5 18t-60 12.5t-67 3.5t-64.5 -8v264q16 6 42 8.5t56.5 2t63.5 -4t65 -9.5q65 -14 119.5 -43t98 -80t75.5 -127t52 -183q106 377 344 433q101 24 175 -23q50 -31 72 -77 t26 -94.5t-6.5 -93t-25.5 -72.5q-17 -32 -41 -48t-50.5 -19.5t-53 5.5t-48.5 28t-37.5 46t-19.5 61q-92 -136 -134.5 -301.5t-42.5 -367.5v-534h-295v534z" />
<glyph unicode="&#x38f;" d="M157 1638h282l-368 -376h-197zM90 211h238q-58 52 -101 111.5t-71 128.5t-42 149.5t-14 176.5q0 159 36.5 285.5t103.5 215t162 135.5t213 47t214 -47t163.5 -135.5t104 -215t36.5 -285.5q0 -96 -14 -177t-42.5 -150t-71 -128t-100.5 -111h238v-211h-471v268 q81 79 120 196t39 287q0 105 -14.5 187.5t-42 139t-67.5 86.5t-91 30t-91 -30t-67.5 -86.5t-42 -138.5t-14.5 -187q0 -162 37.5 -282t124.5 -202v-268h-473v211z" />
<glyph unicode="&#x390;" d="M752 1891h282l-368 -376h-197zM211 1320q-30 0 -30 30v186q0 30 30 30h176q30 0 30 -30v-186q0 -30 -30 -30h-176zM816 1320q-30 0 -30 30v186q0 30 30 30h176q30 0 30 -30v-186q0 -30 -30 -30h-176zM901 -8q-126 0 -209 17.5t-132 61t-69 116.5t-20 184v524h-201v225 h493v-763q0 -74 37 -107t121 -33h58v-225h-78z" />
<glyph unicode="&#x391;" d="M436 1493h361l403 -1493h-295l-92 369h-395l-90 -369h-295zM756 612l-140 611l-139 -611h279z" />
<glyph unicode="&#x392;" d="M125 1495h481q500 0 500 -376q0 -146 -73.5 -226.5t-217.5 -93.5q176 -18 260 -116.5t84 -275.5q0 -107 -31.5 -184t-99 -126.5t-172 -73t-250.5 -23.5h-481v1495zM606 913q56 0 95.5 9.5t64 30t36 53t11.5 78.5q0 93 -48.5 134.5t-158.5 41.5h-196v-347h196zM606 236 q70 0 118.5 11t78.5 36.5t43.5 66t13.5 99.5q0 61 -14 104.5t-44.5 71t-79 40.5t-116.5 13h-196v-442h196z" />
<glyph unicode="&#x393;" d="M182 1493h930v-260h-635v-1233h-295v1493z" />
<glyph unicode="&#x394;" d="M436 1493h361l403 -1493h-1167zM845 260l-229 963l-229 -963h458z" />
<glyph unicode="&#x395;" d="M168 1493h930v-260h-635v-322h575v-260h-575v-391h635v-260h-930v1493z" />
<glyph unicode="&#x396;" d="M115 244l671 989h-649v260h1010v-244l-692 -989h706v-260h-1046v244z" />
<glyph unicode="&#x397;" d="M137 1493h295v-569h369v569h295v-1493h-295v664h-369v-664h-295v1493z" />
<glyph unicode="&#x398;" d="M617 -29q-260 0 -392.5 196.5t-132.5 578.5t132.5 578t392.5 196q259 0 391.5 -195.5t132.5 -578.5t-132.5 -579t-391.5 -196zM616 236q114 0 166 121q52 119 52 389q0 269 -52 388q-52 121 -166 121q-59 0 -99 -30.5t-66 -90.5q-52 -119 -52 -388q0 -270 52 -389 q52 -121 165 -121zM489 911h254v-260h-254v260z" />
<glyph unicode="&#x399;" d="M172 260h297v973h-297v260h889v-260h-297v-973h297v-260h-889v260z" />
<glyph unicode="&#x39a;" d="M117 1493h295v-590l462 590h334l-471 -588l488 -905h-328l-354 672l-131 -166v-506h-295v1493z" />
<glyph unicode="&#x39b;" d="M436 1493h361l403 -1493h-295l-289 1223l-288 -1223h-295z" />
<glyph unicode="&#x39c;" d="M86 1493h352l178 -655l177 655h354v-1493h-254v1196l-158 -653h-235l-160 653v-1196h-254v1493z" />
<glyph unicode="&#x39d;" d="M119 1493h317l416 -1085v1085h260v-1493h-315l-418 1085v-1085h-260v1493z" />
<glyph unicode="&#x39e;" d="M137 1493h959v-260h-959v260zM377 924h479v-260h-479v260zM137 260h959v-260h-959v260z" />
<glyph unicode="&#x39f;" d="M617 -29q-260 0 -392.5 196.5t-132.5 578.5t132.5 578t392.5 196q259 0 391.5 -195.5t132.5 -578.5t-132.5 -579t-391.5 -196zM616 236q114 0 166 121q52 119 52 389q0 269 -52 388q-52 121 -166 121q-59 0 -99 -30.5t-66 -90.5q-52 -119 -52 -388q0 -270 52 -389 q52 -121 165 -121z" />
<glyph unicode="&#x3a0;" d="M137 1493h959v-1493h-295v1233h-369v-1233h-295v1493z" />
<glyph unicode="&#x3a1;" d="M162 1493h405q154 0 264 -26.5t180.5 -83.5t103 -145.5t32.5 -211.5t-32.5 -211.5t-103 -145.5t-180.5 -83.5t-264 -26.5h-110v-559h-295v1493zM578 807q72 0 122 11.5t81 37.5t45 68t14 102t-14 102t-45 68t-81 37.5t-122 11.5h-121v-438h121z" />
<glyph unicode="&#x3a3;" d="M98 260l401 487l-401 487v259h1046v-260h-706l402 -486l-402 -487h706v-260h-1046v260z" />
<glyph unicode="&#x3a4;" d="M469 1235h-379v258h1053v-258h-379v-1235h-295v1235z" />
<glyph unicode="&#x3a5;" d="M459 534q0 117 -16.5 227.5t-44 201t-63.5 154t-75 86.5q-17 10 -44.5 18t-60 12.5t-67 3.5t-64.5 -8v264q16 6 42 8.5t56.5 2t63.5 -4t65 -9.5q65 -14 119.5 -43t98 -80t75.5 -127t52 -183q106 377 344 433q101 24 175 -23q50 -31 72 -77t26 -94.5t-6.5 -93t-25.5 -72.5 q-17 -32 -41 -48t-50.5 -19.5t-53 5.5t-48.5 28t-37.5 46t-19.5 61q-92 -136 -134.5 -301.5t-42.5 -367.5v-534h-295v534z" />
<glyph unicode="&#x3a6;" d="M350 260h119v70q-76 11 -144.5 38t-120 75.5t-82 123t-30.5 179.5t30 178.5t82 122.5t120 75.5t145 38.5v72h-119v260h533v-260h-119v-72q76 -12 144.5 -38.5t120.5 -75.5t82 -122.5t30 -178.5t-30.5 -179.5t-82 -123t-120 -75.5t-144.5 -38v-70h119v-260h-533v260z M469 965l-35 -27q-41 -32 -61 -80.5t-20 -106.5q0 -60 21 -109.5t60 -88.5q16 -16 35 -27v439zM764 526q16 9 36 27q16 15 30.5 36t25.5 47t17.5 55.5t6.5 61.5q0 52 -19 102t-62 83l-14 10.5t-2.5 2t-3 2.5t-15.5 12v-439z" />
<glyph unicode="&#x3a7;" d="M465 758l-426 735h305l272 -475l273 475h305l-424 -735l436 -758h-305l-285 494l-284 -494h-305z" />
<glyph unicode="&#x3a8;" d="M350 260h119v132q-149 44 -245 176q-75 103 -109.5 247t-34.5 331v347h295v-347q0 -251 64 -388q5 -10 14 -27.5t16 -25.5v788h295v-788q7 9 15 24t15 29q64 137 64 388v347h295v-347q0 -194 -36 -336t-109 -242q-97 -132 -244 -176v-132h119v-260h-533v260z" />
<glyph unicode="&#x3a9;" d="M90 211h238q-121 110 -174 245q-54 135 -54 325q0 157 36 283t103 214q65 85 159.5 133.5t216.5 48.5q121 0 216 -47.5t162 -135.5q68 -88 104 -212.5t36 -282.5q0 -191 -54 -326q-53 -135 -174 -245h238v-211h-471v268q81 80 120 196q39 117 39 287q0 210 -56 327 q-56 116 -159 116q-101 0 -158 -116q-57 -117 -57 -327q0 -170 40 -287q17 -51 46 -101.5t76 -94.5v-268h-473v211z" />
<glyph unicode="&#x3aa;" d="M331 1606q-30 0 -30 30v186q0 30 30 30h176q30 0 30 -30v-186q0 -30 -30 -30h-176zM726 1606q-30 0 -30 30v186q0 30 30 30h176q30 0 30 -30v-186q0 -30 -30 -30h-176zM172 260h297v973h-297v260h889v-260h-297v-973h297v-260h-889v260z" />
<glyph unicode="&#x3ab;" d="M321 1606q-30 0 -30 30v186q0 30 30 30h176q30 0 30 -30v-186q0 -30 -30 -30h-176zM716 1606q-30 0 -30 30v186q0 30 30 30h176q30 0 30 -30v-186q0 -30 -30 -30h-176zM459 534q0 117 -16.5 227.5t-44 201t-63.5 154t-75 86.5q-17 10 -44.5 18t-60 12.5t-67 3.5t-64.5 -8 v264q16 6 42 8.5t56.5 2t63.5 -4t65 -9.5q65 -14 119.5 -43t98 -80t75.5 -127t52 -183q106 377 344 433q101 24 175 -23q50 -31 72 -77t26 -94.5t-6.5 -93t-25.5 -72.5q-17 -32 -41 -48t-50.5 -19.5t-53 5.5t-48.5 28t-37.5 46t-19.5 61q-92 -136 -134.5 -301.5 t-42.5 -367.5v-534h-295v534z" />
<glyph unicode="&#x3ac;" d="M752 1671h282l-368 -376h-197zM1062 0q-159 0 -240 84q-6 6 -13.5 15t-9.5 14q-12 -15 -25 -30t-25.5 -28t-23 -23.5t-17.5 -15.5q-19 -14 -55.5 -25.5t-84 -16.5t-102 -1t-108.5 20.5t-104 48t-88 81.5q-56 73 -84 185t-28 251q0 153 33 262t92.5 180t141 106t179.5 38 q114 4 199.5 -31.5t133.5 -101.5l36 108h282l-193 -577l27 -153q28 -165 97 -165h82v-225h-102zM695 589l-30 163q-14 76 -49 112.5t-77.5 40t-85 -21t-72.5 -69.5q-58 -89 -58 -262q0 -91 15 -151.5t43 -101.5q27 -39 60 -58.5t64 -20.5t55.5 15.5t35.5 49.5z" />
<glyph unicode="&#x3ad;" d="M752 1666h282l-368 -376h-197zM672 -22q-261 0 -392 85t-131 246q0 124 78.5 198.5t233.5 96.5q-139 20 -209 83.5t-70 165.5q0 66 31 119.5t93.5 90.5t156.5 57t220 20q42 0 76.5 -2.5t70.5 -8t77 -15t95 -22.5v-215q-53 17 -97 28.5t-82 19t-72 10.5t-66 3 q-115 0 -173.5 -33.5t-58.5 -82.5t57 -80.5t162 -31.5h151v-223h-151q-61 0 -108 -13t-79.5 -35t-49.5 -51.5t-17 -62.5q0 -30 15 -56.5t50 -46t91 -30.5t139 -11q40 0 77 3t76 11.5t82.5 22.5t96.5 35v-219q-64 -18 -117 -29t-98 -17t-83.5 -8t-74.5 -2z" />
<glyph unicode="&#x3ae;" d="M752 1673h282l-368 -376h-197zM780 682q0 118 -33.5 172.5t-106.5 54.5q-88 0 -132.5 -70.5t-44.5 -197.5v-641h-291v1120h262l29 -168q32 97 107.5 146t182.5 49q156 0 237 -104.5t81 -315.5v-1153h-291v1108z" />
<glyph unicode="&#x3af;" d="M752 1648h282l-368 -376h-197zM901 -8q-126 0 -209 17.5t-132 61t-69 116.5t-20 184v524h-201v225h493v-763q0 -74 37 -107t121 -33h58v-225h-78z" />
<glyph unicode="&#x3b0;" d="M752 1891h282l-368 -376h-197zM211 1320q-30 0 -30 30v186q0 30 30 30h176q30 0 30 -30v-186q0 -30 -30 -30h-176zM816 1320q-30 0 -30 30v186q0 30 30 30h176q30 0 30 -30v-186q0 -30 -30 -30h-176zM610 0q-121 0 -193.5 29.5t-111.5 80.5t-51.5 120t-12.5 149v516h-165 v225h457v-755q0 -37 10 -63.5t27 -43.5t40.5 -25t49.5 -8q94 0 148.5 101.5t56.5 313.5q1 69 -5 137t-20.5 130.5t-39.5 117t-63 95.5h291q27 -37 51 -89.5t41 -117.5t27 -140.5t10 -157.5q0 -140 -31 -253.5t-97 -193.5t-170 -124t-249 -44z" />
<glyph unicode="&#x3b1;" d="M1062 0q-159 0 -240 84q-6 6 -13.5 15t-9.5 14q-12 -15 -25 -30t-25.5 -28t-23 -23.5t-17.5 -15.5q-19 -14 -55.5 -25.5t-84 -16.5t-102 -1t-108.5 20.5t-104 48t-88 81.5q-56 73 -84 185t-28 251q0 153 33 262t92.5 180t141 106t179.5 38q114 4 199.5 -31.5 t133.5 -101.5l36 108h282l-193 -577l27 -153q28 -165 97 -165h82v-225h-102zM695 589l-30 163q-14 76 -49 112.5t-77.5 40t-85 -21t-72.5 -69.5q-58 -89 -58 -262q0 -91 15 -151.5t43 -101.5q27 -39 60 -58.5t64 -20.5t55.5 15.5t35.5 49.5z" />
<glyph unicode="&#x3b2;" d="M132 1113q0 229 108.5 342.5t318.5 113.5q102 0 180.5 -25.5t135.5 -68.5t93.5 -100t54 -120t18 -128.5t-14.5 -124.5t-44 -109t-71 -83q118 -41 171 -130.5t53 -240.5q0 -210 -98 -330t-300 -130q-96 -5 -173.5 18t-141.5 72v-495h-291zM422 402q33 -51 76 -88t89 -57.5 t90 -22t79 19.5t56.5 66t21.5 118q0 63 -17.5 106t-52 69t-87.5 36.5t-123 7.5v223q46 -2 81.5 16.5t59 50t36 72.5t13.5 84t-9.5 84t-33 73.5t-56 52.5t-78.5 20q-145 0 -145 -226v-705z" />
<glyph unicode="&#x3b3;" d="M479 0l-233 752q-11 36 -26.5 61t-38.5 43q-15 12 -32 20.5t-31 8.5h-42v235h80q55 0 109.5 -20.5t102 -60.5t85.5 -98t61 -133l119 -394l243 706h297l-402 -1120v-426h-292v426z" />
<glyph unicode="&#x3b4;" d="M618 -29q-119 0 -215.5 41t-164 117t-104 185t-36.5 246q0 134 35.5 238.5t104.5 189.5q28 34 52.5 55.5t36.5 21.5q-74 32 -109.5 86t-35.5 126q0 69 32 123t93 91.5t150.5 57.5t204.5 20q45 0 90.5 -3t87.5 -9q2 -1 5 -1t5 -1q16 -2 53.5 -10.5t98.5 -23.5v-215 q-2 1 -5 2t-20 6q-49 15 -87.5 25.5t-72.5 16.5t-66 8.5t-67 2.5q-32 0 -57.5 -2t-46 -6t-37.5 -10.5t-33 -15.5l-22 -15q-17 -13 -26 -30t-9 -42q0 -33 14 -51.5t37 -28.5t52 -13.5t60 -5.5q122 -9 218.5 -48.5t163 -110.5t102 -175.5t35.5 -242.5q0 -141 -36.5 -252.5 t-104 -188.5t-163 -117.5t-213.5 -40.5zM616 209q53 0 95 23.5t71 68.5t44.5 110t15.5 148q0 82 -15.5 147t-44.5 110t-71 69t-95 24t-94.5 -24t-70.5 -69t-44.5 -110t-15.5 -147q0 -83 15.5 -148t44.5 -110t70.5 -68.5t94.5 -23.5z" />
<glyph unicode="&#x3b5;" d="M672 -22q-261 0 -392 85t-131 246q0 124 78.5 198.5t233.5 96.5q-139 20 -209 83.5t-70 165.5q0 66 31 119.5t93.5 90.5t156.5 57t220 20q42 0 76.5 -2.5t70.5 -8t77 -15t95 -22.5v-215q-53 17 -97 28.5t-82 19t-72 10.5t-66 3q-115 0 -173.5 -33.5t-58.5 -82.5t57 -80.5 t162 -31.5h151v-223h-151q-61 0 -108 -13t-79.5 -35t-49.5 -51.5t-17 -62.5q0 -30 15 -56.5t50 -46t91 -30.5t139 -11q40 0 77 3t76 11.5t82.5 22.5t96.5 35v-219q-64 -18 -117 -29t-98 -17t-83.5 -8t-74.5 -2z" />
<glyph unicode="&#x3b6;" d="M762 -201q35 0 57.5 8t36 21.5t19 31t5.5 36.5t-7.5 37.5t-22 33.5t-36.5 24t-52 9q-149 0 -260 39.5t-185.5 107.5t-112.5 160t-41 196.5t27.5 216.5t93.5 221t157 209t219 181h-471v225h876v-225q-610 -378 -610 -797q0 -297 307 -309q70 -3 128.5 -25t100.5 -63.5 t65 -101.5t23 -139q0 -74 -23 -133.5t-64.5 -101.5t-100 -64.5t-129.5 -22.5v225z" />
<glyph unicode="&#x3b7;" d="M780 682q0 118 -33.5 172.5t-106.5 54.5q-88 0 -132.5 -70.5t-44.5 -197.5v-641h-291v1120h262l29 -168q32 97 107.5 146t182.5 49q156 0 237 -104.5t81 -315.5v-1153h-291v1108z" />
<glyph unicode="&#x3b8;" d="M617 -24q-119 0 -215.5 56t-164 159.5t-104 251.5t-36.5 333q0 184 36.5 332t104 252t163.5 159.5t215 55.5t215 -55.5t163.5 -159.5t104 -252.5t36.5 -333.5q0 -187 -36.5 -333t-102.5 -249q-68 -105 -163.5 -160.5t-215.5 -55.5zM839 887q-6 97 -22 180.5t-43 144.5 t-66 96t-92 35t-92 -35t-66 -96t-43 -144.5t-22 -180.5h446zM616 209q54 0 93.5 36t66.5 98t42 144t21 175h-446q6 -93 21 -175t42 -144t66.5 -98t93.5 -36z" />
<glyph unicode="&#x3b9;" d="M901 -8q-126 0 -209 17.5t-132 61t-69 116.5t-20 184v524h-201v225h493v-763q0 -74 37 -107t121 -33h58v-225h-78v0z" />
<glyph unicode="&#x3ba;" d="M174 1120h293v-381l352 381h355l-424 -418l448 -702h-324l-307 524l-100 -96v-428h-293v1120z" />
<glyph unicode="&#x3bb;" d="M496 1069l-41 119q-13 37 -27.5 62.5t-36.5 41.5t-54 22.5t-79 6.5h-112v235h150q91 0 161 -20t124 -61t93 -104.5t69 -150.5l415 -1220h-297l-224 655l-255 -655h-297z" />
<glyph unicode="&#x3bc;" d="M174 1120h287v-680q0 -229 164 -229q161 0 161 229v680h289v-776q0 -69 14 -102q13 -31 44 -31q26 0 55 22v-217q-43 -23 -80 -34t-72 -11q-72 0 -117.5 37t-72.5 121q-37 -78 -92 -118t-125 -40q-116 0 -168 95l2 -494h-289v1548z" />
<glyph unicode="&#x3bd;" d="M47 1120h306l223 -825q57 59 104.5 116.5t82 114.5t54 114.5t19.5 117.5q0 23 -4 48t-18 65q-12 34 -27 68.5t-32.5 67t-36.5 61.5t-38 52h307q33 -44 62 -96.5t50 -107.5t33 -109t12 -100q0 -61 -21 -126.5t-55.5 -131.5t-79.5 -130t-93.5 -122t-97 -108.5t-89.5 -88.5 h-356z" />
<glyph unicode="&#x3be;" d="M752 -201q35 0 57.5 8t36 21.5t19 30t5.5 34.5q0 21 -6.5 39.5t-20.5 33t-36.5 23.5t-54.5 11q-17 1 -51.5 1.5t-79.5 4t-97.5 13t-104.5 27.5t-100 46.5t-85 72t-59 103t-22 139.5q0 152 89.5 245t281.5 127q-156 19 -237 98.5t-81 200.5q0 45 12 81t38 66.5t68 56.5 t102 49h-247v225h876v-225q-278 0 -417.5 -63.5t-139.5 -180.5q0 -49 25.5 -86t80.5 -63t141.5 -40.5t208.5 -17.5v-223q-250 -4 -379.5 -65.5t-129.5 -182.5q0 -57 27.5 -91t71.5 -53t98.5 -27t109.5 -13q155 -15 236 -93.5t81 -226.5q0 -79 -23 -140.5t-64.5 -104 t-100 -64.5t-129.5 -22v225z" />
<glyph unicode="&#x3bf;" d="M616 -29q-119 0 -214.5 41t-163 117.5t-104 185.5t-36.5 244t36.5 244t104 185.5t163 117.5t214.5 41t215 -41t163.5 -117.5t104 -185.5t36.5 -244t-36.5 -244t-104 -185.5t-163.5 -117.5t-215 -41zM616 209q53 0 95 23.5t71 68.5t44.5 110t15.5 148q0 82 -15.5 147 t-44.5 110t-71 69t-95 24t-94.5 -24t-70.5 -69t-44.5 -110t-15.5 -147q0 -83 15.5 -148t44.5 -110t70.5 -68.5t94.5 -23.5z" />
<glyph unicode="&#x3c0;" d="M1018 -39q-43 0 -76 4.5t-62 12.5q-33 10 -53 22.5t-34 26.5t-25 32t-19 43q-14 45 -14 131v658h-274v-891h-285v891h-162v209h1168v-209h-162v-529q0 -37 2 -63.5t5 -45.5t7.5 -31.5t10.5 -19.5q24 -32 94 -32h23.5t18.5 1l33 3v-188q-41 -13 -93 -19q-25 -3 -51.5 -4.5 t-51.5 -1.5z" />
<glyph unicode="&#x3c1;" d="M150 552q0 301 125.5 448t381.5 147q135 0 227.5 -39t150 -113t83 -181t25.5 -242q0 -147 -27.5 -259.5t-79.5 -188.5t-127 -114.5t-170 -38.5q-52 0 -94.5 11.5t-78 35t-66 58.5t-58.5 82v-584h-292v978zM647 215q95 0 149 92q27 46 40.5 109.5t13.5 143.5 q0 82 -14 146.5t-40 109t-63.5 68t-85.5 23.5t-86 -23.5t-64.5 -68.5t-40.5 -109t-14 -145t14 -145t40.5 -109t64.5 -68.5t86 -23.5z" />
<glyph unicode="&#x3c2;" d="M749 -201q35 0 57.5 8t36 21.5t19 30.5t5.5 36q0 41 -26.5 70.5t-91.5 34.5q-22 2 -59 3t-82 6t-95 16.5t-99 35.5t-93.5 62t-78.5 96.5t-54 139t-20 188.5q0 145 38 257.5t109 189t173.5 116t231.5 39.5q92 0 174.5 -20.5t166.5 -65.5v-268q-64 55 -140.5 84.5 t-158.5 29.5q-144 0 -220.5 -90.5t-76.5 -267.5q0 -72 12.5 -123.5t34 -86.5t50 -56.5t60 -33.5t64 -17.5t63.5 -8.5q72 -8 130.5 -29.5t100 -59.5t64 -94.5t22.5 -134.5q0 -80 -23 -141.5t-64.5 -104.5t-100 -65t-129.5 -22v225z" />
<glyph unicode="&#x3c3;" d="M594 -29q-117 0 -212.5 41t-163 117.5t-104 185.5t-36.5 244q0 126 33 229.5t98 177t162 114t225 40.5h552v-225h-212q48 -36 82 -73t55.5 -79.5t31.5 -93t10 -112.5q0 -123 -36.5 -227t-104.5 -179.5t-164 -117.5t-216 -42zM594 209q54 0 96.5 25.5t72 69.5t44.5 103 t15 127q0 45 -8 83.5t-28.5 74t-55.5 68.5t-89 68q-21 14 -51.5 31t-55.5 28q-66 -19 -103 -75q-29 -43 -44.5 -106t-15.5 -147q0 -83 15.5 -148t44.5 -110t70.5 -68.5t92.5 -23.5z" />
<glyph unicode="&#x3c4;" d="M901 0q-126 0 -209 17.5t-132 61t-69 116.5t-20 184v516h-335v225h962v-225h-335v-530q0 -75 37 -107.5t121 -32.5h58v-225h-78v0z" />
<glyph unicode="&#x3c5;" d="M610 0q-121 0 -193.5 29.5t-111.5 80.5t-51.5 120t-12.5 149v516h-165v225h457v-755q0 -37 10 -63.5t27 -43.5t40.5 -25t49.5 -8q94 0 148.5 101.5t56.5 313.5q1 69 -5 137t-20.5 130.5t-39.5 117t-63 95.5h291q27 -37 51 -89.5t41 -117.5t27 -140.5t10 -157.5 q0 -140 -31 -253.5t-97 -193.5t-170 -124t-249 -44z" />
<glyph unicode="&#x3c6;" d="M471 0q-203 33 -304.5 170.5t-101.5 394.5q0 104 16 186.5t43 144.5t63.5 105.5t78.5 70.5t86.5 38.5t87.5 9.5v-229q-11 0 -30 -25.5t-36 -59.5q-42 -86 -42 -213q0 -118 34.5 -202t104.5 -135v392q0 242 84 362t241 120q80 0 148.5 -33t118 -101.5t77.5 -174.5t28 -251 q0 -260 -98 -401t-307 -169v-426h-292v426zM763 256q42 25 69.5 68t43.5 95t22 108.5t5 109.5t-8 97t-17 72q-12 33 -28.5 47t-32.5 11q-29 -5 -41.5 -60.5t-12.5 -155.5v-392z" />
<glyph unicode="&#x3c7;" d="M468 348l-182 404q-33 74 -72 104q-15 12 -32 20.5t-31 8.5h-79v235h117q50 0 98 -15.5t94 -51.5t89.5 -96t83.5 -149l67 -148l225 460h297l-379 -775l182 -403q18 -40 35 -63.5t37 -40.5q15 -12 32 -20.5t31 -8.5h80v-235h-118q-54 0 -102.5 16t-93.5 53t-87 96.5 t-82 146.5l-67 146l-224 -458h-297z" />
<glyph unicode="&#x3c8;" d="M471 0q-402 64 -402 588v532h292v-525q0 -290 110 -370v895h292v-895q110 101 110 370v525h292v-532q0 -537 -402 -588v-426h-292v426z" />
<glyph unicode="&#x3c9;" d="M393 -29q-66 0 -122 23t-91 60q-39 41 -64.5 113t-38.5 163t-13 194t12 208t35.5 204.5t59.5 183.5h262q-23 -81 -39.5 -152.5t-27 -142t-15.5 -143.5t-5 -156q0 -49 1.5 -95.5t5 -85t8.5 -67t11 -41.5q12 -26 44 -28q72 0 75 456h252q3 -456 75 -456q32 2 44 28 q6 13 11 41.5t8.5 67t5 85t1.5 95.5q0 83 -5 156t-15.5 143.5t-27 142t-39.5 152.5h262q36 -85 60 -186t35.5 -206t11 -208t-13.5 -193t-38.5 -161t-63.5 -112q-38 -40 -95 -61.5t-119 -21.5q-173 0 -223 179q-50 -179 -224 -179z" />
<glyph unicode="&#x3ca;" d="M331 1320q-30 0 -30 30v186q0 30 30 30h176q30 0 30 -30v-186q0 -30 -30 -30h-176zM726 1320q-30 0 -30 30v186q0 30 30 30h176q30 0 30 -30v-186q0 -30 -30 -30h-176zM901 -8q-126 0 -209 17.5t-132 61t-69 116.5t-20 184v524h-201v225h493v-763q0 -74 37 -107t121 -33 h58v-225h-78z" />
<glyph unicode="&#x3cb;" d="M331 1320q-30 0 -30 30v186q0 30 30 30h176q30 0 30 -30v-186q0 -30 -30 -30h-176zM726 1320q-30 0 -30 30v186q0 30 30 30h176q30 0 30 -30v-186q0 -30 -30 -30h-176zM610 0q-121 0 -193.5 29.5t-111.5 80.5t-51.5 120t-12.5 149v516h-165v225h457v-755q0 -37 10 -63.5 t27 -43.5t40.5 -25t49.5 -8q94 0 148.5 101.5t56.5 313.5q1 69 -5 137t-20.5 130.5t-39.5 117t-63 95.5h291q27 -37 51 -89.5t41 -117.5t27 -140.5t10 -157.5q0 -140 -31 -253.5t-97 -193.5t-170 -124t-249 -44z" />
<glyph unicode="&#x3cc;" d="M752 1673h282l-368 -376h-197zM616 -29q-119 0 -214.5 41t-163 117.5t-104 185.5t-36.5 244t36.5 244t104 185.5t163 117.5t214.5 41t215 -41t163.5 -117.5t104 -185.5t36.5 -244t-36.5 -244t-104 -185.5t-163.5 -117.5t-215 -41zM616 209q53 0 95 23.5t71 68.5t44.5 110 t15.5 148q0 82 -15.5 147t-44.5 110t-71 69t-95 24t-94.5 -24t-70.5 -69t-44.5 -110t-15.5 -147q0 -83 15.5 -148t44.5 -110t70.5 -68.5t94.5 -23.5z" />
<glyph unicode="&#x3cd;" d="M752 1648h282l-368 -376h-197zM610 0q-121 0 -193.5 29.5t-111.5 80.5t-51.5 120t-12.5 149v516h-165v225h457v-755q0 -37 10 -63.5t27 -43.5t40.5 -25t49.5 -8q94 0 148.5 101.5t56.5 313.5q1 69 -5 137t-20.5 130.5t-39.5 117t-63 95.5h291q27 -37 51 -89.5t41 -117.5 t27 -140.5t10 -157.5q0 -140 -31 -253.5t-97 -193.5t-170 -124t-249 -44z" />
<glyph unicode="&#x3ce;" d="M752 1646h282l-368 -376h-197zM393 -29q-66 0 -122 23t-91 60q-39 41 -64.5 113t-38.5 163t-13 194t12 208t35.5 204.5t59.5 183.5h262q-23 -81 -39.5 -152.5t-27 -142t-15.5 -143.5t-5 -156q0 -49 1.5 -95.5t5 -85t8.5 -67t11 -41.5q12 -26 44 -28q72 0 75 456h252 q3 -456 75 -456q32 2 44 28q6 13 11 41.5t8.5 67t5 85t1.5 95.5q0 83 -5 156t-15.5 143.5t-27 142t-39.5 152.5h262q36 -85 60 -186t35.5 -206t11 -208t-13.5 -193t-38.5 -161t-63.5 -112q-38 -40 -95 -61.5t-119 -21.5q-173 0 -223 179q-50 -179 -224 -179z" />
<glyph unicode="&#x3f4;" d="M616 -29q-260 0 -392 195t-132 579q0 383 132.5 579t391.5 196q260 0 392.5 -196t132.5 -579q0 -382 -132.5 -578t-392.5 -196zM828 911q-7 74 -19.5 137t-36.5 109t-61.5 72t-94.5 26t-94 -25.5t-60.5 -71t-36.5 -109t-20 -138.5h423zM616 236q57 0 96 27t64 79.5 t38 130t18 178.5h-431q4 -100 17 -177.5t38 -130t64 -80t96 -27.5z" />
<glyph unicode="&#x400;" d="M304 1850h284l199 -264h-197zM158 1493h930v-260h-635v-322h575v-260h-575v-391h635v-260h-930v1493z" />
<glyph unicode="&#x401;" d="M352 1604q-30 0 -30 30v186q0 30 30 30h176q30 0 30 -30v-186q0 -30 -30 -30h-176zM747 1604q-30 0 -30 30v186q0 30 30 30h176q30 0 30 -30v-186q0 -30 -30 -30h-176zM158 1493h930v-260h-635v-322h575v-260h-575v-391h635v-260h-930v1493z" />
<glyph unicode="&#x402;" d="M565 -199h136q49 0 83.5 13t56 42t31 75t9.5 112v461q0 121 -35 173q-22 37 -119 49l-41 3q-70 0 -142 -29l-34 -16q-11 -7 -17 -12.5t-11 -13.5q-23 -32 -34 -82.5t-11 -112.5v-463h-291v1347h-180v209h964v-209h-493v-514q17 49 59 77l47 31q31 20 79.5 30.5 t124.5 17.5q31 3 59 3q61 0 119 -13.5t103 -39.5q37 -21 63 -53q38 -47 59.5 -126t21.5 -188v-529q0 -126 -22 -214.5t-69 -145t-120.5 -82t-177.5 -25.5h-218v225z" />
<glyph unicode="&#x403;" d="M699 1899h284l-286 -264h-197zM182 1493h930v-260h-635v-1233h-295v1493z" />
<glyph unicode="&#x404;" d="M739 -29q-150 0 -265 50.5t-193 148.5t-118.5 243t-40.5 333t40.5 332.5t118.5 242.5t193 148.5t265 50.5q97 0 173 -19.5t139 -52.5v-328q-27 25 -59 49.5t-69.5 43.5t-79.5 30.5t-89 11.5q-77 0 -133 -31t-94.5 -83.5t-60.5 -121.5t-30 -144h572v-260h-572 q7 -73 30 -141.5t62 -121t95.5 -84.5t131.5 -32q149 0 296 135v-328q-66 -34 -142 -53t-170 -19z" />
<glyph unicode="&#x405;" d="M584 -29q-123 0 -231.5 25.5t-217.5 79.5v305q115 -83 226.5 -124.5t214.5 -41.5q115 0 175 48.5t60 135.5q0 72 -40.5 122t-115.5 79l-145 55q-109 41 -182 84t-117.5 92.5t-63 109t-18.5 134.5q0 107 33.5 190t96.5 139.5t153 86t204 29.5q103 0 205.5 -23.5 t204.5 -69.5v-288q-96 67 -193 102t-194 35q-108 0 -164.5 -43t-56.5 -121q0 -64 42 -104q20 -20 59.5 -41t113.5 -49l127 -48q93 -35 159 -78.5t108.5 -99t62.5 -123.5t20 -152q0 -224 -135 -335t-391 -111z" />
<glyph unicode="&#x406;" d="M172 260h297v973h-297v260h889v-260h-297v-973h297v-260h-889v260z" />
<glyph unicode="&#x407;" d="M331 1604q-30 0 -30 30v186q0 30 30 30h176q30 0 30 -30v-186q0 -30 -30 -30h-176zM726 1604q-30 0 -30 30v186q0 30 30 30h176q30 0 30 -30v-186q0 -30 -30 -30h-176zM172 260h297v973h-297v260h889v-260h-297v-973h297v-260h-889v260z" />
<glyph unicode="&#x408;" d="M533 -29q-53 0 -103 5.5t-101.5 17.5t-105.5 31.5t-114 48.5v342q87 -88 183.5 -134t200.5 -46q114 0 167 58.5t53 184.5v754h-361v260h656v-1014q0 -133 -27.5 -229t-85 -158t-147.5 -91.5t-215 -29.5z" />
<glyph unicode="&#x409;" d="M0 250h6q56 0 91.5 14t57 41.5t32 69t16.5 96.5q3 29 5.5 72.5t4 112t2.5 168t1 241.5v428h616v-580h22q37 0 79 -12t84.5 -36.5t81.5 -61.5t68.5 -87.5t47.5 -115t18 -143.5q0 -119 -39 -205t-96.5 -142t-123.5 -83t-120 -27h-262v1233h-136v-176q0 -181 -1.5 -330 t-12.5 -266.5t-36 -204t-73 -143.5q-95 -113 -300 -113h-33v250zM840 236q18 0 44.5 11.5t50.5 37.5t41 68t17 104t-17 104t-41 68t-50.5 37.5t-44.5 11.5h-8v-442h8z" />
<glyph unicode="&#x40a;" d="M30 1493h240v-569h322v569h240v-580h22q37 0 79 -12t84.5 -36.5t81.5 -62t68.5 -88t47.5 -115t18 -142.5q0 -119 -39 -205t-96.5 -142t-123.5 -83t-120 -27h-262v664h-322v-664h-240v1493zM840 236q18 0 44.5 11.5t50.5 37.5t41 68t17 104t-17 104t-41 68t-50.5 37.5 t-44.5 11.5h-8v-442h8z" />
<glyph unicode="&#x40b;" d="M156 1347h-190v209h964v-209h-483v-514q1 4 5.5 15.5t16 26.5t31.5 32.5t52 34.5q18 10 37 17t42.5 12.5t54 9.5t71.5 8q31 3 59 3q60 0 118 -13.5t104 -39.5q37 -21 63 -53q38 -47 59.5 -126t21.5 -188v-572h-291v504q0 121 -35 173q-22 37 -119 49l-41 3 q-70 0 -142 -29l-34 -16q-11 -7 -17 -12.5t-11 -13.5q-23 -32 -34 -82.5t-11 -112.5v-463h-291v1347z" />
<glyph unicode="&#x40c;" d="M689 1850h284l-286 -264h-197zM107 1493h295v-590l462 590h334l-471 -588l488 -905h-328l-354 672l-131 -166v-506h-295v1493z" />
<glyph unicode="&#x40d;" d="M314 1850h284l199 -264h-197zM119 1493h260v-1085l416 1085h317v-1493h-260v1085l-418 -1085h-315v1493z" />
<glyph unicode="&#x40e;" d="M626 1586q-148 0 -234 67t-101 197h141q41 -121 196 -121q151 0 191 121h143q-15 -130 -101 -197t-235 -67zM195 260h80q29 0 55.5 1.5t51 13.5t46.5 40t42 81l55 145l-487 952h305l316 -620l251 620h305l-478 -1190q-62 -154 -143.5 -228.5t-198.5 -74.5h-200v260z" />
<glyph unicode="&#x40f;" d="M487 0h-350v1493h295v-1233h369v1233h295v-1493h-350v-322h-259v322z" />
<glyph unicode="&#x410;" d="M436 1493h361l403 -1493h-295l-92 369h-395l-90 -369h-295zM756 612l-140 611l-139 -611h279z" />
<glyph unicode="&#x411;" d="M152 1493h930v-260h-635v-299h110q154 0 264 -26.5t180.5 -83.5t103 -145.5t32.5 -211.5t-32.5 -211.5t-103 -145.5t-180.5 -83.5t-264 -26.5h-405v1493zM568 248q72 0 122 11.5t81 37.5t45 68t14 102t-14 102t-45 68t-81 37.5t-122 11.5h-121v-438h121z" />
<glyph unicode="&#x412;" d="M125 1495h481q500 0 500 -376q0 -146 -73.5 -226.5t-217.5 -93.5q176 -18 260 -116.5t84 -275.5q0 -107 -31.5 -184t-99 -126.5t-172 -73t-250.5 -23.5h-481v1495zM606 913q56 0 95.5 9.5t64 30t36 53t11.5 78.5q0 93 -48.5 134.5t-158.5 41.5h-196v-347h196zM606 236 q70 0 118.5 11t78.5 36.5t43.5 66t13.5 99.5q0 61 -14 104.5t-44.5 71t-79 40.5t-116.5 13h-196v-442h196z" />
<glyph unicode="&#x413;" d="M182 1493h930v-260h-635v-1233h-295v1493z" />
<glyph unicode="&#x414;" d="M40 260h100q12 0 24 12t21.5 31t15.5 43t6 49v102v996h848v-1233h137v-582h-255v322h-642v-322h-255v582zM760 260v973h-258v-736q0 -141 -30 -237h288z" />
<glyph unicode="&#x415;" d="M158 1493h930v-260h-635v-322h575v-260h-575v-391h635v-260h-930v1493z" />
<glyph unicode="&#x416;" d="M271 886l-258 607h261l223 -523v523h240v-523l223 523h261l-258 -607l258 -886h-250l-157 537l-77 -181v-356h-240v356l-77 181l-157 -537h-250z" />
<glyph unicode="&#x417;" d="M554 -29q-110 0 -219.5 19t-209.5 55v274q48 -25 102 -43t108 -30t106 -17.5t97 -5.5q145 0 212 56.5t67 155.5q0 107 -69.5 170t-198.5 63h-158v260h158q111 0 171 43.5t60 125.5q0 81 -60.5 127t-175.5 46q-78 0 -174.5 -21t-199.5 -61v268q103 31 202.5 47.5 t193.5 16.5q118 0 210.5 -26.5t156.5 -76.5t98 -121.5t34 -160.5q0 -137 -76 -220.5t-217 -109.5q77 -14 138 -44.5t103 -79.5t64.5 -116t22.5 -153q0 -215 -138.5 -328t-407.5 -113z" />
<glyph unicode="&#x418;" d="M119 1493h260v-1085l416 1085h317v-1493h-260v1085l-418 -1085h-315v1493z" />
<glyph unicode="&#x419;" d="M616 1586q-148 0 -234 67t-101 197h141q41 -121 196 -121q151 0 191 121h143q-15 -130 -101 -197t-235 -67zM119 1493h260v-1085l416 1085h317v-1493h-260v1085l-418 -1085h-315v1493z" />
<glyph unicode="&#x41a;" d="M107 1493h295v-590l462 590h334l-471 -588l488 -905h-328l-354 672l-131 -166v-506h-295v1493z" />
<glyph unicode="&#x41b;" d="M26 265h10q101 0 147 50.5t50 157.5q3 83 5.5 154t4 139.5t2.5 140.5t1 158v428h870v-1493h-295v1233h-280v-176q0 -181 -1.5 -330t-12.5 -266.5t-36 -204t-73 -143.5q-95 -113 -300 -113h-92v265z" />
<glyph unicode="&#x41c;" d="M86 1493h352l178 -655l177 655h354v-1493h-254v1196l-158 -653h-235l-160 653v-1196h-254v1493z" />
<glyph unicode="&#x41d;" d="M137 1493h295v-569h369v569h295v-1493h-295v664h-369v-664h-295v1493z" />
<glyph unicode="&#x41e;" d="M617 -29q-260 0 -392.5 196.5t-132.5 578.5t132.5 578t392.5 196q259 0 391.5 -195.5t132.5 -578.5t-132.5 -579t-391.5 -196zM616 236q114 0 166 121q52 119 52 389q0 269 -52 388q-52 121 -166 121q-59 0 -99 -30.5t-66 -90.5q-52 -119 -52 -388q0 -270 52 -389 q52 -121 165 -121z" />
<glyph unicode="&#x41f;" d="M137 1493h959v-1493h-295v1233h-369v-1233h-295v1493z" />
<glyph unicode="&#x420;" d="M162 1493h405q154 0 264 -26.5t180.5 -83.5t103 -145.5t32.5 -211.5t-32.5 -211.5t-103 -145.5t-180.5 -83.5t-264 -26.5h-110v-559h-295v1493zM578 807q72 0 122 11.5t81 37.5t45 68t14 102t-14 102t-45 68t-81 37.5t-122 11.5h-121v-438h121z" />
<glyph unicode="&#x421;" d="M757 -29q-149 0 -264 50.5t-193 148.5t-118.5 242.5t-40.5 332.5q0 189 40.5 333.5t118.5 242.5t193 148.5t264 50.5q176 0 313 -72v-328q-76 70 -147.5 102.5t-150.5 32.5q-160 0 -242 -128t-82 -382t82 -381.5t242 -127.5q79 0 150.5 32.5t147.5 102.5v-328 q-70 -36 -147 -54t-166 -18z" />
<glyph unicode="&#x422;" d="M469 1235h-379v258h1053v-258h-379v-1235h-295v1235z" />
<glyph unicode="&#x423;" d="M195 260h80q29 0 55.5 1.5t51 13.5t46.5 40t42 81l55 145l-487 952h305l316 -620l251 620h305l-478 -1190q-62 -154 -143.5 -228.5t-198.5 -74.5h-200v260z" />
<glyph unicode="&#x424;" d="M489 132q-104 9 -188.5 63.5t-144.5 140t-93 195.5t-33 230q0 119 32.5 229t92.5 196t145 141t189 64v102h255v-102q103 -9 188 -64t145 -140.5t93 -196t33 -230.5t-33 -229.5t-93 -195t-145 -140t-188 -63.5v-132h-255v132zM489 1136q-57 -12 -96.5 -45.5t-63.5 -83 t-34.5 -112t-10.5 -132.5q0 -65 9.5 -127.5t33 -113.5t63 -87t99.5 -48v749zM744 387q57 12 96.5 45t63.5 82.5t34.5 112t10.5 133.5q0 66 -9.5 128.5t-33 113.5t-63 86.5t-99.5 47.5v-749z" />
<glyph unicode="&#x425;" d="M465 758l-426 735h305l272 -475l273 475h305l-424 -735l436 -758h-305l-285 494l-284 -494h-305z" />
<glyph unicode="&#x426;" d="M935 0h-803v1493h295v-1233h369v1233h295v-1233h137v-582h-293v322z" />
<glyph unicode="&#x427;" d="M828 766q-30 -77 -112.5 -118t-227.5 -41q-107 0 -182 24t-122.5 75t-69 130.5t-21.5 190.5v529h291v-461q0 -72 17.5 -116t46.5 -68t67 -32.5t79 -8.5q70 0 115 17.5t71.5 51.5t37 83.5t10.5 113.5v420h291v-1556h-291v766z" />
<glyph unicode="&#x428;" d="M78 1494h240v-1234h178v1233h240v-1234h178v1234h240v-1493h-1076v1494z" />
<glyph unicode="&#x429;" d="M984 0h-902v1493h240v-1232h178v1231h240v-1232h178v1232h240v-1232h66v-582h-240v322z" />
<glyph unicode="&#x42a;" d="M280 1284h-250v209h545v-580h30q153 0 263 -26.5t180.5 -82.5t103.5 -142.5t33 -205.5q0 -117 -32.5 -203t-102 -142.5t-179.5 -83.5t-266 -27h-325v1284zM616 236q78 0 130 11.5t83 37.5t44 68t13 102q0 63 -14 106t-45.5 69t-83 37t-127.5 11h-41v-442h41z" />
<glyph unicode="&#x42b;" d="M40 1493h255v-580h10q131 0 231.5 -26.5t168 -82.5t102 -142.5t34.5 -205.5q0 -235 -134.5 -345.5t-401.5 -110.5h-265v1493zM938 1493h255v-1493h-255v1493zM316 236q78 0 130 11.5t83 37.5t44 68t13 102q0 63 -14 106t-45.5 69t-83 37t-127.5 11h-21v-442h21z" />
<glyph unicode="&#x42c;" d="M164 1493h295v-580h110q153 0 263 -26.5t180.5 -82.5t103.5 -142.5t33 -205.5q0 -117 -32.5 -203t-102 -142.5t-179.5 -83.5t-266 -27h-405v1493zM580 236q78 0 130 11.5t83 37.5t44 68t13 102q0 63 -14 106t-45.5 69t-83 37t-127.5 11h-121v-442h121z" />
<glyph unicode="&#x42d;" d="M505 -29q-89 0 -165.5 18t-147.5 54v328q145 -135 304 -135q271 0 311 379h-542v260h542q-41 380 -312 380q-158 0 -303 -135v328q135 72 311 72q150 0 265.5 -50.5t193.5 -148.5t118.5 -242.5t40.5 -332.5t-40.5 -333t-118.5 -243t-193 -148.5t-264 -50.5z" />
<glyph unicode="&#x42e;" d="M820 -29q-84 0 -157.5 47t-125.5 149q-108 194 -125 484h-111v-651h-295v1493h295v-582h115q7 69 21.5 140.5t38 139.5t57.5 127.5t79 104.5t102.5 71t128.5 26q97 0 170.5 -50t120.5 -146q24 -48 42.5 -111.5t31 -138t19 -158t5.5 -171.5q-2 -187 -33 -331.5 t-85.5 -242.5t-129.5 -149t-164 -51zM739 356q18 -54 41 -82t47 -28.5t46 27t37 83.5q13 41 22.5 100t14.5 127.5t5 143.5t-4 148t-13.5 139.5t-24.5 119.5q-17 60 -38 90.5t-50 30.5t-49.5 -31.5t-33.5 -89.5q-21 -77 -31.5 -173t-10.5 -221t10.5 -222.5t31.5 -161.5z" />
<glyph unicode="&#x42f;" d="M359 644q-39 20 -85 52.5t-86 84t-66.5 124t-26.5 173.5q0 216 136.5 315.5t402.5 99.5h476v-1493h-295v590h-162l-299 -590h-321zM815 838v407h-189q-111 0 -168.5 -47t-57.5 -156t57.5 -156.5t168.5 -47.5h189z" />
<glyph unicode="&#x430;" d="M494 -29q-91 0 -164.5 25t-127.5 76q-107 101 -107 282q0 96 30.5 169t96.5 121q127 93 393 93h203v49q0 37 -13.5 64t-37.5 44q-26 19 -65.5 27.5t-91.5 8.5q-48 0 -98.5 -6.5t-99.5 -19.5q-48 -13 -100 -34.5t-106 -50.5v250q42 17 94.5 33.5t102.5 25.5q41 8 100 14 t125 6q70 0 126.5 -8t102 -23t80 -36t60.5 -46q27 -27 48 -62t35.5 -82.5t21.5 -108t7 -138.5q0 -19 -0.5 -50t-1 -68t-1 -76.5t-1 -74.5t-1 -62t-0.5 -39q0 -21 0.5 -42t1.5 -35q2 -20 3.5 -39.5t3.5 -32.5q3 -20 7 -38.5t7 -28.5q5 -15 12.5 -31t15.5 -27h-290 q-9 15 -16.5 31t-11.5 27q-3 10 -7 28.5t-6 38.5q-55 -73 -142 -114q-42 -20 -86.5 -30t-101.5 -10zM576 174q56 0 101 21.5t77 66.5q64 86 64 244v20h-117q-165 0 -229 -42q-65 -42 -65 -142q0 -41 11 -70.5t34 -52.5q45 -45 124 -45z" />
<glyph unicode="&#x431;" d="M636 -29q-119 0 -214.5 41t-163 117.5t-104 185.5t-36.5 244v41.5t-1 20.5l-17 167q-8 74 -11.5 119.5t-3.5 71.5q0 11 0.5 24t1.5 21q7 62 26 132.5t56 138t93.5 126t137.5 96.5q41 19 86 31.5t100 20.5t122.5 13.5t154.5 10.5q18 1 29.5 2.5t20.5 3.5t17 4.5t19 7.5 l110 -212q-19 -7 -42.5 -11.5t-43.5 -6.5l-290 -24q-63 -5 -104 -17t-67 -28q-30 -17 -61.5 -46t-59 -65t-47.5 -76t-26 -80q64 51 143 76.5t173 25.5q120 0 216.5 -41t164 -117.5t104 -185.5t36.5 -244t-36.5 -244t-104 -185.5t-163.5 -117.5t-215 -41zM636 209 q53 0 95 23.5t71 68.5t44.5 110t15.5 148q0 82 -15.5 147t-44.5 110t-71 69t-95 24t-94.5 -24t-70.5 -69t-44.5 -110t-15.5 -147q0 -83 15.5 -148t44.5 -110t70.5 -68.5t94.5 -23.5z" />
<glyph unicode="&#x432;" d="M139 1120h468q123 0 213.5 -17t149 -52.5t87 -91t28.5 -132.5q0 -47 -10.5 -83t-30.5 -63.5t-50.5 -47t-69.5 -34.5q104 -29 157 -102t53 -179q0 -154 -117 -236t-361 -82h-517v1120zM587 698q72 0 114 6t63 18q17 10 28 28t11 44q0 23 -9.5 44t-29.5 35q-21 14 -63 21 t-114 7h-156v-203h156zM598 219q126 0 184.5 30.5t58.5 100.5t-58.5 99.5t-184.5 29.5h-167v-260h167z" />
<glyph unicode="&#x433;" d="M262 1120h799v-219h-508v-901h-291v1120z" />
<glyph unicode="&#x434;" d="M68 219h76q8 0 21 10.5t25 32.5q6 10 10.5 24.5t8 34.5t5.5 48t2 66v685h847v-901h123v-505h-219v286h-680v-286h-219v505zM772 219v682h-265v-442q0 -147 -31 -240h296z" />
<glyph unicode="&#x435;" d="M679 -29q-145 0 -254.5 38t-183.5 112t-111.5 181.5t-37.5 247.5q0 139 36.5 249.5t105.5 187.5t169 118.5t228 41.5q121 0 217 -38t163 -110t102.5 -176.5t35.5 -238.5v-119h-759q1 -262 308 -262q102 0 199 29t205 92v-269q-100 -42 -207 -63t-216 -21zM854 685 q-2 116 -60 175.5t-164 59.5q-108 0 -166.5 -60.5t-70.5 -175.5z" />
<glyph unicode="&#x436;" d="M268 694l-250 426h277l202 -343v343h240v-343l202 343h277l-250 -426l254 -694h-255l-156 427l-72 -122v-305h-240v305l-72 122l-156 -427h-255z" />
<glyph unicode="&#x437;" d="M522 -22q-47 0 -89 3t-84.5 10.5t-87 20t-96.5 32.5v236q49 -24 92 -39.5t86.5 -24.5t91.5 -12t108 -3q55 0 102 3.5t81 15.5t53 35.5t19 63.5q0 45 -23 73t-57.5 43.5t-74.5 21t-75 5.5h-163v219h137q42 0 83 6t73.5 20.5t52.5 38.5t20 59q0 123 -255 123 q-161 0 -314 -52v223q54 16 147 32t210 16q124 0 216.5 -22.5t154.5 -64t93 -101t31 -134.5q0 -58 -17 -101t-44 -73t-60 -49t-64 -29q40 -11 80 -36t71.5 -61.5t51 -84.5t19.5 -104q0 -78 -40 -136t-114.5 -96.5t-179.5 -57.5t-235 -19z" />
<glyph unicode="&#x438;" d="M152 1120h291v-715l357 715h291v-1120h-291v715l-357 -715h-291v1120z" />
<glyph unicode="&#x439;" d="M616 1270q-157 0 -243 76t-92 221h141q11 -69 60.5 -106.5t133.5 -37.5t133 37t60 107h143q-6 -145 -92 -221t-244 -76zM152 1120h291v-715l357 715h291v-1120h-291v715l-357 -715h-291v1120z" />
<glyph unicode="&#x43a;" d="M174 1120h293v-381l352 381h355l-424 -418l448 -702h-324l-307 524l-100 -96v-428h-293v1120z" />
<glyph unicode="&#x43b;" d="M39 240h10q52 0 86 7.5t55.5 29.5t32.5 60.5t17 101.5q3 29 4.5 62t3 67.5t2 68t0.5 63.5v420h849v-1120h-291v901h-267v-197q0 -73 -3 -155.5t-14 -162t-32.5 -150.5t-58.5 -121q-45 -60 -116 -87.5t-183 -27.5h-95v240z" />
<glyph unicode="&#x43c;" d="M86 1120h352l178 -655l178 655h352v-1120h-240l-2 823l-172 -653h-232l-174 653v-823h-240v1120z" />
<glyph unicode="&#x43d;" d="M172 1120h291v-381h317v381h291v-1120h-291v520h-317v-520h-291v1120z" />
<glyph unicode="&#x43e;" d="M616 -29q-119 0 -214.5 41t-163 117.5t-104 185.5t-36.5 244t36.5 244t104 185.5t163 117.5t214.5 41t215 -41t163.5 -117.5t104 -185.5t36.5 -244t-36.5 -244t-104 -185.5t-163.5 -117.5t-215 -41zM616 209q53 0 95 23.5t71 68.5t44.5 110t15.5 148q0 82 -15.5 147 t-44.5 110t-71 69t-95 24t-94.5 -24t-70.5 -69t-44.5 -110t-15.5 -147q0 -83 15.5 -148t44.5 -110t70.5 -68.5t94.5 -23.5z" />
<glyph unicode="&#x43f;" d="M172 1120h899v-1120h-291v901h-317v-901h-291v1120z" />
<glyph unicode="&#x440;" d="M150 1120h263l29 -168q45 95 118.5 145t181.5 50q94 0 168.5 -39.5t126.5 -114.5t79 -184.5t27 -249.5q0 -142 -28 -251.5t-80.5 -184.5t-127.5 -113.5t-169 -38.5q-98 0 -168 44.5t-128 142.5v-584h-292v1546zM647 215q48 0 85.5 23.5t63.5 68.5t40 109t14 145t-14 145 t-40 109t-63.5 68.5t-85.5 23.5t-86 -23.5t-64.5 -68.5t-40.5 -109t-14 -145t14 -145t40.5 -109t64.5 -68.5t86 -23.5z" />
<glyph unicode="&#x441;" d="M702 -29q-131 0 -234 40t-174 116t-108.5 184.5t-37.5 246.5q0 139 38 248.5t109 185.5t174 116.5t232 40.5q91 0 173.5 -20.5t166.5 -65.5v-268q-64 55 -140.5 84.5t-158.5 29.5q-144 0 -220.5 -90.5t-76.5 -260.5q0 -168 76.5 -257.5t223.5 -89.5q85 0 159 29.5 t137 85.5v-269q-149 -86 -339 -86z" />
<glyph unicode="&#x442;" d="M472 901h-308v219h907v-219h-308v-901h-291v901z" />
<glyph unicode="&#x443;" d="M137 -201h119q44 0 76 6.5t56.5 25t44.5 52t40 88.5l22 60l-426 1089h308l256 -727l245 727h308l-465 -1241q-59 -158 -141.5 -230.5t-200.5 -72.5h-242v223z" />
<glyph unicode="&#x444;" d="M496 -29q-74 7 -148 49.5t-133.5 117t-97 180.5t-37.5 241t37.5 241t97 180.5t133.5 116.5t148 50v409h240v-409q75 -8 149.5 -50t134.5 -116.5t97 -180.5t37 -241t-37 -241t-97 -180.5t-134.5 -117t-149.5 -49.5v-397h-240v397zM496 909q-35 -9 -67 -32.5t-56 -66 t-38.5 -104.5t-14.5 -147t14.5 -147t38.5 -104.5t56 -66t67 -32.5v700zM736 209q36 9 68.5 32.5t56.5 66t38.5 104.5t14.5 147t-14.5 147t-38.5 104.5t-56.5 66t-68.5 32.5v-700z" />
<glyph unicode="&#x445;" d="M469 584l-381 536h342l186 -334l187 334h342l-377 -536l410 -584h-342l-220 377l-219 -377h-342z" />
<glyph unicode="&#x446;" d="M998 0h-836v1120h291v-901h317v901h291v-901h156v-505h-219v286z" />
<glyph unicode="&#x447;" d="M760 416h-190q-98 0 -179 17.5t-139.5 62t-91 121.5t-32.5 196v307h299v-337q0 -45 10 -74.5t35.5 -46t69.5 -23t111 -6.5h107v488h290v-1121h-290v416z" />
<glyph unicode="&#x448;" d="M78 1120h240v-901h178v901h240v-901h178v901h240v-1120h-1076v1120z" />
<glyph unicode="&#x449;" d="M1014 0h-943v1120h240v-901h178v901h240v-901h178v901h240v-901h86v-505h-219v286z" />
<glyph unicode="&#x44a;" d="M301 895h-251v225h542v-422h127q106 0 190.5 -21.5t143 -64.5t90 -108.5t31.5 -153.5t-31.5 -154t-90 -109.5t-143 -65t-190.5 -21.5h-418v895zM665 219q111 0 163.5 30.5t52.5 100.5t-52.5 99.5t-163.5 29.5h-73v-260h73z" />
<glyph unicode="&#x44b;" d="M31 1120h291v-422h21q106 0 190.5 -21.5t143 -64.5t90 -108.5t31.5 -153.5t-31.5 -154t-90 -109.5t-143 -65t-190.5 -21.5h-312v1120zM908 1120h293v-1120h-293v1120zM349 219q25 0 52.5 7.5t50.5 23t38 40.5t15 60t-15 59.5t-38 40t-50.5 22.5t-52.5 7h-27v-260h27z" />
<glyph unicode="&#x44c;" d="M217 1120h291v-422h177q106 0 190.5 -21.5t143 -64.5t90 -108.5t31.5 -153.5t-31.5 -154t-90 -109.5t-143 -65t-190.5 -21.5h-468v1120zM631 219q111 0 163.5 30.5t52.5 100.5t-52.5 99.5t-163.5 29.5h-123v-260h123z" />
<glyph unicode="&#x44d;" d="M532 -29q-193 0 -339 86v269q68 -59 137.5 -88t153.5 -29q119 0 197.5 60.5t101.5 188.5h-477v219h472q-52 232 -287 232q-166 0 -298 -114v268q156 84 341 84q130 0 232.5 -40t173.5 -115.5t108.5 -185t37.5 -247.5t-37 -247t-108 -184.5t-174 -116t-235 -40.5z" />
<glyph unicode="&#x44e;" d="M807 -29q-71 0 -134 32.5t-111.5 97t-80 159.5t-39.5 220h-102v-480h-240v1120h240v-431h107q16 112 49 199.5t81 146.5t110.5 88t136.5 24t143 -44t122.5 -111.5t86 -180t32.5 -249.5q0 -148 -34.5 -259t-91 -184.5t-128.5 -110.5t-147 -37zM828 209q22 0 48 21.5 t46 64.5q22 46 32 110.5t10 155.5q0 104 -12 167.5t-34 102.5q-8 14 -19 28t-23.5 25t-25.5 18t-26 7q-22 0 -46.5 -21.5t-44.5 -56.5q-26 -47 -36.5 -114.5t-10.5 -175.5q0 -70 7.5 -133.5t37.5 -117.5q23 -42 50 -61.5t47 -19.5z" />
<glyph unicode="&#x44f;" d="M365 488q-44 21 -84 49.5t-70.5 67.5t-48.5 89.5t-18 115.5q0 79 29 137t91 96.5t159 57.5t233 19h424v-1120h-291v429h-121l-261 -429h-339zM789 648v261h-173q-40 0 -75 -7t-60.5 -23t-40 -40.5t-14.5 -59.5t14.5 -60t40 -40.5t60.5 -23t75 -7.5h173z" />
<glyph unicode="&#x450;" d="M238 1673h282l283 -376h-197zM679 -29q-145 0 -254.5 38t-183.5 112t-111.5 181.5t-37.5 247.5q0 139 36.5 249.5t105.5 187.5t169 118.5t228 41.5q121 0 217 -38t163 -110t102.5 -176.5t35.5 -238.5v-119h-759q1 -262 308 -262q102 0 199 29t205 92v-269 q-100 -42 -207 -63t-216 -21zM854 685q-2 116 -60 175.5t-164 59.5q-108 0 -166.5 -60.5t-70.5 -175.5z" />
<glyph unicode="&#x451;" d="M370 1349q-30 0 -30 30v186q0 30 30 30h176q30 0 30 -30v-186q0 -30 -30 -30h-176zM765 1349q-30 0 -30 30v186q0 30 30 30h176q30 0 30 -30v-186q0 -30 -30 -30h-176zM679 -29q-145 0 -254.5 38t-183.5 112t-111.5 181.5t-37.5 247.5q0 139 36.5 249.5t105.5 187.5 t169 118.5t228 41.5q121 0 217 -38t163 -110t102.5 -176.5t35.5 -238.5v-119h-759q1 -262 308 -262q102 0 199 29t205 92v-269q-100 -42 -207 -63t-216 -21zM854 685q-2 116 -60 175.5t-164 59.5q-108 0 -166.5 -60.5t-70.5 -175.5z" />
<glyph unicode="&#x452;" d="M575 -199q83 12 139 51t90 101t48.5 144.5t14.5 181.5q0 84 -10 138t-30 84.5t-51 42t-73 11.5q-112 0 -159 -66t-47 -200v-289h-291v895h-171v225h171v436h291v-436h437v-225h-437v-295q30 94 107 144.5t200 50.5q78 0 143 -24t112 -83t73 -157.5t26 -247.5 q0 -132 -25.5 -250t-90.5 -211.5t-178.5 -157.5t-288.5 -88v225z" />
<glyph unicode="&#x453;" d="M792 1638h282l-368 -376h-197zM262 1120h799v-219h-508v-901h-291v1120z" />
<glyph unicode="&#x454;" d="M697 -29q-131 0 -234 40t-174 116t-108.5 184.5t-37.5 246.5q0 139 38 248.5t109 185.5t174 116.5t232 40.5q91 0 173.5 -20.5t166.5 -65.5v-268q-64 55 -140 84.5t-160 29.5q-71 0 -121 -20.5t-83 -53.5t-52.5 -74.5t-28.5 -83.5h412v-209h-417q8 -51 27.5 -98t54.5 -82 t87 -56t125 -21q165 0 296 115v-269q-149 -86 -339 -86z" />
<glyph unicode="&#x455;" d="M613 -29q-103 0 -208.5 17.5t-214.5 52.5v256q97 -55 197 -84t201 -29q203 0 203 124q0 28 -9.5 45t-28.5 32q-23 18 -64.5 34t-113.5 32l-81 18q-161 36 -241.5 116t-80.5 216q0 168 117.5 257t333.5 89q91 0 184.5 -15.5t183.5 -46.5v-256q-164 105 -346 105 q-97 0 -146.5 -29t-49.5 -77q0 -47 50.5 -78.5t163.5 -58.5l11 -3l84 -20q158 -38 233.5 -121.5t75.5 -226.5q0 -349 -454 -349z" />
<glyph unicode="&#x456;" d="M441 1323q-30 0 -30 30v282q0 30 30 30h233q30 0 30 -30v-282q0 -30 -30 -30h-233zM802 -12q-209 0 -300 108q-91 107 -91 359v440h-227v225h520v-665q0 -131 41 -187q40 -55 139 -55h234v-225h-316z" />
<glyph unicode="&#x457;" d="M271 1320q-30 0 -30 30v186q0 30 30 30h176q30 0 30 -30v-186q0 -30 -30 -30h-176zM666 1320q-30 0 -30 30v186q0 30 30 30h176q30 0 30 -30v-186q0 -30 -30 -30h-176zM802 -12q-209 0 -300 108q-91 107 -91 359v440h-227v225h520v-665q0 -131 41 -187q40 -55 139 -55 h234v-225h-316z" />
<glyph unicode="&#x458;" d="M614 1323q-30 0 -30 30v282q0 30 30 30h233q30 0 30 -30v-282q0 -30 -30 -30h-233zM170 -199h234q49 0 83.5 13t56 42t31 75t9.5 112v852h-297v225h590v-1077q0 -126 -21.5 -214.5t-69 -145t-121.5 -82t-179 -25.5h-316v225z" />
<glyph unicode="&#x459;" d="M11 240h10q52 0 86 7.5t55.5 29.5t32.5 60.5t17 101.5q3 29 4.5 62t3 67.5t2 68t0.5 63.5v420h598v-422h11q79 0 152 -21.5t128.5 -64.5t88.5 -108.5t33 -153.5t-33 -154t-88.5 -109.5t-128.5 -65t-152 -21.5h-251v901h-118v-197q0 -73 -3 -155.5t-14 -162t-32.5 -150.5 t-58.5 -121q-45 -60 -116 -87.5t-183 -27.5h-44v240zM837 219q25 0 52.5 7.5t50.5 23t38 40.5t15 60t-15 59.5t-38 40t-50.5 22.5t-52.5 7h-17v-260h17z" />
<glyph unicode="&#x45a;" d="M41 1120h240v-381h299v381h240v-422h11q79 0 152 -21.5t128.5 -64.5t88.5 -108.5t33 -153.5t-33 -154t-88.5 -109.5t-128.5 -65t-152 -21.5h-251v520h-299v-520h-240v1120zM837 219q25 0 52.5 7.5t50.5 23t38 40.5t15 60t-15 59.5t-38 40t-50.5 22.5t-52.5 7h-17v-260h17 z" />
<glyph unicode="&#x45b;" d="M211 895h-171v225h171v436h291v-436h437v-225h-437v-295q32 97 107.5 146t182.5 49q156 0 237 -104.5t81 -315.5v-375h-291v330q0 118 -33.5 171.5t-106.5 53.5q-86 0 -131.5 -68t-45.5 -198v-289h-291v895z" />
<glyph unicode="&#x45c;" d="M752 1646h282l-368 -376h-197zM174 1120h293v-381l352 381h355l-424 -418l448 -702h-324l-307 524l-100 -96v-428h-293v1120z" />
<glyph unicode="&#x45d;" d="M238 1646h282l283 -376h-197zM152 1120h291v-715l357 715h291v-1120h-291v715l-357 -715h-291v1120z" />
<glyph unicode="&#x45e;" d="M626 1270q-157 0 -243 76t-92 221h141q11 -69 60.5 -106.5t133.5 -37.5t133 37t60 107h143q-6 -145 -92 -221t-244 -76zM137 -201h119q44 0 76 6.5t56.5 25t44.5 52t40 88.5l22 60l-426 1089h308l256 -727l245 727h308l-465 -1241q-59 -158 -141.5 -230.5t-200.5 -72.5 h-242v223z" />
<glyph unicode="&#x45f;" d="M511 0h-340v1120h291v-901h318v901h291v-1120h-340v-286h-220v286z" />
<glyph unicode="&#x462;" d="M270 1124h-250v209h250v160h295v-160h323v-209h-323v-211h30q153 0 263 -26.5t180.5 -82.5t103.5 -142.5t33 -205.5q0 -117 -32.5 -203t-102 -142.5t-179.5 -83.5t-266 -27h-325v1124zM606 236q78 0 130 11.5t83 37.5t44 68t13 102q0 63 -14 106t-45.5 69t-83 37 t-127.5 11h-41v-442h41z" />
<glyph unicode="&#x463;" d="M286 950h-251v225h251v381h291v-381h402v-225h-402v-252h127q106 0 190.5 -21.5t143 -64.5t90 -108.5t31.5 -153.5t-31.5 -154t-90 -109.5t-143 -65t-190.5 -21.5h-418v950zM650 219q111 0 163.5 30.5t52.5 100.5t-52.5 99.5t-163.5 29.5h-73v-260h73z" />
<glyph unicode="&#x472;" d="M616 -29q-122 0 -208 36.5t-144.5 97t-92.5 138.5t-51.5 160t-22.5 162.5t-5 146.5q0 336 84 528.5t264 252.5q81 27 177 27q261 0 392.5 -195t131.5 -582q0 -325 -93 -510.5t-271 -239.5q-72 -22 -161 -22zM828 911q-18 197 -76 276q-26 35 -60 51.5t-76 16.5 q-148 0 -193 -214q-10 -49 -18 -130h423zM617 236q57 0 95.5 27t63.5 79.5t38 130t18 178.5h-431q4 -100 17 -177.5t38.5 -130t64.5 -80t96 -27.5z" />
<glyph unicode="&#x473;" d="M614 -29q-235 0 -376 159q-70 79 -105 186t-35 240q0 137 36.5 246.5t104 186t163 117.5t214.5 41t215 -41t163.5 -117.5t104 -185.5t36.5 -244t-36.5 -244t-104 -185.5t-164 -117.5t-216.5 -41zM839 632q-6 57 -21.5 107t-42.5 88t-66.5 60t-92.5 22t-92 -22t-66 -60 t-42.5 -88t-21.5 -107h445zM616 209q53 0 90.5 20.5t63 53.5t40.5 73.5t22 81.5h-431q7 -41 22 -81.5t40.5 -73.5t62.5 -53.5t90 -20.5z" />
<glyph unicode="&#x490;" d="M222 1493h670v306h260v-566h-635v-1233h-295v1493z" />
<glyph unicode="&#x491;" d="M282 1120h590v314h209v-533h-508v-901h-291v1120z" />
<glyph unicode="&#x492;" d="M222 664h-135v240h135v589h930v-260h-635v-329h425v-240h-425v-664h-295v664z" />
<glyph unicode="&#x493;" d="M292 458h-130v219h130v443h799v-219h-508v-224h360v-219h-360v-458h-291v458z" />
<glyph unicode="&#x494;" d="M528 -199h136q49 0 83.5 13t56 42t31 75t9.5 112v421q0 121 -35 173q-15 22 -41.5 35.5t-77.5 13.5h-233v-686h-295v1493h930v-260h-635v-281h309q125 0 226 -53q19 -10 36.5 -23t29.5 -30q81 -105 81 -314v-489q0 -126 -21.5 -214.5t-69 -145t-122 -82t-180.5 -25.5 h-218v225z" />
<glyph unicode="&#x495;" d="M488 -199h113q49 0 83 13t55.5 42t31 75t9.5 112v137q0 62 -9 105t-27 69.5t-45.5 38.5t-65.5 12h-120v-405h-291v1120h799v-209h-508v-266h237q160 0 240.5 -104t80.5 -316v-182q0 -126 -21.5 -215t-68.5 -145t-120.5 -81.5t-177.5 -25.5h-195v225z" />
<glyph unicode="&#x496;" d="M981 0h-10l-157 537l-77 -181v-356h-240v356l-77 181l-157 -537h-250l258 886l-258 607h261l223 -523v523h240v-523l223 523h261l-258 -607l182 -626h76v-582h-240v322z" />
<glyph unicode="&#x497;" d="M1004 0h-39l-156 427l-72 -122v-305h-240v305l-72 122l-156 -427h-255l254 694l-250 426h277l202 -343v343h240v-343l202 343h277l-250 -426l174 -475h83v-505h-219v286z" />
<glyph unicode="&#x498;" d="M1100 412q0 -189 -108 -299.5t-319 -135.5q52 -62 72 -107.5t20 -91.5q0 -88 -61 -133.5t-189 -45.5q-48 0 -98 6.5t-104 19.5v156q91 -35 164 -35q59 0 91.5 23t32.5 61q0 25 -16 59t-51 82q-105 2 -209 20.5t-200 53.5v274q48 -25 102 -43t108 -30t106 -17.5t97 -5.5 q145 0 212 56.5t67 155.5q0 107 -69.5 170t-198.5 63h-158v260h158q111 0 171 43.5t60 125.5q0 81 -60.5 127t-175.5 46q-78 0 -174.5 -21t-199.5 -61v268q103 31 202.5 47.5t193.5 16.5q118 0 210.5 -26.5t156.5 -76.5t98 -121.5t34 -160.5q0 -137 -76 -220.5t-217 -109.5 q77 -14 138 -44.5t103 -79.5t64.5 -116t22.5 -153z" />
<glyph unicode="&#x499;" d="M1079 287q0 -67 -29.5 -119t-85 -90t-135 -61.5t-178.5 -32.5q28 -32 47 -59.5t30 -52.5t16 -48t5 -46q0 -88 -61 -133.5t-189 -45.5q-48 0 -98 6.5t-104 19.5v156q91 -35 164 -35q59 0 91.5 23t32.5 61q0 26 -17 61.5t-55 86.5h-3q-47 0 -89 3t-84.5 10.5t-87 20 t-96.5 32.5v236q49 -24 92 -39.5t86.5 -24.5t91.5 -12t108 -3q55 0 102 3.5t81 15.5t53 35.5t19 63.5q0 45 -23 73t-57.5 43.5t-74.5 21t-75 5.5h-163v219h137q42 0 83 6t73.5 20.5t52.5 38.5t20 59q0 123 -255 123q-161 0 -314 -52v223q54 16 147 32t210 16 q124 0 216.5 -22.5t154.5 -64t93 -101t31 -134.5q0 -58 -17 -101t-44 -73t-60 -49t-64 -29q40 -11 80 -36t71.5 -61.5t51 -84.5t19.5 -104z" />
<glyph unicode="&#x49a;" d="M932 0h-35l-354 672l-131 -166v-506h-295v1493h295v-590l462 590h334l-471 -588l348 -645h140v-582h-293v322z" />
<glyph unicode="&#x49b;" d="M909 0h-35l-307 524l-100 -96v-428h-293v1120h293v-381l352 381h355l-424 -418l315 -493h133v-495h-289v286z" />
<glyph unicode="&#x4a2;" d="M990 0h-239v664h-369v-664h-295v1493h295v-569h369v569h295v-1233h237v-582h-293v322z" />
<glyph unicode="&#x4a3;" d="M944 0h-291v530h-317v-530h-291v1120h291v-381h317v381h291v-911h289v-495h-289v286z" />
<glyph unicode="&#x4a4;" d="M98 1493h240v-578h315v578h580v-247h-340v-1246h-240v675h-315v-675h-240v1493z" />
<glyph unicode="&#x4a5;" d="M102 1120h240v-390h323v390h568v-210h-328v-910h-240v520h-323v-520h-240v1120z" />
<glyph unicode="&#x4aa;" d="M772 1255q-160 0 -242 -128t-82 -382t82 -381.5t242 -127.5q79 0 150.5 32.5t147.5 102.5v-328q-54 -28 -112 -45t-123 -23q26 -30 43 -56.5t27.5 -50t15 -46t4.5 -44.5q0 -88 -61 -133.5t-189 -45.5q-48 0 -98 6.5t-104 19.5v156q91 -35 164 -35q59 0 91.5 23t32.5 61 q0 26 -16.5 60t-51.5 83q-134 11 -237 66.5t-173 153t-106 236.5t-36 316q0 189 40.5 333.5t118.5 242.5t193 148.5t264 50.5q176 0 313 -72v-328q-76 70 -147.5 102.5t-150.5 32.5z" />
<glyph unicode="&#x4ab;" d="M747 909q-144 0 -220.5 -90.5t-76.5 -260.5q0 -168 76.5 -257.5t223.5 -89.5q85 0 159 29.5t137 85.5v-269q-116 -67 -260 -82q26 -30 43 -56.5t27.5 -50t15 -46t4.5 -44.5q0 -88 -61 -133.5t-189 -45.5q-48 0 -98 6.5t-104 19.5v156q91 -35 164 -35q59 0 91.5 23 t32.5 61q0 26 -16.5 60t-51.5 84q-117 9 -208 53t-154 119t-96 179t-33 233q0 139 38 248.5t109 185.5t174 116.5t232 40.5q91 0 173.5 -20.5t166.5 -65.5v-268q-64 55 -140.5 84.5t-158.5 29.5z" />
<glyph unicode="&#x4ac;" d="M764 0h-295v1235h-379v258h1053v-258h-379v-975h293v-582h-293v322z" />
<glyph unicode="&#x4ad;" d="M763 0h-291v911h-308v209h907v-209h-308v-702h289v-495h-289v286z" />
<glyph unicode="&#x4ae;" d="M469 588l-461 905h318l290 -600l291 600h318l-461 -905v-588h-295v588z" />
<glyph unicode="&#x4af;" d="M471 31l-414 1089h308l251 -727l251 727h308l-414 -1089v-457h-290v457z" />
<glyph unicode="&#x4b0;" d="M469 264h-240v260h240v64l-461 905h318l290 -600l291 600h318l-461 -905v-64h240v-260h-240v-264h-295v264z" />
<glyph unicode="&#x4b1;" d="M471 -250h-200v219h200v62l-414 1089h308l251 -727l251 727h308l-414 -1089v-62h200v-219h-200v-176h-290v176z" />
<glyph unicode="&#x4b2;" d="M913 0h-12l-285 494l-284 -494h-305l438 758l-426 735h305l272 -475l273 475h305l-424 -735l286 -498h150v-582h-293v322z" />
<glyph unicode="&#x4b3;" d="M889 0h-53l-220 377l-219 -377h-342l414 584l-381 536h342l186 -334l187 334h342l-377 -536l263 -375h147v-495h-289v286z" />
<glyph unicode="&#x4ba;" d="M121 1556h291v-666q17 50 59 77l47 31q26 17 76.5 29.5t126.5 18.5l57 3q59 0 118 -13t107 -40q37 -21 63 -53q38 -47 59.5 -126t21.5 -188v-629h-291v561q0 121 -35 173q-23 37 -119 49q-23 3 -42 3q-69 0 -141 -29q-23 -9 -37 -18.5t-25 -23.5q-23 -31 -34 -83 t-11 -112v-520h-291v1556z" />
<glyph unicode="&#x4bb;" d="M172 1556h291v-604q32 97 107.5 146t182.5 49q156 0 237 -104.5t81 -315.5v-727h-291v682q0 118 -33.5 171.5t-107.5 53.5q-88 0 -132 -69.5t-44 -196.5v-641h-291v1556z" />
<glyph unicode="&#x4c0;" d="M172 260h297v973h-297v260h889v-260h-297v-973h297v-260h-889v260z" />
<glyph unicode="&#x4c1;" d="M616 1587q-148 0 -234 67t-101 197h141q41 -121 196 -121q151 0 191 121h143q-15 -130 -101 -197t-235 -67zM271 886l-258 607h261l223 -523v523h240v-523l223 523h261l-258 -607l258 -886h-250l-157 537l-77 -181v-356h-240v356l-77 181l-157 -537h-250z" />
<glyph unicode="&#x4c2;" d="M616 1270q-157 0 -243 76t-92 221h141q11 -69 60.5 -106.5t133.5 -37.5t133 37t60 107h143q-6 -145 -92 -221t-244 -76zM268 694l-250 426h277l202 -343v343h240v-343l202 343h277l-250 -426l254 -694h-255l-156 427l-72 -122v-305h-240v305l-72 122l-156 -427h-255z" />
<glyph unicode="&#x4c3;" d="M483 -199h136q102 0 139 55q41 56 41 187v421q0 126 -35 173q-49 49 -119 49h-86l-147 -180v-506h-295v1493h295v-590l462 590h334l-433 -541q84 0 172 -53q27 -15 41 -27t25 -26q37 -48 59 -128t22 -186v-489q0 -122 -22.5 -213.5t-67.5 -145.5q-44 -53 -119.5 -80.5 t-183.5 -27.5h-218v225z" />
<glyph unicode="&#x4c4;" d="M442 -199h113q49 0 83 13t55.5 42t31 75t9.5 112v137q0 62 -9 105t-27 69.5t-45.5 38.5t-65.5 12h-120v-405h-293v1120h293v-381l352 381h355l-483 -475h13q160 0 240.5 -104t80.5 -316v-182q0 -126 -21.5 -215t-68.5 -145t-120.5 -81.5t-177.5 -25.5h-195v225z" />
<glyph unicode="&#x4c7;" d="M485 -199h136q49 0 83.5 13t56 42t31 75t9.5 112v621h-369v-664h-295v1493h295v-569h369v569h295v-1450q0 -125 -22 -213.5t-69.5 -144.5t-122 -82.5t-179.5 -26.5h-218v225z" />
<glyph unicode="&#x4c8;" d="M487 -199h113q49 0 83.5 13t56 42t31 75t9.5 112v487h-317v-530h-291v1120h291v-381h317v381h291v-1077q0 -126 -21.5 -215t-68.5 -145t-120.5 -81.5t-178.5 -25.5h-195v225z" />
<glyph unicode="&#x4cb;" d="M537 260h293v506q-17 -49 -59 -77l-47 -31q-14 -9 -36 -17t-49 -14.5t-57.5 -11t-60.5 -5.5l-57 -3q-59 0 -118 13t-107 40q-37 21 -63 53q-38 47 -59.5 126t-21.5 188v529h291v-461q0 -121 35 -173q23 -37 119 -49q22 -3 42 -3q69 0 141 29q23 9 37 18.5t25 23.5 q23 31 34 83t11 112v420h291v-1556h-291v-322h-293v582z" />
<glyph unicode="&#x4cc;" d="M473 209h289v207h-107q-230 0 -385 101l-4 3q-136 91 -136 293v307h299v-337q0 -61 35 -94q4 -4 9 -8t12 -9q55 -39 170 -39h107v488h290v-1121h-290v-286h-289v495z" />
<glyph unicode="&#x4cf;" d="M387 1556h293v-1556h-293v1556z" />
<glyph unicode="&#x4d0;" d="M616 1586q-148 0 -234 67t-101 197h141q41 -121 196 -121q151 0 191 121h143q-15 -130 -101 -197t-235 -67zM436 1493h361l403 -1493h-295l-92 369h-395l-90 -369h-295zM756 612l-140 611l-139 -611h279z" />
<glyph unicode="&#x4d1;" d="M616 1270q-157 0 -243 76t-92 221h141q11 -69 60.5 -106.5t133.5 -37.5t133 37t60 107h143q-6 -145 -92 -221t-244 -76zM494 -29q-91 0 -164.5 25t-127.5 76q-107 101 -107 282q0 96 30.5 169t96.5 121q127 93 393 93h203v49q0 37 -13.5 64t-37.5 44q-26 19 -65.5 27.5 t-91.5 8.5q-48 0 -98.5 -6.5t-99.5 -19.5q-48 -13 -100 -34.5t-106 -50.5v250q42 17 94.5 33.5t102.5 25.5q41 8 100 14t125 6q70 0 126.5 -8t102 -23t80 -36t60.5 -46q27 -27 48 -62t35.5 -82.5t21.5 -108t7 -138.5q0 -19 -0.5 -50t-1 -68t-1 -76.5t-1 -74.5t-1 -62 t-0.5 -39q0 -21 0.5 -42t1.5 -35q2 -20 3.5 -39.5t3.5 -32.5q3 -20 7 -38.5t7 -28.5q5 -15 12.5 -31t15.5 -27h-290q-9 15 -16.5 31t-11.5 27q-3 10 -7 28.5t-6 38.5q-55 -73 -142 -114q-42 -20 -86.5 -30t-101.5 -10zM576 174q56 0 101 21.5t77 66.5q64 86 64 244v20h-117 q-165 0 -229 -42q-65 -42 -65 -142q0 -41 11 -70.5t34 -52.5q45 -45 124 -45z" />
<glyph unicode="&#x4d2;" d="M331 1604q-30 0 -30 30v186q0 30 30 30h176q30 0 30 -30v-186q0 -30 -30 -30h-176zM726 1604q-30 0 -30 30v186q0 30 30 30h176q30 0 30 -30v-186q0 -30 -30 -30h-176zM436 1493h361l403 -1493h-295l-92 369h-395l-90 -369h-295zM756 612l-140 611l-139 -611h279z" />
<glyph unicode="&#x4d3;" d="M331 1347q-30 0 -30 30v186q0 30 30 30h176q30 0 30 -30v-186q0 -30 -30 -30h-176zM726 1347q-30 0 -30 30v186q0 30 30 30h176q30 0 30 -30v-186q0 -30 -30 -30h-176zM494 -29q-91 0 -164.5 25t-127.5 76q-107 101 -107 282q0 96 30.5 169t96.5 121q127 93 393 93h203 v49q0 37 -13.5 64t-37.5 44q-26 19 -65.5 27.5t-91.5 8.5q-48 0 -98.5 -6.5t-99.5 -19.5q-48 -13 -100 -34.5t-106 -50.5v250q42 17 94.5 33.5t102.5 25.5q41 8 100 14t125 6q70 0 126.5 -8t102 -23t80 -36t60.5 -46q27 -27 48 -62t35.5 -82.5t21.5 -108t7 -138.5 q0 -19 -0.5 -50t-1 -68t-1 -76.5t-1 -74.5t-1 -62t-0.5 -39q0 -21 0.5 -42t1.5 -35q2 -20 3.5 -39.5t3.5 -32.5q3 -20 7 -38.5t7 -28.5q5 -15 12.5 -31t15.5 -27h-290q-9 15 -16.5 31t-11.5 27q-3 10 -7 28.5t-6 38.5q-55 -73 -142 -114q-42 -20 -86.5 -30t-101.5 -10z M576 174q56 0 101 21.5t77 66.5q64 86 64 244v20h-117q-165 0 -229 -42q-65 -42 -65 -142q0 -41 11 -70.5t34 -52.5q45 -45 124 -45z" />
<glyph unicode="&#x4d4;" d="M358 1493h803v-260h-291v-311h260v-260h-260v-402h310v-260h-564v362h-282l-86 -362h-248zM616 598v635h-79l-148 -635h227z" />
<glyph unicode="&#x4d5;" d="M346 -29q-159 0 -245.5 92t-86.5 266q0 365 406 365h76v51q0 187 -154 187q-116 0 -266 -109v246q77 40 145 59t140 19q99 0 159 -33.5t92 -93.5q32 64 97 95.5t160 31.5q87 0 147.5 -28.5t98.5 -92t55.5 -167t17.5 -253.5v-127h-451q0 -145 49.5 -220t145.5 -75 q119 0 239 117v-244q-96 -86 -252 -86q-107 0 -181.5 40t-119.5 124q-41 -84 -106.5 -124t-165.5 -40zM963 690v23q0 126 -25 172q-26 47 -88 47t-88 -47q-25 -46 -25 -172v-23h226zM365 184q124 0 124 174v125h-73q-176 0 -176 -156q0 -68 32 -105.5t93 -37.5z" />
<glyph unicode="&#x4d6;" d="M634 1586q-148 0 -234 67t-101 197h141q41 -121 196 -121q151 0 191 121h143q-15 -130 -101 -197t-235 -67zM168 1493h930v-260h-635v-322h575v-260h-575v-391h635v-260h-930v1493z" />
<glyph unicode="&#x4d7;" d="M630 1297q-157 0 -243 76t-92 221h141q11 -69 60.5 -106.5t133.5 -37.5t133 37t60 107h143q-6 -145 -92 -221t-244 -76zM679 -29q-145 0 -254.5 38t-183.5 112t-111.5 181.5t-37.5 247.5q0 139 36.5 249.5t105.5 187.5t169 118.5t228 41.5q121 0 217 -38t163 -110 t102.5 -176.5t35.5 -238.5v-119h-759q1 -262 308 -262q102 0 199 29t205 92v-269q-100 -42 -207 -63t-216 -21zM854 685q-2 116 -60 175.5t-164 59.5q-108 0 -166.5 -60.5t-70.5 -175.5z" />
<glyph unicode="&#x4d8;" d="M617 -29q-260 0 -392.5 195.5t-132.5 578.5v95h740v5q0 97 -13.5 173.5t-42.5 129t-73.5 80t-107.5 27.5q-67 0 -140 -32.5t-148 -102.5v328q70 36 147 54t157 18q265 0 397.5 -195.5t132.5 -577.5q0 -383 -132.5 -579.5t-391.5 -196.5zM618 236q50 0 86 22t61 65.5 t40 108t23 148.5h-423q11 -176 63.5 -260t149.5 -84z" />
<glyph unicode="&#x4d9;" d="M620 -29q-121 0 -217 38t-163 110t-102.5 176.5t-35.5 238.5v119h759v10q-1 132 -78 192t-227 60q-105 0 -202 -29t-205 -92v269q100 42 207 63t216 21q145 0 254.5 -38t183.5 -112t111.5 -182t37.5 -247t-36.5 -249.5t-105.5 -188t-169.5 -118.5t-227.5 -41zM621 198 q108 0 166.5 60t70.5 175h-461q2 -115 59.5 -175t164.5 -60z" />
<glyph unicode="&#x4da;" d="M341 1604q-30 0 -30 30v186q0 30 30 30h176q30 0 30 -30v-186q0 -30 -30 -30h-176zM736 1604q-30 0 -30 30v186q0 30 30 30h176q30 0 30 -30v-186q0 -30 -30 -30h-176zM617 -29q-260 0 -392.5 195.5t-132.5 578.5v95h740v5q0 97 -13.5 173.5t-42.5 129t-73.5 80 t-107.5 27.5q-67 0 -140 -32.5t-148 -102.5v328q70 36 147 54t157 18q265 0 397.5 -195.5t132.5 -577.5q0 -383 -132.5 -579.5t-391.5 -196.5zM618 236q50 0 86 22t61 65.5t40 108t23 148.5h-423q11 -176 63.5 -260t149.5 -84z" />
<glyph unicode="&#x4db;" d="M341 1347q-30 0 -30 30v186q0 30 30 30h176q30 0 30 -30v-186q0 -30 -30 -30h-176zM736 1347q-30 0 -30 30v186q0 30 30 30h176q30 0 30 -30v-186q0 -30 -30 -30h-176zM620 -29q-121 0 -217 38t-163 110t-102.5 176.5t-35.5 238.5v119h759v10q-1 132 -78 192t-227 60 q-105 0 -202 -29t-205 -92v269q100 42 207 63t216 21q145 0 254.5 -38t183.5 -112t111.5 -182t37.5 -247t-36.5 -249.5t-105.5 -188t-169.5 -118.5t-227.5 -41zM621 198q108 0 166.5 60t70.5 175h-461q2 -115 59.5 -175t164.5 -60z" />
<glyph unicode="&#x4dc;" d="M323 1604q-30 0 -30 30v186q0 30 30 30h176q30 0 30 -30v-186q0 -30 -30 -30h-176zM718 1604q-30 0 -30 30v186q0 30 30 30h176q30 0 30 -30v-186q0 -30 -30 -30h-176zM271 886l-258 607h261l223 -523v523h240v-523l223 523h261l-258 -607l258 -886h-250l-157 537 l-77 -181v-356h-240v356l-77 181l-157 -537h-250z" />
<glyph unicode="&#x4dd;" d="M330 1320q-30 0 -30 30v186q0 30 30 30h176q30 0 30 -30v-186q0 -30 -30 -30h-176zM725 1320q-30 0 -30 30v186q0 30 30 30h176q30 0 30 -30v-186q0 -30 -30 -30h-176zM268 694l-250 426h277l202 -343v343h240v-343l202 343h277l-250 -426l254 -694h-255l-156 427 l-72 -122v-305h-240v305l-72 122l-156 -427h-255z" />
<glyph unicode="&#x4de;" d="M311 1604q-30 0 -30 30v186q0 30 30 30h176q30 0 30 -30v-186q0 -30 -30 -30h-176zM706 1604q-30 0 -30 30v186q0 30 30 30h176q30 0 30 -30v-186q0 -30 -30 -30h-176zM554 -29q-110 0 -219.5 19t-209.5 55v274q48 -25 102 -43t108 -30t106 -17.5t97 -5.5q145 0 212 56.5 t67 155.5q0 107 -69.5 170t-198.5 63h-158v260h158q111 0 171 43.5t60 125.5q0 81 -60.5 127t-175.5 46q-78 0 -174.5 -21t-199.5 -61v268q103 31 202.5 47.5t193.5 16.5q118 0 210.5 -26.5t156.5 -76.5t98 -121.5t34 -160.5q0 -137 -76 -220.5t-217 -109.5 q77 -14 138 -44.5t103 -79.5t64.5 -116t22.5 -153q0 -215 -138.5 -328t-407.5 -113z" />
<glyph unicode="&#x4df;" d="M319 1347q-30 0 -30 30v186q0 30 30 30h176q30 0 30 -30v-186q0 -30 -30 -30h-176zM714 1347q-30 0 -30 30v186q0 30 30 30h176q30 0 30 -30v-186q0 -30 -30 -30h-176zM510 -22q-47 0 -89 3t-84.5 10.5t-87 20t-96.5 32.5v236q49 -24 92 -39.5t86.5 -24.5t91.5 -12 t108 -3q55 0 102 3.5t81 15.5t53 35.5t19 63.5q0 45 -23 73t-57.5 43.5t-74.5 21t-75 5.5h-163v219h137q42 0 83 6t73.5 20.5t52.5 38.5t20 59q0 123 -255 123q-161 0 -314 -52v223q54 16 147 32t210 16q124 0 216.5 -22.5t154.5 -64t93 -101t31 -134.5q0 -58 -17 -101 t-44 -73t-60 -49t-64 -29q40 -11 80 -36t71.5 -61.5t51 -84.5t19.5 -104q0 -78 -40 -136t-114.5 -96.5t-179.5 -57.5t-235 -19z" />
<glyph unicode="&#x4e0;" d="M615 -28q-166 0 -281.5 31.5t-187.5 91.5t-104 147t-32 197h318q0 -54 22 -92.5t60 -63.5t89 -37t108 -12q103 0 171.5 36.5t89.5 109.5q5 16 6.5 31.5t1.5 29.5q0 86 -54 136.5t-170 64.5q-17 2 -35 3t-38 1h-255v218l372 369h-566v260h1010v-244l-401 -401 q72 -5 130.5 -12t107 -24t89 -47t76.5 -80q42 -57 61.5 -120t19.5 -144q0 -93 -24.5 -162t-67 -119t-100.5 -82.5t-125.5 -51.5t-142 -26.5t-148.5 -7.5z" />
<glyph unicode="&#x4e1;" d="M531 -440q-112 0 -213.5 18t-207.5 56v297q195 -109 386 -109q136 0 208 53t72 153q0 101 -74.5 153.5t-222.5 52.5h-168v218l390 449h-566v219h895v-229l-391 -455q67 -4 125.5 -10.5t109.5 -24.5t95.5 -51.5t82.5 -91.5q36 -54 53.5 -113t17.5 -132q0 -111 -39 -195.5 t-114.5 -142t-186 -86.5t-252.5 -29z" />
<glyph unicode="&#x4e2;" d="M301 1850h631v-188h-631v188zM119 1493h260v-1085l416 1085h317v-1493h-260v1085l-418 -1085h-315v1493z" />
<glyph unicode="&#x4e3;" d="M301 1508h631v-188h-631v188zM152 1120h291v-715l357 715h291v-1120h-291v715l-357 -715h-291v1120z" />
<glyph unicode="&#x4e4;" d="M331 1606q-30 0 -30 30v186q0 30 30 30h176q30 0 30 -30v-186q0 -30 -30 -30h-176zM726 1606q-30 0 -30 30v186q0 30 30 30h176q30 0 30 -30v-186q0 -30 -30 -30h-176zM119 1493h260v-1085l416 1085h317v-1493h-260v1085l-418 -1085h-315v1493z" />
<glyph unicode="&#x4e5;" d="M331 1320q-30 0 -30 30v186q0 30 30 30h176q30 0 30 -30v-186q0 -30 -30 -30h-176zM726 1320q-30 0 -30 30v186q0 30 30 30h176q30 0 30 -30v-186q0 -30 -30 -30h-176zM152 1120h291v-715l357 715h291v-1120h-291v715l-357 -715h-291v1120z" />
<glyph unicode="&#x4e6;" d="M331 1606q-30 0 -30 30v186q0 30 30 30h176q30 0 30 -30v-186q0 -30 -30 -30h-176zM726 1606q-30 0 -30 30v186q0 30 30 30h176q30 0 30 -30v-186q0 -30 -30 -30h-176zM617 -29q-260 0 -392.5 196.5t-132.5 578.5t132.5 578t392.5 196q259 0 391.5 -195.5t132.5 -578.5 t-132.5 -579t-391.5 -196zM616 236q114 0 166 121q52 119 52 389q0 269 -52 388q-52 121 -166 121q-59 0 -99 -30.5t-66 -90.5q-52 -119 -52 -388q0 -270 52 -389q52 -121 165 -121z" />
<glyph unicode="&#x4e7;" d="M331 1347q-30 0 -30 30v186q0 30 30 30h176q30 0 30 -30v-186q0 -30 -30 -30h-176zM726 1347q-30 0 -30 30v186q0 30 30 30h176q30 0 30 -30v-186q0 -30 -30 -30h-176zM616 -29q-119 0 -214.5 41t-163 117.5t-104 185.5t-36.5 244t36.5 244t104 185.5t163 117.5t214.5 41 t215 -41t163.5 -117.5t104 -185.5t36.5 -244t-36.5 -244t-104 -185.5t-163.5 -117.5t-215 -41zM616 209q53 0 95 23.5t71 68.5t44.5 110t15.5 148q0 82 -15.5 147t-44.5 110t-71 69t-95 24t-94.5 -24t-70.5 -69t-44.5 -110t-15.5 -147q0 -83 15.5 -148t44.5 -110t70.5 -68.5 t94.5 -23.5z" />
<glyph unicode="&#x4e8;" d="M617 -29q-260 0 -392.5 196.5t-132.5 578.5t132.5 578t392.5 196q259 0 391.5 -195.5t132.5 -578.5t-132.5 -579t-391.5 -196zM828 911q-7 74 -19.5 137t-36.5 109t-61.5 72t-94.5 26t-94 -25.5t-60.5 -71t-36.5 -109t-20 -138.5h423zM617 236q57 0 95.5 27t63.5 79.5 t38 130t18 178.5h-431q4 -100 17 -177.5t38.5 -130t64.5 -80t96 -27.5z" />
<glyph unicode="&#x4e9;" d="M614 -29q-235 0 -376 159q-70 79 -105 186t-35 240q0 137 36.5 246.5t104 186t163 117.5t214.5 41t215 -41t163.5 -117.5t104 -185.5t36.5 -244t-36.5 -244t-104 -185.5t-164 -117.5t-216.5 -41zM839 632q-6 57 -21.5 107t-42.5 88t-66.5 60t-92.5 22t-92 -22t-66 -60 t-42.5 -88t-21.5 -107h445zM616 209q53 0 90.5 20.5t63 53.5t40.5 73.5t22 81.5h-431q7 -41 22 -81.5t40.5 -73.5t62.5 -53.5t90 -20.5z" />
<glyph unicode="&#x4ea;" d="M331 1606q-30 0 -30 30v186q0 30 30 30h176q30 0 30 -30v-186q0 -30 -30 -30h-176zM726 1606q-30 0 -30 30v186q0 30 30 30h176q30 0 30 -30v-186q0 -30 -30 -30h-176zM617 -29q-260 0 -392.5 196.5t-132.5 578.5t132.5 578t392.5 196q259 0 391.5 -195.5t132.5 -578.5 t-132.5 -579t-391.5 -196zM828 911q-7 74 -19.5 137t-36.5 109t-61.5 72t-94.5 26t-94 -25.5t-60.5 -71t-36.5 -109t-20 -138.5h423zM617 236q57 0 95.5 27t63.5 79.5t38 130t18 178.5h-431q4 -100 17 -177.5t38.5 -130t64.5 -80t96 -27.5z" />
<glyph unicode="&#x4eb;" d="M331 1347q-30 0 -30 30v186q0 30 30 30h176q30 0 30 -30v-186q0 -30 -30 -30h-176zM726 1347q-30 0 -30 30v186q0 30 30 30h176q30 0 30 -30v-186q0 -30 -30 -30h-176zM614 -29q-235 0 -376 159q-70 79 -105 186t-35 240q0 137 36.5 246.5t104 186t163 117.5t214.5 41 t215 -41t163.5 -117.5t104 -185.5t36.5 -244t-36.5 -244t-104 -185.5t-164 -117.5t-216.5 -41zM839 632q-6 57 -21.5 107t-42.5 88t-66.5 60t-92.5 22t-92 -22t-66 -60t-42.5 -88t-21.5 -107h445zM616 209q53 0 90.5 20.5t63 53.5t40.5 73.5t22 81.5h-431q7 -41 22 -81.5 t40.5 -73.5t62.5 -53.5t90 -20.5z" />
<glyph unicode="&#x4ec;" d="M286 1606q-30 0 -30 30v186q0 30 30 30h176q30 0 30 -30v-186q0 -30 -30 -30h-176zM681 1606q-30 0 -30 30v186q0 30 30 30h176q30 0 30 -30v-186q0 -30 -30 -30h-176zM490 -29q-89 0 -165.5 18t-147.5 54v328q145 -135 304 -135q271 0 311 379h-542v260h542 q-41 380 -312 380q-158 0 -303 -135v328q135 72 311 72q150 0 265.5 -50.5t193.5 -148.5t118.5 -242.5t40.5 -332.5t-40.5 -333t-118.5 -243t-193 -148.5t-264 -50.5z" />
<glyph unicode="&#x4ed;" d="M299 1347q-30 0 -30 30v186q0 30 30 30h176q30 0 30 -30v-186q0 -30 -30 -30h-176zM694 1347q-30 0 -30 30v186q0 30 30 30h176q30 0 30 -30v-186q0 -30 -30 -30h-176zM537 -29q-193 0 -339 86v269q68 -59 137.5 -88t153.5 -29q119 0 197.5 60.5t101.5 188.5h-477v219 h472q-52 232 -287 232q-166 0 -298 -114v268q78 42 158 63t173 21q130 0 234 -40t177 -115.5t112 -185t39 -247.5t-37 -247t-108 -184.5t-174 -116t-235 -40.5z" />
<glyph unicode="&#x4ee;" d="M301 1850h631v-188h-631v188zM185 260h80q29 0 55.5 1.5t51 13.5t46.5 40t42 81l55 145l-487 952h305l316 -620l251 620h305l-478 -1190q-62 -154 -143.5 -228.5t-198.5 -74.5h-200v260z" />
<glyph unicode="&#x4ef;" d="M301 1508h631v-188h-631v188zM127 -201h119q44 0 76 6.5t56.5 25t44.5 52t40 88.5l22 60l-426 1089h308l256 -727l245 727h308l-465 -1241q-59 -158 -141.5 -230.5t-200.5 -72.5h-242v223z" />
<glyph unicode="&#x4f0;" d="M331 1606q-30 0 -30 30v186q0 30 30 30h176q30 0 30 -30v-186q0 -30 -30 -30h-176zM726 1606q-30 0 -30 30v186q0 30 30 30h176q30 0 30 -30v-186q0 -30 -30 -30h-176zM185 260h80q29 0 55.5 1.5t51 13.5t46.5 40t42 81l55 145l-487 952h305l316 -620l251 620h305 l-478 -1190q-62 -154 -143.5 -228.5t-198.5 -74.5h-200v260z" />
<glyph unicode="&#x4f1;" d="M331 1320q-30 0 -30 30v186q0 30 30 30h176q30 0 30 -30v-186q0 -30 -30 -30h-176zM726 1320q-30 0 -30 30v186q0 30 30 30h176q30 0 30 -30v-186q0 -30 -30 -30h-176zM127 -201h119q44 0 76 6.5t56.5 25t44.5 52t40 88.5l22 60l-426 1089h308l256 -727l245 727h308 l-465 -1241q-59 -158 -141.5 -230.5t-200.5 -72.5h-242v223z" />
<glyph unicode="&#x4f2;" d="M463 1852h284l-286 -264h-197zM838 1852h284l-286 -264h-197zM185 260h80q29 0 55.5 1.5t51 13.5t46.5 40t42 81l55 145l-487 952h305l316 -620l251 620h305l-478 -1190q-62 -154 -143.5 -228.5t-198.5 -74.5h-200v260z" />
<glyph unicode="&#x4f3;" d="M492 1646h217l-248 -376h-164zM854 1646h231l-272 -376h-174zM127 -201h119q44 0 76 6.5t56.5 25t44.5 52t40 88.5l22 60l-426 1089h308l256 -727l245 727h308l-465 -1241q-59 -158 -141.5 -230.5t-200.5 -72.5h-242v223z" />
<glyph unicode="&#x4f4;" d="M321 1627q-30 0 -30 30v186q0 30 30 30h176q30 0 30 -30v-186q0 -30 -30 -30h-176zM716 1627q-30 0 -30 30v186q0 30 30 30h176q30 0 30 -30v-186q0 -30 -30 -30h-176zM826 766q-30 -77 -112.5 -118t-227.5 -41q-107 0 -182 24t-122.5 75t-69 130.5t-21.5 190.5v529h291 v-461q0 -72 17.5 -116t46.5 -68t67 -32.5t79 -8.5q70 0 115 17.5t71.5 51.5t37 83.5t10.5 113.5v420h291v-1556h-291v766z" />
<glyph unicode="&#x4f5;" d="M316 1321q-30 0 -30 30v186q0 30 30 30h176q30 0 30 -30v-186q0 -30 -30 -30h-176zM711 1321q-30 0 -30 30v186q0 30 30 30h176q30 0 30 -30v-186q0 -30 -30 -30h-176zM755 416h-190q-98 0 -179 17.5t-139.5 62t-91 121.5t-32.5 196v307h299v-337q0 -45 10 -74.5 t35.5 -46t69.5 -23t111 -6.5h107v488h290v-1121h-290v416z" />
<glyph unicode="&#x4f6;" d="M477 0h-295v1493h930v-260h-635v-973h293v-582h-293v322z" />
<glyph unicode="&#x4f7;" d="M523 0h-291v1120h799v-209h-508v-702h289v-495h-289v286z" />
<glyph unicode="&#x4f8;" d="M371 1606q-30 0 -30 30v186q0 30 30 30h176q30 0 30 -30v-186q0 -30 -30 -30h-176zM766 1606q-30 0 -30 30v186q0 30 30 30h176q30 0 30 -30v-186q0 -30 -30 -30h-176zM40 1493h255v-580h10q131 0 231.5 -26.5t168 -82.5t102 -142.5t34.5 -205.5q0 -235 -134.5 -345.5 t-401.5 -110.5h-265v1493zM938 1493h255v-1493h-255v1493zM316 236q78 0 130 11.5t83 37.5t44 68t13 102q0 63 -14 106t-45.5 69t-83 37t-127.5 11h-21v-442h21z" />
<glyph unicode="&#x4f9;" d="M331 1320q-30 0 -30 30v186q0 30 30 30h176q30 0 30 -30v-186q0 -30 -30 -30h-176zM726 1320q-30 0 -30 30v186q0 30 30 30h176q30 0 30 -30v-186q0 -30 -30 -30h-176zM31 1120h291v-422h21q106 0 190.5 -21.5t143 -64.5t90 -108.5t31.5 -153.5t-31.5 -154t-90 -109.5 t-143 -65t-190.5 -21.5h-312v1120zM908 1120h293v-1120h-293v1120zM349 219q25 0 52.5 7.5t50.5 23t38 40.5t15 60t-15 59.5t-38 40t-50.5 22.5t-52.5 7h-27v-260h27z" />
<glyph unicode="&#x510;" d="M671 -29q-269 0 -407.5 113t-138.5 328q0 172 86.5 269t241.5 124q-141 26 -217 109.5t-76 220.5q0 89 34 160.5t98 121.5t156.5 76.5t210.5 26.5q94 0 193.5 -16.5t202.5 -47.5v-268q-103 40 -199.5 61t-174.5 21q-115 0 -175.5 -46t-60.5 -127q0 -82 60 -125.5 t171 -43.5h158v-260h-158q-129 0 -198.5 -63t-69.5 -170q0 -50 16.5 -89t50.5 -66.5t86.5 -42t125.5 -14.5q45 0 97 5.5t106 17.5t108 30t102 43v-274q-100 -36 -209.5 -55t-219.5 -19z" />
<glyph unicode="&#x511;" d="M672 -22q-261 0 -392 85t-131 246q0 124 78.5 198.5t233.5 96.5q-139 20 -209 83.5t-70 165.5q0 66 31 119.5t93.5 90.5t156.5 57t220 20q42 0 76.5 -2.5t70.5 -8t77 -15t95 -22.5v-215q-53 17 -97 28.5t-82 19t-72 10.5t-66 3q-115 0 -173.5 -33.5t-58.5 -82.5t57 -80.5 t162 -31.5h151v-223h-151q-61 0 -108 -13t-79.5 -35t-49.5 -51.5t-17 -62.5q0 -30 15 -56.5t50 -46t91 -30.5t139 -11q40 0 77 3t76 11.5t82.5 22.5t96.5 35v-219q-64 -18 -117 -29t-98 -17t-83.5 -8t-74.5 -2z" />
<glyph unicode="&#x51a;" d="M656 -23q-18 -4 -26 -5t-23 -1q-251 0 -383 196.5t-132 579.5t132 578t393 195q259 0 391.5 -196t132.5 -578q0 -266 -62.5 -442.5t-183.5 -252.5l186 -182l-202 -150zM616 236q114 0 166 121q52 119 52 389q0 269 -52 388q-52 121 -166 121q-59 0 -99 -30.5t-66 -90.5 q-52 -119 -52 -388q0 -270 52 -389q52 -121 165 -121z" />
<glyph unicode="&#x51b;" d="M791 158q-58 -98 -128.5 -142.5t-167.5 -44.5q-94 0 -169 38.5t-127.5 113.5t-80.5 184.5t-28 251.5q0 140 27 249.5t79 184.5t126 114.5t169 39.5q108 0 180.5 -50t119.5 -145l29 168h263v-1546h-292v584zM586 215q48 0 86 23.5t64.5 68.5t40.5 109t14 145t-14 145 t-40.5 109t-64.5 68.5t-86 23.5t-85.5 -23.5t-63.5 -68.5t-40 -109t-14 -145t14 -145t40 -109t63.5 -68.5t85.5 -23.5z" />
<glyph unicode="&#x51c;" d="M0 1493h258l107 -1096l129 709h245l150 -709l84 1096h260l-172 -1493h-275l-170 784l-159 -784h-273z" />
<glyph unicode="&#x51d;" d="M0 1120h244l133 -858l121 565h237l119 -565l135 858h244l-203 -1120h-278l-136 582l-135 -582h-278z" />
<glyph unicode="&#x531;" d="M993 -64q-37 17 -72 38.5t-69 46.5q-108 -50 -272 -50q-134 0 -229.5 33.5t-158.5 104.5t-92 179.5t-29 262.5v942h295v-1016q0 -112 56 -175.5t159 -63.5q23 0 44 3q-32 40 -58 78t-45 72l178 144q17 -32 40 -60.5t52 -54.5q2 14 3 28t1 29v1016h295v-942 q0 -91 -10 -165t-31 -134q54 -28 112 -53l-169 -263v0z" />
<glyph unicode="&#x532;" d="M98 942q0 154 29 263t92 180t158.5 104t230.5 33t230.5 -33t158.5 -104t92 -180t29 -263v-67h-295v141q0 112 -56 175.5t-159 63.5t-159 -63.5t-56 -175.5v-342h742v-260h-742v-414h-295v942z" />
<glyph unicode="&#x533;" d="M758 414h-231q-131 0 -224 35.5t-153 106.5t-88.5 174t-28.5 241q0 140 29 242.5t92 171.5t158.5 103t232.5 34q133 0 228.5 -33t158.5 -104t92 -180t29 -263v-268h146v-260h-146v-414h-295v414zM758 674v342q0 112 -56 175.5t-159 63.5t-159 -63.5t-56 -175.5v-96 q0 -113 57 -179q28 -32 67.5 -49.5t90.5 -17.5h215z" />
<glyph unicode="&#x534;" d="M758 1016q0 112 -56 175.5t-159 63.5t-159 -63.5t-56 -175.5v-141h-295v67q0 154 29 263t92 180t158.5 104t230.5 33t230.5 -33t158.5 -104t92 -180t29 -263v-268h146v-260h-146v-414h-295v1016z" />
<glyph unicode="&#x535;" d="M608 -29q-135 0 -230.5 33.5t-158.5 104.5t-92 179.5t-29 262.5v942h295v-373h755v-260h-755v-383q0 -112 56 -175.5t159 -63.5t159 63.5t56 175.5v141h295v-67q0 -154 -29 -262.5t-92 -179.5t-158.5 -104.5t-230.5 -33.5z" />
<glyph unicode="&#x536;" d="M107 331h295v-71q81 1 161 46.5t146 132.5q67 88 105.5 204.5t38.5 262.5q0 173 -58.5 261t-180.5 88q-54 0 -99.5 -18.5t-77.5 -57.5t-48.5 -99t-16.5 -145v-60h-295v22q0 305 133 465t400 160q142 0 243.5 -43.5t167.5 -124.5q33 -41 58 -91t42 -107t25.5 -119.5 t8.5 -126.5q0 -94 -18.5 -181t-57.5 -172q-41 -88 -104 -165.5t-160 -131.5h279v-260h-987v331z" />
<glyph unicode="&#x537;" d="M112 1493h295v-373h714v-260h-714v-600h575v-260h-870v1493z" />
<glyph unicode="&#x538;" d="M98 942q0 154 29 263t92 180t158.5 104t230.5 33t230.5 -33t158.5 -104t92 -180t29 -263v-67h-295v141q0 112 -56 175.5t-159 63.5t-159 -63.5t-56 -175.5v-756h742v-260h-1037v942z" />
<glyph unicode="&#x539;" d="M739 -29q-78 0 -142.5 24.5t-111.5 79.5t-70.5 138.5t-23.5 198.5q0 120 25 206.5t70 143.5q46 57 111 85t146 28h107v141q0 67 -14.5 119.5t-47.5 87.5t-86 53.5t-129 18.5t-128.5 -18.5t-85.5 -53.5t-47.5 -87.5t-14.5 -119.5v-1016h-254v942q0 154 32.5 263t98.5 180 t165 104t234 33t234 -33t165 -104t98.5 -180t32.5 -263v-67h87v-260h-87v-202q0 -108 -25 -189.5t-73 -138.5q-96 -114 -266 -114zM744 218q29 0 49 10.5t33 34.5q13 23 18.5 59.5t5.5 90.5v202h-107q-63 0 -93.5 -47.5t-30.5 -151.5q0 -107 32 -152.5t93 -45.5z" />
<glyph unicode="&#x53a;" d="M544 -29q-137 0 -232 34.5t-158 103.5q-65 72 -93 175t-28 237q0 139 28.5 242.5t88.5 174.5q120 141 377 141h231v414h295v-414h146v-260h-146v-268q0 -154 -29 -262.5t-92 -179.5t-158.5 -104.5t-229.5 -33.5zM543 238q103 0 159 63.5t56 175.5v342h-215 q-51 0 -90.5 -17.5t-67.5 -49.5q-57 -66 -57 -179v-96q0 -112 56 -175.5t159 -63.5z" />
<glyph unicode="&#x53b;" d="M106 1493h295v-400q47 23 98 35.5t128 12.5q123 0 219 -33t159 -104t92 -180t29 -263v-67h-295v141q0 112 -56.5 175.5t-157.5 63.5q-50 0 -90 -16t-68 -46t-43 -72t-15 -94v-646h-295v1493z" />
<glyph unicode="&#x53c;" d="M153 1493h295v-1233h631v-260h-926v1493z" />
<glyph unicode="&#x53d;" d="M812 -27q-107 0 -174.5 27.5t-106.5 85.5q-40 58 -55 147t-15 214v433h-129v-880h-254v1493h254v-373h383v-715q0 -57 6.5 -94t19.5 -60q23 -43 72 -43q24 0 40.5 10t27.5 33q20 44 20 154v715h254v-673q0 -125 -13 -214t-51 -147t-105 -85.5t-174 -27.5z" />
<glyph unicode="&#x53e;" d="M631 -29q-158 0 -260.5 48.5t-163.5 128.5q-64 84 -92 196.5t-28 244.5q0 120 21 222t61 196h-134v486h237v-245h46q54 63 117 113.5t134 85.5t147.5 54t155.5 19q45 0 92 -5.5t92 -16.5q48 -11 81.5 -24.5t50.5 -25.5v-317q-50 61 -144 101q-45 19 -91 29.5t-92 10.5 q-47 0 -90.5 -11t-83.5 -31q118 -21 214.5 -71t162.5 -129q66 -78 99.5 -185.5t33.5 -246.5q0 -85 -13 -164.5t-41 -149.5q-29 -72 -73.5 -129.5t-103.5 -96.5q-131 -87 -335 -87zM634 228q88 0 137 24t75 71q13 24 21 54t12.5 63t6 68.5t1.5 70.5q0 56 -3.5 101.5t-11.5 83 t-22 68t-36 56.5q-45 53 -126 82t-209 35q-23 -48 -39 -94.5t-26.5 -98.5t-15.5 -111.5t-5 -134.5q0 -80 7 -142.5t30 -105.5q24 -46 72.5 -68t131.5 -22z" />
<glyph unicode="&#x53f;" d="M831 400q-47 -23 -98.5 -35.5t-127.5 -12.5q-123 0 -219 33.5t-159 104.5t-92 179.5t-29 262.5v561h295v-635q0 -112 56.5 -175.5t157.5 -63.5q50 0 90 16t68 46t43 72t15 94v273h295v-1120h-295v400z" />
<glyph unicode="&#x540;" d="M329 251q-59 23 -103.5 48t-81.5 57t-58.5 70.5t-21.5 83.5q0 143 231 340q91 77 211 157.5t264 161.5l-184 324h340l243 -420h-2l1 -1q-97 -48 -199 -102.5t-196 -111.5q-39 -24 -81 -50.5t-81 -53.5t-73 -52t-56 -45q-15 -14 -28.5 -28.5t-20.5 -25.5q-15 -23 -15 -40 t12 -27t29 -17l687 -283v-311z" />
<glyph unicode="&#x541;" d="M933 -64q-32 48 -63.5 92t-63.5 86q-82 -75 -174 -108t-191 -33q-164 0 -258 83q-47 42 -72.5 101.5t-25.5 139.5t25.5 142.5t72.5 105.5t111.5 65.5t142.5 22.5q90 0 173.5 -29t162.5 -83q34 81 54 168.5t20 196.5q0 98 -16.5 170.5t-47.5 117.5t-74.5 63t-100.5 18 q-48 0 -93 -14.5t-80 -57.5q-33 -41 -51 -109t-18 -173v-26h-295v26q0 175 42.5 293.5t116.5 191.5t172 104.5t207 31.5q114 0 211.5 -33.5t170.5 -108.5q75 -78 116.5 -200t41.5 -284q0 -160 -41 -299t-119 -269q49 -57 92 -117.5t81 -124.5zM449 226q37 0 82 16t92 63 q-47 35 -94 55t-86 20q-40 0 -59.5 -20.5t-19.5 -58.5q0 -75 85 -75z" />
<glyph unicode="&#x542;" d="M758 1016q0 112 -56 175.5t-159 63.5t-159 -63.5t-56 -175.5v-141h-295v67q0 154 29 263t92 180t158.5 104t230.5 33t230.5 -33t158.5 -104t92 -180t29 -263v-682h146v-260h-441v1016z" />
<glyph unicode="&#x543;" d="M380 0q-73 0 -127.5 16t-93.5 47t-63.5 79.5t-24.5 119.5q0 87 40 199t125 257q12 21 30 51t39 64t44 69t45 67l-301 524h331l160 -279q65 71 130 125.5t138 95.5q72 40 148 61.5t161 21.5v-265q-38 0 -81.5 -9.5t-96.5 -41.5q-52 -31 -115 -88.5t-138 -153.5l426 -742 v-218h-776zM799 265l-251 436q-5 -8 -12.5 -19.5t-16 -25.5t-17.5 -28t-16 -26q-60 -100 -86 -167t-26 -104q0 -38 28 -52t97 -14h300z" />
<glyph unicode="&#x544;" d="M543 -29q-135 0 -230.5 33.5t-158.5 104.5t-92 179.5t-29 262.5v942h295v-1016q0 -112 56 -175.5t159 -63.5t159 63.5t56 175.5v1016h441v-260h-146v-682q0 -154 -29 -262.5t-92 -179.5t-158.5 -104.5t-230.5 -33.5z" />
<glyph unicode="&#x545;" d="M659 -29q-134 0 -232 38t-164 102q-67 64 -101.5 148t-34.5 177v9h298v-9q0 -42 15 -79.5t44 -66.5t71 -46.5t102 -17.5t104 18t72 49q27 30 39 71.5t12 84.5q0 102 -59.5 157.5t-171.5 55.5h-603v260h603q48 0 81.5 15t54.5 40q23 26 31.5 58t8.5 65q0 85 -45.5 124 t-128.5 39q-175 0 -175 -169h-298q0 100 33.5 178.5t96.5 133.5q61 54 147.5 83t192.5 29t193 -29.5t150 -84.5q65 -57 98.5 -134.5t33.5 -171.5q0 -109 -42 -179t-112 -107q54 -23 93 -59t65 -84t38.5 -101.5t12.5 -114.5q0 -97 -30.5 -185t-95.5 -154t-164 -104.5 t-233 -38.5z" />
<glyph unicode="&#x546;" d="M689 -29q-135 0 -230.5 33.5t-158.5 104.5t-92 179.5t-29 262.5v682h-146v260h441v-1016q0 -112 56 -175.5t159 -63.5t159 63.5t56 175.5v141h295v-67q0 -154 -29 -262.5t-92 -179.5t-158.5 -104.5t-230.5 -33.5z" />
<glyph unicode="&#x547;" d="M620 -27q-116 0 -216 34.5t-173 111.5q-74 78 -115 197t-41 274q0 141 33 244t84 178t111 121.5t114 58.5q-21 9 -49.5 16.5t-57.5 12.5t-53 8t-35 3h-93v261h165q16 0 29 -0.5t27 -2t30.5 -4t40.5 -6.5q38 -7 74.5 -15.5t68.5 -22.5l504 -211v-311l-299 126 q-11 4 -26.5 9t-33.5 9q-19 3 -38 5.5t-35 2.5q-59 0 -104 -37t-78 -100q-34 -64 -52.5 -148t-18.5 -189q0 -91 15.5 -161.5t47.5 -116.5q30 -43 73 -61.5t99 -18.5q53 0 98.5 17.5t77.5 59.5t50 111t18 174v18h295v-18q0 -175 -41 -294.5t-113 -194.5q-73 -75 -172 -107.5 t-211 -32.5z" />
<glyph unicode="&#x548;" d="M106 942q0 154 29 263t92 180t158.5 104t230.5 33t230.5 -33t158.5 -104t92 -180t29 -263v-942h-295v1016q0 112 -56 175.5t-159 63.5t-159 -63.5t-56 -175.5v-1016h-295v942z" />
<glyph unicode="&#x549;" d="M166 265v310l293 -124q13 -6 30 -11t35 -8.5t35.5 -6t32.5 -2.5q63 0 109.5 39.5t80.5 111.5q33 69 51.5 162t18.5 199q-8 160 -63 240t-173 80q-57 0 -102 -18.5t-77 -57.5t-48.5 -99t-16.5 -145v-60h-295v22q0 305 133 465t402 160q266 0 406 -162q69 -80 103 -191.5 t34 -251.5q0 -138 -30 -241.5t-76 -181.5q-48 -81 -102.5 -130t-104.5 -71l147 -66v-307z" />
<glyph unicode="&#x54a;" d="M927 935q0 157 -43.5 241.5t-140.5 99.5v-834h-254v833q-98 -17 -140.5 -100t-42.5 -240v-120h-254v104q0 133 31.5 243t100.5 189q71 82 178.5 124.5t258.5 42.5q153 0 262.5 -43t176.5 -124q66 -79 93.5 -189t27.5 -243v-919h-254v935z" />
<glyph unicode="&#x54b;" d="M112 331h295v-70q51 0 95 16.5t84 42.5q9 42 14 78.5t5 65.5q0 70 -35.5 110.5t-123.5 46.5q-23 1 -55 2.5t-67.5 6.5t-72 16.5t-68.5 33.5q-44 30 -65.5 68t-30.5 71q-5 19 -8 38.5t-4.5 37.5t-2 33.5t-0.5 25.5q0 75 11.5 137t37.5 123q26 59 67.5 114t104.5 99 q61 42 140.5 66.5t188.5 24.5q154 0 257 -50t166 -137q33 -46 55.5 -98.5t35.5 -106.5t18.5 -108t5.5 -104q0 -208 -83 -372q-41 -81 -105.5 -156t-151.5 -125h279v-261h-987v331zM785 557q16 33 30.5 76.5t25.5 94.5q9 44 13 83t4 84q0 30 -2 62.5t-7 64.5t-13.5 62.5 t-21.5 56.5q-12 25 -29.5 46t-41 36t-54 23.5t-69.5 8.5q-72 0 -121.5 -27t-78.5 -69q-30 -42 -42 -91.5t-12 -89.5q0 -21 4 -43.5t18 -40.5q18 -24 42.5 -29.5t53.5 -7.5q55 -3 110.5 -16.5t103.5 -53.5q41 -35 65 -84t24 -108q0 -10 -0.5 -19.5t-1.5 -18.5z" />
<glyph unicode="&#x54c;" d="M33 942q0 154 29 263t92 180t158.5 104t230.5 33t230.5 -33t158.5 -104t92 -180t29 -263v-268h146v-260h-146v-414h-295v1016q0 112 -56 175.5t-159 63.5t-159 -63.5t-56 -175.5v-1016h-295v942z" />
<glyph unicode="&#x54d;" d="M616 -29q-135 0 -230.5 33.5t-158.5 104.5t-92 179.5t-29 262.5v942h295v-1016q0 -112 56 -175.5t159 -63.5t159 63.5t56 175.5v1016h295v-942q0 -154 -29 -262.5t-92 -179.5t-158.5 -104.5t-230.5 -33.5z" />
<glyph unicode="&#x54e;" d="M758 400q-47 -23 -98.5 -35.5t-127.5 -12.5q-123 0 -219 33.5t-159 104.5t-92 179.5t-29 262.5v67h295v-141q0 -112 56.5 -175.5t157.5 -63.5q50 0 90 16t68 46t43 72t15 94v646h295v-1233h146v-260h-441v400z" />
<glyph unicode="&#x54f;" d="M630 -29q-121 0 -218.5 34.5t-166.5 97.5t-104.5 149.5t-35.5 194.5h307q0 -78 19.5 -122.5t49.5 -68.5q31 -25 69.5 -33t78.5 -8q42 0 76.5 8t61.5 29t43.5 57t16.5 92q0 20 -3 46q-6 45 -34.5 76t-81.5 58q-25 13 -53 24.5t-56 22.5q-73 28 -130 52t-112 57t-102.5 80 t-76.5 120q-14 35 -21 73.5t-7 84.5q0 48 9 95.5t30 94.5q23 50 58.5 92t84.5 73q51 32 119.5 51t165.5 19q127 0 219.5 -32t153.5 -88q60 -54 89 -125.5t29 -154.5h-300q0 51 -18.5 81.5t-47.5 47.5t-64 21.5t-61 4.5q-38 0 -68.5 -7.5t-54.5 -25.5q-56 -42 -56 -118 q0 -56 29.5 -91.5t77.5 -63.5q30 -17 59.5 -30t51.5 -21q60 -23 127 -50.5t126 -62.5q58 -35 109 -85t80 -125q14 -37 21.5 -80.5t7.5 -90.5q0 -98 -32 -181t-95 -143q-62 -60 -154.5 -94.5t-215.5 -34.5z" />
<glyph unicode="&#x550;" d="M106 942q0 154 29 263t92 180t158.5 104t230.5 33t230.5 -33t158.5 -104t92 -180t29 -263v-67h-295v141q0 112 -56 175.5t-159 63.5t-159 -63.5t-56 -175.5v-1016h-295v942z" />
<glyph unicode="&#x551;" d="M660 -27q-135 0 -233 38t-164 102q-67 64 -101.5 148t-34.5 177v9h298v-9q0 -42 15 -79.5t44 -66.5t71 -46.5t102 -17.5t104 18t72 49q29 32 40 74t11 81q0 95 -59 151q-29 28 -71.5 44.5t-99.5 16.5h-604v260h182q-30 49 -40 93t-10 86q0 88 32 165.5t93 134.5 q60 56 147.5 86.5t199.5 30.5t199.5 -30t148.5 -87t93 -134t32 -170q0 -97 -37.5 -171t-116.5 -114q58 -26 98 -67.5t65 -89.5q25 -49 35.5 -100t10.5 -105q0 -94 -30.5 -180.5t-95.5 -152.5q-65 -67 -163.5 -105.5t-232.5 -38.5zM652 922q51 0 84 14t54 38q39 45 39 121 q0 32 -8 63.5t-28 54.5t-53.5 36.5t-85.5 13.5q-51 0 -84.5 -13.5t-53.5 -36.5q-20 -24 -28 -56t-8 -65t7.5 -64t27.5 -54q19 -23 51.5 -37.5t85.5 -14.5z" />
<glyph unicode="&#x552;" d="M112 1493h295v-373h714v-260h-714v-860h-295v1493z" />
<glyph unicode="&#x553;" d="M487 138q-133 6 -221 51t-142 130q-51 80 -72 190t-21 254q0 142 21 251.5t73 187.5q54 81 141 122.5t221 46.5v122h255v-122q136 -5 224 -48t141 -121t73.5 -187.5t20.5 -249.5t-20.5 -253t-73.5 -195t-141 -128.5t-224 -51.5v-137h-255v138zM487 1143 q-73 -3 -114 -24.5t-61 -66.5q-21 -45 -25.5 -114.5t-4.5 -159.5q0 -110 5 -185.5t26 -125.5q20 -45 59.5 -71.5t114.5 -29.5v777zM742 366q73 3 114.5 28.5t61.5 74.5q20 48 24.5 121t4.5 174t-4.5 172t-24.5 116t-61.5 66.5t-114.5 24.5v-777z" />
<glyph unicode="&#x554;" d="M197 154h-146v260h146v643q0 100 28.5 184.5t88.5 146.5q58 60 148 95t222 35q131 0 224 -35t154 -98t90.5 -146.5t29.5 -183.5q0 -103 -30.5 -187.5t-89.5 -144.5q-63 -63 -156 -97.5t-208 -34.5q-47 0 -97 9t-109 40v-226h669v-260h-669v-154h-295v154zM692 846 q56 0 92 14.5t58 41.5t30.5 66t8.5 84q0 43 -8.5 84t-31.5 70q-23 27 -59 42q-38 15 -95 15q-61 0 -97.5 -15.5t-57.5 -41.5q-22 -27 -30.5 -65t-8.5 -84q0 -48 9.5 -86t32.5 -66t61 -43.5t96 -15.5z" />
<glyph unicode="&#x555;" d="M617 -29q-260 0 -392.5 196.5t-132.5 578.5t132.5 578t392.5 196q259 0 391.5 -195.5t132.5 -578.5t-132.5 -579t-391.5 -196zM616 236q114 0 166 121q52 119 52 389q0 269 -52 388q-52 121 -166 121q-59 0 -99 -30.5t-66 -90.5q-52 -119 -52 -388q0 -270 52 -389 q52 -121 165 -121z" />
<glyph unicode="&#x556;" d="M614 -29q-131 0 -223.5 19.5t-157.5 56.5t-104.5 89.5t-61.5 118.5t-29 142.5t-7 164.5h251q0 -88 5 -152t26 -107q20 -42 60 -64.5t114 -25.5v677q-190 10 -281 84.5t-91 223.5q0 69 20.5 126.5t66.5 95.5t120.5 55.5t185.5 17.5h234v-375q136 -5 224 -43t141 -109 t73.5 -172t20.5 -239q0 -80 -7.5 -157t-29.5 -143t-61.5 -118.5t-105.5 -89.5t-159.5 -56.5t-223.5 -19.5zM487 1263q-36 0 -59 -5t-36 -14q-13 -10 -17.5 -23.5t-4.5 -30.5t4.5 -30t17.5 -21q25 -18 95 -18v142zM742 213q73 3 114.5 25t61.5 65t24.5 107t4.5 152t-4.5 149 t-24.5 100t-61.5 57.5t-114.5 21.5v-677z" />
<glyph unicode="&#x559;" d="M759 986q-59 0 -111 22.5t-90.5 61t-61 90.5t-22.5 111t22.5 111t61 90.5t90.5 61t111 22.5v-154q-27 0 -51 -10.5t-41.5 -28t-28 -41.5t-10.5 -51t10 -51t28 -41.5t42 -28t51 -10.5v-154v0z" />
<glyph unicode="&#x55a;" d="M509 1224v271h313v-271l-196 -383h-216z" />
<glyph unicode="&#x55b;" d="M556 1638h403l-368 -376h-318z" />
<glyph unicode="&#x55c;" d="M136 1265q3 76 27.5 139.5t68.5 111.5t103.5 79.5t131.5 45.5q49 10 88 18t70.5 16t58 16.5t52.5 20.5q51 23 78 49.5t31 67.5h251q0 -61 -13.5 -125.5t-45.5 -120.5q-19 -32 -42 -55.5t-51.5 -41t-62 -30t-72.5 -22.5q-17 -5 -29 -7.5t-27.5 -5.5t-38.5 -7t-60 -11 q-75 -14 -134 -30t-96 -43q-17 -13 -26.5 -28t-9.5 -37h-252v0z" />
<glyph unicode="&#x55d;" d="M273 1638h403l283 -376h-318z" />
<glyph unicode="&#x55e;" d="M840 1209q-51 0 -99.5 12t-90.5 41q-44 30 -71.5 75.5t-36.5 116.5h165q6 -32 32 -46.5t60 -14.5q27 0 45.5 8.5t30.5 23.5q13 16 17 34t4 33q0 38 -17 61.5t-46 39.5t-66.5 23.5t-79.5 7.5q-85 0 -157.5 -28t-128.5 -75q-122 -102 -140 -256h-194q3 90 30.5 168 t73.5 144q47 67 108 118t133 87q71 35 148.5 54.5t163.5 19.5q103 0 184 -27.5t138 -75.5q58 -48 88.5 -112t30.5 -137q0 -60 -20.5 -112t-62.5 -93q-42 -42 -103 -66t-139 -24z" />
<glyph unicode="&#x55f;" d="M188 1556h140v-169h716v-122h-856v291z" />
<glyph unicode="&#x561;" d="M333 -27q-73 0 -122 26t-75 74q-26 47 -41 146t-15 270v631h240v-719q0 -64 4.5 -104.5t15.5 -63.5q11 -26 28 -33.5t39 -7.5q24 0 42 8.5t29 34.5q20 44 20 166v719h237v-719q0 -63 5 -103t16 -63q11 -26 28.5 -34.5t41.5 -8.5q22 0 39.5 7.5t28.5 33.5q11 23 15 63.5 t4 104.5v719h240v-1120h-213v116q-25 -66 -79.5 -104.5t-120.5 -38.5q-36 0 -68 11t-58 30q-31 22 -47 46.5t-22 51.5q-33 -72 -82.5 -105.5t-129.5 -33.5z" />
<glyph unicode="&#x562;" d="M149 1120h291v-168q31 93 104.5 144t185.5 51q157 0 237.5 -104t80.5 -316v-277h-291v232q0 119 -33.5 173t-106.5 54q-88 0 -132.5 -70.5t-44.5 -197.5v-416h644v-225h-644v-426h-291v1546z" />
</font>
</defs>
</svg>
