<?xml version="1.0" encoding="UTF-8"?>
<svg xmlns="http://www.w3.org/2000/svg" xmlns:xlink="http://www.w3.org/1999/xlink" version="1.2" >
<font id="Hack Oblique">
<font-face  font-family="Hack" units-per-em="2048" ascent="1556" descent="-492" font-style="italic" font-weight="400" font-stretch="normal" slope="-10.75" cap-height="1493" x-height="1120" underline-position="-283" underline-thickness="141" />
<missing-glyph  horiz-adv-x="1233" d="M104 -362 L104 1444 L1128 1444 L1128 -362 L104 -362 L104 -362 Z M219 -248 L1014 -248 L1014 1329 L219 1329 L219 -248 L219 -248 Z " />
<glyph glyph-name="CR" unicode="&#xd;" horiz-adv-x="1233" d="" />
<glyph glyph-name="space" unicode="&#x20;" horiz-adv-x="1233" d="" />
<glyph glyph-name="exclam" unicode="&#x21;" horiz-adv-x="1233" d="M489 81 C486 133 505 179 542 214 C576 246 616 262 657 262 C693 262 726 250 748 227 C774 199 777 161 777 143 C777 94 756 41 716 4 C688 -22 653 -38 607 -38 C569 -38 540 -27 519 -2 C498 23 490 56 489 81 L489 81 Z M717 1498 L982 1498 L912 1053 L755 486 L634 486 L647 1053 L717 1498 L717 1498 Z " />
<glyph glyph-name="quotedbl" unicode="&#x22;" horiz-adv-x="1233" d="M895 1493 L895 938 L721 938 L721 1493 L895 1493 L895 1493 Z M512 1493 L512 938 L338 938 L338 1493 L512 1493 L512 1493 Z " />
<glyph glyph-name="numbersign" unicode="&#x23;" horiz-adv-x="1233" d="M778 901 L532 901 L449 567 L694 567 L778 901 L778 901 Z M676 1470 L571 1055 L817 1055 L922 1470 L1081 1470 L977 1055 L1233 1055 L1194 901 L938 901 L854 567 L1112 567 L1073 414 L815 414 L711 0 L551 0 L655 414 L410 414 L305 0 L145 0 L250 414 L-6 414 L33 567 L289 567 L373 901 L115 901 L154 1055 L412 1055 L516 1470 L676 1470 L676 1470 Z " />
<glyph glyph-name="dollar" unicode="&#x24;" horiz-adv-x="1233" d="M629 588 L543 145 C629 145 699 169 752 218 C803 265 831 327 831 402 C831 460 814 500 784 527 C753 555 701 575 629 588 L629 588 Z M563 774 L643 1184 C564 1179 499 1153 449 1108 C398 1062 373 1005 373 941 C373 893 387 859 415 834 C442 810 488 790 563 774 L563 774 Z M455 -301 L354 -301 L413 0 C350 2 286 11 222 26 C154 42 92 64 31 92 L66 272 C120 232 179 201 242 179 C305 157 371 144 440 141 L530 606 C409 630 329 665 275 714 C225 760 195 822 195 912 C195 1022 239 1123 328 1200 C417 1277 538 1317 669 1321 L717 1556 L817 1556 L770 1321 C829 1317 893 1308 933 1300 C973 1292 1039 1275 1083 1260 L1051 1087 C1008 1114 952 1138 909 1151 C870 1163 805 1177 743 1182 L662 756 C778 733 866 694 925 639 C984 584 1014 515 1014 421 C1014 305 968 202 877 122 C786 42 668 2 524 2 L514 2 L455 -301 L455 -301 Z " />
<glyph glyph-name="percent" unicode="&#x25;" horiz-adv-x="1233" d="M696 319 C696 267 714 223 749 188 C784 153 827 135 879 135 C930 135 974 153 1010 189 C1045 224 1063 268 1063 319 C1063 370 1045 414 1009 450 C973 486 930 504 879 504 C827 504 784 486 749 451 C714 416 696 372 696 319 L696 319 Z M561 318 C561 412 597 492 653 548 C708 603 788 639 879 639 C923 639 962 631 1001 615 C1039 599 1073 576 1104 545 C1137 512 1160 475 1175 440 C1192 401 1200 362 1200 319 C1200 235 1170 155 1107 92 C1045 31 966 0 879 0 C790 0 711 32 651 92 C591 153 561 232 561 318 L561 318 Z M42 453 L42 560 L1192 996 L1192 883 L42 453 L42 453 Z M168 1112 C168 1061 187 1014 221 980 C250 951 296 928 351 928 C400 928 447 946 483 981 C514 1011 537 1057 537 1113 C537 1162 519 1207 483 1243 C447 1278 403 1296 353 1296 C303 1296 257 1278 222 1244 C189 1212 168 1165 168 1112 L168 1112 Z M33 1112 C33 1206 70 1286 125 1341 C181 1397 261 1432 352 1432 C396 1432 436 1424 475 1408 C514 1392 548 1369 578 1339 C608 1309 633 1272 648 1236 C664 1197 672 1155 672 1113 C672 1025 638 943 580 885 C525 830 443 793 351 793 C261 793 181 828 125 884 C65 944 33 1024 33 1112 L33 1112 Z " />
<glyph glyph-name="ampersand" unicode="&#x26;" horiz-adv-x="1233" d="M567 907 L874 350 C915 394 948 450 973 519 C998 588 1014 666 1022 760 L1190 760 C1179 648 1154 550 1112 458 C1071 368 1015 289 944 221 L1067 0 L868 0 L809 113 C744 65 685 32 614 7 C547 -17 479 -29 408 -29 C283 -29 173 8 96 78 C23 145 -20 239 -20 361 C-20 470 14 579 79 673 C144 767 242 851 367 920 C344 963 334 989 324 1026 C315 1060 309 1092 309 1135 C309 1246 350 1346 432 1416 C512 1484 627 1520 761 1520 C806 1520 848 1516 889 1508 C930 1500 970 1488 1008 1473 L973 1290 C945 1315 911 1334 870 1347 C829 1360 782 1366 738 1366 C659 1366 596 1347 551 1309 C506 1271 483 1217 483 1157 C483 1127 489 1092 505 1045 C519 1003 538 959 567 907 L567 907 Z M741 240 L432 795 C342 746 274 689 228 624 C181 558 158 483 158 411 C158 325 191 257 243 209 C297 159 373 129 456 129 C504 129 548 139 597 158 C643 176 690 201 741 240 L741 240 Z " />
<glyph glyph-name="quotesingle" unicode="&#x27;" horiz-adv-x="1233" d="M702 1493 L702 938 L528 938 L528 1493 L702 1493 L702 1493 Z " />
<glyph glyph-name="parenleft" unicode="&#x28;" horiz-adv-x="1233" d="M773 1554 L932 1554 C775 1353 658 1155 577 948 C497 744 457 541 457 340 C457 235 468 141 487 43 C508 -65 536 -162 576 -270 L416 -270 C363 -144 325 -29 300 76 C275 181 263 278 263 381 C263 575 306 778 392 978 C476 1173 603 1367 773 1554 L773 1554 Z " />
<glyph glyph-name="parenright" unicode="&#x29;" horiz-adv-x="1233" d="M489 -270 L330 -270 C487 -70 607 134 686 336 C765 539 805 744 805 940 C805 1038 795 1143 776 1241 C757 1338 726 1446 686 1554 L846 1554 C898 1429 937 1314 962 1209 C987 1104 999 1007 999 904 C999 710 956 506 870 307 C783 105 656 -86 489 -270 L489 -270 Z " />
<glyph glyph-name="asterisk" unicode="&#x2a;" horiz-adv-x="1233" d="M344 499 L250 566 L492 937 L128 1095 L164 1198 L540 1075 L560 1500 L668 1500 L688 1075 L1064 1198 L1100 1095 L736 937 L978 566 L884 499 L614 856 L344 499 L344 499 Z " />
<glyph glyph-name="plus" unicode="&#x2b;" horiz-adv-x="1233" d="M700 1171 L700 727 L1145 727 L1145 557 L700 557 L700 113 L532 113 L532 557 L88 557 L88 727 L532 727 L532 1171 L700 1171 L700 1171 Z " />
<glyph glyph-name="comma" unicode="&#x2c;" horiz-adv-x="1233" d="M446 -387 L400 -283 C563 -210 647 -98 652 51 C636 48 624 47 612 47 C570 47 531 60 502 86 C473 112 458 149 458 197 C458 244 473 281 504 308 C531 332 569 349 619 349 C677 349 721 326 752 281 C783 236 798 173 798 93 C798 -22 767 -120 706 -202 C645 -284 558 -346 446 -387 L446 -387 Z " />
<glyph glyph-name="hyphen" unicode="&#x2d;" horiz-adv-x="1233" d="M226 673 L1048 673 L1015 509 L193 509 L226 673 L226 673 Z " />
<glyph glyph-name="period" unicode="&#x2e;" horiz-adv-x="1233" d="M451 142 C451 192 467 233 498 264 C529 295 568 311 613 311 C658 311 697 295 728 264 C759 233 775 192 775 142 C775 92 759 51 728 20 C697 -11 658 -27 613 -27 C568 -27 529 -11 498 20 C467 51 451 92 451 142 L451 142 Z " />
<glyph glyph-name="slash" unicode="&#x2f;" horiz-adv-x="1233" d="M16 -190 L868 1493 L1059 1493 L205 -190 L16 -190 L16 -190 Z " />
<glyph glyph-name="zero" unicode="0" horiz-adv-x="1233" d="M1135 1028 C1135 894 1113 739 1079 608 C1044 473 991 341 936 248 C880 153 812 82 741 39 C670 -4 583 -29 480 -29 C349 -29 255 12 192 95 C129 178 98 301 98 464 C98 595 118 745 154 885 C190 1025 242 1152 297 1244 C353 1338 416 1406 493 1453 C562 1495 645 1520 749 1520 C883 1520 977 1479 1040 1396 C1100 1317 1135 1197 1135 1028 L1135 1028 Z M503 135 C557 135 609 152 655 186 C707 225 744 283 770 334 C814 421 856 547 886 681 C917 818 932 949 932 1057 C932 1168 916 1241 883 1287 C850 1333 796 1356 732 1356 C677 1356 623 1339 578 1306 C530 1271 492 1218 461 1158 C416 1071 376 953 345 812 C313 666 299 531 299 429 C299 313 317 247 351 203 C383 162 434 135 503 135 L503 135 Z M527 795 C533 819 553 898 586 966 C619 1035 655 1069 685 1069 C686 1069 689 1069 696 1067 C722 1059 740 1031 740 956 C739 948 739 939 739 930 C733 818 726 788 717 750 C703 694 679 621 651 553 C616 469 584 421 548 421 C543 421 540 422 537 423 C510 433 496 466 496 536 C496 555 497 569 498 588 C504 688 514 741 527 795 L527 795 Z " />
<glyph glyph-name="one" unicode="1" horiz-adv-x="1233" d="M156 170 L469 170 L690 1311 L338 1235 L373 1419 L725 1493 L928 1493 L670 170 L979 170 L946 0 L123 0 L156 170 L156 170 Z " />
<glyph glyph-name="two" unicode="2" horiz-adv-x="1233" d="M268 170 L952 170 L920 0 L6 0 L39 170 L350 444 L389 479 C738 792 926 1001 926 1160 C926 1215 903 1265 862 1299 C821 1333 761 1352 684 1352 C620 1352 549 1339 486 1319 C420 1298 338 1262 254 1217 L295 1421 C374 1456 450 1480 512 1495 C587 1513 652 1520 709 1520 C837 1520 941 1485 1013 1424 C1085 1363 1126 1274 1126 1163 C1126 1108 1116 1052 1090 989 C1064 926 1023 859 973 799 C949 770 920 739 854 678 C787 616 708 547 588 444 L268 170 L268 170 Z " />
<glyph glyph-name="three" unicode="3" horiz-adv-x="1233" d="M762 799 C838 786 897 752 940 697 C983 642 1004 575 1004 484 C1004 335 948 208 837 113 C728 20 582 -29 383 -29 C308 -29 246 -22 179 -10 C107 3 51 18 -18 45 L20 246 C85 209 141 186 206 168 C271 150 332 141 398 141 C525 141 620 174 693 235 C766 296 805 375 805 475 C805 557 779 617 734 655 C688 694 617 715 524 715 L371 715 L403 881 L557 881 C658 881 746 906 808 955 C867 1002 901 1071 901 1157 C901 1227 878 1274 839 1303 C799 1334 736 1350 650 1350 C593 1350 535 1343 470 1330 C401 1316 339 1298 260 1270 L297 1456 C371 1476 456 1495 517 1505 C573 1514 641 1520 697 1520 C820 1520 922 1491 994 1433 C1063 1377 1102 1295 1102 1187 C1102 1092 1072 1005 1013 936 C957 871 874 822 762 799 L762 799 Z " />
<glyph glyph-name="four" unicode="4" horiz-adv-x="1233" d="M842 1282 L217 520 L690 520 L842 1282 L842 1282 Z M846 1493 L1079 1493 L889 520 L1087 520 L1057 356 L858 356 L788 0 L590 0 L659 356 L25 356 L61 547 L846 1493 L846 1493 Z " />
<glyph glyph-name="five" unicode="5" horiz-adv-x="1233" d="M352 1493 L1108 1493 L1075 1323 L504 1323 L432 956 C463 967 494 975 524 980 C553 985 584 987 612 987 C739 987 842 946 915 875 C990 802 1030 697 1030 574 C1030 493 1013 412 978 334 C943 256 893 188 829 131 C772 80 706 39 628 11 C552 -16 469 -29 366 -29 C302 -29 232 -24 170 -13 C107 -2 52 14 4 35 L45 240 C101 206 163 179 217 164 C276 147 339 139 395 139 C518 139 628 178 708 255 C781 325 829 430 829 545 C829 630 803 699 749 748 C695 797 621 821 525 821 C473 821 420 814 365 801 C310 788 257 768 207 743 L352 1493 L352 1493 Z " />
<glyph glyph-name="six" unicode="6" horiz-adv-x="1233" d="M860 583 C860 665 843 727 802 769 C763 809 704 829 639 829 C539 829 453 783 391 703 C326 619 293 507 293 394 C293 306 313 243 353 198 C395 151 457 129 521 129 C610 129 698 171 764 263 C826 350 860 467 860 583 L860 583 Z M1128 1460 L1092 1274 C1053 1299 1011 1318 966 1331 C921 1344 872 1350 825 1350 C693 1350 588 1302 505 1207 C421 1111 361 969 324 780 C372 852 424 900 486 935 C548 970 615 987 696 987 C813 987 906 951 967 888 C1033 820 1063 722 1063 603 C1063 531 1052 452 1023 366 C995 283 959 219 915 164 C863 99 804 51 738 19 C671 -13 598 -29 516 -29 C392 -29 279 7 202 87 C131 161 92 275 92 433 C92 524 105 646 131 765 C157 885 196 1000 238 1091 C306 1238 392 1345 489 1413 C590 1484 711 1520 846 1520 C896 1520 949 1515 994 1505 C1035 1496 1086 1479 1128 1460 L1128 1460 Z " />
<glyph glyph-name="seven" unicode="7" horiz-adv-x="1233" d="M276 1493 L1212 1493 L1196 1399 L391 0 L174 0 L952 1323 L244 1323 L276 1493 L276 1493 Z " />
<glyph glyph-name="eight" unicode="8" horiz-adv-x="1233" d="M821 458 C821 540 799 599 755 643 C711 687 649 709 572 709 C477 709 398 676 338 611 C277 545 246 458 246 364 C246 285 268 232 313 190 C358 148 416 127 494 127 C590 127 672 159 731 219 C791 280 821 363 821 458 L821 458 Z M430 793 C354 820 304 857 269 904 C231 955 215 1015 215 1081 C215 1200 268 1312 362 1393 C461 1478 592 1520 726 1520 C841 1520 942 1489 1015 1430 C1084 1374 1126 1293 1126 1191 C1126 1098 1091 1008 1029 936 C965 862 874 807 772 782 C856 762 919 724 962 669 C1005 614 1026 541 1026 455 C1026 318 973 195 875 107 C779 21 643 -29 483 -29 C351 -29 238 5 159 73 C87 135 41 230 41 354 C41 469 81 566 146 639 C211 712 307 768 430 793 L430 793 Z M706 1364 C619 1364 549 1334 498 1284 C443 1230 416 1161 416 1081 C416 1012 436 961 475 923 C514 885 567 866 634 866 C717 866 786 895 842 953 C898 1011 926 1084 926 1162 C926 1228 906 1274 866 1310 C826 1346 773 1364 706 1364 L706 1364 Z " />
<glyph glyph-name="nine" unicode="9" horiz-adv-x="1233" d="M330 907 C330 831 345 766 388 722 C427 682 486 662 551 662 C651 662 737 708 799 788 C861 868 897 979 897 1097 C897 1189 875 1253 837 1295 C798 1338 739 1362 671 1362 C575 1362 489 1314 427 1228 C367 1145 330 1026 330 907 L330 907 Z M63 31 L98 217 C137 192 179 174 224 161 C269 148 317 141 366 141 C496 141 602 189 686 285 C769 380 829 522 866 711 C821 643 767 592 705 557 C638 519 567 504 492 504 C377 504 287 539 224 604 C159 671 127 767 127 889 C127 972 142 1053 167 1127 C193 1204 230 1272 274 1327 C323 1388 386 1440 452 1472 C518 1504 593 1520 676 1520 C810 1520 918 1478 990 1403 C1064 1325 1100 1212 1100 1059 C1100 967 1087 845 1061 726 C1035 606 998 496 954 401 C885 252 803 149 703 79 C596 4 475 -29 343 -29 C291 -29 244 -24 197 -14 C155 -5 110 9 63 31 L63 31 Z " />
<glyph glyph-name="colon" unicode="&#x3a;" horiz-adv-x="1233" d="M595 852 C592 909 613 960 657 1000 C693 1033 739 1054 790 1054 C836 1054 868 1037 890 1013 C911 990 925 956 925 913 C925 863 906 809 864 770 C824 733 772 716 728 716 C691 716 657 728 631 757 C606 785 597 818 595 852 L595 852 Z M482 143 C482 195 502 247 544 285 C579 317 627 338 677 338 C714 338 750 327 777 297 C798 274 812 240 812 194 C812 137 790 91 750 54 C713 20 666 0 617 0 C574 0 539 16 516 42 C492 69 482 106 482 143 L482 143 Z " />
<glyph glyph-name="semicolon" unicode="&#x3b;" horiz-adv-x="1233" d="M719 694 C674 694 638 710 612 741 C592 765 582 795 582 830 C582 841 583 853 585 864 C594 916 619 957 651 985 C684 1014 727 1032 772 1032 C816 1032 856 1015 881 986 C902 961 912 930 912 897 C912 886 911 875 909 864 C900 813 877 772 842 741 C809 712 767 694 719 694 L719 694 Z M383 -424 L353 -320 C527 -247 629 -135 658 14 C641 11 630 10 618 10 C576 10 539 23 514 49 C495 69 485 96 485 129 C484 138 485 149 487 160 C495 205 514 241 551 271 C587 300 629 312 670 312 C729 312 770 288 794 244 C810 215 818 175 818 140 C818 118 815 83 811 56 C794 -60 743 -162 672 -240 C602 -317 499 -385 383 -424 L383 -424 Z " />
<glyph glyph-name="less" unicode="&#x3c;" horiz-adv-x="1233" d="M1145 961 L295 641 L1145 324 L1145 141 L88 559 L88 725 L1145 1143 L1145 961 L1145 961 Z " />
<glyph glyph-name="equal" unicode="&#x3d;" horiz-adv-x="1233" d="M88 524 L1145 524 L1145 352 L88 352 L88 524 L88 524 Z M88 930 L1145 930 L1145 760 L88 760 L88 930 L88 930 Z " />
<glyph glyph-name="greater" unicode="&#x3e;" horiz-adv-x="1233" d="M88 961 L88 1143 L1145 725 L1145 559 L88 141 L88 324 L938 641 L88 961 L88 961 Z " />
<glyph glyph-name="question" unicode="&#x3f;" horiz-adv-x="1233" d="M421 83 C418 141 442 185 476 216 C508 245 552 264 596 264 C630 264 663 253 687 227 C707 205 718 171 718 134 C718 89 701 44 664 9 C634 -19 590 -40 542 -40 C508 -40 478 -30 454 -3 C431 23 423 52 421 83 L421 83 Z M719 472 L529 472 L546 583 C554 635 572 684 599 729 C627 775 667 819 738 880 L842 969 C897 1016 925 1045 944 1072 C966 1103 978 1132 983 1165 C985 1177 986 1188 986 1199 C986 1241 970 1280 940 1309 C904 1344 848 1364 775 1364 C721 1364 665 1353 602 1330 C539 1307 471 1272 398 1227 L428 1415 C493 1451 563 1481 631 1500 C698 1519 767 1528 833 1528 C954 1528 1050 1498 1116 1432 C1164 1384 1192 1319 1192 1250 C1192 1227 1189 1198 1186 1175 C1179 1126 1162 1081 1130 1034 C1095 983 1043 931 978 876 L876 790 C819 742 788 708 771 682 C756 659 743 626 739 599 L731 552 L719 472 L719 472 Z " />
<glyph glyph-name="at" unicode="&#x40;" horiz-adv-x="1233" d="M710 260 C795 260 870 302 922 366 C975 431 1008 521 1008 618 C1008 683 993 736 958 774 C925 810 879 829 820 829 C740 829 666 794 610 726 C555 659 524 567 524 474 C524 410 539 354 574 315 C607 279 653 260 710 260 L710 260 Z M1059 135 L915 135 L936 246 C902 204 858 170 814 149 C767 126 715 115 662 115 C568 115 500 150 448 207 C393 268 365 343 365 451 C365 587 409 716 497 821 C580 920 686 977 810 977 C867 977 917 965 960 941 C1003 917 1034 885 1053 844 L1061 887 C1064 903 1068 931 1070 948 C1072 965 1073 977 1073 993 C1073 1071 1049 1138 1000 1185 C951 1232 885 1255 796 1255 C700 1255 610 1228 524 1177 C440 1127 363 1055 297 957 C244 878 199 783 169 682 C141 587 125 480 125 377 C125 208 168 68 253 -29 C337 -125 460 -176 603 -176 C643 -176 688 -172 725 -164 C750 -159 797 -146 852 -125 L897 -256 C853 -277 807 -292 760 -302 C713 -312 660 -317 607 -317 C407 -317 250 -245 144 -129 C29 -3 -29 176 -29 380 C-29 508 -6 644 43 781 C86 901 147 1017 238 1124 C313 1212 395 1278 495 1326 C593 1373 696 1397 799 1397 C926 1397 1029 1361 1102 1294 C1178 1224 1214 1124 1214 1013 C1214 994 1213 969 1210 944 C1207 918 1202 889 1196 858 L1059 135 L1059 135 Z " />
<glyph glyph-name="A" unicode="A" horiz-adv-x="1233" d="M735 1325 L371 551 L801 551 L735 1325 L735 1325 Z M639 1493 L885 1493 L1051 0 L850 0 L815 389 L295 389 L111 0 L-106 0 L639 1493 L639 1493 Z " />
<glyph glyph-name="B" unicode="B" horiz-adv-x="1233" d="M365 713 L258 166 L506 166 C629 166 723 195 788 253 C853 311 885 399 885 496 C885 579 862 628 817 662 C772 696 701 713 606 713 L365 713 L365 713 Z M483 1327 L395 877 L639 877 C740 877 819 901 877 950 C934 998 963 1065 963 1148 C963 1213 945 1257 908 1285 C871 1313 810 1327 727 1327 L483 1327 L483 1327 Z M313 1493 L756 1493 C891 1493 994 1467 1063 1414 C1132 1361 1167 1284 1167 1178 C1167 1078 1136 992 1075 923 C1014 854 931 812 827 799 C910 784 974 750 1019 697 C1064 644 1085 577 1085 486 C1085 342 1032 217 926 130 C821 44 670 0 475 0 L23 0 L313 1493 L313 1493 Z " />
<glyph glyph-name="C" unicode="C" horiz-adv-x="1233" d="M983 260 L944 53 C888 26 832 5 775 -9 C725 -21 660 -29 597 -29 C440 -29 320 21 241 103 C159 188 115 315 115 492 C115 623 139 770 185 913 C233 1062 293 1172 369 1266 C443 1357 520 1417 606 1458 C692 1499 788 1520 893 1520 C954 1520 1005 1513 1058 1499 C1111 1485 1162 1465 1212 1438 L1171 1231 C1128 1273 1083 1304 1036 1325 C989 1346 938 1356 884 1356 C822 1356 763 1343 709 1316 C655 1289 604 1247 557 1192 C489 1112 432 1004 390 878 C346 744 326 614 326 503 C326 377 352 286 404 226 C449 174 522 135 628 135 C685 135 745 146 805 167 C865 188 924 219 983 260 L983 260 Z " />
<glyph glyph-name="D" unicode="D" horiz-adv-x="1233" d="M227 166 L324 166 C447 166 546 187 621 229 C697 271 756 338 801 432 C834 501 866 597 890 707 C913 813 924 913 924 993 C924 1119 897 1200 842 1251 C787 1302 696 1327 567 1327 L453 1327 L227 166 L227 166 Z M283 1493 L586 1493 C768 1493 904 1452 995 1369 C1087 1285 1130 1159 1130 986 C1130 888 1116 774 1088 659 C1059 540 1018 434 975 354 C905 224 816 135 716 82 C612 27 472 0 295 0 L-8 0 L283 1493 L283 1493 Z " />
<glyph glyph-name="E" unicode="E" horiz-adv-x="1233" d="M344 1493 L1229 1493 L1196 1323 L512 1323 L426 881 L1079 881 L1047 711 L393 711 L289 170 L991 170 L958 0 L53 0 L344 1493 L344 1493 Z " />
<glyph glyph-name="F" unicode="F" horiz-adv-x="1233" d="M383 1493 L1262 1493 L1229 1323 L553 1323 L467 883 L1079 883 L1047 713 L434 713 L295 0 L92 0 L383 1493 L383 1493 Z " />
<glyph glyph-name="G" unicode="G" horiz-adv-x="1233" d="M1102 766 L969 96 C911 55 850 25 779 3 C711 -18 642 -29 564 -29 C402 -29 283 18 202 106 C119 197 78 328 78 488 C78 550 84 613 95 681 C105 742 123 825 143 893 C165 968 194 1042 225 1105 C258 1171 293 1223 328 1267 C394 1349 476 1415 566 1458 C652 1499 748 1520 854 1520 C915 1520 967 1513 1020 1499 C1073 1485 1125 1465 1176 1438 L1135 1231 C1089 1276 1040 1307 999 1325 C951 1346 900 1356 846 1356 C780 1356 716 1341 662 1315 C606 1288 551 1244 508 1192 C478 1156 450 1112 425 1062 C397 1006 375 948 356 887 C333 813 316 738 305 673 C293 604 287 549 287 494 C287 378 313 290 366 228 C419 166 492 135 592 135 C640 135 677 142 712 154 C750 167 778 184 803 207 L879 600 L662 600 L692 766 L1102 766 L1102 766 Z " />
<glyph glyph-name="H" unicode="H" horiz-adv-x="1233" d="M283 1493 L485 1493 L367 881 L920 881 L1038 1493 L1241 1493 L950 0 L748 0 L887 711 L332 711 L195 0 L-8 0 L283 1493 L283 1493 Z " />
<glyph glyph-name="I" unicode="I" horiz-adv-x="1233" d="M346 1493 L1176 1493 L1143 1323 L829 1323 L606 170 L920 170 L887 0 L57 0 L90 170 L403 170 L627 1323 L313 1323 L346 1493 L346 1493 Z " />
<glyph glyph-name="J" unicode="J" horiz-adv-x="1233" d="M-25 61 L20 297 C71 241 124 204 184 177 C242 151 303 135 380 135 C474 135 545 159 592 208 C634 252 673 337 702 487 L866 1323 L485 1323 L518 1493 L1102 1493 L905 487 C866 287 810 162 729 86 C646 8 531 -29 375 -29 C303 -29 241 -21 174 -6 C104 10 41 32 -25 61 L-25 61 Z " />
<glyph glyph-name="K" unicode="K" horiz-adv-x="1233" d="M283 1493 L485 1493 L358 846 L1100 1493 L1354 1493 L651 874 L1079 0 L860 0 L500 741 L307 573 L195 0 L-8 0 L283 1493 L283 1493 Z " />
<glyph glyph-name="L" unicode="L" horiz-adv-x="1233" d="M369 1493 L571 1493 L313 170 L1034 170 L1001 0 L78 0 L369 1493 L369 1493 Z " />
<glyph glyph-name="M" unicode="M" horiz-adv-x="1233" d="M229 1493 L498 1493 L608 737 L1022 1493 L1292 1493 L1001 0 L815 0 L1073 1327 L639 532 L498 532 L383 1327 L127 0 L-59 0 L229 1493 L229 1493 Z " />
<glyph glyph-name="N" unicode="N" horiz-adv-x="1233" d="M285 1493 L541 1493 L805 264 L1044 1493 L1239 1493 L948 0 L692 0 L428 1229 L188 0 L-6 0 L285 1493 L285 1493 Z " />
<glyph glyph-name="O" unicode="O" horiz-adv-x="1233" d="M498 135 C555 135 611 151 660 186 C715 225 751 280 778 332 C829 430 871 563 898 683 C929 820 944 960 944 1067 C944 1180 927 1245 892 1289 C858 1332 804 1356 734 1356 C676 1356 620 1340 572 1305 C525 1271 486 1219 455 1160 C409 1073 364 944 333 808 C303 675 287 540 287 429 C287 311 305 248 340 203 C378 155 435 135 498 135 L498 135 Z M1151 1024 C1151 945 1144 867 1129 781 C1114 695 1092 607 1063 516 C1042 450 1024 402 1001 351 C983 312 956 261 928 219 C876 141 806 74 731 32 C658 -9 573 -29 478 -29 C342 -29 244 12 179 94 C114 176 82 302 82 473 C82 558 90 629 104 712 C118 794 136 875 168 975 C189 1041 208 1091 231 1141 C256 1195 283 1242 303 1272 C352 1346 423 1417 501 1460 C572 1500 657 1520 753 1520 C885 1520 986 1483 1054 1397 C1119 1315 1151 1192 1151 1024 L1151 1024 Z " />
<glyph glyph-name="P" unicode="P" horiz-adv-x="1233" d="M512 1327 L403 766 L637 766 C747 766 835 798 901 862 C966 925 999 1013 999 1111 C999 1181 982 1239 937 1276 C896 1310 832 1327 745 1327 L512 1327 L512 1327 Z M342 1493 L782 1493 C918 1493 1026 1461 1097 1401 C1168 1341 1204 1252 1204 1126 C1204 967 1147 835 1044 743 C941 651 796 600 604 600 L371 600 L254 0 L51 0 L342 1493 L342 1493 Z " />
<glyph glyph-name="Q" unicode="Q" horiz-adv-x="1233" d="M504 -27 L494 -27 C347 -27 247 13 181 93 C115 173 82 294 82 472 C82 559 90 629 104 712 C118 794 136 875 168 975 C189 1041 208 1091 231 1141 C256 1195 283 1242 303 1272 C352 1346 423 1417 501 1460 C575 1501 658 1520 753 1520 C888 1520 988 1481 1054 1397 C1117 1317 1151 1195 1151 1029 C1151 965 1146 901 1137 839 C1129 783 1114 707 1094 629 C1076 559 1052 481 1032 427 C1011 370 988 319 963 274 C933 220 890 160 839 111 C800 73 747 33 690 10 L844 -178 L690 -270 L504 -27 L504 -27 Z M498 135 C555 135 611 151 660 186 C715 225 751 280 778 332 C829 430 871 563 898 683 C929 820 944 960 944 1067 C944 1180 927 1245 892 1289 C858 1332 804 1356 734 1356 C676 1356 620 1340 572 1305 C525 1271 486 1219 455 1160 C409 1073 364 944 333 808 C303 675 287 540 287 429 C287 311 305 248 340 203 C378 155 435 135 498 135 L498 135 Z " />
<glyph glyph-name="R" unicode="R" horiz-adv-x="1233" d="M766 705 C811 697 854 673 882 638 C909 604 945 524 979 408 L1100 0 L899 0 L793 377 C764 480 732 548 695 582 C658 616 599 631 530 631 L338 631 L215 0 L12 0 L301 1493 L717 1493 C855 1493 962 1463 1038 1404 C1116 1343 1151 1257 1151 1144 C1151 1033 1117 928 1048 848 C981 770 887 720 766 705 L766 705 Z M473 1327 L371 797 L590 797 C699 797 786 826 851 883 C916 940 948 1015 948 1109 C948 1185 927 1240 885 1275 C843 1310 777 1327 686 1327 L473 1327 L473 1327 Z " />
<glyph glyph-name="S" unicode="S" horiz-adv-x="1233" d="M1147 1442 L1108 1237 C1054 1276 998 1306 940 1326 C882 1346 823 1356 759 1356 C646 1356 554 1325 490 1274 C426 1223 387 1150 387 1068 C387 1016 403 979 436 950 C469 921 526 894 614 866 L735 827 C847 791 921 752 974 694 C1024 638 1049 571 1049 473 C1049 327 994 201 883 109 C772 17 618 -29 435 -29 C358 -29 293 -21 226 -6 C159 9 92 31 25 61 L66 270 C131 224 198 190 265 168 C332 146 404 135 475 135 C589 135 676 164 745 223 C814 282 848 357 848 444 C848 502 833 543 804 573 C770 608 714 631 627 659 L526 692 C419 727 327 766 269 824 C220 873 195 934 195 1025 C195 1159 249 1286 360 1380 C470 1473 619 1520 783 1520 C846 1520 903 1513 962 1500 C1016 1488 1077 1470 1147 1442 L1147 1442 Z " />
<glyph glyph-name="T" unicode="T" horiz-adv-x="1233" d="M193 1493 L1333 1493 L1300 1323 L831 1323 L575 0 L371 0 L629 1323 L160 1323 L193 1493 L193 1493 Z " />
<glyph glyph-name="U" unicode="U" horiz-adv-x="1233" d="M115 573 L293 1493 L496 1493 L317 573 C316 564 313 551 309 532 C289 434 279 353 279 313 C279 256 300 210 334 181 C370 150 424 135 501 135 C560 135 605 144 649 165 C693 186 728 213 756 254 C770 275 784 303 801 361 C816 413 832 481 850 573 L1028 1493 L1231 1493 L1053 573 C1019 397 992 316 964 253 C931 181 891 129 838 86 C791 48 735 20 676 1 C615 -19 550 -29 477 -29 C351 -29 253 1 184 61 C115 121 80 207 80 315 C80 347 83 372 89 417 C94 455 101 503 115 573 L115 573 Z " />
<glyph glyph-name="V" unicode="V" horiz-adv-x="1233" d="M510 190 L1108 1493 L1323 1493 L604 0 L346 0 L199 1493 L397 1493 L510 190 L510 190 Z " />
<glyph glyph-name="W" unicode="W" horiz-adv-x="1233" d="M145 1493 L336 1493 L246 283 L575 1083 L786 1083 L801 281 L1178 1493 L1376 1493 L866 0 L672 0 L641 870 L270 0 L82 0 L145 1493 L145 1493 Z " />
<glyph glyph-name="X" unicode="X" horiz-adv-x="1233" d="M242 1493 L442 1493 L666 961 L1106 1493 L1337 1493 L741 774 L1065 0 L864 0 L610 612 L104 0 L-127 0 L530 797 L242 1493 L242 1493 Z " />
<glyph glyph-name="Y" unicode="Y" horiz-adv-x="1233" d="M195 1493 L397 1493 L633 842 L1130 1493 L1348 1493 L713 670 L584 0 L377 0 L508 670 L195 1493 L195 1493 Z " />
<glyph glyph-name="Z" unicode="Z" horiz-adv-x="1233" d="M305 1493 L1274 1493 L1245 1339 L266 170 L1040 170 L1006 0 L-6 0 L23 154 L999 1323 L272 1323 L305 1493 L305 1493 Z " />
<glyph glyph-name="bracketleft" unicode="&#x5b;" horiz-adv-x="1233" d="M722 1636 L1146 1636 L1123 1493 L883 1493 L627 -127 L867 -127 L844 -270 L420 -270 L722 1636 L722 1636 Z " />
<glyph glyph-name="backslash" unicode="&#x5c;" horiz-adv-x="1233" d="M725 -190 L555 -190 L356 1493 L526 1493 L725 -190 L725 -190 Z " />
<glyph glyph-name="bracketright" unicode="&#x5d;" horiz-adv-x="1233" d="M1029 1635 L727 -270 L303 -270 L326 -127 L566 -127 L822 1492 L582 1492 L605 1635 L1029 1635 L1029 1635 Z " />
<glyph glyph-name="asciicircum" unicode="&#x5e;" horiz-adv-x="1233" d="M705 1493 L1161 936 L983 936 L616 1331 L250 936 L72 936 L528 1493 L705 1493 L705 1493 Z " />
<glyph glyph-name="underscore" unicode="&#x5f;" horiz-adv-x="1233" d="M1024 -403 L1024 -483 L0 -483 L0 -403 L1024 -403 L1024 -403 Z " />
<glyph glyph-name="grave" unicode="&#x60;" horiz-adv-x="1233" d="M651 1638 L848 1262 L705 1262 L453 1638 L651 1638 L651 1638 Z " />
<glyph glyph-name="a" unicode="a" horiz-adv-x="1233" d="M864 563 L692 563 C613 563 554 561 515 556 C476 551 440 541 414 530 C380 516 338 492 305 442 C278 401 264 355 264 307 C264 244 288 201 316 174 C350 142 396 125 460 125 C551 125 639 160 711 231 C782 302 833 405 856 522 L864 563 L864 563 Z M1063 639 L938 0 L754 0 L786 166 C738 103 681 55 616 22 C550 -12 483 -29 407 -29 C309 -29 225 -1 164 54 C101 111 72 189 72 280 C72 400 123 511 226 590 C327 667 471 707 645 707 L891 707 L903 768 C904 773 905 782 906 787 C907 794 907 804 907 806 C907 870 887 916 845 946 C806 974 744 991 663 991 C608 991 545 983 479 966 C412 949 342 923 268 889 L303 1069 C375 1095 443 1115 508 1128 C573 1141 636 1147 693 1147 C815 1147 916 1120 985 1065 C1050 1013 1087 935 1087 839 C1087 816 1085 789 1081 754 C1076 711 1070 676 1063 639 L1063 639 Z " />
<glyph glyph-name="b" unicode="b" horiz-adv-x="1233" d="M540 127 C597 127 647 143 691 172 C738 203 773 245 805 304 C838 365 864 436 883 513 C902 590 911 667 911 733 C911 815 897 883 861 929 C827 972 775 993 710 993 C652 993 600 976 557 947 C514 918 472 872 438 812 C403 751 379 684 361 611 C342 533 332 454 332 389 C332 306 348 241 385 194 C425 144 482 127 540 127 L540 127 Z M547 1556 L434 977 C475 1033 523 1075 578 1104 C633 1133 695 1147 763 1147 C868 1147 957 1113 1018 1044 C1077 977 1108 878 1108 748 C1108 660 1094 561 1067 465 C1042 376 1004 287 954 213 C903 137 842 77 770 35 C696 -8 616 -29 535 -29 C469 -29 416 -15 371 14 C326 43 293 85 270 141 L244 0 L59 0 L362 1556 L547 1556 L547 1556 Z " />
<glyph glyph-name="c" unicode="c" horiz-adv-x="1233" d="M979 252 L940 51 C883 21 837 5 784 -8 C728 -22 669 -29 606 -29 C460 -29 348 9 271 84 C194 159 156 271 156 412 C156 511 175 617 209 709 C243 801 296 887 354 950 C418 1020 492 1068 559 1098 C633 1131 715 1147 804 1147 C863 1147 920 1140 975 1126 C1025 1113 1084 1090 1137 1061 L1100 879 C1056 918 1011 946 964 964 C917 982 866 991 810 991 C737 991 670 976 614 947 C558 918 509 872 469 813 C435 763 403 697 382 626 C361 555 350 485 350 418 C350 326 371 251 418 200 C461 154 527 127 625 127 C685 127 749 137 808 158 C870 180 928 213 979 252 L979 252 Z " />
<glyph glyph-name="d" unicode="d" horiz-adv-x="1233" d="M682 991 C626 991 572 975 531 948 C487 919 447 872 417 817 C389 766 359 685 342 613 C324 538 315 455 315 388 C315 296 332 234 366 191 C400 148 451 127 518 127 C575 127 626 142 672 172 C719 203 755 246 788 305 C821 364 846 430 865 508 C883 582 893 661 893 728 C893 817 875 880 840 924 C807 965 754 991 682 991 L682 991 Z M954 977 L1069 1556 L1253 1556 L950 0 L766 0 L793 141 C750 85 701 43 646 14 C591 -15 530 -29 462 -29 C349 -29 268 9 210 76 C149 146 119 241 119 374 C119 461 132 560 159 657 C187 758 225 841 268 909 C319 989 376 1046 445 1087 C511 1126 585 1147 668 1147 C736 1147 791 1133 840 1104 C890 1074 927 1032 954 977 L954 977 Z " />
<glyph glyph-name="e" unicode="e" horiz-adv-x="1233" d="M332 659 L938 659 C942 677 945 692 946 704 C947 715 948 725 948 741 C948 816 926 879 883 924 C840 969 777 991 706 991 C627 991 547 964 477 901 C416 846 361 763 332 659 L332 659 Z M997 240 L961 57 C883 25 825 8 756 -7 C690 -21 630 -29 558 -29 C399 -29 287 11 213 83 C137 157 98 267 98 410 C98 512 118 614 158 714 C198 814 253 900 324 973 C383 1034 443 1075 508 1104 C575 1134 643 1149 719 1149 C845 1149 945 1107 1015 1035 C1088 960 1126 853 1126 731 C1126 703 1124 678 1121 645 C1117 605 1112 568 1104 516 L297 516 C293 495 290 475 288 458 C286 441 285 426 285 409 C285 320 311 249 362 200 C413 151 489 127 584 127 C646 127 709 137 779 156 C848 175 921 203 997 240 L997 240 Z " />
<glyph glyph-name="f" unicode="f" horiz-adv-x="1233" d="M1245 1556 L1214 1403 L1006 1403 C943 1403 895 1389 863 1362 C828 1332 809 1284 795 1219 L774 1120 L1159 1120 L1133 977 L748 977 L557 0 L373 0 L563 977 L264 977 L293 1120 L590 1120 L606 1198 C633 1329 673 1416 741 1474 C807 1530 900 1556 1024 1556 L1245 1556 L1245 1556 Z " />
<glyph glyph-name="g" unicode="g" horiz-adv-x="1233" d="M512 145 C563 145 612 159 658 190 C701 219 739 263 770 319 C804 380 832 459 847 521 C865 594 874 674 874 733 C874 817 856 880 818 925 C781 969 727 991 664 991 C553 991 464 924 402 823 C336 716 297 565 297 419 C297 312 318 254 353 213 C391 169 446 145 512 145 L512 145 Z M1145 1116 L942 72 C907 -108 845 -240 756 -320 C667 -400 539 -440 376 -440 C319 -440 267 -435 214 -426 C161 -417 109 -403 59 -385 L96 -203 C147 -233 195 -255 248 -270 C300 -285 353 -293 406 -293 C505 -293 582 -266 637 -213 C692 -160 730 -74 756 53 L780 170 C741 112 693 68 635 38 C576 7 510 -8 443 -8 C338 -8 251 29 192 99 C131 171 102 274 102 398 C102 481 115 576 142 668 C170 763 208 842 254 911 C307 990 363 1044 432 1085 C501 1126 573 1147 648 1147 C714 1147 773 1131 824 1099 C870 1070 910 1025 934 965 L961 1116 L1145 1116 L1145 1116 Z " />
<glyph glyph-name="h" unicode="h" horiz-adv-x="1233" d="M1075 694 L940 0 L756 0 L891 695 C895 707 892 701 894 709 C904 764 909 782 909 816 C909 874 894 915 863 944 C832 973 787 987 729 987 C644 987 572 956 513 894 C454 832 413 745 391 633 L268 0 L84 0 L387 1556 L571 1556 L455 952 C505 1017 559 1065 618 1098 C675 1130 733 1147 807 1147 C894 1147 968 1123 1019 1075 C1069 1028 1096 957 1096 877 C1096 855 1094 820 1091 793 C1089 775 1083 734 1075 694 L1075 694 Z " />
<glyph glyph-name="i" unicode="i" horiz-adv-x="1233" d="M679 1556 L863 1556 L818 1323 L634 1323 L679 1556 L679 1556 Z M772 1120 L610 408 C605 385 602 362 600 346 C597 325 596 316 596 302 C596 250 611 216 641 192 C670 168 715 156 776 156 L987 156 L956 0 L749 0 C634 0 548 21 492 64 C435 107 407 171 407 256 C407 279 409 299 412 326 C416 361 420 386 426 412 L559 976 L243 976 L272 1120 L772 1120 L772 1120 Z " />
<glyph glyph-name="j" unicode="j" horiz-adv-x="1233" d="M498 -20 L690 977 L373 977 L401 1120 L903 1120 L682 -20 C657 -149 613 -260 540 -330 C473 -394 379 -426 258 -426 L4 -426 L35 -270 L268 -270 C328 -270 381 -251 418 -211 C455 -171 481 -107 498 -20 L498 -20 Z M803 1556 L987 1556 L942 1323 L758 1323 L803 1556 L803 1556 Z " />
<glyph glyph-name="k" unicode="k" horiz-adv-x="1233" d="M393 1556 L584 1556 L414 682 L963 1120 L1204 1120 L684 698 L1057 0 L844 0 L537 582 L369 449 L281 0 L90 0 L393 1556 L393 1556 Z " />
<glyph glyph-name="l" unicode="l" horiz-adv-x="1233" d="M840 1567 L600 408 C595 385 592 366 590 346 C587 325 586 316 586 302 C586 250 601 216 631 192 C660 169 701 156 766 156 L977 156 L946 0 L739 0 C624 0 538 21 482 64 C428 105 397 168 397 257 C397 280 399 299 402 326 C405 352 410 383 416 412 L627 1423 L311 1423 L340 1567 L840 1567 L840 1567 Z " />
<glyph glyph-name="m" unicode="m" horiz-adv-x="1233" d="M748 1006 C775 1053 811 1088 850 1111 C891 1135 940 1147 987 1147 C1042 1147 1092 1130 1127 1094 C1167 1052 1178 992 1178 941 C1178 914 1175 869 1169 824 C1164 785 1155 730 1139 649 L1012 0 L844 0 L969 641 C977 682 994 773 997 792 C1003 827 1006 861 1006 881 C1006 913 998 946 983 965 C968 984 944 993 909 993 C855 993 820 971 793 929 C761 879 736 790 707 641 L582 0 L414 0 L539 641 C546 676 563 765 567 795 C571 822 575 857 575 880 C575 912 567 945 552 964 C537 983 511 993 478 993 C431 993 390 972 365 934 C338 893 310 801 279 641 L154 0 L-14 0 L203 1120 L371 1120 L352 1024 C381 1064 415 1095 452 1116 C489 1137 528 1147 572 1147 C621 1147 661 1135 692 1110 C723 1085 741 1050 748 1006 L748 1006 Z " />
<glyph glyph-name="n" unicode="n" horiz-adv-x="1233" d="M1075 694 L940 0 L756 0 L891 695 C895 707 892 701 894 709 C904 764 909 782 909 816 C909 874 894 915 863 944 C832 973 787 987 729 987 C644 987 572 956 513 894 C454 832 413 745 391 633 L268 0 L84 0 L303 1120 L487 1120 L455 952 C505 1017 559 1065 618 1098 C675 1130 733 1147 807 1147 C894 1147 968 1123 1019 1075 C1069 1028 1096 957 1096 877 C1096 855 1094 820 1091 793 C1089 775 1083 734 1075 694 L1075 694 Z " />
<glyph glyph-name="o" unicode="o" horiz-adv-x="1233" d="M702 991 C583 991 489 927 422 820 C353 709 313 558 313 402 C313 307 328 237 369 191 C408 148 467 127 533 127 C646 127 743 188 812 298 C883 411 920 566 920 718 C920 814 905 881 864 927 C824 972 767 991 702 991 L702 991 Z M717 1147 C843 1147 943 1111 1012 1040 C1080 969 1114 865 1114 726 C1114 636 1100 544 1073 453 C1043 354 1002 272 958 207 C903 126 841 69 766 30 C691 -9 603 -29 509 -29 C382 -29 285 8 218 80 C156 147 117 252 117 396 C117 483 131 573 158 663 C185 753 224 837 274 910 C329 990 390 1047 464 1087 C539 1127 623 1147 717 1147 L717 1147 Z " />
<glyph glyph-name="p" unicode="p" horiz-adv-x="1233" d="M293 141 L182 -426 L-2 -426 L299 1120 L483 1120 L455 977 C496 1032 545 1074 602 1103 C659 1132 720 1147 788 1147 C889 1147 979 1114 1040 1043 C1099 974 1128 872 1128 744 C1128 659 1115 561 1089 465 C1061 363 1021 277 979 211 C928 131 870 73 802 32 C734 -9 659 -29 578 -29 C511 -29 455 -15 408 13 C361 41 322 84 293 141 L293 141 Z M567 127 C624 127 676 144 718 172 C763 202 798 244 829 301 C863 364 888 436 906 509 C925 586 934 665 934 731 C934 828 915 889 883 928 C847 972 793 991 728 991 C671 991 622 976 576 946 C527 914 492 872 459 813 C425 752 399 681 382 611 C363 535 354 454 354 392 C354 301 373 237 409 194 C446 150 501 127 567 127 L567 127 Z " />
<glyph glyph-name="q" unicode="q" horiz-adv-x="1233" d="M664 -426 L774 141 C733 85 686 43 631 14 C576 -15 514 -29 446 -29 C339 -29 251 5 190 73 C132 138 98 237 98 372 C98 458 112 555 139 652 C166 749 204 834 252 909 C304 990 362 1047 432 1087 C502 1127 579 1147 663 1147 C738 1147 793 1131 834 1105 C878 1077 913 1034 936 977 L963 1120 L1147 1120 L848 -426 L664 -426 L664 -426 Z M667 991 C612 991 560 976 515 947 C468 917 432 874 401 816 C367 753 342 680 324 607 C305 530 295 454 295 386 C295 297 312 234 346 191 C380 148 430 127 496 127 C553 127 605 143 650 173 C698 205 739 254 768 305 C798 357 825 426 845 508 C864 586 874 665 874 731 C874 815 858 881 821 926 C786 969 733 991 667 991 L667 991 Z " />
<glyph glyph-name="r" unicode="r" horiz-adv-x="1233" d="M1219 1075 L1184 889 C1154 918 1117 941 1080 955 C1040 970 994 977 947 977 C838 977 740 939 663 864 C586 789 533 679 508 549 L401 0 L217 0 L434 1120 L618 1120 L578 901 C623 981 681 1042 752 1084 C823 1126 904 1147 991 1147 C1038 1147 1085 1141 1122 1129 C1155 1118 1191 1099 1219 1075 L1219 1075 Z " />
<glyph glyph-name="s" unicode="s" horiz-adv-x="1233" d="M1077 1081 L1042 901 C995 931 940 956 893 970 C843 985 787 993 731 993 C649 993 575 976 525 942 C472 906 449 854 449 808 C449 713 546 681 670 645 C690 639 685 641 692 639 L764 621 C832 604 896 573 939 529 C978 488 997 439 997 369 C997 256 946 154 853 82 C757 8 623 -29 477 -29 C414 -29 352 -22 302 -12 C242 0 179 19 115 41 L152 231 C215 196 276 169 335 152 C395 134 449 125 507 125 C594 125 667 145 723 185 C779 225 807 277 807 329 C807 399 757 447 611 487 C599 490 590 492 583 494 L516 512 C430 535 368 565 327 608 C286 651 266 709 266 780 C266 885 310 980 397 1047 C479 1110 600 1147 755 1147 C812 1147 869 1142 923 1131 C977 1120 1028 1103 1077 1081 L1077 1081 Z " />
<glyph glyph-name="t" unicode="t" horiz-adv-x="1233" d="M768 1438 L707 1120 L1124 1120 L1096 977 L678 977 L559 369 C557 359 552 334 550 314 C548 297 547 280 547 267 C547 221 560 191 586 174 C612 156 659 147 727 147 L934 147 L905 0 L682 0 C564 0 487 21 437 56 C384 93 358 148 358 228 C358 244 359 265 362 288 C363 297 368 335 375 369 L494 977 L195 977 L223 1120 L522 1120 L584 1438 L768 1438 L768 1438 Z " />
<glyph glyph-name="u" unicode="u" horiz-adv-x="1233" d="M143 426 L276 1120 L461 1120 L326 426 C321 399 317 370 315 355 C312 332 311 311 311 298 C311 249 325 205 358 175 C389 147 435 133 489 133 C571 133 645 164 704 225 C761 285 803 374 825 487 L948 1120 L1133 1120 L915 0 L731 0 L764 168 C715 103 661 54 602 22 C540 -12 477 -27 409 -27 C323 -27 252 -3 201 46 C149 96 125 167 125 248 C125 272 127 301 130 332 C134 372 137 393 143 426 L143 426 Z " />
<glyph glyph-name="v" unicode="v" horiz-adv-x="1233" d="M182 1120 L360 1120 L514 164 L1016 1120 L1214 1120 L600 0 L362 0 L182 1120 L182 1120 Z " />
<glyph glyph-name="w" unicode="w" horiz-adv-x="1233" d="M92 1120 L268 1120 L283 215 L551 793 L713 793 L762 215 L1124 1120 L1315 1120 L829 0 L664 0 L604 623 L307 0 L141 0 L92 1120 L92 1120 Z " />
<glyph glyph-name="x" unicode="x" horiz-adv-x="1233" d="M1208 1120 L696 573 L1014 0 L817 0 L573 444 L156 0 L-70 0 L494 596 L201 1120 L397 1120 L614 725 L983 1120 L1208 1120 L1208 1120 Z " />
<glyph glyph-name="y" unicode="y" horiz-adv-x="1233" d="M1225 1120 L786 360 C754 305 687 188 621 72 C512 -119 452 -223 412 -276 C375 -325 329 -364 280 -389 C230 -414 173 -426 109 -426 L-39 -426 L-10 -272 L98 -272 C155 -272 199 -257 238 -225 C280 -191 319 -138 356 -66 L399 18 L182 1120 L365 1120 L537 258 L1020 1120 L1225 1120 L1225 1120 Z " />
<glyph glyph-name="z" unicode="z" horiz-adv-x="1233" d="M319 1120 L1133 1120 L1100 952 L315 147 L944 147 L915 0 L78 0 L111 168 L895 973 L291 973 L319 1120 L319 1120 Z " />
<glyph glyph-name="braceleft" unicode="&#x7b;" horiz-adv-x="1233" d="M1176 1556 L1147 1413 L1069 1413 L1062 1413 C970 1413 917 1401 886 1374 C853 1345 828 1279 809 1184 L758 932 C738 833 709 753 665 700 C625 652 568 621 494 606 C543 594 580 571 607 537 C634 502 647 460 647 410 C648 393 648 386 644 353 C639 310 639 315 633 283 L586 39 C581 13 579 -3 578 -20 C576 -46 576 -62 575 -70 C575 -112 589 -143 618 -162 C647 -181 693 -190 758 -190 L836 -190 L807 -334 L735 -334 C610 -334 521 -316 467 -280 C412 -243 385 -184 385 -102 L385 -89 C384 -70 385 -60 388 -37 C390 -21 395 16 399 34 L444 270 C445 272 446 274 447 282 C453 315 457 339 457 372 C457 437 441 475 408 500 C375 525 321 537 246 537 L154 537 L183 684 L274 684 C371 684 440 702 482 739 C523 775 554 843 575 944 L625 1188 C642 1271 662 1335 686 1382 C710 1430 739 1466 776 1493 C805 1514 840 1531 893 1542 C938 1551 1003 1556 1094 1556 L1176 1556 L1176 1556 Z " />
<glyph glyph-name="bar" unicode="&#x7c;" horiz-adv-x="1233" d="M702 1565 L702 -483 L530 -483 L530 1565 L702 1565 L702 1565 Z " />
<glyph glyph-name="braceright" unicode="&#x7d;" horiz-adv-x="1233" d="M-14 -334 L14 -190 L92 -190 C183 -190 244 -177 275 -150 C304 -125 330 -70 352 39 L403 291 C423 390 451 470 496 524 C536 572 593 603 668 616 C619 629 581 652 554 686 C527 720 514 759 514 815 C514 831 515 846 518 870 C522 907 522 908 528 940 L575 1183 C577 1194 584 1240 584 1243 C585 1255 586 1281 586 1292 C586 1333 572 1366 544 1385 C515 1404 468 1413 403 1413 L326 1413 L352 1556 L426 1556 C559 1556 643 1536 695 1502 C747 1468 776 1415 776 1318 C776 1300 775 1288 772 1259 C769 1226 768 1219 762 1188 L717 952 C716 945 715 941 715 940 C708 907 705 875 705 849 C705 788 721 748 754 723 C787 698 840 686 915 686 L1007 686 L978 539 L887 539 C792 539 723 521 680 484 C638 448 604 382 584 279 L537 35 C521 -48 499 -113 475 -160 C451 -207 421 -244 385 -270 C352 -294 315 -309 269 -319 C223 -329 156 -334 68 -334 L-14 -334 L-14 -334 Z " />
<glyph glyph-name="asciitilde" unicode="&#x7e;" horiz-adv-x="1233" d="M1145 780 L1145 606 C1095 567 1048 539 999 520 C951 501 900 492 850 492 C775 492 718 512 645 543 C615 556 616 555 612 557 C561 579 518 594 484 602 C449 610 415 614 382 614 C328 614 275 603 232 585 C191 568 139 536 88 492 L88 666 C140 706 190 735 239 753 C288 771 340 780 395 780 C432 780 465 776 497 769 C524 763 576 748 623 727 C630 724 641 719 655 712 C732 675 802 657 865 657 C912 657 956 667 1003 688 C1048 708 1096 739 1145 780 L1145 780 Z " />
<glyph glyph-name="nonbreakingspace" unicode="&#xa0;" horiz-adv-x="1233" d="" />
<glyph glyph-name="exclamdown" unicode="&#xa1;" horiz-adv-x="1233" d="M834 1239 L631 1239 L680 1493 L883 1493 L834 1239 L834 1239 Z M592 0 L389 0 L518 655 L606 1012 L768 1012 L719 655 L592 0 L592 0 Z " />
<glyph glyph-name="cent" unicode="&#xa2;" horiz-adv-x="1233" d="M1087 1077 L1055 905 C1022 930 986 950 945 965 C904 980 859 989 811 993 L641 123 C684 126 729 136 776 151 C822 166 870 186 920 213 L887 41 C838 20 769 -1 744 -7 C704 -17 654 -24 612 -27 L557 -313 L455 -313 L510 -27 C388 -14 293 33 225 114 C157 195 123 298 123 432 C123 552 150 670 204 778 C260 891 334 972 426 1036 C475 1070 522 1094 574 1112 C626 1130 679 1141 737 1145 L793 1432 L895 1432 L840 1145 C880 1143 921 1136 963 1125 C1004 1114 1046 1098 1087 1077 L1087 1077 Z M541 127 L709 991 C599 981 506 921 430 812 C353 701 315 569 315 431 C315 331 335 267 374 216 C411 168 462 136 541 127 L541 127 Z " />
<glyph glyph-name="sterling" unicode="&#xa3;" horiz-adv-x="1233" d="M1229 1462 L1192 1278 C1156 1307 1118 1329 1078 1344 C1037 1359 997 1366 952 1366 C858 1366 788 1336 738 1281 C687 1225 651 1137 623 995 L580 778 L950 778 L922 635 L551 635 L461 170 L997 170 L965 0 L-8 0 L25 170 L262 170 L352 635 L154 635 L180 778 L379 778 L426 1016 C460 1189 519 1315 608 1397 C692 1475 808 1520 957 1520 C1007 1520 1052 1515 1092 1506 C1130 1497 1178 1482 1229 1462 L1229 1462 Z " />
<glyph glyph-name="currency" unicode="&#xa4;" horiz-adv-x="1233" d="M868 643 C868 702 845 757 807 795 C767 835 712 856 653 856 C596 856 542 836 501 796 C463 759 438 705 438 642 C438 584 459 531 500 489 C540 449 592 426 653 426 C711 426 765 447 806 488 C846 529 868 584 868 643 L868 643 Z M844 924 L1010 1090 L1100 997 L934 831 C954 798 972 760 979 736 C988 707 993 671 993 640 C993 609 988 576 978 546 C968 515 953 485 932 455 L1100 289 L1006 195 L840 362 C809 341 779 326 749 316 C718 306 686 301 652 301 C618 301 591 306 557 316 C523 326 499 336 461 358 L297 195 L205 285 L371 451 C346 492 336 517 326 549 C316 581 311 608 311 642 C311 679 317 708 327 738 C338 771 352 799 373 829 L205 995 L299 1090 L465 922 C496 943 526 958 557 968 C587 978 620 983 651 983 C682 983 717 978 746 969 C775 960 812 943 844 924 L844 924 Z " />
<glyph glyph-name="yen" unicode="&#xa5;" horiz-adv-x="1233" d="M1036 524 L643 524 L545 0 L346 0 L444 524 L47 524 L70 635 L467 635 L473 670 L418 821 L109 821 L131 932 L377 932 L172 1493 L379 1493 L602 829 L1061 1493 L1272 1493 L868 932 L1120 932 L1098 821 L786 821 L676 670 L666 635 L1059 635 L1036 524 L1036 524 Z " />
<glyph glyph-name="brokenbar" unicode="&#xa6;" horiz-adv-x="1233" d="M702 1432 L702 674 L530 674 L530 1432 L702 1432 L702 1432 Z M702 408 L702 -350 L530 -350 L530 408 L702 408 L702 408 Z " />
<glyph glyph-name="section" unicode="&#xa7;" horiz-adv-x="1233" d="M1069 1454 L1036 1290 C991 1314 945 1334 897 1348 C849 1362 806 1368 767 1368 C703 1368 645 1352 601 1319 C557 1286 535 1244 535 1203 C535 1141 585 1085 669 1029 C678 1023 674 1026 717 997 L803 938 C886 881 941 833 970 794 C999 755 1012 710 1012 663 C1012 601 990 535 946 475 C901 413 838 365 766 332 C793 309 814 282 828 252 C840 226 848 191 848 148 C848 51 808 -38 728 -103 C647 -168 534 -201 411 -201 C358 -201 302 -195 260 -187 C212 -178 152 -161 100 -143 L133 18 C182 -6 231 -24 279 -37 C327 -50 369 -57 415 -57 C484 -57 547 -41 591 -10 C635 21 657 65 657 110 C657 182 601 249 474 337 L461 346 L387 397 C303 455 251 499 222 538 C194 576 182 619 182 667 C182 727 201 788 246 848 C288 904 349 955 428 997 C401 1022 381 1047 369 1074 C356 1102 350 1130 350 1167 C350 1265 392 1352 470 1415 C550 1479 657 1511 777 1511 C824 1511 872 1506 921 1497 C973 1487 1019 1473 1069 1454 L1069 1454 Z M559 479 L678 401 C734 435 777 471 806 508 C835 545 850 582 850 616 C850 656 829 694 797 727 C761 764 687 819 596 877 L516 928 C461 893 419 856 391 820 C362 783 348 746 348 711 C348 675 362 642 391 610 C417 581 467 539 559 479 L559 479 Z " />
<glyph glyph-name="dieresis" unicode="&#xa8;" horiz-adv-x="1233" d="M475 1552 L678 1552 L639 1350 L436 1350 L475 1552 L475 1552 Z M866 1552 L1069 1552 L1030 1350 L827 1350 L866 1552 L866 1552 Z " />
<glyph glyph-name="copyright" unicode="&#xa9;" horiz-adv-x="1233" d="M616 1255 C545 1255 480 1243 420 1218 C359 1193 304 1156 254 1106 C204 1056 166 1000 141 939 C115 877 102 813 102 742 C102 670 115 608 141 546 C170 478 212 420 254 378 C298 334 357 292 421 265 C481 240 545 227 617 227 C688 227 752 240 812 265 C876 292 933 332 979 378 C1024 423 1068 485 1093 546 C1118 606 1130 672 1130 741 C1130 813 1117 878 1092 939 C1066 1002 1028 1057 979 1106 C929 1156 874 1193 814 1218 C753 1243 687 1255 616 1255 L616 1255 Z M616 1358 C701 1358 779 1343 852 1313 C927 1282 995 1235 1051 1178 C1113 1115 1158 1045 1187 977 C1218 904 1233 825 1233 742 C1233 658 1218 579 1188 508 C1158 437 1111 366 1052 307 C997 252 927 203 851 171 C778 140 700 125 616 125 C528 125 454 141 382 171 C309 202 239 249 181 307 C125 363 76 434 45 508 C15 579 0 657 0 741 C0 824 15 904 46 977 C76 1048 121 1116 182 1178 C244 1241 311 1284 381 1313 C454 1343 532 1358 616 1358 L616 1358 Z M864 1071 L864 963 C825 982 788 996 751 1005 C714 1014 674 1018 641 1018 C565 1018 500 996 453 945 C410 898 385 827 385 739 C385 655 408 585 455 538 C502 491 567 467 657 467 C698 467 730 472 763 480 C803 490 833 502 864 518 L864 414 C829 399 793 387 755 380 C717 373 679 369 638 369 C516 369 419 405 353 469 C287 533 250 627 250 741 C250 854 286 950 354 1016 C423 1082 521 1116 638 1116 C678 1116 717 1112 755 1105 C792 1098 824 1088 864 1071 L864 1071 Z " />
<glyph glyph-name="ordfeminine" unicode="&#xaa;" horiz-adv-x="1233" d="M870 1104 L729 1104 C630 1104 558 1091 512 1064 C465 1037 442 993 442 941 C442 903 454 871 479 849 C503 828 535 817 581 817 C646 817 711 839 762 884 C816 932 849 1003 864 1075 L870 1104 L870 1104 Z M1026 1165 L940 717 L797 717 L819 829 C784 787 738 753 692 732 C640 708 586 698 534 698 C453 698 395 723 358 758 C316 798 295 854 295 921 C295 1015 336 1090 406 1140 C481 1193 586 1219 717 1219 L891 1219 C891 1220 891 1223 892 1228 C894 1242 895 1262 895 1273 C895 1310 884 1346 850 1372 C821 1394 779 1405 711 1405 C665 1405 619 1400 574 1389 C529 1378 482 1360 434 1337 L457 1464 C507 1483 556 1497 605 1506 C654 1515 698 1520 745 1520 C842 1520 915 1499 963 1458 C1011 1417 1036 1354 1036 1272 C1036 1255 1035 1233 1034 1220 C1033 1211 1028 1178 1026 1165 L1026 1165 Z M246 592 L922 592 L899 469 L223 469 L246 592 L246 592 Z " />
<glyph glyph-name="guillemotleft" unicode="&#xab;" horiz-adv-x="1233" d="M1106 1059 L1063 848 L713 584 L963 317 L928 141 L541 559 L557 641 L1106 1059 L1106 1059 Z M639 1059 L596 848 L246 584 L496 317 L461 141 L74 559 L90 641 L639 1059 L639 1059 Z " />
<glyph glyph-name="logicalnot" unicode="&#xac;" horiz-adv-x="1233" d="M88 862 L1145 862 L1145 371 L977 371 L977 690 L88 690 L88 862 L88 862 Z " />
<glyph glyph-name="sfthyphen" unicode="&#xad;" horiz-adv-x="1233" d="M336 643 L858 643 L825 479 L303 479 L336 643 L336 643 Z " />
<glyph glyph-name="registered" unicode="&#xae;" horiz-adv-x="1233" d="M616 1358 C701 1358 779 1343 852 1313 C927 1282 995 1235 1051 1178 C1113 1115 1158 1045 1187 977 C1218 904 1233 825 1233 742 C1233 658 1218 579 1188 508 C1158 437 1111 366 1052 307 C997 252 927 203 851 171 C778 140 700 125 616 125 C528 125 454 141 382 171 C311 201 241 247 181 307 C123 365 77 434 46 507 C16 579 0 653 0 741 C0 825 15 904 46 977 C77 1050 123 1118 182 1178 C241 1238 308 1283 381 1313 C454 1343 532 1358 616 1358 L616 1358 Z M616 1255 C545 1255 480 1243 420 1218 C359 1193 304 1156 254 1106 C204 1056 166 1000 141 939 C115 877 102 813 102 742 C102 670 115 608 141 546 C170 478 212 420 254 378 C298 334 357 292 421 265 C481 240 545 227 617 227 C688 227 752 240 812 265 C876 292 933 332 979 378 C1024 423 1068 485 1093 546 C1118 606 1130 672 1130 741 C1130 813 1117 878 1092 939 C1066 1002 1028 1057 979 1106 C929 1156 874 1193 814 1218 C753 1243 687 1255 616 1255 L616 1255 Z M362 1100 L600 1100 C698 1100 771 1084 819 1051 C867 1018 891 967 891 903 C891 853 876 815 847 784 C818 753 776 732 723 723 C736 720 753 706 771 685 C788 665 822 618 838 592 L952 406 L809 406 L702 580 C670 632 642 668 623 681 C605 694 577 702 547 702 L492 702 L492 406 L362 406 L362 1100 L362 1100 Z M594 1016 L492 1016 L492 784 L594 784 C654 784 696 793 721 811 C746 829 758 859 758 900 C758 938 748 971 721 990 C696 1007 654 1016 594 1016 L594 1016 Z " />
<glyph glyph-name="macron" unicode="&#xaf;" horiz-adv-x="1233" d="M469 1526 L1067 1526 L1038 1378 L440 1378 L469 1526 L469 1526 Z " />
<glyph glyph-name="degree" unicode="&#xb0;" horiz-adv-x="1233" d="M615 1520 C655 1520 700 1513 740 1496 C778 1480 817 1452 843 1425 C875 1392 897 1355 911 1322 C926 1286 934 1244 934 1202 C934 1115 900 1033 842 976 C785 920 702 885 612 885 C528 885 448 915 388 975 C335 1028 299 1106 299 1199 C299 1288 332 1368 390 1427 C447 1485 526 1520 615 1520 L615 1520 Z M616 1391 C563 1391 515 1370 482 1337 C446 1301 426 1251 426 1199 C426 1145 447 1099 481 1065 C517 1030 564 1012 614 1012 C668 1012 719 1034 752 1067 C790 1105 807 1155 807 1201 C807 1251 787 1300 751 1336 C720 1367 672 1391 616 1391 L616 1391 Z " />
<glyph glyph-name="plusminus" unicode="&#xb1;" horiz-adv-x="1233" d="M88 170 L1145 170 L1145 0 L88 0 L88 170 L88 170 Z M700 1171 L700 842 L1145 842 L1145 672 L700 672 L700 340 L532 340 L532 672 L88 672 L88 842 L532 842 L532 1171 L700 1171 L700 1171 Z " />
<glyph glyph-name="twosuperior" unicode="&#xb2;" horiz-adv-x="1233" d="M492 782 L887 782 L864 668 L307 668 L328 778 L498 918 L531 945 C734 1111 844 1226 844 1308 C844 1335 832 1364 807 1385 C784 1404 750 1415 707 1415 C676 1415 634 1409 595 1397 C559 1386 506 1364 451 1337 L475 1464 C531 1483 580 1498 622 1507 C663 1516 702 1520 738 1520 C820 1520 881 1500 923 1465 C968 1428 991 1372 991 1325 C991 1220 874 1077 682 933 L662 918 L492 782 L492 782 Z " />
<glyph glyph-name="threesuperior" unicode="&#xb3;" horiz-adv-x="1233" d="M772 1116 C820 1108 857 1089 883 1059 C908 1030 922 991 922 939 C922 856 887 785 818 732 C749 679 656 653 540 653 C495 653 452 657 410 664 C367 671 329 680 287 694 L311 815 C356 796 395 782 430 773 C465 764 498 760 535 760 C606 760 666 775 709 806 C754 838 774 880 774 931 C774 974 760 1008 732 1029 C703 1050 659 1061 600 1061 L528 1061 L549 1167 L621 1167 C686 1167 738 1180 777 1207 C816 1234 836 1268 836 1310 C836 1345 822 1371 793 1388 C764 1405 720 1413 667 1413 C635 1413 605 1410 572 1403 C538 1396 501 1385 461 1370 L483 1485 C530 1496 574 1505 615 1511 C656 1517 695 1520 730 1520 C807 1520 872 1505 918 1470 C961 1437 983 1389 983 1330 C983 1275 964 1231 926 1192 C890 1155 839 1128 772 1116 L772 1116 Z " />
<glyph glyph-name="acute" unicode="&#xb4;" horiz-adv-x="1233" d="M907 1638 L1126 1638 L731 1262 L575 1262 L907 1638 L907 1638 Z " />
<glyph glyph-name="mu" unicode="&#xb5;" horiz-adv-x="1233" d="M-39 -426 L262 1120 L449 1120 L313 424 C310 409 307 392 304 366 C302 348 301 333 301 319 C301 257 319 213 356 180 C394 146 445 131 512 131 C603 131 676 159 731 214 C783 266 823 348 846 467 L973 1120 L1159 1120 L991 258 C990 253 987 229 987 227 C986 218 985 211 985 202 C985 184 989 168 998 157 C1005 148 1016 141 1032 141 C1040 141 1049 143 1059 146 C1075 151 1085 155 1106 164 L1077 16 C1052 2 1018 -13 1000 -18 C977 -25 950 -29 927 -29 C886 -29 852 -16 824 14 C799 41 784 75 784 129 C749 74 708 34 662 9 C615 -16 558 -29 496 -29 C432 -29 381 -15 340 13 C298 41 267 82 246 137 L137 -426 L-39 -426 L-39 -426 Z " />
<glyph glyph-name="paragraph" unicode="&#xb6;" horiz-adv-x="1233" d="M735 1493 L1141 1493 L813 -197 L674 -197 L977 1370 L786 1370 L483 -197 L342 -197 L506 649 C388 652 295 685 227 748 C159 811 125 897 125 1004 C125 1143 183 1260 298 1353 C413 1446 559 1493 735 1493 L735 1493 Z " />
<glyph glyph-name="cedilla" unicode="&#xb8;" horiz-adv-x="1233" d="M436 0 L555 0 C580 -43 598 -80 610 -111 C621 -140 627 -170 627 -198 C627 -253 604 -304 557 -341 C512 -376 448 -395 366 -395 C339 -395 307 -393 276 -388 C245 -383 213 -375 182 -365 L207 -236 C234 -249 259 -258 284 -265 C308 -271 329 -274 352 -274 C395 -274 432 -264 457 -244 C482 -224 494 -195 494 -163 C494 -141 488 -114 480 -93 C474 -77 456 -37 436 0 L436 0 Z " />
<glyph glyph-name="onesuperior" unicode="&#xb9;" horiz-adv-x="1233" d="M369 778 L575 778 L692 1389 L461 1348 L483 1464 L721 1503 L858 1503 L717 778 L922 778 L901 668 L348 668 L369 778 L369 778 Z " />
<glyph glyph-name="ordmasculine" unicode="&#xba;" horiz-adv-x="1233" d="M630 698 C526 698 449 732 394 789 C336 849 307 934 307 1030 C307 1091 319 1157 339 1212 C363 1278 402 1336 428 1368 C467 1416 517 1455 570 1481 C624 1507 680 1520 744 1520 C841 1520 921 1490 979 1429 C1033 1372 1065 1287 1065 1184 C1065 1129 1056 1067 1033 1003 C1012 945 982 893 946 850 C906 802 858 763 805 737 C752 711 694 698 630 698 L630 698 Z M463 1041 C463 966 480 913 513 873 C546 833 593 813 645 813 C715 813 783 849 834 920 C884 990 911 1086 911 1179 C911 1251 895 1305 862 1345 C827 1387 779 1405 728 1405 C652 1405 588 1365 540 1298 C489 1226 463 1134 463 1041 L463 1041 Z M246 592 L922 592 L899 469 L223 469 L246 592 L246 592 Z " />
<glyph glyph-name="guillemotright" unicode="&#xbb;" horiz-adv-x="1233" d="M82 141 L125 352 L475 614 L225 883 L260 1059 L647 641 L633 559 L82 141 L82 141 Z M549 141 L592 352 L942 614 L692 883 L727 1059 L1114 641 L1100 559 L549 141 L549 141 Z " />
<glyph glyph-name="onequarter" unicode="&#xbc;" horiz-adv-x="1233" d="M111 934 L317 934 L434 1545 L203 1504 L225 1620 L463 1659 L600 1659 L459 934 L664 934 L643 824 L90 824 L111 934 L111 934 Z M70 504 L47 612 L1106 870 L1133 762 L70 504 L70 504 Z M901 565 L1063 565 L958 25 L1075 25 L1055 -86 L936 -86 L903 -270 L764 -270 L799 -86 L413 -86 L436 35 L901 565 L901 565 Z M897 416 L555 25 L821 25 L897 416 L897 416 Z " />
<glyph glyph-name="onehalf" unicode="&#xbd;" horiz-adv-x="1233" d="M111 934 L317 934 L434 1545 L203 1504 L225 1620 L463 1659 L600 1659 L459 934 L664 934 L643 824 L90 824 L111 934 L111 934 Z M70 504 L47 612 L1106 870 L1133 762 L70 504 L70 504 Z M646 -156 L1041 -156 L1018 -270 L461 -270 L482 -160 L652 -20 L685 7 C888 173 998 288 998 370 C998 397 986 426 961 447 C938 466 904 477 861 477 C830 477 788 471 749 459 C713 448 660 426 605 399 L629 526 C685 545 734 560 776 569 C817 578 856 582 892 582 C974 582 1035 562 1077 527 C1122 490 1145 434 1145 387 C1145 282 1028 139 836 -5 L816 -20 L646 -156 L646 -156 Z " />
<glyph glyph-name="threequarters" unicode="&#xbe;" horiz-adv-x="1233" d="M545 1272 C593 1264 630 1245 656 1215 C681 1186 695 1147 695 1095 C695 1012 660 941 591 888 C522 835 429 809 313 809 C268 809 225 813 183 820 C140 827 102 836 60 850 L84 971 C129 952 168 938 203 929 C238 920 271 916 308 916 C379 916 439 931 482 962 C527 994 547 1036 547 1087 C547 1130 533 1164 505 1185 C476 1206 432 1217 373 1217 L301 1217 L322 1323 L394 1323 C459 1323 511 1336 550 1363 C589 1390 609 1424 609 1466 C609 1501 595 1527 566 1544 C537 1561 493 1569 440 1569 C408 1569 378 1566 345 1559 C311 1552 274 1541 234 1526 L256 1641 C303 1652 347 1661 388 1667 C429 1673 468 1676 503 1676 C580 1676 645 1661 691 1626 C734 1593 756 1545 756 1486 C756 1431 737 1387 699 1348 C663 1311 612 1284 545 1272 L545 1272 Z M70 504 L47 612 L1106 870 L1133 762 L70 504 L70 504 Z M901 565 L1063 565 L958 25 L1075 25 L1055 -86 L936 -86 L903 -270 L764 -270 L799 -86 L413 -86 L436 35 L901 565 L901 565 Z M897 416 L555 25 L821 25 L897 416 L897 416 Z " />
<glyph glyph-name="questiondown" unicode="&#xbf;" horiz-adv-x="1233" d="M655 1092 L846 1092 L817 938 C805 875 785 822 759 780 C731 735 682 683 608 621 L502 532 C446 485 406 443 382 405 C358 368 346 330 346 292 C346 244 365 205 402 178 C439 151 491 137 555 137 C611 137 665 148 734 173 C800 197 862 227 938 274 L901 86 C827 47 750 17 692 1 C624 -18 553 -27 495 -27 C399 -27 307 -3 239 54 C175 108 143 182 143 267 C143 327 159 382 192 436 C227 493 284 553 371 625 L475 711 C527 754 569 798 590 832 C610 865 627 920 635 969 L655 1092 L655 1092 Z M881 1239 L678 1239 L727 1493 L930 1493 L881 1239 L881 1239 Z " />
<glyph glyph-name="Agrave" unicode="&#xc0;" horiz-adv-x="1233" d="M735 1325 L371 551 L801 551 L735 1325 L735 1325 Z M639 1493 L885 1493 L1051 0 L850 0 L815 389 L295 389 L111 0 L-106 0 L639 1493 L639 1493 Z M733 1899 L880 1635 L741 1635 L551 1899 L733 1899 L733 1899 Z " />
<glyph glyph-name="Aacute" unicode="&#xc1;" horiz-adv-x="1233" d="M735 1325 L371 551 L801 551 L735 1325 L735 1325 Z M639 1493 L885 1493 L1051 0 L850 0 L815 389 L295 389 L111 0 L-106 0 L639 1493 L639 1493 Z M885 1899 L1093 1899 L786 1635 L626 1635 L885 1899 L885 1899 Z " />
<glyph glyph-name="Acircumflex" unicode="&#xc2;" horiz-adv-x="1233" d="M735 1325 L371 551 L801 551 L735 1325 L735 1325 Z M639 1493 L885 1493 L1051 0 L850 0 L815 389 L295 389 L111 0 L-106 0 L639 1493 L639 1493 Z M704 1901 L917 1901 L1075 1635 L942 1635 L803 1813 L594 1635 L442 1635 L704 1901 L704 1901 Z " />
<glyph glyph-name="Atilde" unicode="&#xc3;" horiz-adv-x="1233" d="M735 1325 L371 551 L801 551 L735 1325 L735 1325 Z M639 1493 L885 1493 L1051 0 L850 0 L815 389 L295 389 L111 0 L-106 0 L639 1493 L639 1493 Z M790 1710 L756 1735 L754 1736 C726 1757 699 1768 674 1768 C651 1768 631 1760 613 1743 C595 1726 580 1700 567 1667 L442 1667 C465 1740 498 1794 539 1831 C580 1868 629 1886 686 1886 C709 1886 730 1882 751 1875 C772 1868 794 1856 817 1839 L852 1813 C864 1804 876 1797 888 1793 C900 1788 912 1786 925 1786 C952 1786 974 1795 993 1813 C1012 1831 1025 1855 1032 1886 L1157 1886 C1136 1813 1104 1759 1062 1722 C1020 1685 968 1667 907 1667 C886 1667 867 1671 849 1678 C830 1685 811 1695 790 1710 L790 1710 Z " />
<glyph glyph-name="Adieresis" unicode="&#xc4;" horiz-adv-x="1233" d="M735 1325 L371 551 L801 551 L735 1325 L735 1325 Z M639 1493 L885 1493 L1051 0 L850 0 L815 389 L295 389 L111 0 L-106 0 L639 1493 L639 1493 Z M897 1870 L1100 1870 L1061 1667 L858 1667 L897 1870 L897 1870 Z M506 1870 L710 1870 L669 1667 L467 1667 L506 1870 L506 1870 Z " />
<glyph glyph-name="Aring" unicode="&#xc5;" horiz-adv-x="1233" d="M924 1626 C924 1671 906 1708 880 1734 C849 1765 810 1778 771 1778 C730 1778 694 1764 665 1735 C636 1706 621 1668 621 1627 C621 1585 637 1546 665 1518 C690 1493 728 1475 772 1475 C816 1475 854 1493 880 1519 C909 1548 924 1584 924 1626 L924 1626 Z M735 1325 L371 551 L801 551 L735 1325 L735 1325 Z M-106 0 L600 1415 C566 1438 541 1468 524 1504 C507 1539 498 1582 498 1625 C498 1702 527 1770 577 1821 C626 1871 695 1901 773 1901 C850 1901 917 1871 967 1821 C1016 1772 1047 1707 1047 1624 C1047 1567 1032 1522 1007 1482 C980 1439 944 1407 897 1386 L1051 0 L850 0 L815 389 L295 389 L111 0 L-106 0 L-106 0 Z " />
<glyph glyph-name="AE" unicode="&#xc6;" horiz-adv-x="1233" d="M1307 1493 L1274 1323 L936 1323 L850 881 L1157 881 L1124 711 L817 711 L711 170 L1067 170 L1034 0 L492 0 L567 383 L215 383 L39 0 L-145 0 L555 1493 L1307 1493 L1307 1493 Z M647 1323 L291 551 L600 551 L750 1323 L647 1323 L647 1323 Z " />
<glyph glyph-name="Ccedilla" unicode="&#xc7;" horiz-adv-x="1233" d="M554.389 -27.731 C418.153 -19.477 312.693 28.5843 241 103 C159 188 115 315 115 492 C115 623 139 770 185 913 C233 1062 293 1172 369 1266 C443 1357 520 1417 606 1458 C692 1499 788 1520 893 1520 C954 1520 1005 1513 1058 1499 C1111 1485 1162 1465 1212 1438 L1171 1231 C1128 1273 1083 1304 1036 1325 C989 1346 938 1356 884 1356 C822 1356 763 1343 709 1316 C655 1289 604 1247 557 1192 C489 1112 432 1004 390 878 C346 744 326 614 326 503 C326 377 352 286 404 226 C449 174 522 135 628 135 C685 135 745 146 805 167 C865 188 924 219 983 260 L944 53 C888 26 832 5 775 -9 C745.226 -16.1459 710.132 -21.8736 673.309 -25.338 C691.031 -57.7118 704.425 -86.2656 714 -111 C725 -140 731 -170 731 -198 C731 -253 708 -304 661 -341 C616 -376 552 -395 470 -395 C443 -395 411 -393 380 -388 C349 -383 317 -375 286 -365 L311 -236 C338 -249 363 -258 388 -265 C412 -271 433 -274 456 -274 C499 -274 536 -264 561 -244 C586 -224 598 -195 598 -163 C598 -141 592 -114 584 -93 C579.491 -80.9769 568.207 -55.4017 554.389 -27.731 L554.389 -27.731 Z " />
<glyph glyph-name="Egrave" unicode="&#xc8;" horiz-adv-x="1233" d="M344 1493 L1229 1493 L1196 1323 L512 1323 L426 881 L1079 881 L1047 711 L393 711 L289 170 L991 170 L958 0 L53 0 L344 1493 L344 1493 Z M778 1899 L925 1635 L786 1635 L596 1899 L778 1899 L778 1899 Z " />
<glyph glyph-name="Eacute" unicode="&#xc9;" horiz-adv-x="1233" d="M344 1493 L1229 1493 L1196 1323 L512 1323 L426 881 L1079 881 L1047 711 L393 711 L289 170 L991 170 L958 0 L53 0 L344 1493 L344 1493 Z M930 1899 L1138 1899 L831 1635 L671 1635 L930 1899 L930 1899 Z " />
<glyph glyph-name="Ecircumflex" unicode="&#xca;" horiz-adv-x="1233" d="M344 1493 L1229 1493 L1196 1323 L512 1323 L426 881 L1079 881 L1047 711 L393 711 L289 170 L991 170 L958 0 L53 0 L344 1493 L344 1493 Z M749 1901 L962 1901 L1120 1635 L987 1635 L848 1813 L639 1635 L487 1635 L749 1901 L749 1901 Z " />
<glyph glyph-name="Edieresis" unicode="&#xcb;" horiz-adv-x="1233" d="M344 1493 L1229 1493 L1196 1323 L512 1323 L426 881 L1079 881 L1047 711 L393 711 L289 170 L991 170 L958 0 L53 0 L344 1493 L344 1493 Z M942 1870 L1145 1870 L1106 1667 L903 1667 L942 1870 L942 1870 Z M551 1870 L755 1870 L714 1667 L512 1667 L551 1870 L551 1870 Z " />
<glyph glyph-name="Igrave" unicode="&#xcc;" horiz-adv-x="1233" d="M346 1493 L1176 1493 L1143 1323 L829 1323 L606 170 L920 170 L887 0 L57 0 L90 170 L403 170 L627 1323 L313 1323 L346 1493 L346 1493 Z M739 1899 L886 1635 L747 1635 L557 1899 L739 1899 L739 1899 Z " />
<glyph glyph-name="Iacute" unicode="&#xcd;" horiz-adv-x="1233" d="M346 1493 L1176 1493 L1143 1323 L829 1323 L606 170 L920 170 L887 0 L57 0 L90 170 L403 170 L627 1323 L313 1323 L346 1493 L346 1493 Z M891 1899 L1099 1899 L792 1635 L632 1635 L891 1899 L891 1899 Z " />
<glyph glyph-name="Icircumflex" unicode="&#xce;" horiz-adv-x="1233" d="M346 1493 L1176 1493 L1143 1323 L829 1323 L606 170 L920 170 L887 0 L57 0 L90 170 L403 170 L627 1323 L313 1323 L346 1493 L346 1493 Z M710 1901 L923 1901 L1081 1635 L948 1635 L809 1813 L600 1635 L448 1635 L710 1901 L710 1901 Z " />
<glyph glyph-name="Idieresis" unicode="&#xcf;" horiz-adv-x="1233" d="M346 1493 L1176 1493 L1143 1323 L829 1323 L606 170 L920 170 L887 0 L57 0 L90 170 L403 170 L627 1323 L313 1323 L346 1493 L346 1493 Z M903 1870 L1106 1870 L1067 1667 L864 1667 L903 1870 L903 1870 Z M512 1870 L716 1870 L675 1667 L473 1667 L512 1870 L512 1870 Z " />
<glyph glyph-name="Eth" unicode="&#xd0;" horiz-adv-x="1233" d="M227 166 L324 166 C447 166 546 187 621 229 C697 271 756 338 801 432 C834 501 866 597 890 707 C913 813 924 913 924 993 C924 1119 897 1200 842 1251 C787 1302 696 1327 567 1327 L453 1327 L362 858 L629 858 L600 709 L334 709 L227 166 L227 166 Z M283 1493 L586 1493 C768 1493 904 1452 995 1369 C1087 1285 1130 1159 1130 986 C1130 888 1116 774 1088 659 C1059 540 1018 434 975 354 C905 224 816 135 716 82 C612 27 472 0 295 0 L-8 0 L129 709 L2 709 L31 858 L160 858 L283 1493 L283 1493 Z " />
<glyph glyph-name="Ntilde" unicode="&#xd1;" horiz-adv-x="1233" d="M285 1493 L541 1493 L805 264 L1044 1493 L1239 1493 L948 0 L692 0 L428 1229 L188 0 L-6 0 L285 1493 L285 1493 Z M786 1710 L752 1735 L750 1736 C722 1757 695 1768 669 1768 C647 1768 627 1760 609 1743 C591 1726 576 1700 563 1667 L438 1667 C461 1740 494 1794 535 1831 C576 1868 626 1886 680 1886 C706 1886 726 1882 747 1875 C770 1867 790 1856 813 1839 L848 1813 C860 1804 872 1797 884 1793 C895 1789 904 1786 920 1786 C950 1786 971 1796 989 1813 C1008 1831 1021 1855 1028 1886 L1153 1886 C1132 1813 1100 1759 1058 1722 C1019 1688 968 1667 907 1667 C880 1667 863 1671 845 1678 C824 1686 807 1695 786 1710 L786 1710 Z " />
<glyph glyph-name="Ograve" unicode="&#xd2;" horiz-adv-x="1233" d="M498 135 C555 135 611 151 660 186 C715 225 751 280 778 332 C829 430 871 563 898 683 C929 820 944 960 944 1067 C944 1180 927 1245 892 1289 C858 1332 804 1356 734 1356 C676 1356 620 1340 572 1305 C525 1271 486 1219 455 1160 C409 1073 364 944 333 808 C303 675 287 540 287 429 C287 311 305 248 340 203 C378 155 435 135 498 135 L498 135 Z M1151 1024 C1151 945 1144 867 1129 781 C1114 695 1092 607 1063 516 C1042 450 1024 402 1001 351 C983 312 956 261 928 219 C876 141 806 74 731 32 C658 -9 573 -29 478 -29 C342 -29 244 12 179 94 C114 176 82 302 82 473 C82 558 90 629 104 712 C118 794 136 875 168 975 C189 1041 208 1091 231 1141 C256 1195 283 1242 303 1272 C352 1346 423 1417 501 1460 C572 1500 657 1520 753 1520 C885 1520 986 1483 1054 1397 C1119 1315 1151 1192 1151 1024 L1151 1024 Z M725 1899 L872 1635 L733 1635 L543 1899 L725 1899 L725 1899 Z " />
<glyph glyph-name="Oacute" unicode="&#xd3;" horiz-adv-x="1233" d="M498 135 C555 135 611 151 660 186 C715 225 751 280 778 332 C829 430 871 563 898 683 C929 820 944 960 944 1067 C944 1180 927 1245 892 1289 C858 1332 804 1356 734 1356 C676 1356 620 1340 572 1305 C525 1271 486 1219 455 1160 C409 1073 364 944 333 808 C303 675 287 540 287 429 C287 311 305 248 340 203 C378 155 435 135 498 135 L498 135 Z M1151 1024 C1151 945 1144 867 1129 781 C1114 695 1092 607 1063 516 C1042 450 1024 402 1001 351 C983 312 956 261 928 219 C876 141 806 74 731 32 C658 -9 573 -29 478 -29 C342 -29 244 12 179 94 C114 176 82 302 82 473 C82 558 90 629 104 712 C118 794 136 875 168 975 C189 1041 208 1091 231 1141 C256 1195 283 1242 303 1272 C352 1346 423 1417 501 1460 C572 1500 657 1520 753 1520 C885 1520 986 1483 1054 1397 C1119 1315 1151 1192 1151 1024 L1151 1024 Z M877 1899 L1085 1899 L778 1635 L618 1635 L877 1899 L877 1899 Z " />
<glyph glyph-name="Ocircumflex" unicode="&#xd4;" horiz-adv-x="1233" d="M498 135 C555 135 611 151 660 186 C715 225 751 280 778 332 C829 430 871 563 898 683 C929 820 944 960 944 1067 C944 1180 927 1245 892 1289 C858 1332 804 1356 734 1356 C676 1356 620 1340 572 1305 C525 1271 486 1219 455 1160 C409 1073 364 944 333 808 C303 675 287 540 287 429 C287 311 305 248 340 203 C378 155 435 135 498 135 L498 135 Z M1151 1024 C1151 945 1144 867 1129 781 C1114 695 1092 607 1063 516 C1042 450 1024 402 1001 351 C983 312 956 261 928 219 C876 141 806 74 731 32 C658 -9 573 -29 478 -29 C342 -29 244 12 179 94 C114 176 82 302 82 473 C82 558 90 629 104 712 C118 794 136 875 168 975 C189 1041 208 1091 231 1141 C256 1195 283 1242 303 1272 C352 1346 423 1417 501 1460 C572 1500 657 1520 753 1520 C885 1520 986 1483 1054 1397 C1119 1315 1151 1192 1151 1024 L1151 1024 Z M696 1901 L909 1901 L1067 1635 L934 1635 L795 1813 L586 1635 L434 1635 L696 1901 L696 1901 Z " />
<glyph glyph-name="Otilde" unicode="&#xd5;" horiz-adv-x="1233" d="M498 135 C555 135 611 151 660 186 C715 225 751 280 778 332 C829 430 871 563 898 683 C929 820 944 960 944 1067 C944 1180 927 1245 892 1289 C858 1332 804 1356 734 1356 C676 1356 620 1340 572 1305 C525 1271 486 1219 455 1160 C409 1073 364 944 333 808 C303 675 287 540 287 429 C287 311 305 248 340 203 C378 155 435 135 498 135 L498 135 Z M1151 1024 C1151 945 1144 867 1129 781 C1114 695 1092 607 1063 516 C1042 450 1024 402 1001 351 C983 312 956 261 928 219 C876 141 806 74 731 32 C658 -9 573 -29 478 -29 C342 -29 244 12 179 94 C114 176 82 302 82 473 C82 558 90 629 104 712 C118 794 136 875 168 975 C189 1041 208 1091 231 1141 C256 1195 283 1242 303 1272 C352 1346 423 1417 501 1460 C572 1500 657 1520 753 1520 C885 1520 986 1483 1054 1397 C1119 1315 1151 1192 1151 1024 L1151 1024 Z M782 1710 L748 1735 L746 1736 C718 1757 691 1768 665 1768 C643 1768 623 1760 605 1743 C587 1726 572 1700 559 1667 L434 1667 C457 1740 490 1794 531 1831 C572 1868 622 1886 676 1886 C702 1886 722 1882 743 1875 C766 1867 786 1856 809 1839 L844 1813 C856 1804 868 1797 880 1793 C891 1789 900 1786 916 1786 C946 1786 967 1796 985 1813 C1004 1831 1017 1855 1024 1886 L1149 1886 C1128 1813 1096 1759 1054 1722 C1015 1688 964 1667 903 1667 C876 1667 859 1671 841 1678 C820 1686 803 1695 782 1710 L782 1710 Z " />
<glyph glyph-name="Odieresis" unicode="&#xd6;" horiz-adv-x="1233" d="M498 135 C555 135 611 151 660 186 C715 225 751 280 778 332 C829 430 871 563 898 683 C929 820 944 960 944 1067 C944 1180 927 1245 892 1289 C858 1332 804 1356 734 1356 C676 1356 620 1340 572 1305 C525 1271 486 1219 455 1160 C409 1073 364 944 333 808 C303 675 287 540 287 429 C287 311 305 248 340 203 C378 155 435 135 498 135 L498 135 Z M1151 1024 C1151 945 1144 867 1129 781 C1114 695 1092 607 1063 516 C1042 450 1024 402 1001 351 C983 312 956 261 928 219 C876 141 806 74 731 32 C658 -9 573 -29 478 -29 C342 -29 244 12 179 94 C114 176 82 302 82 473 C82 558 90 629 104 712 C118 794 136 875 168 975 C189 1041 208 1091 231 1141 C256 1195 283 1242 303 1272 C352 1346 423 1417 501 1460 C572 1500 657 1520 753 1520 C885 1520 986 1483 1054 1397 C1119 1315 1151 1192 1151 1024 L1151 1024 Z M889 1870 L1092 1870 L1053 1667 L850 1667 L889 1870 L889 1870 Z M498 1870 L702 1870 L661 1667 L459 1667 L498 1870 L498 1870 Z " />
<glyph glyph-name="multiply" unicode="&#xd7;" horiz-adv-x="1233" d="M150 293 L500 641 L150 991 L266 1108 L616 758 L967 1108 L1083 991 L733 641 L1081 293 L965 174 L616 524 L268 174 L150 293 L150 293 Z " />
<glyph glyph-name="Oslash" unicode="&#xd8;" horiz-adv-x="1233" d="M938 1116 L322 229 C335 200 358 177 389 160 C420 143 459 135 501 135 C578 135 641 162 695 217 C743 266 793 350 836 473 C867 561 895 669 913 766 C931 864 940 954 940 1036 L940 1082 C940 1086 939 1105 938 1116 L938 1116 Z M291 389 L905 1274 C888 1298 860 1321 831 1335 C804 1348 767 1356 727 1356 C656 1356 592 1331 536 1274 C482 1219 435 1134 395 1018 C365 931 335 817 316 718 C298 624 287 529 287 457 C287 454 288 435 289 419 C291 392 290 397 291 389 L291 389 Z M1200 1495 L1094 1337 C1115 1292 1128 1252 1137 1205 C1146 1157 1151 1106 1151 1038 C1151 913 1134 776 1099 635 C1062 485 1016 371 962 276 C900 167 834 96 755 47 C670 -6 579 -29 480 -29 C422 -29 374 -21 329 -6 C290 7 246 29 207 63 L113 -70 L14 -6 L133 164 C114 205 102 247 93 293 C84 340 80 391 80 452 C80 578 97 717 132 859 C164 989 208 1110 269 1217 C322 1310 387 1390 476 1445 C558 1496 650 1520 750 1520 C804 1520 855 1513 897 1499 C936 1486 980 1463 1016 1434 L1100 1559 L1200 1495 L1200 1495 Z " />
<glyph glyph-name="Ugrave" unicode="&#xd9;" horiz-adv-x="1233" d="M115 573 L293 1493 L496 1493 L317 573 C316 564 313 551 309 532 C289 434 279 353 279 313 C279 256 300 210 334 181 C370 150 424 135 501 135 C560 135 605 144 649 165 C693 186 728 213 756 254 C770 275 784 303 801 361 C816 413 832 481 850 573 L1028 1493 L1231 1493 L1053 573 C1019 397 992 316 964 253 C931 181 891 129 838 86 C791 48 735 20 676 1 C615 -19 550 -29 477 -29 C351 -29 253 1 184 61 C115 121 80 207 80 315 C80 347 83 372 89 417 C94 455 101 503 115 573 L115 573 Z M737 1899 L884 1635 L745 1635 L555 1899 L737 1899 L737 1899 Z " />
<glyph glyph-name="Uacute" unicode="&#xda;" horiz-adv-x="1233" d="M115 573 L293 1493 L496 1493 L317 573 C316 564 313 551 309 532 C289 434 279 353 279 313 C279 256 300 210 334 181 C370 150 424 135 501 135 C560 135 605 144 649 165 C693 186 728 213 756 254 C770 275 784 303 801 361 C816 413 832 481 850 573 L1028 1493 L1231 1493 L1053 573 C1019 397 992 316 964 253 C931 181 891 129 838 86 C791 48 735 20 676 1 C615 -19 550 -29 477 -29 C351 -29 253 1 184 61 C115 121 80 207 80 315 C80 347 83 372 89 417 C94 455 101 503 115 573 L115 573 Z M889 1899 L1097 1899 L790 1635 L630 1635 L889 1899 L889 1899 Z " />
<glyph glyph-name="Ucircumflex" unicode="&#xdb;" horiz-adv-x="1233" d="M115 573 L293 1493 L496 1493 L317 573 C316 564 313 551 309 532 C289 434 279 353 279 313 C279 256 300 210 334 181 C370 150 424 135 501 135 C560 135 605 144 649 165 C693 186 728 213 756 254 C770 275 784 303 801 361 C816 413 832 481 850 573 L1028 1493 L1231 1493 L1053 573 C1019 397 992 316 964 253 C931 181 891 129 838 86 C791 48 735 20 676 1 C615 -19 550 -29 477 -29 C351 -29 253 1 184 61 C115 121 80 207 80 315 C80 347 83 372 89 417 C94 455 101 503 115 573 L115 573 Z M708 1901 L921 1901 L1079 1635 L946 1635 L807 1813 L598 1635 L446 1635 L708 1901 L708 1901 Z " />
<glyph glyph-name="Udieresis" unicode="&#xdc;" horiz-adv-x="1233" d="M115 573 L293 1493 L496 1493 L317 573 C316 564 313 551 309 532 C289 434 279 353 279 313 C279 256 300 210 334 181 C370 150 424 135 501 135 C560 135 605 144 649 165 C693 186 728 213 756 254 C770 275 784 303 801 361 C816 413 832 481 850 573 L1028 1493 L1231 1493 L1053 573 C1019 397 992 316 964 253 C931 181 891 129 838 86 C791 48 735 20 676 1 C615 -19 550 -29 477 -29 C351 -29 253 1 184 61 C115 121 80 207 80 315 C80 347 83 372 89 417 C94 455 101 503 115 573 L115 573 Z M901 1870 L1104 1870 L1065 1667 L862 1667 L901 1870 L901 1870 Z M510 1870 L714 1870 L673 1667 L471 1667 L510 1870 L510 1870 Z " />
<glyph glyph-name="Yacute" unicode="&#xdd;" horiz-adv-x="1233" d="M195 1493 L397 1493 L633 842 L1130 1493 L1348 1493 L713 670 L584 0 L377 0 L508 670 L195 1493 L195 1493 Z M891 1899 L1099 1899 L792 1635 L632 1635 L891 1899 L891 1899 Z " />
<glyph glyph-name="Thorn" unicode="&#xde;" horiz-adv-x="1233" d="M326 365 L254 0 L51 0 L342 1493 L545 1491 L494 1217 L735 1217 C873 1217 978 1188 1051 1129 C1123 1071 1159 987 1159 867 C1159 720 1105 593 998 502 C891 411 744 365 557 365 L326 365 L326 365 Z M461 1059 L356 522 L590 522 C699 522 787 553 853 614 C919 675 952 759 952 853 C952 932 929 979 890 1010 C849 1043 785 1059 698 1059 L461 1059 L461 1059 Z " />
<glyph glyph-name="germandbls" unicode="&#xdf;" horiz-adv-x="1233" d="M55 0 L276 1137 C303 1276 358 1384 438 1453 C521 1525 632 1556 758 1556 C879 1556 972 1527 1032 1476 C1094 1423 1126 1345 1126 1244 C1126 1226 1125 1202 1122 1179 C1119 1156 1114 1132 1108 1108 C992 1094 901 1065 834 1020 C767 975 733 919 733 857 C733 829 740 809 754 788 C772 761 794 743 834 713 L885 674 C958 618 1010 574 1041 523 C1068 479 1081 428 1081 364 C1081 253 1041 153 952 79 C868 9 752 -29 599 -29 C549 -29 510 -25 462 -16 C408 -6 374 4 330 20 L360 184 C399 163 441 147 486 136 C530 125 576 119 623 119 C710 119 779 140 830 182 C878 222 905 278 905 348 C905 389 896 418 878 445 C856 478 821 507 766 549 L705 596 C648 640 609 674 587 710 C568 741 559 776 559 820 C559 905 593 982 661 1046 C725 1107 815 1153 940 1178 C942 1188 944 1198 945 1208 C946 1217 946 1225 946 1227 C946 1280 934 1328 895 1361 C863 1388 813 1405 747 1405 C671 1405 605 1383 558 1338 C512 1294 480 1229 461 1133 L242 0 L55 0 L55 0 Z " />
<glyph glyph-name="agrave" unicode="&#xe0;" horiz-adv-x="1233" d="M864 563 L692 563 C613 563 554 561 515 556 C476 551 440 541 414 530 C380 516 338 492 305 442 C278 401 264 355 264 307 C264 244 288 201 316 174 C350 142 396 125 460 125 C551 125 639 160 711 231 C782 302 833 405 856 522 L864 563 L864 563 Z M1063 639 L938 0 L754 0 L786 166 C738 103 681 55 616 22 C550 -12 483 -29 407 -29 C309 -29 225 -1 164 54 C101 111 72 189 72 280 C72 400 123 511 226 590 C327 667 471 707 645 707 L891 707 L903 768 C904 773 905 782 906 787 C907 794 907 804 907 806 C907 870 887 916 845 946 C806 974 744 991 663 991 C608 991 545 983 479 966 C412 949 342 923 268 889 L303 1069 C375 1095 443 1115 508 1128 C573 1141 636 1147 693 1147 C815 1147 916 1120 985 1065 C1050 1013 1087 935 1087 839 C1087 816 1085 789 1081 754 C1076 711 1070 676 1063 639 L1063 639 Z M655 1638 L852 1262 L709 1262 L457 1638 L655 1638 L655 1638 Z " />
<glyph glyph-name="aacute" unicode="&#xe1;" horiz-adv-x="1233" d="M864 563 L692 563 C613 563 554 561 515 556 C476 551 440 541 414 530 C380 516 338 492 305 442 C278 401 264 355 264 307 C264 244 288 201 316 174 C350 142 396 125 460 125 C551 125 639 160 711 231 C782 302 833 405 856 522 L864 563 L864 563 Z M1063 639 L938 0 L754 0 L786 166 C738 103 681 55 616 22 C550 -12 483 -29 407 -29 C309 -29 225 -1 164 54 C101 111 72 189 72 280 C72 400 123 511 226 590 C327 667 471 707 645 707 L891 707 L903 768 C904 773 905 782 906 787 C907 794 907 804 907 806 C907 870 887 916 845 946 C806 974 744 991 663 991 C608 991 545 983 479 966 C412 949 342 923 268 889 L303 1069 C375 1095 443 1115 508 1128 C573 1141 636 1147 693 1147 C815 1147 916 1120 985 1065 C1050 1013 1087 935 1087 839 C1087 816 1085 789 1081 754 C1076 711 1070 676 1063 639 L1063 639 Z M911 1638 L1130 1638 L735 1262 L579 1262 L911 1638 L911 1638 Z " />
<glyph glyph-name="acircumflex" unicode="&#xe2;" horiz-adv-x="1233" d="M864 563 L692 563 C613 563 554 561 515 556 C476 551 440 541 414 530 C380 516 338 492 305 442 C278 401 264 355 264 307 C264 244 288 201 316 174 C350 142 396 125 460 125 C551 125 639 160 711 231 C782 302 833 405 856 522 L864 563 L864 563 Z M1063 639 L938 0 L754 0 L786 166 C738 103 681 55 616 22 C550 -12 483 -29 407 -29 C309 -29 225 -1 164 54 C101 111 72 189 72 280 C72 400 123 511 226 590 C327 667 471 707 645 707 L891 707 L903 768 C904 773 905 782 906 787 C907 794 907 804 907 806 C907 870 887 916 845 946 C806 974 744 991 663 991 C608 991 545 983 479 966 C412 949 342 923 268 889 L303 1069 C375 1095 443 1115 508 1128 C573 1141 636 1147 693 1147 C815 1147 916 1120 985 1065 C1050 1013 1087 935 1087 839 C1087 816 1085 789 1081 754 C1076 711 1070 676 1063 639 L1063 639 Z M721 1638 L868 1638 L1032 1262 L899 1262 L782 1503 L557 1262 L401 1262 L721 1638 L721 1638 Z " />
<glyph glyph-name="atilde" unicode="&#xe3;" horiz-adv-x="1233" d="M864 563 L692 563 C613 563 554 561 515 556 C476 551 440 541 414 530 C380 516 338 492 305 442 C278 401 264 355 264 307 C264 244 288 201 316 174 C350 142 396 125 460 125 C551 125 639 160 711 231 C782 302 833 405 856 522 L864 563 L864 563 Z M1063 639 L938 0 L754 0 L786 166 C738 103 681 55 616 22 C550 -12 483 -29 407 -29 C309 -29 225 -1 164 54 C101 111 72 189 72 280 C72 400 123 511 226 590 C327 667 471 707 645 707 L891 707 L903 768 C904 773 905 782 906 787 C907 794 907 804 907 806 C907 870 887 916 845 946 C806 974 744 991 663 991 C608 991 545 983 479 966 C412 949 342 923 268 889 L303 1069 C375 1095 443 1115 508 1128 C573 1141 636 1147 693 1147 C815 1147 916 1120 985 1065 C1050 1013 1087 935 1087 839 C1087 816 1085 789 1081 754 C1076 711 1070 676 1063 639 L1063 639 Z M745 1376 L698 1425 C690 1433 675 1446 662 1453 C651 1459 638 1462 625 1462 C605 1462 581 1455 562 1425 C546 1400 535 1361 530 1309 L405 1309 C416 1400 441 1469 479 1518 C517 1567 566 1591 626 1591 C653 1591 680 1586 702 1576 C724 1566 750 1546 774 1522 L821 1475 C840 1456 843 1453 858 1445 C869 1439 880 1436 892 1436 C919 1436 942 1451 957 1475 C972 1499 984 1539 989 1591 L1114 1591 C1104 1507 1080 1432 1041 1381 C1002 1330 952 1307 894 1307 C867 1307 840 1312 818 1322 C798 1331 773 1347 745 1376 L745 1376 Z " />
<glyph glyph-name="adieresis" unicode="&#xe4;" horiz-adv-x="1233" d="M864 563 L692 563 C613 563 554 561 515 556 C476 551 440 541 414 530 C380 516 338 492 305 442 C278 401 264 355 264 307 C264 244 288 201 316 174 C350 142 396 125 460 125 C551 125 639 160 711 231 C782 302 833 405 856 522 L864 563 L864 563 Z M1063 639 L938 0 L754 0 L786 166 C738 103 681 55 616 22 C550 -12 483 -29 407 -29 C309 -29 225 -1 164 54 C101 111 72 189 72 280 C72 400 123 511 226 590 C327 667 471 707 645 707 L891 707 L903 768 C904 773 905 782 906 787 C907 794 907 804 907 806 C907 870 887 916 845 946 C806 974 744 991 663 991 C608 991 545 983 479 966 C412 949 342 923 268 889 L303 1069 C375 1095 443 1115 508 1128 C573 1141 636 1147 693 1147 C815 1147 916 1120 985 1065 C1050 1013 1087 935 1087 839 C1087 816 1085 789 1081 754 C1076 711 1070 676 1063 639 L1063 639 Z M479 1552 L682 1552 L643 1350 L440 1350 L479 1552 L479 1552 Z M870 1552 L1073 1552 L1034 1350 L831 1350 L870 1552 L870 1552 Z " />
<glyph glyph-name="aring" unicode="&#xe5;" horiz-adv-x="1233" d="M864 563 L692 563 C613 563 554 561 515 556 C476 551 440 541 414 530 C380 516 338 492 305 442 C278 401 264 355 264 307 C264 244 288 201 316 174 C350 142 396 125 460 125 C551 125 639 160 711 231 C782 302 833 405 856 522 L864 563 L864 563 Z M1063 639 L938 0 L754 0 L786 166 C738 103 681 55 616 22 C550 -12 483 -29 407 -29 C309 -29 225 -1 164 54 C101 111 72 189 72 280 C72 400 123 511 226 590 C327 667 471 707 645 707 L891 707 L903 768 C904 773 905 782 906 787 C907 794 907 804 907 806 C907 870 887 916 845 946 C806 974 744 991 663 991 C608 991 545 983 479 966 C412 949 342 923 268 889 L303 1069 C375 1095 443 1115 508 1128 C573 1141 636 1147 693 1147 C815 1147 916 1120 985 1065 C1050 1013 1087 935 1087 839 C1087 816 1085 789 1081 754 C1076 711 1070 676 1063 639 L1063 639 Z M934 1595 C934 1638 919 1674 890 1703 C861 1732 825 1747 782 1747 C739 1747 704 1733 675 1704 C646 1675 631 1638 631 1595 C631 1552 646 1517 675 1488 C704 1459 739 1444 782 1444 C825 1444 861 1459 890 1488 C919 1517 934 1553 934 1595 L934 1595 Z M1057 1595 C1057 1518 1030 1454 977 1401 C924 1348 859 1321 782 1321 C705 1321 641 1348 588 1401 C535 1454 508 1518 508 1595 C508 1672 535 1738 588 1791 C641 1844 705 1870 782 1870 C859 1870 924 1844 977 1791 C1030 1738 1057 1672 1057 1595 L1057 1595 Z " />
<glyph glyph-name="ae" unicode="&#xe6;" horiz-adv-x="1233" d="M487 442 L502 514 L453 514 C364 514 316 510 276 498 C235 486 211 470 188 444 C164 417 152 393 141 362 C129 328 123 295 123 267 C123 231 133 191 161 162 C190 133 230 123 267 123 C322 123 367 146 401 191 C438 240 461 317 487 442 L487 442 Z M1024 657 L1040 731 C1045 754 1048 774 1049 786 C1050 805 1051 826 1051 841 C1051 891 1039 932 1017 957 C995 982 961 995 921 995 C871 995 823 974 788 932 C749 886 729 824 711 739 L694 657 L1024 657 L1024 657 Z M1163 514 L668 514 C652 438 646 403 641 368 C636 331 633 305 633 283 C633 229 652 190 682 163 C714 134 758 119 815 119 C862 119 909 129 957 148 C1004 167 1046 194 1081 227 L1047 55 C1010 29 962 5 922 -8 C878 -22 833 -29 785 -29 C714 -29 653 -14 608 13 C563 40 530 81 514 131 C483 78 444 38 397 11 C350 -16 294 -29 234 -29 C144 -29 72 1 28 43 C-26 94 -47 169 -47 252 C-47 367 -7 476 74 549 C154 621 269 657 418 657 L535 657 L553 745 C556 759 558 770 559 787 C560 801 561 818 561 832 C561 888 545 927 519 953 C494 978 453 995 400 995 C364 995 324 987 284 974 C241 960 190 937 141 911 L176 1079 C234 1104 279 1119 324 1130 C370 1141 411 1147 450 1147 C503 1147 551 1136 590 1114 C629 1092 659 1060 680 1018 C711 1057 754 1092 800 1114 C848 1137 901 1147 950 1147 C1028 1147 1095 1122 1143 1070 C1190 1019 1214 946 1214 867 C1214 839 1211 798 1206 760 C1201 722 1186 636 1180 604 L1163 514 L1163 514 Z " />
<glyph glyph-name="ccedilla" unicode="&#xe7;" horiz-adv-x="1233" d="M569.614 -28.182 C441.268 -22.2936 341.474 15.356 271 84 C194 159 156 271 156 412 C156 511 175 617 209 709 C243 801 296 887 354 950 C418 1020 492 1068 559 1098 C633 1131 715 1147 804 1147 C863 1147 920 1140 975 1126 C1025 1113 1084 1090 1137 1061 L1100 879 C1056 918 1011 946 964 964 C917 982 866 991 810 991 C737 991 670 976 614 947 C558 918 509 872 469 813 C435 763 403 697 382 626 C361 555 350 485 350 418 C350 326 371 251 418 200 C461 154 527 127 625 127 C685 127 749 137 808 158 C870 180 928 213 979 252 L940 51 C883 21 837 5 784 -8 C752.985 -15.7537 721.05 -21.3606 688.025 -24.82 C705.888 -57.4073 719.374 -86.1338 729 -111 C740 -140 746 -170 746 -198 C746 -253 723 -304 676 -341 C631 -376 567 -395 485 -395 C458 -395 426 -393 395 -388 C364 -383 332 -375 301 -365 L326 -236 C353 -249 378 -258 403 -265 C427 -271 448 -274 471 -274 C514 -274 551 -264 576 -244 C601 -224 613 -195 613 -163 C613 -141 607 -114 599 -93 C594.516 -81.0422 583.329 -55.6793 569.614 -28.182 L569.614 -28.182 Z " />
<glyph glyph-name="egrave" unicode="&#xe8;" horiz-adv-x="1233" d="M332 659 L938 659 C942 677 945 692 946 704 C947 715 948 725 948 741 C948 816 926 879 883 924 C840 969 777 991 706 991 C627 991 547 964 477 901 C416 846 361 763 332 659 L332 659 Z M997 240 L961 57 C883 25 825 8 756 -7 C690 -21 630 -29 558 -29 C399 -29 287 11 213 83 C137 157 98 267 98 410 C98 512 118 614 158 714 C198 814 253 900 324 973 C383 1034 443 1075 508 1104 C575 1134 643 1149 719 1149 C845 1149 945 1107 1015 1035 C1088 960 1126 853 1126 731 C1126 703 1124 678 1121 645 C1117 605 1112 568 1104 516 L297 516 C293 495 290 475 288 458 C286 441 285 426 285 409 C285 320 311 249 362 200 C413 151 489 127 584 127 C646 127 709 137 779 156 C848 175 921 203 997 240 L997 240 Z M651 1638 L848 1262 L705 1262 L453 1638 L651 1638 L651 1638 Z " />
<glyph glyph-name="eacute" unicode="&#xe9;" horiz-adv-x="1233" d="M332 659 L938 659 C942 677 945 692 946 704 C947 715 948 725 948 741 C948 816 926 879 883 924 C840 969 777 991 706 991 C627 991 547 964 477 901 C416 846 361 763 332 659 L332 659 Z M997 240 L961 57 C883 25 825 8 756 -7 C690 -21 630 -29 558 -29 C399 -29 287 11 213 83 C137 157 98 267 98 410 C98 512 118 614 158 714 C198 814 253 900 324 973 C383 1034 443 1075 508 1104 C575 1134 643 1149 719 1149 C845 1149 945 1107 1015 1035 C1088 960 1126 853 1126 731 C1126 703 1124 678 1121 645 C1117 605 1112 568 1104 516 L297 516 C293 495 290 475 288 458 C286 441 285 426 285 409 C285 320 311 249 362 200 C413 151 489 127 584 127 C646 127 709 137 779 156 C848 175 921 203 997 240 L997 240 Z M907 1638 L1126 1638 L731 1262 L575 1262 L907 1638 L907 1638 Z " />
<glyph glyph-name="ecircumflex" unicode="&#xea;" horiz-adv-x="1233" d="M332 659 L938 659 C942 677 945 692 946 704 C947 715 948 725 948 741 C948 816 926 879 883 924 C840 969 777 991 706 991 C627 991 547 964 477 901 C416 846 361 763 332 659 L332 659 Z M997 240 L961 57 C883 25 825 8 756 -7 C690 -21 630 -29 558 -29 C399 -29 287 11 213 83 C137 157 98 267 98 410 C98 512 118 614 158 714 C198 814 253 900 324 973 C383 1034 443 1075 508 1104 C575 1134 643 1149 719 1149 C845 1149 945 1107 1015 1035 C1088 960 1126 853 1126 731 C1126 703 1124 678 1121 645 C1117 605 1112 568 1104 516 L297 516 C293 495 290 475 288 458 C286 441 285 426 285 409 C285 320 311 249 362 200 C413 151 489 127 584 127 C646 127 709 137 779 156 C848 175 921 203 997 240 L997 240 Z M717 1638 L864 1638 L1028 1262 L895 1262 L778 1503 L553 1262 L397 1262 L717 1638 L717 1638 Z " />
<glyph glyph-name="edieresis" unicode="&#xeb;" horiz-adv-x="1233" d="M332 659 L938 659 C942 677 945 692 946 704 C947 715 948 725 948 741 C948 816 926 879 883 924 C840 969 777 991 706 991 C627 991 547 964 477 901 C416 846 361 763 332 659 L332 659 Z M997 240 L961 57 C883 25 825 8 756 -7 C690 -21 630 -29 558 -29 C399 -29 287 11 213 83 C137 157 98 267 98 410 C98 512 118 614 158 714 C198 814 253 900 324 973 C383 1034 443 1075 508 1104 C575 1134 643 1149 719 1149 C845 1149 945 1107 1015 1035 C1088 960 1126 853 1126 731 C1126 703 1124 678 1121 645 C1117 605 1112 568 1104 516 L297 516 C293 495 290 475 288 458 C286 441 285 426 285 409 C285 320 311 249 362 200 C413 151 489 127 584 127 C646 127 709 137 779 156 C848 175 921 203 997 240 L997 240 Z M475 1552 L678 1552 L639 1350 L436 1350 L475 1552 L475 1552 Z M866 1552 L1069 1552 L1030 1350 L827 1350 L866 1552 L866 1552 Z " />
<glyph glyph-name="igrave" unicode="&#xec;" horiz-adv-x="1233" d="M358 1120 L829 1120 L639 143 L1004 143 L975 0 L61 0 L90 143 L455 143 L616 977 L330 977 L358 1120 L358 1120 Z M622 1638 L819 1262 L676 1262 L424 1638 L622 1638 L622 1638 Z " />
<glyph glyph-name="iacute" unicode="&#xed;" horiz-adv-x="1233" d="M358 1120 L829 1120 L639 143 L1004 143 L975 0 L61 0 L90 143 L455 143 L616 977 L330 977 L358 1120 L358 1120 Z M878 1638 L1097 1638 L702 1262 L546 1262 L878 1638 L878 1638 Z " />
<glyph glyph-name="icircumflex" unicode="&#xee;" horiz-adv-x="1233" d="M358 1120 L829 1120 L639 143 L1004 143 L975 0 L61 0 L90 143 L455 143 L616 977 L330 977 L358 1120 L358 1120 Z M688 1638 L835 1638 L999 1262 L866 1262 L749 1503 L524 1262 L368 1262 L688 1638 L688 1638 Z " />
<glyph glyph-name="idieresis" unicode="&#xef;" horiz-adv-x="1233" d="M358 1120 L829 1120 L639 143 L1004 143 L975 0 L61 0 L90 143 L455 143 L616 977 L330 977 L358 1120 L358 1120 Z M446 1552 L649 1552 L610 1350 L407 1350 L446 1552 L446 1552 Z M837 1552 L1040 1552 L1001 1350 L798 1350 L837 1552 L837 1552 Z " />
<glyph glyph-name="eth" unicode="&#xf0;" horiz-adv-x="1233" d="M1130 1407 L870 1327 C952 1213 1013 1104 1050 1007 C1087 910 1106 808 1106 701 C1106 616 1094 526 1069 440 C1046 360 1010 279 961 207 C906 126 846 71 771 31 C695 -9 611 -29 516 -29 C388 -29 289 7 221 79 C150 154 119 259 119 389 C119 473 132 556 157 637 C183 720 221 798 266 864 C318 939 381 996 458 1037 C535 1078 623 1098 697 1098 C721 1098 742 1096 772 1093 C779 1092 797 1091 805 1090 C792 1115 777 1142 760 1171 C748 1191 715 1239 692 1272 L395 1178 L365 1270 L639 1356 L498 1556 L711 1556 L815 1411 L1102 1499 L1130 1407 L1130 1407 Z M874 907 C849 920 824 929 797 935 C770 941 742 944 714 944 C590 944 492 886 424 789 C349 682 313 535 313 398 C313 309 328 239 370 192 C405 153 461 127 534 127 C639 127 736 182 806 288 C876 395 911 540 911 702 C911 750 908 786 902 820 C896 853 887 882 874 907 L874 907 Z " />
<glyph glyph-name="ntilde" unicode="&#xf1;" horiz-adv-x="1233" d="M1075 694 L940 0 L756 0 L891 695 C895 707 892 701 894 709 C904 764 909 782 909 816 C909 874 894 915 863 944 C832 973 787 987 729 987 C644 987 572 956 513 894 C454 832 413 745 391 633 L268 0 L84 0 L303 1120 L487 1120 L455 952 C505 1017 559 1065 618 1098 C675 1130 733 1147 807 1147 C894 1147 968 1123 1019 1075 C1069 1028 1096 957 1096 877 C1096 855 1094 820 1091 793 C1089 775 1083 734 1075 694 L1075 694 Z M741 1376 L694 1425 C686 1433 671 1446 658 1453 C647 1459 634 1462 621 1462 C601 1462 577 1455 558 1425 C542 1400 531 1361 526 1309 L401 1309 C412 1400 437 1469 475 1518 C513 1567 562 1591 622 1591 C649 1591 676 1586 698 1576 C720 1566 746 1546 770 1522 L817 1475 C836 1456 839 1453 854 1445 C865 1439 876 1436 888 1436 C915 1436 938 1451 953 1475 C968 1499 980 1539 985 1591 L1110 1591 C1100 1507 1076 1432 1037 1381 C998 1330 948 1307 890 1307 C863 1307 836 1312 814 1322 C794 1331 769 1347 741 1376 L741 1376 Z " />
<glyph glyph-name="ograve" unicode="&#xf2;" horiz-adv-x="1233" d="M702 991 C583 991 489 927 422 820 C353 709 313 558 313 402 C313 307 328 237 369 191 C408 148 467 127 533 127 C646 127 743 188 812 298 C883 411 920 566 920 718 C920 814 905 881 864 927 C824 972 767 991 702 991 L702 991 Z M717 1147 C843 1147 943 1111 1012 1040 C1080 969 1114 865 1114 726 C1114 636 1100 544 1073 453 C1043 354 1002 272 958 207 C903 126 841 69 766 30 C691 -9 603 -29 509 -29 C382 -29 285 8 218 80 C156 147 117 252 117 396 C117 483 131 573 158 663 C185 753 224 837 274 910 C329 990 390 1047 464 1087 C539 1127 623 1147 717 1147 L717 1147 Z M651 1638 L848 1262 L705 1262 L453 1638 L651 1638 L651 1638 Z " />
<glyph glyph-name="oacute" unicode="&#xf3;" horiz-adv-x="1233" d="M702 991 C583 991 489 927 422 820 C353 709 313 558 313 402 C313 307 328 237 369 191 C408 148 467 127 533 127 C646 127 743 188 812 298 C883 411 920 566 920 718 C920 814 905 881 864 927 C824 972 767 991 702 991 L702 991 Z M717 1147 C843 1147 943 1111 1012 1040 C1080 969 1114 865 1114 726 C1114 636 1100 544 1073 453 C1043 354 1002 272 958 207 C903 126 841 69 766 30 C691 -9 603 -29 509 -29 C382 -29 285 8 218 80 C156 147 117 252 117 396 C117 483 131 573 158 663 C185 753 224 837 274 910 C329 990 390 1047 464 1087 C539 1127 623 1147 717 1147 L717 1147 Z M907 1638 L1126 1638 L731 1262 L575 1262 L907 1638 L907 1638 Z " />
<glyph glyph-name="ocircumflex" unicode="&#xf4;" horiz-adv-x="1233" d="M702 991 C583 991 489 927 422 820 C353 709 313 558 313 402 C313 307 328 237 369 191 C408 148 467 127 533 127 C646 127 743 188 812 298 C883 411 920 566 920 718 C920 814 905 881 864 927 C824 972 767 991 702 991 L702 991 Z M717 1147 C843 1147 943 1111 1012 1040 C1080 969 1114 865 1114 726 C1114 636 1100 544 1073 453 C1043 354 1002 272 958 207 C903 126 841 69 766 30 C691 -9 603 -29 509 -29 C382 -29 285 8 218 80 C156 147 117 252 117 396 C117 483 131 573 158 663 C185 753 224 837 274 910 C329 990 390 1047 464 1087 C539 1127 623 1147 717 1147 L717 1147 Z M717 1638 L864 1638 L1028 1262 L895 1262 L778 1503 L553 1262 L397 1262 L717 1638 L717 1638 Z " />
<glyph glyph-name="otilde" unicode="&#xf5;" horiz-adv-x="1233" d="M702 991 C583 991 489 927 422 820 C353 709 313 558 313 402 C313 307 328 237 369 191 C408 148 467 127 533 127 C646 127 743 188 812 298 C883 411 920 566 920 718 C920 814 905 881 864 927 C824 972 767 991 702 991 L702 991 Z M717 1147 C843 1147 943 1111 1012 1040 C1080 969 1114 865 1114 726 C1114 636 1100 544 1073 453 C1043 354 1002 272 958 207 C903 126 841 69 766 30 C691 -9 603 -29 509 -29 C382 -29 285 8 218 80 C156 147 117 252 117 396 C117 483 131 573 158 663 C185 753 224 837 274 910 C329 990 390 1047 464 1087 C539 1127 623 1147 717 1147 L717 1147 Z M741 1376 L694 1425 C686 1433 671 1446 658 1453 C647 1459 634 1462 621 1462 C601 1462 577 1455 558 1425 C542 1400 531 1361 526 1309 L401 1309 C412 1400 437 1469 475 1518 C513 1567 562 1591 622 1591 C649 1591 676 1586 698 1576 C720 1566 746 1546 770 1522 L817 1475 C836 1456 839 1453 854 1445 C865 1439 876 1436 888 1436 C915 1436 938 1451 953 1475 C968 1499 980 1539 985 1591 L1110 1591 C1100 1507 1076 1432 1037 1381 C998 1330 948 1307 890 1307 C863 1307 836 1312 814 1322 C794 1331 769 1347 741 1376 L741 1376 Z " />
<glyph glyph-name="odieresis" unicode="&#xf6;" horiz-adv-x="1233" d="M702 991 C583 991 489 927 422 820 C353 709 313 558 313 402 C313 307 328 237 369 191 C408 148 467 127 533 127 C646 127 743 188 812 298 C883 411 920 566 920 718 C920 814 905 881 864 927 C824 972 767 991 702 991 L702 991 Z M717 1147 C843 1147 943 1111 1012 1040 C1080 969 1114 865 1114 726 C1114 636 1100 544 1073 453 C1043 354 1002 272 958 207 C903 126 841 69 766 30 C691 -9 603 -29 509 -29 C382 -29 285 8 218 80 C156 147 117 252 117 396 C117 483 131 573 158 663 C185 753 224 837 274 910 C329 990 390 1047 464 1087 C539 1127 623 1147 717 1147 L717 1147 Z M475 1552 L678 1552 L639 1350 L436 1350 L475 1552 L475 1552 Z M866 1552 L1069 1552 L1030 1350 L827 1350 L866 1552 L866 1552 Z " />
<glyph glyph-name="divide" unicode="&#xf7;" horiz-adv-x="1233" d="M494 395 L739 395 L739 150 L494 150 L494 395 L494 395 Z M494 1135 L739 1135 L739 889 L494 889 L494 1135 L494 1135 Z M88 727 L1145 727 L1145 557 L88 557 L88 727 L88 727 Z " />
<glyph glyph-name="oslash" unicode="&#xf8;" horiz-adv-x="1233" d="M911 825 L377 186 C397 166 418 152 446 142 C471 133 498 127 534 127 C644 127 739 185 811 299 C877 404 920 552 920 725 C920 751 919 770 918 782 C917 795 915 809 911 825 L911 825 Z M47 -20 L176 133 C157 165 142 202 133 245 C124 288 119 334 119 391 C119 482 132 576 159 666 C184 749 224 839 274 912 C324 985 392 1050 467 1089 C541 1128 628 1147 724 1147 C778 1147 823 1141 863 1129 C903 1117 938 1099 969 1075 L1081 1212 L1174 1135 L1051 989 C1073 955 1090 912 1099 875 C1109 834 1114 780 1114 726 C1114 635 1100 544 1073 453 C1044 357 1004 275 958 207 C903 126 841 69 766 30 C691 -9 604 -29 507 -29 C454 -29 414 -23 371 -10 C334 1 296 17 258 45 L139 -96 L47 -20 L47 -20 Z M319 302 L852 938 C829 959 802 973 785 979 C765 986 731 991 698 991 C585 991 494 932 423 819 C353 708 313 562 313 389 C313 362 314 353 315 340 C316 334 317 312 319 302 L319 302 Z " />
<glyph glyph-name="ugrave" unicode="&#xf9;" horiz-adv-x="1233" d="M143 426 L276 1120 L461 1120 L326 426 C321 399 317 370 315 355 C312 332 311 311 311 298 C311 249 325 205 358 175 C389 147 435 133 489 133 C571 133 645 164 704 225 C761 285 803 374 825 487 L948 1120 L1133 1120 L915 0 L731 0 L764 168 C715 103 661 54 602 22 C540 -12 477 -27 409 -27 C323 -27 252 -3 201 46 C149 96 125 167 125 248 C125 272 127 301 130 332 C134 372 137 393 143 426 L143 426 Z M647 1638 L844 1262 L701 1262 L449 1638 L647 1638 L647 1638 Z " />
<glyph glyph-name="uacute" unicode="&#xfa;" horiz-adv-x="1233" d="M143 426 L276 1120 L461 1120 L326 426 C321 399 317 370 315 355 C312 332 311 311 311 298 C311 249 325 205 358 175 C389 147 435 133 489 133 C571 133 645 164 704 225 C761 285 803 374 825 487 L948 1120 L1133 1120 L915 0 L731 0 L764 168 C715 103 661 54 602 22 C540 -12 477 -27 409 -27 C323 -27 252 -3 201 46 C149 96 125 167 125 248 C125 272 127 301 130 332 C134 372 137 393 143 426 L143 426 Z M903 1638 L1122 1638 L727 1262 L571 1262 L903 1638 L903 1638 Z " />
<glyph glyph-name="ucircumflex" unicode="&#xfb;" horiz-adv-x="1233" d="M143 426 L276 1120 L461 1120 L326 426 C321 399 317 370 315 355 C312 332 311 311 311 298 C311 249 325 205 358 175 C389 147 435 133 489 133 C571 133 645 164 704 225 C761 285 803 374 825 487 L948 1120 L1133 1120 L915 0 L731 0 L764 168 C715 103 661 54 602 22 C540 -12 477 -27 409 -27 C323 -27 252 -3 201 46 C149 96 125 167 125 248 C125 272 127 301 130 332 C134 372 137 393 143 426 L143 426 Z M713 1638 L860 1638 L1024 1262 L891 1262 L774 1503 L549 1262 L393 1262 L713 1638 L713 1638 Z " />
<glyph glyph-name="udieresis" unicode="&#xfc;" horiz-adv-x="1233" d="M143 426 L276 1120 L461 1120 L326 426 C321 399 317 370 315 355 C312 332 311 311 311 298 C311 249 325 205 358 175 C389 147 435 133 489 133 C571 133 645 164 704 225 C761 285 803 374 825 487 L948 1120 L1133 1120 L915 0 L731 0 L764 168 C715 103 661 54 602 22 C540 -12 477 -27 409 -27 C323 -27 252 -3 201 46 C149 96 125 167 125 248 C125 272 127 301 130 332 C134 372 137 393 143 426 L143 426 Z M471 1552 L674 1552 L635 1350 L432 1350 L471 1552 L471 1552 Z M862 1552 L1065 1552 L1026 1350 L823 1350 L862 1552 L862 1552 Z " />
<glyph glyph-name="yacute" unicode="&#xfd;" horiz-adv-x="1233" d="M1225 1120 L786 360 C754 305 687 188 621 72 C512 -119 452 -223 412 -276 C375 -325 329 -364 280 -389 C230 -414 173 -426 109 -426 L-39 -426 L-10 -272 L98 -272 C155 -272 199 -257 238 -225 C280 -191 319 -138 356 -66 L399 18 L182 1120 L365 1120 L537 258 L1020 1120 L1225 1120 L1225 1120 Z M907 1638 L1126 1638 L731 1262 L575 1262 L907 1638 L907 1638 Z " />
<glyph glyph-name="thorn" unicode="&#xfe;" horiz-adv-x="1233" d="M293 141 L182 -426 L-2 -426 L385 1567 L569 1567 L455 977 C496 1032 545 1074 602 1103 C659 1132 720 1147 788 1147 C889 1147 979 1114 1040 1043 C1099 974 1128 872 1128 744 C1128 659 1115 561 1089 465 C1061 363 1021 277 979 211 C928 131 870 73 802 32 C734 -9 659 -29 578 -29 C511 -29 455 -15 408 13 C361 41 322 84 293 141 L293 141 Z M567 127 C624 127 676 144 718 172 C763 202 798 244 829 301 C863 364 888 436 906 509 C925 586 934 665 934 731 C934 828 915 889 883 928 C847 972 793 991 728 991 C671 991 622 976 576 946 C527 914 492 872 459 813 C425 752 399 681 382 611 C363 535 354 454 354 392 C354 301 373 237 409 194 C446 150 501 127 567 127 L567 127 Z " />
<glyph glyph-name="ydieresis" unicode="&#xff;" horiz-adv-x="1233" d="M1225 1120 L786 360 C754 305 687 188 621 72 C512 -119 452 -223 412 -276 C375 -325 329 -364 280 -389 C230 -414 173 -426 109 -426 L-39 -426 L-10 -272 L98 -272 C155 -272 199 -257 238 -225 C280 -191 319 -138 356 -66 L399 18 L182 1120 L365 1120 L537 258 L1020 1120 L1225 1120 L1225 1120 Z M475 1552 L678 1552 L639 1350 L436 1350 L475 1552 L475 1552 Z M866 1552 L1069 1552 L1030 1350 L827 1350 L866 1552 L866 1552 Z " />
<glyph glyph-name="Cacute" unicode="&#x106;" horiz-adv-x="1233" d="M983 260 L944 53 C888 26 832 5 775 -9 C725 -21 660 -29 597 -29 C440 -29 320 21 241 103 C159 188 115 315 115 492 C115 623 139 770 185 913 C233 1062 293 1172 369 1266 C443 1357 520 1417 606 1458 C692 1499 788 1520 893 1520 C954 1520 1005 1513 1058 1499 C1111 1485 1162 1465 1212 1438 L1171 1231 C1128 1273 1083 1304 1036 1325 C989 1346 938 1356 884 1356 C822 1356 763 1343 709 1316 C655 1289 604 1247 557 1192 C489 1112 432 1004 390 878 C346 744 326 614 326 503 C326 377 352 286 404 226 C449 174 522 135 628 135 C685 135 745 146 805 167 C865 188 924 219 983 260 L983 260 Z M1008 1899 L1216 1899 L909 1635 L749 1635 L1008 1899 L1008 1899 Z " />
<glyph glyph-name="cacute" unicode="&#x107;" horiz-adv-x="1233" d="M979 252 L940 51 C883 21 837 5 784 -8 C728 -22 669 -29 606 -29 C460 -29 348 9 271 84 C194 159 156 271 156 412 C156 511 175 617 209 709 C243 801 296 887 354 950 C418 1020 492 1068 559 1098 C633 1131 715 1147 804 1147 C863 1147 920 1140 975 1126 C1025 1113 1084 1090 1137 1061 L1100 879 C1056 918 1011 946 964 964 C917 982 866 991 810 991 C737 991 670 976 614 947 C558 918 509 872 469 813 C435 763 403 697 382 626 C361 555 350 485 350 418 C350 326 371 251 418 200 C461 154 527 127 625 127 C685 127 749 137 808 158 C870 180 928 213 979 252 L979 252 Z M997 1638 L1216 1638 L821 1262 L665 1262 L997 1638 L997 1638 Z " />
<glyph glyph-name="Ccaron" unicode="&#x10c;" horiz-adv-x="1233" d="M983 260 L944 53 C888 26 832 5 775 -9 C725 -21 660 -29 597 -29 C440 -29 320 21 241 103 C159 188 115 315 115 492 C115 623 139 770 185 913 C233 1062 293 1172 369 1266 C443 1357 520 1417 606 1458 C692 1499 788 1520 893 1520 C954 1520 1005 1513 1058 1499 C1111 1485 1162 1465 1212 1438 L1171 1231 C1128 1273 1083 1304 1036 1325 C989 1346 938 1356 884 1356 C822 1356 763 1343 709 1316 C655 1289 604 1247 557 1192 C489 1112 432 1004 390 878 C346 744 326 614 326 503 C326 377 352 286 404 226 C449 174 522 135 628 135 C685 135 745 146 805 167 C865 188 924 219 983 260 L983 260 Z M987 1635 L774 1635 L616 1901 L752 1901 L891 1723 L1100 1901 L1251 1901 L987 1635 L987 1635 Z " />
<glyph glyph-name="ccaron" unicode="&#x10d;" horiz-adv-x="1233" d="M979 252 L940 51 C883 21 837 5 784 -8 C728 -22 669 -29 606 -29 C460 -29 348 9 271 84 C194 159 156 271 156 412 C156 511 175 617 209 709 C243 801 296 887 354 950 C418 1020 492 1068 559 1098 C633 1131 715 1147 804 1147 C863 1147 920 1140 975 1126 C1025 1113 1084 1090 1137 1061 L1100 879 C1056 918 1011 946 964 964 C917 982 866 991 810 991 C737 991 670 976 614 947 C558 918 509 872 469 813 C435 763 403 697 382 626 C361 555 350 485 350 418 C350 326 371 251 418 200 C461 154 527 127 625 127 C685 127 749 137 808 158 C870 180 928 213 979 252 L979 252 Z M872 1262 L725 1262 L561 1638 L692 1638 L811 1395 L1036 1638 L1192 1638 L872 1262 L872 1262 Z " />
<glyph glyph-name="dcroat" unicode="&#x111;" horiz-adv-x="1233" d="M682 991 C626 991 572 975 531 948 C487 919 447 872 417 817 C389 766 359 685 342 613 C324 538 315 455 315 388 C315 296 332 234 366 191 C400 148 451 127 518 127 C575 127 626 142 672 172 C719 203 755 246 788 305 C821 364 846 430 865 508 C883 582 893 661 893 728 C893 817 875 880 840 924 C807 965 754 991 682 991 L682 991 Z M954 977 L1016 1286 L684 1286 L709 1407 L1038 1407 L1069 1556 L1253 1556 L1223 1407 L1415 1407 L1393 1286 L1200 1286 L950 0 L766 0 L793 141 C750 85 701 43 646 14 C591 -15 530 -29 462 -29 C349 -29 268 9 210 76 C149 146 119 241 119 374 C119 461 132 560 159 657 C187 758 225 841 268 909 C319 989 376 1046 445 1087 C511 1126 585 1147 668 1147 C736 1147 791 1133 840 1104 C890 1074 927 1032 954 977 L954 977 Z " />
<glyph glyph-name="Gbreve" unicode="&#x11e;" horiz-adv-x="1233" d="M1102 766 L969 96 C911 55 850 25 779 3 C711 -18 642 -29 564 -29 C402 -29 283 18 202 106 C119 197 78 328 78 488 C78 550 84 613 95 681 C105 742 123 825 143 893 C165 968 194 1042 225 1105 C258 1171 293 1223 328 1267 C394 1349 476 1415 566 1458 C652 1499 748 1520 854 1520 C915 1520 967 1513 1020 1499 C1073 1485 1125 1465 1176 1438 L1135 1231 C1089 1276 1040 1307 999 1325 C951 1346 900 1356 846 1356 C780 1356 716 1341 662 1315 C606 1288 551 1244 508 1192 C478 1156 450 1112 425 1062 C397 1006 375 948 356 887 C333 813 316 738 305 673 C293 604 287 549 287 494 C287 378 313 290 366 228 C419 166 492 135 592 135 C640 135 677 142 712 154 C750 167 778 184 803 207 L879 600 L662 600 L692 766 L1102 766 L1102 766 Z M508 1901 L622 1901 C633 1860 651 1831 678 1813 C704 1795 741 1786 795 1786 C849 1786 897 1795 933 1814 C967 1832 995 1862 1013 1901 L1134 1901 C1112 1826 1070 1767 1009 1724 C947 1681 873 1659 788 1659 C708 1659 645 1679 598 1720 C554 1758 522 1814 508 1901 L508 1901 Z " />
<glyph glyph-name="gbreve" unicode="&#x11f;" horiz-adv-x="1233" d="M512 145 C563 145 612 159 658 190 C701 219 739 263 770 319 C804 380 832 459 847 521 C865 594 874 674 874 733 C874 817 856 880 818 925 C781 969 727 991 664 991 C553 991 464 924 402 823 C336 716 297 565 297 419 C297 312 318 254 353 213 C391 169 446 145 512 145 L512 145 Z M1145 1116 L942 72 C907 -108 845 -240 756 -320 C667 -400 539 -440 376 -440 C319 -440 267 -435 214 -426 C161 -417 109 -403 59 -385 L96 -203 C147 -233 195 -255 248 -270 C300 -285 353 -293 406 -293 C505 -293 582 -266 637 -213 C692 -160 730 -74 756 53 L780 170 C741 112 693 68 635 38 C576 7 510 -8 443 -8 C338 -8 251 29 192 99 C131 171 102 274 102 398 C102 481 115 576 142 668 C170 763 208 842 254 911 C307 990 363 1044 432 1085 C501 1126 573 1147 648 1147 C714 1147 773 1131 824 1099 C870 1070 910 1025 934 965 L961 1116 L1145 1116 L1145 1116 Z M472 1608 L592 1608 L592 1591 C592 1548 607 1515 636 1492 C665 1469 708 1458 762 1458 C818 1458 862 1470 897 1495 C931 1519 960 1557 979 1608 L1098 1608 C1077 1514 1036 1443 977 1394 C917 1345 841 1321 748 1321 C659 1321 590 1343 542 1384 C489 1430 469 1496 469 1571 C469 1588 470 1590 470 1592 C470 1595 470 1598 472 1608 L472 1608 Z " />
<glyph glyph-name="Idotaccent" unicode="&#x130;" horiz-adv-x="1233" d="M346 1493 L1176 1493 L1143 1323 L829 1323 L606 170 L920 170 L887 0 L57 0 L90 170 L403 170 L627 1323 L313 1323 L346 1493 L346 1493 Z M719 1872 L921 1872 L882 1667 L678 1667 L719 1872 L719 1872 Z " />
<glyph glyph-name="dotlessi" unicode="&#x131;" horiz-adv-x="1233" d="M358 1120 L829 1120 L639 143 L1004 143 L975 0 L61 0 L90 143 L455 143 L616 977 L330 977 L358 1120 L358 1120 Z " />
<glyph glyph-name="Lslash" unicode="&#x141;" horiz-adv-x="1233" d="M371 1491 L573 1491 L459 899 L756 1108 L829 1008 L430 729 L317 168 L1038 168 L1006 0 L82 0 L195 563 L45 459 L-29 559 L231 739 L371 1491 L371 1491 Z " />
<glyph glyph-name="lslash" unicode="&#x142;" horiz-adv-x="1233" d="M690 840 L600 408 C595 383 592 360 590 344 C587 324 586 314 586 301 C586 250 601 216 631 192 C660 168 705 156 766 156 L977 156 L946 0 L739 0 C615 0 535 24 482 64 C425 107 397 170 397 258 C397 282 399 306 402 333 C405 359 410 386 416 412 L475 698 L162 479 L88 578 L512 870 L627 1423 L311 1423 L340 1567 L840 1567 L725 1014 L1040 1231 L1114 1133 L690 840 L690 840 Z " />
<glyph glyph-name="OE" unicode="&#x152;" horiz-adv-x="1233" d="M1104 170 L1071 0 L467 0 C324 0 213 34 141 103 C67 174 35 283 35 424 C35 506 46 621 68 742 C89 858 119 973 154 1067 C213 1226 288 1332 379 1396 C471 1461 597 1493 758 1493 L1352 1493 L1319 1323 L961 1323 L874 881 L1202 881 L1169 711 L842 711 L735 170 L1104 170 L1104 170 Z M764 1323 L702 1323 C623 1323 556 1305 501 1269 C439 1229 402 1175 371 1106 C354 1068 340 1028 322 961 C300 880 289 829 272 745 C262 694 248 619 240 556 C233 501 229 452 229 416 C229 336 249 272 292 230 C336 188 401 170 477 170 L539 170 L764 1323 L764 1323 Z " />
<glyph glyph-name="oe" unicode="&#x153;" horiz-adv-x="1233" d="M735 1020 C774 1062 816 1094 861 1115 C906 1136 955 1147 1008 1147 C1089 1147 1154 1122 1201 1071 C1248 1020 1272 949 1272 862 C1272 831 1269 797 1264 754 C1258 709 1249 657 1239 604 L1223 514 L721 514 C706 438 700 404 695 368 C689 329 686 307 686 285 C686 230 703 192 735 163 C767 134 811 119 868 119 C914 119 963 129 1010 148 C1057 167 1099 194 1135 227 L1100 55 C1055 24 1015 6 975 -7 C932 -21 891 -29 839 -29 C775 -29 720 -17 675 6 C630 29 596 61 573 104 C534 61 491 28 444 5 C396 -18 346 -29 288 -29 C196 -29 122 -1 71 54 C20 109 -6 190 -6 292 C-6 326 -3 372 2 414 C5 440 14 505 24 559 C37 629 60 717 77 774 C92 824 116 886 145 938 C181 1003 228 1057 291 1094 C351 1129 421 1147 495 1147 C552 1147 599 1136 640 1113 C680 1091 713 1059 735 1020 L735 1020 Z M754 653 L1083 653 L1098 729 C1103 755 1106 779 1107 788 C1109 807 1110 826 1110 841 C1110 890 1099 926 1077 952 C1055 978 1025 991 981 991 C922 991 880 967 847 926 C807 877 780 806 768 735 L754 653 L754 653 Z M309 123 C348 123 387 135 419 158 C457 185 478 222 495 260 C508 289 517 314 534 379 C550 440 564 501 575 560 C587 624 597 690 603 735 C609 780 612 812 612 836 C612 884 600 925 576 953 C552 981 519 995 472 995 C424 995 389 981 361 961 C329 938 306 906 285 856 C270 821 255 775 243 729 C229 676 216 617 205 559 C196 512 185 451 178 400 C171 351 168 315 168 289 C168 237 180 196 205 167 C230 138 266 123 309 123 L309 123 Z " />
<glyph glyph-name="Scedilla" unicode="&#x15e;" horiz-adv-x="1233" d="M450.963 -28.882 C445.667 -28.9605 440.346 -29 435 -29 C358 -29 293 -21 226 -6 C159 9 92 31 25 61 L66 270 C131 224 198 190 265 168 C332 146 404 135 475 135 C589 135 676 164 745 223 C814 282 848 357 848 444 C848 502 833 543 804 573 C770 608 714 631 627 659 L526 692 C419 727 327 766 269 824 C220 873 195 934 195 1025 C195 1159 249 1286 360 1380 C470 1473 619 1520 783 1520 C846 1520 903 1513 962 1500 C1008 1490 1075 1471 1147 1442 L1108 1237 C1054 1276 998 1306 940 1326 C882 1346 823 1356 759 1356 C646 1356 554 1325 490 1274 C426 1223 387 1150 387 1068 C387 1016 403 979 436 950 C469 921 526 894 614 866 L735 827 C847 791 921 752 974 694 C1024 638 1049 571 1049 473 C1049 327 994 201 883 109 C799.766 40.0132 692.354 -3.10845 566.666 -20.365 C587.275 -57.2723 601.516 -88.0945 610 -111 C622 -143 627 -172 627 -198 C627 -253 604 -304 557 -341 C512 -376 448 -395 366 -395 C339 -395 307 -393 276 -388 C245 -383 213 -375 182 -365 L207 -236 C234 -249 259 -258 284 -265 C308 -271 329 -274 352 -274 C395 -274 432 -264 457 -244 C482 -224 494 -195 494 -163 C494 -141 488 -114 480 -93 C475.554 -81.1438 464.519 -56.109 450.963 -28.882 L450.963 -28.882 Z " />
<glyph glyph-name="scedilla" unicode="&#x15f;" horiz-adv-x="1233" d="M450.825 -28.605 C397.001 -26.9965 345.052 -20.6105 302 -12 C242 0 179 19 115 41 L152 231 C215 196 276 169 335 152 C395 134 449 125 507 125 C594 125 667 145 723 185 C779 225 807 277 807 329 C807 399 757 447 611 487 C599 490 590 492 583 494 L516 512 C430 535 368 565 327 608 C286 651 266 709 266 780 C266 885 310 980 397 1047 C479 1110 600 1147 755 1147 C812 1147 869 1142 923 1131 C977 1120 1028 1103 1077 1081 L1042 901 C995 931 940 956 893 970 C843 985 787 993 731 993 C649 993 575 976 525 942 C472 906 449 854 449 807 C449 714 541 683 670 645 C690 639 685 641 692 639 L764 621 C832 604 896 573 939 529 C978 488 997 439 997 369 C997 256 946 154 853 82 C777.48 23.7863 678.443 -11.5293 568.547 -23.948 C586.648 -56.8948 600.289 -85.9124 610 -111 C621 -140 627 -170 627 -198 C627 -253 604 -304 557 -341 C512 -376 448 -395 366 -395 C339 -395 307 -393 276 -388 C245 -383 213 -375 182 -365 L207 -236 C234 -249 259 -258 284 -265 C308 -271 329 -274 352 -274 C395 -274 432 -264 457 -244 C482 -224 494 -195 494 -163 C494 -141 488 -114 480 -93 C475.539 -81.1036 464.444 -55.9391 450.825 -28.605 L450.825 -28.605 Z " />
<glyph glyph-name="Scaron" unicode="&#x160;" horiz-adv-x="1233" d="M1147 1442 L1108 1237 C1054 1276 998 1306 940 1326 C882 1346 823 1356 759 1356 C646 1356 554 1325 490 1274 C426 1223 387 1150 387 1068 C387 1016 403 979 436 950 C469 921 526 894 614 866 L735 827 C847 791 921 752 974 694 C1024 638 1049 571 1049 473 C1049 327 994 201 883 109 C772 17 618 -29 435 -29 C358 -29 293 -21 226 -6 C159 9 92 31 25 61 L66 270 C131 224 198 190 265 168 C332 146 404 135 475 135 C589 135 676 164 745 223 C814 282 848 357 848 444 C848 502 833 543 804 573 C770 608 714 631 627 659 L526 692 C419 727 327 766 269 824 C220 873 195 934 195 1025 C195 1159 249 1286 360 1380 C470 1473 619 1520 783 1520 C846 1520 903 1513 962 1500 C1008 1490 1075 1471 1147 1442 L1147 1442 Z M870 1635 L657 1635 L499 1901 L635 1901 L774 1723 L983 1901 L1134 1901 L870 1635 L870 1635 Z " />
<glyph glyph-name="scaron" unicode="&#x161;" horiz-adv-x="1233" d="M1077 1081 L1042 901 C995 931 940 956 893 970 C843 985 787 993 731 993 C649 993 575 976 525 942 C472 906 449 854 449 807 C449 714 541 683 670 645 C690 639 685 641 692 639 L764 621 C832 604 896 573 939 529 C978 488 997 439 997 369 C997 256 946 154 853 82 C757 8 623 -29 477 -29 C414 -29 352 -22 302 -12 C242 0 179 19 115 41 L152 231 C215 196 276 169 335 152 C395 134 449 125 507 125 C594 125 667 145 723 185 C779 225 807 277 807 329 C807 399 757 447 611 487 C599 490 590 492 583 494 L516 512 C430 535 368 565 327 608 C286 651 266 709 266 780 C266 885 310 980 397 1047 C479 1110 600 1147 755 1147 C812 1147 869 1142 923 1131 C977 1120 1028 1103 1077 1081 L1077 1081 Z M782 1262 L635 1262 L471 1638 L602 1638 L721 1395 L946 1638 L1102 1638 L782 1262 L782 1262 Z " />
<glyph glyph-name="Ydieresis" unicode="&#x178;" horiz-adv-x="1233" d="M195 1493 L397 1493 L633 842 L1130 1493 L1348 1493 L713 670 L584 0 L377 0 L508 670 L195 1493 L195 1493 Z M903 1870 L1106 1870 L1067 1667 L864 1667 L903 1870 L903 1870 Z M512 1870 L716 1870 L675 1667 L473 1667 L512 1870 L512 1870 Z " />
<glyph glyph-name="Zcaron" unicode="&#x17d;" horiz-adv-x="1233" d="M305 1493 L1274 1493 L1245 1339 L266 170 L1040 170 L1006 0 L-6 0 L23 154 L999 1323 L272 1323 L305 1493 L305 1493 Z M870 1635 L657 1635 L499 1901 L635 1901 L774 1723 L983 1901 L1134 1901 L870 1635 L870 1635 Z " />
<glyph glyph-name="zcaron" unicode="&#x17e;" horiz-adv-x="1233" d="M319 1120 L1133 1120 L1100 952 L315 147 L944 147 L915 0 L78 0 L111 168 L895 973 L291 973 L319 1120 L319 1120 Z M782 1262 L635 1262 L471 1638 L602 1638 L721 1395 L946 1638 L1102 1638 L782 1262 L782 1262 Z " />
<glyph glyph-name="florin" unicode="&#x192;" horiz-adv-x="1233" d="M1200 1520 L1200 1356 C1180 1372 1149 1390 1123 1399 C1100 1407 1070 1413 1035 1413 C967 1413 916 1390 879 1351 C838 1308 815 1244 803 1159 L758 848 L1061 848 L1061 705 L733 705 L633 70 C606 -100 558 -232 491 -311 C426 -387 330 -426 203 -426 C168 -426 131 -423 97 -416 C63 -409 31 -398 0 -383 L0 -219 C36 -242 67 -256 99 -267 C132 -278 166 -283 195 -283 C265 -283 316 -255 354 -208 C392 -161 422 -88 440 18 L557 705 L305 705 L305 848 L580 848 L629 1178 C647 1300 689 1390 754 1456 C820 1523 901 1556 1002 1556 C1033 1556 1067 1553 1100 1547 C1133 1541 1166 1532 1200 1520 L1200 1520 Z " />
<glyph glyph-name="circumflex" unicode="&#x2c6;" horiz-adv-x="1233" d="M717 1638 L864 1638 L1028 1262 L895 1262 L778 1503 L553 1262 L397 1262 L717 1638 L717 1638 Z " />
<glyph glyph-name="caron" unicode="&#x2c7;" horiz-adv-x="1233" d="M782 1262 L635 1262 L471 1638 L602 1638 L721 1395 L946 1638 L1102 1638 L782 1262 L782 1262 Z " />
<glyph glyph-name="breve" unicode="&#x2d8;" horiz-adv-x="1233" d="M472 1608 L592 1608 L592 1591 C592 1548 607 1515 636 1492 C665 1469 707 1458 764 1458 C817 1458 862 1470 897 1495 C932 1520 960 1557 979 1608 L1098 1608 C1077 1514 1036 1443 977 1394 C917 1345 841 1321 748 1321 C659 1321 590 1342 542 1385 C493 1428 469 1488 469 1567 C469 1578 469 1587 470 1592 C470 1597 471 1603 472 1608 L472 1608 Z " />
<glyph glyph-name="dotaccent" unicode="&#x2d9;" horiz-adv-x="1233" d="M672 1552 L877 1552 L836 1348 L631 1348 L672 1552 L672 1552 Z " />
<glyph glyph-name="ring" unicode="&#x2da;" horiz-adv-x="1233" d="M930 1595 C930 1638 915 1674 886 1703 C857 1732 821 1747 778 1747 C735 1747 700 1733 671 1704 C642 1675 627 1638 627 1595 C627 1552 642 1517 671 1488 C700 1459 735 1444 778 1444 C821 1444 857 1459 886 1488 C915 1517 930 1553 930 1595 L930 1595 Z M1053 1595 C1053 1518 1026 1454 973 1401 C920 1348 855 1321 778 1321 C701 1321 637 1348 584 1401 C531 1454 504 1518 504 1595 C504 1672 531 1738 584 1791 C637 1844 701 1870 778 1870 C855 1870 920 1844 973 1791 C1026 1738 1053 1672 1053 1595 L1053 1595 Z " />
<glyph glyph-name="ogonek" unicode="&#x2db;" horiz-adv-x="1233" d="M383 0 L502 0 C461 -39 430 -75 409 -109 C387 -144 377 -172 377 -198 C377 -221 385 -240 401 -253 C416 -266 438 -272 471 -272 C490 -272 513 -270 535 -265 C557 -260 579 -252 600 -242 L575 -375 C549 -383 528 -387 506 -390 C482 -393 461 -395 436 -395 C372 -395 321 -382 285 -355 C246 -326 231 -286 231 -245 C231 -206 244 -169 269 -129 C294 -89 332 -46 383 0 L383 0 Z " />
<glyph glyph-name="tilde" unicode="&#x2dc;" horiz-adv-x="1233" d="M741 1376 L694 1425 C686 1433 671 1446 658 1453 C647 1459 634 1462 621 1462 C601 1462 577 1455 558 1425 C542 1400 531 1361 526 1309 L401 1309 C412 1400 437 1469 475 1518 C513 1567 562 1591 622 1591 C649 1591 676 1586 698 1576 C720 1566 746 1546 770 1522 L817 1475 C836 1456 839 1453 854 1445 C865 1439 876 1436 888 1436 C915 1436 938 1451 953 1475 C968 1499 980 1539 985 1591 L1110 1591 C1100 1507 1076 1432 1037 1381 C998 1330 948 1307 890 1307 C863 1307 836 1312 814 1322 C794 1331 769 1347 741 1376 L741 1376 Z " />
<glyph glyph-name="hungarumlaut" unicode="&#x2dd;" horiz-adv-x="1233" d="M688 1638 L877 1638 L575 1262 L440 1262 L688 1638 L688 1638 Z M1028 1638 L1225 1638 L901 1262 L766 1262 L1028 1638 L1028 1638 Z " />
<glyph glyph-name="Omega" unicode="&#x3a9;" horiz-adv-x="1233" d="M74 0 L74 172 L319 172 C237 261 178 354 141 450 C104 546 86 657 86 783 C86 989 134 1154 230 1277 C324 1397 452 1460 614 1460 C779 1460 908 1395 1001 1277 C1097 1155 1145 990 1145 783 C1145 657 1127 546 1090 450 C1052 351 992 260 911 172 L1159 172 L1159 0 L696 0 L696 172 C776 223 838 303 883 413 C927 521 950 650 950 790 C950 944 922 1072 861 1162 C804 1246 720 1294 616 1294 C507 1294 426 1242 372 1162 C314 1076 283 953 283 790 C283 650 306 521 350 413 C396 300 460 221 537 172 L537 0 L74 0 L74 0 Z " />
<glyph glyph-name="pi" unicode="&#x3c0;" horiz-adv-x="1233" d="M80 1100 L1153 1100 L1153 952 L1012 952 L1012 248 C1012 200 1020 166 1037 145 C1053 124 1078 113 1114 113 C1125 113 1138 114 1153 116 C1167 118 1172 117 1182 119 L1182 -14 C1159 -23 1135 -29 1110 -33 C1085 -37 1060 -39 1037 -39 C960 -39 908 -17 877 27 C847 70 831 145 831 268 L831 952 L403 952 L403 0 L223 0 L223 952 L80 952 L80 1100 L80 1100 Z " />
<glyph glyph-name="endash" unicode="&#x2013;" horiz-adv-x="1233" d="M-23 633 L1210 633 L1182 492 L-51 492 L-23 633 L-23 633 Z " />
<glyph glyph-name="emdash" unicode="&#x2014;" horiz-adv-x="1233" d="M-23 633 L1210 633 L1182 492 L-51 492 L-23 633 L-23 633 Z " />
<glyph glyph-name="quoteleft" unicode="&#x2018;" horiz-adv-x="1233" d="M715 967 L463 967 L504 1174 L774 1556 L928 1556 L756 1174 L715 967 L715 967 Z " />
<glyph glyph-name="quoteright" unicode="&#x2019;" horiz-adv-x="1233" d="M676 1556 L928 1556 L887 1350 L616 967 L463 967 L635 1350 L676 1556 L676 1556 Z " />
<glyph glyph-name="quotesinglbase" unicode="&#x201a;" horiz-adv-x="1233" d="M416 303 L668 303 L627 96 L356 -287 L203 -287 L375 96 L416 303 L416 303 Z " />
<glyph glyph-name="quotedblleft" unicode="&#x201c;" horiz-adv-x="1233" d="M956 967 L705 967 L743 1174 L1016 1556 L1169 1556 L997 1174 L956 967 L956 967 Z M498 967 L246 967 L285 1174 L557 1556 L711 1556 L537 1174 L498 967 L498 967 Z " />
<glyph glyph-name="quotedblright" unicode="&#x201d;" horiz-adv-x="1233" d="M434 1556 L686 1556 L645 1350 L375 967 L221 967 L393 1350 L434 1556 L434 1556 Z M893 1556 L1145 1556 L1104 1350 L834 967 L680 967 L852 1350 L893 1556 L893 1556 Z " />
<glyph glyph-name="quotedblbase" unicode="&#x201e;" horiz-adv-x="1233" d="M197 303 L449 303 L410 96 L137 -287 L-16 -287 L156 96 L197 303 L197 303 Z M655 303 L907 303 L868 96 L596 -287 L442 -287 L614 96 L655 303 L655 303 Z " />
<glyph glyph-name="dagger" unicode="&#x2020;" horiz-adv-x="1233" d="M674 1493 L850 1493 L768 1073 L1135 1073 L1104 920 L737 920 L520 -197 L346 -197 L563 920 L195 920 L225 1073 L592 1073 L674 1493 L674 1493 Z " />
<glyph glyph-name="daggerdbl" unicode="&#x2021;" horiz-adv-x="1233" d="M969 223 L602 223 L520 -197 L346 -197 L426 223 L59 223 L90 377 L457 377 L563 920 L195 920 L225 1073 L592 1073 L674 1493 L850 1493 L768 1073 L1135 1073 L1104 920 L737 920 L633 377 L999 377 L969 223 L969 223 Z " />
<glyph glyph-name="bullet" unicode="&#x2022;" horiz-adv-x="1233" d="M319 761 C319 844 350 918 404 972 C456 1024 530 1057 615 1057 C698 1057 772 1026 827 972 C878 922 913 848 913 761 C913 681 884 609 826 551 C768 494 694 465 614 465 C533 465 460 495 404 551 C348 608 319 681 319 761 L319 761 Z " />
<glyph glyph-name="ellipsis" unicode="&#x2026;" horiz-adv-x="1233" d="M-6 303 L246 303 L186 0 L-66 0 L-6 303 L-6 303 Z M813 303 L1065 303 L1006 0 L754 0 L813 303 L813 303 Z M403 303 L655 303 L596 0 L344 0 L403 303 L403 303 Z " />
<glyph glyph-name="perthousand" unicode="&#x2030;" horiz-adv-x="1233" d="M72 567 L35 664 L1079 1079 L1118 983 L72 567 L72 567 Z M166 288 C166 242 184 200 213 170 C243 139 284 121 329 121 C376 121 418 141 447 170 C476 199 496 241 496 289 C496 332 479 375 447 407 C420 434 378 455 329 455 C287 455 245 439 214 408 C187 381 166 338 166 288 L166 288 Z M45 289 C45 368 73 439 128 494 C183 548 253 575 329 575 C413 575 484 542 533 493 C587 439 616 367 616 289 C616 211 587 138 534 84 C484 33 411 0 329 0 C247 0 175 33 126 83 C72 138 45 211 45 289 L45 289 Z M121 1145 C121 1094 140 1058 170 1028 C200 998 236 979 287 979 C333 979 372 995 405 1028 C437 1060 453 1099 453 1145 C453 1190 437 1229 404 1262 C371 1295 332 1311 287 1311 C241 1311 202 1295 170 1263 C137 1230 121 1191 121 1145 L121 1145 Z M0 1144 C0 1225 31 1298 83 1350 C134 1401 206 1432 287 1432 C363 1432 436 1404 490 1350 C538 1302 573 1230 573 1144 C573 1065 543 993 491 940 C439 887 368 856 287 856 C204 856 133 888 82 940 C28 995 0 1067 0 1144 L0 1144 Z M780 288 C780 244 794 205 829 170 C861 138 897 121 946 121 C993 121 1032 137 1064 170 C1098 205 1112 244 1112 288 C1112 333 1097 372 1063 406 C1030 439 991 455 946 455 C900 455 861 439 829 407 C796 374 780 336 780 288 L780 288 Z M659 289 C659 372 692 443 741 492 C795 546 867 575 945 575 C1027 575 1100 543 1151 492 C1205 438 1233 365 1233 289 C1233 211 1204 138 1151 84 C1100 32 1027 0 946 0 C868 0 795 29 742 82 C691 133 659 207 659 289 L659 289 Z " />
<glyph glyph-name="guilsinglleft" unicode="&#x2039;" horiz-adv-x="1233" d="M877 1059 L834 848 L483 584 L731 317 L698 141 L309 559 L326 641 L877 1059 L877 1059 Z " />
<glyph glyph-name="guilsinglright" unicode="&#x203a;" horiz-adv-x="1233" d="M317 141 L360 352 L711 614 L461 883 L496 1059 L883 641 L866 559 L317 141 L317 141 Z " />
<glyph glyph-name="Euro" unicode="&#x20ac;" horiz-adv-x="1233" d="M98 948 L238 948 C301 1141 390 1283 497 1376 C608 1472 743 1520 891 1520 C947 1520 994 1513 1045 1499 C1095 1485 1144 1465 1192 1438 L1153 1231 C1106 1274 1061 1306 1018 1326 C975 1346 928 1356 880 1356 C790 1356 706 1321 632 1251 C558 1181 496 1079 449 948 L922 948 L872 840 L416 840 C407 808 406 804 395 751 C384 698 381 682 377 653 L788 653 L741 543 L365 543 L365 489 C365 375 389 288 438 227 C485 168 552 135 644 135 C697 135 750 146 807 167 C864 188 920 219 977 260 L938 53 C885 25 831 4 778 -9 C725 -22 670 -29 612 -29 C461 -29 350 20 277 105 C198 197 162 333 162 498 L162 543 L-10 543 L39 653 L172 653 C177 692 183 727 189 757 C194 786 200 814 207 840 L49 840 L98 948 L98 948 Z " />
<glyph glyph-name="trademark" unicode="&#x2122;" horiz-adv-x="1233" d="M438 1493 L438 1399 L276 1399 L276 915 L162 915 L162 1399 L0 1399 L0 1493 L438 1493 L438 1493 Z M692 1493 L829 1237 L954 1493 L1126 1493 L1126 915 L1012 915 L1012 1397 L856 1096 L801 1096 L635 1397 L635 915 L522 915 L522 1493 L692 1493 L692 1493 Z " />
<glyph glyph-name="partialdiff" unicode="&#x2202;" horiz-adv-x="1233" d="M842 621 C852 679 860 735 865 790 C870 844 872 900 872 939 C872 1026 862 1095 836 1141 C811 1185 772 1206 727 1206 C683 1206 651 1186 600 1148 C553 1113 526 1090 489 1090 C474 1090 452 1094 432 1112 C416 1127 408 1143 408 1164 C408 1203 434 1246 480 1277 C528 1309 590 1325 654 1325 C769 1325 870 1273 941 1170 C1009 1071 1047 929 1047 746 C1047 525 992 330 904 195 C813 55 685 -25 545 -25 C449 -25 357 12 291 82 C224 153 190 249 190 362 C190 479 227 595 300 681 C376 771 475 809 577 809 C644 809 696 793 738 764 C777 737 814 694 842 621 L842 621 Z M793 483 C793 575 779 632 750 673 C721 714 679 735 628 735 C558 735 495 694 448 607 C401 520 377 400 377 282 C377 188 392 131 420 92 C449 52 493 31 543 31 C613 31 676 73 723 160 C768 244 793 361 793 483 L793 483 Z " />
<glyph glyph-name="Delta" unicode="&#x2206;" horiz-adv-x="1233" d="M-6 0 L512 1423 L721 1423 L1241 0 L-6 0 L-6 0 Z M616 1219 L248 172 L985 172 L616 1219 L616 1219 Z " />
<glyph glyph-name="product" unicode="&#x220f;" horiz-adv-x="1233" d="M152 -436 L152 1518 L1081 1518 L1081 -436 L926 -436 L926 1386 L307 1386 L307 -436 L152 -436 L152 -436 Z " />
<glyph glyph-name="summation" unicode="&#x2211;" horiz-adv-x="1233" d="M332 -299 L1085 -299 L1085 -436 L143 -436 L143 -344 L692 575 L143 1423 L143 1518 L1065 1518 L1065 1378 L332 1378 L854 575 L332 -299 L332 -299 Z " />
<glyph glyph-name="minus" unicode="&#x2212;" horiz-adv-x="1233" d="M88 727 L1145 727 L1145 557 L88 557 L88 727 L88 727 Z " />
<glyph glyph-name="fraction" unicode="&#x2215;" horiz-adv-x="1233" d="M16 -190 L868 1493 L1059 1493 L205 -190 L16 -190 L16 -190 Z " />
<glyph glyph-name="periodcentered" unicode="&#x2219;" horiz-adv-x="1233" d="M512 864 L766 864 L707 559 L455 559 L512 864 L512 864 Z " />
<glyph glyph-name="radical" unicode="&#x221a;" horiz-adv-x="1233" d="M100 733 L59 858 L350 956 L569 225 L1036 1696 L1184 1696 L1184 1565 L1137 1565 L631 -39 L504 -39 L258 786 L100 733 L100 733 Z " />
<glyph glyph-name="infinity" unicode="&#x221e;" horiz-adv-x="1233" d="M694 627 C736 527 767 474 797 441 C827 408 862 391 903 391 C948 391 989 412 1020 458 C1049 501 1065 559 1065 634 C1065 704 1051 761 1023 804 C995 847 958 868 911 868 C867 868 828 849 793 810 C758 771 725 710 694 627 L694 627 Z M537 635 C497 731 464 788 435 819 C404 852 368 868 329 868 C284 868 241 846 211 802 C185 764 166 705 166 627 C166 560 180 499 208 455 C233 416 270 391 318 391 C361 391 402 411 437 450 C472 489 506 551 537 635 L537 635 Z M616 764 C648 845 692 906 737 945 C786 987 841 1008 899 1008 C984 1008 1058 963 1107 900 C1157 836 1192 740 1192 625 C1192 516 1161 420 1111 355 C1058 286 984 250 903 250 C847 250 799 267 756 300 C711 335 666 394 614 481 C571 398 528 340 483 304 C436 266 386 250 332 250 C251 250 177 287 123 357 C69 427 41 522 41 632 C41 738 67 836 119 905 C168 970 240 1008 332 1008 C398 1008 447 988 491 951 C536 913 576 856 616 764 L616 764 Z " />
<glyph glyph-name="integral" unicode="&#x222b;" horiz-adv-x="1233" d="M394 -262 C464 -262 504 -27 513 426 C515 504 514 516 516 591 C526 935 556 1171 623 1327 C690 1483 791 1550 915 1550 C967 1550 1016 1538 1051 1508 C1083 1480 1100 1442 1100 1399 C1100 1365 1089 1337 1068 1316 C1047 1295 1018 1284 981 1284 C953 1284 930 1290 911 1303 C892 1316 878 1334 871 1357 C866 1372 864 1385 861 1408 C857 1433 853 1444 837 1444 C769 1444 730 1247 719 825 C717 744 715 624 711 522 C698 189 663 -26 600 -164 C538 -299 441 -371 314 -371 C260 -371 213 -358 179 -330 C146 -302 129 -265 129 -221 C129 -188 139 -158 163 -136 C186 -115 218 -104 256 -104 C281 -104 299 -109 315 -119 C333 -130 344 -142 354 -161 C362 -177 365 -194 369 -220 C373 -247 377 -262 394 -262 L394 -262 Z " />
<glyph glyph-name="approxequal" unicode="&#x2248;" horiz-adv-x="1233" d="M1145 963 L1145 788 C1095 749 1048 721 999 702 C951 683 900 674 850 674 C775 674 718 694 645 725 C615 738 616 737 612 739 C561 762 518 777 484 785 C449 793 415 797 382 797 C328 797 275 786 232 768 C187 749 137 717 88 674 L88 848 C140 888 194 919 239 936 C287 954 342 963 395 963 C430 963 465 959 498 952 C534 944 573 930 623 909 C645 900 634 904 655 894 C732 858 802 840 864 840 C911 840 957 850 1003 870 C1046 889 1099 923 1145 963 L1145 963 Z M1145 596 L1145 420 C1095 381 1044 351 999 333 C951 314 899 305 851 305 C786 305 720 322 645 356 L612 371 C570 390 513 411 480 419 C455 425 414 430 379 430 C330 430 280 420 233 400 C186 380 137 348 88 305 L88 479 C141 520 195 552 240 569 C282 585 338 596 392 596 C460 596 534 578 621 541 L622 541 L655 526 C734 490 795 471 862 471 C916 471 958 483 1001 502 C1046 522 1090 549 1145 596 L1145 596 Z " />
<glyph glyph-name="notequal" unicode="&#x2260;" horiz-adv-x="1233" d="M88 930 L735 930 L981 1245 L1106 1143 L942 930 L1145 930 L1145 760 L811 760 L627 524 L1145 524 L1145 352 L498 352 L250 37 L125 141 L289 352 L88 352 L88 524 L418 524 L602 760 L88 760 L88 930 L88 930 Z " />
<glyph glyph-name="lessequal" unicode="&#x2264;" horiz-adv-x="1233" d="M1143 438 L1143 256 L86 588 L86 756 L1143 1087 L1143 903 L342 672 L1143 438 L1143 438 Z M1143 170 L1143 0 L86 0 L86 170 L1143 170 L1143 170 Z " />
<glyph glyph-name="greaterequal" unicode="&#x2265;" horiz-adv-x="1233" d="M88 438 L891 672 L88 903 L88 1087 L1145 756 L1145 588 L88 256 L88 438 L88 438 Z M88 170 L1145 170 L1145 0 L88 0 L88 170 L88 170 Z " />
<glyph glyph-name="lozenge" unicode="&#x25ca;" horiz-adv-x="1233" d="M616 1409 L231 592 L616 -233 L1001 592 L616 1409 L616 1409 Z M616 1653 L1116 592 L616 -477 L117 592 L616 1653 L616 1653 Z " />
<glyph glyph-name="fi" unicode="&#xfb01;" horiz-adv-x="1233" d="M1071 1556 L1255 1556 L1210 1323 L1026 1323 L1071 1556 L1071 1556 Z M952 1556 L922 1403 L741 1403 C678 1403 630 1389 599 1362 C567 1334 544 1286 530 1219 L510 1120 L1171 1120 L952 0 L768 0 L958 977 L483 977 L293 0 L109 0 L299 977 L98 977 L127 1120 L326 1120 L342 1198 C369 1329 409 1416 477 1474 C543 1530 636 1556 760 1556 L952 1556 L952 1556 Z " />
<glyph glyph-name="fl" unicode="&#xfb02;" horiz-adv-x="1233" d="M760 1556 L1255 1556 L952 0 L768 0 L1042 1403 L741 1403 C678 1403 630 1389 599 1362 C567 1334 544 1286 530 1219 L510 1120 L807 1120 L778 977 L483 977 L293 0 L109 0 L299 977 L98 977 L127 1120 L326 1120 L342 1198 C369 1329 409 1416 477 1474 C543 1530 636 1556 760 1556 L760 1556 Z " />
</font>
</svg>
