<?xml version="1.0" standalone="no"?>
<!DOCTYPE svg PUBLIC "-//W3C//DTD SVG 1.1//EN" "http://www.w3.org/Graphics/SVG/1.1/DTD/svg11.dtd" >
<svg xmlns="http://www.w3.org/2000/svg" xmlns:xlink="http://www.w3.org/1999/xlink" version="1.1">
<metadata></metadata>
<defs>
<font id="hackbold_oblique" horiz-adv-x="1233" >
<font-face units-per-em="2048" ascent="1556" descent="-492" />
<missing-glyph horiz-adv-x="500" />
<glyph horiz-adv-x="0" />
<glyph unicode="&#xd;" />
<glyph unicode=" " />
<glyph unicode="!" d="M481 85q0 125 115 173q28 12 56 12q72 0 102 -40q33 -44 33 -74q0 -60 -11 -84q-31 -72 -104 -102q-28 -12 -61 -12q-64 0 -97 39.5t-33 87.5zM624 476l13 578l71 454h286l-72 -457l-159 -575h-139z" />
<glyph unicode="&#x22;" d="M231 938v555h256v-555h-256zM743 938v555h256v-555h-256z" />
<glyph unicode="#" d="M-41 373l53 215h242l72 293h-240l53 215h242l94 374h221l-94 -374h205l94 374h221l-94 -374h240l-54 -215h-241l-72 -293h240l-54 -215h-241l-94 -373h-222l95 373h-205l-94 -373h-222l95 373h-240zM475 588h203l74 293h-203z" />
<glyph unicode="$" d="M39 92l51 262q89 -61 178 -94t176 -37l68 346q-157 40 -235 122t-78 206q0 177 127.5 295.5t330.5 126.5l48 237h141l-47 -237q71 -4 144 -18t149 -39l-50 -250q-60 39 -131.5 61t-152.5 27l-64 -318q172 -46 253 -130t81 -214q0 -184 -131.5 -303.5t-353.5 -134.5 l-58 -301h-141l57 301q-85 2 -175 25t-187 67zM459 932q0 -42 26 -70.5t76 -40.5l53 278q-72 -9 -113.5 -54t-41.5 -113zM588 227q82 11 131 58.5t49 115.5q0 52 -28.5 83t-92.5 48z" />
<glyph unicode="%" horiz-adv-x="1293" d="M33 1104.5q0 138.5 96.5 233t241.5 94.5q17 0 34 -1.5t34 -4.5t33 -8t32 -11q32 -12 60.5 -30t52.5 -40q49 -46 76 -106t27 -127q0 -68 -25.5 -126t-76 -105t-113 -71t-134.5 -24q-145 0 -241.5 94t-96.5 232.5zM42 431v139l1210 448v-145zM198 1104q0 -70 48 -115 q49 -46 125 -46q37 0 68 11.5t57 35.5t39 52t13 62q0 68 -51.5 115t-125.5 47t-124 -46q-49 -46 -49 -116zM573 327q0 138 100.5 232.5t246.5 94.5q70 0 131 -25q60 -25 109 -71q10 -10 18.5 -20t16 -20.5t14.5 -21.5t13.5 -22.5t11.5 -22.5q13 -30 19.5 -61t6.5 -63 q0 -136 -97.5 -231.5t-242.5 -95.5q-74 0 -136 23.5t-112 70.5q-33 31 -55 67.5t-33 77.5t-11 88zM745 327q0 -23 5.5 -43.5t16.5 -38.5t28 -34q25 -23 56 -34.5t69 -11.5q74 0 124 47q49 47 49 114.5t-50 115.5q-50 47 -123 47q-75 0 -125 -46.5t-50 -115.5z" />
<glyph unicode="&#x26;" d="M-33 360q0 163 98.5 305.5t284.5 247.5q-26 58 -38.5 108t-12.5 97q0 183 134 292.5t362 109.5q70 0 137.5 -11t132.5 -32l-49 -256q-54 35 -118 54t-130 19q-88 0 -135 -35.5t-47 -101.5q0 -34 19 -92t59 -145l221 -480q42 58 66 135t28 170h235q-11 -157 -71 -282.5 t-168 -216.5l115 -246h-316l-35 72q-86 -50 -175.5 -75.5t-176.5 -25.5q-192 0 -306 106.5t-114 282.5zM252 438q0 -99 63.5 -165t157.5 -66q44 0 89 13.5t91 41.5l-217 469q-90 -52 -137 -126.5t-47 -166.5z" />
<glyph unicode="'" d="M487 938v555h256v-555h-256z" />
<glyph unicode="(" d="M338 393q0 290 129.5 581t386.5 580h225q-233 -312 -350 -613.5t-117 -594.5q0 -143 28 -296.5t85 -319.5h-225q-82 172 -122 337t-40 326z" />
<glyph unicode=")" d="M113 -270q233 312 350 613.5t117 594.5q0 143 -28 296.5t-85 319.5h225q81 -171 121.5 -336t40.5 -327q0 -290 -129.5 -581t-386.5 -580h-225z" />
<glyph unicode="*" d="M109 1087l46 130l371 -122l20 420h136l20 -420l371 122l46 -130l-361 -157l240 -368l-117 -84l-267 353l-267 -353l-117 84l240 368z" />
<glyph unicode="+" d="M66 524v238h432v430h237v-430h430v-238h-430v-432h-237v432h-432z" />
<glyph unicode="," d="M380 -275l14 6q225 102 242 303q-13 -2 -22 -2q-74 0 -122 43q-49 43 -49 122q0 25 6 47t17 41t28 34q25 22 56 34q31 11 68 11q31 0 58 -8t50 -25q22 -17 38 -42q25 -36 37 -85t12 -111q0 -88 -24 -164t-71 -140q-95 -127 -267 -190l-13 -5z" />
<glyph unicode="-" d="M244 454l55 291h629l-56 -291h-628z" />
<glyph unicode="." d="M436 141q0 82 51 134q51 51 126 51q74 0 126 -51q51 -51 51 -134q0 -80 -51 -132q-51 -51 -126 -51q-74 0 -126 51q-51 52 -51 132z" />
<glyph unicode="/" d="M0 -190l852 1683h223l-854 -1683h-221z" />
<glyph unicode="0" horiz-adv-x="1293" d="M98 478q0 95 14.5 197t42.5 211q58 217 144 357q29 47 62 86t70 70t77 53q120 68 279 68q210 0 310 -126q98 -125 98 -379q0 -189 -58 -409q-58 -219 -143 -356q-43 -70 -95.5 -123t-113.5 -87q-121 -69 -281 -69q-210 0 -309 126q-97 125 -97 381zM329 422 q0 -133 50 -196q49 -61 151 -61q40 0 76.5 11.5t70.5 35.5q69 48 117 139q18 34 34.5 71.5t31.5 79t28.5 87.5t25.5 96q16 67 27 130.5t16 123t5 116.5q0 29 -2 55.5t-6 49t-9.5 42t-13.5 35t-17 27.5q-23 31 -60.5 46.5t-90.5 15.5q-79 0 -148 -47q-70 -48 -118 -137 q-73 -134 -121 -335q-47 -202 -47 -385zM501 516v12t0.5 12.5t0.5 13.5q0 1 1 14q6 78 15 130q14 70 17 80q9 29 13 44q3 12 20 58q21 53 30 70q60 113 114 113q4 0 7 -0.5t7 -0.5q63 -14 63 -127v-1q-1 -6 -1 -12v-13v-1q0 -31 -10 -102q-7 -49 -15 -80q-22 -87 -69 -200 q-29 -69 -58 -104.5t-64 -36.5h-4t-4 0.5t-4 0.5q-59 13 -59 130z" />
<glyph unicode="1" d="M43 0l51 260h330l188 969l-321 -76l51 266l326 74h282l-239 -1233h309l-51 -260h-926z" />
<glyph unicode="2" d="M-29 0l49 252l277 248q51 46 145 128q402 354 402 507q0 72 -56 112.5t-155 40.5q-82 0 -186 -29.5t-222 -87.5l51 267q109 40 216 61t208 21q193 0 314 -95t121 -245q0 -249 -454 -638l-40 -34l-287 -248h617l-51 -260h-949z" />
<glyph unicode="3" d="M-31 45l54 270q96 -46 199.5 -70t211.5 -24q154 0 235 68.5t81 197.5q0 82 -64.5 131.5t-171.5 49.5h-158l52 260h157q124 0 201.5 55.5t77.5 140.5q0 70 -57.5 108t-163.5 38q-83 0 -182.5 -21t-209.5 -61l54 268q104 32 200.5 48t184.5 16q204 0 327 -97t123 -256 q0 -140 -94.5 -236.5t-261.5 -125.5q134 -36 200 -118t66 -214q0 -230 -163.5 -366t-444.5 -136q-102 0 -216.5 19t-236.5 55z" />
<glyph unicode="4" d="M18 322l58 286l735 885h309l-178 -918h164l-49 -253h-164l-62 -322h-282l63 322h-594zM289 575h373l110 578z" />
<glyph unicode="5" d="M6 35l51 266q70 -40 155.5 -61t180.5 -21q172 0 271.5 79t99.5 214q0 104 -71 164.5t-193 60.5q-78 0 -160.5 -20t-161.5 -58l162 834h811l-51 -260h-572l-53 -277q33 13 69 19t77 6q197 0 313.5 -116.5t116.5 -313.5q0 -267 -178 -423.5t-486 -156.5q-95 0 -190.5 16 t-190.5 48z" />
<glyph unicode="6" d="M96 469q0 217 60.5 422t169.5 356q98 136 237 203.5t324 67.5q67 0 136.5 -15t145.5 -45l-51 -268q-60 44 -130 67t-142 23q-157 0 -263 -108.5t-153 -317.5q60 65 136 98t165 33q167 0 264 -111.5t97 -304.5q0 -259 -154 -430.5t-387 -171.5q-227 0 -341 125.5 t-114 376.5zM383 401q0 -88 45.5 -141t120.5 -53q108 0 181 100t73 250q0 88 -45.5 139.5t-122.5 51.5q-105 0 -178.5 -100t-73.5 -247z" />
<glyph unicode="7" d="M109 0l735 1233h-633l51 260h963l-41 -209l-756 -1284h-319z" />
<glyph unicode="8" d="M63 350q0 169 99 288.5t272 160.5q-104 27 -157.5 97.5t-53.5 180.5q0 183 147.5 313t360.5 130q181 0 293.5 -99t112.5 -258q0 -148 -89 -250t-239 -127q109 -29 170 -113.5t61 -207.5q0 -220 -148.5 -357t-387.5 -137q-210 0 -325.5 99.5t-115.5 279.5zM326 399 q0 -86 55.5 -138t146.5 -52q109 0 179.5 75.5t70.5 192.5q0 88 -53.5 139.5t-144.5 51.5q-112 0 -183 -75.5t-71 -193.5zM485 1069q0 -73 45.5 -119.5t116.5 -46.5q101 0 165.5 60t64.5 153q0 79 -46 123.5t-129 44.5q-92 0 -154.5 -62t-62.5 -153z" />
<glyph unicode="9" d="M55 29l51 268q61 -44 131 -67t142 -23q156 0 262 108.5t154 317.5q-61 -65 -137 -98t-164 -33q-166 0 -262.5 111t-96.5 305q0 259 153 430.5t386 171.5q227 0 340.5 -126t113.5 -376q0 -217 -60.5 -423.5t-168.5 -356.5q-97 -136 -236 -202.5t-325 -66.5q-67 0 -137 15 t-146 45zM424 928q0 -88 44.5 -138.5t121.5 -50.5q104 0 178 100t74 246q0 88 -45.5 141.5t-120.5 53.5q-108 0 -180 -101t-72 -251z" />
<glyph unicode=":" d="M467 135q0 147 135 204q33 14 66 14q85 0 120 -47q39 -52 39 -88q0 -70 -13 -98q-37 -85 -122 -121q-33 -14 -72 -14q-75 0 -114 46.5t-39 103.5zM581 847q0 147 135 204q33 14 66 14q85 0 120 -47q39 -52 39 -88q0 -70 -13 -98q-37 -85 -122 -121q-33 -14 -72 -14 q-75 0 -114 46.5t-39 103.5z" />
<glyph unicode=";" d="M335 -311l12 5q241 102 292 302q-11 -1 -19 -1q-74 0 -117 44q-33 34 -33 89q-1 16 2 35q14 77 69 120q19 15 40 24q21 10 43 15q23 5 47 5q95 0 136 -76q26 -47 26 -118q-1 -37 -7 -79q-26 -175 -143 -303q-57 -63 -131 -110t-164 -79l-15 -5zM567 830q0 9 1 18t2 19 q7 40 25 72q18 33 46 57q58 51 132 51q75 0 119 -52q35 -40 35 -98q0 -9 -1 -18l-2 -18q-7 -41 -26 -74q-18 -33 -46 -57q-29 -25 -62 -38t-70 -13q-76 0 -120 52q-33 40 -33 99z" />
<glyph unicode="&#x3c;" d="M88 524v236l1057 416v-250l-795 -285l795 -283v-249z" />
<glyph unicode="=" d="M88 295v237h1057v-237h-1057zM88 752v235h1057v-235h-1057z" />
<glyph unicode="&#x3e;" d="M88 109v249l795 283l-795 285v250l1057 -416v-236z" />
<glyph unicode="?" d="M378 1197l36 228l7 3q35 19 69 35t69 29q34 13 68 22q102 29 208 29q190 0 292 -100q27 -26 44 -58q18 -31 27 -68q9 -36 9 -76q-1 -33 -6 -68q-11 -77 -59 -148q-23 -34 -61 -74t-93 -86l-102 -86q-39 -34 -66 -61q-26 -27 -36 -44q-24 -39 -30 -77l-8 -47l-14 -93h-220 l19 128q12 81 55 152q40 68 142 154l104 89q72 61 100 101q29 41 36 86q1 4 1 9q1 4 1 8t1 8v7q-1 61 -41 99q-27 25 -66 38t-90 13q-75 0 -167 -34q-93 -34 -201 -101zM406 83v11v19t14.5 52t60.5 74.5t113 39.5q97 0 130 -88q9 -24 9 -50q0 -91 -60.5 -143.5t-128 -52.5 t-103 42.5t-35.5 95.5z" />
<glyph unicode="@" d="M-14 387q0 164 44 322t128 295q116 186 284 288.5t357 102.5q194 0 312 -102.5t118 -270.5q0 -30 -3.5 -62t-11.5 -68l-147 -757h-197l17 82q-43 -49 -100 -75.5t-117 -26.5q-139 0 -219 88t-80 241q0 222 127.5 375.5t310.5 153.5q72 0 124 -24.5t81 -71.5q9 35 13.5 68 t4.5 63q0 91 -62 144.5t-167 53.5q-124 0 -237 -63.5t-201 -181.5q-91 -123 -139 -271t-48 -303q0 -239 118 -378.5t318 -139.5q79 0 160 24t162 72l63 -174q-107 -57 -202.5 -83.5t-190.5 -26.5q-285 0 -452.5 191t-167.5 515zM571 477q0 -83 40 -129.5t112 -46.5 q104 0 175 91.5t71 228.5q0 77 -40.5 121t-111.5 44q-103 0 -174.5 -89.5t-71.5 -219.5z" />
<glyph unicode="A" d="M-113 0l695 1493h360l113 -1493h-293l-14 369h-400l-162 -369h-299zM453 612h284l-20 607z" />
<glyph unicode="B" d="M-20 0l290 1495h482q211 0 318.5 -83t107.5 -247q0 -161 -95 -260t-270 -119q139 -12 216 -91t77 -210q0 -108 -38 -201.5t-107 -156.5q-75 -67 -190 -97t-310 -30h-481zM311 236h197q156 0 229.5 66.5t73.5 207.5q0 86 -53 127t-164 41h-197zM442 913h197 q121 0 182.5 54.5t61.5 160.5q0 68 -43 100t-133 32h-197z" />
<glyph unicode="C" d="M131 506q0 230 70.5 441.5t191.5 348.5q97 110 227 167t283 57q82 0 160.5 -18t155.5 -54l-64 -328q-50 68 -122.5 102.5t-160.5 34.5q-80 0 -157 -48.5t-131 -133.5q-69 -107 -111.5 -257.5t-42.5 -285.5q0 -146 63 -223.5t181 -77.5q81 0 161.5 33.5t174.5 106.5 l-64 -328q-77 -36 -157.5 -54t-165.5 -18q-239 0 -365.5 137.5t-126.5 397.5z" />
<glyph unicode="D" d="M-8 0l291 1493h315q285 0 426 -123t141 -371q0 -87 -13.5 -185.5t-41.5 -211.5q-37 -151 -89 -256t-124 -174q-94 -92 -225 -132t-350 -40h-330zM338 266h96q112 0 189 44t120 132q52 106 84.5 252.5t32.5 272.5q0 132 -62.5 196t-191.5 64h-82z" />
<glyph unicode="E" d="M29 0l288 1493h932l-51 -260h-635l-63 -322h575l-49 -260h-575l-76 -391h635l-52 -260h-929z" />
<glyph unicode="F" d="M47 0l291 1493h930l-51 -260h-635l-62 -322h578l-51 -260h-578l-127 -651h-295z" />
<glyph unicode="G" d="M102 524q0 215 72.5 425t192.5 345q98 111 228 168.5t282 57.5q81 0 159.5 -18t155.5 -54l-66 -328q-51 67 -120 102t-150 35q-71 0 -135.5 -29.5t-116.5 -86.5q-41 -47 -75.5 -110t-59.5 -140q-32 -98 -49 -189.5t-17 -169.5q0 -144 64 -222.5t180 -78.5q36 0 67.5 8.5 t55.5 24.5l57 291h-206l49 248h460l-139 -709q-70 -59 -168 -91t-213 -32q-242 0 -375 145t-133 408z" />
<glyph unicode="H" d="M-8 0l291 1493h295l-111 -569h369l110 569h295l-291 -1493h-295l129 664h-368l-129 -664h-295z" />
<glyph unicode="I" d="M27 0l51 260h297l188 973h-297l51 260h889l-51 -260h-297l-188 -973h297l-52 -260h-888z" />
<glyph unicode="J" d="M-20 78l65 344q78 -96 166.5 -143.5t191.5 -47.5q116 0 172.5 54t83.5 194l148 754h-361l52 260h655l-199 -1014q-33 -170 -74 -256t-108 -141t-158 -83t-204 -28q-111 0 -218 26.5t-212 80.5z" />
<glyph unicode="K" d="M-18 0l288 1493h295l-108 -557l563 557h348l-606 -604l338 -889h-303l-254 670l-172 -170l-95 -500h-294z" />
<glyph unicode="L" d="M80 0l291 1493h295l-240 -1233h631l-51 -260h-926z" />
<glyph unicode="M" d="M-57 0l288 1493h353l49 -655l297 655h360l-289 -1493h-253l237 1198l-293 -655h-219l-47 655l-231 -1198h-252z" />
<glyph unicode="N" d="M-25 0l291 1493h303l215 -1085l211 1085h260l-288 -1493h-293l-225 1085l-211 -1085h-263z" />
<glyph unicode="O" d="M61 465q0 200 50 405t135 359q77 140 202 215.5t281 75.5q215 0 328.5 -126t113.5 -364q0 -202 -49 -408.5t-133 -357.5q-78 -141 -203.5 -217t-281.5 -76q-217 0 -330 126.5t-113 367.5zM365 471q0 -120 40 -179t121 -59q59 0 108.5 35.5t86.5 104.5q23 44 45.5 109.5 t42.5 148.5q29 115 44 214.5t15 174.5q0 120 -40 180t-121 60q-59 0 -109 -35.5t-86 -104.5q-22 -39 -43.5 -103.5t-44.5 -156.5q-29 -115 -44 -214.5t-15 -174.5z" />
<glyph unicode="P" d="M16 0l291 1493h420q236 0 359.5 -91.5t123.5 -266.5q0 -114 -36.5 -226t-94.5 -178q-78 -91 -194 -131.5t-301 -40.5h-164l-109 -559h-295zM469 807h143q146 0 218.5 67.5t72.5 202.5q0 91 -52 129.5t-177 38.5h-121z" />
<glyph unicode="Q" d="M61 461q0 202 49.5 408.5t133.5 357.5q78 141 203.5 217t281.5 76q211 0 326.5 -123.5t115.5 -347.5q0 -213 -48.5 -422.5t-133.5 -364.5q-35 -66 -87.5 -121t-125.5 -102l148 -186l-211 -134l-178 252h-27q-218 0 -332.5 125t-114.5 365zM365 471q0 -120 40 -179 t121 -59q59 0 108.5 35.5t86.5 104.5q23 44 45.5 109.5t42.5 148.5q29 115 44 214.5t15 174.5q0 120 -40 180t-121 60q-59 0 -109 -35.5t-86 -104.5q-22 -39 -43.5 -103.5t-44.5 -156.5q-29 -115 -44 -214.5t-15 -174.5z" />
<glyph unicode="R" d="M8 0l291 1493h410q232 0 344 -87.5t112 -268.5q0 -187 -98 -299.5t-279 -132.5q61 -9 95 -45t61 -123l164 -537h-301l-106 376q-3 10 -8 27q-53 187 -158 187h-117l-115 -590h-295zM467 838h123q135 0 204.5 64t69.5 188q0 78 -46 116.5t-138 38.5h-133z" />
<glyph unicode="S" d="M4 76l59 305q97 -81 203 -123.5t213 -42.5q133 0 209 58.5t76 158.5q0 62 -35 107.5t-104 74.5l-119 50q-192 80 -254 155t-62 201q0 220 161.5 360t418.5 140q103 0 200.5 -20.5t188.5 -61.5l-57 -285q-68 62 -159 93.5t-202 31.5q-118 0 -192 -56.5t-74 -144.5 q0 -84 184 -167l7 -3l116 -51q146 -65 213.5 -156.5t67.5 -224.5q0 -230 -161 -367t-435 -137q-110 0 -224.5 26t-238.5 79z" />
<glyph unicode="T" d="M180 1235l49 258h1059l-51 -258h-379l-240 -1235h-294l239 1235h-383z" />
<glyph unicode="U" d="M45 352q0 42 5.5 92t17.5 107l184 942h295l-199 -1016q0 -2 -1 -6q-7 -47 -7 -68q0 -82 46 -127t130 -45q108 0 172.5 61t89.5 185l199 1016h295l-185 -942q-35 -180 -75 -272.5t-103 -155.5q-76 -74 -180 -113t-229 -39q-219 0 -337 99t-118 282z" />
<glyph unicode="V" d="M203 1493h291l24 -1251l506 1251h301l-645 -1493h-412z" />
<glyph unicode="W" d="M41 0l102 1493h254l-108 -1096l272 709h238l12 -709l297 1096h262l-461 -1493h-270l-12 784l-318 -784h-268z" />
<glyph unicode="X" d="M-143 0l614 782l-287 711h291l187 -463l360 463h321l-573 -737l301 -756h-291l-200 512l-400 -512h-323z" />
<glyph unicode="Y" d="M145 1493h293l187 -649l411 649h322l-633 -905l-115 -588h-293l115 588z" />
<glyph unicode="Z" d="M-33 0l47 244l858 989h-643l52 260h1009l-49 -244l-876 -989h700l-51 -260h-1047z" />
<glyph unicode="[" d="M402 -285l307 1936h455l-28 -173h-240l-251 -1590h240l-28 -173h-455z" />
<glyph unicode="\" d="M340 1493h203l198 -1683h-202z" />
<glyph unicode="]" d="M285 -285l28 173h240l251 1589h-240l28 173h455l-307 -1935h-455z" />
<glyph unicode="^" d="M57 936l437 557h245l437 -557h-242l-318 301l-317 -301h-242z" />
<glyph unicode="_" d="M0 -293h1233v-190h-1233v190z" />
<glyph unicode="`" d="M371 1638h284l209 -376h-198z" />
<glyph unicode="a" d="M47 295q0 215 155.5 328.5t448.5 113.5h193l8 49q1 6 1.5 11.5t0.5 17.5q0 57 -51 87t-148 30q-82 0 -185.5 -28.5t-221.5 -84.5l47 250q113 39 213.5 58.5t191.5 19.5q217 0 329 -76t112 -223q0 -39 -7 -92t-20 -117l-123 -639h-291l25 125q-67 -77 -153.5 -115.5 t-196.5 -38.5q-151 0 -239.5 87.5t-88.5 236.5zM352 317q0 -63 40.5 -104t103.5 -41q118 0 198 93t109 265h-113q-172 0 -255 -52t-83 -161z" />
<glyph unicode="b" d="M47 0l303 1556h293l-119 -604q63 96 146 145.5t178 49.5q146 0 231.5 -109.5t85.5 -298.5q0 -131 -30.5 -260.5t-85.5 -234.5q-69 -129 -174 -201t-222 -72q-111 0 -183 62.5t-89 173.5l-41 -207h-293zM434 432q0 -104 45 -163.5t121 -59.5q111 0 190.5 141.5t79.5 343.5 q0 101 -41.5 157t-115.5 56q-114 0 -196.5 -138.5t-82.5 -336.5z" />
<glyph unicode="c" d="M150 434q0 317 183.5 515t479.5 198q98 0 183 -20.5t161 -63.5l-53 -268q-61 58 -129 86t-146 28q-170 0 -276.5 -124t-106.5 -322q0 -128 61 -191t185 -63q70 0 149.5 26t170.5 78l-56 -276q-77 -33 -158.5 -49.5t-164.5 -16.5q-226 0 -354.5 124t-128.5 339z" />
<glyph unicode="d" d="M66 381q0 129 31 257.5t87 235.5q69 129 174 202t222 73q112 0 185.5 -63.5t88.5 -174.5l125 645h293l-303 -1556h-291l31 166q-66 -96 -148.5 -145.5t-177.5 -49.5q-146 0 -231.5 110t-85.5 300zM362 424q0 -101 41.5 -157t114.5 -56q114 0 197.5 138.5t83.5 336.5 q0 104 -45 163.5t-121 59.5q-111 0 -191 -141.5t-80 -343.5z" />
<glyph unicode="e" d="M76 436q0 141 44 273t124 229q84 102 200 156.5t250 54.5q209 0 335 -120t126 -318q0 -45 -6.5 -104t-20.5 -142h-759q-3 -17 -4.5 -32t-2.5 -30q0 -99 67 -149.5t198 -50.5q108 0 216 31t201 90l-51 -269q-95 -42 -198 -63t-213 -21q-248 0 -377 118.5t-129 346.5z M410 684h466q4 14 5.5 27.5t1.5 25.5q0 85 -51 134t-140 49q-100 0 -171 -59t-111 -177z" />
<glyph unicode="f" d="M231 895l43 225h273l16 78q42 211 134 284.5t331 73.5h240l-43 -225h-230q-65 0 -94 -27.5t-45 -107.5l-16 -76h344l-43 -225h-344l-174 -895h-293l174 895h-273z" />
<glyph unicode="g" d="M18 -365l54 265q75 -45 157.5 -67.5t169.5 -22.5q125 0 195.5 58.5t93.5 182.5l27 133q-54 -83 -131.5 -125.5t-173.5 -42.5q-157 0 -249.5 104.5t-92.5 282.5q0 139 42 280t115 249q70 103 170.5 161t206.5 58q104 0 171.5 -55t88.5 -158l35 182h293l-203 -1036 q-53 -277 -191 -392.5t-411 -115.5q-98 0 -189 15t-178 44zM367 459q0 -102 40 -157.5t113 -55.5q115 0 199 132.5t84 319.5q0 100 -41 155.5t-113 55.5q-114 0 -198 -132.5t-84 -317.5z" />
<glyph unicode="h" d="M59 0l303 1556h291l-116 -604q48 92 132 143.5t185 51.5q128 0 197 -69.5t69 -196.5q0 -30 -4.5 -68t-13.5 -85l-141 -728h-293l133 682q5 26 7.5 52.5t2.5 53.5q0 58 -29 88.5t-84 30.5q-83 0 -141 -71.5t-84 -206.5l-121 -629h-293z" />
<glyph unicode="i" d="M14 0l43 225h365l131 670h-287l43 225h580l-174 -895h364l-43 -225h-1022zM635 1323l67 342h293l-67 -342h-293z" />
<glyph unicode="j" d="M-63 -424l45 225h231q100 0 151 53.5t76 188.5l166 852h-297l43 225h590l-209 -1077q-33 -167 -63.5 -238.5t-77.5 -117.5q-59 -59 -140 -85t-208 -26h-307zM690 1323l66 342h293l-66 -342h-293z" />
<glyph unicode="k" d="M82 0l301 1556h293l-152 -782l404 346h370l-505 -418l313 -702h-311l-222 524l-116 -96l-82 -428h-293z" />
<glyph unicode="l" d="M233 1331l43 225h598l-249 -1191q-4 -20 -6.5 -36.5t-2.5 -21.5q0 -45 31 -63.5t109 -18.5h278l-45 -225h-297q-205 0 -290 56t-85 186q0 23 5 58t14 79l203 952h-306z" />
<glyph unicode="m" d="M-33 0l217 1120h213l-22 -116q41 68 101.5 105.5t129.5 37.5t112.5 -37.5t51.5 -101.5q32 64 96 101.5t140 37.5q92 0 146 -56t54 -153q0 -47 -5.5 -95.5t-20.5 -123.5l-140 -719h-239l139 719q10 51 14 81.5t4 45.5q0 40 -17.5 61t-51.5 21q-48 0 -76.5 -45t-50.5 -164 l-139 -719h-240l141 719q8 42 12.5 75t4.5 52q0 40 -18 61t-52 21q-47 0 -74.5 -43.5t-50.5 -165.5l-139 -719h-240z" />
<glyph unicode="n" d="M59 0l217 1120h293l-32 -168q48 92 132 143.5t185 51.5q128 0 197 -69.5t69 -196.5q0 -30 -4.5 -68t-13.5 -85l-141 -728h-293l133 682q5 26 7.5 52.5t2.5 53.5q0 58 -29 88.5t-84 30.5q-82 0 -140.5 -72t-84.5 -206l-121 -629h-293z" />
<glyph unicode="o" d="M88 426q0 322 166.5 522.5t433.5 200.5q215 0 336 -120.5t121 -334.5q0 -323 -166.5 -523t-433.5 -200q-215 0 -336 120.5t-121 334.5zM383 434q0 -106 48.5 -166.5t131.5 -60.5q121 0 204 136.5t83 340.5q0 109 -46.5 168t-131.5 59q-123 0 -206 -136t-83 -341z" />
<glyph unicode="p" d="M-37 -426l301 1546h293l-33 -168q71 98 153 146.5t175 48.5q147 0 232 -109.5t85 -298.5q0 -129 -31 -259t-87 -236q-69 -129 -174 -201t-222 -72q-112 0 -184 62t-92 174l-123 -633h-293zM436 432q0 -104 45 -163.5t121 -59.5q111 0 191.5 142t80.5 343q0 101 -41.5 157 t-115.5 56q-114 0 -197.5 -138.5t-83.5 -336.5z" />
<glyph unicode="q" d="M68 381q0 129 31 257.5t87 235.5q70 130 174 202.5t220 72.5q111 0 183.5 -62.5t90.5 -175.5l39 209h293l-301 -1546h-291l115 592q-63 -95 -146 -145t-178 -50q-146 0 -231.5 110t-85.5 300zM362 424q0 -100 42 -156.5t116 -56.5q114 0 196.5 138.5t82.5 336.5 q0 104 -45 163.5t-121 59.5q-111 0 -191 -141.5t-80 -343.5z" />
<glyph unicode="r" d="M154 0l219 1120h293l-35 -174q62 96 161 148.5t218 52.5q62 0 117.5 -15t99.5 -42l-53 -275q-48 43 -107 63.5t-133 20.5q-166 0 -255.5 -88t-129.5 -295l-100 -516h-295z" />
<glyph unicode="s" d="M90 41l51 256q86 -56 181 -85.5t188 -29.5q110 0 171.5 37.5t61.5 104.5q0 46 -30.5 72t-163.5 65l-88 24q-122 36 -179 105.5t-57 181.5q0 168 136 271.5t362 103.5q93 0 186 -15.5t185 -46.5l-50 -254q-75 53 -162 80t-180 27q-94 0 -149 -35t-55 -94q0 -45 36.5 -72.5 t165.5 -64.5l74 -21q128 -37 187 -107t59 -184q0 -182 -137.5 -285.5t-382.5 -103.5q-104 0 -207.5 17.5t-202.5 52.5z" />
<glyph unicode="t" d="M164 895l43 225h287l61 318h293l-62 -318h383l-43 -225h-383l-104 -530q-4 -20 -6 -35t-2 -23q0 -45 30 -63.5t109 -18.5h225l-43 -225h-245q-204 0 -289.5 55.5t-85.5 184.5q0 21 4.5 55t13.5 84l101 516h-287z" />
<glyph unicode="u" d="M106 244q0 28 4 64t13 83l143 729h291l-131 -684q-5 -27 -7.5 -53t-2.5 -51q0 -58 29 -89.5t83 -31.5q83 0 139.5 70t84.5 208l122 631h291l-217 -1120h-293l33 166q-44 -90 -129 -142.5t-186 -52.5q-129 0 -198 70.5t-69 202.5z" />
<glyph unicode="v" d="M172 1120h283l80 -878l389 878h307l-551 -1120h-369z" />
<glyph unicode="w" d="M90 0l6 1120h240l-33 -858l227 565h230l22 -565l291 858h252l-418 -1120h-280l-19 590l-239 -590h-279z" />
<glyph unicode="x" d="M-76 0l512 594l-258 526h301l148 -317l268 317h332l-477 -553l278 -567h-299l-170 356l-303 -356h-332z" />
<glyph unicode="y" d="M-90 -424l45 223h117q87 0 137 30t110 142l39 74l-217 1075h297l127 -700l383 700h309l-706 -1241q-112 -198 -193.5 -250.5t-207.5 -52.5h-240z" />
<glyph unicode="z" d="M49 0l45 229l707 672h-551l43 219h895l-45 -229l-707 -672h576l-43 -219h-920z" />
<glyph unicode="{" d="M101 516l37 191h91q143 0 207 55t94 211l41 215q43 224 136.5 296t353.5 72h149l-36 -190h-123q-105 0 -149 -43q-46 -45 -71 -184l-38 -209q-31 -165 -95 -234q-62 -67 -192 -84q95 -21 136.5 -64.5t41.5 -119.5q0 -30 -4 -64q-3 -27 -12 -73l-41 -205q-10 -50 -13 -74 q-4 -28 -4 -45q0 -59 34 -84.5t114 -25.5h121l-37 -191h-148q-196 0 -280 54.5t-84 179.5q0 23 4 51q3 27 14 84l43 215q7 36 13 78q4 30 4 51q0 76 -63 106.5t-182 30.5h-62z" />
<glyph unicode="|" d="M502 -483v2048h227v-2048h-227z" />
<glyph unicode="}" d="M-31 -334l37 191h123q103 1 147 43q45 43 72 186l39 205q31 163 95 233q63 69 192 88q-94 16 -136 58t-42 121q0 25 4 61q6 46 12 78l41 209q7 28 13 75q4 27 3 43q0 60 -33 84.5t-114 24.5h-121l37 190h147q205 0 287 -48t82 -162q0 -44 -20 -144l-3 -15l-41 -215 q-7 -39 -10 -61q-4 -29 -4 -49q0 -85 62.5 -120t178.5 -35h62l-37 -191h-92q-140 0 -206 -58t-95 -208l-41 -215q-42 -221 -142 -295q-99 -74 -347 -74h-150z" />
<glyph unicode="~" d="M88 465v229q78 61 151 88t156 27q53 0 103 -11t124 -42l33 -15q116 -55 209 -55q70 0 139 30.5t142 94.5v-233q-75 -60 -146.5 -87.5t-150.5 -27.5q-90 0 -203 51q-22 10 -33 14q-77 34 -128.5 46t-102.5 12q-78 0 -148.5 -29t-144.5 -92z" />
<glyph unicode="&#xa0;" />
<glyph unicode="&#xa1;" d="M338 0l127 655l102 357h199l-35 -357l-127 -655h-266zM573 1210l56 283h266l-55 -283h-267z" />
<glyph unicode="&#xa2;" d="M104 434q0 155 54.5 293t156.5 244q80 83 187.5 127.5t230.5 46.5l55 287h142l-55 -287q53 -3 110 -20t117 -48l-53 -264q-45 40 -100 63.5t-119 30.5l-135 -692q64 5 128.5 28t128.5 64l-51 -264q-62 -31 -125.5 -48t-128.5 -20l-55 -288h-141l55 288 q-194 22 -298 140.5t-104 318.5zM365 457q0 -106 52 -172.5t135 -69.5l136 692q-136 -15 -229.5 -145.5t-93.5 -304.5z" />
<glyph unicode="&#xa3;" d="M-23 0l52 260h235l64 334h-199l45 225h199l37 197q51 268 179 386t367 118q74 0 146 -16t143 -48l-53 -266q-60 41 -119 61.5t-121 20.5q-105 0 -168.5 -67t-91.5 -210l-33 -176h336l-43 -225h-338l-63 -334h481l-51 -260h-1004z" />
<glyph unicode="&#xa4;" d="M186 305l170 170q-22 42 -33.5 83.5t-11.5 82.5q0 47 11.5 87.5t35.5 78.5l-172 170l131 131l166 -172q41 24 82.5 35.5t87.5 11.5q39 0 79.5 -11t86.5 -34l172 170l127 -129l-170 -170q23 -41 34 -82.5t11 -85.5q0 -47 -11.5 -87.5t-35.5 -76.5l172 -170l-131 -131 l-170 172q-36 -24 -76 -35.5t-88 -11.5q-39 0 -81 10.5t-87 32.5l-170 -168zM479 643q0 -74 50.5 -125t123.5 -51q74 0 124 51t50 125q0 73 -50 122.5t-124 49.5q-73 0 -123.5 -49.5t-50.5 -122.5z" />
<glyph unicode="&#xa5;" d="M-29 438l37 189h408l-58 151h-321l37 187h223l-170 528h317l174 -600l408 600h317l-374 -528h223l-37 -187h-321l-115 -151h407l-36 -189h-412l-86 -438h-293l84 438h-412z" />
<glyph unicode="&#xa6;" d="M502 -350v758h227v-758h-227zM502 674v758h227v-758h-227z" />
<glyph unicode="&#xa7;" d="M104 -135l46 229q74 -33 153 -50t154 -17q86 0 133 34t47 97q0 69 -152 170l-18 12l-100 68q-109 72 -149 129.5t-40 132.5q0 93 61 170t175 127q-51 41 -75 90t-24 112q0 157 117.5 254t308.5 97q71 0 151 -15t167 -45l-45 -229q-68 34 -133.5 50.5t-128.5 16.5 q-85 0 -132 -34t-47 -97q0 -41 30.5 -77t139.5 -105l105 -67q99 -65 141.5 -126t42.5 -137q0 -84 -55.5 -159t-169.5 -142q45 -43 66.5 -93.5t21.5 -113.5q0 -152 -119.5 -247t-314.5 -95q-82 0 -170.5 15t-186.5 45zM410 707q0 -39 17.5 -68t55.5 -55l78 -54q22 -15 51 -34 t70 -45q57 39 88 83t31 84q0 35 -19 67t-53 56l-80 54q-1 0 -41 27.5t-78 54.5q-58 -44 -89 -88t-31 -82z" />
<glyph unicode="&#xa8;" d="M416 1339l47 246h237l-49 -246h-235zM811 1339l47 246h238l-49 -246h-236z" />
<glyph unicode="&#xa9;" d="M0 741q0 126 46 236t136 201q90 90 199 135t235 45q127 0 236 -45t199 -135q90 -91 136 -201t46 -236q0 -125 -45.5 -234t-136.5 -200t-200 -136.5t-235 -45.5q-125 0 -234 45.5t-200 136.5t-136.5 200t-45.5 234zM131 741q0 -98 36 -183t107 -157t157 -108.5t185 -36.5 q100 0 186 36.5t156 108.5q72 72 108 157t36 183q0 101 -36 187t-108 157q-72 73 -156.5 108.5t-185.5 35.5q-99 0 -184 -35.5t-158 -108.5q-71 -71 -107 -157t-36 -187zM266 741q0 156 101 249t270 93q55 0 107.5 -8.5t103.5 -25.5v-168q-52 31 -97.5 45t-93.5 14 q-97 0 -150.5 -52t-53.5 -147t53 -146.5t151 -51.5q53 0 101 14.5t90 44.5v-168q-55 -17 -108 -26t-103 -9q-169 0 -270 93.5t-101 248.5z" />
<glyph unicode="&#xaa;" d="M211 428l35 170h688l-35 -170h-688zM274 924q0 149 111.5 229t319.5 80h135l6 35q1 3 1.5 7t0.5 11q0 40 -36.5 61t-106.5 21q-57 0 -130.5 -20t-156.5 -58l33 174q80 28 151.5 42t136.5 14q148 0 230 -52.5t82 -146.5q0 -32 -4 -66.5t-15 -89.5l-88 -448h-207l19 88 q-46 -54 -107.5 -80.5t-140.5 -26.5q-107 0 -170.5 61t-63.5 165zM492 940q0 -44 29 -73t73 -29q85 0 141 64.5t76 184.5h-80q-122 0 -180.5 -36t-58.5 -111z" />
<glyph unicode="&#xab;" d="M78 535l24 131l547 393l-47 -238l-319 -221l233 -221l-45 -238zM532 535l25 131l545 393l-45 -238l-320 -221l234 -221l-45 -238z" />
<glyph unicode="&#xac;" d="M88 662v237h1057v-537h-238v300h-819z" />
<glyph unicode="&#xad;" d="M244 444l55 291h629l-56 -291h-628z" />
<glyph unicode="&#xae;" d="M0 741q0 126 46 236t136 201q90 90 199 135t235 45q127 0 236 -45t199 -135q90 -91 136 -201t46 -236q0 -125 -45.5 -234t-136.5 -200t-200 -136.5t-235 -45.5q-125 0 -234 45.5t-200 136.5t-136.5 200t-45.5 234zM131 741q0 -98 36 -183t107 -159q72 -71 157.5 -107 t184.5 -36t185 36t157 107q72 74 108 159t36 183q0 101 -36 187t-108 157q-72 73 -156.5 108.5t-185.5 35.5q-99 0 -184 -35.5t-158 -108.5q-71 -71 -107 -157t-36 -187zM360 430v625h246q133 0 197.5 -44t64.5 -134q0 -65 -39 -107.5t-110 -54.5q38 -14 65.5 -42t51.5 -77 l79 -166h-172l-63 133q-27 58 -55.5 81.5t-69.5 25.5h-31v-240h-164zM524 780h64q57 0 85.5 20t28.5 60q0 43 -28 63.5t-86 20.5h-64v-164z" />
<glyph unicode="&#xaf;" d="M422 1368l37 188h631l-37 -188h-631z" />
<glyph unicode="&#xb0;" d="M283 1186q0 141 96 237.5t237 96.5q67 0 128 -25.5t108 -73.5q47 -47 71.5 -107t24.5 -128q0 -66 -25 -127t-71 -107q-48 -47 -109 -72.5t-129 -25.5q-141 0 -236 95t-95 237zM444 1186q0 -72 49 -121t121 -49t122 49.5t50 120.5q0 72 -49.5 122t-120.5 50 q-72 0 -122 -50t-50 -122z" />
<glyph unicode="&#xb1;" d="M88 0v238h1057v-238h-1057zM88 694v236h410v354h237v-354h410v-236h-410v-354h-237v354h-410z" />
<glyph unicode="&#xb2;" d="M260 668l29 141q51 37 142 102q400 286 400 377q0 45 -36 69.5t-103 24.5q-63 0 -137.5 -18t-151.5 -53l31 162q76 23 149 35t146 12q144 0 221.5 -54t77.5 -153q0 -140 -410 -427q-68 -47 -104 -73h438l-28 -145h-664z" />
<glyph unicode="&#xb3;" d="M276 694l31 154q62 -27 135 -41t152 -14q96 0 151.5 40.5t55.5 110.5q0 45 -43.5 71.5t-118.5 26.5h-111l29 146h109q88 0 135 27.5t47 78.5q0 40 -40 63t-110 23q-48 0 -117 -12t-149 -35l29 152q73 17 143.5 26t136.5 9q141 0 220 -51t79 -140q0 -90 -60.5 -145.5 t-172.5 -67.5q83 -9 132.5 -58.5t49.5 -123.5q0 -134 -109.5 -207.5t-312.5 -73.5q-75 0 -148.5 10.5t-142.5 30.5z" />
<glyph unicode="&#xb4;" d="M569 1262l318 376h321l-442 -376h-197z" />
<glyph unicode="&#xb5;" d="M-55 -428l301 1548h289l-132 -680q-6 -28 -9 -52t-3 -42q0 -63 34 -98t95 -35q82 0 133 56t74 171l131 680h289l-150 -776q-5 -35 -7.5 -51.5t-2.5 -24.5q0 -27 10.5 -41t30.5 -14q12 0 26.5 6t35.5 19l-43 -222q-46 -23 -86 -34t-76 -11q-72 0 -110 37.5t-50 120.5 q-53 -79 -114.5 -118.5t-131.5 -39.5q-58 0 -96 24t-53 71l-97 -494h-288z" />
<glyph unicode="&#xb6;" d="M102 981q0 217 162.5 364.5t407.5 147.5h518l-328 -1690h-190l301 1543h-191l-299 -1543h-190l164 846q-171 18 -263 104t-92 228z" />
<glyph unicode="&#xb7;" d="M408 530l71 365h334l-72 -365h-333z" />
<glyph unicode="&#xb8;" d="M150 -375l28 156q43 -17 84 -26t76 -9q68 0 104.5 27t36.5 77q0 26 -13 60.5t-44 89.5h141q36 -48 54 -94t18 -90q0 -99 -76.5 -158t-206.5 -59q-52 0 -103 6.5t-99 19.5z" />
<glyph unicode="&#xb9;" d="M289 668l26 145h236l106 543l-229 -43l29 149l229 41h197l-135 -690h227l-29 -145h-657z" />
<glyph unicode="&#xba;" d="M221 428l33 170h688l-33 -170h-688zM307 1016q0 224 119.5 364t312.5 140q155 0 241.5 -84t86.5 -234q0 -225 -119 -364.5t-311 -139.5q-156 0 -243 84t-87 234zM520 1022q0 -75 34.5 -117.5t94.5 -42.5q87 0 147 96t60 238q0 76 -34 118t-95 42q-87 0 -147 -96t-60 -238 z" />
<glyph unicode="&#xbb;" d="M82 141l45 238l322 221l-234 221l45 238l393 -393l-26 -131zM537 141l45 238l321 221l-233 221l45 238l393 -393l-27 -131z" />
<glyph unicode="&#xbc;" d="M31 824l26 145h236l106 543l-229 -43l29 149l229 41h197l-135 -690h227l-29 -145h-657zM47 618l1059 261l37 -117l-1059 -262zM407 -90l31 162l467 493h205l-101 -512h109l-27 -143h-108l-35 -180h-188l36 180h-389zM573 53h250l64 330z" />
<glyph unicode="&#xbd;" d="M31 824l26 145h236l106 543l-229 -43l29 149l229 41h197l-135 -690h227l-29 -145h-657zM47 618l1059 261l37 -117l-1059 -262zM414 -270l29 141q51 37 142 102q400 286 400 377q0 45 -36 69.5t-103 24.5q-63 0 -137.5 -18t-151.5 -53l31 162q76 23 149 35t146 12 q144 0 221.5 -54t77.5 -153q0 -140 -410 -427q-68 -47 -104 -73h438l-28 -145h-664z" />
<glyph unicode="&#xbe;" d="M47 618l1059 261l37 -117l-1059 -262zM49 850l31 154q62 -27 135 -41t152 -14q96 0 151.5 40.5t55.5 110.5q0 45 -43.5 71.5t-118.5 26.5h-111l29 146h109q88 0 135 27.5t47 78.5q0 40 -40 63t-110 23q-48 0 -117 -12t-149 -35l29 152q73 17 143.5 26t136.5 9 q141 0 220 -51t79 -140q0 -90 -60.5 -145.5t-172.5 -67.5q83 -9 132.5 -58.5t49.5 -123.5q0 -134 -109.5 -207.5t-312.5 -73.5q-75 0 -148.5 10.5t-142.5 30.5zM407 -90l31 162l467 493h205l-101 -512h109l-27 -143h-108l-35 -180h-188l36 180h-389zM573 53h250l64 330z" />
<glyph unicode="&#xbf;" d="M90 272q0 95 49 178t166 181l105 86l8 7q126 105 153 245l23 123h266l-29 -154q-17 -95 -61.5 -166t-138.5 -151l-105 -93l-15 -13q-140 -122 -140 -187q0 -57 37 -88t106 -31q89 0 191.5 36.5t218.5 108.5l-52 -268q-101 -55 -208 -84t-211 -29q-165 0 -264 82.5 t-99 216.5zM618 1210l54 283h268l-55 -283h-267z" />
<glyph unicode="&#xc0;" d="M-113 0l695 1493h360l113 -1493h-293l-14 369h-400l-162 -369h-299zM453 612h284l-20 607zM500 1899h264l143 -264h-178z" />
<glyph unicode="&#xc1;" d="M-113 0l695 1493h360l113 -1493h-293l-14 369h-400l-162 -369h-299zM453 612h284l-20 607zM616 1635l246 264h281l-320 -264h-207z" />
<glyph unicode="&#xc2;" d="M-113 0l695 1493h360l113 -1493h-293l-14 369h-400l-162 -369h-299zM395 1635l244 264h348l151 -264h-169l-164 161l-230 -161h-180zM453 612h284l-20 607z" />
<glyph unicode="&#xc3;" d="M-113 0l695 1493h360l113 -1493h-293l-14 369h-400l-162 -369h-299zM422 1635q25 128 90.5 197t161.5 69q37 0 69.5 -12t67.5 -39l53 -41q15 -13 33.5 -20t34.5 -7q39 0 65 30.5t37 88.5h137q-26 -128 -91 -197t-159 -69q-37 0 -69 11t-70 40l-49 37q-25 19 -41.5 25.5 t-34.5 6.5q-35 0 -61.5 -32t-36.5 -88h-137zM453 612h284l-20 607z" />
<glyph unicode="&#xc4;" d="M-113 0l695 1493h360l113 -1493h-293l-14 369h-400l-162 -369h-299zM453 612h284l-20 607zM454 1653l50 246h235l-49 -246h-236zM850 1653l49 246h235l-47 -246h-237z" />
<glyph unicode="&#xc5;" d="M-113 0l660 1421q-36 36 -57 89t-21 106q0 117 83.5 201t201.5 84q116 0 200 -84t84 -201q0 -59 -23.5 -113t-66.5 -94l107 -1409h-295l-21 369h-395l-162 -369h-295zM451 612h278l-20 611zM623 1616q0 -54 38.5 -92.5t92.5 -38.5t92.5 38.5t38.5 92.5t-39 92.5t-92 38.5 q-54 0 -92.5 -38.5t-38.5 -92.5z" />
<glyph unicode="&#xc6;" d="M-150 0l652 1493h809l-51 -260h-291l-60 -311h260l-51 -260h-260l-78 -402h310l-52 -260h-563l72 362h-283l-155 -362h-259zM365 598h227l125 635h-80z" />
<glyph unicode="&#xc7;" d="M131 506q0 230 70.5 441.5t191.5 348.5q97 110 227 167t283 57q82 0 160.5 -18t155.5 -54l-64 -328q-50 68 -122.5 102.5t-160.5 34.5q-80 0 -157 -48.5t-131 -133.5q-69 -107 -111.5 -257.5t-42.5 -285.5q0 -146 63 -223.5t181 -77.5q81 0 161.5 33.5t174.5 106.5 l-64 -328q-77 -36 -157.5 -54t-165.5 -18q-239 0 -365.5 137.5t-126.5 397.5zM271 -375l28 156q43 -17 84 -26t76 -9q68 0 104.5 27t36.5 77q0 26 -13 60.5t-44 89.5h141q36 -48 54 -94t18 -90q0 -99 -76.5 -158t-206.5 -59q-52 0 -103 6.5t-99 19.5z" />
<glyph unicode="&#xc8;" d="M29 0l288 1493h932l-51 -260h-635l-63 -322h575l-49 -260h-575l-76 -391h635l-52 -260h-929zM537 1899h264l143 -264h-178z" />
<glyph unicode="&#xc9;" d="M29 0l288 1493h932l-51 -260h-635l-63 -322h575l-49 -260h-575l-76 -391h635l-52 -260h-929zM653 1635l246 264h281l-320 -264h-207z" />
<glyph unicode="&#xca;" d="M29 0l288 1493h932l-51 -260h-635l-63 -322h575l-49 -260h-575l-76 -391h635l-52 -260h-929zM432 1635l244 264h348l151 -264h-169l-164 161l-230 -161h-180z" />
<glyph unicode="&#xcb;" d="M29 0l288 1493h932l-51 -260h-635l-63 -322h575l-49 -260h-575l-76 -391h635l-52 -260h-929zM491 1653l50 246h235l-49 -246h-236zM887 1653l49 246h235l-47 -246h-237z" />
<glyph unicode="&#xcc;" d="M27 0l51 260h297l188 973h-297l51 260h889l-51 -260h-297l-188 -973h297l-52 -260h-888zM496 1899h264l143 -264h-178z" />
<glyph unicode="&#xcd;" d="M27 0l51 260h297l188 973h-297l51 260h889l-51 -260h-297l-188 -973h297l-52 -260h-888zM612 1635l246 264h281l-320 -264h-207z" />
<glyph unicode="&#xce;" d="M27 0l51 260h297l188 973h-297l51 260h889l-51 -260h-297l-188 -973h297l-52 -260h-888zM391 1635l244 264h348l151 -264h-169l-164 161l-230 -161h-180z" />
<glyph unicode="&#xcf;" d="M27 0l51 260h297l188 973h-297l51 260h889l-51 -260h-297l-188 -973h297l-52 -260h-888zM450 1653l50 246h235l-49 -246h-236zM846 1653l49 246h235l-47 -246h-237z" />
<glyph unicode="&#xd0;" d="M-16 664l47 237h135l117 592h315q285 0 426 -123t141 -371q0 -87 -13.5 -185.5t-41.5 -211.5q-37 -151 -89 -256t-124 -174q-94 -92 -225 -132t-350 -40h-330l129 664h-137zM338 266h96q112 0 189 44t120 132q52 106 84.5 252.5t32.5 272.5q0 132 -62.5 196t-191.5 64 h-82l-63 -326h211l-45 -237h-211z" />
<glyph unicode="&#xd1;" d="M-25 0l291 1493h303l215 -1085l211 1085h260l-288 -1493h-293l-225 1085l-211 -1085h-263zM422 1635q25 128 90.5 197t161.5 69q37 0 69.5 -12t67.5 -39l53 -41q15 -13 33.5 -20t34.5 -7q39 0 65 30.5t37 88.5h137q-26 -128 -91 -197t-159 -69q-37 0 -69 11t-70 40 l-49 37q-25 19 -41.5 25.5t-34.5 6.5q-35 0 -61.5 -32t-36.5 -88h-137z" />
<glyph unicode="&#xd2;" d="M61 465q0 200 50 405t135 359q77 140 202 215.5t281 75.5q215 0 328.5 -126t113.5 -364q0 -202 -49 -408.5t-133 -357.5q-78 -141 -203.5 -217t-281.5 -76q-217 0 -330 126.5t-113 367.5zM365 471q0 -120 40 -179t121 -59q59 0 108.5 35.5t86.5 104.5q23 44 45.5 109.5 t42.5 148.5q29 115 44 214.5t15 174.5q0 120 -40 180t-121 60q-59 0 -109 -35.5t-86 -104.5q-22 -39 -43.5 -103.5t-44.5 -156.5q-29 -115 -44 -214.5t-15 -174.5zM500 1899h264l143 -264h-178z" />
<glyph unicode="&#xd3;" d="M61 465q0 200 50 405t135 359q77 140 202 215.5t281 75.5q215 0 328.5 -126t113.5 -364q0 -202 -49 -408.5t-133 -357.5q-78 -141 -203.5 -217t-281.5 -76q-217 0 -330 126.5t-113 367.5zM365 471q0 -120 40 -179t121 -59q59 0 108.5 35.5t86.5 104.5q23 44 45.5 109.5 t42.5 148.5q29 115 44 214.5t15 174.5q0 120 -40 180t-121 60q-59 0 -109 -35.5t-86 -104.5q-22 -39 -43.5 -103.5t-44.5 -156.5q-29 -115 -44 -214.5t-15 -174.5zM616 1635l246 264h281l-320 -264h-207z" />
<glyph unicode="&#xd4;" d="M61 465q0 200 50 405t135 359q77 140 202 215.5t281 75.5q215 0 328.5 -126t113.5 -364q0 -202 -49 -408.5t-133 -357.5q-78 -141 -203.5 -217t-281.5 -76q-217 0 -330 126.5t-113 367.5zM365 471q0 -120 40 -179t121 -59q59 0 108.5 35.5t86.5 104.5q23 44 45.5 109.5 t42.5 148.5q29 115 44 214.5t15 174.5q0 120 -40 180t-121 60q-59 0 -109 -35.5t-86 -104.5q-22 -39 -43.5 -103.5t-44.5 -156.5q-29 -115 -44 -214.5t-15 -174.5zM395 1635l244 264h348l151 -264h-169l-164 161l-230 -161h-180z" />
<glyph unicode="&#xd5;" d="M61 465q0 200 50 405t135 359q77 140 202 215.5t281 75.5q215 0 328.5 -126t113.5 -364q0 -202 -49 -408.5t-133 -357.5q-78 -141 -203.5 -217t-281.5 -76q-217 0 -330 126.5t-113 367.5zM365 471q0 -120 40 -179t121 -59q59 0 108.5 35.5t86.5 104.5q23 44 45.5 109.5 t42.5 148.5q29 115 44 214.5t15 174.5q0 120 -40 180t-121 60q-59 0 -109 -35.5t-86 -104.5q-22 -39 -43.5 -103.5t-44.5 -156.5q-29 -115 -44 -214.5t-15 -174.5zM422 1635q25 128 90.5 197t161.5 69q37 0 69.5 -12t67.5 -39l53 -41q15 -13 33.5 -20t34.5 -7q39 0 65 30.5 t37 88.5h137q-26 -128 -91 -197t-159 -69q-37 0 -69 11t-70 40l-49 37q-25 19 -41.5 25.5t-34.5 6.5q-35 0 -61.5 -32t-36.5 -88h-137z" />
<glyph unicode="&#xd6;" d="M61 465q0 200 50 405t135 359q77 140 202 215.5t281 75.5q215 0 328.5 -126t113.5 -364q0 -202 -49 -408.5t-133 -357.5q-78 -141 -203.5 -217t-281.5 -76q-217 0 -330 126.5t-113 367.5zM365 471q0 -120 40 -179t121 -59q59 0 108.5 35.5t86.5 104.5q23 44 45.5 109.5 t42.5 148.5q29 115 44 214.5t15 174.5q0 120 -40 180t-121 60q-59 0 -109 -35.5t-86 -104.5q-22 -39 -43.5 -103.5t-44.5 -156.5q-29 -115 -44 -214.5t-15 -174.5zM454 1653l50 246h235l-49 -246h-236zM850 1653l49 246h235l-47 -246h-237z" />
<glyph unicode="&#xd7;" d="M119 313l330 330l-330 328l168 168l327 -328l330 328l168 -168l-330 -328l330 -330l-168 -166l-330 328l-327 -328z" />
<glyph unicode="&#xd8;" d="M-141 51l219 244q-8 34 -12.5 71t-4.5 76q0 214 49 423t134 362q78 142 204 217.5t283 75.5q105 0 188 -33t144 -98l154 170l139 -115l-205 -227q10 -56 15 -104.5t5 -92.5q0 -62 -7 -133t-21 -150q-25 -139 -63 -257t-91 -216q-78 -141 -203.5 -217t-281.5 -76 q-114 0 -200.5 37t-143.5 109l-160 -180zM375 354q18 -60 56.5 -90.5t94.5 -30.5q125 0 202.5 153t129.5 503zM379 629l473 524q-18 52 -55.5 79.5t-89.5 27.5q-121 0 -197.5 -146.5t-130.5 -484.5z" />
<glyph unicode="&#xd9;" d="M45 352q0 42 5.5 92t17.5 107l184 942h295l-199 -1016q0 -2 -1 -6q-7 -47 -7 -68q0 -82 46 -127t130 -45q108 0 172.5 61t89.5 185l199 1016h295l-185 -942q-35 -180 -75 -272.5t-103 -155.5q-76 -74 -180 -113t-229 -39q-219 0 -337 99t-118 282zM506 1899h264l143 -264 h-178z" />
<glyph unicode="&#xda;" d="M45 352q0 42 5.5 92t17.5 107l184 942h295l-199 -1016q0 -2 -1 -6q-7 -47 -7 -68q0 -82 46 -127t130 -45q108 0 172.5 61t89.5 185l199 1016h295l-185 -942q-35 -180 -75 -272.5t-103 -155.5q-76 -74 -180 -113t-229 -39q-219 0 -337 99t-118 282zM622 1635l246 264h281 l-320 -264h-207z" />
<glyph unicode="&#xdb;" d="M45 352q0 42 5.5 92t17.5 107l184 942h295l-199 -1016q0 -2 -1 -6q-7 -47 -7 -68q0 -82 46 -127t130 -45q108 0 172.5 61t89.5 185l199 1016h295l-185 -942q-35 -180 -75 -272.5t-103 -155.5q-76 -74 -180 -113t-229 -39q-219 0 -337 99t-118 282zM401 1635l244 264h348 l151 -264h-169l-164 161l-230 -161h-180z" />
<glyph unicode="&#xdc;" d="M45 352q0 42 5.5 92t17.5 107l184 942h295l-199 -1016q0 -2 -1 -6q-7 -47 -7 -68q0 -82 46 -127t130 -45q108 0 172.5 61t89.5 185l199 1016h295l-185 -942q-35 -180 -75 -272.5t-103 -155.5q-76 -74 -180 -113t-229 -39q-219 0 -337 99t-118 282zM460 1653l50 246h235 l-49 -246h-236zM856 1653l49 246h235l-47 -246h-237z" />
<glyph unicode="&#xdd;" d="M145 1493h293l187 -649l411 649h322l-633 -905l-115 -588h-293l115 588zM612 1635l246 264h281l-320 -264h-207z" />
<glyph unicode="&#xde;" d="M16 0l291 1493h295l-47 -227h127q236 0 359.5 -92t123.5 -267q0 -113 -36.5 -224t-94.5 -177q-78 -92 -194.5 -133t-300.5 -41h-164l-64 -332h-295zM424 580h145q146 0 217.5 67t71.5 203q0 91 -51.5 129.5t-175.5 38.5h-121z" />
<glyph unicode="&#xdf;" d="M29 0l219 1126q41 212 172.5 322.5t343.5 110.5q198 0 295.5 -87t97.5 -264q0 -43 -11 -143l-1 -6q-141 -8 -219 -58t-78 -133q0 -57 96 -153l6 -6l76 -76q59 -59 88 -121.5t29 -130.5q0 -188 -128.5 -299t-348.5 -111q-66 0 -131 12.5t-129 36.5l49 250 q58 -31 111.5 -47t99.5 -16q90 0 142 39.5t52 107.5q0 66 -111 177l-6 6l-69 71q-44 45 -65 96.5t-21 110.5q0 135 91.5 228.5t260.5 130.5v16q0 64 -45 99.5t-127 35.5q-93 0 -150 -51t-77 -152l-219 -1122h-293z" />
<glyph unicode="&#xe0;" d="M47 295q0 215 155.5 328.5t448.5 113.5h193l8 49q1 6 1.5 11.5t0.5 17.5q0 57 -51 87t-148 30q-82 0 -185.5 -28.5t-221.5 -84.5l47 250q113 39 213.5 58.5t191.5 19.5q217 0 329 -76t112 -223q0 -39 -7 -92t-20 -117l-123 -639h-291l25 125q-67 -77 -153.5 -115.5 t-196.5 -38.5q-151 0 -239.5 87.5t-88.5 236.5zM352 317q0 -63 40.5 -104t103.5 -41q118 0 198 93t109 265h-113q-172 0 -255 -52t-83 -161zM402 1638h284l209 -376h-198z" />
<glyph unicode="&#xe1;" d="M47 295q0 215 155.5 328.5t448.5 113.5h193l8 49q1 6 1.5 11.5t0.5 17.5q0 57 -51 87t-148 30q-82 0 -185.5 -28.5t-221.5 -84.5l47 250q113 39 213.5 58.5t191.5 19.5q217 0 329 -76t112 -223q0 -39 -7 -92t-20 -117l-123 -639h-291l25 125q-67 -77 -153.5 -115.5 t-196.5 -38.5q-151 0 -239.5 87.5t-88.5 236.5zM352 317q0 -63 40.5 -104t103.5 -41q118 0 198 93t109 265h-113q-172 0 -255 -52t-83 -161zM600 1262l318 376h321l-442 -376h-197z" />
<glyph unicode="&#xe2;" d="M47 295q0 215 155.5 328.5t448.5 113.5h193l8 49q1 6 1.5 11.5t0.5 17.5q0 57 -51 87t-148 30q-82 0 -185.5 -28.5t-221.5 -84.5l47 250q113 39 213.5 58.5t191.5 19.5q217 0 329 -76t112 -223q0 -39 -7 -92t-20 -117l-123 -639h-291l25 125q-67 -77 -153.5 -115.5 t-196.5 -38.5q-151 0 -239.5 87.5t-88.5 236.5zM352 317q0 -63 40.5 -104t103.5 -41q118 0 198 93t109 265h-113q-172 0 -255 -52t-83 -161zM367 1262l332 376h243l183 -376h-176l-152 225l-240 -225h-190z" />
<glyph unicode="&#xe3;" d="M47 295q0 215 155.5 328.5t448.5 113.5h193l8 49q1 6 1.5 11.5t0.5 17.5q0 57 -51 87t-148 30q-82 0 -185.5 -28.5t-221.5 -84.5l47 250q113 39 213.5 58.5t191.5 19.5q217 0 329 -76t112 -223q0 -39 -7 -92t-20 -117l-123 -639h-291l25 125q-67 -77 -153.5 -115.5 t-196.5 -38.5q-151 0 -239.5 87.5t-88.5 236.5zM352 317q0 -63 40.5 -104t103.5 -41q118 0 198 93t109 265h-113q-172 0 -255 -52t-83 -161zM408 1309q19 130 87 207t163 77q34 0 64.5 -12.5t76.5 -48.5l51 -39q19 -15 37 -23t33 -8q38 0 64 33.5t36 95.5h139 q-23 -141 -85.5 -212.5t-163.5 -71.5q-35 0 -67.5 13t-72.5 44l-49 37q-1 1 -5 4q-42 33 -73 33q-34 0 -60 -34.5t-36 -94.5h-139z" />
<glyph unicode="&#xe4;" d="M47 295q0 215 155.5 328.5t448.5 113.5h193l8 49q1 6 1.5 11.5t0.5 17.5q0 57 -51 87t-148 30q-82 0 -185.5 -28.5t-221.5 -84.5l47 250q113 39 213.5 58.5t191.5 19.5q217 0 329 -76t112 -223q0 -39 -7 -92t-20 -117l-123 -639h-291l25 125q-67 -77 -153.5 -115.5 t-196.5 -38.5q-151 0 -239.5 87.5t-88.5 236.5zM352 317q0 -63 40.5 -104t103.5 -41q118 0 198 93t109 265h-113q-172 0 -255 -52t-83 -161zM447 1339l47 246h237l-49 -246h-235zM842 1339l47 246h238l-49 -246h-236z" />
<glyph unicode="&#xe5;" d="M47 295q0 215 155.5 328.5t448.5 113.5h193l8 49q1 6 1.5 11.5t0.5 17.5q0 57 -51 87t-148 30q-82 0 -185.5 -28.5t-221.5 -84.5l47 250q113 39 213.5 58.5t191.5 19.5q217 0 329 -76t112 -223q0 -39 -7 -92t-20 -117l-123 -639h-291l25 125q-67 -77 -153.5 -115.5 t-196.5 -38.5q-151 0 -239.5 87.5t-88.5 236.5zM352 317q0 -63 40.5 -104t103.5 -41q118 0 198 93t109 265h-113q-172 0 -255 -52t-83 -161zM494 1534q0 118 83 201.5t202 83.5q118 0 201 -83.5t83 -201.5t-83 -201.5t-201 -83.5q-119 0 -202 83.5t-83 201.5zM647 1534 q0 -55 38.5 -93t93.5 -38q54 0 92.5 38.5t38.5 92.5t-39 92.5t-92 38.5q-55 0 -93.5 -38.5t-38.5 -92.5z" />
<glyph unicode="&#xe6;" d="M-31 262q0 193 121.5 310.5t325.5 117.5h108l11 58q3 15 4.5 30t1.5 29q0 61 -34 93t-99 32q-52 0 -121.5 -25.5t-155.5 -75.5l47 238q79 39 151.5 58.5t141.5 19.5q82 0 140 -35t83 -98q52 65 121.5 99t153.5 34q126 0 194 -70t68 -200q0 -49 -8 -116t-25 -155l-22 -129 h-451q-8 -49 -11 -75.5t-3 -45.5q0 -80 42.5 -128t112.5 -48q56 0 124.5 28.5t133.5 80.5l-47 -238q-57 -40 -125 -60t-149 -20q-94 0 -161 42.5t-99 121.5q-61 -83 -134.5 -123.5t-162.5 -40.5q-127 0 -202 79t-75 212zM188 291q0 -51 29 -81t78 -30q67 0 107 52t61 169 l14 78h-74q-98 0 -156.5 -51.5t-58.5 -136.5zM766 688h225l12 67q4 17 5.5 34t1.5 45q0 51 -20 74.5t-64 23.5q-56 0 -91.5 -42t-54.5 -130z" />
<glyph unicode="&#xe7;" d="M150 434q0 317 183.5 515t479.5 198q98 0 183 -20.5t161 -63.5l-53 -268q-61 58 -129 86t-146 28q-170 0 -276.5 -124t-106.5 -322q0 -128 61 -191t185 -63q70 0 149.5 26t170.5 78l-56 -276q-77 -33 -158.5 -49.5t-164.5 -16.5q-226 0 -354.5 124t-128.5 339zM295 -375 l28 156q43 -17 84 -26t76 -9q68 0 104.5 27t36.5 77q0 26 -13 60.5t-44 89.5h141q36 -48 54 -94t18 -90q0 -99 -76.5 -158t-206.5 -59q-52 0 -103 6.5t-99 19.5z" />
<glyph unicode="&#xe8;" d="M76 436q0 141 44 273t124 229q84 102 200 156.5t250 54.5q209 0 335 -120t126 -318q0 -45 -6.5 -104t-20.5 -142h-759q-3 -17 -4.5 -32t-2.5 -30q0 -99 67 -149.5t198 -50.5q108 0 216 31t201 90l-51 -269q-95 -42 -198 -63t-213 -21q-248 0 -377 118.5t-129 346.5z M371 1638h284l209 -376h-198zM410 684h466q4 14 5.5 27.5t1.5 25.5q0 85 -51 134t-140 49q-100 0 -171 -59t-111 -177z" />
<glyph unicode="&#xe9;" d="M76 436q0 141 44 273t124 229q84 102 200 156.5t250 54.5q209 0 335 -120t126 -318q0 -45 -6.5 -104t-20.5 -142h-759q-3 -17 -4.5 -32t-2.5 -30q0 -99 67 -149.5t198 -50.5q108 0 216 31t201 90l-51 -269q-95 -42 -198 -63t-213 -21q-248 0 -377 118.5t-129 346.5z M410 684h466q4 14 5.5 27.5t1.5 25.5q0 85 -51 134t-140 49q-100 0 -171 -59t-111 -177zM569 1262l318 376h321l-442 -376h-197z" />
<glyph unicode="&#xea;" d="M76 436q0 141 44 273t124 229q84 102 200 156.5t250 54.5q209 0 335 -120t126 -318q0 -45 -6.5 -104t-20.5 -142h-759q-3 -17 -4.5 -32t-2.5 -30q0 -99 67 -149.5t198 -50.5q108 0 216 31t201 90l-51 -269q-95 -42 -198 -63t-213 -21q-248 0 -377 118.5t-129 346.5z M336 1262l332 376h243l183 -376h-176l-152 225l-240 -225h-190zM410 684h466q4 14 5.5 27.5t1.5 25.5q0 85 -51 134t-140 49q-100 0 -171 -59t-111 -177z" />
<glyph unicode="&#xeb;" d="M76 436q0 141 44 273t124 229q84 102 200 156.5t250 54.5q209 0 335 -120t126 -318q0 -45 -6.5 -104t-20.5 -142h-759q-3 -17 -4.5 -32t-2.5 -30q0 -99 67 -149.5t198 -50.5q108 0 216 31t201 90l-51 -269q-95 -42 -198 -63t-213 -21q-248 0 -377 118.5t-129 346.5z M410 684h466q4 14 5.5 27.5t1.5 25.5q0 85 -51 134t-140 49q-100 0 -171 -59t-111 -177zM416 1339l47 246h237l-49 -246h-235zM811 1339l47 246h238l-49 -246h-236z" />
<glyph unicode="&#xec;" d="M14 0l43 225h365l131 670h-287l43 225h580l-174 -895h364l-43 -225h-1022zM326 1638h284l209 -376h-198z" />
<glyph unicode="&#xed;" d="M14 0l43 225h365l131 670h-287l43 225h580l-174 -895h364l-43 -225h-1022zM524 1262l318 376h321l-442 -376h-197z" />
<glyph unicode="&#xee;" d="M14 0l43 225h365l131 670h-287l43 225h580l-174 -895h364l-43 -225h-1022zM291 1262l332 376h243l183 -376h-176l-152 225l-240 -225h-190z" />
<glyph unicode="&#xef;" d="M14 0l43 225h365l131 670h-287l43 225h580l-174 -895h364l-43 -225h-1022zM371 1339l47 246h237l-49 -246h-235zM766 1339l47 246h238l-49 -246h-236z" />
<glyph unicode="&#xf0;" d="M82 412q0 281 160 461t409 180q42 0 75 -6t62 -19q-27 63 -54.5 116.5t-55.5 98.5l-330 -123l-41 115l307 115l-125 206h279l74 -120l323 118l41 -112l-303 -113q120 -182 179 -349.5t59 -326.5q0 -308 -165 -495t-437 -187q-218 0 -337.5 115.5t-119.5 325.5zM375 428 q0 -101 50 -161t134 -60q126 0 207.5 125.5t81.5 322.5q0 33 -2.5 63t-7.5 60q-38 21 -79 31t-85 10q-129 0 -214 -110.5t-85 -280.5z" />
<glyph unicode="&#xf1;" d="M59 0l217 1120h293l-32 -168q48 92 132 143.5t185 51.5q128 0 197 -69.5t69 -196.5q0 -30 -4.5 -68t-13.5 -85l-141 -728h-293l133 682q5 26 7.5 52.5t2.5 53.5q0 58 -29 88.5t-84 30.5q-82 0 -140.5 -72t-84.5 -206l-121 -629h-293zM377 1309q19 130 87 207t163 77 q34 0 64.5 -12.5t76.5 -48.5l51 -39q19 -15 37 -23t33 -8q38 0 64 33.5t36 95.5h139q-23 -141 -85.5 -212.5t-163.5 -71.5q-35 0 -67.5 13t-72.5 44l-49 37q-1 1 -5 4q-42 33 -73 33q-34 0 -60 -34.5t-36 -94.5h-139z" />
<glyph unicode="&#xf2;" d="M88 426q0 322 166.5 522.5t433.5 200.5q215 0 336 -120.5t121 -334.5q0 -323 -166.5 -523t-433.5 -200q-215 0 -336 120.5t-121 334.5zM371 1638h284l209 -376h-198zM383 434q0 -106 48.5 -166.5t131.5 -60.5q121 0 204 136.5t83 340.5q0 109 -46.5 168t-131.5 59 q-123 0 -206 -136t-83 -341z" />
<glyph unicode="&#xf3;" d="M88 426q0 322 166.5 522.5t433.5 200.5q215 0 336 -120.5t121 -334.5q0 -323 -166.5 -523t-433.5 -200q-215 0 -336 120.5t-121 334.5zM383 434q0 -106 48.5 -166.5t131.5 -60.5q121 0 204 136.5t83 340.5q0 109 -46.5 168t-131.5 59q-123 0 -206 -136t-83 -341z M569 1262l318 376h321l-442 -376h-197z" />
<glyph unicode="&#xf4;" d="M88 426q0 322 166.5 522.5t433.5 200.5q215 0 336 -120.5t121 -334.5q0 -323 -166.5 -523t-433.5 -200q-215 0 -336 120.5t-121 334.5zM336 1262l332 376h243l183 -376h-176l-152 225l-240 -225h-190zM383 434q0 -106 48.5 -166.5t131.5 -60.5q121 0 204 136.5t83 340.5 q0 109 -46.5 168t-131.5 59q-123 0 -206 -136t-83 -341z" />
<glyph unicode="&#xf5;" d="M88 426q0 322 166.5 522.5t433.5 200.5q215 0 336 -120.5t121 -334.5q0 -323 -166.5 -523t-433.5 -200q-215 0 -336 120.5t-121 334.5zM377 1309q19 130 87 207t163 77q34 0 64.5 -12.5t76.5 -48.5l51 -39q19 -15 37 -23t33 -8q38 0 64 33.5t36 95.5h139 q-23 -141 -85.5 -212.5t-163.5 -71.5q-35 0 -67.5 13t-72.5 44l-49 37q-1 1 -5 4q-42 33 -73 33q-34 0 -60 -34.5t-36 -94.5h-139zM383 434q0 -106 48.5 -166.5t131.5 -60.5q121 0 204 136.5t83 340.5q0 109 -46.5 168t-131.5 59q-123 0 -206 -136t-83 -341z" />
<glyph unicode="&#xf6;" d="M88 426q0 322 166.5 522.5t433.5 200.5q215 0 336 -120.5t121 -334.5q0 -323 -166.5 -523t-433.5 -200q-215 0 -336 120.5t-121 334.5zM383 434q0 -106 48.5 -166.5t131.5 -60.5q121 0 204 136.5t83 340.5q0 109 -46.5 168t-131.5 59q-123 0 -206 -136t-83 -341z M416 1339l47 246h237l-49 -246h-235zM811 1339l47 246h238l-49 -246h-236z" />
<glyph unicode="&#xf7;" d="M66 524v238h1099v-238h-1099zM461 86v309h309v-309h-309zM461 889v309h309v-309h-309z" />
<glyph unicode="&#xf8;" d="M-82 2l211 207q-20 46 -30.5 99t-10.5 114q0 327 165.5 527t434.5 200q92 0 169.5 -25t143.5 -75l193 186l117 -121l-207 -201q20 -49 30.5 -103.5t10.5 -113.5q0 -326 -166 -525.5t-436 -199.5q-98 0 -173.5 25t-136.5 76l-198 -189zM383 453l418 403q-25 28 -56.5 41.5 t-70.5 13.5q-121 0 -196.5 -118t-94.5 -340zM434 266q24 -30 55.5 -44.5t71.5 -14.5q121 0 197 121t92 342z" />
<glyph unicode="&#xf9;" d="M106 244q0 28 4 64t13 83l143 729h291l-131 -684q-5 -27 -7.5 -53t-2.5 -51q0 -58 29 -89.5t83 -31.5q83 0 139.5 70t84.5 208l122 631h291l-217 -1120h-293l33 166q-44 -90 -129 -142.5t-186 -52.5q-129 0 -198 70.5t-69 202.5zM371 1638h284l209 -376h-198z" />
<glyph unicode="&#xfa;" d="M106 244q0 28 4 64t13 83l143 729h291l-131 -684q-5 -27 -7.5 -53t-2.5 -51q0 -58 29 -89.5t83 -31.5q83 0 139.5 70t84.5 208l122 631h291l-217 -1120h-293l33 166q-44 -90 -129 -142.5t-186 -52.5q-129 0 -198 70.5t-69 202.5zM569 1262l318 376h321l-442 -376h-197z " />
<glyph unicode="&#xfb;" d="M106 244q0 28 4 64t13 83l143 729h291l-131 -684q-5 -27 -7.5 -53t-2.5 -51q0 -58 29 -89.5t83 -31.5q83 0 139.5 70t84.5 208l122 631h291l-217 -1120h-293l33 166q-44 -90 -129 -142.5t-186 -52.5q-129 0 -198 70.5t-69 202.5zM336 1262l332 376h243l183 -376h-176 l-152 225l-240 -225h-190z" />
<glyph unicode="&#xfc;" d="M106 244q0 28 4 64t13 83l143 729h291l-131 -684q-5 -27 -7.5 -53t-2.5 -51q0 -58 29 -89.5t83 -31.5q83 0 139.5 70t84.5 208l122 631h291l-217 -1120h-293l33 166q-44 -90 -129 -142.5t-186 -52.5q-129 0 -198 70.5t-69 202.5zM416 1339l47 246h237l-49 -246h-235z M811 1339l47 246h238l-49 -246h-236z" />
<glyph unicode="&#xfd;" d="M-90 -424l45 223h117q87 0 137 30t110 142l39 74l-217 1075h297l127 -700l383 700h309l-706 -1241q-112 -198 -193.5 -250.5t-207.5 -52.5h-240zM569 1262l318 376h321l-442 -376h-197z" />
<glyph unicode="&#xfe;" d="M-37 -426l385 1982h293l-117 -604q71 98 153 146.5t175 48.5q147 0 232 -109.5t85 -298.5q0 -129 -31 -259t-87 -236q-69 -129 -174 -201t-222 -72q-112 0 -184 62t-92 174l-123 -633h-293zM436 432q0 -104 45 -163.5t121 -59.5q111 0 191.5 142t80.5 343 q0 101 -41.5 157t-115.5 56q-114 0 -197.5 -138.5t-83.5 -336.5z" />
<glyph unicode="&#xff;" d="M-90 -424l45 223h117q87 0 137 30t110 142l39 74l-217 1075h297l127 -700l383 700h309l-706 -1241q-112 -198 -193.5 -250.5t-207.5 -52.5h-240zM416 1339l47 246h237l-49 -246h-235zM811 1339l47 246h238l-49 -246h-236z" />
<glyph unicode="&#x152;" d="M31 391q0 150 33.5 333t93.5 359q71 212 194.5 311t313.5 99h686l-52 -260h-331l-60 -311h301l-51 -260h-301l-78 -402h342l-51 -260h-577q-251 0 -357 90.5t-106 300.5zM315 434q0 -90 38.5 -132t121.5 -42h51l189 973h-51q-87 0 -143.5 -47t-90.5 -148 q-52 -152 -83.5 -321.5t-31.5 -282.5z" />
<glyph unicode="&#x153;" d="M-20 297q0 140 32 298t86 286q56 129 155.5 197.5t231.5 68.5q83 0 143 -30.5t97 -90.5q48 59 117 90t151 31q130 0 199.5 -69.5t69.5 -200.5q0 -49 -8.5 -116t-24.5 -155l-23 -127h-450q-9 -53 -12 -79t-3 -44q0 -79 43 -125.5t115 -46.5q57 0 124.5 27.5t131.5 77.5 l-47 -238q-57 -40 -126 -60t-151 -20q-94 0 -160.5 40.5t-86.5 109.5q-50 -75 -121.5 -112.5t-163.5 -37.5q-155 0 -237 84t-82 242zM211 322q0 -73 25.5 -105.5t82.5 -32.5q52 0 86 32t60 106q9 22 22.5 81t32.5 156q18 90 27.5 150t9.5 88q0 72 -25.5 104.5t-82.5 32.5 q-52 0 -86 -32t-60 -105q-14 -42 -29.5 -104t-29.5 -134q-16 -81 -24.5 -142t-8.5 -95zM797 690h225l10 66q4 20 6 39.5t2 38.5q0 52 -20 76t-64 24q-55 0 -90.5 -42.5t-54.5 -131.5z" />
<glyph unicode="&#x178;" d="M145 1493h293l187 -649l411 649h322l-633 -905l-115 -588h-293l115 588zM450 1653l50 246h235l-49 -246h-236zM846 1653l49 246h235l-47 -246h-237z" />
<glyph unicode="&#x2c6;" d="M336 1262l332 376h243l183 -376h-176l-152 225l-240 -225h-190z" />
<glyph unicode="&#x2dc;" d="M377 1309q19 130 87 207t163 77q34 0 64.5 -12.5t76.5 -48.5l51 -39q19 -15 37 -23t33 -8q38 0 64 33.5t36 95.5h139q-23 -141 -85.5 -212.5t-163.5 -71.5q-35 0 -67.5 13t-72.5 44l-49 37q-1 1 -5 4q-42 33 -73 33q-34 0 -60 -34.5t-36 -94.5h-139z" />
<glyph unicode="&#x2000;" horiz-adv-x="950" />
<glyph unicode="&#x2001;" horiz-adv-x="1901" />
<glyph unicode="&#x2002;" horiz-adv-x="950" />
<glyph unicode="&#x2003;" horiz-adv-x="1901" />
<glyph unicode="&#x2004;" horiz-adv-x="633" />
<glyph unicode="&#x2005;" horiz-adv-x="475" />
<glyph unicode="&#x2006;" horiz-adv-x="316" />
<glyph unicode="&#x2007;" horiz-adv-x="316" />
<glyph unicode="&#x2008;" horiz-adv-x="237" />
<glyph unicode="&#x2009;" horiz-adv-x="380" />
<glyph unicode="&#x200a;" horiz-adv-x="105" />
<glyph unicode="&#x2010;" d="M244 454l55 291h629l-56 -291h-628z" />
<glyph unicode="&#x2011;" d="M244 454l55 291h629l-56 -291h-628z" />
<glyph unicode="&#x2012;" d="M244 454l55 291h629l-56 -291h-628z" />
<glyph unicode="&#x2013;" d="M-59 444l49 246h1233l-49 -246h-1233z" />
<glyph unicode="&#x2014;" d="M-59 444l49 246h1233l-49 -246h-1233z" />
<glyph unicode="&#x2018;" d="M420 903l53 271l270 382h215l-172 -382l-53 -271h-313z" />
<glyph unicode="&#x2019;" d="M420 903l172 383l53 270h313l-53 -270l-270 -383h-215z" />
<glyph unicode="&#x201a;" d="M172 -287l172 383l53 271h314l-54 -271l-270 -383h-215z" />
<glyph unicode="&#x201c;" d="M195 903l53 271l270 382h215l-172 -382l-53 -271h-313zM715 903l53 271l270 382h215l-172 -382l-53 -271h-313z" />
<glyph unicode="&#x201d;" d="M147 903l172 383l54 270h313l-53 -270l-271 -383h-215zM668 903l172 383l53 270h313l-53 -270l-270 -383h-215z" />
<glyph unicode="&#x201e;" d="M-78 -287l172 383l51 271h314l-51 -271l-273 -383h-213zM442 -287l172 383l52 271h313l-51 -271l-273 -383h-213z" />
<glyph unicode="&#x2022;" d="M256 762q0 73 27.5 138.5t78.5 115.5q54 51 118 77.5t136 26.5q73 0 138.5 -27t115.5 -77q53 -52 80 -117t27 -137q0 -73 -27.5 -138.5t-79.5 -117.5q-51 -52 -117 -79.5t-139 -27.5q-72 0 -137 27.5t-117 79.5q-50 51 -77 116.5t-27 139.5z" />
<glyph unicode="&#x2026;" d="M-86 0l70 367h315l-72 -367h-313zM324 0l71 367h295l-69 -367h-297zM715 0l71 367h314l-70 -367h-315z" />
<glyph unicode="&#x202f;" horiz-adv-x="380" />
<glyph unicode="&#x2039;" d="M305 535l25 131l547 393l-50 -252l-317 -227l229 -226l-41 -213z" />
<glyph unicode="&#x203a;" d="M317 141l45 238l322 221l-235 221l47 238l391 -393l-25 -131z" />
<glyph unicode="&#x205f;" horiz-adv-x="475" />
<glyph unicode="&#x20ac;" d="M-33 483l84 187h127q5 43 12 80.5t15 70.5h-176l84 189h147q93 248 264 379t402 131q80 0 158 -18t151 -54l-64 -328q-56 75 -125.5 113.5t-148.5 38.5q-105 0 -191 -67.5t-143 -194.5h402l-82 -189h-385q-6 -25 -16 -76.5t-15 -74.5h346l-82 -187h-278q7 -124 71 -194 t168 -70q77 0 150 31t188 121l-63 -328q-76 -36 -154.5 -54t-163.5 -18q-227 0 -354 134t-127 372v6h-201z" />
<glyph unicode="&#x2122;" d="M0 1360v133h438v-133h-141v-445h-156v445h-141zM522 915v578h207l100 -227l89 227h208v-578h-153v437l-107 -256h-75l-117 256v-437h-152z" />
<glyph unicode="&#x25fc;" horiz-adv-x="1120" d="M0 0v1120h1120v-1120h-1120z" />
<glyph unicode="&#xfb01;" d="M66 895l45 225h190l14 78q39 201 138 279.5t327 78.5h80l-43 -225h-67q-66 0 -95 -24.5t-43 -87.5l-18 -99h602l-217 -1120h-293l174 895h-311l-174 -895h-293l174 895h-190zM932 1264l55 292h293l-57 -292h-291z" />
<glyph unicode="&#xfb02;" d="M66 895l45 225h190l14 78q39 201 138 279.5t327 78.5h500l-301 -1556h-293l258 1331h-194q-66 0 -95 -24.5t-43 -87.5l-18 -99h186l-43 -225h-188l-174 -895h-293l174 895h-190z" />
</font>
</defs>
</svg>
