<?xml version="1.0" standalone="no"?>
<!DOCTYPE svg PUBLIC "-//W3C//DTD SVG 1.1//EN" "http://www.w3.org/Graphics/SVG/1.1/DTD/svg11.dtd" >
<svg xmlns="http://www.w3.org/2000/svg" xmlns:xlink="http://www.w3.org/1999/xlink" version="1.1">
<metadata></metadata>
<defs>
<font id="hackbold" horiz-adv-x="1233" >
<font-face units-per-em="2048" ascent="1556" descent="-492" />
<missing-glyph horiz-adv-x="500" />
<glyph unicode="&#xfb01;" d="M12 895v225h189v78q0 202 84 280q82 78 311 78h80v-225h-68q-66 0 -89 -24q-24 -24 -25 -88v-99h604v-1120h-293v895h-311v-895h-293v895h-189zM805 1264v292h293v-292h-293z" />
<glyph unicode="&#xfb02;" d="M12 895v225h189v78q0 202 84 280q82 78 311 78h502v-1556h-293v1331h-197q-66 0 -89 -24q-24 -24 -25 -88v-99h188v-225h-188v-895h-293v895h-189z" />
<glyph horiz-adv-x="0" />
<glyph unicode="&#xd;" />
<glyph unicode=" " />
<glyph unicode="!" d="M464 113q0 71 43 114q12 12 18 17q8 7 20 12l22 9q13 4 23 5q16 2 25 2q64 0 108 -44q43 -43 43 -115q0 -27 -4 -44q-4 -21 -15 -39q-11 -20 -24 -33q-20 -22 -48 -34q-30 -11 -60 -11q-64 0 -108 44q-43 44 -43 117zM470 1052v456h285v-456l-68 -576h-139z" />
<glyph unicode="&#x22;" d="M231 938v555h256v-555h-256zM743 938v555h256v-555h-256z" />
<glyph unicode="#" d="M2 373v215h260l74 293h-219v215h274l94 374h222l-95 -374h203l94 374h224l-97 -374h193v-215h-246l-74 -293h205v-215h-258l-94 -373h-221l94 373h-205l-94 -373h-221l94 373h-207zM483 588h205l74 293h-205z" />
<glyph unicode="$" d="M164 942q0 167 102 266t287 111v237h141l1 -237q72 -5 148 -18q77 -14 156 -39v-256q-60 39 -138 64q-77 24 -167 30v-307q199 -32 298 -134q100 -103 100 -276q0 -164 -108 -269q-110 -105 -289 -114l-1 -301h-141l-1 301q-85 3 -182 26q-94 22 -198 66v262 q103 -61 200 -94q95 -33 181 -34v329q-197 39 -293 135q-96 94 -96 252zM428 967q0 -57 32 -95q33 -39 93 -55v283q-61 -7 -93 -41q-32 -35 -32 -92zM694 226q64 9 98 49q35 40 35 100q0 62 -34 102q-35 39 -99 51v-302z" />
<glyph unicode="%" d="M33 1112q0 134 93 227t226 93t227 -93q93 -95 93 -227q0 -133 -93 -226q-95 -93 -227 -93q-133 0 -226 93q-93 92 -93 226zM48 561l1143 436v-114l-1139 -432zM215 1112q0 -58 40 -97q40 -40 97 -40q58 0 98 40q39 39 39 97q0 57 -40 97t-97 40t-97 -39q-40 -40 -40 -98z M580 319q0 134 93 227q91 93 226 93q131 0 226 -93q94 -94 94 -227q0 -132 -94 -225q-94 -94 -226 -94q-135 0 -226 93q-93 91 -93 226zM762 319q0 -58 39 -97q38 -40 96 -40q59 0 99 40t40 97t-41 98q-40 40 -98 40q-56 0 -95 -40q-40 -40 -40 -98z" />
<glyph unicode="&#x26;" d="M37 442q0 147 71 264q71 120 209 207q-51 80 -74 145q-24 66 -24 126q0 162 109 249t315 87q69 0 143 -11q67 -10 138 -32v-256q-63 35 -129 55q-66 18 -131 18q-81 0 -121 -28q-41 -29 -41 -82q0 -37 31 -99q29 -60 98 -165l313 -480q22 39 32 87q11 52 11 106 q0 21 -2 59q-1 27 -6 53h235v-51q0 -147 -34 -253q-35 -111 -107 -195l162 -246h-317l-48 72q-75 -50 -159 -75q-82 -26 -172 -26q-223 0 -363 131q-139 130 -139 340zM307 496q0 -123 79 -205q78 -84 192 -84q30 0 58 7q28 6 57 18l8 4q27 13 47 26l-308 469 q-66 -44 -99 -102q-34 -59 -34 -133z" />
<glyph unicode="'" d="M487 938v555h256v-555h-256z" />
<glyph unicode="(" d="M273 643q0 231 78 458q76 222 235 453h228q-130 -235 -196 -463q-64 -222 -64 -448q0 -224 64 -447q65 -227 196 -466h-228q-160 232 -236 456q-77 225 -77 457z" />
<glyph unicode=")" d="M419 -270q131 239 196 466q64 223 64 447q0 226 -64 448q-66 228 -196 463h228q159 -229 236 -453q77 -228 77 -458q0 -232 -77 -457q-76 -223 -236 -456h-228z" />
<glyph unicode="*" d="M97 1081l51 148l369 -120l19 416h156l19 -416l369 120l51 -148l-358 -155l239 -366l-133 -95l-265 350l-265 -350l-133 95l239 366z" />
<glyph unicode="+" d="M66 524v238h432v430h237v-430h430v-238h-430v-432h-237v432h-432z" />
<glyph unicode="," d="M380 -275l14 6q225 102 242 303q-18 -2 -22 -2q-75 0 -122 43q-49 43 -49 122q0 24 6 47q5 19 17 41q9 17 28 34q25 22 56 34q33 11 68 11q29 0 58 -8q26 -7 50 -25q21 -15 38 -42q25 -35 37 -85t12 -111q0 -87 -24 -164q-23 -74 -71 -140q-94 -127 -267 -190l-13 -5z " />
<glyph unicode="-" d="M221 455v291h791v-291h-791z" />
<glyph unicode="." d="M436 141q0 82 52 134q51 51 125 51t126 -51q51 -53 51 -134q0 -80 -51 -131q-52 -52 -126 -52t-125 52q-52 51 -52 131z" />
<glyph unicode="/" d="M113 -190l786 1683h221l-786 -1683h-221z" />
<glyph unicode="0" d="M123 745q0 388 123 582q123 193 370 193q248 0 371 -193q123 -194 123 -582t-123 -581t-371 -193q-247 0 -370 194q-123 193 -123 580zM420 745q0 -273 47 -399q47 -125 149 -125q103 0 150 125q47 126 47 399q0 274 -47 400q-47 125 -150 125q-102 0 -149 -125 q-47 -126 -47 -400zM532 746q0 56 16 165q16 111 68 111t72 -107q18 -107 18 -160q0 -52 -18 -167q-20 -116 -72 -116t-68 111q-16 106 -16 163z" />
<glyph unicode="1" d="M188 0v260h330v969l-307 -76v266l309 74h285v-1233h330v-260h-947z" />
<glyph unicode="2" d="M115 0v252l160 170q284 302 346 373q75 86 108 153q33 66 33 131q0 100 -60 155q-61 54 -172 54q-81 0 -177 -31q-98 -31 -206 -92v275q106 39 210 60q105 20 196 20q236 0 373 -110q135 -111 135 -302q0 -87 -29 -165q-30 -76 -102 -171q-52 -68 -291 -306l-205 -206 h629v-260h-948z" />
<glyph unicode="3" d="M125 45v274q97 -48 203 -71q107 -25 229 -25q119 0 190 56q70 55 70 149q0 115 -70 178q-71 62 -198 62h-158v260h158q109 0 171 44q60 44 60 122q0 84 -60 130q-61 46 -171 46q-84 0 -180 -21q-98 -21 -199 -61v268q105 32 203 48q97 16 192 16q237 0 368 -103 q132 -103 132 -284q0 -134 -76 -217q-77 -86 -217 -111q160 -28 244 -127q84 -100 84 -262q0 -217 -139 -331q-140 -114 -404 -114q-115 0 -222 19q-112 20 -210 55z" />
<glyph unicode="4" d="M102 322v286l566 885h309v-918h164v-253h-164v-322h-283v322h-592zM317 575h377v590z" />
<glyph unicode="5" d="M143 35v266q86 -42 171 -61q87 -21 175 -21q157 0 237 67q81 66 81 193q0 117 -80 188q-80 70 -215 70q-81 0 -158 -19q-78 -19 -161 -59v834h811v-260h-572v-277q35 13 77 21q40 6 87 6q221 0 360 -140q138 -140 138 -364q0 -234 -149 -371q-151 -137 -408 -137 q-99 0 -194 16q-99 17 -200 48z" />
<glyph unicode="6" d="M131 743q0 389 151 582t453 193q70 0 145 -15q73 -15 150 -45v-268q-82 46 -151 68q-72 22 -140 22q-160 0 -243 -107t-88 -318q47 65 120 98q75 32 172 32q203 0 312 -127q110 -128 110 -362q0 -251 -123 -389q-125 -138 -348 -138q-273 0 -396 183q-124 182 -124 591z M446 477q0 -131 51 -200q49 -70 146 -70q96 0 148 70q51 69 51 200t-51 201q-52 70 -148 70q-97 0 -146 -69q-51 -70 -51 -202z" />
<glyph unicode="7" d="M135 1233v260h944v-209l-506 -1284h-301l486 1233h-623z" />
<glyph unicode="8" d="M129 420q0 138 71 236q70 97 197 135q-114 39 -172 123q-59 83 -59 204q0 186 121 294t329 108q209 0 330 -108t121 -294q0 -121 -58 -203q-58 -84 -169 -124q122 -37 194 -136q70 -97 70 -235q0 -215 -127 -332t-361 -117q-233 0 -360 117t-127 332zM395 438 q0 -104 61 -166q62 -63 160 -63q100 0 161 64t61 165q0 104 -61 166q-62 62 -161 62q-98 0 -160 -62q-61 -62 -61 -166zM428 1094q0 -88 51 -139q49 -52 137 -52q89 0 139 52t50 139q0 86 -50 138q-51 50 -139 50q-86 0 -137 -51t-51 -137z" />
<glyph unicode="9" d="M111 983q0 250 123 387t348 137q272 0 397 -182q123 -183 123 -590q0 -387 -151 -580q-152 -194 -453 -194q-71 0 -144 15q-71 14 -151 44v269q77 -45 152 -68q70 -22 139 -22q159 0 243 107q84 108 88 318q-48 -66 -120 -97q-73 -33 -173 -33q-201 0 -311 128t-110 361z M391 1012q0 -131 52 -201q51 -70 147 -70q95 0 146 70q50 70 50 201q0 130 -50 201q-51 69 -146 69q-96 0 -147 -69q-52 -70 -52 -201z" />
<glyph unicode=":" d="M443 168q0 82 52 134q51 51 125 51q73 0 126 -51q51 -53 51 -134q0 -79 -51 -132q-53 -51 -126 -51q-74 0 -125 51q-52 52 -52 132zM443 886q0 80 52 132q51 51 125 51q73 0 126 -51q51 -53 51 -132q0 -82 -51 -133q-52 -52 -126 -52t-125 52q-52 50 -52 133z" />
<glyph unicode=";" d="M384 -312l14 6q114 51 174 126q61 77 68 177q-2 0 -6 -0.5t-6 -1.5h-10q-75 0 -122 43q-49 43 -49 122q0 77 51 122q25 22 57 34q33 11 67 11q47 0 84 -19t62 -56q25 -35 37 -85t12 -111q0 -176 -95 -304q-94 -127 -267 -190l-13 -5zM433 864q0 80 52 132q51 51 125 51 q73 0 126 -51q51 -53 51 -132q0 -82 -51 -133q-52 -52 -126 -52t-125 52q-52 51 -52 133z" />
<glyph unicode="&#x3c;" d="M88 524v236l1057 416v-250l-795 -285l795 -283v-249z" />
<glyph unicode="=" d="M88 295v237h1057v-237h-1057zM88 752v235h1057v-235h-1057z" />
<glyph unicode="&#x3e;" d="M88 109v249l795 283l-795 285v250l1057 -416v-236z" />
<glyph unicode="?" d="M229 1198v225l7 5q96 58 194 87q96 28 203 28q97 0 172 -25q77 -25 135 -75t86 -117q29 -69 29 -151q0 -80 -36 -149q-34 -67 -130 -161l-87 -86q-30 -29 -55 -59q-22 -26 -30 -44q-18 -39 -18 -77v-142h-220v126q0 83 31 152q30 70 118 156l90 89q32 32 51 55 q24 29 32 44q11 21 17 42q5 23 5 43.5t-3 40.5q-6 24 -11 35t-19 31q-12 14 -27 27q-22 18 -45 28q-28 12 -55 17q-30 6 -65 6q-26 0 -51 -3q-37 -6 -54 -11q-19 -5 -57 -19q-90 -36 -183 -101zM431 118q0 73 47 120q46 46 114 46q16 0 33 -3q16 -3 29 -9q9 -4 27 -14 q12 -8 25 -21q23 -23 35 -53t12 -66q0 -74 -47 -121t-114 -47t-114 47t-47 121z" />
<glyph unicode="@" d="M6 543q0 388 187 620t495 232q217 0 345 -131q126 -132 126 -359v-770h-196v82q-38 -53 -89 -77q-51 -25 -124 -25q-164 0 -264 118q-101 119 -101 312t100 311q101 117 265 117q71 0 125 -24q53 -25 88 -72v41q0 136 -74 210q-76 74 -213 74q-208 0 -339 -183 q-132 -183 -132 -476q0 -306 152 -488q151 -182 405 -182q78 0 155 23q74 24 144 71l92 -176q-78 -53 -176 -83q-96 -27 -205 -27q-349 0 -558 233q-208 232 -208 629zM592 545q0 -114 51 -178q49 -64 139 -64q89 0 140 64t51 178q0 113 -51 177t-140 64q-90 0 -139 -64 q-51 -64 -51 -177z" />
<glyph unicode="A" d="M33 0l403 1493h361l403 -1493h-295l-92 369h-395l-90 -369h-295zM477 612h279l-140 611z" />
<glyph unicode="B" d="M125 0v1495h481q250 0 375 -94q125 -95 125 -283q0 -143 -74 -225q-73 -80 -217 -94q170 -16 258 -115q86 -98 86 -274q0 -216 -130 -313t-423 -97h-481zM410 236h196q141 0 198 48q56 48 56 167q0 121 -59 174t-195 53h-196v-442zM410 913h196q113 0 160 40 q47 41 47 132q0 92 -48 134q-50 41 -159 41h-196v-347z" />
<glyph unicode="C" d="M152 745q0 376 159 576q159 199 461 199q85 0 163 -18q79 -18 146 -54v-328q-75 69 -147 103q-73 32 -148 32q-161 0 -244 -128q-83 -130 -83 -382t83 -380q82 -129 244 -129q76 0 148 33q70 32 147 102v-328q-71 -36 -147.5 -54t-161.5 -18q-302 0 -461 199t-159 575z " />
<glyph unicode="D" d="M137 0v1493h316q366 0 527 -174q161 -176 161 -571q0 -396 -161 -572t-527 -176h-316zM432 266h80q174 0 248 110t74 372q0 260 -74 370q-73 109 -248 109h-80v-961z" />
<glyph unicode="E" d="M168 0v1493h930v-260h-635v-322h575v-260h-575v-391h635v-260h-930z" />
<glyph unicode="F" d="M182 0v1493h930v-260h-635v-322h578v-260h-578v-651h-295z" />
<glyph unicode="G" d="M117 745q0 377 160 576q159 199 460 199q92 0 177 -25t163 -74v-327q-62 80 -142 121q-80 40 -177 40q-169 0 -251 -126q-83 -128 -83 -384q0 -248 80 -379q79 -130 233 -130q46 0 80 9q32 7 55 25v285h-202v248h460v-684q-84 -72 -187 -110q-105 -38 -220 -38 q-291 0 -448 202q-158 202 -158 572z" />
<glyph unicode="H" d="M137 0v1493h295v-569h369v569h295v-1493h-295v664h-369v-664h-295z" />
<glyph unicode="I" d="M172 0v260h297v973h-297v260h889v-260h-297v-973h297v-260h-889z" />
<glyph unicode="J" d="M109 74v342q83 -86 184 -134q96 -46 196 -46q116 0 170 58t54 185v754h-361v260h656v-1014q0 -273 -114 -390q-115 -118 -378 -118q-93 0 -198 26q-102 25 -209 77z" />
<glyph unicode="K" d="M117 0v1493h295v-590l462 590h334l-471 -588l488 -905h-328l-354 672l-131 -166v-506h-295z" />
<glyph unicode="L" d="M225 0v1493h295v-1233h631v-260h-926z" />
<glyph unicode="M" d="M86 0v1493h352l178 -655l177 655h354v-1493h-254v1196l-158 -653h-235l-160 653v-1196h-254z" />
<glyph unicode="N" d="M119 0v1493h317l416 -1085v1085h260v-1493h-315l-418 1085v-1085h-260z" />
<glyph unicode="O" d="M92 745q0 383 133 579q132 196 391 196q260 0 393 -196q132 -197 132 -579t-132 -578q-133 -196 -393 -196q-259 0 -391 196q-133 196 -133 578zM399 745q0 -269 52 -388q52 -121 165 -121q114 0 166 121q52 119 52 388q0 270 -52 390q-53 120 -166 120q-112 0 -165 -120 q-52 -120 -52 -390z" />
<glyph unicode="P" d="M162 0v1493h405q308 0 445 -110q135 -110 135 -357.5t-135 -356.5q-137 -110 -445 -110h-110v-559h-295zM457 807h121q146 0 204 49t58 170t-58 170t-204 49h-121v-438z" />
<glyph unicode="Q" d="M92 745q0 383 133 579q132 196 391 196q260 0 393 -196q132 -197 132 -579q0 -263 -63 -440t-183 -254l186 -182l-202 -150l-223 258l-23 -5q-7 -1 -19 -1q-257 0 -389 196q-133 196 -133 578zM399 745q0 -269 52 -388q52 -121 165 -121q114 0 166 121q52 119 52 388 q0 270 -52 390q-53 120 -166 120t-165 -120t-52 -390z" />
<glyph unicode="R" d="M133 0v1493h426q288 0 414 -102q125 -102 125 -332q0 -154 -75 -245t-216 -109q43 -9 77 -41q34 -36 79 -127l270 -537h-324l-180 377l-21 44q-79 169 -186 169h-94v-590h-295zM428 838h139q121 0 174 48q52 46 52 156t-52 156q-53 47 -174 47h-139v-407z" />
<glyph unicode="S" d="M129 1085q0 204 130 319q131 116 357 116q100 0 206 -23q106 -25 204 -70v-288q-94 67 -193 102t-194 35q-108 0 -164 -43q-57 -43 -57 -123q0 -61 42 -102q40 -40 173 -90l127 -48q180 -66 265 -175t85 -275q0 -226 -133 -337q-133 -112 -404 -112q-109 0 -222 26 q-114 27 -216 79v305q121 -85 229 -125q111 -41 218 -41q108 0 169 50q60 49 60 138q0 68 -40 118q-42 51 -116 79l-145 55q-223 85 -302 179q-79 92 -79 251z" />
<glyph unicode="T" d="M90 1235v258h1053v-258h-379v-1235h-295v1235h-379z" />
<glyph unicode="U" d="M106 551v942h295v-1016q0 -112 57 -175q57 -64 158 -64t158 64q57 63 57 175v1016h295v-942q0 -102 -13.5 -184.5t-40.5 -147t-67 -110.5q-122 -138 -389 -138t-388 138q-122 139 -122 442z" />
<glyph unicode="V" d="M57 1493h297l262 -1247l263 1247h297l-355 -1493h-409z" />
<glyph unicode="W" d="M0 1493h258l107 -1096l129 709h245l150 -709l84 1096h260l-172 -1493h-275l-170 784l-159 -784h-273z" />
<glyph unicode="X" d="M27 0l438 758l-426 735h305l272 -475l273 475h305l-424 -735l436 -758h-305l-285 494l-284 -494h-305z" />
<glyph unicode="Y" d="M8 1493h318l290 -600l291 600h318l-461 -905v-588h-295v588z" />
<glyph unicode="Z" d="M115 0v244l671 989h-649v260h1010v-244l-692 -989h706v-260h-1046z" />
<glyph unicode="[" d="M424 -270v1906h503v-190h-238v-1531h238v-185h-503z" />
<glyph unicode="\" d="M111 1493h223l786 -1683h-223z" />
<glyph unicode="]" d="M304 -83h243v1528h-243v190h505v-1905h-505v187z" />
<glyph unicode="^" d="M57 936l437 557h245l437 -557h-242l-318 301l-317 -301h-242z" />
<glyph unicode="_" d="M0 -293h1233v-190h-1233v190z" />
<glyph unicode="`" d="M199 1638h282l283 -376h-197z" />
<glyph unicode="a" d="M94 354q0 196 127 290q127 93 393 93h203v49q0 71 -51 108q-53 36 -152 36q-104 0 -203 -26q-102 -28 -206 -85v250q94 39 197 59q98 19 212 19q273 0 384 -111q110 -112 110 -397v-639h-291v125q-52 -73 -136 -114q-82 -40 -183 -40q-190 0 -297 101t-107 282zM406 340 q0 -76 45 -121t122 -45q116 0 180 88q64 86 64 244v20h-117q-165 0 -229 -42q-65 -42 -65 -144z" />
<glyph unicode="b" d="M150 0v1556h292v-595q54 94 126 140q70 46 161 46q199 0 307 -152q107 -152 107 -436q0 -280 -106 -434t-298 -154q-102 0 -176 49q-75 49 -121 146v-166h-292zM442 557q0 -163 55 -254q56 -92 150 -92q95 0 149 92q54 91 54 254t-54 254q-54 92 -149 92q-94 0 -150 -92 q-55 -91 -55 -254z" />
<glyph unicode="c" d="M168 559q0 276 147 434q147 156 406 156q90 0 174 -21q83 -21 166 -65v-268q-64 55 -140 85q-78 29 -159 29q-144 0 -220 -91q-77 -92 -77 -259t77 -258q77 -90 220 -90q84 0 159 29q76 30 140 86v-269q-72 -43 -159 -64q-84 -22 -183 -22q-259 0 -405 156t-146 432z" />
<glyph unicode="d" d="M90 559q0 284 108 436q107 152 306 152q91 0 162 -46q71 -47 125 -140v595h292v-1556h-292v166q-45 -95 -121 -146q-74 -49 -176 -49q-192 0 -298 154t-106 434zM383 557.5q0 -162.5 54 -254.5t149 -92q94 0 150 92q55 91 55 254t-55 254q-56 92 -150 92q-95 0 -149 -92 q-54 -91 -54 -253.5z" />
<glyph unicode="e" d="M92 555q0 273 143 433q142 159 390 159q249 0 387 -147q137 -149 137 -416v-119h-759q1 -133 78 -197q77 -65 230 -65q100 0 199 29q98 29 205 92v-269q-102 -42 -208 -63q-107 -21 -224 -21q-281 0 -429 151q-149 150 -149 433zM393 684l461 1q-2 115 -59 176 q-59 59 -170 59q-102 0 -161 -61q-60 -62 -71 -175z" />
<glyph unicode="f" d="M174 895v225h272v78q0 202 84 280t312 78h241v-225h-229q-67 0 -89 -24q-25 -25 -26 -89v-98h344v-225h-344v-895h-293v895h-272z" />
<glyph unicode="g" d="M98 571q0 265 113 422q112 156 303 156q96 0 171 -45t118 -127v143h293v-1036q0 -269 -121 -389q-122 -119 -395 -119q-95 0 -182 13q-90 13 -183 42v269q78 -44 169 -68q84 -22 177 -22q125 0 183 58q59 59 59 183v121q-44 -80 -114 -119q-71 -39 -173 -39 q-193 0 -305 150q-113 151 -113 407zM391 578q0 -152 57 -242q55 -90 148 -90t150 91q57 90 57 241q0 150 -57 241q-57 90 -150 90t-148 -90q-57 -90 -57 -241z" />
<glyph unicode="h" d="M172 0v1556h291v-604q32 93 106 144q75 51 181 51q159 0 240 -105q81 -106 81 -315v-727h-291v682q0 121 -34 173t-113 52q-80 0 -125 -70t-45 -196v-641h-291z" />
<glyph unicode="i" d="M114 891v225h590v-649q0 -131 41 -187q40 -55 139 -55h234v-225h-316q-209 0 -300 108q-91 107 -91 359v424h-297zM411 1323v342h293v-342h-293z" />
<glyph unicode="j" d="M143 -199h234q99 0 139 55q41 56 41 187v852h-297v225h590v-1077q0 -252 -90 -360q-92 -107 -301 -107h-316v225zM557 1323v342h293v-342h-293z" />
<glyph unicode="k" d="M174 0v1556h293v-817l352 381h355l-424 -418l448 -702h-324l-307 524l-100 -96v-428h-293z" />
<glyph unicode="l" d="M90 1331v225h590v-1089q0 -131 41 -187q40 -55 139 -55h234v-225h-316q-209 0 -300 108q-91 107 -91 359v864h-297z" />
<glyph unicode="m" d="M82 0v1120h213v-116q26 67 80 105q56 38 123 38q69 0 124 -40q56 -41 68 -99q33 71 84 105q50 34 125 34q146 0 201 -100t55 -416v-631h-240v719q0 126 -19 167q-20 42 -69 42q-51 0 -70 -43q-20 -45 -20 -166v-719h-237v719q0 121 -20 166q-19 43 -70 43q-49 0 -69 -42 q-19 -41 -19 -167v-719h-240z" />
<glyph unicode="n" d="M172 0v1120h291v-168q32 93 106 144q75 51 181 51q159 0 240 -105q81 -106 81 -315v-727h-291v682q0 123 -34 175t-113 52t-124 -71q-46 -70 -46 -197v-641h-291z" />
<glyph unicode="o" d="M98 559q0 271 141 430q140 158 377 158q238 0 379 -158q140 -160 140 -430q0 -271 -140 -429q-141 -159 -379 -159t-377 159q-141 157 -141 429zM391 559q0 -166 60 -257q60 -93 165 -93q106 0 166 93q60 91 60 257q0 165 -60 258q-60 92 -166 92q-105 0 -165 -92 q-60 -93 -60 -258z" />
<glyph unicode="p" d="M150 -426v1546h292v-168q46 97 121 146q74 49 176 49q192 0 298 -154t106 -434q0 -284 -107 -436q-108 -152 -307 -152q-92 0 -161 47q-73 47 -126 140v-584h-292zM442 561q0 -163 55 -254q56 -92 150 -92q95 0 149 92q54 91 54 254t-54 254q-54 92 -149 92 q-94 0 -150 -92q-55 -91 -55 -254z" />
<glyph unicode="q" d="M90 559q0 280 106 434t298 154q102 0 176 -49q76 -51 121 -146v168h292v-1546h-292v584q-53 -92 -125 -140q-70 -47 -162 -47q-199 0 -306 152q-108 151 -108 436zM383 560.5q0 -162.5 54 -253.5q54 -92 149 -92q94 0 150 92q55 91 55 254t-55 254q-56 92 -150 92 q-95 0 -149 -92t-54 -254.5z" />
<glyph unicode="r" d="M291 0v1120h293v-174q44 97 132 149t208 52q57 0 118 -14q58 -15 109 -43v-279q-48 44 -112 66q-63 22 -142 22q-92 0 -162 -32q-70 -33 -108 -95q-24 -37 -33 -92q-10 -51 -10 -164v-516h-293z" />
<glyph unicode="s" d="M172 805q0 162 117 252t329 90q95 0 190 -15q100 -17 183 -47v-256q-80 52 -168 79q-90 26 -176 26q-99 0 -148 -28q-50 -29 -50 -85q0 -81 214 -130l11 -3l84 -20q159 -37 235 -122q74 -86 74 -229q0 -173 -113 -259q-114 -87 -342 -87q-97 0 -207 17q-101 17 -215 53 v256q98 -55 198 -84q102 -29 194 -29q103 0 156 30t53 87q0 56 -37 86q-36 29 -179 64l-81 18q-168 38 -245 119.5t-77 216.5z" />
<glyph unicode="t" d="M111 895v225h286v318h293v-318h383v-225h-383v-530q0 -76 37 -107q36 -33 121 -33h225v-225h-246q-253 0 -341 81q-89 80 -89 298v516h-286z" />
<glyph unicode="u" d="M160 391v729h293v-684q0 -121 34 -173t113 -52t124 70q44 71 44 196v643h293v-1120h-293v166q-32 -93 -105 -144q-75 -51 -180 -51q-160 0 -241 106q-82 106 -82 314z" />
<glyph unicode="v" d="M80 1120h297l239 -874l240 874h297l-356 -1120h-361z" />
<glyph unicode="w" d="M0 1120h244l133 -858l121 565h237l119 -565l135 858h244l-203 -1120h-278l-136 582l-135 -582h-278z" />
<glyph unicode="x" d="M55 0l414 584l-381 536h342l186 -334l187 334h342l-377 -536l410 -584h-342l-220 377l-219 -377h-342z" />
<glyph unicode="y" d="M59 1120h308l256 -727l245 727h308l-465 -1241q-59 -158 -141 -231q-83 -72 -201 -72h-242v223h119q90 0 132 30q42 31 85 142l22 60z" />
<glyph unicode="z" d="M162 0v229l590 672h-566v219h895v-229l-589 -672h589v-219h-919z" />
<glyph unicode="{" d="M146 516v191h92q140 0 194 57q53 58 53 209v215q0 222 85 295q83 73 333 73h150v-190h-123q-104 0 -139 -42q-35 -43 -35 -185v-209q0 -165 -49 -232q-49 -66 -175 -86q125 -21 175 -89q49 -67 49 -232v-205q0 -143 35 -187q34 -42 139 -42h123v-191h-150q-248 0 -333 74 q-85 73 -85 295v215q0 150 -53 209q-54 57 -194 57h-92z" />
<glyph unicode="|" d="M502 -483v2048h227v-2048h-227z" />
<glyph unicode="}" d="M180 -143h121q104 0 140 43t36 186v205q0 165 49 232q50 68 174 89q-127 20 -174 86q-49 67 -49 232v209q0 140 -35 184q-36 43 -141 43h-121v190h150q249 0 332 -73q83 -74 83 -295v-215q0 -152 55 -208q54 -58 195 -58h92v-191h-92q-141 0 -195 -58q-55 -58 -55 -208 v-215q0 -221 -83 -295q-85 -74 -332 -74h-150v191z" />
<glyph unicode="~" d="M88 465v229q77 61 151 88t156 27q51 0 103 -11q51 -11 124 -42l33 -15q114 -55 209 -55q71 0 139 31q69 30 142 94v-233q-75 -60 -146 -87q-71 -28 -151 -28q-90 0 -203 51q-7 3 -13.5 6t-12 5t-7.5 3q-74 33 -128 46q-53 12 -103 12q-76 0 -148 -29q-71 -29 -145 -92z " />
<glyph unicode="&#xa0;" />
<glyph unicode="&#xa1;" d="M483 0v655l33 357h199l35 -357v-655h-267zM483 1210v283h267v-283h-267z" />
<glyph unicode="&#xa2;" d="M147 561q0 254 137 412q136 156 371 172v287h142v-287q61 -5 120 -21q54 -15 119 -47v-268q-53 40 -116 67q-58 23 -123 31v-692q62 4 124 29t115 67v-268q-57 -31 -112 -46q-65 -18 -127 -22v-288h-142v288q-235 22 -371 179q-137 158 -137 407zM418 561q0 -156 63 -247 q63 -93 174 -99v692q-113 -13 -175 -103q-62 -91 -62 -243z" />
<glyph unicode="&#xa3;" d="M119 0v260h235v334h-198v225h198v197q0 255 113 380q112 124 344 124q81 0 154 -14q69 -15 137 -44v-274q-56 40 -122 63q-64 21 -134 21q-106 0 -155 -66q-50 -68 -50 -211v-176h336v-225h-336v-334h481v-260h-1003z" />
<glyph unicode="&#xa4;" d="M186 305l170 170q-23 42 -33 84q-12 40 -12 82q0 48 12 88q10 39 35 78l-172 170l131 131l166 -172q40 24 83 36q42 11 87 11q37 0 80 -11q34 -9 86 -34l172 170l127 -129l-170 -170q24 -43 34 -82q11 -44 11 -86q0 -45 -11 -87q-12 -41 -36 -77l172 -170l-131 -131 l-170 172q-37 -25 -76 -35q-40 -12 -88 -12q-37 0 -81 11q-46 11 -87 32l-170 -168zM479 643q0 -74 51 -125q50 -51 123 -51q75 0 124 51q50 52 50 125t-50 123q-49 49 -124 49q-74 0 -123 -49q-51 -49 -51 -123z" />
<glyph unicode="&#xa5;" d="M8 1493h318l290 -600l291 600h318l-273 -528h224v-187h-322l-86 -151h408v-189h-412v-438h-295v438h-412v189h408l-86 151h-322v187h224z" />
<glyph unicode="&#xa6;" d="M502 -350v758h227v-758h-227zM502 674v758h227v-758h-227z" />
<glyph unicode="&#xa7;" d="M170 688q0 94 52 164q53 69 149 102q-72 50 -103 110q-32 61 -32 142q0 142 104 228t276 86q74 0 153 -15t161 -45v-225q-86 30 -151 45q-68 14 -120 14q-75 0 -118 -29q-43 -28 -43 -81q0 -75 203 -180l28 -15q214 -109 273 -180t59 -172q0 -88 -47 -153 q-48 -64 -150 -111q70 -49 103 -111q32 -62 32 -143q0 -147 -104 -231q-106 -83 -291 -83q-86 0 -175 14q-82 14 -171 44v229q86 -30 166 -45q79 -16 154 -16q77 0 118 29t41 81q0 70 -214 185l-37 20q-316 169 -316 342zM414 711q0 -55 49 -98q49 -44 248 -140q53 34 80 71 q24 34 24 77q0 81 -265 219l-32 16q-55 -36 -79 -70q-25 -34 -25 -75z" />
<glyph unicode="&#xa8;" d="M301 1339v246h236v-246h-236zM696 1339v246h236v-246h-236z" />
<glyph unicode="&#xa9;" d="M0 741q0 128 46 236q47 110 136 201q90 90 199 135t235 45q127 0 236 -45t199 -135q89 -91 136 -201q46 -108 46 -236q0 -124 -45 -234q-46 -109 -137 -200t-200 -136q-108 -46 -235 -46q-126 0 -234 46q-109 45 -200 136t-137 200q-45 109 -45 234zM131 741 q0 -98 36 -183q35 -84 107 -157q70 -71 157 -108q84 -37 185 -37q102 0 186 37q85 36 156 108q72 72 108 157q36 86 36 183q0 101 -36 187q-37 87 -108 157q-71 73 -156 109q-87 35 -186 35q-97 0 -184 -35q-85 -36 -158 -109q-71 -71 -107 -157t-36 -187zM266 741 q0 156 101 249q100 93 270 93q52 0 108 -8q48 -8 103 -26v-168q-53 32 -97 45q-48 14 -94 14q-98 0 -150 -52q-54 -53 -54 -147.5t53 -145.5q52 -52 151 -52q53 0 101 15q47 13 90 44v-168q-60 -18 -108 -26q-52 -9 -103 -9q-170 0 -270 94q-101 93 -101 248z" />
<glyph unicode="&#xaa;" d="M256 952q0 134 93 201q91 66 280 66h157v26q0 49 -45 74q-47 24 -137 24q-85 0 -153 -16q-71 -16 -136 -51v188q73 28 147 42q76 14 150 14q189 0 278 -86t89 -269v-448h-193v92q-49 -57 -110 -84q-62 -27 -139 -27q-130 0 -205 69q-76 67 -76 185zM293 428v170h688v-170 h-688zM475 971q0 -49 31 -77q29 -28 84 -28q86 0 141 52q55 51 55 131v30h-102q-109 0 -159 -26t-50 -82z" />
<glyph unicode="&#xab;" d="M119 535v131l469 393v-238l-277 -221l277 -221v-238zM573 535v131l469 393v-238l-276 -221l276 -221v-238z" />
<glyph unicode="&#xac;" d="M88 662v237h1057v-537h-238v300h-819z" />
<glyph unicode="&#xad;" d="M301 444v291h631v-291h-631z" />
<glyph unicode="&#xae;" d="M0 741q0 128 46 236q47 110 136 201q90 90 199 135t235 45q127 0 236 -45t199 -135q89 -91 136 -201q46 -108 46 -236q0 -124 -45 -234q-46 -109 -137 -200t-200 -136q-108 -46 -235 -46q-126 0 -234 46q-109 45 -200 136t-136 200q-46 108 -46 234zM131 741 q0 -98 36 -183t107 -159q73 -71 158 -107t184 -36q100 0 185 36q86 36 157 107q72 73 108 159t36 183q0 101 -36 187q-37 87 -108 157q-71 73 -156 109q-87 35 -186 35q-97 0 -184 -35q-85 -36 -158 -109q-71 -71 -107 -157t-36 -187zM360 430v625h246q133 0 198 -44 q64 -43 64 -134q0 -65 -39 -107q-38 -43 -110 -55q37 -14 66 -42q28 -30 51 -77l79 -166h-172l-63 133q-27 58 -55 82q-30 24 -70 25h-31v-240h-164zM524 780h64q57 0 86 20q28 19 28 60q0 43 -28 64q-29 20 -86 20h-64v-164z" />
<glyph unicode="&#xaf;" d="M301 1368v188h631v-188h-631z" />
<glyph unicode="&#xb0;" d="M283 1186q0 141 96 238q96 96 237 96q68 0 128 -25q61 -25 108 -74q46 -46 72 -107q24 -60 24 -128q0 -67 -25 -127q-26 -62 -71 -107q-48 -47 -109 -72q-63 -26 -129 -26q-141 0 -236 95t-95 237zM444 1186q0 -72 49 -121t121 -49t122 50t50 120q0 73 -49 122 q-50 50 -121 50q-72 0 -122 -50t-50 -122z" />
<glyph unicode="&#xb1;" d="M88 0v238h1057v-238h-1057zM88 694v236h410v354h237v-354h410v-236h-410v-354h-237v354h-410z" />
<glyph unicode="&#xb2;" d="M274 668v141q26 22 141 118q314 263 314 341q0 52 -43 82t-119 30q-53 0 -123 -17q-73 -19 -145 -52v164q71 21 146 34q74 11 137 11q168 0 263 -62q93 -63 93 -174q0 -126 -355 -406l-83 -65h440v-145h-666z" />
<glyph unicode="&#xb3;" d="M287 694v154q71 -28 143 -41q79 -14 156 -14q84 0 133 32q47 32 47 88q0 61 -49 95t-135 34h-111v146h111q74 0 117 25q42 25 42 69q0 45 -39 71q-40 25 -110 25q-66 0 -138 -11q-64 -10 -137 -34v152q74 18 139 26q69 9 136 9q163 0 254 -58q92 -59 92 -159 q0 -74 -52 -120t-151 -63q111 -15 170 -71q58 -55 58 -148q0 -121 -96 -184q-97 -64 -281 -64q-71 0 -150 11q-76 11 -149 30z" />
<glyph unicode="&#xb4;" d="M469 1262l283 376h282l-368 -376h-197z" />
<glyph unicode="&#xb6;" d="M70 1071q0 191 130 306q131 116 345 116h520v-1690h-191v1543h-190v-1543h-188v846q-205 25 -315 135q-111 109 -111 287z" />
<glyph unicode="&#xb8;" d="M367 -219q48 -18 87 -26q42 -9 78 -9q57 0 91 23q32 23 32 63q0 26 -21 67q-23 44 -67 101h140q55 -59 85 -115q27 -53 27 -100q0 -95 -61 -141q-62 -45 -189 -45q-49 0 -98 6q-61 9 -104 20v156z" />
<glyph unicode="&#xb9;" d="M313 668v145h226v543l-220 -43v149l222 41h194v-690h226v-145h-648z" />
<glyph unicode="&#xba;" d="M274 1108q0 188 99 301q97 111 263.5 111t264.5 -111q98 -112 98 -301q0 -190 -97 -299q-97 -111 -265 -111q-167 0 -264 111q-99 110 -99 299zM293 428v170h688v-170h-688zM479 1108q0 -110 43 -171q42 -63 115 -63q72 0 116 63q42 61 42 171q0 109 -42 172 q-44 63 -116 63q-73 0 -115 -63q-43 -62 -43 -172z" />
<glyph unicode="&#xbb;" d="M193 141v238l276 221l-276 221v238l469 -393v-131zM647 141v238l277 221l-277 221v238l469 -393v-131z" />
<glyph unicode="&#xbc;" d="M47 618l1059 263l37 -119l-1059 -262zM55 824v145h226v543l-220 -43v149l222 41h194v-690h226v-145h-648zM430 72l375 493h204v-512h109v-143h-109v-180h-186v180h-393v162zM573 53h250v330z" />
<glyph unicode="&#xbd;" d="M47 618l1059 263l37 -119l-1059 -262zM55 824v145h226v543l-220 -43v149l222 41h194v-690h226v-145h-648zM475 -129q25 22 141 118q314 263 314 341q0 52 -43 82q-44 30 -119 30q-54 0 -123 -17q-73 -19 -145 -52v164q70 21 146 34q74 11 137 11q168 0 263 -62 q93 -63 93 -174q0 -126 -355 -406l-83 -65h440v-145h-666v141z" />
<glyph unicode="&#xbe;" d="M47 618l1059 263l37 -119l-1059 -262zM60 850v154q71 -28 143 -41q79 -14 156 -14q84 0 133 32q47 32 47 88q0 61 -49 95t-135 34h-111v146h111q74 0 117 25q42 25 42 69q0 45 -39 71q-40 25 -110 25q-66 0 -138 -11q-64 -10 -137 -34v152q74 18 139 26q69 9 136 9 q163 0 254 -58q92 -59 92 -159q0 -74 -52 -120t-151 -63q111 -15 170 -71q58 -55 58 -148q0 -121 -96 -184q-97 -64 -281 -64q-71 0 -150 11q-76 11 -149 30zM430 72l375 493h204v-512h109v-143h-109v-180h-186v180h-393v162zM573 53h250v330z" />
<glyph unicode="&#xbf;" d="M176 326q0 77 34 142q37 69 128 157l88 86q66 64 85 106q19 41 19 105q0 3 1 6q1 14 1 41v123h267v-154q0 -100 -31 -169q-32 -72 -111 -148l-90 -89q-59 -56 -83 -99q-23 -41 -23 -85q0 -67 46 -101t138 -34q83 0 174 36q89 34 187 105v-268q-98 -55 -198 -84 q-97 -29 -202 -29q-202 0 -315 94q-115 94 -115 259zM532 1210v283h267v-283h-267z" />
<glyph unicode="&#xc0;" d="M33 0l403 1493h361l403 -1493h-295l-92 369h-395l-90 -369h-295zM283 1899h284l199 -264h-197zM477 612h279l-140 611z" />
<glyph unicode="&#xc1;" d="M33 0l403 1493h361l403 -1493h-295l-92 369h-395l-90 -369h-295zM469 1635l199 264h284l-286 -264h-197zM477 612h279l-140 611z" />
<glyph unicode="&#xc2;" d="M33 0l403 1493h361l403 -1493h-295l-92 369h-395l-90 -369h-295zM240 1635l221 264h309l223 -264h-178l-199 161l-198 -161h-178zM477 612h279l-140 611z" />
<glyph unicode="&#xc3;" d="M33 0l403 1493h361l403 -1493h-295l-92 369h-395l-90 -369h-295zM268 1635v30q0 107 55 171q54 65 142 65q36 0 74 -12q39 -14 75 -37l60 -39q20 -13 41 -21t35 -8q36 0 56 30q19 29 19 87h140q0 -8 -1 -15t-1 -16q0 -105 -53 -170q-54 -65 -142 -65q-36 0 -72 11 q-35 10 -78 38l-54 34l-12 7q-46 26 -73 26q-31 0 -51 -30q-20 -31 -20 -80v-6h-140zM477 612h279l-140 611z" />
<glyph unicode="&#xc4;" d="M33 0l403 1493h361l403 -1493h-295l-92 369h-395l-90 -369h-295zM301 1653v246h236v-246h-236zM477 612h279l-140 611zM696 1653v246h236v-246h-236z" />
<glyph unicode="&#xc5;" d="M33 0l385 1421q-45 39 -65 86q-21 48 -21 109q0 117 84 201q82 84 200 84t202 -84q83 -85 83 -201q0 -63 -21 -109q-21 -48 -65 -86l385 -1421h-295l-92 369h-395l-90 -369h-295zM477 612h279l-140 611zM485 1616q0 -55 39 -92q39 -39 92 -39q55 0 94 39q38 38 38 92 t-39 93q-40 38 -93 38q-52 0 -92 -38q-39 -39 -39 -93z" />
<glyph unicode="&#xc6;" d="M0 0l358 1493h803v-260h-291v-311h260v-260h-260v-402h310v-260h-564v362h-282l-86 -362h-248zM389 598h227v635h-79z" />
<glyph unicode="&#xc7;" d="M152 745q0 376 159 576q159 199 461 199q85 0 163 -18q79 -18 146 -54v-328q-75 69 -147 103q-73 32 -148 32q-161 0 -244 -128q-83 -130 -83 -382t83 -380q82 -129 244 -129q76 0 148 33q70 31 147 102v-328q-71 -36 -147 -54q-35 -9 -87 -14q40 -50 62 -90 q27 -53 27 -100q0 -95 -61 -141q-62 -45 -189 -45q-49 0 -98 6q-61 9 -104 20v156q48 -18 87 -26q42 -9 78 -9q57 0 91 23q32 23 32 63q0 26 -21 67q-19 36 -47 75q-252 19 -393 196q-159 199 -159 575z" />
<glyph unicode="&#xc8;" d="M168 0v1493h930v-260h-635v-322h575v-260h-575v-391h635v-260h-930zM314 1899h284l199 -264h-197z" />
<glyph unicode="&#xc9;" d="M168 0v1493h930v-260h-635v-322h575v-260h-575v-391h635v-260h-930zM500 1635l199 264h284l-286 -264h-197z" />
<glyph unicode="&#xca;" d="M168 0v1493h930v-260h-635v-322h575v-260h-575v-391h635v-260h-930zM271 1635l221 264h309l223 -264h-178l-199 161l-198 -161h-178z" />
<glyph unicode="&#xcb;" d="M168 0v1493h930v-260h-635v-322h575v-260h-575v-391h635v-260h-930zM332 1653v246h236v-246h-236zM727 1653v246h236v-246h-236z" />
<glyph unicode="&#xcc;" d="M172 0v260h297v973h-297v260h889v-260h-297v-973h297v-260h-889zM283 1899h284l199 -264h-197z" />
<glyph unicode="&#xcd;" d="M172 0v260h297v973h-297v260h889v-260h-297v-973h297v-260h-889zM469 1635l199 264h284l-286 -264h-197z" />
<glyph unicode="&#xce;" d="M172 0v260h297v973h-297v260h889v-260h-297v-973h297v-260h-889zM240 1635l221 264h309l223 -264h-178l-199 161l-198 -161h-178z" />
<glyph unicode="&#xcf;" d="M172 0v260h297v973h-297v260h889v-260h-297v-973h297v-260h-889zM301 1653v246h236v-246h-236zM696 1653v246h236v-246h-236z" />
<glyph unicode="&#xd0;" d="M0 664v237h137v592h316q366 0 527 -174q161 -176 161 -571q0 -396 -161 -572t-527 -176h-316v664h-137zM432 266h80q174 0 248 110t74 372q0 260 -74 370q-73 109 -248 109h-80v-326h211v-237h-211v-398z" />
<glyph unicode="&#xd1;" d="M119 0v1493h317l416 -1085v1085h260v-1493h-315l-418 1085v-1085h-260zM268 1635v30q0 107 55 171q54 65 142 65q36 0 74 -12q39 -14 75 -37l60 -39q20 -13 41 -21t35 -8q36 0 56 30q19 29 19 87h140q0 -8 -1 -15t-1 -16q0 -105 -53 -170q-54 -65 -142 -65q-36 0 -72 11 q-35 10 -78 38l-54 34l-12 7q-46 26 -73 26q-31 0 -51 -30q-20 -31 -20 -80v-6h-140z" />
<glyph unicode="&#xd2;" d="M92 745q0 383 133 579q132 196 391 196q260 0 393 -196q132 -197 132 -579t-132 -578q-133 -196 -393 -196q-259 0 -391 196q-133 196 -133 578zM283 1899h284l199 -264h-197zM399 745q0 -269 52 -388q52 -121 165 -121q114 0 166 121q52 119 52 388q0 270 -52 390 q-53 120 -166 120t-165 -120t-52 -390z" />
<glyph unicode="&#xd3;" d="M92 745q0 383 133 579q132 196 391 196q260 0 393 -196q132 -197 132 -579t-132 -578q-133 -196 -393 -196q-259 0 -391 196q-133 196 -133 578zM399 745q0 -269 52 -388q52 -121 165 -121q114 0 166 121q52 119 52 388q0 270 -52 390q-53 120 -166 120q-112 0 -165 -120 q-52 -120 -52 -390zM469 1635l199 264h284l-286 -264h-197z" />
<glyph unicode="&#xd4;" d="M92 745q0 383 133 579q132 196 391 196q260 0 393 -196q132 -197 132 -579t-132 -578q-133 -196 -393 -196q-259 0 -391 196q-133 196 -133 578zM240 1635l221 264h309l223 -264h-178l-199 161l-198 -161h-178zM399 745q0 -269 52 -388q52 -121 165 -121q114 0 166 121 q52 119 52 388q0 270 -52 390q-53 120 -166 120q-112 0 -165 -120q-52 -120 -52 -390z" />
<glyph unicode="&#xd5;" d="M92 745q0 383 133 579q132 196 391 196q260 0 393 -196q132 -196 132 -579q0 -381 -132 -578q-133 -196 -393 -196q-259 0 -391 196q-133 196 -133 578zM268 1635v30q0 107 55 171q54 65 142 65q36 0 74 -12q39 -14 75 -37l60 -39q20 -13 41 -21t35 -8q36 0 56 30 q19 29 19 87h140q0 -8 -1 -15t-1 -16q0 -105 -53 -170q-54 -65 -142 -65q-36 0 -72 11q-35 10 -78 38l-54 34l-12 7q-46 26 -73 26q-31 0 -51 -30q-20 -31 -20 -80v-6h-140zM399 745q0 -269 52 -388q52 -121 165 -121q114 0 166 121q52 119 52 388q0 270 -52 390 q-53 120 -166 120t-165 -120t-52 -390z" />
<glyph unicode="&#xd6;" d="M92 745q0 383 133 579q132 196 391 196q260 0 393 -196q132 -196 132 -579q0 -382 -132 -578q-133 -196 -393 -196q-259 0 -391 196q-133 196 -133 578zM301 1653v246h236v-246h-236zM399 745q0 -269 52 -388q52 -121 165 -121q114 0 166 121q52 119 52 388 q0 270 -52 390q-53 120 -166 120q-112 0 -165 -120q-52 -120 -52 -390zM696 1653v246h236v-246h-236z" />
<glyph unicode="&#xd7;" d="M119 313l330 330l-330 328l168 168l327 -328l330 328l168 -168l-330 -328l330 -330l-168 -166l-330 328l-327 -328z" />
<glyph unicode="&#xd8;" d="M-6 51l168 238q-36 93 -52 202q-18 112 -18 254q0 383 133 579q132 196 391 196q105 0 186 -31q84 -32 144 -92l113 162l162 -115l-158 -223q40 -97 59 -213q19 -117 19 -263q0 -382 -132 -578q-133 -196 -393 -196q-107 0 -191 34q-84 32 -149 99l-120 -167zM399 629 l373 524q-26 51 -65 77q-38 25 -91 25q-112 0 -164 -120q-53 -121 -53 -379v-127zM451 354q24 -58 67 -87q41 -31 98 -31q114 0 166 121q52 119 52 388q0 38 -1 59q-4 78 -4 84z" />
<glyph unicode="&#xd9;" d="M106 551v942h295v-1016q0 -112 57 -175q57 -64 158 -64t158 64q57 63 57 175v1016h295v-942q0 -152 -30 -262.5t-91 -179.5q-122 -138 -389 -138t-388 138q-122 139 -122 442zM283 1899h284l199 -264h-197z" />
<glyph unicode="&#xda;" d="M106 551v942h295v-1016q0 -112 57 -175q57 -64 158 -64t158 64q57 63 57 175v1016h295v-942q0 -152 -30 -262.5t-91 -179.5q-122 -138 -389 -138t-388 138q-122 139 -122 442zM469 1635l199 264h284l-286 -264h-197z" />
<glyph unicode="&#xdb;" d="M106 551v942h295v-1016q0 -112 57 -175q57 -64 158 -64t158 64q57 63 57 175v1016h295v-942q0 -152 -30 -262.5t-91 -179.5q-122 -138 -389 -138t-388 138q-122 139 -122 442zM240 1635l221 264h309l223 -264h-178l-199 161l-198 -161h-178z" />
<glyph unicode="&#xdc;" d="M106 551v942h295v-1016q0 -112 57 -175q57 -64 158 -64t158 64q57 63 57 175v1016h295v-942q0 -305 -121 -442q-122 -138 -389 -138t-388 138q-122 139 -122 442zM301 1653v246h236v-246h-236zM696 1653v246h236v-246h-236z" />
<glyph unicode="&#xdd;" d="M8 1493h318l290 -600l291 600h318l-461 -905v-588h-295v588zM469 1635l199 264h284l-286 -264h-197z" />
<glyph unicode="&#xde;" d="M162 0v1493h295v-238h110q309 0 445 -109q135 -110 135 -358q0 -239 -137 -347q-136 -109 -443 -109h-110v-332h-295zM457 575h121q146 0 204 49t58 169q0 122 -58 171q-59 50 -204 50h-121v-439z" />
<glyph unicode="&#xdf;" d="M127 0v1126q0 212 121 321q119 109 350 109q224 0 330 -118t106 -365v-14q-125 -6 -189 -51q-65 -47 -65 -127q0 -64 116 -153l19 -15l97 -74q81 -60 122 -138q40 -76 40 -171q0 -167 -112 -263t-306 -96q-62 0 -123 12q-65 14 -129 37v250q56 -30 116 -47 q55 -16 111 -16q73 0 116 34q42 33 42 91q0 72 -115 160q-20 16 -45 34l-86 68q-60 49 -89 112q-30 63 -30 140q0 126 74 212q72 84 211 116q-9 74 -58 111q-50 36 -141 36q-94 0 -142 -50q-48 -51 -48 -149v-1122h-293z" />
<glyph unicode="&#xe0;" d="M94 354q0 196 127 290q127 93 393 93h203v49q0 71 -51 108q-53 36 -152 36q-104 0 -203 -26q-102 -28 -206 -85v250q94 39 197 59q98 19 212 19q273 0 384 -111q110 -112 110 -397v-639h-291v125q-52 -73 -136 -114q-82 -40 -183 -40q-190 0 -297 101t-107 282zM199 1638 h282l283 -376h-197zM406 340q0 -76 45 -121t122 -45q116 0 180 88q64 86 64 244v20h-117q-165 0 -229 -42q-65 -42 -65 -144z" />
<glyph unicode="&#xe1;" d="M94 354q0 196 127 290q127 93 393 93h203v49q0 71 -51 108q-53 36 -152 36q-104 0 -203 -26q-102 -28 -206 -85v250q94 39 197 59q98 19 212 19q273 0 384 -111q110 -112 110 -397v-639h-291v125q-52 -73 -136 -114q-82 -40 -183 -40q-190 0 -297 101t-107 282zM406 340 q0 -76 45 -121t122 -45q116 0 180 88q64 86 64 244v20h-117q-165 0 -229 -42q-65 -42 -65 -144zM469 1262l283 376h282l-368 -376h-197z" />
<glyph unicode="&#xe2;" d="M94 354q0 196 127 290q127 93 393 93h203v49q0 71 -51 108q-53 36 -152 36q-104 0 -203 -26q-102 -28 -206 -85v250q94 39 197 59q98 19 212 19q273 0 384 -111q110 -112 110 -397v-639h-291v125q-52 -73 -136 -114q-82 -40 -183 -40q-190 0 -297 101t-107 282zM240 1262 l256 376h241l256 -376h-178l-199 225l-198 -225h-178zM406 340q0 -76 45 -121t122 -45q116 0 180 88q64 86 64 244v20h-117q-165 0 -229 -42q-65 -42 -65 -144z" />
<glyph unicode="&#xe3;" d="M94 354q0 196 127 290q127 93 393 93h203v49q0 70 -51 108q-53 36 -152 36q-104 0 -203 -26q-102 -28 -206 -85v250q94 39 197 59q98 19 212 19q273 0 384 -111q110 -112 110 -397v-639h-291v125q-52 -73 -136 -114q-82 -40 -183 -40q-190 0 -297 101t-107 282zM268 1309 q0 137 52 210q51 74 145 74q37 0 72 -13q36 -13 77 -44l62 -43q23 -17 40 -23q19 -8 34 -8q36 0 56 32q19 31 19 89v8h140q0 -137 -51 -210q-53 -74 -146 -74q-36 0 -69 12t-81 45l-67 45q-44 29 -70 29q-36 0 -54 -31q-19 -31 -19 -90v-8h-140zM406 340q0 -76 45 -121 t122 -45q116 0 180 88q64 86 64 244v20h-117q-165 0 -229 -42q-65 -42 -65 -144z" />
<glyph unicode="&#xe4;" d="M94 354q0 196 127 290q127 93 393 93h203v49q0 71 -51 108q-53 36 -152 36q-104 0 -203 -26q-102 -28 -206 -85v250q94 39 197 59q98 19 212 19q273 0 384 -111q110 -112 110 -397v-639h-291v125q-52 -73 -136 -114q-82 -40 -183 -40q-190 0 -297 101t-107 282zM301 1339 v246h236v-246h-236zM406 340q0 -76 45 -121t122 -45q116 0 180 88q64 86 64 244v20h-117q-165 0 -229 -42q-65 -42 -65 -144zM696 1339v246h236v-246h-236z" />
<glyph unicode="&#xe5;" d="M94 354q0 196 127 290q128 93 393 93h203v49q0 71 -51 108q-53 36 -152 36q-104 0 -203 -26q-102 -28 -206 -85v250q94 39 197 59q98 19 212 19q273 0 384 -111q110 -112 110 -397v-639h-291v125q-52 -73 -136 -114q-81 -40 -183 -40q-190 0 -297 101t-107 282zM332 1534 q0 117 83 202q83 83 201 83q119 0 202 -83q83 -85 83 -202q0 -118 -83 -201q-83 -84 -202 -84t-201 84q-83 83 -83 201zM406 340q0 -76 45 -121t122 -45q116 0 180 88q64 86 64 244v20h-117q-165 0 -229 -42q-65 -42 -65 -144zM485 1534q0 -55 39 -93q38 -38 92 -38 q55 0 94 39q38 38 38 92t-39 93q-40 38 -93 38q-54 0 -92 -38q-39 -39 -39 -93z" />
<glyph unicode="&#xe6;" d="M14 326q0 185 101 277q100 91 305 91h76v51q0 94 -39 140q-39 47 -115 47q-56 0 -124 -27q-71 -30 -142 -82v246q76 40 144 59q69 19 134 19q99 0 161 -31q63 -32 97 -96q28 61 95 94q65 33 157 33q177 0 251 -119q73 -118 73 -422v-127h-451q0 -143 50 -219 q49 -76 145 -76q60 0 120 30q61 29 119 87v-244q-50 -44 -112 -65q-63 -21 -146 -21q-103 0 -178 42t-117 122q-20 -41 -46.5 -72t-59.5 -52q-65 -40 -164 -40q-159 0 -247 92q-87 93 -87 263zM240 330q0 -70 32 -108t93 -38q63 0 94 43q30 44 30 131v125h-73 q-87 0 -131 -39q-45 -39 -45 -114zM737 690h226v23q0 126 -25 172q-26 47 -88 47t-88 -47q-25 -45 -25 -172v-23z" />
<glyph unicode="&#xe7;" d="M168 559q0 277 147 434q147 156 406 156q90 0 174 -21q83 -21 166 -65v-268q-64 55 -140 85q-78 29 -159 29q-144 0 -220 -91q-77 -92 -77 -259q0 -168 77 -258t220 -90q84 0 159 29q76 30 140 86v-269q-72 -43 -159 -64q-39 -11 -101 -18q41 -48 63 -90q27 -53 27 -100 q0 -95 -61 -141q-62 -45 -189 -45q-49 0 -98 6q-61 9 -104 20v156q48 -18 87 -26q42 -9 78 -9q57 0 91 23q32 23 32 63q0 26 -21 67q-20 38 -47 74q-217 17 -345 154q-146 156 -146 432z" />
<glyph unicode="&#xe8;" d="M92 555q0 273 143 433q142 159 390 159q249 0 387 -147q137 -149 137 -416v-119h-759q1 -133 78 -197q77 -65 230 -65q100 0 199 29q98 29 205 92v-269q-102 -42 -208 -63q-107 -21 -224 -21q-281 0 -429 151q-149 150 -149 433zM238 1638h282l283 -376h-197zM393 684 l461 1q-2 115 -59 176q-59 59 -170 59q-102 0 -161 -61q-60 -62 -71 -175z" />
<glyph unicode="&#xe9;" d="M92 555q0 273 143 433q142 159 390 159q249 0 387 -147q137 -149 137 -416v-119h-759q1 -133 78 -197q77 -65 230 -65q100 0 199 29q98 29 205 92v-269q-51 -21 -103 -37t-105 -26q-107 -21 -224 -21q-281 0 -429 151q-149 150 -149 433zM393 684l461 1q-2 115 -59 176 q-59 59 -170 59q-102 0 -161 -61q-60 -62 -71 -175zM508 1262l283 376h282l-368 -376h-197z" />
<glyph unicode="&#xea;" d="M92 555q0 273 143 433q142 159 390 159q249 0 387 -147q137 -149 137 -416v-119h-759q1 -133 78 -197q77 -65 230 -65q100 0 199 29q98 29 205 92v-269q-51 -21 -103 -37t-105 -26q-107 -21 -224 -21q-281 0 -429 151q-149 150 -149 433zM279 1262l256 376h241l256 -376 h-178l-199 225l-198 -225h-178zM393 684l461 1q-2 115 -59 176q-59 59 -170 59q-102 0 -161 -61q-60 -62 -71 -175z" />
<glyph unicode="&#xeb;" d="M92 555q0 273 143 433q142 159 390 159q249 0 387 -147q137 -149 137 -416v-119h-759q1 -133 78 -197q77 -65 230 -65q100 0 199 29q98 29 205 92v-269q-102 -42 -208 -63q-107 -21 -224 -21q-281 0 -429 151q-149 150 -149 433zM340 1339v246h236v-246h-236zM393 684 l461 1q-2 115 -59 176q-59 59 -170 59q-102 0 -161 -61q-60 -62 -71 -175zM735 1339v246h236v-246h-236z" />
<glyph unicode="&#xec;" d="M143 0v225h365v670h-287v225h580v-895h364v-225h-1022zM199 1638h282l283 -376h-197z" />
<glyph unicode="&#xed;" d="M143 0v225h365v670h-287v225h580v-895h364v-225h-1022zM469 1262l283 376h282l-368 -376h-197z" />
<glyph unicode="&#xee;" d="M143 0v225h365v670h-287v225h580v-895h364v-225h-1022zM240 1262l256 376h241l256 -376h-178l-199 225l-198 -225h-178z" />
<glyph unicode="&#xef;" d="M143 0v225h365v670h-287v225h580v-895h364v-225h-1022zM301 1339v246h236v-246h-236zM696 1339v246h236v-246h-236z" />
<glyph unicode="&#xf0;" d="M98 537q0 237 130 376q131 140 347 140q41 0 72 -6q32 -6 58 -19l-160 219l-312 -119l-55 117l283 109l-158 202h293l92 -116l297 127l66 -123l-277 -117l166 -227q98 -134 143 -263q43 -126 43 -278q0 -277 -136 -432q-136 -156 -378 -156q-236 0 -375 153 q-139 152 -139 413zM389 545q0 -159 60 -247q59 -89 163 -89q109 0 167 91q57 90 57 263q0 44 -6 94q-8 55 -19 103q-52 28 -98 41q-51 14 -97 14q-104 0 -166 -72q-61 -73 -61 -198z" />
<glyph unicode="&#xf1;" d="M172 0v1120h291v-168q32 93 106 144q75 51 181 51q159 0 240 -105q81 -107 81 -315v-727h-291v682q0 123 -34 175t-113 52t-124 -71q-46 -70 -46 -197v-641h-291zM268 1309q0 137 52 210q51 74 145 74q37 0 72 -13q36 -13 77 -44l62 -43q23 -17 40 -23q19 -8 34 -8 q36 0 56 32q19 31 19 89v8h140q0 -137 -51 -210q-53 -74 -146 -74q-36 0 -69 12t-81 45l-67 45q-44 29 -70 29q-36 0 -54 -31q-19 -31 -19 -90v-8h-140z" />
<glyph unicode="&#xf2;" d="M98 559q0 271 141 430q140 158 377 158q238 0 379 -158q140 -160 140 -430q0 -271 -140 -429q-141 -159 -379 -159t-377 159q-141 157 -141 429zM199 1561h282l283 -299h-197zM391 559q0 -166 60 -257q60 -93 165 -93q106 0 166 93q60 91 60 257q0 165 -60 258 q-60 92 -166 92q-105 0 -165 -92q-60 -93 -60 -258z" />
<glyph unicode="&#xf3;" d="M98 559q0 271 141 430q140 158 377 158q238 0 379 -158q140 -160 140 -430q0 -271 -140 -429q-141 -159 -379 -159t-377 159q-141 157 -141 429zM391 559q0 -166 60 -257q60 -93 165 -93q106 0 166 93q60 91 60 257q0 165 -60 258q-60 92 -166 92q-105 0 -165 -92 q-60 -93 -60 -258zM469 1262l283 299h282l-368 -299h-197z" />
<glyph unicode="&#xf4;" d="M98 559q0 271 141 430q140 158 377 158q238 0 379 -158q140 -160 140 -430q0 -271 -140 -429q-141 -159 -379 -159t-377 159q-141 157 -141 429zM240 1262l256 299h241l256 -299h-178l-199 147l-198 -147h-178zM391 559q0 -166 60 -257q60 -93 165 -93q106 0 166 93 q60 91 60 257q0 165 -60 258q-60 92 -166 92q-105 0 -165 -92q-60 -93 -60 -258z" />
<glyph unicode="&#xf5;" d="M98 559q0 271 141 430q140 158 377 158q238 0 379 -158q140 -160 140 -430q0 -271 -140 -429q-141 -159 -379 -159t-377 159q-141 158 -141 429zM268 1276v33q0 113 54 183q54 69 143 69q37 0 72 -13q36 -14 77 -45l62 -43q20 -14 40 -22q19 -8 34 -8q37 0 56 31t19 89v9 h140q0 -10 -1 -17t-1 -16q0 -115 -53 -183q-54 -69 -142 -69q-35 0 -67 12q-34 11 -83 45l-67 45q-44 29 -70 29q-33 0 -53 -32t-20 -89v-8h-140zM391 559q0 -165 60 -257q60 -93 165 -93q106 0 166 93q60 91 60 257q0 165 -60 258q-60 92 -166 92q-105 0 -165 -92 q-60 -93 -60 -258z" />
<glyph unicode="&#xf6;" d="M98 559q0 271 141 430q140 158 377 158q238 0 379 -158q140 -160 140 -430q0 -271 -140 -429q-141 -159 -379 -159t-377 159q-141 158 -141 429zM301 1315v246h236v-246h-236zM391 559q0 -165 60 -257q60 -93 165 -93q106 0 166 93q60 91 60 257q0 165 -60 258 q-60 92 -166 92q-105 0 -165 -92q-60 -93 -60 -258zM696 1315v246h236v-246h-236z" />
<glyph unicode="&#xf7;" d="M66 524v238h1099v-238h-1099zM461 86v309h309v-309h-309zM461 889v309h309v-309h-309z" />
<glyph unicode="&#xf8;" d="M25 2l163 197q-44 72 -67 162t-23 198q0 271 141 430q140 158 377 158q86 0 159 -21q73 -22 140 -67l148 176l139 -121l-160 -188q46 -75 70 -168q23 -93 23 -199q0 -271 -140 -429q-141 -159 -379 -159q-81 0 -158 23q-76 22 -143 67l-151 -178zM391 559q0 -26 2 -60 q2 -26 6 -50l346 411q-25 25 -57 37q-31 12 -70 12q-106 0 -166 -92q-61 -92 -61 -258zM483 262q31 -26 64 -40q32 -13 71 -13q104 0 164 94q60 93 60 256q0 20 -2 58q-3 31 -9 58z" />
<glyph unicode="&#xf9;" d="M160 391v729h293v-684q0 -121 34 -173t113 -52t124 70q44 71 44 196v643h293v-1120h-293v166q-32 -93 -105 -144q-75 -51 -180 -51q-160 0 -241 106q-82 106 -82 314zM199 1638h282l283 -376h-197z" />
<glyph unicode="&#xfa;" d="M160 391v729h293v-684q0 -121 34 -173t113 -52t124 70q44 71 44 196v643h293v-1120h-293v166q-32 -93 -105 -144q-75 -51 -180 -51q-160 0 -241 106q-82 106 -82 314zM469 1262l283 376h282l-368 -376h-197z" />
<glyph unicode="&#xfb;" d="M160 391v729h293v-684q0 -121 34 -173t113 -52t124 70q44 71 44 196v643h293v-1120h-293v166q-32 -93 -105 -144q-75 -51 -180 -51q-160 0 -241 106q-82 106 -82 314zM240 1262l256 376h241l256 -376h-178l-199 225l-198 -225h-178z" />
<glyph unicode="&#xfc;" d="M160 391v729h293v-684q0 -121 34 -173t113 -52t124 70q44 71 44 196v643h293v-1120h-293v166q-32 -93 -105 -144q-75 -51 -180 -51q-160 0 -241 106q-82 106 -82 314zM301 1339v246h236v-246h-236zM696 1339v246h236v-246h-236z" />
<glyph unicode="&#xfd;" d="M59 1120h308l256 -727l245 727h308l-465 -1241q-59 -158 -141 -231q-83 -72 -201 -72h-242v223h119q90 0 132 30q42 31 85 142l22 60zM469 1262l283 376h282l-368 -376h-197z" />
<glyph unicode="&#xfe;" d="M150 -426v1982h292v-604q46 97 121 146q74 49 176 49q192 0 298 -154t106 -434q0 -284 -107 -436q-108 -152 -307 -152q-92 0 -161 47q-73 47 -126 140v-584h-292zM442 561q0 -163 55 -254q56 -92 150 -92q95 0 149 92q54 91 54 254t-54 254q-54 92 -149 92 q-94 0 -150 -92q-55 -91 -55 -254z" />
<glyph unicode="&#xff;" d="M59 1120h308l256 -727l245 727h308l-465 -1241q-59 -157 -141 -231q-83 -72 -201 -72h-242v223h119q90 0 132 30q42 31 85 142l22 60zM301 1339v246h236v-246h-236zM696 1339v246h236v-246h-236z" />
<glyph unicode="&#x152;" d="M68 745q0 437 121 592q121 156 444 156h573v-260h-332v-311h302v-260h-302v-402h343v-260h-584q-324 0 -444 156q-121 154 -121 589zM354 745q0 -312 46 -398q45 -87 169 -87h52v973h-52q-122 0 -169 -89q-46 -88 -46 -399z" />
<glyph unicode="&#x153;" d="M14 559q0 316 85 452q84 136 274 136q98 0 161 -29q63 -31 103 -96q29 60 93 93q66 32 157 32q176 0 250 -119q73 -118 73 -422v-127h-450q0 -143 50 -219q49 -76 144 -76q60 0 120 30q60 28 120 87v-244q-50 -44 -111 -65t-147 -21q-99 0 -169 37q-72 38 -118 111 q-44 -78 -109 -112q-68 -36 -167 -36q-190 0 -274 138q-85 137 -85 450zM248 559q0 -242 30 -308q28 -67 107 -67q78 0 106 67q29 69 29 308q0 240 -29 309q-28 66 -106 66q-79 0 -107 -66q-30 -68 -30 -309zM760 690h225v35q0 117 -25 163t-88 46q-61 0 -87 -47 q-25 -47 -25 -174v-23z" />
<glyph unicode="&#x178;" d="M8 1493h318l290 -600l291 600h318l-461 -905v-588h-295v588zM301 1653v246h236v-246h-236zM696 1653v246h236v-246h-236z" />
<glyph unicode="&#x2c6;" d="M240 1262l256 376h241l256 -376h-178l-199 225l-198 -225h-178z" />
<glyph unicode="&#x2dc;" d="M268 1309q0 137 52 210q51 74 145 74q37 0 72 -13q36 -13 77 -44l62 -43q23 -17 40 -23q19 -8 34 -8q36 0 56 32q19 31 19 89v8h140q0 -137 -51 -210q-53 -74 -146 -74q-36 0 -69 12t-81 45l-67 45q-44 29 -70 29q-36 0 -54 -31q-19 -31 -19 -90v-8h-140z" />
<glyph unicode="&#x2000;" horiz-adv-x="950" />
<glyph unicode="&#x2001;" horiz-adv-x="1901" />
<glyph unicode="&#x2002;" horiz-adv-x="950" />
<glyph unicode="&#x2003;" horiz-adv-x="1901" />
<glyph unicode="&#x2004;" horiz-adv-x="633" />
<glyph unicode="&#x2005;" horiz-adv-x="475" />
<glyph unicode="&#x2006;" horiz-adv-x="316" />
<glyph unicode="&#x2007;" horiz-adv-x="316" />
<glyph unicode="&#x2008;" horiz-adv-x="237" />
<glyph unicode="&#x2009;" horiz-adv-x="380" />
<glyph unicode="&#x200a;" horiz-adv-x="105" />
<glyph unicode="&#x2010;" d="M221 455v291h791v-291h-791z" />
<glyph unicode="&#x2011;" d="M221 455v291h791v-291h-791z" />
<glyph unicode="&#x2012;" d="M221 455v291h791v-291h-791z" />
<glyph unicode="&#x2013;" d="M0 444v246h1233v-246h-1233z" />
<glyph unicode="&#x2014;" d="M0 444v246h1233v-246h-1233z" />
<glyph unicode="&#x2018;" d="M432 903v271l197 382h215l-99 -382v-271h-313z" />
<glyph unicode="&#x2019;" d="M432 903l98 383v270h314v-270l-197 -383h-215z" />
<glyph unicode="&#x201a;" d="M362 -287l99 383v271h313v-271l-196 -383h-216z" />
<glyph unicode="&#x201c;" d="M152 903v271l196 382h215l-98 -382v-271h-313zM672 903v271l196 382h213l-96 -382v-271h-313z" />
<glyph unicode="&#x201d;" d="M150 903l98 383v270h313v-270l-196 -383h-215zM670 903l98 383v270h313v-270l-196 -383h-215z" />
<glyph unicode="&#x201e;" d="M150 -287l98 383v271h313v-271l-196 -383h-215zM670 -287l98 383v271h313v-271l-196 -383h-215z" />
<glyph unicode="&#x2022;" d="M256 762q0 74 28 139q28 66 78 115q54 51 118 78q66 26 136 26q73 0 139 -27q65 -27 115 -77q53 -53 80 -117q27 -65 27 -137q0 -73 -27 -138q-29 -67 -80 -118q-50 -52 -117 -79q-65 -28 -139 -28t-137 28q-65 27 -117 79q-50 52 -77 117q-27 64 -27 139z" />
<glyph unicode="&#x2026;" d="M57 0v367h295v-367h-295zM469 0v367h295v-367h-295zM881 0v367h295v-367h-295z" />
<glyph unicode="&#x202f;" horiz-adv-x="380" />
<glyph unicode="&#x2039;" d="M346 535v131l469 393v-238l-276 -221l276 -221v-238z" />
<glyph unicode="&#x203a;" d="M420 141v238l278 221l-278 221v238l469 -393v-131z" />
<glyph unicode="&#x205f;" horiz-adv-x="475" />
<glyph unicode="&#x20ac;" d="M6 483l84 187h96q-1 9 -1 30q-1 10 -1 45q0 34 1 45q0 21 1 31h-180l84 189h119q43 248 190 380q145 130 381 130q82 0 156 -18t141 -54v-328q-73 78 -144 114t-147 36q-106 0 -177 -65q-69 -65 -101 -195h442l-84 -189h-382q-2 -22 -2 -34q-1 -12 -1 -54q0 -19 1 -30 q0 -22 1 -33h316l-84 -187h-207q24 -126 96 -194q71 -68 180 -68q79 0 149 36t144 114v-328q-66 -36 -139 -54t-158 -18q-235 0 -381 131q-147 132 -190 381h-203z" />
<glyph unicode="&#x2122;" d="M0 1360v133h438v-133h-141v-445h-156v445h-141zM522 915v578h207l100 -227l89 227h208v-578h-153v437l-107 -256h-75l-117 256v-437h-152z" />
<glyph unicode="&#x25fc;" horiz-adv-x="1120" d="M0 0v1120h1120v-1120h-1120z" />
</font>
</defs>
</svg>
